<?xml version="1.0" encoding="UTF-8" standalone="no"?>
<svg
   inkscape:version="1.1.2 (b8e25be833, 2022-02-05)"
   sodipodi:docname="TinyButtonDown.svg"
   id="svg134465"
   viewBox="0 0 9 9"
   height="9"
   width="9"
   version="1.1"
   inkscape:label="Button"
   xmlns:inkscape="http://www.inkscape.org/namespaces/inkscape"
   xmlns:sodipodi="http://sodipodi.sourceforge.net/DTD/sodipodi-0.dtd"
   xmlns="http://www.w3.org/2000/svg"
   xmlns:svg="http://www.w3.org/2000/svg"
   xmlns:rdf="http://www.w3.org/1999/02/22-rdf-syntax-ns#"
   xmlns:cc="http://creativecommons.org/ns#"
   xmlns:dc="http://purl.org/dc/elements/1.1/">
  <metadata
     id="metadata134471">
    <rdf:RDF>
      <cc:Work
         rdf:about="">
        <dc:format>image/svg+xml</dc:format>
        <dc:type
           rdf:resource="http://purl.org/dc/dcmitype/StillImage" />
      </cc:Work>
    </rdf:RDF>
  </metadata>
  <defs
     id="defs134469" />
  <sodipodi:namedview
     inkscape:current-layer="svg134465"
     inkscape:window-maximized="1"
     inkscape:window-y="-11"
     inkscape:window-x="-11"
     inkscape:cy="4.5336323"
     inkscape:cx="4.4932736"
     inkscape:zoom="74.333333"
     showgrid="false"
     id="namedview134467"
     inkscape:window-height="2054"
     inkscape:window-width="3840"
     inkscape:pageshadow="2"
     inkscape:pageopacity="0"
     guidetolerance="10"
     gridtolerance="10"
     objecttolerance="10"
     borderopacity="1"
     bordercolor="#666666"
     pagecolor="#ffffff"
     inkscape:pagecheckerboard="0" />
  <path
     d="M 8.9000001,4.5 A 4.4000001,4.4000001 0 0 1 4.5,8.9000001 4.4000001,4.4000001 0 0 1 0.0999999,4.5 4.4000001,4.4000001 0 0 1 4.5,0.0999999 4.4000001,4.4000001 0 0 1 8.9000001,4.5"
     style="fill:#808080"
     id="circle7"
     inkscape:label="#cicrcle7" />
  <path
     d="M 8.6999998,4.5 A 4.1999998,4.1999998 0 0 1 4.5,8.6999998 4.1999998,4.1999998 0 0 1 0.30000019,4.5 4.1999998,4.1999998 0 0 1 4.5,0.30000019 4.1999998,4.1999998 0 0 1 8.6999998,4.5"
     style="fill:#4d4d4d"
     id="circle6"
     inkscape:label="#circle6" />
  <path
     d="m 8.5,4.5 a 4,4 0 0 1 -4,4 4,4 0 0 1 -4,-4 4,4 0 0 1 4,-4 4,4 0 0 1 4,4"
     style="fill:#666666"
     id="circle5"
     inkscape:label="#circle5" />
  <path
     d="M 8.3,4.5 A 3.8,3.8 0 0 1 4.5,8.3 3.8,3.8 0 0 1 0.70000005,4.5 3.8,3.8 0 0 1 4.5,0.70000005 3.8,3.8 0 0 1 8.3,4.5"
     style="fill:#808080"
     id="circle4"
     inkscape:label="#circle4" />
  <path
     d="M 8.0999999,4.5 A 3.5999999,3.5999999 0 0 1 4.5,8.0999999 3.5999999,3.5999999 0 0 1 0.9000001,4.5 3.5999999,3.5999999 0 0 1 4.5,0.9000001 3.5999999,3.5999999 0 0 1 8.0999999,4.5"
     style="fill:#999999"
     id="circle3"
     inkscape:label="#circle3" />
  <path
     d="M 7.9000001,4.5 A 3.4000001,3.4000001 0 0 1 4.5,7.9000001 3.4000001,3.4000001 0 0 1 1.0999999,4.5 3.4000001,3.4000001 0 0 1 4.5,1.0999999 3.4000001,3.4000001 0 0 1 7.9000001,4.5"
     style="fill:#b3b3b3"
     id="circle2"
     inkscape:label="#circle2" />
  <path
     d="M 7.7,4.5 A 3.2,3.2 0 0 1 4.5,7.7 3.2,3.2 0 0 1 1.3,4.5 3.2,3.2 0 0 1 4.5,1.3 3.2,3.2 0 0 1 7.7,4.5"
     style="fill:#b3b3b3"
     id="circle1"
     inkscape:label="circle1" />
</svg>
