<?xml version="1.0" encoding="UTF-8" standalone="no"?>
<!-- Created with Inkscape (http://www.inkscape.org/) -->

<svg
   width="30.488001mm"
   height="128.50433mm"
   viewBox="0 0 30.488001 128.50433"
   version="1.1"
   id="svg5"
   inkscape:version="1.1.2 (b8e25be833, 2022-02-05)"
   sodipodi:docname="Comps.svg"
   xmlns:inkscape="http://www.inkscape.org/namespaces/inkscape"
   xmlns:sodipodi="http://sodipodi.sourceforge.net/DTD/sodipodi-0.dtd"
   xmlns="http://www.w3.org/2000/svg"
   xmlns:svg="http://www.w3.org/2000/svg">
  <sodipodi:namedview
     id="namedview7"
     pagecolor="#ffffff"
     bordercolor="#666666"
     borderopacity="1.0"
     inkscape:pageshadow="2"
     inkscape:pageopacity="0.0"
     inkscape:pagecheckerboard="0"
     inkscape:document-units="mm"
     showgrid="false"
     height="128.5mm"
     inkscape:zoom="4.9217646"
     inkscape:cx="-34.235689"
     inkscape:cy="255.29462"
     inkscape:window-width="3499"
     inkscape:window-height="2036"
     inkscape:window-x="317"
     inkscape:window-y="0"
     inkscape:window-maximized="0"
     inkscape:current-layer="layer1" />
  <defs
     id="defs2" />
  <g
     inkscape:label="Layer 1"
     inkscape:groupmode="layer"
     id="layer1"
     transform="translate(0.00163785)">
    <path
       id="rect4302"
       style="fill:#dddddd;stroke-width:0.184932"
       d="M -0.00163785,1.6577559e-8 H 30.486363 V 128.50433 H -0.00163785 Z" />
    <path
       id="rect10313"
       style="fill:#fafafa;stroke-width:0.264582"
       d="m 3.1204512,6 h 9.8110008 c 0.831,0 1.499999,0.6689998 1.499999,1.4999995 V 116.5 c 0,0.831 -0.668999,1.5 -1.499999,1.5 H 3.1204512 c -0.8309998,0 -1.4999996,-0.669 -1.4999996,-1.5 V 7.4999995 C 1.6204516,6.6689998 2.2894514,6 3.1204512,6 Z" />
    <path
       id="rect10313-0"
       style="fill:#b2b2b2;stroke-width:0.264582"
       d="m 17.553362,6 h 9.811 c 0.831,0 1.5,0.6689998 1.5,1.4999995 V 116.5 c 0,0.831 -0.669,1.5 -1.5,1.5 h -9.811 c -0.831,0 -1.5,-0.669 -1.5,-1.5 V 7.4999995 C 16.053362,6.6689998 16.722362,6 17.553362,6 Z" />
    <path
       id="rect10313-8"
       style="fill:#fafafa;stroke-width:0.264582"
       d="m 17.55336,101.84969 h 9.811 c 0.831,0 1.5,0.669 1.5,1.5 v 13.15032 c 0,0.831 -0.669,1.5 -1.5,1.5 h -9.811 c -0.831,0 -1.5,-0.669 -1.5,-1.5 v -13.15032 c 0,-0.831 0.669,-1.5 1.5,-1.5 z" />
    <path
       id="rect10313-4"
       style="fill:#fafafa;stroke-width:0.264583"
       d="m 3.1204513,136.22836 h 9.0000007 c 0.831,0 1.5,0.669 1.5,1.5 v 9.59748 c 0,0.831 -0.669,1.5 -1.5,1.5 H 3.1204513 c -0.8309998,0 -1.4999997,-0.669 -1.4999997,-1.5 v -9.59748 c 0,-0.831 0.6689999,-1.5 1.4999997,-1.5 z" />
    <g
       aria-label="COMPS"
       id="text8544-7-0-8-5"
       style="font-size:4.23333px;line-height:1.25;font-family:Calibri;-inkscape-font-specification:Calibri;text-align:center;letter-spacing:0px;text-anchor:middle;fill:#010101;stroke-width:0.264583">
      <path
         d="m 3.5406568,122.34611 q 0,0.0227 -0.00207,0.0413 -0.00207,0.0186 -0.0062,0.0331 -0.00413,0.0145 -0.012402,0.0269 -0.0062,0.0124 -0.026872,0.0331 -0.018604,0.0186 -0.084749,0.0641 -0.066146,0.0434 -0.1674315,0.0868 -0.099219,0.0434 -0.2294432,0.0744 -0.1302245,0.031 -0.2873207,0.031 -0.2521808,0 -0.4568193,-0.0868 -0.2046385,-0.0889 -0.3493324,-0.25838 -0.1426268,-0.1695 -0.2211749,-0.41754 -0.076481,-0.24805 -0.076481,-0.56638 0,-0.32659 0.082682,-0.58497 0.082682,-0.26045 0.2315103,-0.44029 0.150895,-0.1819 0.3596676,-0.27698 0.2108397,-0.0971 0.4650875,-0.0971 0.1198893,0 0.2315103,0.0227 0.113688,0.0227 0.2087726,0.0579 0.095085,0.0351 0.1694985,0.0806 0.076481,0.0455 0.1033528,0.0744 0.028939,0.0269 0.03514,0.0393 0.00827,0.0124 0.012402,0.0289 0.00413,0.0145 0.0062,0.0351 0.00207,0.0186 0.00207,0.0434 0,0.0289 -0.00413,0.0517 -0.00207,0.0207 -0.010335,0.0372 -0.0062,0.0145 -0.016536,0.0227 -0.010335,0.008 -0.024805,0.008 -0.028939,0 -0.082682,-0.0413 -0.051676,-0.0434 -0.1384927,-0.0951 -0.084749,-0.0517 -0.2087727,-0.093 -0.1240233,-0.0434 -0.2955889,-0.0434 -0.1881021,0 -0.3451983,0.0765 -0.1570962,0.0744 -0.2707843,0.22118 -0.111621,0.14676 -0.1756997,0.36173 -0.062012,0.21497 -0.062012,0.49403 0,0.26665 0.057878,0.47335 0.057878,0.20671 0.1674315,0.34933 0.109554,0.14056 0.2707843,0.21498 0.1612303,0.0744 0.3658688,0.0744 0.1674315,0 0.2914549,-0.0413 0.1260903,-0.0434 0.2149737,-0.0951 0.088883,-0.0517 0.1446939,-0.093 0.057878,-0.0434 0.088883,-0.0434 0.012402,0 0.020671,0.006 0.00827,0.004 0.012402,0.0186 0.0062,0.0124 0.00827,0.0351 0.00413,0.0227 0.00413,0.0558 z"
         style="font-weight:300;-inkscape-font-specification:'Calibri Light'"
         id="path897" />
      <path
         d="m 6.1658175,121.34152 q 0,0.32039 -0.074414,0.58084 -0.072347,0.25838 -0.2191079,0.44235 -0.146761,0.1819 -0.370003,0.28112 -0.223242,0.0992 -0.520898,0.0992 -0.297656,0 -0.5126297,-0.093 -0.2129068,-0.0951 -0.3513995,-0.26872 -0.1364257,-0.1757 -0.2025714,-0.42788 -0.064079,-0.25218 -0.064079,-0.56844 0,-0.31419 0.072347,-0.57051 0.072347,-0.25631 0.2191079,-0.43614 0.148828,-0.1819 0.3700029,-0.28112 Q 4.735415,120 5.0351381,120 q 0.2914548,0 0.5043615,0.093 0.2129068,0.093 0.3513995,0.26665 0.1405598,0.17363 0.2067055,0.42167 0.068213,0.24805 0.068213,0.56018 z m -0.2687173,0.0227 q 0,-0.23771 -0.045475,-0.44441 -0.043408,-0.20878 -0.1467609,-0.36174 -0.1012857,-0.15503 -0.2707843,-0.24184 -0.1694986,-0.0889 -0.4196123,-0.0889 -0.2480466,0 -0.4196123,0.093 -0.1694985,0.0909 -0.2769854,0.24598 -0.1054198,0.15503 -0.1529621,0.36174 -0.045475,0.2067 -0.045475,0.43614 0,0.24392 0.041341,0.45476 0.043408,0.20877 0.1446939,0.3638 0.1012857,0.15503 0.2707842,0.24391 0.1694986,0.0868 0.4237464,0.0868 0.2521808,0 0.4237464,-0.093 0.1715656,-0.0951 0.2769855,-0.25218 0.1054198,-0.15916 0.150895,-0.36587 0.045475,-0.20877 0.045475,-0.43822 z"
         style="font-weight:300;-inkscape-font-specification:'Calibri Light'"
         id="path899" />
      <path
         d="m 9.578526,122.66857 q 0,0.0124 -0.0062,0.0227 -0.0062,0.0103 -0.022738,0.0165 -0.014469,0.006 -0.039274,0.0103 -0.022738,0.004 -0.059945,0.004 -0.033073,0 -0.057878,-0.004 -0.024805,-0.004 -0.039274,-0.0103 -0.014469,-0.006 -0.020671,-0.0165 -0.0062,-0.0103 -0.0062,-0.0227 v -2.41226 h -0.00413 l -1.0521313,2.42673 q -0.00413,0.008 -0.012402,0.0165 -0.00827,0.006 -0.022738,0.0103 -0.014469,0.006 -0.03514,0.008 -0.018603,0.004 -0.045475,0.004 -0.028939,0 -0.049609,-0.004 -0.02067,-0.002 -0.03514,-0.008 -0.012402,-0.004 -0.020671,-0.0103 -0.00827,-0.008 -0.010335,-0.0165 l -1.0004549,-2.42673 h -0.00207 v 2.41226 q 0,0.0124 -0.0062,0.0227 -0.0062,0.0103 -0.022738,0.0165 -0.014469,0.006 -0.039274,0.0103 -0.022738,0.004 -0.062012,0.004 -0.03514,0 -0.059945,-0.004 -0.022738,-0.004 -0.037207,-0.0103 -0.014469,-0.006 -0.020671,-0.0165 -0.00413,-0.0103 -0.00413,-0.0227 v -2.50321 q 0,-0.0744 0.039274,-0.10128 0.039274,-0.0289 0.076481,-0.0289 h 0.1364256 q 0.051676,0 0.09095,0.0124 0.039274,0.0103 0.068213,0.0331 0.031006,0.0207 0.051676,0.0517 0.02067,0.031 0.037207,0.0703 l 0.8826327,2.12493 h 0.010335 l 0.9198397,-2.11666 q 0.020671,-0.0496 0.043408,-0.0827 0.024805,-0.0351 0.049609,-0.0558 0.026872,-0.0207 0.05581,-0.0289 0.031006,-0.008 0.066146,-0.008 h 0.150895 q 0.018603,0 0.039274,0.006 0.02067,0.006 0.037207,0.0227 0.016536,0.0145 0.026872,0.0393 0.012402,0.0248 0.012402,0.062 z"
         style="font-weight:300;-inkscape-font-specification:'Calibri Light'"
         id="path901" />
      <path
         d="m 11.89983,120.80202 q 0,0.18603 -0.06408,0.34106 -0.06201,0.15503 -0.179833,0.26665 -0.117823,0.11162 -0.287321,0.17363 -0.169499,0.062 -0.409277,0.062 h -0.347265 v 1.0232 q 0,0.0124 -0.0062,0.0227 -0.0062,0.0103 -0.02067,0.0165 -0.01447,0.006 -0.03927,0.0103 -0.02274,0.004 -0.05995,0.004 -0.03514,0 -0.05994,-0.004 -0.0248,-0.004 -0.03927,-0.0103 -0.01447,-0.006 -0.02067,-0.0165 -0.0062,-0.0103 -0.0062,-0.0227 v -2.50321 q 0,-0.0744 0.03927,-0.10128 0.03927,-0.0289 0.07648,-0.0289 h 0.543636 q 0.08061,0 0.157096,0.008 0.07648,0.006 0.177767,0.031 0.103352,0.0227 0.208772,0.0889 0.107487,0.0641 0.181901,0.15916 0.07441,0.093 0.113688,0.21497 0.04134,0.11989 0.04134,0.26459 z m -0.26665,0.0227 q 0,-0.17363 -0.06821,-0.29352 -0.06821,-0.12196 -0.167431,-0.17983 -0.09715,-0.06 -0.204639,-0.0744 -0.10542,-0.0165 -0.200504,-0.0165 h -0.380338 v 1.16168 h 0.363801 q 0.1757,0 0.293522,-0.0434 0.117822,-0.0455 0.198438,-0.12402 0.08062,-0.0785 0.121956,-0.1881 0.04341,-0.11162 0.04341,-0.24185 z"
         style="font-weight:300;-inkscape-font-specification:'Calibri Light'"
         id="path903" />
      <path
         d="m 13.863533,121.98644 q 0,0.17776 -0.06408,0.31832 -0.06408,0.14056 -0.179834,0.23978 -0.115755,0.0971 -0.274918,0.14883 -0.159164,0.0517 -0.347266,0.0517 -0.128157,0 -0.241845,-0.0248 -0.113688,-0.0227 -0.202572,-0.0558 -0.08888,-0.0331 -0.150895,-0.0661 -0.05994,-0.0351 -0.08268,-0.0579 -0.02274,-0.0248 -0.03307,-0.0558 -0.01034,-0.0331 -0.01034,-0.0806 0,-0.0351 0.0041,-0.0579 0.0041,-0.0227 0.01033,-0.0372 0.0083,-0.0145 0.0186,-0.0186 0.0124,-0.006 0.0248,-0.006 0.02894,0 0.08062,0.0372 0.05374,0.0351 0.136425,0.0786 0.08475,0.0413 0.200505,0.0785 0.117822,0.0351 0.272851,0.0351 0.12609,0 0.23151,-0.0331 0.10542,-0.0351 0.181901,-0.0992 0.07648,-0.0641 0.117822,-0.1571 0.04341,-0.0951 0.04341,-0.21497 0,-0.12403 -0.05374,-0.21291 -0.05374,-0.0889 -0.142627,-0.15503 -0.08682,-0.0682 -0.198437,-0.12196 -0.111621,-0.0558 -0.229443,-0.10955 -0.115755,-0.0558 -0.227376,-0.11989 -0.111621,-0.0641 -0.200505,-0.14883 -0.08682,-0.0868 -0.14056,-0.20257 -0.05374,-0.11575 -0.05374,-0.27492 0,-0.15503 0.05581,-0.27698 0.05581,-0.12403 0.157097,-0.20878 0.101285,-0.0868 0.241845,-0.13229 Q 12.949894,120 13.119393,120 q 0.08475,0 0.171565,0.0165 0.08682,0.0165 0.163298,0.0434 0.07855,0.0248 0.138492,0.0579 0.06201,0.031 0.08061,0.0517 0.02067,0.0186 0.02481,0.0289 0.0062,0.008 0.01033,0.0227 0.0041,0.0145 0.0062,0.0351 0.0021,0.0186 0.0021,0.0475 0,0.0269 -0.0041,0.0496 -0.0021,0.0207 -0.0083,0.0372 -0.0062,0.0145 -0.01654,0.0227 -0.0083,0.008 -0.02067,0.008 -0.02274,0 -0.07028,-0.0289 -0.04548,-0.031 -0.115755,-0.0682 -0.07028,-0.0372 -0.167431,-0.0661 -0.09715,-0.031 -0.221175,-0.031 -0.121956,0 -0.212907,0.0331 -0.09095,0.0331 -0.150895,0.0909 -0.05994,0.0558 -0.09095,0.13229 -0.02894,0.0765 -0.02894,0.16123 0,0.12402 0.05374,0.21291 0.05374,0.0889 0.142627,0.15709 0.08888,0.0682 0.200505,0.12403 0.113688,0.0537 0.229443,0.10955 0.117822,0.0537 0.229443,0.11782 0.113688,0.062 0.202571,0.14883 0.08888,0.0847 0.142627,0.2005 0.05374,0.11369 0.05374,0.27079 z"
         style="font-weight:300;-inkscape-font-specification:'Calibri Light'"
         id="path905" />
    </g>
    <g
       aria-label="2 LIFT"
       id="text8544-7-0-8-5-9"
       style="font-size:2.46944px;line-height:1.25;font-family:Calibri;-inkscape-font-specification:Calibri;text-align:center;text-anchor:middle;fill:#010101;stroke-width:0.264583">
      <path
         d="m 2.5983669,125.36831 q 0,0.0145 -0.00362,0.0277 -0.00241,0.0121 -0.00844,0.0217 -0.00482,0.008 -0.013264,0.0133 -0.00844,0.005 -0.019293,0.005 H 1.7109119 q -0.010852,0 -0.020498,-0.004 -0.00965,-0.004 -0.016881,-0.0109 -0.00723,-0.008 -0.010852,-0.0217 -0.00362,-0.0133 -0.00362,-0.0314 0,-0.0157 0.00121,-0.0277 0.00121,-0.0121 0.00482,-0.0217 0.00362,-0.01 0.00965,-0.0193 0.00603,-0.01 0.015675,-0.0205 l 0.319532,-0.33762 q 0.1193724,-0.1254 0.1893077,-0.22428 0.071141,-0.0989 0.1085203,-0.17845 0.037379,-0.0796 0.048231,-0.1447 0.012058,-0.0651 0.012058,-0.12299 0,-0.0579 -0.019292,-0.10972 -0.018087,-0.0531 -0.05426,-0.0916 -0.036173,-0.0398 -0.090434,-0.0627 -0.053054,-0.0241 -0.1229897,-0.0241 -0.075964,0 -0.1362532,0.0217 -0.060289,0.0205 -0.1061088,0.047 -0.044614,0.0253 -0.074758,0.047 -0.030145,0.0205 -0.044614,0.0205 -0.00723,0 -0.013264,-0.004 -0.00603,-0.004 -0.010852,-0.0109 -0.00362,-0.008 -0.00603,-0.0205 -0.00121,-0.0121 -0.00121,-0.0277 0,-0.0145 0.00121,-0.0241 0.00121,-0.01 0.00362,-0.0169 0.00241,-0.008 0.00603,-0.0157 0.00482,-0.007 0.018087,-0.0193 0.014469,-0.0121 0.047026,-0.0326 0.033762,-0.0205 0.084405,-0.041 0.050643,-0.0217 0.1121376,-0.0362 0.061495,-0.0157 0.1278128,-0.0157 0.1097261,0 0.1905135,0.0326 0.081993,0.0326 0.1362532,0.088 0.05426,0.0555 0.080787,0.12901 0.026527,0.0724 0.026527,0.15314 0,0.0748 -0.013264,0.14952 -0.012058,0.0736 -0.05426,0.16157 -0.040997,0.0868 -0.1205781,0.19293 -0.078376,0.1061 -0.2098059,0.24477 l -0.2845644,0.29783 H 2.553753 q 0.00965,0 0.018087,0.005 0.00844,0.004 0.014469,0.0121 0.00603,0.008 0.00844,0.0205 0.00362,0.0121 0.00362,0.0265 z"
         style="font-weight:300;-inkscape-font-specification:'Calibri Light'"
         id="path886" />
      <path
         d="m 4.3250456,125.36831 q 0,0.0169 -0.00241,0.0289 -0.00241,0.0121 -0.00723,0.0217 -0.00482,0.008 -0.012058,0.0133 -0.00723,0.004 -0.016881,0.004 H 3.6100173 q -0.021704,0 -0.044614,-0.0157 -0.02291,-0.0169 -0.02291,-0.0603 v -1.4602 q 0,-0.007 0.00362,-0.0133 0.00362,-0.006 0.012058,-0.01 0.00844,-0.004 0.02291,-0.006 0.014469,-0.002 0.034968,-0.002 0.021704,0 0.034968,0.002 0.014469,0.002 0.02291,0.006 0.00844,0.004 0.012058,0.01 0.00362,0.006 0.00362,0.0133 v 1.40233 h 0.5968617 q 0.00965,0 0.016881,0.005 0.00723,0.004 0.012058,0.0121 0.00482,0.007 0.00723,0.0205 0.00241,0.0121 0.00241,0.0289 z"
         style="font-weight:300;-inkscape-font-specification:'Calibri Light'"
         id="path888" />
      <path
         d="m 4.7241593,125.41172 q 0,0.007 -0.00362,0.0133 -0.00362,0.006 -0.012058,0.01 -0.00844,0.004 -0.02291,0.006 -0.013264,0.002 -0.034968,0.002 -0.020498,0 -0.034968,-0.002 -0.014469,-0.002 -0.02291,-0.006 -0.00844,-0.004 -0.012058,-0.01 -0.00362,-0.006 -0.00362,-0.0133 v -1.51205 q 0,-0.007 0.00362,-0.0133 0.00482,-0.006 0.013264,-0.01 0.00965,-0.004 0.02291,-0.006 0.014469,-0.002 0.033762,-0.002 0.021704,0 0.034968,0.002 0.014469,0.002 0.02291,0.006 0.00844,0.004 0.012058,0.01 0.00362,0.006 0.00362,0.0133 z"
         style="font-weight:300;-inkscape-font-specification:'Calibri Light'"
         id="path890" />
      <path
         d="m 5.9697312,123.94308 q 0,0.0157 -0.00241,0.0277 -0.00241,0.0121 -0.00844,0.0205 -0.00482,0.007 -0.012058,0.0121 -0.00723,0.004 -0.015675,0.004 H 5.3270498 v 0.59083 h 0.5727461 q 0.00844,0 0.015675,0.004 0.00723,0.002 0.012058,0.01 0.00603,0.007 0.00844,0.0193 0.00241,0.0121 0.00241,0.0302 0,0.0157 -0.00241,0.0277 -0.00241,0.0121 -0.00844,0.0205 -0.00482,0.007 -0.012058,0.0121 -0.00723,0.004 -0.015675,0.004 H 5.3270498 v 0.68729 q 0,0.007 -0.00362,0.0133 -0.00362,0.006 -0.012058,0.01 -0.00844,0.004 -0.02291,0.006 -0.013264,0.002 -0.034968,0.002 -0.020498,0 -0.034968,-0.002 -0.014469,-0.002 -0.02291,-0.006 -0.00844,-0.004 -0.012058,-0.01 -0.00362,-0.006 -0.00362,-0.0133 v -1.4602 q 0,-0.0434 0.02291,-0.0591 0.02291,-0.0169 0.044614,-0.0169 h 0.6836779 q 0.00844,0 0.015675,0.005 0.00723,0.004 0.012058,0.0121 0.00603,0.008 0.00844,0.0217 0.00241,0.0121 0.00241,0.0289 z"
         style="font-weight:300;-inkscape-font-specification:'Calibri Light'"
         id="path892" />
      <path
         d="m 7.2611232,123.94308 q 0,0.0157 -0.00241,0.0277 -0.00241,0.0121 -0.00723,0.0205 -0.00482,0.007 -0.012058,0.0121 -0.00723,0.004 -0.015675,0.004 H 6.7583124 v 1.40473 q 0,0.007 -0.00362,0.0133 -0.00362,0.006 -0.012058,0.01 -0.00844,0.004 -0.02291,0.006 -0.014469,0.002 -0.034968,0.002 -0.020498,0 -0.034968,-0.002 -0.014469,-0.002 -0.02291,-0.006 -0.00844,-0.004 -0.012058,-0.01 -0.00362,-0.006 -0.00362,-0.0133 v -1.40473 H 6.1457755 q -0.00965,0 -0.016881,-0.004 -0.00603,-0.005 -0.010852,-0.0121 -0.00482,-0.008 -0.00723,-0.0205 -0.00241,-0.0121 -0.00241,-0.0277 0,-0.0169 0.00241,-0.0289 0.00241,-0.0133 0.00723,-0.0217 0.00482,-0.008 0.010852,-0.0121 0.00723,-0.005 0.016881,-0.005 h 1.0779684 q 0.00844,0 0.015675,0.005 0.00723,0.004 0.012058,0.0121 0.00482,0.008 0.00723,0.0217 0.00241,0.0121 0.00241,0.0289 z"
         style="font-weight:300;-inkscape-font-specification:'Calibri Light'"
         id="path894" />
    </g>
    <g
       aria-label="IN"
       id="text8544-7-1"
       style="font-size:2.82222px;line-height:1.25;font-family:Calibri;-inkscape-font-specification:Calibri;text-align:center;text-anchor:middle;stroke-width:0.264583">
      <path
         d="m 7.3417563,116.25562 q 0,0.011 -0.00551,0.0193 -0.00551,0.008 -0.019292,0.0138 -0.01378,0.004 -0.037207,0.007 -0.022049,0.004 -0.0565,0.004 -0.033073,0 -0.0565,-0.004 -0.023427,-0.003 -0.037207,-0.007 -0.01378,-0.006 -0.019292,-0.0138 -0.00551,-0.008 -0.00551,-0.0193 v -1.71152 q 0,-0.011 0.00551,-0.0193 0.00689,-0.008 0.020671,-0.0124 0.015158,-0.006 0.037207,-0.008 0.023427,-0.004 0.055121,-0.004 0.034451,0 0.0565,0.004 0.023427,0.003 0.037207,0.008 0.01378,0.004 0.019292,0.0124 0.00551,0.008 0.00551,0.0193 z"
         id="path881" />
      <path
         d="m 9.1635214,116.19361 q 0,0.0276 -0.00965,0.0468 -0.00827,0.0193 -0.023427,0.0317 -0.01378,0.0124 -0.031695,0.0179 -0.017914,0.006 -0.035829,0.006 h -0.075792 q -0.035829,0 -0.06339,-0.007 -0.026183,-0.008 -0.050987,-0.0276 -0.023427,-0.0207 -0.048231,-0.0551 -0.023427,-0.0345 -0.052366,-0.0882 l -0.5622391,-1.01424 q -0.044097,-0.0785 -0.089572,-0.16398 -0.044097,-0.0868 -0.082682,-0.16812 h -0.00276 q 0.00276,0.0992 0.00413,0.20257 0.00138,0.10335 0.00138,0.20532 v 1.07625 q 0,0.01 -0.00551,0.0193 -0.00551,0.008 -0.019293,0.0138 -0.012402,0.004 -0.034451,0.007 -0.020671,0.004 -0.053743,0.004 -0.033073,0 -0.055122,-0.004 -0.020671,-0.003 -0.033073,-0.007 -0.012402,-0.006 -0.017915,-0.0138 -0.00551,-0.01 -0.00551,-0.0193 v -1.64537 q 0,-0.0551 0.030317,-0.0785 0.030317,-0.0234 0.066146,-0.0234 h 0.112999 q 0.039963,0 0.066146,0.007 0.027561,0.007 0.048231,0.0234 0.022049,0.0152 0.041341,0.0441 0.020671,0.0276 0.044097,0.0703 l 0.4327037,0.78273 q 0.039963,0.0717 0.07717,0.14056 0.037207,0.0675 0.071658,0.13367 0.034451,0.0661 0.067524,0.13091 0.034451,0.0634 0.067524,0.12816 h 0.00138 q -0.00276,-0.10887 -0.00413,-0.226 0,-0.11851 0,-0.22737 v -0.96739 q 0,-0.01 0.00551,-0.0179 0.00551,-0.008 0.017914,-0.0138 0.01378,-0.007 0.034451,-0.01 0.022049,-0.003 0.056499,-0.003 0.030317,0 0.052365,0.003 0.022049,0.003 0.034451,0.01 0.012402,0.006 0.017914,0.0138 0.00551,0.008 0.00551,0.0179 z"
         id="path883" />
    </g>
    <g
       aria-label="LOGIC"
       id="text8544-7-1-4"
       style="font-size:2.82222px;line-height:1.25;font-family:Calibri;-inkscape-font-specification:Calibri;text-align:center;text-anchor:middle;stroke-width:0.264583">
      <path
         d="m 18.068024,116.206 q 0,0.0276 -0.0028,0.0469 -0.0028,0.0179 -0.0096,0.0317 -0.0055,0.0124 -0.01516,0.0193 -0.0083,0.006 -0.02067,0.006 h -0.788237 q -0.0317,0 -0.06063,-0.0207 -0.02756,-0.0221 -0.02756,-0.0758 v -1.65088 q 0,-0.011 0.0055,-0.0193 0.0055,-0.008 0.01929,-0.0124 0.01378,-0.006 0.03721,-0.008 0.02343,-0.004 0.0565,-0.004 0.03445,0 0.0565,0.004 0.02343,0.003 0.03721,0.008 0.01378,0.004 0.01929,0.0124 0.0055,0.008 0.0055,0.0193 v 1.54202 h 0.639409 q 0.0124,0 0.02067,0.007 0.0096,0.006 0.01516,0.0179 0.0069,0.011 0.0096,0.0303 0.0028,0.0193 0.0028,0.0469 z"
         id="path870" />
      <path
         d="m 19.761632,115.3971 q 0,0.21635 -0.05099,0.38998 -0.05099,0.17363 -0.152962,0.29628 -0.100596,0.12127 -0.253559,0.18741 -0.152962,0.0648 -0.356911,0.0648 -0.201194,0 -0.348644,-0.0593 -0.146071,-0.0606 -0.242534,-0.17501 -0.09509,-0.11437 -0.141938,-0.28387 -0.04685,-0.1695 -0.04685,-0.38999 0,-0.21084 0.05099,-0.38309 0.05099,-0.17226 0.152962,-0.29215 0.101975,-0.12126 0.254937,-0.18603 0.152962,-0.0662 0.356912,-0.0662 0.197059,0 0.343131,0.0593 0.146072,0.0593 0.242535,0.17363 0.09784,0.113 0.144694,0.28112 0.04823,0.16674 0.04823,0.3831 z m -0.249425,0.0165 q 0,-0.15158 -0.02756,-0.28112 -0.02618,-0.13091 -0.08957,-0.226 -0.06201,-0.0965 -0.166743,-0.1502 -0.10473,-0.0537 -0.259071,-0.0537 -0.15434,0 -0.259071,0.0579 -0.10473,0.0579 -0.170876,0.15434 -0.06477,0.0965 -0.09371,0.226 -0.02756,0.12816 -0.02756,0.2701 0,0.15709 0.02618,0.28938 0.02618,0.1323 0.0882,0.22876 0.06201,0.0951 0.165364,0.14883 0.104731,0.0524 0.261827,0.0524 0.155718,0 0.261827,-0.0579 0.106109,-0.0579 0.170877,-0.15571 0.06477,-0.0992 0.09233,-0.22876 0.02756,-0.12953 0.02756,-0.27423 z"
         id="path872" />
      <path
         d="m 21.47591,114.76871 q 0,0.0262 -0.0028,0.0469 -0.0028,0.0193 -0.0083,0.0331 -0.0055,0.0124 -0.01378,0.0179 -0.0083,0.006 -0.01791,0.006 -0.01654,0 -0.05512,-0.0262 -0.03859,-0.0262 -0.103353,-0.0579 -0.06477,-0.0317 -0.155718,-0.0579 -0.08957,-0.0262 -0.213596,-0.0262 -0.14745,0 -0.264583,0.0537 -0.117134,0.0537 -0.198438,0.14882 -0.0813,0.0951 -0.125401,0.226 -0.04272,0.13092 -0.04272,0.28388 0,0.17088 0.04685,0.30317 0.04823,0.13229 0.132292,0.22324 0.08406,0.0909 0.199815,0.1378 0.117133,0.0469 0.256315,0.0469 0.08268,0 0.166742,-0.0193 0.08544,-0.0207 0.158475,-0.0606 v -0.51952 h -0.413412 q -0.02343,0 -0.03583,-0.0234 -0.01103,-0.0234 -0.01103,-0.073 0,-0.0262 0.0028,-0.0441 0.0028,-0.0193 0.0083,-0.0303 0.0069,-0.0124 0.01516,-0.0179 0.0083,-0.006 0.02067,-0.006 h 0.566374 q 0.01516,0 0.03032,0.006 0.01516,0.006 0.02756,0.0165 0.0124,0.011 0.01929,0.0303 0.0069,0.0193 0.0069,0.0441 v 0.67937 q 0,0.0358 -0.0124,0.062 -0.0124,0.0262 -0.05237,0.0469 -0.03996,0.0193 -0.103353,0.0427 -0.06339,0.0234 -0.130913,0.04 -0.06752,0.0165 -0.136426,0.0248 -0.0689,0.008 -0.136425,0.008 -0.206706,0 -0.369314,-0.0634 -0.162609,-0.0648 -0.275608,-0.18328 -0.111621,-0.11851 -0.170876,-0.28387 -0.05926,-0.16537 -0.05926,-0.36932 0,-0.21221 0.06339,-0.38447 0.06477,-0.17225 0.180523,-0.29352 0.117133,-0.12127 0.279741,-0.18741 0.163987,-0.0675 0.362424,-0.0675 0.101975,0 0.191547,0.0179 0.08957,0.0179 0.158474,0.0427 0.07028,0.0234 0.117134,0.0524 0.04823,0.0276 0.06614,0.0455 0.01791,0.0179 0.02481,0.0413 0.0069,0.0234 0.0069,0.0675 z"
         id="path874" />
      <path
         d="m 22.153904,116.27353 q 0,0.011 -0.0055,0.0193 -0.0055,0.008 -0.01929,0.0138 -0.01378,0.004 -0.03721,0.007 -0.02205,0.004 -0.0565,0.004 -0.03307,0 -0.0565,-0.004 -0.02343,-0.003 -0.03721,-0.007 -0.01378,-0.006 -0.01929,-0.0138 -0.0055,-0.008 -0.0055,-0.0193 v -1.71152 q 0,-0.011 0.0055,-0.0193 0.0069,-0.008 0.02067,-0.0124 0.01516,-0.006 0.03721,-0.008 0.02343,-0.004 0.05512,-0.004 0.03445,0 0.0565,0.004 0.02343,0.003 0.03721,0.008 0.01378,0.004 0.01929,0.0124 0.0055,0.008 0.0055,0.0193 z"
         id="path876" />
      <path
         d="m 23.818573,116.05718 q 0,0.022 -0.0014,0.0386 -0.0014,0.0165 -0.0055,0.0289 -0.0028,0.0124 -0.0083,0.022 -0.0055,0.01 -0.01929,0.0234 -0.01378,0.0138 -0.05788,0.0427 -0.0441,0.0276 -0.110242,0.0551 -0.06477,0.0262 -0.150207,0.0441 -0.08406,0.0193 -0.184657,0.0193 -0.173632,0 -0.314192,-0.0579 -0.139182,-0.0579 -0.2384,-0.17088 -0.09784,-0.113 -0.151585,-0.27836 -0.05237,-0.16674 -0.05237,-0.3831 0,-0.22186 0.0565,-0.39549 0.05788,-0.17364 0.16123,-0.29353 0.103353,-0.12126 0.246669,-0.18465 0.144694,-0.0634 0.319704,-0.0634 0.07717,0 0.150206,0.0152 0.07304,0.0138 0.135048,0.0358 0.06201,0.022 0.110243,0.051 0.04823,0.0289 0.06615,0.0482 0.01929,0.0179 0.0248,0.0276 0.0055,0.01 0.0083,0.0234 0.0041,0.0124 0.0055,0.0303 0.0028,0.0179 0.0028,0.0427 0,0.0276 -0.0028,0.0468 -0.0028,0.0193 -0.0083,0.0331 -0.0055,0.0124 -0.01378,0.0193 -0.0069,0.006 -0.01791,0.006 -0.01929,0 -0.05374,-0.0262 -0.03445,-0.0276 -0.08957,-0.0593 -0.05374,-0.0331 -0.132292,-0.0593 -0.07717,-0.0276 -0.186035,-0.0276 -0.118511,0 -0.216352,0.0482 -0.09646,0.0469 -0.165364,0.13919 -0.0689,0.0923 -0.107487,0.22599 -0.03721,0.1323 -0.03721,0.30317 0,0.1695 0.03583,0.30042 0.03721,0.12953 0.104731,0.21772 0.0689,0.0868 0.16812,0.1323 0.09922,0.0441 0.22462,0.0441 0.106109,0 0.184657,-0.0262 0.07993,-0.0262 0.135048,-0.0579 0.0565,-0.0331 0.09233,-0.0593 0.03583,-0.0262 0.0565,-0.0262 0.0096,0 0.01654,0.004 0.0069,0.004 0.01103,0.0165 0.0041,0.011 0.0055,0.0317 0.0028,0.0207 0.0028,0.0524 z"
         id="path878" />
    </g>
    <path
       d="m 5.5591784,14.149711 a 3.4891158,3.5941528 0 1 1 4.9343556,0"
       fill="none"
       stroke="#1f1f1f"
       stroke-linecap="round"
       stroke-linejoin="round"
       id="path66-2-1"
       style="display:inline;stroke-width:0.264583" />
    <path
       d="m 5.5591784,25.935711 a 3.4891158,3.5941528 0 1 1 4.9343556,0"
       fill="none"
       stroke="#1f1f1f"
       stroke-linecap="round"
       stroke-linejoin="round"
       id="path66-2-1-6"
       style="display:inline;stroke-width:0.264583" />
    <path
       d="m 5.5591784,37.720711 a 3.4891158,3.5941528 0 1 1 4.9343556,0"
       fill="none"
       stroke="#1f1f1f"
       stroke-linecap="round"
       stroke-linejoin="round"
       id="path66-2-1-3"
       style="display:inline;stroke-width:0.264583" />
    <path
       d="m 5.5591784,49.506711 a 3.4891158,3.5941528 0 1 1 4.9343556,0"
       fill="none"
       stroke="#1f1f1f"
       stroke-linecap="round"
       stroke-linejoin="round"
       id="path66-2-1-38"
       style="display:inline;stroke-width:0.264583" />
    <path
       d="m 5.5591784,61.292711 a 3.4891158,3.5941528 0 1 1 4.9343556,0"
       fill="none"
       stroke="#1f1f1f"
       stroke-linecap="round"
       stroke-linejoin="round"
       id="path66-2-1-35"
       style="display:inline;stroke-width:0.264583" />
    <path
       d="m 5.5591784,73.078711 a 3.4891158,3.5941528 0 1 1 4.9343556,0"
       fill="none"
       stroke="#1f1f1f"
       stroke-linecap="round"
       stroke-linejoin="round"
       id="path66-2-1-61"
       style="display:inline;stroke-width:0.264583" />
    <path
       d="m 5.5591784,96.64971 a 3.4891158,3.5941528 0 1 1 4.9343556,0"
       fill="none"
       stroke="#1f1f1f"
       stroke-linecap="round"
       stroke-linejoin="round"
       id="path66-2-1-95"
       style="display:inline;stroke-width:0.264583" />
    <path
       d="m 5.5591784,84.863711 a 3.4891158,3.5941528 0 1 1 4.9343556,0"
       fill="none"
       stroke="#1f1f1f"
       stroke-linecap="round"
       stroke-linejoin="round"
       id="path66-2-1-63"
       style="display:inline;stroke-width:0.264583" />
    <path
       id="rect1321"
       style="fill:#b2b2b2;stroke:#00a6a9;stroke-width:0"
       d="m 16.053362,94 h 12.880999 v 10 H 16.053362 Z" />
    <g
       aria-label="GATE"
       id="text8544-7-1-9-0"
       style="font-size:2.82222px;line-height:1.25;font-family:Calibri;-inkscape-font-specification:Calibri;text-align:center;text-anchor:middle;fill:#010101;stroke-width:0.264583">
      <path
         d="m 21.073935,100.76899 q 0,0.0262 -0.0028,0.0469 -0.0028,0.0193 -0.0083,0.0331 -0.0055,0.0124 -0.01378,0.0179 -0.0083,0.006 -0.01791,0.006 -0.01654,0 -0.05512,-0.0262 -0.03859,-0.0262 -0.103353,-0.0579 -0.06477,-0.0317 -0.155718,-0.0579 -0.08957,-0.0262 -0.213596,-0.0262 -0.14745,0 -0.264583,0.0537 -0.117133,0.0537 -0.198437,0.14883 -0.0813,0.0951 -0.125402,0.226 -0.04272,0.13091 -0.04272,0.28387 0,0.17088 0.04685,0.30317 0.04823,0.13229 0.132291,0.22324 0.08406,0.091 0.199815,0.1378 0.117134,0.0469 0.256315,0.0469 0.08268,0 0.166743,-0.0193 0.08544,-0.0207 0.158474,-0.0606 v -0.51952 h -0.413411 q -0.02343,0 -0.03583,-0.0234 -0.01102,-0.0234 -0.01102,-0.073 0,-0.0262 0.0028,-0.0441 0.0028,-0.0193 0.0083,-0.0303 0.0069,-0.0124 0.01516,-0.0179 0.0083,-0.006 0.02067,-0.006 h 0.566373 q 0.01516,0 0.03032,0.006 0.01516,0.006 0.02756,0.0165 0.0124,0.011 0.01929,0.0303 0.0069,0.0193 0.0069,0.0441 v 0.67937 q 0,0.0358 -0.0124,0.062 -0.0124,0.0262 -0.05236,0.0468 -0.03996,0.0193 -0.103353,0.0427 -0.06339,0.0234 -0.130913,0.04 -0.06752,0.0165 -0.136426,0.0248 -0.0689,0.008 -0.136426,0.008 -0.206705,0 -0.369314,-0.0634 -0.162608,-0.0648 -0.275607,-0.18328 -0.111621,-0.11851 -0.170877,-0.28387 -0.05926,-0.16537 -0.05926,-0.36931 0,-0.21222 0.06339,-0.38448 0.06477,-0.17225 0.180523,-0.29352 0.117133,-0.12127 0.279742,-0.18741 0.163986,-0.0675 0.362423,-0.0675 0.101975,0 0.191548,0.0179 0.08957,0.0179 0.158474,0.0427 0.07028,0.0234 0.117133,0.0524 0.04823,0.0276 0.06615,0.0455 0.01791,0.0179 0.0248,0.0413 0.0069,0.0234 0.0069,0.0675 z"
         id="path860" />
      <path
         d="m 22.850225,102.22558 q 0.01102,0.0303 0.01102,0.0496 0.0014,0.0179 -0.0096,0.0276 -0.01103,0.01 -0.03721,0.0124 -0.0248,0.003 -0.06752,0.003 -0.04272,0 -0.0689,-0.003 -0.0248,-0.001 -0.03858,-0.006 -0.0124,-0.006 -0.01929,-0.0138 -0.0055,-0.008 -0.01102,-0.0207 l -0.152962,-0.43408 h -0.741384 l -0.146072,0.42857 q -0.0041,0.0124 -0.01102,0.022 -0.0069,0.008 -0.02067,0.0152 -0.0124,0.006 -0.03721,0.008 -0.02343,0.003 -0.06201,0.003 -0.03996,0 -0.06615,-0.004 -0.0248,-0.003 -0.03583,-0.0124 -0.0096,-0.01 -0.0096,-0.0276 0.0014,-0.0193 0.0124,-0.0496 l 0.598068,-1.6564 q 0.0055,-0.0152 0.01378,-0.0248 0.0096,-0.01 0.02618,-0.0152 0.01791,-0.006 0.0441,-0.007 0.02756,-0.003 0.0689,-0.003 0.0441,0 0.07304,0.003 0.02894,0.001 0.04685,0.007 0.01791,0.006 0.02756,0.0165 0.0096,0.01 0.01516,0.0248 z m -0.767567,-1.4621 h -0.0014 l -0.307302,0.88884 h 0.620116 z"
         id="path862" />
      <path
         d="m 24.044983,100.62843 q 0,0.0262 -0.0028,0.0455 -0.0028,0.0193 -0.0096,0.0317 -0.0055,0.011 -0.01516,0.0165 -0.0083,0.006 -0.01929,0.006 h -0.501606 v 1.54616 q 0,0.011 -0.0055,0.0193 -0.0055,0.008 -0.01929,0.0138 -0.01378,0.004 -0.03721,0.007 -0.02205,0.004 -0.0565,0.004 -0.03307,0 -0.0565,-0.004 -0.02343,-0.003 -0.03721,-0.007 -0.01378,-0.006 -0.01929,-0.0138 -0.0055,-0.008 -0.0055,-0.0193 v -1.54616 h -0.501606 q -0.01102,0 -0.02067,-0.006 -0.0083,-0.006 -0.01378,-0.0165 -0.0055,-0.0124 -0.0096,-0.0317 -0.0028,-0.0193 -0.0028,-0.0455 0,-0.0262 0.0028,-0.0455 0.0041,-0.0207 0.0096,-0.0331 0.0055,-0.0124 0.01378,-0.0179 0.0096,-0.006 0.02067,-0.006 h 1.240234 q 0.01102,0 0.01929,0.006 0.0096,0.006 0.01516,0.0179 0.0069,0.0124 0.0096,0.0331 0.0028,0.0193 0.0028,0.0455 z"
         id="path864" />
      <path
         d="m 25.294863,102.2118 q 0,0.0248 -0.0028,0.0441 -0.0028,0.0179 -0.0096,0.0303 -0.0069,0.0124 -0.01654,0.0179 -0.0083,0.006 -0.01929,0.006 H 24.39087 q -0.03169,0 -0.06063,-0.0207 -0.02756,-0.0221 -0.02756,-0.0758 v -1.59026 q 0,-0.0537 0.02756,-0.0744 0.02894,-0.022 0.06063,-0.022 h 0.846115 q 0.01102,0 0.01929,0.006 0.0096,0.006 0.01516,0.0179 0.0055,0.0124 0.0083,0.0317 0.0041,0.0179 0.0041,0.0455 0,0.0248 -0.0041,0.0441 -0.0028,0.0179 -0.0083,0.0303 -0.0055,0.011 -0.01516,0.0165 -0.0083,0.006 -0.01929,0.006 h -0.697287 v 0.55948 h 0.598069 q 0.01102,0 0.01929,0.007 0.0096,0.006 0.01516,0.0165 0.0069,0.011 0.0096,0.0303 0.0028,0.0193 0.0028,0.0455 0,0.0248 -0.0028,0.0427 -0.0028,0.0179 -0.0096,0.0289 -0.0055,0.011 -0.01516,0.0165 -0.0083,0.004 -0.01929,0.004 h -0.598069 v 0.63803 h 0.706933 q 0.01103,0 0.01929,0.006 0.0096,0.006 0.01654,0.0179 0.0069,0.011 0.0096,0.0303 0.0028,0.0179 0.0028,0.0455 z"
         id="path866" />
    </g>
    <g
       aria-label="THRESH"
       id="text8544-7-1-9-0-7"
       style="font-size:2.82222px;line-height:1.25;font-family:Calibri;-inkscape-font-specification:Calibri;text-align:center;text-anchor:middle;fill:#010101;stroke-width:0.264583">
      <path
         d="m 4.8130582,100.62678 q 0,0.0262 -0.00276,0.0455 -0.00276,0.0193 -0.00965,0.0317 -0.00551,0.011 -0.015158,0.0165 -0.00827,0.006 -0.019293,0.006 H 4.2645994 v 1.54615 q 0,0.011 -0.00551,0.0193 -0.00551,0.008 -0.019292,0.0138 -0.01378,0.004 -0.037207,0.007 -0.022048,0.004 -0.056499,0.004 -0.033073,0 -0.0565,-0.004 -0.023427,-0.003 -0.037207,-0.007 -0.01378,-0.006 -0.019292,-0.0138 -0.00551,-0.008 -0.00551,-0.0193 V 100.726 H 3.5259715 q -0.011024,0 -0.020671,-0.006 -0.00827,-0.006 -0.01378,-0.0165 -0.00551,-0.0124 -0.00965,-0.0317 -0.00276,-0.0193 -0.00276,-0.0455 0,-0.0262 0.00276,-0.0455 0.00413,-0.0207 0.00965,-0.0331 0.00551,-0.0124 0.01378,-0.0179 0.00965,-0.006 0.020671,-0.006 h 1.2402334 q 0.011024,0 0.019293,0.006 0.00965,0.006 0.015158,0.0179 0.00689,0.0124 0.00965,0.0331 0.00276,0.0193 0.00276,0.0455 z"
         id="path847" />
      <path
         d="m 6.3550818,102.27215 q 0,0.011 -0.00551,0.0193 -0.00551,0.008 -0.019293,0.0138 -0.01378,0.004 -0.037207,0.007 -0.022049,0.004 -0.055121,0.004 -0.035829,0 -0.057878,-0.004 -0.022049,-0.003 -0.035829,-0.007 -0.01378,-0.006 -0.019292,-0.0138 -0.00551,-0.008 -0.00551,-0.0193 v -0.79099 H 5.3077736 v 0.79099 q 0,0.011 -0.00551,0.0193 -0.00551,0.008 -0.019292,0.0138 -0.01378,0.004 -0.037207,0.007 -0.022049,0.004 -0.0565,0.004 -0.033073,0 -0.0565,-0.004 -0.023427,-0.003 -0.037207,-0.007 -0.01378,-0.006 -0.019292,-0.0138 -0.00551,-0.008 -0.00551,-0.0193 v -1.71152 q 0,-0.011 0.00551,-0.0193 0.00551,-0.008 0.019292,-0.0124 0.01378,-0.006 0.037207,-0.008 0.023427,-0.004 0.0565,-0.004 0.034451,0 0.0565,0.004 0.023427,0.003 0.037207,0.008 0.01378,0.004 0.019292,0.0124 0.00551,0.008 0.00551,0.0193 v 0.71383 h 0.8116638 v -0.71383 q 0,-0.011 0.00551,-0.0193 0.00551,-0.008 0.019292,-0.0124 0.01378,-0.006 0.035829,-0.008 0.022049,-0.004 0.057878,-0.004 0.033073,0 0.055121,0.004 0.023427,0.003 0.037207,0.008 0.01378,0.004 0.019293,0.0124 0.00551,0.008 0.00551,0.0193 z"
         id="path849" />
      <path
         d="m 8.0183726,102.27215 q 0,0.011 -0.00413,0.0193 -0.00413,0.008 -0.017914,0.0138 -0.01378,0.006 -0.038585,0.008 -0.024805,0.003 -0.066146,0.003 -0.035829,0 -0.059256,-0.003 -0.022049,-0.003 -0.035829,-0.008 -0.01378,-0.007 -0.022049,-0.0179 -0.00689,-0.011 -0.012402,-0.0276 l -0.1639864,-0.4203 q -0.028939,-0.0717 -0.060634,-0.13091 -0.030317,-0.0606 -0.073036,-0.10336 -0.042719,-0.0441 -0.1005967,-0.0675 -0.057878,-0.0248 -0.1391818,-0.0248 H 7.066149 v 0.75929 q 0,0.011 -0.00689,0.0193 -0.00551,0.008 -0.019293,0.0138 -0.012402,0.004 -0.035829,0.007 -0.022049,0.004 -0.0565,0.004 -0.034451,0 -0.057878,-0.004 -0.022049,-0.003 -0.035829,-0.007 -0.01378,-0.006 -0.019292,-0.0138 -0.00551,-0.008 -0.00551,-0.0193 v -1.65088 q 0,-0.0537 0.027561,-0.0744 0.028939,-0.0221 0.060634,-0.0221 h 0.3789602 q 0.067524,0 0.111621,0.004 0.045475,0.003 0.081304,0.007 0.1033528,0.0179 0.1819009,0.0565 0.079926,0.0386 0.1336696,0.0978 0.053743,0.0593 0.079926,0.13642 0.027561,0.0758 0.027561,0.16812 0,0.0896 -0.024805,0.16123 -0.023427,0.0703 -0.068902,0.12541 -0.045475,0.0537 -0.108865,0.0937 -0.06339,0.04 -0.1419378,0.0675 0.044097,0.0193 0.079926,0.0496 0.035829,0.0289 0.066146,0.0703 0.031695,0.0413 0.059256,0.0951 0.027561,0.0537 0.055122,0.12127 l 0.1598523,0.39274 q 0.019293,0.0496 0.024805,0.0703 0.00551,0.0193 0.00551,0.0303 z M 7.661461,101.01952 q 0,-0.10473 -0.046853,-0.17639 -0.046853,-0.073 -0.1570963,-0.10473 -0.034451,-0.01 -0.078548,-0.0138 -0.042719,-0.004 -0.112999,-0.004 H 7.066149 v 0.60083 h 0.2315102 q 0.093706,0 0.1612304,-0.022 0.068902,-0.0234 0.114377,-0.0634 0.045475,-0.0413 0.066146,-0.0965 0.022049,-0.0551 0.022049,-0.11989 z"
         id="path851" />
      <path
         d="m 9.3536906,102.21014 q 0,0.0248 -0.00276,0.0441 -0.00276,0.0179 -0.00965,0.0303 -0.00689,0.0124 -0.016536,0.0179 -0.00827,0.006 -0.019292,0.006 H 8.4496982 q -0.031695,0 -0.060634,-0.0207 -0.027561,-0.0221 -0.027561,-0.0758 v -1.59025 q 0,-0.0537 0.027561,-0.0744 0.028939,-0.0221 0.060634,-0.0221 H 9.295813 q 0.011024,0 0.019292,0.006 0.00965,0.006 0.015158,0.0179 0.00551,0.0124 0.00827,0.0317 0.00413,0.0179 0.00413,0.0455 0,0.0248 -0.00413,0.0441 -0.00276,0.0179 -0.00827,0.0303 -0.00551,0.011 -0.015158,0.0165 -0.00827,0.006 -0.019292,0.006 H 8.5985262 v 0.55949 h 0.5980681 q 0.011024,0 0.019293,0.007 0.00965,0.006 0.015158,0.0165 0.00689,0.011 0.00965,0.0303 0.00276,0.0193 0.00276,0.0455 0,0.0248 -0.00276,0.0427 -0.00276,0.0179 -0.00965,0.0289 -0.00551,0.011 -0.015158,0.0165 -0.00827,0.004 -0.019293,0.004 H 8.5985262 v 0.63803 h 0.7069331 q 0.011024,0 0.019292,0.006 0.00965,0.006 0.016536,0.0179 0.00689,0.011 0.00965,0.0303 0.00276,0.0179 0.00276,0.0455 z"
         id="path853" />
      <path
         d="m 10.669716,101.80776 q 0,0.1254 -0.04685,0.22324 -0.04548,0.0978 -0.128158,0.16674 -0.0813,0.0675 -0.192925,0.10198 -0.110243,0.0345 -0.2384,0.0345 -0.089573,0 -0.1667429,-0.0152 -0.075792,-0.0152 -0.1364257,-0.0372 -0.059256,-0.0221 -0.1005967,-0.0455 -0.039963,-0.0234 -0.0565,-0.04 -0.015159,-0.0165 -0.023427,-0.0413 -0.00689,-0.0262 -0.00689,-0.0689 0,-0.0303 0.00276,-0.0496 0.00276,-0.0207 0.00827,-0.0331 0.00551,-0.0124 0.01378,-0.0165 0.00827,-0.006 0.019293,-0.006 0.019293,0 0.053743,0.0234 0.035829,0.0234 0.09095,0.051 0.055122,0.0276 0.1322916,0.0524 0.078548,0.0234 0.180523,0.0234 0.07717,0 0.14056,-0.0207 0.06477,-0.0207 0.110243,-0.0579 0.04685,-0.0386 0.07166,-0.0937 0.0248,-0.0551 0.0248,-0.1254 0,-0.0758 -0.03445,-0.12954 -0.03445,-0.0537 -0.09095,-0.0937 -0.0565,-0.0413 -0.129536,-0.0744 -0.07166,-0.0345 -0.14745,-0.0689 -0.075792,-0.0358 -0.1474496,-0.0786 -0.071658,-0.0427 -0.1281575,-0.10059 -0.0565,-0.0579 -0.092328,-0.13505 -0.034451,-0.0785 -0.034451,-0.18741 0,-0.11163 0.039963,-0.19844 0.041341,-0.0882 0.112999,-0.14745 0.073036,-0.0593 0.1722547,-0.0896 0.1005967,-0.0317 0.2163517,-0.0317 0.05926,0 0.118511,0.011 0.06063,0.01 0.112999,0.0276 0.05374,0.0165 0.09508,0.0386 0.04134,0.0207 0.05374,0.0345 0.01378,0.0124 0.01792,0.0207 0.0041,0.007 0.0069,0.0193 0.0028,0.011 0.0041,0.0276 0.0014,0.0165 0.0014,0.0427 0,0.0248 -0.0028,0.0441 -0.0014,0.0193 -0.0055,0.0331 -0.0041,0.0124 -0.0124,0.0193 -0.0069,0.006 -0.01654,0.006 -0.01516,0 -0.04823,-0.0193 -0.0317,-0.0193 -0.07855,-0.0427 -0.04685,-0.0248 -0.111621,-0.0441 -0.06339,-0.0207 -0.143316,-0.0207 -0.07441,0 -0.129536,0.0207 -0.055121,0.0193 -0.09095,0.0524 -0.035829,0.0331 -0.053743,0.0785 -0.017914,0.0455 -0.017914,0.0965 0,0.0744 0.034451,0.12815 0.034451,0.0538 0.09095,0.0951 0.057878,0.0413 0.1309136,0.0758 0.07304,0.0344 0.148828,0.0703 0.07579,0.0344 0.148828,0.0772 0.07304,0.0413 0.129535,0.0992 0.05788,0.0565 0.09233,0.13505 0.03583,0.0772 0.03583,0.18328 z"
         id="path855" />
      <path
         d="m 12.293044,102.27215 q 0,0.011 -0.0055,0.0193 -0.0055,0.008 -0.01929,0.0138 -0.01378,0.004 -0.03721,0.007 -0.02205,0.004 -0.05512,0.004 -0.03583,0 -0.05788,-0.004 -0.02205,-0.003 -0.03583,-0.007 -0.01378,-0.006 -0.01929,-0.0138 -0.0055,-0.008 -0.0055,-0.0193 v -0.79099 h -0.811664 v 0.79099 q 0,0.011 -0.0055,0.0193 -0.0055,0.008 -0.01929,0.0138 -0.01378,0.004 -0.03721,0.007 -0.02205,0.004 -0.0565,0.004 -0.03307,0 -0.0565,-0.004 -0.02343,-0.003 -0.03721,-0.007 -0.01378,-0.006 -0.01929,-0.0138 -0.0055,-0.008 -0.0055,-0.0193 v -1.71152 q 0,-0.011 0.0055,-0.0193 0.0055,-0.008 0.01929,-0.0124 0.01378,-0.006 0.03721,-0.008 0.02343,-0.004 0.0565,-0.004 0.03445,0 0.0565,0.004 0.02343,0.003 0.03721,0.008 0.01378,0.004 0.01929,0.0124 0.0055,0.008 0.0055,0.0193 v 0.71383 h 0.811664 v -0.71383 q 0,-0.011 0.0055,-0.0193 0.0055,-0.008 0.01929,-0.0124 0.01378,-0.006 0.03583,-0.008 0.02205,-0.004 0.05788,-0.004 0.03307,0 0.05512,0.004 0.02343,0.003 0.03721,0.008 0.01378,0.004 0.01929,0.0124 0.0055,0.008 0.0055,0.0193 z"
         id="path857" />
    </g>
  </g>
</svg>
