<?xml version="1.0" encoding="UTF-8" standalone="no"?>
<!-- Created with Inkscape (http://www.inkscape.org/) -->

<svg
   width="15.24mm"
   height="128.5mm"
   viewBox="0 0 15.24 128.5"
   version="1.1"
   id="svg5"
   inkscape:version="1.1.2 (b8e25be833, 2022-02-05)"
   sodipodi:docname="Merge.svg"
   xmlns:inkscape="http://www.inkscape.org/namespaces/inkscape"
   xmlns:sodipodi="http://sodipodi.sourceforge.net/DTD/sodipodi-0.dtd"
   xmlns="http://www.w3.org/2000/svg"
   xmlns:svg="http://www.w3.org/2000/svg">
  <sodipodi:namedview
     id="namedview7"
     pagecolor="#ffffff"
     bordercolor="#666666"
     borderopacity="1.0"
     inkscape:pageshadow="2"
     inkscape:pageopacity="0.0"
     inkscape:pagecheckerboard="0"
     inkscape:document-units="mm"
     showgrid="false"
     height="128.5mm"
     inkscape:zoom="2"
     inkscape:cx="-116.75"
     inkscape:cy="232.25"
     inkscape:window-width="3840"
     inkscape:window-height="2054"
     inkscape:window-x="-11"
     inkscape:window-y="-11"
     inkscape:window-maximized="0"
     inkscape:current-layer="layer1" />
  <defs
     id="defs2" />
  <g
     inkscape:label="Layer 1"
     inkscape:groupmode="layer"
     id="layer1">
    <path
       id="rect4302"
       style="fill:#111111;stroke-width:0.184931"
       d="M -0.00163784,1.6577559e-8 H 15.242541 V 128.50433 H -0.00163784 Z" />
    <path
       id="rect10313-6"
       style="fill:#555555;stroke-width:0.264582"
       d="M 3.1199998,100.99999 H 12.12 c 0.831,0 1.5,0.669 1.5,1.5 v 13 c 0,0.831 -0.669,1.5 -1.5,1.5 H 3.1199998 c -0.8309999,0 -1.4999998,-0.669 -1.4999998,-1.5 v -13 c 0,-0.831 0.6689999,-1.5 1.4999998,-1.5 z" />
    <path
       id="rect10313"
       style="fill:#AAAAAA;stroke-width:0.264582"
       d="m 3.1204513,6.0000005 h 9.0000007 c 0.831,0 1.5,0.6689998 1.5,1.4999995 v 91.000001 c 0,0.831 -0.669,1.499999 -1.5,1.499999 H 3.1204513 C 2.2894515,100 1.6204516,99.331001 1.6204516,98.500001 V 7.5 c 0,-0.8309997 0.6689999,-1.4999995 1.4999997,-1.4999995 z" />
    <path
       id="rect10313-4"
       style="fill:#AAAAAA;stroke-width:0.264583"
       d="m 3.1204513,136.22836 h 9.0000007 c 0.831,0 1.5,0.669 1.5,1.5 v 9.59748 c 0,0.831 -0.669,1.5 -1.5,1.5 H 3.1204513 c -0.8309998,0 -1.4999997,-0.669 -1.4999997,-1.5 v -9.59748 c 0,-0.831 0.6689999,-1.5 1.4999997,-1.5 z" />
    <g
       aria-label="MERGE"
       id="text8544-7-0-8-5"
       style="font-size:4.23333px;line-height:1.25;font-family:Calibri;-inkscape-font-specification:Calibri;text-align:center;letter-spacing:0px;text-anchor:middle;fill:#ffffff;stroke-width:0.264583">
      <path
         d="m 4.4537225,122.66857 q 0,0.0124 -0.0062,0.0227 -0.0062,0.0103 -0.022738,0.0165 -0.014469,0.006 -0.039274,0.0103 -0.022738,0.004 -0.059945,0.004 -0.033073,0 -0.057878,-0.004 -0.024805,-0.004 -0.039274,-0.0103 -0.014469,-0.006 -0.020671,-0.0165 -0.0062,-0.0103 -0.0062,-0.0227 v -2.41226 h -0.00413 l -1.0521313,2.42673 q -0.00413,0.008 -0.012402,0.0165 -0.00827,0.006 -0.022738,0.0103 -0.014469,0.006 -0.03514,0.008 -0.018604,0.004 -0.045475,0.004 -0.028939,0 -0.049609,-0.004 -0.020671,-0.002 -0.03514,-0.008 -0.012402,-0.004 -0.020671,-0.0103 -0.00827,-0.008 -0.010335,-0.0165 l -1.0004549,-2.42673 h -0.00207 v 2.41226 q 0,0.0124 -0.0062,0.0227 -0.0062,0.0103 -0.022738,0.0165 -0.014469,0.006 -0.039274,0.0103 -0.022738,0.004 -0.062012,0.004 -0.03514,0 -0.059945,-0.004 -0.022738,-0.004 -0.037207,-0.0103 -0.014469,-0.006 -0.020671,-0.0165 -0.00413,-0.0103 -0.00413,-0.0227 v -2.50321 q 0,-0.0744 0.039274,-0.10128 0.039274,-0.0289 0.076481,-0.0289 h 0.1364257 q 0.051676,0 0.09095,0.0124 0.039274,0.0103 0.068213,0.0331 0.031006,0.0207 0.051676,0.0517 0.020671,0.031 0.037207,0.0703 l 0.8826327,2.12493 h 0.010335 l 0.9198397,-2.11666 q 0.020671,-0.0496 0.043408,-0.0827 0.024805,-0.0351 0.049609,-0.0558 0.026872,-0.0207 0.05581,-0.0289 0.031006,-0.008 0.066146,-0.008 h 0.150895 q 0.018604,0 0.039274,0.006 0.02067,0.006 0.037207,0.0227 0.016536,0.0145 0.026872,0.0393 0.012402,0.0248 0.012402,0.062 z"
         style="font-weight:300;-inkscape-font-specification:'Calibri Light'"
         id="path858" />
      <path
         d="m 6.6696062,122.59829 q 0,0.0269 -0.00413,0.0475 -0.00413,0.0207 -0.014469,0.0351 -0.00827,0.0145 -0.020671,0.0227 -0.012402,0.006 -0.026872,0.006 H 5.3508247 q -0.037207,0 -0.076481,-0.0269 -0.039274,-0.0289 -0.039274,-0.10336 v -2.41432 q 0,-0.0744 0.039274,-0.10128 0.039274,-0.0289 0.076481,-0.0289 h 1.2340322 q 0.014469,0 0.026872,0.008 0.012402,0.006 0.020671,0.0207 0.00827,0.0145 0.012402,0.0372 0.00413,0.0207 0.00413,0.0496 0,0.0269 -0.00413,0.0476 -0.00413,0.0207 -0.012402,0.0351 -0.00827,0.0124 -0.020671,0.0207 -0.012402,0.006 -0.026872,0.006 H 5.4872504 v 0.94051 h 0.9467114 q 0.016536,0 0.028939,0.008 0.012402,0.006 0.020671,0.0207 0.00827,0.0124 0.012402,0.0351 0.00413,0.0207 0.00413,0.0496 0,0.0269 -0.00413,0.0475 -0.00413,0.0186 -0.012402,0.031 -0.00827,0.0124 -0.020671,0.0186 -0.012402,0.006 -0.028939,0.006 H 5.4872504 v 1.0666 h 1.11621 q 0.014469,0 0.026872,0.008 0.012402,0.006 0.020671,0.0207 0.010335,0.0124 0.014469,0.0351 0.00413,0.0207 0.00413,0.0496 z"
         style="font-weight:300;-inkscape-font-specification:'Calibri Light'"
         id="path860" />
      <path
         d="m 8.9785072,122.66443 q 0,0.0145 -0.0062,0.0248 -0.00413,0.0103 -0.018603,0.0186 -0.014469,0.006 -0.041341,0.0103 -0.024805,0.004 -0.064079,0.004 -0.03514,0 -0.059945,-0.004 -0.022738,-0.002 -0.039274,-0.0103 -0.016536,-0.0103 -0.026872,-0.0248 -0.010335,-0.0165 -0.018603,-0.0414 l -0.2501137,-0.64905 q -0.043408,-0.10955 -0.093018,-0.20671 -0.049609,-0.0971 -0.1198893,-0.16743 -0.07028,-0.0723 -0.1694985,-0.11369 -0.099219,-0.0413 -0.2377114,-0.0413 H 7.5563729 v 1.2051 q 0,0.0124 -0.0062,0.0227 -0.0062,0.0103 -0.020671,0.0165 -0.014469,0.006 -0.039274,0.0103 -0.022738,0.004 -0.059945,0.004 -0.03514,0 -0.059945,-0.004 -0.024805,-0.004 -0.039274,-0.0103 -0.014469,-0.006 -0.020671,-0.0165 -0.0062,-0.0103 -0.0062,-0.0227 v -2.50321 q 0,-0.0744 0.039274,-0.10128 0.039274,-0.0289 0.076481,-0.0289 h 0.5022945 q 0.099219,0 0.1632974,0.006 0.066146,0.004 0.1198892,0.0124 0.1529621,0.0269 0.2666502,0.0868 0.113688,0.0599 0.188102,0.14883 0.074414,0.0868 0.109554,0.19843 0.037207,0.10956 0.037207,0.23771 0,0.1323 -0.037207,0.23772 -0.037207,0.10335 -0.1054199,0.18396 -0.068213,0.0785 -0.1632974,0.13643 -0.095085,0.0579 -0.2087726,0.0971 0.068213,0.031 0.1219563,0.0765 0.05581,0.0455 0.1012857,0.10956 0.047542,0.0641 0.088883,0.14882 0.041341,0.0827 0.082682,0.18604 l 0.2501138,0.62425 q 0.026872,0.0724 0.033073,0.0992 0.00827,0.0269 0.00827,0.0393 z m -0.444417,-1.91202 q 0,-0.17157 -0.076481,-0.28939 -0.076481,-0.11989 -0.2563149,-0.17157 -0.059945,-0.0165 -0.1302245,-0.0227 -0.07028,-0.008 -0.183968,-0.008 H 7.5563729 v 0.98185 h 0.3844724 q 0.1550291,0 0.2666501,-0.0372 0.111621,-0.0393 0.183968,-0.10542 0.074414,-0.0661 0.1074869,-0.15503 0.03514,-0.0889 0.03514,-0.19223 z"
         style="font-weight:300;-inkscape-font-specification:'Calibri Light'"
         id="path862" />
      <path
         d="m 11.450706,120.37207 q 0,0.0269 -0.0041,0.0496 -0.0041,0.0227 -0.0124,0.0393 -0.0062,0.0145 -0.0186,0.0227 -0.01034,0.008 -0.02274,0.008 -0.0248,0 -0.08268,-0.0413 -0.05581,-0.0413 -0.150895,-0.0889 -0.09508,-0.0496 -0.23151,-0.0909 -0.134359,-0.0413 -0.320394,-0.0413 -0.237711,0 -0.423746,0.0889 -0.1860353,0.0868 -0.3141928,0.23978 -0.1281574,0.15296 -0.1963703,0.3638 -0.066146,0.20878 -0.066146,0.45062 0,0.27079 0.076481,0.48369 0.076481,0.21084 0.2108397,0.3576 0.1364261,0.1447 0.3224611,0.22118 0.188102,0.0765 0.409277,0.0765 0.142626,0 0.289387,-0.0351 0.146761,-0.0351 0.274919,-0.10749 v -0.86609 h -0.682129 q -0.03307,0 -0.04961,-0.0289 -0.01654,-0.0289 -0.01654,-0.0827 0,-0.0289 0.0041,-0.0496 0.0041,-0.0227 0.0124,-0.0351 0.0083,-0.0145 0.02067,-0.0207 0.0124,-0.008 0.02894,-0.008 h 0.818554 q 0.0186,0 0.03927,0.006 0.02067,0.006 0.03721,0.0207 0.0186,0.0145 0.02894,0.0413 0.01033,0.0248 0.01033,0.062 v 0.99426 q 0,0.0496 -0.01654,0.0847 -0.01447,0.0351 -0.07028,0.0682 -0.05581,0.031 -0.148828,0.0703 -0.09302,0.0372 -0.192236,0.0641 -0.09922,0.0248 -0.200504,0.0372 -0.09922,0.0145 -0.196371,0.0145 -0.303857,0 -0.543635,-0.0971 -0.2377117,-0.0992 -0.4030761,-0.27698 -0.1632974,-0.17984 -0.2501137,-0.42582 -0.086816,-0.24804 -0.086816,-0.5457 0,-0.31213 0.093018,-0.56844 0.095085,-0.25838 0.2645831,-0.44028 0.1715657,-0.1819 0.4092766,-0.28112 0.237712,-0.10129 0.525033,-0.10129 0.144693,0 0.272851,0.0269 0.130224,0.0269 0.233577,0.0661 0.103353,0.0372 0.1757,0.0827 0.07235,0.0434 0.09715,0.0703 0.02687,0.0248 0.03514,0.0496 0.01034,0.0248 0.01034,0.0724 z"
         style="font-weight:300;-inkscape-font-specification:'Calibri Light'"
         id="path864" />
      <path
         d="m 13.606644,122.59829 q 0,0.0269 -0.0041,0.0475 -0.0041,0.0207 -0.01447,0.0351 -0.0083,0.0145 -0.02067,0.0227 -0.0124,0.006 -0.02687,0.006 h -1.252636 q -0.03721,0 -0.07648,-0.0269 -0.03927,-0.0289 -0.03927,-0.10336 v -2.41432 q 0,-0.0744 0.03927,-0.10128 0.03927,-0.0289 0.07648,-0.0289 h 1.234032 q 0.01447,0 0.02687,0.008 0.0124,0.006 0.02067,0.0207 0.0083,0.0145 0.0124,0.0372 0.0041,0.0207 0.0041,0.0496 0,0.0269 -0.0041,0.0476 -0.0041,0.0207 -0.0124,0.0351 -0.0083,0.0124 -0.02067,0.0207 -0.0124,0.006 -0.02687,0.006 h -1.097606 v 0.94051 H 13.371 q 0.01654,0 0.02894,0.008 0.0124,0.006 0.02067,0.0207 0.0083,0.0124 0.0124,0.0351 0.0041,0.0207 0.0041,0.0496 0,0.0269 -0.0041,0.0475 -0.0041,0.0186 -0.0124,0.031 -0.0083,0.0124 -0.02067,0.0186 -0.0124,0.006 -0.02894,0.006 h -0.946711 v 1.0666 h 1.11621 q 0.01447,0 0.02687,0.008 0.0124,0.006 0.02067,0.0207 0.01033,0.0124 0.01447,0.0351 0.0041,0.0207 0.0041,0.0496 z"
         style="font-weight:300;-inkscape-font-specification:'Calibri Light'"
         id="path866" />
    </g>
    <g
       aria-label="2 LIFT"
       id="text8544-7-0-8-5-9"
       style="font-size:2.46944px;line-height:1.25;font-family:Calibri;-inkscape-font-specification:Calibri;text-align:center;text-anchor:middle;fill:#ffffff;stroke-width:0.264583">
      <path
         d="m 2.5983669,125.36831 q 0,0.0145 -0.00362,0.0277 -0.00241,0.0121 -0.00844,0.0217 -0.00482,0.008 -0.013264,0.0133 -0.00844,0.005 -0.019293,0.005 H 1.7109119 q -0.010852,0 -0.020498,-0.004 -0.00965,-0.004 -0.016881,-0.0109 -0.00723,-0.008 -0.010852,-0.0217 -0.00362,-0.0133 -0.00362,-0.0314 0,-0.0157 0.00121,-0.0277 0.00121,-0.0121 0.00482,-0.0217 0.00362,-0.01 0.00965,-0.0193 0.00603,-0.01 0.015675,-0.0205 l 0.319532,-0.33762 q 0.1193724,-0.1254 0.1893077,-0.22428 0.071141,-0.0989 0.1085203,-0.17845 0.037379,-0.0796 0.048231,-0.1447 0.012058,-0.0651 0.012058,-0.12299 0,-0.0579 -0.019292,-0.10972 -0.018087,-0.0531 -0.05426,-0.0916 -0.036173,-0.0398 -0.090434,-0.0627 -0.053054,-0.0241 -0.1229897,-0.0241 -0.075964,0 -0.1362532,0.0217 -0.060289,0.0205 -0.1061088,0.047 -0.044614,0.0253 -0.074758,0.047 -0.030145,0.0205 -0.044614,0.0205 -0.00723,0 -0.013264,-0.004 -0.00603,-0.004 -0.010852,-0.0109 -0.00362,-0.008 -0.00603,-0.0205 -0.00121,-0.0121 -0.00121,-0.0277 0,-0.0145 0.00121,-0.0241 0.00121,-0.01 0.00362,-0.0169 0.00241,-0.008 0.00603,-0.0157 0.00482,-0.007 0.018087,-0.0193 0.014469,-0.0121 0.047026,-0.0326 0.033762,-0.0205 0.084405,-0.041 0.050643,-0.0217 0.1121376,-0.0362 0.061495,-0.0157 0.1278128,-0.0157 0.1097261,0 0.1905135,0.0326 0.081993,0.0326 0.1362532,0.088 0.05426,0.0555 0.080787,0.12901 0.026527,0.0724 0.026527,0.15314 0,0.0748 -0.013264,0.14952 -0.012058,0.0736 -0.05426,0.16157 -0.040997,0.0868 -0.1205781,0.19293 -0.078376,0.1061 -0.2098059,0.24477 l -0.2845644,0.29783 H 2.553753 q 0.00965,0 0.018087,0.005 0.00844,0.004 0.014469,0.0121 0.00603,0.008 0.00844,0.0205 0.00362,0.0121 0.00362,0.0265 z"
         style="font-weight:300;-inkscape-font-specification:'Calibri Light'"
         id="path847" />
      <path
         d="m 4.3250456,125.36831 q 0,0.0169 -0.00241,0.0289 -0.00241,0.0121 -0.00723,0.0217 -0.00482,0.008 -0.012058,0.0133 -0.00723,0.004 -0.016881,0.004 H 3.6100173 q -0.021704,0 -0.044614,-0.0157 -0.02291,-0.0169 -0.02291,-0.0603 v -1.4602 q 0,-0.007 0.00362,-0.0133 0.00362,-0.006 0.012058,-0.01 0.00844,-0.004 0.02291,-0.006 0.014469,-0.002 0.034968,-0.002 0.021704,0 0.034968,0.002 0.014469,0.002 0.02291,0.006 0.00844,0.004 0.012058,0.01 0.00362,0.006 0.00362,0.0133 v 1.40233 h 0.5968617 q 0.00965,0 0.016881,0.005 0.00723,0.004 0.012058,0.0121 0.00482,0.007 0.00723,0.0205 0.00241,0.0121 0.00241,0.0289 z"
         style="font-weight:300;-inkscape-font-specification:'Calibri Light'"
         id="path849" />
      <path
         d="m 4.7241593,125.41172 q 0,0.007 -0.00362,0.0133 -0.00362,0.006 -0.012058,0.01 -0.00844,0.004 -0.02291,0.006 -0.013264,0.002 -0.034968,0.002 -0.020498,0 -0.034968,-0.002 -0.014469,-0.002 -0.02291,-0.006 -0.00844,-0.004 -0.012058,-0.01 -0.00362,-0.006 -0.00362,-0.0133 v -1.51205 q 0,-0.007 0.00362,-0.0133 0.00482,-0.006 0.013264,-0.01 0.00965,-0.004 0.02291,-0.006 0.014469,-0.002 0.033762,-0.002 0.021704,0 0.034968,0.002 0.014469,0.002 0.02291,0.006 0.00844,0.004 0.012058,0.01 0.00362,0.006 0.00362,0.0133 z"
         style="font-weight:300;-inkscape-font-specification:'Calibri Light'"
         id="path851" />
      <path
         d="m 5.9697312,123.94308 q 0,0.0157 -0.00241,0.0277 -0.00241,0.0121 -0.00844,0.0205 -0.00482,0.007 -0.012058,0.0121 -0.00723,0.004 -0.015675,0.004 H 5.3270498 v 0.59083 h 0.5727461 q 0.00844,0 0.015675,0.004 0.00723,0.002 0.012058,0.01 0.00603,0.007 0.00844,0.0193 0.00241,0.0121 0.00241,0.0302 0,0.0157 -0.00241,0.0277 -0.00241,0.0121 -0.00844,0.0205 -0.00482,0.007 -0.012058,0.0121 -0.00723,0.004 -0.015675,0.004 H 5.3270498 v 0.68729 q 0,0.007 -0.00362,0.0133 -0.00362,0.006 -0.012058,0.01 -0.00844,0.004 -0.02291,0.006 -0.013264,0.002 -0.034968,0.002 -0.020498,0 -0.034968,-0.002 -0.014469,-0.002 -0.02291,-0.006 -0.00844,-0.004 -0.012058,-0.01 -0.00362,-0.006 -0.00362,-0.0133 v -1.4602 q 0,-0.0434 0.02291,-0.0591 0.02291,-0.0169 0.044614,-0.0169 h 0.6836779 q 0.00844,0 0.015675,0.005 0.00723,0.004 0.012058,0.0121 0.00603,0.008 0.00844,0.0217 0.00241,0.0121 0.00241,0.0289 z"
         style="font-weight:300;-inkscape-font-specification:'Calibri Light'"
         id="path853" />
      <path
         d="m 7.2611232,123.94308 q 0,0.0157 -0.00241,0.0277 -0.00241,0.0121 -0.00723,0.0205 -0.00482,0.007 -0.012058,0.0121 -0.00723,0.004 -0.015675,0.004 H 6.7583124 v 1.40473 q 0,0.007 -0.00362,0.0133 -0.00362,0.006 -0.012058,0.01 -0.00844,0.004 -0.02291,0.006 -0.014469,0.002 -0.034968,0.002 -0.020498,0 -0.034968,-0.002 -0.014469,-0.002 -0.02291,-0.006 -0.00844,-0.004 -0.012058,-0.01 -0.00362,-0.006 -0.00362,-0.0133 v -1.40473 H 6.1457755 q -0.00965,0 -0.016881,-0.004 -0.00603,-0.005 -0.010852,-0.0121 -0.00482,-0.008 -0.00723,-0.0205 -0.00241,-0.0121 -0.00241,-0.0277 0,-0.0169 0.00241,-0.0289 0.00241,-0.0133 0.00723,-0.0217 0.00482,-0.008 0.010852,-0.0121 0.00723,-0.005 0.016881,-0.005 h 1.0779684 q 0.00844,0 0.015675,0.005 0.00723,0.004 0.012058,0.0121 0.00482,0.008 0.00723,0.0217 0.00241,0.0121 0.00241,0.0289 z"
         style="font-weight:300;-inkscape-font-specification:'Calibri Light'"
         id="path855" />
    </g>
    <g
       aria-label="IN"
       id="text8544-7-1"
       style="font-size:2.82222px;line-height:1.25;font-family:Calibri;-inkscape-font-specification:Calibri;text-align:center;text-anchor:middle;stroke-width:0.264583">
      <path
         d="m 6.6957883,98.773535 q 0,0.01103 -0.00551,0.01929 -0.00551,0.0083 -0.019293,0.01378 -0.01378,0.0041 -0.037207,0.0069 -0.022049,0.0041 -0.0565,0.0041 -0.033073,0 -0.0565,-0.0041 -0.023427,-0.0028 -0.037207,-0.0069 -0.01378,-0.0055 -0.019293,-0.01378 -0.00551,-0.0083 -0.00551,-0.01929 v -1.711522 q 0,-0.01102 0.00551,-0.01929 0.00689,-0.0083 0.020671,-0.0124 0.015158,-0.0055 0.037207,-0.0083 0.023427,-0.0041 0.055122,-0.0041 0.034451,0 0.0565,0.0041 0.023427,0.0028 0.037207,0.0083 0.01378,0.0041 0.019293,0.0124 0.00551,0.0083 0.00551,0.01929 z"
         id="path842" />
      <path
         d="m 8.5175534,98.711524 q 0,0.02756 -0.00965,0.04685 -0.00827,0.01929 -0.023427,0.03169 -0.01378,0.0124 -0.031695,0.01791 -0.017914,0.0055 -0.035829,0.0055 h -0.075792 q -0.035829,0 -0.06339,-0.0069 -0.026183,-0.0083 -0.050987,-0.02756 -0.023427,-0.02067 -0.048231,-0.05512 -0.023427,-0.03445 -0.052365,-0.08819 L 7.5639517,97.621496 q -0.044097,-0.07855 -0.089572,-0.163986 -0.044097,-0.08682 -0.082682,-0.168121 h -0.00276 q 0.00276,0.09922 0.00413,0.202572 0.00138,0.103353 0.00138,0.205327 v 1.076247 q 0,0.0096 -0.00551,0.01929 -0.00551,0.0083 -0.019292,0.01378 -0.012402,0.0041 -0.034451,0.0069 -0.020671,0.0041 -0.053743,0.0041 -0.033073,0 -0.055122,-0.0041 -0.020671,-0.0028 -0.033073,-0.0069 -0.012402,-0.0055 -0.017914,-0.01378 -0.00551,-0.0096 -0.00551,-0.01929 v -1.645376 q 0,-0.05512 0.030317,-0.07855 0.030317,-0.02343 0.066146,-0.02343 h 0.1129991 q 0.039963,0 0.066146,0.0069 0.027561,0.0069 0.048231,0.02343 0.022049,0.01516 0.041341,0.0441 0.020671,0.02756 0.044097,0.07028 l 0.4327037,0.782725 q 0.039963,0.07166 0.07717,0.14056 0.037207,0.06752 0.071658,0.13367 0.034451,0.06614 0.067524,0.130913 0.034451,0.06339 0.067524,0.128158 h 0.00138 q -0.00276,-0.108865 -0.00413,-0.225998 0,-0.118512 0,-0.227377 v -0.967382 q 0,-0.0096 0.00551,-0.01791 0.00551,-0.0083 0.017914,-0.01378 0.01378,-0.0069 0.034451,-0.0096 0.022049,-0.0028 0.0565,-0.0028 0.030317,0 0.052365,0.0028 0.022049,0.0028 0.034451,0.0096 0.012402,0.0055 0.017914,0.01378 0.00551,0.0083 0.00551,0.01791 z"
         id="path844" />
    </g>
    <g
       aria-label="POLY"
       id="text8544-7-1-9"
       style="font-size:2.82222px;line-height:1.25;font-family:Calibri;-inkscape-font-specification:Calibri;text-align:center;text-anchor:middle;fill:#ffffff;stroke-width:0.264583">
      <path
         d="m 5.9484285,104.04845 q 0,0.13367 -0.044097,0.24116 -0.044097,0.10749 -0.1267794,0.18328 -0.081304,0.0758 -0.2011935,0.11713 -0.1185112,0.0413 -0.2838756,0.0413 H 5.0899113 v 0.64217 q 0,0.011 -0.00689,0.0193 -0.00551,0.008 -0.019292,0.0138 -0.012402,0.004 -0.035829,0.007 -0.022049,0.004 -0.056499,0.004 -0.034451,0 -0.057878,-0.004 -0.022049,-0.003 -0.035829,-0.007 -0.01378,-0.006 -0.019292,-0.0138 -0.00551,-0.008 -0.00551,-0.0193 v -1.64538 q 0,-0.0551 0.028939,-0.0786 0.028939,-0.0234 0.064768,-0.0234 h 0.3817162 q 0.057878,0 0.110243,0.006 0.053743,0.004 0.1254014,0.0207 0.073036,0.0152 0.14745,0.0593 0.075792,0.0427 0.1281574,0.10611 0.052365,0.0634 0.079926,0.14745 0.028939,0.0827 0.028939,0.18328 z m -0.2494248,0.0193 q 0,-0.10887 -0.041341,-0.18191 -0.039963,-0.073 -0.1005967,-0.10886 -0.059256,-0.0358 -0.1240233,-0.0455 -0.06339,-0.01 -0.1240234,-0.01 H 5.0899113 v 0.7152 h 0.2135958 q 0.1074869,0 0.1777668,-0.0276 0.071658,-0.0276 0.1198892,-0.0758 0.048231,-0.0496 0.073036,-0.11714 0.024805,-0.0689 0.024805,-0.14882 z"
         id="path833" />
      <path
         d="m 7.8046445,104.3971 q 0,0.21635 -0.050987,0.38998 -0.050987,0.17363 -0.1529622,0.29628 -0.1005967,0.12127 -0.2535588,0.18741 -0.1529621,0.0648 -0.3569116,0.0648 -0.2011934,0 -0.3486434,-0.0593 -0.146072,-0.0606 -0.2425346,-0.17501 -0.095085,-0.11437 -0.1419378,-0.28387 -0.046853,-0.1695 -0.046853,-0.38999 0,-0.21084 0.050987,-0.38309 0.050987,-0.17226 0.1529622,-0.29215 0.1019747,-0.12126 0.2549368,-0.18603 0.1529622,-0.0662 0.3569117,-0.0662 0.1970593,0 0.3431312,0.0593 0.1460719,0.0593 0.2425345,0.17363 0.097841,0.113 0.1446939,0.28112 0.048231,0.16674 0.048231,0.3831 z m -0.2494247,0.0165 q 0,-0.15158 -0.027561,-0.28112 -0.026183,-0.13091 -0.089572,-0.226 -0.062012,-0.0965 -0.1667425,-0.1502 -0.1047309,-0.0537 -0.259071,-0.0537 -0.1543402,0 -0.259071,0.0579 -0.1047308,0.0579 -0.1708766,0.15434 -0.064768,0.0965 -0.093706,0.226 -0.027561,0.12816 -0.027561,0.2701 0,0.15709 0.026183,0.28938 0.026183,0.1323 0.088194,0.22876 0.062012,0.0951 0.1653645,0.14883 0.1047308,0.0524 0.261827,0.0524 0.1557182,0 0.2618271,-0.0579 0.1061088,-0.0579 0.1708766,-0.15571 0.064768,-0.0992 0.092328,-0.22876 0.027561,-0.12953 0.027561,-0.27423 z"
         id="path835" />
      <path
         d="m 9.1041336,105.206 q 0,0.0276 -0.00276,0.0469 -0.00276,0.0179 -0.00965,0.0317 -0.00551,0.0124 -0.015158,0.0193 -0.00827,0.006 -0.02067,0.006 H 8.267665 q -0.031695,0 -0.060634,-0.0207 -0.027561,-0.0221 -0.027561,-0.0758 v -1.65088 q 0,-0.011 0.00551,-0.0193 0.00551,-0.008 0.019293,-0.0124 0.01378,-0.006 0.037207,-0.008 0.023427,-0.004 0.0565,-0.004 0.034451,0 0.0565,0.004 0.023427,0.003 0.037207,0.008 0.01378,0.004 0.019293,0.0124 0.00551,0.008 0.00551,0.0193 v 1.54202 h 0.6394093 q 0.012402,0 0.02067,0.007 0.00965,0.006 0.015158,0.0179 0.00689,0.011 0.00965,0.0303 0.00276,0.0193 0.00276,0.0469 z"
         id="path837" />
      <path
         d="m 9.7049577,104.6162 v 0.65733 q 0,0.011 -0.00551,0.0193 -0.00551,0.008 -0.019293,0.0138 -0.01378,0.004 -0.037207,0.007 -0.023427,0.004 -0.0565,0.004 -0.034451,0 -0.057878,-0.004 -0.022049,-0.003 -0.037207,-0.007 -0.01378,-0.006 -0.019292,-0.0138 -0.00551,-0.008 -0.00551,-0.0193 v -0.65733 l -0.5043616,-1.00596 q -0.015158,-0.0317 -0.019293,-0.0496 -0.00276,-0.0179 0.00689,-0.0276 0.011024,-0.01 0.037207,-0.0124 0.027561,-0.003 0.073036,-0.003 0.041341,0 0.066146,0.003 0.026183,0.003 0.041341,0.008 0.015158,0.004 0.022049,0.0138 0.00827,0.008 0.015158,0.0221 l 0.2466687,0.51263 q 0.034451,0.073 0.068902,0.15296 0.034451,0.0799 0.07028,0.16123 h 0.00276 q 0.031695,-0.0785 0.064768,-0.15571 0.034451,-0.0786 0.068902,-0.15434 l 0.2480467,-0.51539 q 0.00413,-0.0138 0.011024,-0.0234 0.00827,-0.01 0.020671,-0.0138 0.01378,-0.006 0.03721,-0.008 0.02343,-0.003 0.05926,-0.003 0.04961,0 0.07717,0.004 0.02894,0.003 0.03996,0.0124 0.01102,0.01 0.0069,0.0276 -0.0028,0.0179 -0.01791,0.0482 z"
         id="path839" />
    </g>
  </g>
</svg>
