<?xml version="1.0" encoding="UTF-8" standalone="no"?>
<!-- Created with Inkscape (http://www.inkscape.org/) -->

<svg
   width="15.24mm"
   height="128.5mm"
   viewBox="0 0 15.24 128.5"
   version="1.1"
   id="svg5"
   inkscape:version="1.1.2 (b8e25be833, 2022-02-05)"
   sodipodi:docname="Merge.svg"
   xmlns:inkscape="http://www.inkscape.org/namespaces/inkscape"
   xmlns:sodipodi="http://sodipodi.sourceforge.net/DTD/sodipodi-0.dtd"
   xmlns="http://www.w3.org/2000/svg"
   xmlns:svg="http://www.w3.org/2000/svg">
  <sodipodi:namedview
     id="namedview7"
     pagecolor="#ffffff"
     bordercolor="#666666"
     borderopacity="1.0"
     inkscape:pageshadow="2"
     inkscape:pageopacity="0.0"
     inkscape:pagecheckerboard="0"
     inkscape:document-units="mm"
     showgrid="false"
     height="128.5mm"
     inkscape:zoom="9.8435291"
     inkscape:cx="12.038365"
     inkscape:cy="361.91288"
     inkscape:window-width="3840"
     inkscape:window-height="2054"
     inkscape:window-x="-11"
     inkscape:window-y="-11"
     inkscape:window-maximized="0"
     inkscape:current-layer="layer1" />
  <defs
     id="defs2" />
  <g
     inkscape:label="Layer 1"
     inkscape:groupmode="layer"
     id="layer1">
    <path
       id="rect4302"
       style="fill:#dddddd;stroke-width:0.184931"
       d="M -0.00163784,1.6577559e-8 H 15.242541 V 128.50433 H -0.00163784 Z" />
    <path
       id="rect10313-6"
       style="fill:#bbbbbb;stroke-width:0.264582"
       d="M 3.1199998,101.5 H 12.12 c 0.831,0 1.5,0.669 1.5,1.5 v 13.5 c 0,0.831 -0.669,1.5 -1.5,1.5 H 3.1199998 C 2.2889999,118 1.62,117.331 1.62,116.5 V 103 c 0,-0.831 0.6689999,-1.5 1.4999998,-1.5 z" />
    <path
       id="rect1321"
       style="fill:#fafafa;stroke:#00a6a9;stroke-width:0"
       d="M 1.5870005,94 H 13.587 v 10 H 1.5870005 Z" />
    <path
       id="rect10313"
       style="fill:#fafafa;stroke-width:0.264582"
       d="m 3.1204513,6 h 9.0000007 c 0.831,0 1.5,0.6689998 1.5,1.4999995 V 99.999993 c 0,0.830997 -0.669,1.499997 -1.5,1.499997 H 3.1204513 c -0.8309998,0 -1.4999997,-0.669 -1.4999997,-1.499997 V 7.4999995 C 1.6204516,6.6689998 2.2894515,6 3.1204513,6 Z" />
    <path
       id="rect10313-4"
       style="fill:#fafafa;stroke-width:0.264583"
       d="m 3.1204513,136.22836 h 9.0000007 c 0.831,0 1.5,0.669 1.5,1.5 v 9.59748 c 0,0.831 -0.669,1.5 -1.5,1.5 H 3.1204513 c -0.8309998,0 -1.4999997,-0.669 -1.4999997,-1.5 v -9.59748 c 0,-0.831 0.6689999,-1.5 1.4999997,-1.5 z" />
    <g
       aria-label="MERGE"
       id="text8544-7-0-8-5"
       style="font-size:4.23333px;line-height:1.25;font-family:Calibri;-inkscape-font-specification:Calibri;text-align:center;letter-spacing:0px;text-anchor:middle;fill:#010101;stroke-width:0.264583">
      <path
         d="m 4.4537225,122.66857 q 0,0.0124 -0.0062,0.0227 -0.0062,0.0103 -0.022738,0.0165 -0.014469,0.006 -0.039274,0.0103 -0.022738,0.004 -0.059945,0.004 -0.033073,0 -0.057878,-0.004 -0.024805,-0.004 -0.039274,-0.0103 -0.014469,-0.006 -0.020671,-0.0165 -0.0062,-0.0103 -0.0062,-0.0227 v -2.41226 h -0.00413 l -1.0521313,2.42673 q -0.00413,0.008 -0.012402,0.0165 -0.00827,0.006 -0.022738,0.0103 -0.014469,0.006 -0.03514,0.008 -0.018604,0.004 -0.045475,0.004 -0.028939,0 -0.049609,-0.004 -0.020671,-0.002 -0.03514,-0.008 -0.012402,-0.004 -0.020671,-0.0103 -0.00827,-0.008 -0.010335,-0.0165 l -1.0004549,-2.42673 h -0.00207 v 2.41226 q 0,0.0124 -0.0062,0.0227 -0.0062,0.0103 -0.022738,0.0165 -0.014469,0.006 -0.039274,0.0103 -0.022738,0.004 -0.062012,0.004 -0.03514,0 -0.059945,-0.004 -0.022738,-0.004 -0.037207,-0.0103 -0.014469,-0.006 -0.020671,-0.0165 -0.00413,-0.0103 -0.00413,-0.0227 v -2.50321 q 0,-0.0744 0.039274,-0.10128 0.039274,-0.0289 0.076481,-0.0289 h 0.1364257 q 0.051676,0 0.09095,0.0124 0.039274,0.0103 0.068213,0.0331 0.031006,0.0207 0.051676,0.0517 0.020671,0.031 0.037207,0.0703 l 0.8826327,2.12493 h 0.010335 l 0.9198397,-2.11666 q 0.020671,-0.0496 0.043408,-0.0827 0.024805,-0.0351 0.049609,-0.0558 0.026872,-0.0207 0.05581,-0.0289 0.031006,-0.008 0.066146,-0.008 h 0.150895 q 0.018604,0 0.039274,0.006 0.02067,0.006 0.037207,0.0227 0.016536,0.0145 0.026872,0.0393 0.012402,0.0248 0.012402,0.062 z"
         style="font-weight:300;-inkscape-font-specification:'Calibri Light'"
         id="path859" />
      <path
         d="m 6.6696062,122.59829 q 0,0.0269 -0.00413,0.0475 -0.00413,0.0207 -0.014469,0.0351 -0.00827,0.0145 -0.020671,0.0227 -0.012402,0.006 -0.026872,0.006 H 5.3508247 q -0.037207,0 -0.076481,-0.0269 -0.039274,-0.0289 -0.039274,-0.10336 v -2.41432 q 0,-0.0744 0.039274,-0.10128 0.039274,-0.0289 0.076481,-0.0289 h 1.2340322 q 0.014469,0 0.026872,0.008 0.012402,0.006 0.020671,0.0207 0.00827,0.0145 0.012402,0.0372 0.00413,0.0207 0.00413,0.0496 0,0.0269 -0.00413,0.0476 -0.00413,0.0207 -0.012402,0.0351 -0.00827,0.0124 -0.020671,0.0207 -0.012402,0.006 -0.026872,0.006 H 5.4872504 v 0.94051 h 0.9467114 q 0.016536,0 0.028939,0.008 0.012402,0.006 0.020671,0.0207 0.00827,0.0124 0.012402,0.0351 0.00413,0.0207 0.00413,0.0496 0,0.0269 -0.00413,0.0475 -0.00413,0.0186 -0.012402,0.031 -0.00827,0.0124 -0.020671,0.0186 -0.012402,0.006 -0.028939,0.006 H 5.4872504 v 1.0666 h 1.11621 q 0.014469,0 0.026872,0.008 0.012402,0.006 0.020671,0.0207 0.010335,0.0124 0.014469,0.0351 0.00413,0.0207 0.00413,0.0496 z"
         style="font-weight:300;-inkscape-font-specification:'Calibri Light'"
         id="path861" />
      <path
         d="m 8.9785072,122.66443 q 0,0.0145 -0.0062,0.0248 -0.00413,0.0103 -0.018603,0.0186 -0.014469,0.006 -0.041341,0.0103 -0.024805,0.004 -0.064079,0.004 -0.03514,0 -0.059945,-0.004 -0.022738,-0.002 -0.039274,-0.0103 -0.016536,-0.0103 -0.026872,-0.0248 -0.010335,-0.0165 -0.018603,-0.0414 l -0.2501137,-0.64905 q -0.043408,-0.10955 -0.093018,-0.20671 -0.049609,-0.0971 -0.1198893,-0.16743 -0.07028,-0.0723 -0.1694985,-0.11369 -0.099219,-0.0413 -0.2377114,-0.0413 H 7.5563729 v 1.2051 q 0,0.0124 -0.0062,0.0227 -0.0062,0.0103 -0.020671,0.0165 -0.014469,0.006 -0.039274,0.0103 -0.022738,0.004 -0.059945,0.004 -0.03514,0 -0.059945,-0.004 -0.024805,-0.004 -0.039274,-0.0103 -0.014469,-0.006 -0.020671,-0.0165 -0.0062,-0.0103 -0.0062,-0.0227 v -2.50321 q 0,-0.0744 0.039274,-0.10128 0.039274,-0.0289 0.076481,-0.0289 h 0.5022945 q 0.099219,0 0.1632974,0.006 0.066146,0.004 0.1198892,0.0124 0.1529621,0.0269 0.2666502,0.0868 0.113688,0.0599 0.188102,0.14883 0.074414,0.0868 0.109554,0.19843 0.037207,0.10956 0.037207,0.23771 0,0.1323 -0.037207,0.23772 -0.037207,0.10335 -0.1054199,0.18396 -0.068213,0.0785 -0.1632974,0.13643 -0.095085,0.0579 -0.2087726,0.0971 0.068213,0.031 0.1219563,0.0765 0.05581,0.0455 0.1012857,0.10956 0.047542,0.0641 0.088883,0.14882 0.041341,0.0827 0.082682,0.18604 l 0.2501138,0.62425 q 0.026872,0.0724 0.033073,0.0992 0.00827,0.0269 0.00827,0.0393 z m -0.444417,-1.91202 q 0,-0.17157 -0.076481,-0.28939 -0.076481,-0.11989 -0.2563149,-0.17157 -0.059945,-0.0165 -0.1302245,-0.0227 -0.07028,-0.008 -0.183968,-0.008 H 7.5563729 v 0.98185 h 0.3844724 q 0.1550291,0 0.2666501,-0.0372 0.111621,-0.0393 0.183968,-0.10542 0.074414,-0.0661 0.1074869,-0.15503 0.03514,-0.0889 0.03514,-0.19223 z"
         style="font-weight:300;-inkscape-font-specification:'Calibri Light'"
         id="path863" />
      <path
         d="m 11.450706,120.37207 q 0,0.0269 -0.0041,0.0496 -0.0041,0.0227 -0.0124,0.0393 -0.0062,0.0145 -0.0186,0.0227 -0.01034,0.008 -0.02274,0.008 -0.0248,0 -0.08268,-0.0413 -0.05581,-0.0413 -0.150895,-0.0889 -0.09508,-0.0496 -0.23151,-0.0909 -0.134359,-0.0413 -0.320394,-0.0413 -0.237711,0 -0.423746,0.0889 -0.1860353,0.0868 -0.3141928,0.23978 -0.1281574,0.15296 -0.1963703,0.3638 -0.066146,0.20878 -0.066146,0.45062 0,0.27079 0.076481,0.48369 0.076481,0.21084 0.2108397,0.3576 0.1364261,0.1447 0.3224611,0.22118 0.188102,0.0765 0.409277,0.0765 0.142626,0 0.289387,-0.0351 0.146761,-0.0351 0.274919,-0.10749 v -0.86609 h -0.682129 q -0.03307,0 -0.04961,-0.0289 -0.01654,-0.0289 -0.01654,-0.0827 0,-0.0289 0.0041,-0.0496 0.0041,-0.0227 0.0124,-0.0351 0.0083,-0.0145 0.02067,-0.0207 0.0124,-0.008 0.02894,-0.008 h 0.818554 q 0.0186,0 0.03927,0.006 0.02067,0.006 0.03721,0.0207 0.0186,0.0145 0.02894,0.0413 0.01033,0.0248 0.01033,0.062 v 0.99426 q 0,0.0496 -0.01654,0.0847 -0.01447,0.0351 -0.07028,0.0682 -0.05581,0.031 -0.148828,0.0703 -0.09302,0.0372 -0.192236,0.0641 -0.09922,0.0248 -0.200504,0.0372 -0.09922,0.0145 -0.196371,0.0145 -0.303857,0 -0.543635,-0.0971 -0.2377117,-0.0992 -0.4030761,-0.27698 -0.1632974,-0.17984 -0.2501137,-0.42582 -0.086816,-0.24804 -0.086816,-0.5457 0,-0.31213 0.093018,-0.56844 0.095085,-0.25838 0.2645831,-0.44028 0.1715657,-0.1819 0.4092766,-0.28112 0.237712,-0.10129 0.525033,-0.10129 0.144693,0 0.272851,0.0269 0.130224,0.0269 0.233577,0.0661 0.103353,0.0372 0.1757,0.0827 0.07235,0.0434 0.09715,0.0703 0.02687,0.0248 0.03514,0.0496 0.01034,0.0248 0.01034,0.0724 z"
         style="font-weight:300;-inkscape-font-specification:'Calibri Light'"
         id="path865" />
      <path
         d="m 13.606644,122.59829 q 0,0.0269 -0.0041,0.0475 -0.0041,0.0207 -0.01447,0.0351 -0.0083,0.0145 -0.02067,0.0227 -0.0124,0.006 -0.02687,0.006 h -1.252636 q -0.03721,0 -0.07648,-0.0269 -0.03927,-0.0289 -0.03927,-0.10336 v -2.41432 q 0,-0.0744 0.03927,-0.10128 0.03927,-0.0289 0.07648,-0.0289 h 1.234032 q 0.01447,0 0.02687,0.008 0.0124,0.006 0.02067,0.0207 0.0083,0.0145 0.0124,0.0372 0.0041,0.0207 0.0041,0.0496 0,0.0269 -0.0041,0.0476 -0.0041,0.0207 -0.0124,0.0351 -0.0083,0.0124 -0.02067,0.0207 -0.0124,0.006 -0.02687,0.006 h -1.097606 v 0.94051 H 13.371 q 0.01654,0 0.02894,0.008 0.0124,0.006 0.02067,0.0207 0.0083,0.0124 0.0124,0.0351 0.0041,0.0207 0.0041,0.0496 0,0.0269 -0.0041,0.0475 -0.0041,0.0186 -0.0124,0.031 -0.0083,0.0124 -0.02067,0.0186 -0.0124,0.006 -0.02894,0.006 h -0.946711 v 1.0666 h 1.11621 q 0.01447,0 0.02687,0.008 0.0124,0.006 0.02067,0.0207 0.01033,0.0124 0.01447,0.0351 0.0041,0.0207 0.0041,0.0496 z"
         style="font-weight:300;-inkscape-font-specification:'Calibri Light'"
         id="path867" />
    </g>
    <g
       aria-label="2 LIFT"
       id="text8544-7-0-8-5-9"
       style="font-size:2.46944px;line-height:1.25;font-family:Calibri;-inkscape-font-specification:Calibri;text-align:center;text-anchor:middle;fill:#010101;stroke-width:0.264583">
      <path
         d="m 2.5983669,125.36831 q 0,0.0145 -0.00362,0.0277 -0.00241,0.0121 -0.00844,0.0217 -0.00482,0.008 -0.013264,0.0133 -0.00844,0.005 -0.019293,0.005 H 1.7109119 q -0.010852,0 -0.020498,-0.004 -0.00965,-0.004 -0.016881,-0.0109 -0.00723,-0.008 -0.010852,-0.0217 -0.00362,-0.0133 -0.00362,-0.0314 0,-0.0157 0.00121,-0.0277 0.00121,-0.0121 0.00482,-0.0217 0.00362,-0.01 0.00965,-0.0193 0.00603,-0.01 0.015675,-0.0205 l 0.319532,-0.33762 q 0.1193724,-0.1254 0.1893077,-0.22428 0.071141,-0.0989 0.1085203,-0.17845 0.037379,-0.0796 0.048231,-0.1447 0.012058,-0.0651 0.012058,-0.12299 0,-0.0579 -0.019292,-0.10972 -0.018087,-0.0531 -0.05426,-0.0916 -0.036173,-0.0398 -0.090434,-0.0627 -0.053054,-0.0241 -0.1229897,-0.0241 -0.075964,0 -0.1362532,0.0217 -0.060289,0.0205 -0.1061088,0.047 -0.044614,0.0253 -0.074758,0.047 -0.030145,0.0205 -0.044614,0.0205 -0.00723,0 -0.013264,-0.004 -0.00603,-0.004 -0.010852,-0.0109 -0.00362,-0.008 -0.00603,-0.0205 -0.00121,-0.0121 -0.00121,-0.0277 0,-0.0145 0.00121,-0.0241 0.00121,-0.01 0.00362,-0.0169 0.00241,-0.008 0.00603,-0.0157 0.00482,-0.007 0.018087,-0.0193 0.014469,-0.0121 0.047026,-0.0326 0.033762,-0.0205 0.084405,-0.041 0.050643,-0.0217 0.1121376,-0.0362 0.061495,-0.0157 0.1278128,-0.0157 0.1097261,0 0.1905135,0.0326 0.081993,0.0326 0.1362532,0.088 0.05426,0.0555 0.080787,0.12901 0.026527,0.0724 0.026527,0.15314 0,0.0748 -0.013264,0.14952 -0.012058,0.0736 -0.05426,0.16157 -0.040997,0.0868 -0.1205781,0.19293 -0.078376,0.1061 -0.2098059,0.24477 l -0.2845644,0.29783 H 2.553753 q 0.00965,0 0.018087,0.005 0.00844,0.004 0.014469,0.0121 0.00603,0.008 0.00844,0.0205 0.00362,0.0121 0.00362,0.0265 z"
         style="font-weight:300;-inkscape-font-specification:'Calibri Light'"
         id="path848" />
      <path
         d="m 4.3250456,125.36831 q 0,0.0169 -0.00241,0.0289 -0.00241,0.0121 -0.00723,0.0217 -0.00482,0.008 -0.012058,0.0133 -0.00723,0.004 -0.016881,0.004 H 3.6100173 q -0.021704,0 -0.044614,-0.0157 -0.02291,-0.0169 -0.02291,-0.0603 v -1.4602 q 0,-0.007 0.00362,-0.0133 0.00362,-0.006 0.012058,-0.01 0.00844,-0.004 0.02291,-0.006 0.014469,-0.002 0.034968,-0.002 0.021704,0 0.034968,0.002 0.014469,0.002 0.02291,0.006 0.00844,0.004 0.012058,0.01 0.00362,0.006 0.00362,0.0133 v 1.40233 h 0.5968617 q 0.00965,0 0.016881,0.005 0.00723,0.004 0.012058,0.0121 0.00482,0.007 0.00723,0.0205 0.00241,0.0121 0.00241,0.0289 z"
         style="font-weight:300;-inkscape-font-specification:'Calibri Light'"
         id="path850" />
      <path
         d="m 4.7241593,125.41172 q 0,0.007 -0.00362,0.0133 -0.00362,0.006 -0.012058,0.01 -0.00844,0.004 -0.02291,0.006 -0.013264,0.002 -0.034968,0.002 -0.020498,0 -0.034968,-0.002 -0.014469,-0.002 -0.02291,-0.006 -0.00844,-0.004 -0.012058,-0.01 -0.00362,-0.006 -0.00362,-0.0133 v -1.51205 q 0,-0.007 0.00362,-0.0133 0.00482,-0.006 0.013264,-0.01 0.00965,-0.004 0.02291,-0.006 0.014469,-0.002 0.033762,-0.002 0.021704,0 0.034968,0.002 0.014469,0.002 0.02291,0.006 0.00844,0.004 0.012058,0.01 0.00362,0.006 0.00362,0.0133 z"
         style="font-weight:300;-inkscape-font-specification:'Calibri Light'"
         id="path852" />
      <path
         d="m 5.9697312,123.94308 q 0,0.0157 -0.00241,0.0277 -0.00241,0.0121 -0.00844,0.0205 -0.00482,0.007 -0.012058,0.0121 -0.00723,0.004 -0.015675,0.004 H 5.3270498 v 0.59083 h 0.5727461 q 0.00844,0 0.015675,0.004 0.00723,0.002 0.012058,0.01 0.00603,0.007 0.00844,0.0193 0.00241,0.0121 0.00241,0.0302 0,0.0157 -0.00241,0.0277 -0.00241,0.0121 -0.00844,0.0205 -0.00482,0.007 -0.012058,0.0121 -0.00723,0.004 -0.015675,0.004 H 5.3270498 v 0.68729 q 0,0.007 -0.00362,0.0133 -0.00362,0.006 -0.012058,0.01 -0.00844,0.004 -0.02291,0.006 -0.013264,0.002 -0.034968,0.002 -0.020498,0 -0.034968,-0.002 -0.014469,-0.002 -0.02291,-0.006 -0.00844,-0.004 -0.012058,-0.01 -0.00362,-0.006 -0.00362,-0.0133 v -1.4602 q 0,-0.0434 0.02291,-0.0591 0.02291,-0.0169 0.044614,-0.0169 h 0.6836779 q 0.00844,0 0.015675,0.005 0.00723,0.004 0.012058,0.0121 0.00603,0.008 0.00844,0.0217 0.00241,0.0121 0.00241,0.0289 z"
         style="font-weight:300;-inkscape-font-specification:'Calibri Light'"
         id="path854" />
      <path
         d="m 7.2611232,123.94308 q 0,0.0157 -0.00241,0.0277 -0.00241,0.0121 -0.00723,0.0205 -0.00482,0.007 -0.012058,0.0121 -0.00723,0.004 -0.015675,0.004 H 6.7583124 v 1.40473 q 0,0.007 -0.00362,0.0133 -0.00362,0.006 -0.012058,0.01 -0.00844,0.004 -0.02291,0.006 -0.014469,0.002 -0.034968,0.002 -0.020498,0 -0.034968,-0.002 -0.014469,-0.002 -0.02291,-0.006 -0.00844,-0.004 -0.012058,-0.01 -0.00362,-0.006 -0.00362,-0.0133 v -1.40473 H 6.1457755 q -0.00965,0 -0.016881,-0.004 -0.00603,-0.005 -0.010852,-0.0121 -0.00482,-0.008 -0.00723,-0.0205 -0.00241,-0.0121 -0.00241,-0.0277 0,-0.0169 0.00241,-0.0289 0.00241,-0.0133 0.00723,-0.0217 0.00482,-0.008 0.010852,-0.0121 0.00723,-0.005 0.016881,-0.005 h 1.0779684 q 0.00844,0 0.015675,0.005 0.00723,0.004 0.012058,0.0121 0.00482,0.008 0.00723,0.0217 0.00241,0.0121 0.00241,0.0289 z"
         style="font-weight:300;-inkscape-font-specification:'Calibri Light'"
         id="path856" />
    </g>
    <g
       aria-label="IN"
       id="text8544-7-1"
       style="font-size:2.82222px;line-height:1.25;font-family:Calibri;-inkscape-font-specification:Calibri;text-align:center;text-anchor:middle;stroke-width:0.264583">
      <path
         d="m 6.6957883,101.75562 q 0,0.011 -0.00551,0.0193 -0.00551,0.008 -0.019293,0.0138 -0.01378,0.004 -0.037207,0.007 -0.022049,0.004 -0.0565,0.004 -0.033073,0 -0.0565,-0.004 -0.023427,-0.003 -0.037207,-0.007 -0.01378,-0.006 -0.019293,-0.0138 -0.00551,-0.008 -0.00551,-0.0193 v -1.71152 q 0,-0.011 0.00551,-0.0193 0.00689,-0.008 0.020671,-0.0124 0.015158,-0.006 0.037207,-0.008 0.023427,-0.004 0.055122,-0.004 0.034451,0 0.0565,0.004 0.023427,0.003 0.037207,0.008 0.01378,0.004 0.019293,0.0124 0.00551,0.008 0.00551,0.0193 z"
         id="path843" />
      <path
         d="m 8.5175534,101.69361 q 0,0.0276 -0.00965,0.0468 -0.00827,0.0193 -0.023427,0.0317 -0.01378,0.0124 -0.031695,0.0179 -0.017914,0.006 -0.035829,0.006 h -0.075792 q -0.035829,0 -0.06339,-0.007 -0.026183,-0.008 -0.050987,-0.0276 -0.023427,-0.0207 -0.048231,-0.0551 -0.023427,-0.0345 -0.052365,-0.0882 l -0.5622392,-1.01424 q -0.044097,-0.0785 -0.089572,-0.16398 -0.044097,-0.0868 -0.082682,-0.16812 h -0.00276 q 0.00276,0.0992 0.00413,0.20257 0.00138,0.10335 0.00138,0.20532 v 1.07625 q 0,0.01 -0.00551,0.0193 -0.00551,0.008 -0.019292,0.0138 -0.012402,0.004 -0.034451,0.007 -0.020671,0.004 -0.053743,0.004 -0.033073,0 -0.055122,-0.004 -0.020671,-0.003 -0.033073,-0.007 -0.012402,-0.006 -0.017914,-0.0138 -0.00551,-0.01 -0.00551,-0.0193 v -1.64537 q 0,-0.0551 0.030317,-0.0785 0.030317,-0.0234 0.066146,-0.0234 h 0.1129991 q 0.039963,0 0.066146,0.007 0.027561,0.007 0.048231,0.0234 0.022049,0.0152 0.041341,0.0441 0.020671,0.0276 0.044097,0.0703 l 0.4327037,0.78273 q 0.039963,0.0717 0.07717,0.14056 0.037207,0.0675 0.071658,0.13367 0.034451,0.0661 0.067524,0.13091 0.034451,0.0634 0.067524,0.12816 h 0.00138 q -0.00276,-0.10887 -0.00413,-0.226 0,-0.11851 0,-0.22737 v -0.96739 q 0,-0.01 0.00551,-0.0179 0.00551,-0.008 0.017914,-0.0138 0.01378,-0.007 0.034451,-0.01 0.022049,-0.003 0.0565,-0.003 0.030317,0 0.052365,0.003 0.022049,0.003 0.034451,0.01 0.012402,0.006 0.017914,0.0138 0.00551,0.008 0.00551,0.0179 z"
         id="path845" />
    </g>
    <g
       aria-label="SORT"
       id="text8544-7-1-9"
       style="font-size:2.82222px;line-height:1.25;font-family:Calibri;-inkscape-font-specification:Calibri;text-align:center;text-anchor:middle;fill:#010101;stroke-width:0.264583">
      <path
         d="m 4.1601214,116.30913 q 0,0.1254 -0.046853,0.22324 -0.045475,0.0978 -0.1281574,0.16674 -0.081304,0.0675 -0.1929252,0.10198 -0.110243,0.0344 -0.2384005,0.0344 -0.089572,0 -0.1667425,-0.0152 -0.075792,-0.0152 -0.1364256,-0.0372 -0.059256,-0.022 -0.1005968,-0.0455 -0.039963,-0.0234 -0.056499,-0.04 -0.015158,-0.0165 -0.023427,-0.0413 -0.00689,-0.0262 -0.00689,-0.0689 0,-0.0303 0.00276,-0.0496 0.00276,-0.0207 0.00827,-0.0331 0.00551,-0.0124 0.01378,-0.0165 0.00827,-0.006 0.019293,-0.006 0.019292,0 0.053743,0.0234 0.035829,0.0234 0.09095,0.051 0.055121,0.0276 0.1322916,0.0524 0.078548,0.0234 0.1805228,0.0234 0.07717,0 0.1405598,-0.0207 0.064768,-0.0207 0.110243,-0.0579 0.046853,-0.0386 0.071658,-0.0937 0.024805,-0.0551 0.024805,-0.1254 0,-0.0758 -0.034451,-0.12953 -0.034451,-0.0538 -0.09095,-0.0937 -0.056499,-0.0413 -0.1295355,-0.0744 -0.071658,-0.0345 -0.14745,-0.0689 -0.075792,-0.0358 -0.1474499,-0.0785 -0.071658,-0.0427 -0.1281575,-0.1006 -0.056499,-0.0579 -0.092328,-0.13505 -0.034451,-0.0786 -0.034451,-0.18741 0,-0.11162 0.039963,-0.19844 0.041341,-0.0882 0.112999,-0.14745 0.073036,-0.0593 0.1722547,-0.0896 0.1005967,-0.0317 0.2163518,-0.0317 0.059256,0 0.1185112,0.011 0.060634,0.01 0.112999,0.0276 0.053743,0.0165 0.095085,0.0386 0.041341,0.0207 0.053743,0.0344 0.01378,0.0124 0.017914,0.0207 0.00413,0.007 0.00689,0.0193 0.00276,0.011 0.00413,0.0276 0.00138,0.0165 0.00138,0.0427 0,0.0248 -0.00276,0.0441 -0.00138,0.0193 -0.00551,0.0331 -0.00413,0.0124 -0.012402,0.0193 -0.00689,0.006 -0.016536,0.006 -0.015159,0 -0.048231,-0.0193 -0.031695,-0.0193 -0.078548,-0.0427 -0.046853,-0.0248 -0.111621,-0.0441 -0.06339,-0.0207 -0.1433158,-0.0207 -0.074414,0 -0.1295355,0.0207 -0.055122,0.0193 -0.090951,0.0524 -0.035829,0.0331 -0.053743,0.0786 -0.017915,0.0455 -0.017915,0.0965 0,0.0744 0.034451,0.12816 0.034451,0.0537 0.090951,0.0951 0.057878,0.0413 0.1309135,0.0758 0.073036,0.0345 0.148828,0.0703 0.075792,0.0345 0.148828,0.0772 0.073036,0.0413 0.1295355,0.0992 0.057878,0.0565 0.092328,0.13505 0.035829,0.0772 0.035829,0.18328 z"
         id="path834" />
      <path
         d="m 5.9929107,115.8971 q 0,0.21635 -0.050987,0.38998 -0.050987,0.17363 -0.1529622,0.29628 -0.1005967,0.12127 -0.2535588,0.18741 -0.1529621,0.0648 -0.3569116,0.0648 -0.2011935,0 -0.3486434,-0.0593 -0.146072,-0.0606 -0.2425346,-0.17501 -0.095085,-0.11437 -0.1419378,-0.28387 -0.046853,-0.1695 -0.046853,-0.38999 0,-0.21084 0.050987,-0.38309 0.050987,-0.17226 0.1529621,-0.29215 0.1019748,-0.12126 0.2549369,-0.18603 0.1529621,-0.0662 0.3569116,-0.0662 0.1970593,0 0.3431313,0.0593 0.1460719,0.0593 0.2425345,0.17363 0.097841,0.113 0.1446939,0.28112 0.048231,0.16674 0.048231,0.3831 z m -0.2494247,0.0165 q 0,-0.15158 -0.027561,-0.28112 -0.026183,-0.13091 -0.089573,-0.226 -0.062012,-0.0965 -0.1667425,-0.1502 -0.1047308,-0.0537 -0.2590709,-0.0537 -0.1543402,0 -0.259071,0.0579 -0.1047308,0.0579 -0.1708766,0.15434 -0.064768,0.0965 -0.093707,0.226 -0.027561,0.12816 -0.027561,0.2701 0,0.15709 0.026183,0.28938 0.026183,0.1323 0.088194,0.22876 0.062012,0.0951 0.1653644,0.14883 0.1047309,0.0524 0.2618271,0.0524 0.1557182,0 0.2618271,-0.0579 0.1061088,-0.0579 0.1708766,-0.15571 0.064768,-0.0992 0.092329,-0.22876 0.027561,-0.12953 0.027561,-0.27423 z"
         id="path836" />
      <path
         d="m 7.556983,116.77353 q 0,0.011 -0.00413,0.0193 -0.00413,0.008 -0.017914,0.0138 -0.01378,0.006 -0.038585,0.008 -0.024805,0.003 -0.066146,0.003 -0.035829,0 -0.059256,-0.003 -0.022049,-0.003 -0.035829,-0.008 -0.01378,-0.007 -0.022049,-0.0179 -0.00689,-0.011 -0.012402,-0.0276 l -0.1639864,-0.42031 q -0.028939,-0.0716 -0.060634,-0.13091 -0.030317,-0.0606 -0.073036,-0.10335 -0.042719,-0.0441 -0.1005967,-0.0675 -0.057878,-0.0248 -0.1391818,-0.0248 H 6.6047593 v 0.7593 q 0,0.011 -0.00689,0.0193 -0.00551,0.008 -0.019292,0.0138 -0.012402,0.004 -0.035829,0.007 -0.022049,0.004 -0.0565,0.004 -0.034451,0 -0.057878,-0.004 -0.022049,-0.003 -0.035829,-0.007 -0.01378,-0.006 -0.019293,-0.0138 -0.00551,-0.008 -0.00551,-0.0193 v -1.65089 q 0,-0.0537 0.027561,-0.0744 0.028939,-0.0221 0.060634,-0.0221 h 0.3789602 q 0.067524,0 0.111621,0.004 0.045475,0.003 0.081304,0.007 0.1033528,0.0179 0.1819009,0.0565 0.079926,0.0386 0.1336696,0.0978 0.053744,0.0593 0.079926,0.13643 0.027561,0.0758 0.027561,0.16812 0,0.0896 -0.024805,0.16123 -0.023427,0.0703 -0.068902,0.1254 -0.045475,0.0537 -0.1088649,0.0937 -0.06339,0.04 -0.1419378,0.0675 0.044097,0.0193 0.079926,0.0496 0.035829,0.0289 0.066146,0.0703 0.031695,0.0413 0.059256,0.0951 0.027561,0.0538 0.055122,0.12127 l 0.1598523,0.39274 q 0.019292,0.0496 0.024805,0.0703 0.00551,0.0193 0.00551,0.0303 z m -0.3569116,-1.25264 q 0,-0.10473 -0.046853,-0.17639 -0.046853,-0.073 -0.1570962,-0.10473 -0.034451,-0.01 -0.078548,-0.0138 -0.042719,-0.004 -0.1129991,-0.004 H 6.6047593 v 0.60082 h 0.2315103 q 0.093707,0 0.1612303,-0.0221 0.068902,-0.0234 0.1143771,-0.0634 0.045475,-0.0413 0.066146,-0.0965 0.022049,-0.0551 0.022049,-0.11989 z"
         id="path838" />
      <path
         d="m 8.9901416,115.12815 q 0,0.0262 -0.00276,0.0455 -0.00276,0.0193 -0.00965,0.0317 -0.00551,0.011 -0.015158,0.0165 -0.00827,0.006 -0.019293,0.006 H 8.4416828 v 1.54616 q 0,0.011 -0.00551,0.0193 -0.00551,0.008 -0.019293,0.0138 -0.01378,0.004 -0.037207,0.007 -0.022049,0.004 -0.056499,0.004 -0.033073,0 -0.0565,-0.004 -0.023427,-0.003 -0.037207,-0.007 -0.01378,-0.006 -0.019293,-0.0138 -0.00551,-0.008 -0.00551,-0.0193 v -1.54616 H 7.7030549 q -0.011024,0 -0.020671,-0.006 -0.00827,-0.006 -0.01378,-0.0165 -0.00551,-0.0124 -0.00965,-0.0317 -0.00276,-0.0193 -0.00276,-0.0455 0,-0.0262 0.00276,-0.0455 0.00413,-0.0207 0.00965,-0.0331 0.00551,-0.0124 0.01378,-0.0179 0.00965,-0.006 0.020671,-0.006 h 1.2402334 q 0.011024,0 0.019293,0.006 0.00965,0.006 0.015158,0.0179 0.00689,0.0124 0.00965,0.0331 0.00276,0.0193 0.00276,0.0455 z"
         id="path840" />
    </g>
  </g>
</svg>
