<?xml version="1.0" encoding="UTF-8" standalone="no"?>
<!-- Created with Inkscape (http://www.inkscape.org/) -->

<svg
   width="30.488001mm"
   height="128.50433mm"
   viewBox="0 0 30.488001 128.50433"
   version="1.1"
   id="svg5"
   inkscape:version="1.1.2 (b8e25be833, 2022-02-05)"
   sodipodi:docname="Comps.svg"
   xmlns:inkscape="http://www.inkscape.org/namespaces/inkscape"
   xmlns:sodipodi="http://sodipodi.sourceforge.net/DTD/sodipodi-0.dtd"
   xmlns="http://www.w3.org/2000/svg"
   xmlns:svg="http://www.w3.org/2000/svg">
  <sodipodi:namedview
     id="namedview7"
     pagecolor="#ffffff"
     bordercolor="#666666"
     borderopacity="1.0"
     inkscape:pageshadow="2"
     inkscape:pageopacity="0.0"
     inkscape:pagecheckerboard="0"
     inkscape:document-units="mm"
     showgrid="false"
     height="128.5mm"
     inkscape:zoom="2.3822364"
     inkscape:cx="-122.36401"
     inkscape:cy="163.50183"
     inkscape:window-width="3840"
     inkscape:window-height="2054"
     inkscape:window-x="-11"
     inkscape:window-y="-11"
     inkscape:window-maximized="0"
     inkscape:current-layer="layer1" />
  <defs
     id="defs2" />
  <g
     inkscape:label="Layer 1"
     inkscape:groupmode="layer"
     id="layer1"
     transform="translate(0.00163785)">
    <path
       id="rect4302"
       style="fill:#dddddd;stroke-width:0.184932"
       d="M -0.00163785,1.6577559e-8 H 30.486363 V 128.50433 H -0.00163785 Z" />
    <path
       id="rect10313"
       style="fill:#fafafa;stroke:#fafafa;stroke-width:0.1"
       d="m 3.1204512,6 h 9.8110008 c 0.831,0 1.499999,0.6689998 1.499999,1.4999995 V 116.5 c 0,0.831 -0.668999,1.5 -1.499999,1.5 H 3.1204512 c -0.8309998,0 -1.4999996,-0.669 -1.4999996,-1.5 V 7.4999995 C 1.6204516,6.6689998 2.2894514,6 3.1204512,6 Z" />
    <path
       id="rect10313-0"
       style="fill:#bbbbbb;stroke:#bbbbbb;stroke-width:0.1"
       d="m 17.553362,6 h 9.811 c 0.831,0 1.5,0.6689998 1.5,1.4999995 V 116.5 c 0,0.831 -0.669,1.5 -1.5,1.5 h -9.811 c -0.831,0 -1.5,-0.669 -1.5,-1.5 V 7.4999995 C 16.053362,6.6689998 16.722362,6 17.553362,6 Z" />
    <path
       id="rect10313-4"
       style="fill:#fafafa;stroke-width:0.264583"
       d="m 3.1204513,136.22836 h 9.0000007 c 0.831,0 1.5,0.669 1.5,1.5 v 9.59748 c 0,0.831 -0.669,1.5 -1.5,1.5 H 3.1204513 c -0.8309998,0 -1.4999997,-0.669 -1.4999997,-1.5 v -9.59748 c 0,-0.831 0.6689999,-1.5 1.4999997,-1.5 z" />
    <g
       aria-label="COMPS"
       id="text8544-7-0-8-5"
       style="font-size:4.23333px;line-height:1.25;font-family:Calibri;-inkscape-font-specification:Calibri;text-align:center;letter-spacing:0px;text-anchor:middle;fill:#000000;stroke-width:0.264583">
      <path
         d="m 3.4714105,122.33164 q 0,0.0331 -0.00207,0.0579 -0.00207,0.0248 -0.00827,0.0434 -0.00413,0.0186 -0.012402,0.0331 -0.00827,0.0145 -0.028939,0.0351 -0.020671,0.0207 -0.086816,0.0641 -0.066146,0.0413 -0.1653645,0.0827 -0.097152,0.0393 -0.225309,0.0661 -0.1260904,0.0289 -0.2769855,0.0289 -0.260449,0 -0.4712887,-0.0868 -0.2087726,-0.0868 -0.3576006,-0.25631 -0.1467609,-0.1695 -0.2273761,-0.41755 -0.078548,-0.25011 -0.078548,-0.57464 0,-0.33279 0.084749,-0.59324 0.086816,-0.26045 0.2418455,-0.44029 0.1550292,-0.1819 0.3700029,-0.27698 0.2170409,-0.0951 0.4795569,-0.0951 0.1157551,0 0.2253091,0.0227 0.1095539,0.0207 0.2025714,0.0538 0.093017,0.0331 0.1653645,0.0765 0.072347,0.0434 0.099219,0.0723 0.028939,0.0269 0.037207,0.0413 0.00827,0.0145 0.012402,0.0351 0.0062,0.0186 0.00827,0.0455 0.00413,0.0269 0.00413,0.0641 0,0.0413 -0.00413,0.0703 -0.00413,0.0289 -0.012402,0.0496 -0.00827,0.0186 -0.020671,0.0289 -0.010335,0.008 -0.026872,0.008 -0.028939,0 -0.080615,-0.0393 -0.051676,-0.0413 -0.1343586,-0.0889 -0.080615,-0.0496 -0.1984373,-0.0889 -0.1157551,-0.0413 -0.2790525,-0.0413 -0.1777668,0 -0.3245278,0.0724 -0.1446938,0.0703 -0.2480466,0.20877 -0.1033528,0.1385 -0.1612304,0.339 -0.05581,0.19844 -0.05581,0.45475 0,0.25425 0.053743,0.45062 0.05581,0.1943 0.1570962,0.32659 0.1033528,0.13023 0.2521808,0.19844 0.148828,0.0662 0.33693,0.0662 0.1591633,0 0.2769855,-0.0393 0.1198892,-0.0393 0.2025714,-0.0868 0.084749,-0.0496 0.1384928,-0.0889 0.053743,-0.0393 0.084749,-0.0393 0.014469,0 0.024805,0.006 0.010335,0.006 0.016536,0.0248 0.0062,0.0165 0.00827,0.0475 0.00413,0.031 0.00413,0.0785 z"
         id="path893" />
      <path
         d="m 6.1461804,121.34152 q 0,0.32452 -0.076481,0.58497 -0.076481,0.26045 -0.2294432,0.44442 -0.150895,0.1819 -0.3803382,0.28112 -0.2294431,0.0971 -0.5353674,0.0971 -0.3017901,0 -0.522965,-0.0889 -0.2191079,-0.091 -0.3638018,-0.26252 -0.1426268,-0.17156 -0.2129067,-0.42581 -0.07028,-0.25425 -0.07028,-0.58498 0,-0.31626 0.076481,-0.57464 0.076481,-0.25838 0.2294432,-0.43822 0.1529621,-0.1819 0.3824053,-0.27905 0.2294432,-0.0992 0.5353674,-0.0992 0.2955889,0 0.5146968,0.0889 0.2191079,0.0889 0.3638018,0.26045 0.1467609,0.16949 0.2170408,0.42168 0.072347,0.25011 0.072347,0.57464 z m -0.3741371,0.0248 q 0,-0.22737 -0.041341,-0.42168 -0.039274,-0.19637 -0.1343586,-0.339 -0.093018,-0.14469 -0.2501137,-0.2253 -0.1570963,-0.0806 -0.3886065,-0.0806 -0.2315102,0 -0.3886064,0.0868 -0.1570962,0.0868 -0.2563149,0.23151 -0.097152,0.14469 -0.1405598,0.33899 -0.041341,0.19224 -0.041341,0.40515 0,0.23564 0.039274,0.43408 0.039274,0.19844 0.1322915,0.34313 0.093018,0.14263 0.2480467,0.22324 0.1570962,0.0786 0.3927405,0.0786 0.2335773,0 0.3927406,-0.0868 0.1591633,-0.0868 0.2563149,-0.23357 0.097152,-0.14883 0.1384927,-0.34313 0.041341,-0.19431 0.041341,-0.41135 z"
         id="path895" />
      <path
         d="m 9.6167666,122.65616 q 0,0.0165 -0.00827,0.0289 -0.00827,0.0124 -0.028939,0.0207 -0.020671,0.006 -0.053743,0.0103 -0.031006,0.006 -0.082682,0.006 -0.047542,0 -0.082682,-0.006 -0.033073,-0.004 -0.053744,-0.0103 -0.018603,-0.008 -0.026872,-0.0207 -0.00827,-0.0124 -0.00827,-0.0289 v -2.32957 h -0.00413 l -0.9529126,2.33991 q -0.0062,0.0145 -0.018604,0.0248 -0.010335,0.0103 -0.033073,0.0186 -0.020671,0.006 -0.051676,0.008 -0.028939,0.004 -0.07028,0.004 -0.043408,0 -0.074414,-0.004 -0.031006,-0.004 -0.051676,-0.0103 -0.02067,-0.008 -0.033073,-0.0186 -0.010335,-0.0103 -0.014469,-0.0227 l -0.9115715,-2.33991 h -0.00207 v 2.32957 q 0,0.0165 -0.00827,0.0289 -0.00827,0.0124 -0.028939,0.0207 -0.020671,0.006 -0.053743,0.0103 -0.033073,0.006 -0.084749,0.006 -0.049609,0 -0.082682,-0.006 -0.033073,-0.004 -0.053743,-0.0103 -0.018604,-0.008 -0.026872,-0.0207 -0.0062,-0.0124 -0.0062,-0.0289 v -2.45979 q 0,-0.0868 0.045475,-0.12403 0.045475,-0.0372 0.1012857,-0.0372 h 0.2149738 q 0.066146,0 0.1157551,0.0124 0.049609,0.0124 0.086816,0.0393 0.037207,0.0269 0.062012,0.0682 0.024805,0.0413 0.043408,0.0971 l 0.7751458,1.93683 h 0.010335 l 0.8061517,-1.93063 q 0.022738,-0.062 0.049609,-0.10542 0.026872,-0.0434 0.057878,-0.0682 0.033073,-0.0269 0.072347,-0.0372 0.039274,-0.0124 0.09095,-0.0124 h 0.225309 q 0.031006,0 0.057878,0.0103 0.028939,0.008 0.047542,0.0289 0.020671,0.0186 0.033073,0.0496 0.012402,0.0289 0.012402,0.0724 z"
         id="path897" />
      <path
         d="m 11.971142,120.81855 q 0,0.20051 -0.06615,0.36174 -0.06615,0.16123 -0.190169,0.27491 -0.121957,0.11369 -0.301791,0.1757 -0.177766,0.062 -0.425813,0.062 h -0.303857 v 0.96324 q 0,0.0165 -0.01034,0.0289 -0.0083,0.0124 -0.02894,0.0207 -0.0186,0.006 -0.05374,0.0103 -0.03307,0.006 -0.08475,0.006 -0.05168,0 -0.08682,-0.006 -0.03307,-0.004 -0.05374,-0.0103 -0.02067,-0.008 -0.02894,-0.0207 -0.0083,-0.0124 -0.0083,-0.0289 v -2.46806 q 0,-0.0827 0.04341,-0.11782 0.04341,-0.0351 0.09715,-0.0351 h 0.572574 q 0.08682,0 0.165365,0.008 0.08061,0.006 0.188102,0.031 0.109554,0.0227 0.221175,0.0889 0.113688,0.0641 0.192236,0.15916 0.07855,0.0951 0.119889,0.22117 0.04341,0.12403 0.04341,0.27492 z m -0.374137,0.0289 q 0,-0.1633 -0.06201,-0.27285 -0.05994,-0.10955 -0.150895,-0.1633 -0.08888,-0.0537 -0.186035,-0.0682 -0.09509,-0.0145 -0.186035,-0.0145 h -0.328662 v 1.0728 h 0.320393 q 0.161231,0 0.266651,-0.0413 0.107486,-0.0413 0.179833,-0.11369 0.07235,-0.0744 0.109554,-0.1757 0.03721,-0.10335 0.03721,-0.22324 z"
         id="path899" />
      <path
         d="m 13.951382,121.95957 q 0,0.1881 -0.07028,0.33486 -0.06821,0.14676 -0.192236,0.25011 -0.121957,0.10129 -0.289388,0.15297 -0.165364,0.0517 -0.357601,0.0517 -0.134358,0 -0.250113,-0.0227 -0.113688,-0.0227 -0.204639,-0.0558 -0.08888,-0.0331 -0.150895,-0.0682 -0.05995,-0.0351 -0.08475,-0.0599 -0.02274,-0.0248 -0.03514,-0.062 -0.01033,-0.0393 -0.01033,-0.10335 0,-0.0455 0.0041,-0.0744 0.0041,-0.031 0.0124,-0.0496 0.0083,-0.0186 0.02067,-0.0248 0.0124,-0.008 0.02894,-0.008 0.02894,0 0.08062,0.0351 0.05374,0.0351 0.136425,0.0765 0.08268,0.0413 0.198438,0.0785 0.117822,0.0351 0.270784,0.0351 0.115755,0 0.210839,-0.031 0.09715,-0.031 0.165365,-0.0868 0.07028,-0.0579 0.107487,-0.14056 0.03721,-0.0827 0.03721,-0.1881 0,-0.11369 -0.05168,-0.1943 -0.05168,-0.0806 -0.136425,-0.14056 -0.08475,-0.062 -0.194303,-0.11162 -0.107487,-0.0517 -0.221175,-0.10336 -0.113688,-0.0537 -0.221175,-0.11782 -0.107487,-0.0641 -0.192237,-0.15089 -0.08475,-0.0868 -0.138492,-0.20258 -0.05168,-0.11782 -0.05168,-0.28111 0,-0.16744 0.05994,-0.29766 0.06201,-0.13229 0.169499,-0.22118 0.109553,-0.0889 0.258381,-0.13435 0.150896,-0.0476 0.324528,-0.0476 0.08888,0 0.177767,0.0165 0.09095,0.0145 0.169499,0.0413 0.08061,0.0248 0.142626,0.0579 0.06201,0.031 0.08062,0.0517 0.02067,0.0186 0.02687,0.031 0.0062,0.0103 0.01034,0.0289 0.0041,0.0165 0.0062,0.0413 0.0021,0.0248 0.0021,0.0641 0,0.0372 -0.0041,0.0662 -0.0021,0.0289 -0.0083,0.0496 -0.0062,0.0186 -0.0186,0.0289 -0.01034,0.008 -0.02481,0.008 -0.02274,0 -0.07235,-0.0289 -0.04754,-0.0289 -0.117822,-0.0641 -0.07028,-0.0372 -0.167431,-0.0661 -0.09509,-0.031 -0.214974,-0.031 -0.111621,0 -0.194303,0.031 -0.08268,0.0289 -0.136426,0.0785 -0.05374,0.0496 -0.08062,0.11782 -0.02687,0.0682 -0.02687,0.14469 0,0.11162 0.05168,0.19224 0.05168,0.0806 0.136426,0.14263 0.08682,0.062 0.19637,0.11368 0.109554,0.0517 0.223242,0.10542 0.113688,0.0517 0.223242,0.11576 0.109554,0.062 0.194304,0.14883 0.08682,0.0847 0.138492,0.20257 0.05374,0.11575 0.05374,0.27492 z"
         id="path901" />
    </g>
    <g
       aria-label="2 LIFT"
       id="text8544-7-0-8-5-9"
       style="font-size:2.46944px;line-height:1.25;font-family:Calibri;-inkscape-font-specification:Calibri;text-align:center;text-anchor:middle;fill:#000000;stroke-width:0.264583">
      <path
         d="m 2.5983669,125.36831 q 0,0.0145 -0.00362,0.0277 -0.00241,0.0121 -0.00844,0.0217 -0.00482,0.008 -0.013264,0.0133 -0.00844,0.005 -0.019293,0.005 H 1.7109119 q -0.010852,0 -0.020498,-0.004 -0.00965,-0.004 -0.016881,-0.0109 -0.00723,-0.008 -0.010852,-0.0217 -0.00362,-0.0133 -0.00362,-0.0314 0,-0.0157 0.00121,-0.0277 0.00121,-0.0121 0.00482,-0.0217 0.00362,-0.01 0.00965,-0.0193 0.00603,-0.01 0.015675,-0.0205 l 0.319532,-0.33762 q 0.1193724,-0.1254 0.1893077,-0.22428 0.071141,-0.0989 0.1085203,-0.17845 0.037379,-0.0796 0.048231,-0.1447 0.012058,-0.0651 0.012058,-0.12299 0,-0.0579 -0.019292,-0.10972 -0.018087,-0.0531 -0.05426,-0.0916 -0.036173,-0.0398 -0.090434,-0.0627 -0.053054,-0.0241 -0.1229897,-0.0241 -0.075964,0 -0.1362532,0.0217 -0.060289,0.0205 -0.1061088,0.047 -0.044614,0.0253 -0.074758,0.047 -0.030145,0.0205 -0.044614,0.0205 -0.00723,0 -0.013264,-0.004 -0.00603,-0.004 -0.010852,-0.0109 -0.00362,-0.008 -0.00603,-0.0205 -0.00121,-0.0121 -0.00121,-0.0277 0,-0.0145 0.00121,-0.0241 0.00121,-0.01 0.00362,-0.0169 0.00241,-0.008 0.00603,-0.0157 0.00482,-0.007 0.018087,-0.0193 0.014469,-0.0121 0.047026,-0.0326 0.033762,-0.0205 0.084405,-0.041 0.050643,-0.0217 0.1121376,-0.0362 0.061495,-0.0157 0.1278128,-0.0157 0.1097261,0 0.1905135,0.0326 0.081993,0.0326 0.1362532,0.088 0.05426,0.0555 0.080787,0.12901 0.026527,0.0724 0.026527,0.15314 0,0.0748 -0.013264,0.14952 -0.012058,0.0736 -0.05426,0.16157 -0.040997,0.0868 -0.1205781,0.19293 -0.078376,0.1061 -0.2098059,0.24477 l -0.2845644,0.29783 H 2.553753 q 0.00965,0 0.018087,0.005 0.00844,0.004 0.014469,0.0121 0.00603,0.008 0.00844,0.0205 0.00362,0.0121 0.00362,0.0265 z"
         style="font-weight:300;-inkscape-font-specification:'Calibri Light'"
         id="path882" />
      <path
         d="m 4.3250456,125.36831 q 0,0.0169 -0.00241,0.0289 -0.00241,0.0121 -0.00723,0.0217 -0.00482,0.008 -0.012058,0.0133 -0.00723,0.004 -0.016881,0.004 H 3.6100173 q -0.021704,0 -0.044614,-0.0157 -0.02291,-0.0169 -0.02291,-0.0603 v -1.4602 q 0,-0.007 0.00362,-0.0133 0.00362,-0.006 0.012058,-0.01 0.00844,-0.004 0.02291,-0.006 0.014469,-0.002 0.034968,-0.002 0.021704,0 0.034968,0.002 0.014469,0.002 0.02291,0.006 0.00844,0.004 0.012058,0.01 0.00362,0.006 0.00362,0.0133 v 1.40233 h 0.5968617 q 0.00965,0 0.016881,0.005 0.00723,0.004 0.012058,0.0121 0.00482,0.007 0.00723,0.0205 0.00241,0.0121 0.00241,0.0289 z"
         style="font-weight:300;-inkscape-font-specification:'Calibri Light'"
         id="path884" />
      <path
         d="m 4.7241593,125.41172 q 0,0.007 -0.00362,0.0133 -0.00362,0.006 -0.012058,0.01 -0.00844,0.004 -0.02291,0.006 -0.013264,0.002 -0.034968,0.002 -0.020498,0 -0.034968,-0.002 -0.014469,-0.002 -0.02291,-0.006 -0.00844,-0.004 -0.012058,-0.01 -0.00362,-0.006 -0.00362,-0.0133 v -1.51205 q 0,-0.007 0.00362,-0.0133 0.00482,-0.006 0.013264,-0.01 0.00965,-0.004 0.02291,-0.006 0.014469,-0.002 0.033762,-0.002 0.021704,0 0.034968,0.002 0.014469,0.002 0.02291,0.006 0.00844,0.004 0.012058,0.01 0.00362,0.006 0.00362,0.0133 z"
         style="font-weight:300;-inkscape-font-specification:'Calibri Light'"
         id="path886" />
      <path
         d="m 5.9697312,123.94308 q 0,0.0157 -0.00241,0.0277 -0.00241,0.0121 -0.00844,0.0205 -0.00482,0.007 -0.012058,0.0121 -0.00723,0.004 -0.015675,0.004 H 5.3270498 v 0.59083 h 0.5727461 q 0.00844,0 0.015675,0.004 0.00723,0.002 0.012058,0.01 0.00603,0.007 0.00844,0.0193 0.00241,0.0121 0.00241,0.0302 0,0.0157 -0.00241,0.0277 -0.00241,0.0121 -0.00844,0.0205 -0.00482,0.007 -0.012058,0.0121 -0.00723,0.004 -0.015675,0.004 H 5.3270498 v 0.68729 q 0,0.007 -0.00362,0.0133 -0.00362,0.006 -0.012058,0.01 -0.00844,0.004 -0.02291,0.006 -0.013264,0.002 -0.034968,0.002 -0.020498,0 -0.034968,-0.002 -0.014469,-0.002 -0.02291,-0.006 -0.00844,-0.004 -0.012058,-0.01 -0.00362,-0.006 -0.00362,-0.0133 v -1.4602 q 0,-0.0434 0.02291,-0.0591 0.02291,-0.0169 0.044614,-0.0169 h 0.6836779 q 0.00844,0 0.015675,0.005 0.00723,0.004 0.012058,0.0121 0.00603,0.008 0.00844,0.0217 0.00241,0.0121 0.00241,0.0289 z"
         style="font-weight:300;-inkscape-font-specification:'Calibri Light'"
         id="path888" />
      <path
         d="m 7.2611232,123.94308 q 0,0.0157 -0.00241,0.0277 -0.00241,0.0121 -0.00723,0.0205 -0.00482,0.007 -0.012058,0.0121 -0.00723,0.004 -0.015675,0.004 H 6.7583124 v 1.40473 q 0,0.007 -0.00362,0.0133 -0.00362,0.006 -0.012058,0.01 -0.00844,0.004 -0.02291,0.006 -0.014469,0.002 -0.034968,0.002 -0.020498,0 -0.034968,-0.002 -0.014469,-0.002 -0.02291,-0.006 -0.00844,-0.004 -0.012058,-0.01 -0.00362,-0.006 -0.00362,-0.0133 v -1.40473 H 6.1457755 q -0.00965,0 -0.016881,-0.004 -0.00603,-0.005 -0.010852,-0.0121 -0.00482,-0.008 -0.00723,-0.0205 -0.00241,-0.0121 -0.00241,-0.0277 0,-0.0169 0.00241,-0.0289 0.00241,-0.0133 0.00723,-0.0217 0.00482,-0.008 0.010852,-0.0121 0.00723,-0.005 0.016881,-0.005 h 1.0779684 q 0.00844,0 0.015675,0.005 0.00723,0.004 0.012058,0.0121 0.00482,0.008 0.00723,0.0217 0.00241,0.0121 0.00241,0.0289 z"
         style="font-weight:300;-inkscape-font-specification:'Calibri Light'"
         id="path890" />
    </g>
    <g
       aria-label="IN"
       id="text8544-7-1"
       style="font-size:3.13629px;line-height:1.25;font-family:Calibri;-inkscape-font-specification:Calibri;text-align:center;text-anchor:middle;fill:#000000;stroke-width:0.264583">
      <path
         d="m 7.1454012,116.95099 q 0,0.0122 -0.00613,0.0214 -0.00613,0.009 -0.02144,0.0153 -0.015314,0.005 -0.041347,0.008 -0.024502,0.005 -0.062787,0.005 -0.036753,0 -0.062787,-0.005 -0.026034,-0.003 -0.041348,-0.008 -0.015314,-0.006 -0.021439,-0.0153 -0.00613,-0.009 -0.00613,-0.0214 V 115.049 q 0,-0.0123 0.00613,-0.0214 0.00766,-0.009 0.022971,-0.0138 0.016845,-0.006 0.041347,-0.009 0.026034,-0.005 0.061256,-0.005 0.038285,0 0.062787,0.005 0.026034,0.003 0.041347,0.009 0.015314,0.005 0.02144,0.0138 0.00613,0.009 0.00613,0.0214 z"
         id="path877" />
      <path
         d="m 9.1699009,116.88208 q 0,0.0306 -0.01072,0.0521 -0.00919,0.0214 -0.026034,0.0352 -0.015314,0.0138 -0.035222,0.0199 -0.019908,0.006 -0.039816,0.006 h -0.084227 q -0.039816,0 -0.070444,-0.008 -0.029096,-0.009 -0.056662,-0.0306 -0.026034,-0.023 -0.053599,-0.0613 -0.026034,-0.0383 -0.058193,-0.098 l -0.6248078,-1.1271 q -0.049005,-0.0873 -0.09954,-0.18224 -0.049005,-0.0965 -0.091883,-0.18683 h -0.00306 q 0.00306,0.11026 0.00459,0.22512 0.00153,0.11485 0.00153,0.22817 v 1.19602 q 0,0.0107 -0.00613,0.0214 -0.00613,0.009 -0.02144,0.0153 -0.013782,0.005 -0.038285,0.008 -0.022971,0.005 -0.059724,0.005 -0.036753,0 -0.061256,-0.005 -0.022971,-0.003 -0.036753,-0.008 -0.013782,-0.006 -0.019908,-0.0153 -0.00613,-0.0107 -0.00613,-0.0214 v -1.82848 q 0,-0.0613 0.033691,-0.0873 0.033691,-0.026 0.073507,-0.026 h 0.1255741 q 0.04441,0 0.073507,0.008 0.030628,0.008 0.053599,0.026 0.024502,0.0168 0.045942,0.049 0.022971,0.0306 0.049005,0.0781 l 0.480857,0.86983 q 0.04441,0.0796 0.085758,0.1562 0.041348,0.075 0.079632,0.14855 0.038285,0.0735 0.075038,0.14548 0.038285,0.0705 0.075038,0.14242 h 0.00153 q -0.00306,-0.12098 -0.00459,-0.25115 0,-0.1317 0,-0.25268 v -1.07503 q 0,-0.0107 0.00613,-0.0199 0.00613,-0.009 0.019908,-0.0153 0.015314,-0.008 0.038285,-0.0107 0.024502,-0.003 0.062787,-0.003 0.033691,0 0.058193,0.003 0.024502,0.003 0.038285,0.0107 0.013782,0.006 0.019908,0.0153 0.00613,0.009 0.00613,0.0199 z"
         id="path879" />
    </g>
    <g
       aria-label="LOGIC"
       id="text8544-7-1-4"
       style="font-size:3.07508px;line-height:1.25;font-family:Calibri;-inkscape-font-specification:Calibri;text-align:center;text-anchor:middle;fill:#000000;stroke-width:0.264583">
      <path
         d="m 18.150865,116.85886 q 0,0.03 -0.003,0.051 -0.003,0.0195 -0.01051,0.0345 -0.006,0.0135 -0.01652,0.021 -0.009,0.006 -0.02252,0.006 h -0.85886 q -0.03453,0 -0.06607,-0.0225 -0.03003,-0.024 -0.03003,-0.0826 v -1.7988 q 0,-0.012 0.006,-0.021 0.006,-0.009 0.02102,-0.0135 0.01501,-0.006 0.04054,-0.009 0.02553,-0.004 0.06156,-0.004 0.03754,0 0.06156,0.004 0.02553,0.003 0.04054,0.009 0.01502,0.005 0.02102,0.0135 0.006,0.009 0.006,0.021 v 1.68018 h 0.696697 q 0.01351,0 0.02252,0.008 0.01051,0.006 0.01652,0.0195 0.0075,0.012 0.01051,0.033 0.003,0.021 0.003,0.0511 z"
         id="path866" />
      <path
         d="m 19.996213,115.97748 q 0,0.23573 -0.05556,0.42492 -0.05556,0.18919 -0.166667,0.32283 -0.10961,0.13213 -0.276277,0.2042 Q 19.331047,117 19.108825,117 q -0.21922,0 -0.379881,-0.0646 -0.159159,-0.0661 -0.264265,-0.19069 -0.103603,-0.12463 -0.154655,-0.30931 -0.05105,-0.18469 -0.05105,-0.42493 0,-0.22973 0.05556,-0.41742 0.05556,-0.18768 0.166667,-0.31832 0.111111,-0.13213 0.277778,-0.2027 Q 18.925641,115 19.147864,115 q 0.214715,0 0.373874,0.0646 0.15916,0.0646 0.264265,0.18919 0.106607,0.12313 0.157658,0.30631 0.05255,0.18168 0.05255,0.41742 z m -0.271772,0.018 q 0,-0.16517 -0.03003,-0.30631 -0.02853,-0.14264 -0.0976,-0.24625 -0.06757,-0.1051 -0.181682,-0.16366 -0.114114,-0.0586 -0.282282,-0.0586 -0.168169,0 -0.282283,0.0631 -0.114114,0.0631 -0.186187,0.16817 -0.07057,0.10511 -0.102102,0.24625 -0.03003,0.13964 -0.03003,0.29429 0,0.17117 0.02853,0.31532 0.02853,0.14414 0.0961,0.24925 0.06757,0.1036 0.18018,0.16216 0.114115,0.0571 0.285286,0.0571 0.16967,0 0.285286,-0.0631 0.115616,-0.0631 0.186186,-0.16967 0.07057,-0.10811 0.100601,-0.24925 0.03003,-0.14115 0.03003,-0.2988 z"
         id="path868" />
      <path
         d="m 21.864084,115.29279 q 0,0.0285 -0.003,0.0511 -0.003,0.021 -0.009,0.036 -0.006,0.0135 -0.01501,0.0195 -0.009,0.006 -0.01952,0.006 -0.01802,0 -0.06006,-0.0285 -0.04204,-0.0285 -0.112612,-0.0631 -0.07057,-0.0345 -0.16967,-0.0631 -0.0976,-0.0285 -0.232733,-0.0285 -0.160661,0 -0.288289,0.0586 -0.127628,0.0586 -0.216217,0.16216 -0.08859,0.10361 -0.136637,0.24625 -0.04655,0.14264 -0.04655,0.30931 0,0.18619 0.05105,0.33033 0.05255,0.14414 0.144144,0.24324 0.09159,0.0991 0.217718,0.15015 0.127628,0.0511 0.27928,0.0511 0.09009,0 0.181682,-0.021 0.09309,-0.0225 0.172673,-0.0661 v -0.56607 H 21.15087 q -0.02553,0 -0.03904,-0.0255 -0.01201,-0.0255 -0.01201,-0.0796 0,-0.0285 0.003,-0.0481 0.003,-0.021 0.009,-0.033 0.0075,-0.0135 0.01652,-0.0195 0.009,-0.006 0.02252,-0.006 h 0.617118 q 0.01652,0 0.03303,0.006 0.01652,0.006 0.03003,0.018 0.01351,0.012 0.02102,0.033 0.0075,0.021 0.0075,0.048 v 0.74025 q 0,0.039 -0.01351,0.0676 -0.01351,0.0285 -0.05706,0.0511 -0.04354,0.021 -0.112613,0.0465 -0.06907,0.0255 -0.142643,0.0435 -0.07357,0.018 -0.148648,0.027 -0.07508,0.009 -0.148649,0.009 -0.225226,0 -0.402403,-0.0691 -0.177178,-0.0706 -0.300301,-0.1997 -0.121622,-0.12913 -0.186187,-0.30931 -0.06456,-0.18018 -0.06456,-0.4024 0,-0.23123 0.06907,-0.41892 0.07057,-0.18769 0.196697,-0.31982 0.127628,-0.13213 0.304805,-0.20421 0.178679,-0.0736 0.394896,-0.0736 0.111111,0 0.208709,0.0195 0.0976,0.0195 0.172673,0.0466 0.07658,0.0255 0.127627,0.057 0.05255,0.03 0.07207,0.0496 0.01952,0.0195 0.02703,0.0451 0.0075,0.0255 0.0075,0.0736 z"
         id="path870" />
      <path
         d="m 22.602824,116.93243 q 0,0.012 -0.006,0.021 -0.006,0.009 -0.02102,0.015 -0.01502,0.005 -0.04054,0.008 -0.02403,0.004 -0.06156,0.004 -0.03604,0 -0.06156,-0.004 -0.02553,-0.003 -0.04054,-0.008 -0.01502,-0.006 -0.02102,-0.015 -0.006,-0.009 -0.006,-0.021 v -1.86486 q 0,-0.012 0.006,-0.021 0.0075,-0.009 0.02252,-0.0135 0.01652,-0.006 0.04054,-0.009 0.02553,-0.004 0.06006,-0.004 0.03754,0 0.06156,0.004 0.02552,0.003 0.04054,0.009 0.01501,0.005 0.02102,0.0135 0.006,0.009 0.006,0.021 z"
         id="path872" />
      <path
         d="m 24.416641,116.6967 q 0,0.024 -0.0015,0.042 -0.0015,0.018 -0.006,0.0315 -0.003,0.0135 -0.009,0.024 -0.006,0.0105 -0.02102,0.0255 -0.01502,0.015 -0.06306,0.0465 -0.04805,0.03 -0.12012,0.0601 -0.07057,0.0285 -0.163664,0.0481 -0.09159,0.021 -0.201202,0.021 -0.189189,0 -0.342343,-0.0631 -0.151651,-0.0631 -0.25976,-0.18618 -0.106606,-0.12313 -0.165165,-0.30331 -0.05706,-0.18168 -0.05706,-0.41741 0,-0.24175 0.06156,-0.43094 0.06306,-0.18918 0.175676,-0.31982 0.112613,-0.13213 0.26877,-0.2012 0.157657,-0.0691 0.348348,-0.0691 0.08408,0 0.163664,0.0165 0.07958,0.015 0.147148,0.039 0.06757,0.024 0.12012,0.0556 0.05255,0.0315 0.07207,0.0526 0.02102,0.0195 0.02703,0.03 0.006,0.0105 0.009,0.0255 0.0045,0.0135 0.006,0.033 0.003,0.0195 0.003,0.0465 0,0.03 -0.003,0.0511 -0.003,0.021 -0.009,0.036 -0.006,0.0135 -0.01501,0.021 -0.0075,0.006 -0.01952,0.006 -0.02102,0 -0.05856,-0.0285 -0.03754,-0.03 -0.0976,-0.0646 -0.05856,-0.036 -0.144144,-0.0646 -0.08408,-0.03 -0.202703,-0.03 -0.129129,0 -0.235736,0.0525 -0.105105,0.0511 -0.180181,0.15165 -0.07508,0.1006 -0.117117,0.24625 -0.04054,0.14414 -0.04054,0.33033 0,0.18469 0.03904,0.32733 0.04054,0.14114 0.114114,0.23724 0.07508,0.0946 0.183183,0.14414 0.108109,0.048 0.244745,0.048 0.115616,0 0.201202,-0.0285 0.08709,-0.0285 0.147147,-0.0631 0.06156,-0.036 0.100601,-0.0646 0.03904,-0.0285 0.06156,-0.0285 0.01051,0 0.01802,0.005 0.0075,0.004 0.01201,0.018 0.0045,0.012 0.006,0.0345 0.003,0.0225 0.003,0.0571 z"
         id="path874" />
    </g>
    <path
       d="m 5.5591784,14.149711 a 3.4891158,3.5941528 0 1 1 4.9343556,0"
       fill="none"
       stroke="#1f1f1f"
       stroke-linecap="round"
       stroke-linejoin="round"
       id="path66-2-1"
       style="display:inline;stroke:#000000;stroke-width:0.264583;stroke-opacity:1" />
    <path
       d="m 5.5591784,28.149711 a 3.4891158,3.5941528 0 1 1 4.9343556,0"
       fill="none"
       stroke="#1f1f1f"
       stroke-linecap="round"
       stroke-linejoin="round"
       id="path66-2-1-6"
       style="display:inline;stroke:#000000;stroke-width:0.264583;stroke-opacity:1" />
    <path
       d="m 5.5591784,42.149711 a 3.4891158,3.5941528 0 1 1 4.9343556,0"
       fill="none"
       stroke="#1f1f1f"
       stroke-linecap="round"
       stroke-linejoin="round"
       id="path66-2-1-3"
       style="display:inline;stroke:#000000;stroke-width:0.264583;stroke-opacity:1" />
    <path
       d="m 5.5591784,56.149711 a 3.4891158,3.5941528 0 1 1 4.9343556,0"
       fill="none"
       stroke="#1f1f1f"
       stroke-linecap="round"
       stroke-linejoin="round"
       id="path66-2-1-38"
       style="display:inline;stroke:#000000;stroke-width:0.264583;stroke-opacity:1" />
    <path
       d="m 5.5591784,70.149711 a 3.4891158,3.5941528 0 1 1 4.9343556,0"
       fill="none"
       stroke="#1f1f1f"
       stroke-linecap="round"
       stroke-linejoin="round"
       id="path66-2-1-35"
       style="display:inline;stroke:#000000;stroke-width:0.264583;stroke-opacity:1" />
    <path
       d="m 5.5591784,84.149711 a 3.4891158,3.5941528 0 1 1 4.9343556,0"
       fill="none"
       stroke="#1f1f1f"
       stroke-linecap="round"
       stroke-linejoin="round"
       id="path66-2-1-61"
       style="display:inline;stroke:#000000;stroke-width:0.264583;stroke-opacity:1" />
    <path
       d="m 5.5591784,98.149711 a 3.4891158,3.5941528 0 1 1 4.9343556,0"
       fill="none"
       stroke="#1f1f1f"
       stroke-linecap="round"
       stroke-linejoin="round"
       id="path66-2-1-63"
       style="display:inline;stroke:#000000;stroke-width:0.264583;stroke-opacity:1" />
    <g
       aria-label="GATE"
       id="text8544-7-1-9-0"
       style="font-size:3.0797px;line-height:1.25;font-family:Calibri;-inkscape-font-specification:Calibri;text-align:center;text-anchor:middle;fill:#000000;stroke-width:0.264582">
      <path
         d="m 20.947583,101.29173 q 0,0.0286 -0.003,0.0511 -0.003,0.0211 -0.009,0.0361 -0.006,0.0135 -0.01504,0.0195 -0.009,0.006 -0.01955,0.006 -0.01805,0 -0.06015,-0.0286 -0.0421,-0.0286 -0.112782,-0.0632 -0.07068,-0.0346 -0.169925,-0.0632 -0.09774,-0.0286 -0.233083,-0.0286 -0.160902,0 -0.288721,0.0587 -0.12782,0.0586 -0.216542,0.1624 -0.08872,0.10376 -0.136842,0.24662 -0.04662,0.14286 -0.04662,0.30977 0,0.18647 0.05113,0.33083 0.05263,0.14436 0.144361,0.24361 0.09173,0.0992 0.218045,0.15038 0.12782,0.0511 0.2797,0.0511 0.09023,0 0.181955,-0.021 0.09323,-0.0226 0.172932,-0.0662 v -0.56692 h -0.451128 q -0.02556,0 -0.0391,-0.0256 -0.01203,-0.0256 -0.01203,-0.0797 0,-0.0286 0.003,-0.0481 0.003,-0.0211 0.009,-0.0331 0.0075,-0.0135 0.01654,-0.0195 0.009,-0.006 0.02256,-0.006 h 0.618045 q 0.01654,0 0.03308,0.006 0.01654,0.006 0.03008,0.018 0.01353,0.012 0.02105,0.0331 0.0075,0.021 0.0075,0.0481 v 0.74136 q 0,0.0391 -0.01353,0.0677 -0.01353,0.0286 -0.05714,0.0511 -0.04361,0.0211 -0.112782,0.0466 -0.06917,0.0256 -0.142857,0.0436 -0.07368,0.018 -0.148872,0.0271 -0.07519,0.009 -0.148873,0.009 -0.225564,0 -0.403007,-0.0692 -0.177444,-0.0707 -0.300752,-0.2 -0.121805,-0.12933 -0.186466,-0.30978 -0.06466,-0.18045 -0.06466,-0.40301 0,-0.23158 0.06917,-0.41955 0.07068,-0.18797 0.196992,-0.3203 0.12782,-0.13233 0.305264,-0.20451 Q 20.1145,101 20.331041,101 q 0.111279,0 0.209023,0.0195 0.09774,0.0196 0.172932,0.0466 0.07669,0.0256 0.12782,0.0572 0.05263,0.0301 0.07218,0.0496 0.01955,0.0196 0.02707,0.0451 0.0075,0.0256 0.0075,0.0737 z"
         id="path857" />
      <path
         d="m 22.885929,102.8812 q 0.01203,0.0331 0.01203,0.0541 0.0015,0.0196 -0.01053,0.0301 -0.01203,0.0105 -0.0406,0.0135 -0.02707,0.003 -0.07368,0.003 -0.04662,0 -0.07519,-0.003 -0.02707,-0.002 -0.0421,-0.006 -0.01353,-0.006 -0.02105,-0.015 -0.006,-0.009 -0.01203,-0.0226 l -0.166917,-0.47369 h -0.809023 l -0.159398,0.46767 q -0.0045,0.0135 -0.01203,0.0241 -0.0075,0.009 -0.02256,0.0165 -0.01353,0.006 -0.0406,0.009 -0.02556,0.003 -0.06767,0.003 -0.04361,0 -0.07218,-0.005 -0.02707,-0.003 -0.0391,-0.0135 -0.01053,-0.0105 -0.01053,-0.0301 0.0015,-0.0211 0.01353,-0.0541 l 0.652632,-1.80752 q 0.006,-0.0165 0.01504,-0.0271 0.01053,-0.0105 0.02857,-0.0165 0.01955,-0.006 0.04812,-0.008 0.03008,-0.003 0.07519,-0.003 0.04812,0 0.0797,0.003 0.03158,0.001 0.05113,0.008 0.01955,0.006 0.03008,0.018 0.01053,0.0105 0.01654,0.0271 z m -0.837594,-1.59549 h -0.0015 l -0.335338,0.96993 h 0.676692 z"
         id="path859" />
      <path
         d="m 24.189689,101.13834 q 0,0.0286 -0.003,0.0496 -0.003,0.021 -0.01053,0.0346 -0.006,0.012 -0.01654,0.0181 -0.009,0.006 -0.02105,0.006 h -0.547368 v 1.68722 q 0,0.012 -0.006,0.0211 -0.006,0.009 -0.02105,0.015 -0.01504,0.005 -0.0406,0.008 -0.02406,0.005 -0.06165,0.005 -0.03609,0 -0.06165,-0.005 -0.02556,-0.003 -0.0406,-0.008 -0.01504,-0.006 -0.02105,-0.015 -0.006,-0.009 -0.006,-0.0211 v -1.68722 h -0.547369 q -0.01203,0 -0.02256,-0.006 -0.009,-0.006 -0.01504,-0.0181 -0.006,-0.0135 -0.01053,-0.0346 -0.003,-0.0211 -0.003,-0.0496 0,-0.0286 0.003,-0.0496 0.0045,-0.0226 0.01053,-0.0361 0.006,-0.0135 0.01504,-0.0195 0.01053,-0.006 0.02256,-0.006 h 1.353384 q 0.01203,0 0.02105,0.006 0.01053,0.006 0.01654,0.0195 0.0075,0.0135 0.01053,0.0361 0.003,0.0211 0.003,0.0496 z"
         id="path861" />
      <path
         d="m 25.553599,102.86616 q 0,0.0271 -0.003,0.0481 -0.003,0.0195 -0.01053,0.0331 -0.0075,0.0135 -0.01804,0.0195 -0.009,0.006 -0.02105,0.006 h -0.933835 q -0.03459,0 -0.06617,-0.0226 -0.03008,-0.0241 -0.03008,-0.0827 v -1.73534 q 0,-0.0587 0.03008,-0.0812 0.03158,-0.0241 0.06617,-0.0241 h 0.923309 q 0.01203,0 0.02105,0.006 0.01053,0.006 0.01654,0.0195 0.006,0.0135 0.009,0.0346 0.0045,0.0195 0.0045,0.0496 0,0.0271 -0.0045,0.0481 -0.003,0.0195 -0.009,0.0331 -0.006,0.012 -0.01654,0.0181 -0.009,0.006 -0.02105,0.006 h -0.760902 v 0.61053 h 0.652631 q 0.01203,0 0.02105,0.008 0.01053,0.006 0.01654,0.018 0.0075,0.012 0.01053,0.0331 0.003,0.021 0.003,0.0496 0,0.0271 -0.003,0.0466 -0.003,0.0195 -0.01053,0.0316 -0.006,0.012 -0.01654,0.018 -0.009,0.005 -0.02105,0.005 h -0.652631 v 0.69624 h 0.771428 q 0.01203,0 0.02105,0.006 0.01053,0.006 0.01804,0.0196 0.0075,0.012 0.01053,0.0331 0.003,0.0195 0.003,0.0496 z"
         id="path863" />
    </g>
    <g
       aria-label="THRESH"
       id="text8544-7-1-9-0-7"
       style="font-size:3.07508px;line-height:1.25;font-family:Calibri;-inkscape-font-specification:Calibri;text-align:center;text-anchor:middle;fill:#000000;stroke-width:0.264583">
      <path
         d="m 4.6775981,101.13964 q 0,0.0285 -0.003,0.0495 -0.003,0.021 -0.010511,0.0345 -0.00601,0.012 -0.016516,0.018 -0.00901,0.006 -0.021021,0.006 H 4.0799996 v 1.68468 q 0,0.012 -0.00601,0.021 -0.00601,0.009 -0.021021,0.015 -0.015015,0.005 -0.040541,0.008 -0.024024,0.004 -0.061562,0.004 -0.036036,0 -0.061562,-0.004 -0.025526,-0.003 -0.040541,-0.008 -0.015015,-0.006 -0.021021,-0.015 -0.00601,-0.009 -0.00601,-0.021 v -1.68468 H 3.2751935 q -0.012012,0 -0.022522,-0.006 -0.00901,-0.006 -0.015015,-0.018 -0.00601,-0.0135 -0.010511,-0.0345 -0.003,-0.021 -0.003,-0.0495 0,-0.0285 0.003,-0.0495 0.0045,-0.0225 0.010511,-0.036 0.00601,-0.0135 0.015015,-0.0195 0.010511,-0.006 0.022522,-0.006 H 4.626547 q 0.012012,0 0.021021,0.006 0.01051,0.006 0.016516,0.0195 0.00751,0.0135 0.010511,0.036 0.003,0.021 0.003,0.0495 z"
         id="path844" />
      <path
         d="m 6.3577809,102.93243 q 0,0.012 -0.00601,0.021 -0.00601,0.009 -0.021021,0.015 -0.015015,0.005 -0.040541,0.008 -0.024024,0.004 -0.06006,0.004 -0.039039,0 -0.063063,-0.004 -0.024024,-0.003 -0.039039,-0.008 -0.015015,-0.006 -0.021021,-0.015 -0.00601,-0.009 -0.00601,-0.021 v -0.86186 H 5.216638 v 0.86186 q 0,0.012 -0.00601,0.021 -0.00601,0.009 -0.021021,0.015 -0.015015,0.005 -0.040541,0.008 -0.024024,0.004 -0.061562,0.004 -0.036036,0 -0.061562,-0.004 -0.025526,-0.003 -0.040541,-0.008 -0.015015,-0.006 -0.021021,-0.015 -0.00601,-0.009 -0.00601,-0.021 v -1.86486 q 0,-0.012 0.00601,-0.021 0.00601,-0.009 0.021021,-0.0135 0.015015,-0.006 0.040541,-0.009 0.025526,-0.004 0.061562,-0.004 0.037538,0 0.061562,0.004 0.025526,0.003 0.040541,0.009 0.015015,0.005 0.021021,0.0135 0.00601,0.009 0.00601,0.021 v 0.77778 h 0.8843858 v -0.77778 q 0,-0.012 0.00601,-0.021 0.00601,-0.009 0.021021,-0.0135 0.015015,-0.006 0.039039,-0.009 0.024024,-0.004 0.063063,-0.004 0.036036,0 0.06006,0.004 0.025526,0.003 0.040541,0.009 0.015015,0.005 0.021021,0.0135 0.00601,0.009 0.00601,0.021 z"
         id="path846" />
      <path
         d="m 8.170096,102.93243 q 0,0.012 -0.0045,0.021 -0.0045,0.009 -0.01952,0.015 -0.015015,0.006 -0.042042,0.009 -0.027027,0.003 -0.072072,0.003 -0.039039,0 -0.064565,-0.003 -0.024024,-0.003 -0.039039,-0.009 -0.015015,-0.008 -0.024024,-0.0195 -0.00751,-0.012 -0.013514,-0.03 l -0.178679,-0.45796 q -0.031532,-0.0781 -0.066066,-0.14264 -0.033033,-0.0661 -0.07958,-0.11261 -0.046547,-0.048 -0.1096098,-0.0736 -0.063063,-0.027 -0.1516518,-0.027 h -0.172673 v 0.82732 q 0,0.012 -0.00751,0.021 -0.00601,0.009 -0.021021,0.015 -0.013514,0.005 -0.039039,0.008 -0.024024,0.004 -0.061562,0.004 -0.037538,0 -0.063063,-0.004 -0.024024,-0.003 -0.039039,-0.008 -0.015015,-0.006 -0.021021,-0.015 -0.00601,-0.009 -0.00601,-0.021 v -1.7988 q 0,-0.0586 0.03003,-0.0811 0.031532,-0.024 0.066066,-0.024 H 7.383308 q 0.073574,0 0.1216218,0.004 0.04955,0.003 0.088589,0.008 0.1126128,0.0195 0.1981985,0.0616 0.087087,0.042 0.1456459,0.10661 0.058559,0.0646 0.087087,0.14865 0.03003,0.0826 0.03003,0.18318 0,0.0976 -0.027027,0.17568 -0.025526,0.0766 -0.075075,0.13663 -0.04955,0.0586 -0.1186188,0.10211 -0.069069,0.0435 -0.1546549,0.0736 0.048048,0.021 0.087087,0.054 0.039039,0.0315 0.072072,0.0766 0.034535,0.0451 0.064565,0.1036 0.03003,0.0586 0.06006,0.13214 l 0.1741744,0.42792 q 0.021021,0.0541 0.027027,0.0766 0.00601,0.021 0.00601,0.033 z m -0.3888895,-1.36486 q 0,-0.11412 -0.051051,-0.19219 -0.051051,-0.0796 -0.1711715,-0.11412 -0.037538,-0.0105 -0.085586,-0.015 -0.046547,-0.005 -0.1231233,-0.005 H 7.1325568 v 0.65466 h 0.2522527 q 0.1021022,0 0.1756759,-0.024 0.075075,-0.0255 0.1246248,-0.0691 0.04955,-0.045 0.072072,-0.1051 0.024024,-0.0601 0.024024,-0.13063 z"
         id="path848" />
      <path
         d="m 9.6250534,102.86487 q 0,0.027 -0.003,0.0481 -0.003,0.0195 -0.01051,0.033 -0.00751,0.0135 -0.018018,0.0195 -0.00901,0.006 -0.021021,0.006 H 8.6400669 q -0.034535,0 -0.066066,-0.0225 -0.03003,-0.024 -0.03003,-0.0826 v -1.73274 q 0,-0.0586 0.03003,-0.0811 0.031532,-0.024 0.066066,-0.024 h 0.9219234 q 0.012012,0 0.021021,0.006 0.01051,0.006 0.016517,0.0195 0.00601,0.0135 0.00901,0.0345 0.0045,0.0195 0.0045,0.0496 0,0.027 -0.0045,0.048 -0.003,0.0195 -0.00901,0.033 -0.00601,0.012 -0.016517,0.018 -0.00901,0.006 -0.021021,0.006 h -0.759761 v 0.60961 H 9.453882 q 0.012012,0 0.021021,0.008 0.010511,0.006 0.016517,0.018 0.00751,0.012 0.01051,0.033 0.003,0.021 0.003,0.0495 0,0.027 -0.003,0.0465 -0.003,0.0195 -0.01051,0.0315 -0.00601,0.012 -0.016517,0.018 -0.00901,0.004 -0.021021,0.004 H 8.8022293 v 0.6952 h 0.7702715 q 0.012012,0 0.021021,0.006 0.010511,0.006 0.018018,0.0195 0.00751,0.012 0.01051,0.033 0.003,0.0195 0.003,0.0495 z"
         id="path850" />
      <path
         d="m 11.05899,102.42643 q 0,0.13663 -0.05105,0.24324 -0.04955,0.10661 -0.139639,0.18168 -0.08859,0.0736 -0.210211,0.11111 -0.12012,0.0375 -0.25976,0.0375 -0.0976,0 -0.181682,-0.0165 -0.08258,-0.0165 -0.148649,-0.0405 -0.06456,-0.024 -0.1096098,-0.0495 -0.043544,-0.0255 -0.061562,-0.0435 -0.016516,-0.018 -0.025526,-0.045 -0.00751,-0.0285 -0.00751,-0.0751 0,-0.033 0.003,-0.0541 0.003,-0.0225 0.00901,-0.036 0.00601,-0.0135 0.015015,-0.018 0.00901,-0.006 0.021021,-0.006 0.021021,0 0.058559,0.0255 0.039039,0.0255 0.099099,0.0556 0.06006,0.03 0.144145,0.0571 0.08559,0.0255 0.196697,0.0255 0.08408,0 0.153153,-0.0225 0.07057,-0.0225 0.120121,-0.0631 0.05105,-0.0421 0.07808,-0.10211 0.02703,-0.0601 0.02703,-0.13663 0,-0.0826 -0.03754,-0.14114 -0.03754,-0.0586 -0.0991,-0.10211 -0.06156,-0.045 -0.141141,-0.0811 -0.07808,-0.0375 -0.160661,-0.0751 -0.08258,-0.039 -0.160661,-0.0856 -0.07808,-0.0466 -0.13964,-0.10961 -0.061562,-0.0631 -0.1006008,-0.14715 -0.037538,-0.0856 -0.037538,-0.2042 0,-0.12162 0.043544,-0.21622 0.045045,-0.0961 0.1231228,-0.16066 0.07958,-0.0646 0.187688,-0.0976 Q 10.375805,101 10.501932,101 q 0.06456,0 0.129129,0.012 0.06607,0.0105 0.123123,0.03 0.05856,0.018 0.103604,0.042 0.04504,0.0225 0.05856,0.0375 0.01501,0.0135 0.01952,0.0225 0.0045,0.008 0.0075,0.021 0.003,0.012 0.0045,0.03 0.0015,0.018 0.0015,0.0465 0,0.027 -0.003,0.0481 -0.0015,0.021 -0.006,0.036 -0.0045,0.0135 -0.01351,0.021 -0.0075,0.006 -0.01802,0.006 -0.01652,0 -0.05255,-0.021 -0.03453,-0.021 -0.08559,-0.0465 -0.05105,-0.027 -0.121622,-0.048 -0.06907,-0.0225 -0.156156,-0.0225 -0.08108,0 -0.141142,0.0225 -0.06006,0.021 -0.0991,0.0571 -0.03904,0.036 -0.05856,0.0856 -0.01952,0.0495 -0.01952,0.1051 0,0.0811 0.03754,0.13964 0.03754,0.0586 0.0991,0.10361 0.06306,0.045 0.142642,0.0826 0.07958,0.0375 0.162163,0.0766 0.08258,0.0375 0.162162,0.0841 0.07958,0.0451 0.141142,0.10811 0.06306,0.0616 0.1006,0.14715 0.03904,0.0841 0.03904,0.1997 z"
         id="path852" />
      <path
         d="m 12.827761,102.93243 q 0,0.012 -0.006,0.021 -0.006,0.009 -0.02102,0.015 -0.01501,0.005 -0.04054,0.008 -0.02402,0.004 -0.06006,0.004 -0.03904,0 -0.06306,-0.004 -0.02402,-0.003 -0.03904,-0.008 -0.01501,-0.006 -0.02102,-0.015 -0.006,-0.009 -0.006,-0.021 v -0.86186 h -0.884386 v 0.86186 q 0,0.012 -0.006,0.021 -0.006,0.009 -0.02102,0.015 -0.01501,0.005 -0.04054,0.008 -0.02402,0.004 -0.06156,0.004 -0.03604,0 -0.06156,-0.004 -0.02553,-0.003 -0.04054,-0.008 -0.01501,-0.006 -0.02102,-0.015 -0.006,-0.009 -0.006,-0.021 v -1.86486 q 0,-0.012 0.006,-0.021 0.006,-0.009 0.02102,-0.0135 0.01501,-0.006 0.04054,-0.009 0.02553,-0.004 0.06156,-0.004 0.03754,0 0.06156,0.004 0.02553,0.003 0.04054,0.009 0.01501,0.005 0.02102,0.0135 0.006,0.009 0.006,0.021 v 0.77778 h 0.884386 v -0.77778 q 0,-0.012 0.006,-0.021 0.006,-0.009 0.02102,-0.0135 0.01501,-0.006 0.03904,-0.009 0.02402,-0.004 0.06306,-0.004 0.03604,0 0.06006,0.004 0.02553,0.003 0.04054,0.009 0.01501,0.005 0.02102,0.0135 0.006,0.009 0.006,0.021 z"
         id="path854" />
    </g>
  </g>
</svg>
