<?xml version="1.0" encoding="UTF-8" standalone="no"?>
<!-- Created with Inkscape (http://www.inkscape.org/) -->

<svg
   width="15.24mm"
   height="128.5mm"
   viewBox="0 0 15.24 128.5"
   version="1.1"
   id="svg5"
   inkscape:version="1.1.2 (b8e25be833, 2022-02-05)"
   sodipodi:docname="PolyQ.svg"
   xmlns:inkscape="http://www.inkscape.org/namespaces/inkscape"
   xmlns:sodipodi="http://sodipodi.sourceforge.net/DTD/sodipodi-0.dtd"
   xmlns="http://www.w3.org/2000/svg"
   xmlns:svg="http://www.w3.org/2000/svg">
  <sodipodi:namedview
     id="namedview7"
     pagecolor="#ffffff"
     bordercolor="#666666"
     borderopacity="1.0"
     inkscape:pageshadow="2"
     inkscape:pageopacity="0.0"
     inkscape:pagecheckerboard="0"
     inkscape:document-units="mm"
     showgrid="false"
     height="128.5mm"
     inkscape:zoom="3.48"
     inkscape:cx="8.3333333"
     inkscape:cy="247.41379"
     inkscape:window-width="3840"
     inkscape:window-height="2054"
     inkscape:window-x="-11"
     inkscape:window-y="-11"
     inkscape:window-maximized="1"
     inkscape:current-layer="layer1"
     inkscape:showpageshadow="2"
     inkscape:deskcolor="#d1d1d1" />
  <defs
     id="defs2" />
  <g
     inkscape:label="Layer 1"
     inkscape:groupmode="layer"
     id="layer1">
    <path
       id="rect4302"
       style="fill:#dddddd;stroke-width:0.184931"
       d="M 0.1422134,1.6577559e-8 H 15.386214 V 128.50433 H 0.1422134 Z" />
    <path
       style="font-weight:300;font-size:2.46944px;line-height:1.25;font-family:Calibri;-inkscape-font-specification:'Calibri Light';text-align:center;text-anchor:middle;fill:#000000;stroke-width:0.264583"
       d="m 2.7471949,125.36831 q 0,0.0145 -0.00362,0.0277 -0.00241,0.0121 -0.00844,0.0217 -0.00482,0.008 -0.013264,0.0133 -0.00844,0.005 -0.019293,0.005 H 1.8597399 q -0.010852,0 -0.020498,-0.004 -0.00965,-0.004 -0.016881,-0.0109 -0.00723,-0.008 -0.010852,-0.0217 -0.00362,-0.0133 -0.00362,-0.0314 0,-0.0157 0.00121,-0.0277 0.00121,-0.0121 0.00482,-0.0217 0.00362,-0.01 0.00965,-0.0193 0.00603,-0.01 0.015675,-0.0205 l 0.3195321,-0.33762 q 0.1193723,-0.1254 0.1893076,-0.22428 0.071141,-0.0989 0.1085203,-0.17845 0.037379,-0.0796 0.048231,-0.1447 0.012058,-0.0651 0.012058,-0.12299 0,-0.0579 -0.019292,-0.10972 -0.018087,-0.0531 -0.05426,-0.0916 -0.036173,-0.0398 -0.090434,-0.0627 -0.053054,-0.0241 -0.1229896,-0.0241 -0.075964,0 -0.1362533,0.0217 -0.060289,0.0205 -0.1061088,0.047 -0.044614,0.0253 -0.074758,0.047 -0.030145,0.0205 -0.044614,0.0205 -0.00723,0 -0.013264,-0.004 -0.00603,-0.004 -0.010852,-0.0109 -0.00362,-0.008 -0.00603,-0.0205 -0.00121,-0.0121 -0.00121,-0.0277 0,-0.0145 0.00121,-0.0241 0.00121,-0.01 0.00362,-0.0169 0.00241,-0.008 0.00603,-0.0157 0.00482,-0.007 0.018087,-0.0193 0.014469,-0.0121 0.047026,-0.0326 0.033762,-0.0205 0.084405,-0.041 0.050643,-0.0217 0.1121376,-0.0362 0.061495,-0.0157 0.1278128,-0.0157 0.1097261,0 0.1905135,0.0326 0.081993,0.0326 0.1362533,0.088 0.05426,0.0555 0.080787,0.12901 0.026527,0.0724 0.026527,0.15314 0,0.0748 -0.013264,0.14952 -0.012058,0.0736 -0.05426,0.16157 -0.040997,0.0868 -0.1205781,0.19293 -0.078376,0.1061 -0.2098059,0.24477 l -0.2845644,0.29783 H 2.702581 q 0.00965,0 0.018087,0.005 0.00844,0.004 0.014469,0.0121 0.00603,0.008 0.00844,0.0205 0.00362,0.0121 0.00362,0.0265 z m 1.7266787,0 q 0,0.0169 -0.00241,0.0289 -0.00241,0.0121 -0.00723,0.0217 -0.00482,0.008 -0.012058,0.0133 -0.00723,0.004 -0.016881,0.004 H 3.7588454 q -0.021704,0 -0.044614,-0.0157 -0.02291,-0.0169 -0.02291,-0.0603 v -1.4602 q 0,-0.007 0.00362,-0.0133 0.00362,-0.006 0.012058,-0.01 0.00844,-0.004 0.02291,-0.006 0.014469,-0.002 0.034968,-0.002 0.021704,0 0.034968,0.002 0.014469,0.002 0.02291,0.006 0.00844,0.004 0.012058,0.01 0.00362,0.006 0.00362,0.0133 v 1.40233 h 0.5968617 q 0.00965,0 0.016881,0.005 0.00723,0.004 0.012058,0.0121 0.00482,0.007 0.00723,0.0205 0.00241,0.0121 0.00241,0.0289 z m 0.3991138,0.0434 q 0,0.007 -0.00362,0.0133 -0.00362,0.006 -0.012058,0.01 -0.00844,0.004 -0.02291,0.006 -0.013264,0.002 -0.034968,0.002 -0.020498,0 -0.034968,-0.002 -0.014469,-0.002 -0.02291,-0.006 -0.00844,-0.004 -0.012058,-0.01 -0.00362,-0.006 -0.00362,-0.0133 v -1.51205 q 0,-0.007 0.00362,-0.0133 0.00482,-0.006 0.013264,-0.01 0.00965,-0.004 0.02291,-0.006 0.014469,-0.002 0.033762,-0.002 0.021704,0 0.034968,0.002 0.014469,0.002 0.02291,0.006 0.00844,0.004 0.012058,0.01 0.00362,0.006 0.00362,0.0133 z m 1.2455719,-1.46864 q 0,0.0157 -0.00241,0.0277 -0.00241,0.0121 -0.00844,0.0205 -0.00482,0.007 -0.012058,0.0121 -0.00723,0.004 -0.015675,0.004 H 5.4758779 v 0.59083 H 6.048624 q 0.00844,0 0.015675,0.004 0.00723,0.002 0.012058,0.01 0.00603,0.007 0.00844,0.0193 0.00241,0.0121 0.00241,0.0302 0,0.0157 -0.00241,0.0277 -0.00241,0.0121 -0.00844,0.0205 -0.00482,0.007 -0.012058,0.0121 -0.00723,0.004 -0.015675,0.004 H 5.4758779 v 0.68729 q 0,0.007 -0.00362,0.0133 -0.00362,0.006 -0.012058,0.01 -0.00844,0.004 -0.02291,0.006 -0.013264,0.002 -0.034968,0.002 -0.020498,0 -0.034968,-0.002 -0.014469,-0.002 -0.02291,-0.006 -0.00844,-0.004 -0.012058,-0.01 -0.00362,-0.006 -0.00362,-0.0133 v -1.4602 q 0,-0.0434 0.02291,-0.0591 0.02291,-0.0169 0.044614,-0.0169 h 0.683678 q 0.00844,0 0.015675,0.005 0.00723,0.004 0.012058,0.0121 0.00603,0.008 0.00844,0.0217 0.00241,0.0121 0.00241,0.0289 z m 1.2913919,0 q 0,0.0157 -0.00241,0.0277 -0.00241,0.0121 -0.00723,0.0205 -0.00482,0.007 -0.012058,0.0121 -0.00723,0.004 -0.015675,0.004 H 6.9071404 v 1.40473 q 0,0.007 -0.00362,0.0133 -0.00362,0.006 -0.012058,0.01 -0.00844,0.004 -0.02291,0.006 -0.014469,0.002 -0.034968,0.002 -0.020498,0 -0.034968,-0.002 -0.014469,-0.002 -0.02291,-0.006 -0.00844,-0.004 -0.012058,-0.01 -0.00362,-0.006 -0.00362,-0.0133 v -1.40473 H 6.2946035 q -0.00965,0 -0.016881,-0.004 -0.00603,-0.005 -0.010852,-0.0121 -0.00482,-0.008 -0.00723,-0.0205 -0.00241,-0.0121 -0.00241,-0.0277 0,-0.0169 0.00241,-0.0289 0.00241,-0.0133 0.00723,-0.0217 0.00482,-0.008 0.010852,-0.0121 0.00723,-0.005 0.016881,-0.005 H 7.372572 q 0.00844,0 0.015675,0.005 0.00723,0.004 0.012058,0.0121 0.00482,0.008 0.00723,0.0217 0.00241,0.0121 0.00241,0.0289 z"
       id="text8544-7-0-8-5-9"
       aria-label="2 LIFT" />
    <path
       d="m 3.2680004,120.81855 q 0,0.20051 -0.066146,0.36174 -0.066146,0.16123 -0.1901691,0.27491 -0.1219563,0.11369 -0.3017901,0.1757 -0.1777668,0.062 -0.4258135,0.062 H 1.9802247 v 0.96324 q 0,0.0165 -0.010335,0.0289 -0.00827,0.0124 -0.028939,0.0207 -0.018603,0.006 -0.053743,0.0103 -0.033073,0.006 -0.084749,0.006 -0.051676,0 -0.086816,-0.006 -0.033073,-0.004 -0.053743,-0.0103 -0.020671,-0.008 -0.028939,-0.0207 -0.00827,-0.0124 -0.00827,-0.0289 v -2.46806 q 0,-0.0827 0.043408,-0.11782 0.043408,-0.0351 0.097152,-0.0351 h 0.5725744 q 0.086816,0 0.1653644,0.008 0.080615,0.006 0.1881021,0.031 0.1095539,0.0227 0.2211749,0.0889 0.1136881,0.0641 0.1922362,0.15916 0.078548,0.0951 0.1198892,0.22117 0.043408,0.12403 0.043408,0.27492 z m -0.3741371,0.0289 q 0,-0.1633 -0.062012,-0.27285 -0.059945,-0.10955 -0.150895,-0.1633 -0.088883,-0.0537 -0.186035,-0.0682 -0.095085,-0.0145 -0.186035,-0.0145 H 1.9802247 v 1.0728 h 0.3203937 q 0.1612303,0 0.2666501,-0.0413 0.1074869,-0.0413 0.1798339,-0.11369 0.072347,-0.0744 0.1095539,-0.1757 0.037207,-0.10335 0.037207,-0.22324 z m 3.1584608,0.49403 q 0,0.32452 -0.076481,0.58497 -0.076481,0.26045 -0.2294432,0.44442 -0.150895,0.1819 -0.3803382,0.28112 -0.2294432,0.0971 -0.5353674,0.0971 -0.3017901,0 -0.5229651,-0.0889 -0.2191078,-0.091 -0.3638017,-0.26252 -0.1426269,-0.17156 -0.2129068,-0.42581 -0.07028,-0.25425 -0.07028,-0.58498 0,-0.31626 0.076481,-0.57464 0.076481,-0.25838 0.2294432,-0.43822 0.1529621,-0.1819 0.3824053,-0.27905 0.2294431,-0.0992 0.5353673,-0.0992 0.295589,0 0.5146969,0.0889 0.2191079,0.0889 0.3638018,0.26045 0.1467609,0.16949 0.2170408,0.42168 0.072347,0.25011 0.072347,0.57464 z m -0.374137,0.0248 q 0,-0.22737 -0.041341,-0.42168 -0.039274,-0.19637 -0.1343586,-0.339 -0.093017,-0.14469 -0.2501138,-0.2253 -0.1570962,-0.0806 -0.3886064,-0.0806 -0.2315102,0 -0.3886065,0.0868 -0.1570962,0.0868 -0.2563148,0.23151 -0.097152,0.14469 -0.1405598,0.33899 -0.041341,0.19224 -0.041341,0.40515 0,0.23564 0.039274,0.43408 0.039274,0.19844 0.1322916,0.34313 0.093017,0.14263 0.2480466,0.22324 0.1570963,0.0786 0.3927406,0.0786 0.2335773,0 0.3927406,-0.0868 0.1591632,-0.0868 0.2563148,-0.23357 0.097152,-0.14883 0.1384928,-0.34313 0.041341,-0.19431 0.041341,-0.41135 z m 2.3233703,1.18856 q 0,0.0413 -0.00413,0.0703 -0.00413,0.0269 -0.014469,0.0475 -0.00827,0.0186 -0.022738,0.0289 -0.012402,0.008 -0.031006,0.008 H 6.7468547 q -0.047542,0 -0.09095,-0.031 -0.041341,-0.0331 -0.041341,-0.11369 v -2.47633 q 0,-0.0165 0.00827,-0.0289 0.00827,-0.0124 0.028939,-0.0186 0.020671,-0.008 0.055811,-0.0124 0.03514,-0.006 0.084749,-0.006 0.051676,0 0.084749,0.006 0.03514,0.004 0.05581,0.0124 0.020671,0.006 0.028939,0.0186 0.00827,0.0124 0.00827,0.0289 v 2.31304 h 0.9591138 q 0.018604,0 0.031006,0.0103 0.014469,0.008 0.022738,0.0269 0.010335,0.0165 0.014469,0.0455 0.00413,0.0289 0.00413,0.0703 z m 0.9012362,-0.8847 v 0.98598 q 0,0.0165 -0.00827,0.0289 -0.00827,0.0124 -0.028939,0.0207 -0.020671,0.006 -0.05581,0.0103 -0.03514,0.006 -0.084749,0.006 -0.051676,0 -0.086816,-0.006 -0.033073,-0.004 -0.05581,-0.0103 -0.020671,-0.008 -0.028939,-0.0207 -0.00827,-0.0124 -0.00827,-0.0289 v -0.98598 l -0.7565424,-1.50895 q -0.022738,-0.0475 -0.028939,-0.0744 -0.00413,-0.0269 0.010335,-0.0413 0.016536,-0.0145 0.05581,-0.0186 0.041341,-0.004 0.109554,-0.004 0.062012,0 0.099219,0.004 0.039274,0.004 0.062012,0.0124 0.022738,0.006 0.033073,0.0207 0.012402,0.0124 0.022738,0.0331 l 0.3700029,0.76894 q 0.051676,0.10955 0.1033528,0.22944 0.051676,0.11989 0.1054199,0.24185 h 0.00413 q 0.047542,-0.11782 0.097152,-0.23358 0.051676,-0.11782 0.1033528,-0.23151 l 0.37207,-0.77308 q 0.0062,-0.0207 0.016536,-0.0351 0.012402,-0.0145 0.031006,-0.0207 0.020671,-0.008 0.05581,-0.0124 0.03514,-0.004 0.088883,-0.004 0.074414,0 0.1157551,0.006 0.043408,0.004 0.059945,0.0186 0.016537,0.0145 0.010335,0.0413 -0.00413,0.0269 -0.026872,0.0724 z m 3.6421524,1.27537 q 0,0.0475 -0.0062,0.0786 -0.0041,0.0331 -0.01447,0.0496 -0.01033,0.0186 -0.02274,0.0248 -0.0124,0.006 -0.02481,0.006 -0.04134,0 -0.134359,-0.0351 -0.09095,-0.0331 -0.210839,-0.0992 -0.11989,-0.0641 -0.256315,-0.1571 -0.136426,-0.093 -0.264583,-0.21704 -0.101286,0.062 -0.256315,0.10749 -0.155029,0.0455 -0.359668,0.0455 -0.30179,0 -0.522965,-0.0889 -0.219108,-0.0889 -0.363802,-0.26045 -0.1426266,-0.17157 -0.2129065,-0.42581 -0.07028,-0.25632 -0.07028,-0.58705 0,-0.31832 0.076481,-0.57464 0.076481,-0.25838 0.2294433,-0.43822 0.152962,-0.1819 0.382405,-0.27905 0.229443,-0.0992 0.535367,-0.0992 0.287321,0 0.504362,0.0889 0.219108,0.0889 0.365869,0.26045 0.148828,0.16949 0.223242,0.41961 0.07441,0.25011 0.07441,0.57464 0,0.16743 -0.02067,0.32039 -0.0186,0.15297 -0.06201,0.28939 -0.04134,0.13643 -0.10542,0.25218 -0.06408,0.11576 -0.150895,0.20877 0.150895,0.12403 0.264583,0.19431 0.113688,0.0682 0.188102,0.10335 0.07441,0.0351 0.115755,0.0496 0.04134,0.0165 0.06201,0.0351 0.02067,0.0207 0.02894,0.0558 0.0083,0.0372 0.0083,0.0971 z m -0.702799,-1.5813 q 0,-0.22737 -0.04134,-0.42167 -0.03927,-0.19431 -0.134359,-0.33694 -0.09302,-0.14469 -0.250114,-0.2253 -0.157096,-0.0806 -0.388606,-0.0806 -0.23151,0 -0.388607,0.0868 -0.157096,0.0847 -0.256314,0.23151 -0.09715,0.14469 -0.14056,0.33693 -0.04134,0.19223 -0.04134,0.40721 0,0.23564 0.03927,0.43408 0.03927,0.19637 0.132291,0.34106 0.09302,0.1447 0.248047,0.22531 0.157096,0.0786 0.392741,0.0786 0.233577,0 0.39274,-0.0868 0.159163,-0.0868 0.256315,-0.23357 0.09715,-0.14883 0.138493,-0.34313 0.04134,-0.19637 0.04134,-0.41342 z"
       id="text8544-7-0-8-5"
       style="font-size:4.23333px;line-height:1.25;font-family:Calibri;-inkscape-font-specification:Calibri;text-align:center;letter-spacing:0px;text-anchor:middle;fill:#000000;stroke-width:0.264583"
       aria-label="POLYQ" />
    <g
       id="g5653">
      <path
         id="rect10313-5-0"
         style="fill:#fafafa;stroke:#fafafa;stroke-width:0.1"
         d="m 3.1746907,63 h 9.0000003 c 0.831,0 1.5,0.669 1.5,1.5 v 38 c 0,0.831 -0.669,1.5 -1.5,1.5 H 3.1746907 C 2.3436909,104 1.674691,103.331 1.674691,102.5 v -38 c 0,-0.831 0.6689999,-1.5 1.4999997,-1.5 z" />
      <path
         d="m 5.2075078,71.149712 a 3.4891158,3.5941528 0 1 1 4.9343542,0"
         fill="none"
         stroke="#010101"
         stroke-linecap="round"
         stroke-linejoin="round"
         id="path66-2"
         style="display:inline;stroke:#000000;stroke-width:0.264583;stroke-opacity:1" />
      <path
         id="rect10313-6-1-7"
         style="fill:#bbbbbb;stroke:#bbbbbb;stroke-width:0.1"
         d="m 3.2273817,105 h 9.0000003 c 0.831,0 1.5,0.83625 1.5,1.875 v 9.25 c 0,1.03875 -0.669,1.875 -1.5,1.875 H 3.2273817 c -0.8309999,0 -1.4999998,-0.83625 -1.4999998,-1.875 v -9.25 c 0,-1.03875 0.6689999,-1.875 1.4999998,-1.875 z" />
      <path
         d="m 6.6910674,115.97748 q 0,0.23573 -0.055556,0.42492 -0.055556,0.18919 -0.1666669,0.32283 -0.1096098,0.13213 -0.2762767,0.2042 Q 6.0259011,117 5.8036786,117 q -0.2192196,0 -0.3798805,-0.0646 -0.1591594,-0.0661 -0.2642647,-0.19069 -0.1036037,-0.12463 -0.1546549,-0.30931 -0.051051,-0.18469 -0.051051,-0.42493 0,-0.22973 0.055556,-0.41742 0.055556,-0.18768 0.166667,-0.31832 0.1111112,-0.13213 0.2777782,-0.2027 Q 5.6204951,115 5.8427177,115 q 0.214715,0 0.3738744,0.0646 0.1591594,0.0646 0.2642647,0.18919 0.1066068,0.12313 0.1576579,0.30631 0.052553,0.18168 0.052553,0.41742 z m -0.2717722,0.018 q 0,-0.16517 -0.03003,-0.30631 -0.028529,-0.14264 -0.097598,-0.24625 -0.067568,-0.1051 -0.1816819,-0.16366 -0.1141143,-0.0586 -0.2822828,-0.0586 -0.1681684,0 -0.2822827,0.0631 -0.1141143,0.0631 -0.1861865,0.16817 -0.070571,0.10511 -0.1021022,0.24625 -0.03003,0.13964 -0.03003,0.29429 0,0.17117 0.028529,0.31532 0.028529,0.14414 0.096096,0.24925 0.067568,0.1036 0.1801805,0.16216 0.1141143,0.0571 0.2852857,0.0571 0.1696699,0 0.2852857,-0.0631 0.1156158,-0.0631 0.1861865,-0.16967 0.070571,-0.10811 0.1006008,-0.24925 0.03003,-0.14115 0.03003,-0.2988 z m 2.1411446,0.25825 q 0,0.17718 -0.052553,0.31682 -0.051051,0.13814 -0.1471473,0.23424 -0.096096,0.0961 -0.2342346,0.14564 Q 7.9883668,117 7.8126909,117 q -0.160661,0 -0.2927933,-0.0465 -0.1321323,-0.0466 -0.2267271,-0.13664 -0.094595,-0.0916 -0.1456459,-0.22823 -0.051051,-0.13664 -0.051051,-0.31532 v -1.2057 q 0,-0.012 0.00601,-0.021 0.00601,-0.009 0.021021,-0.0135 0.015015,-0.006 0.039039,-0.009 0.024024,-0.004 0.063063,-0.004 0.036036,0 0.061562,0.004 0.025526,0.003 0.039039,0.009 0.015015,0.005 0.021021,0.0135 0.00601,0.009 0.00601,0.021 v 1.17417 q 0,0.13514 0.033033,0.23574 0.033033,0.1006 0.094595,0.16817 0.063063,0.0661 0.1501504,0.1006 0.088589,0.033 0.1981985,0.033 0.1126128,0 0.1997,-0.033 0.088589,-0.033 0.1486489,-0.0991 0.061562,-0.0661 0.093093,-0.16367 0.033033,-0.0976 0.033033,-0.22822 v -1.18769 q 0,-0.012 0.00601,-0.021 0.00601,-0.009 0.021021,-0.0135 0.015015,-0.006 0.039039,-0.009 0.025526,-0.004 0.063063,-0.004 0.036036,0 0.06006,0.004 0.025526,0.003 0.039039,0.009 0.015015,0.005 0.021021,0.0135 0.00751,0.009 0.00751,0.021 z m 1.7297322,-1.11411 q 0,0.0285 -0.003,0.0495 -0.003,0.021 -0.01051,0.0345 -0.006,0.012 -0.01652,0.018 -0.009,0.006 -0.02102,0.006 H 9.6925738 v 1.68468 q 0,0.012 -0.00601,0.021 -0.00601,0.009 -0.021021,0.015 -0.015015,0.005 -0.040541,0.008 -0.024024,0.004 -0.061562,0.004 -0.036036,0 -0.061562,-0.004 -0.025526,-0.003 -0.040541,-0.008 -0.015015,-0.006 -0.021021,-0.015 -0.00601,-0.009 -0.00601,-0.021 v -1.68468 H 8.8877678 q -0.012012,0 -0.022523,-0.006 -0.00901,-0.006 -0.015015,-0.018 -0.00601,-0.0135 -0.010511,-0.0345 -0.003,-0.021 -0.003,-0.0495 0,-0.0285 0.003,-0.0495 0.0045,-0.0225 0.010511,-0.036 0.00601,-0.0135 0.015015,-0.0195 0.01051,-0.006 0.022523,-0.006 h 1.3513532 q 0.01201,0 0.02102,0.006 0.01051,0.006 0.01652,0.0195 0.0075,0.0135 0.01051,0.036 0.003,0.021 0.003,0.0495 z"
         id="text8544-7-1-9-8-3"
         style="font-size:3.07508px;line-height:1.25;font-family:Calibri;-inkscape-font-specification:Calibri;text-align:center;text-anchor:middle;fill:#000000;stroke-width:0.264583"
         aria-label="OUT" />
      <path
         d="m 4.6461187,89.197743 q 0,0.02406 -0.0015,0.0421 -0.0015,0.01805 -0.00601,0.03158 -0.00301,0.01353 -0.00902,0.02406 -0.00602,0.01053 -0.021053,0.02556 -0.015038,0.01504 -0.063158,0.04662 -0.04812,0.03008 -0.1203008,0.06015 -0.070677,0.02857 -0.1639098,0.04812 -0.091729,0.02105 -0.2015038,0.02105 -0.1894738,0 -0.3428573,-0.06316 -0.1518797,-0.06316 -0.2601504,-0.186466 -0.1067669,-0.123308 -0.1654136,-0.30376 -0.057143,-0.181954 -0.057143,-0.418045 0,-0.242105 0.061654,-0.431579 0.063158,-0.189474 0.1759399,-0.320301 0.112782,-0.13233 0.269173,-0.201503 0.1578948,-0.06917 0.3488723,-0.06917 0.084211,0 0.1639098,0.01654 0.079699,0.01504 0.1473684,0.0391 0.067669,0.02406 0.1203008,0.05564 0.052632,0.03158 0.07218,0.05263 0.021053,0.01955 0.027068,0.03008 0.00602,0.01053 0.00902,0.02556 0.00451,0.01353 0.00602,0.03308 0.00301,0.01955 0.00301,0.04662 0,0.03007 -0.00301,0.05113 -0.00301,0.02105 -0.00902,0.03609 -0.00602,0.01353 -0.015038,0.02105 -0.00752,0.006 -0.019549,0.006 -0.021053,0 -0.058647,-0.02857 -0.037594,-0.03007 -0.097744,-0.06466 -0.058647,-0.03609 -0.1443609,-0.06466 -0.084211,-0.03007 -0.2030076,-0.03007 -0.1293233,0 -0.2360903,0.05263 -0.1052632,0.05113 -0.1804512,0.15188 -0.075188,0.100752 -0.1172932,0.246617 -0.040601,0.14436 -0.040601,0.330827 0,0.184962 0.039098,0.327819 0.040602,0.141354 0.1142858,0.237594 0.075188,0.09474 0.1834587,0.144361 0.1082707,0.04812 0.2451128,0.04812 0.1157895,0 0.2015038,-0.02857 0.087218,-0.02857 0.1473685,-0.06316 0.061654,-0.03609 0.1007519,-0.06466 0.039098,-0.02857 0.061654,-0.02857 0.010526,0 0.018045,0.0045 0.00752,0.0045 0.01203,0.01805 0.00451,0.01203 0.00602,0.03459 0.00301,0.02256 0.00301,0.05714 z m 1.7443613,0.23609 q 0,0.01203 -0.00602,0.02105 -0.00601,0.009 -0.021053,0.01504 -0.015038,0.0045 -0.040602,0.0075 -0.02406,0.0045 -0.06015,0.0045 -0.039098,0 -0.063158,-0.0045 -0.02406,-0.003 -0.039098,-0.0075 -0.015038,-0.006 -0.021053,-0.01504 -0.00602,-0.009 -0.00602,-0.02105 V 88.570675 H 5.2476226 v 0.863158 q 0,0.01203 -0.00601,0.02105 -0.00602,0.009 -0.021053,0.01504 -0.015038,0.0045 -0.040602,0.0075 -0.02406,0.0045 -0.061654,0.0045 -0.03609,0 -0.061654,-0.0045 -0.025564,-0.003 -0.040602,-0.0075 -0.015038,-0.006 -0.021053,-0.01504 -0.00602,-0.009 -0.00602,-0.02105 v -1.867669 q 0,-0.01203 0.00602,-0.02105 0.00602,-0.009 0.021053,-0.01353 0.015038,-0.006 0.040602,-0.009 0.025564,-0.0045 0.061654,-0.0045 0.037594,0 0.061654,0.0045 0.025564,0.003 0.040602,0.009 0.015038,0.0045 0.021053,0.01353 0.00601,0.009 0.00601,0.02105 v 0.778947 h 0.8857145 v -0.778947 q 0,-0.01203 0.00602,-0.02105 0.00601,-0.009 0.021053,-0.01353 0.015038,-0.006 0.039098,-0.009 0.02406,-0.0045 0.063158,-0.0045 0.03609,0 0.06015,0.0045 0.025564,0.003 0.040602,0.009 0.015038,0.0045 0.021053,0.01353 0.00602,0.009 0.00602,0.02105 z m 2.1473689,-0.956391 q 0,0.23609 -0.055639,0.425564 -0.055639,0.189474 -0.1669174,0.323308 -0.1097744,0.132331 -0.2766918,0.204512 -0.1669173,0.07068 -0.3894737,0.07068 -0.219549,0 -0.3804512,-0.06466 -0.1593986,-0.06617 -0.2646618,-0.190978 -0.1037594,-0.124812 -0.1548872,-0.309774 -0.051128,-0.184963 -0.051128,-0.425564 0,-0.230076 0.055639,-0.418046 0.055639,-0.18797 0.1669173,-0.318797 0.1112782,-0.13233 0.2781955,-0.203007 0.1669174,-0.07218 0.3894738,-0.07218 0.2150377,0 0.3744362,0.06466 0.1593985,0.06466 0.2646617,0.189474 0.106767,0.123308 0.1578948,0.306767 0.052632,0.181955 0.052632,0.418045 z m -0.2721805,0.01805 q 0,-0.165414 -0.030075,-0.306767 -0.028571,-0.142857 -0.097744,-0.246617 -0.067669,-0.105263 -0.1819549,-0.163909 -0.1142858,-0.05865 -0.2827069,-0.05865 -0.1684211,0 -0.2827068,0.06316 -0.1142858,0.06316 -0.1864662,0.168421 -0.070677,0.105263 -0.1022557,0.246617 -0.030075,0.139849 -0.030075,0.294737 0,0.171428 0.028571,0.315789 0.028571,0.144361 0.096241,0.249624 0.067669,0.10376 0.1804512,0.162406 0.1142857,0.05714 0.2857143,0.05714 0.1699249,0 0.2857144,-0.06316 0.1157895,-0.06316 0.1864662,-0.169925 0.070677,-0.10827 0.1007519,-0.249624 0.030075,-0.141353 0.030075,-0.299248 z m 1.9789476,0.938346 q 0,0.01203 -0.0045,0.02105 -0.0045,0.009 -0.01955,0.01504 -0.01504,0.006 -0.0421,0.009 -0.02707,0.003 -0.07218,0.003 -0.0391,0 -0.06466,-0.003 -0.02406,-0.003 -0.0391,-0.009 -0.015038,-0.0075 -0.02406,-0.01955 -0.00752,-0.01203 -0.013534,-0.03008 L 9.7859695,88.961653 q -0.031579,-0.0782 -0.066165,-0.142858 -0.033083,-0.06616 -0.079699,-0.112782 -0.046616,-0.04812 -0.1097744,-0.07368 -0.063158,-0.02707 -0.1518798,-0.02707 H 9.2055182 v 0.828571 q 0,0.01203 -0.00752,0.02105 -0.00602,0.009 -0.021053,0.01504 -0.013534,0.0045 -0.039098,0.0075 -0.02406,0.0045 -0.061654,0.0045 -0.037594,0 -0.063158,-0.0045 -0.02406,-0.003 -0.039098,-0.0075 -0.015038,-0.006 -0.021053,-0.01504 -0.00601,-0.009 -0.00601,-0.02105 v -1.801504 q 0,-0.05865 0.030075,-0.0812 0.031579,-0.02406 0.066165,-0.02406 h 0.4135339 q 0.073684,0 0.1218046,0.0045 0.049624,0.003 0.088722,0.0075 0.112782,0.01955 0.1984963,0.06165 0.087218,0.0421 0.1458642,0.106767 0.05865,0.06466 0.08722,0.148872 0.03008,0.08271 0.03008,0.183459 0,0.09774 -0.02707,0.17594 -0.02556,0.07669 -0.07519,0.136842 -0.049624,0.05865 -0.1187969,0.102256 -0.069173,0.04361 -0.1548873,0.07368 0.04812,0.02105 0.087218,0.05414 0.039098,0.03158 0.07218,0.07669 0.034586,0.04511 0.064662,0.103759 0.030075,0.05865 0.06015,0.132331 l 0.174437,0.428572 q 0.02105,0.05413 0.02707,0.07669 0.006,0.02105 0.006,0.03308 z M 9.8551425,88.066916 q 0,-0.114286 -0.051128,-0.192482 -0.051128,-0.0797 -0.1714286,-0.114285 -0.037594,-0.01053 -0.085714,-0.01504 -0.046617,-0.0045 -0.1233083,-0.0045 H 9.2055182 v 0.655639 h 0.2526317 q 0.1022557,0 0.1759399,-0.02406 0.075188,-0.02556 0.124812,-0.06917 0.049624,-0.04511 0.07218,-0.105263 0.02406,-0.06015 0.02406,-0.130827 z m 2.2601515,0.404511 q 0,0.252632 -0.06466,0.442105 -0.06466,0.18797 -0.189474,0.312782 -0.123308,0.123309 -0.303759,0.184963 -0.180451,0.06165 -0.430076,0.06165 h -0.41203 q -0.03459,0 -0.06617,-0.02256 -0.03008,-0.02406 -0.03008,-0.08271 v -1.735339 q 0,-0.05865 0.03008,-0.0812 0.03158,-0.02406 0.06617,-0.02406 h 0.440602 q 0.252632,0 0.427068,0.06616 0.174436,0.06466 0.291729,0.18797 0.118797,0.121805 0.178948,0.296241 0.06165,0.174436 0.06165,0.393985 z m -0.272181,0.01053 q 0,-0.157895 -0.0391,-0.293233 -0.0391,-0.136842 -0.123308,-0.23609 -0.08271,-0.09925 -0.210526,-0.154887 -0.12782,-0.05564 -0.329324,-0.05564 h -0.263158 v 1.514287 h 0.266166 q 0.186466,0 0.314286,-0.04662 0.127819,-0.04662 0.213534,-0.142857 0.08571,-0.09624 0.127819,-0.240602 0.04361,-0.145864 0.04361,-0.344361 z"
         id="text8544-7-1-5-7-3-0"
         style="font-size:3.0797px;line-height:1.25;font-family:Calibri;-inkscape-font-specification:Calibri;text-align:center;text-anchor:middle;fill:#000000;stroke-width:0.264582"
         aria-label="CHORD" />
      <path
         d="m 4.5394124,75.477478 q 0,0.235736 -0.055556,0.424926 -0.055556,0.189189 -0.166667,0.322823 -0.1096097,0.132132 -0.2762767,0.204205 -0.1666669,0.07057 -0.3888895,0.07057 -0.2192195,0 -0.3798805,-0.06456 -0.1591594,-0.06607 -0.2642646,-0.190691 -0.1036038,-0.124625 -0.1546549,-0.30931 -0.051051,-0.184685 -0.051051,-0.424926 0,-0.22973 0.055556,-0.417418 0.055556,-0.187688 0.1666669,-0.318319 0.1111113,-0.132132 0.2777782,-0.202703 0.166667,-0.07207 0.3888895,-0.07207 0.2147151,0 0.3738745,0.06457 0.1591594,0.06456 0.2642647,0.189189 0.1066067,0.123124 0.1576579,0.306307 0.052553,0.181682 0.052553,0.417418 z m -0.2717722,0.01802 q 0,-0.165165 -0.03003,-0.306307 -0.028529,-0.142642 -0.097598,-0.246246 -0.067568,-0.105106 -0.181682,-0.163664 -0.1141143,-0.05856 -0.2822827,-0.05856 -0.1681684,0 -0.2822827,0.06306 -0.1141143,0.06306 -0.1861865,0.168169 -0.070571,0.105105 -0.1021023,0.246246 -0.03003,0.13964 -0.03003,0.294295 0,0.171172 0.028529,0.315316 0.028529,0.144144 0.096096,0.24925 0.067568,0.103603 0.1801804,0.162162 0.1141143,0.05706 0.2852858,0.05706 0.1696699,0 0.2852857,-0.06306 0.1156158,-0.06306 0.1861865,-0.16967 0.070571,-0.108108 0.1006007,-0.24925 0.03003,-0.141141 0.03003,-0.298799 z m 1.9774807,0.701202 q 0,0.02403 -0.0015,0.04204 -0.0015,0.01802 -0.00601,0.03153 -0.003,0.01351 -0.00901,0.02402 -0.00601,0.01051 -0.021021,0.02553 -0.015015,0.01501 -0.063063,0.04655 -0.048048,0.03003 -0.1201204,0.06006 -0.070571,0.02853 -0.1636639,0.04805 -0.091592,0.02102 -0.2012015,0.02102 -0.1891895,0 -0.3423429,-0.06306 -0.1516519,-0.06306 -0.2597601,-0.186187 -0.1066068,-0.123123 -0.1651655,-0.303304 -0.057057,-0.181682 -0.057057,-0.417418 0,-0.241742 0.061562,-0.430931 0.063063,-0.18919 0.175676,-0.319821 0.1126128,-0.132132 0.2687692,-0.201201 0.1576579,-0.06907 0.3483489,-0.06907 0.084084,0 0.1636639,0.01652 0.07958,0.01502 0.1471474,0.03904 0.067568,0.02402 0.1201203,0.05556 0.052553,0.03153 0.072072,0.05255 0.021021,0.01952 0.027027,0.03003 0.00601,0.01051 0.00901,0.02553 0.0045,0.01351 0.00601,0.03303 0.003,0.01952 0.003,0.04655 0,0.03003 -0.003,0.05105 -0.003,0.02102 -0.00901,0.03604 -0.00601,0.01351 -0.015015,0.02102 -0.00751,0.006 -0.01952,0.006 -0.021021,0 -0.058559,-0.02853 -0.037538,-0.03003 -0.097598,-0.06457 -0.058559,-0.03604 -0.1441444,-0.06457 -0.084084,-0.03003 -0.202703,-0.03003 -0.1291294,0 -0.2357361,0.05255 -0.1051053,0.05105 -0.1801805,0.151652 -0.075075,0.1006 -0.1171173,0.246246 -0.040541,0.144145 -0.040541,0.330331 0,0.184685 0.039039,0.327328 0.040541,0.141141 0.1141143,0.237238 0.075075,0.09459 0.1831835,0.144144 0.1081082,0.04805 0.2447451,0.04805 0.1156158,0 0.2012015,-0.02853 0.087087,-0.02853 0.1471474,-0.06306 0.061562,-0.03604 0.1006008,-0.06456 0.039039,-0.02853 0.061562,-0.02853 0.010511,0 0.018018,0.0045 0.00751,0.0045 0.012012,0.01802 0.0045,0.01201 0.00601,0.03453 0.003,0.02252 0.003,0.05706 z m 1.5750777,-1.557059 q 0,0.02853 -0.003,0.04955 -0.003,0.02102 -0.010511,0.03453 -0.00601,0.01201 -0.016516,0.01802 -0.00901,0.006 -0.021021,0.006 H 7.2226 v 1.684688 q 0,0.01201 -0.00601,0.02102 -0.00601,0.009 -0.021021,0.01501 -0.015015,0.0045 -0.040541,0.0075 -0.024024,0.0045 -0.061562,0.0045 -0.036036,0 -0.061562,-0.0045 -0.025525,-0.003 -0.040541,-0.0075 -0.015015,-0.006 -0.021021,-0.01501 -0.00601,-0.009 -0.00601,-0.02102 V 74.747747 H 6.417794 q -0.012012,0 -0.022523,-0.006 -0.00901,-0.006 -0.015015,-0.01802 -0.00601,-0.01351 -0.010511,-0.03453 -0.003,-0.02102 -0.003,-0.04955 0,-0.02853 0.003,-0.04955 0.0045,-0.02252 0.010511,-0.03604 0.00601,-0.01351 0.015015,-0.01952 0.01051,-0.006 0.022523,-0.006 h 1.3513534 q 0.012012,0 0.021021,0.006 0.01051,0.006 0.016516,0.01952 0.00751,0.01351 0.010511,0.03604 0.003,0.02102 0.003,0.04955 z m 1.4954978,1.740243 q 0.012012,0.03303 0.012012,0.05405 0.0015,0.01952 -0.010511,0.03003 -0.012012,0.01051 -0.040541,0.01351 -0.027027,0.003 -0.073574,0.003 -0.046547,0 -0.075075,-0.003 -0.027027,-0.0015 -0.042042,-0.006 -0.013514,-0.006 -0.021021,-0.01502 -0.00601,-0.009 -0.012012,-0.02252 L 8.8862663,75.960962 H 8.0784572 L 7.9192978,76.42793 q -0.0045,0.01351 -0.012012,0.02402 -0.00751,0.009 -0.022523,0.01652 -0.013514,0.006 -0.040541,0.009 -0.025526,0.003 -0.067568,0.003 -0.043544,0 -0.072072,-0.0045 -0.027027,-0.003 -0.039039,-0.01351 -0.01051,-0.01051 -0.01051,-0.03003 0.0015,-0.02102 0.013514,-0.05405 l 0.6516527,-1.804807 q 0.00601,-0.01652 0.015015,-0.02703 0.010511,-0.01051 0.028529,-0.01652 0.01952,-0.006 0.048048,-0.0075 0.03003,-0.003 0.075075,-0.003 0.048048,0 0.07958,0.003 0.031532,0.0015 0.051051,0.0075 0.01952,0.006 0.03003,0.01802 0.01051,0.01051 0.016517,0.02703 z M 8.4793588,74.786786 h -0.0015 l -0.3348354,0.96847 h 0.6756767 z m 1.8123152,1.639643 q -0.006,0.01652 -0.01652,0.02703 -0.01051,0.01051 -0.03003,0.01652 -0.01802,0.006 -0.04805,0.0075 -0.02853,0.003 -0.07207,0.003 -0.03303,0 -0.05856,-0.0015 -0.02402,0 -0.04204,-0.003 -0.01802,-0.003 -0.031532,-0.006 -0.012012,-0.0045 -0.021021,-0.01051 -0.00901,-0.006 -0.015015,-0.01351 -0.0045,-0.009 -0.00901,-0.02102 L 9.3126932,74.620119 q -0.012012,-0.03303 -0.013514,-0.05255 0,-0.02102 0.013514,-0.03153 0.013514,-0.01051 0.043544,-0.01351 0.03003,-0.003 0.081081,-0.003 0.042042,0 0.066066,0.003 0.025526,0.0015 0.039039,0.0075 0.013514,0.006 0.01952,0.01652 0.00751,0.009 0.013514,0.02402 l 0.5570576,1.635138 h 0.0015 l 0.542043,-1.632135 q 0.0045,-0.01652 0.01051,-0.02703 0.006,-0.01051 0.02102,-0.01652 0.01501,-0.006 0.04204,-0.0075 0.02703,-0.003 0.07207,-0.003 0.04655,0 0.07357,0.0045 0.02703,0.003 0.03604,0.01351 0.01051,0.01051 0.0075,0.03153 -0.0015,0.01952 -0.01351,0.05255 z m 2.040544,-0.06156 q 0,0.02703 -0.003,0.04805 -0.003,0.01952 -0.01051,0.03303 -0.0075,0.01351 -0.01802,0.01952 -0.009,0.006 -0.02102,0.006 h -0.932434 q -0.03453,0 -0.06607,-0.02252 -0.03003,-0.02402 -0.03003,-0.08258 v -1.732735 q 0,-0.05856 0.03003,-0.08108 0.03153,-0.02402 0.06607,-0.02402 h 0.921923 q 0.01201,0 0.02102,0.006 0.01051,0.006 0.01652,0.01952 0.006,0.01351 0.009,0.03454 0.0045,0.01952 0.0045,0.04955 0,0.02703 -0.0045,0.04805 -0.003,0.01952 -0.009,0.03303 -0.006,0.01201 -0.01652,0.01802 -0.009,0.006 -0.02102,0.006 h -0.759761 v 0.60961 h 0.651653 q 0.01201,0 0.02102,0.0075 0.01051,0.006 0.01652,0.01802 0.0075,0.01201 0.01051,0.03303 0.003,0.02102 0.003,0.04955 0,0.02703 -0.003,0.04655 -0.003,0.01952 -0.01051,0.03153 -0.006,0.01201 -0.01652,0.01802 -0.009,0.0045 -0.02102,0.0045 h -0.651653 v 0.695197 h 0.770272 q 0.01201,0 0.02102,0.006 0.01051,0.006 0.01802,0.01952 0.0075,0.01201 0.01051,0.03303 0.003,0.01952 0.003,0.04955 z"
         id="text8544-7-1-5-2-7-7-6-0"
         style="font-size:3.07508px;line-height:1.25;font-family:Calibri;-inkscape-font-specification:Calibri;text-align:center;text-anchor:middle;fill:#000000;stroke-width:0.264583"
         aria-label="OCTAVE" />
      <path
         d="m 6.7414495,102.45099 q 0,0.0122 -0.00613,0.0214 -0.00613,0.009 -0.02144,0.0153 -0.015314,0.005 -0.041348,0.008 -0.024502,0.005 -0.062787,0.005 -0.036753,0 -0.062787,-0.005 -0.026034,-0.003 -0.041348,-0.008 -0.015314,-0.006 -0.021439,-0.0153 -0.00613,-0.009 -0.00613,-0.0214 V 100.549 q 0,-0.0123 0.00613,-0.0214 0.00766,-0.009 0.022971,-0.0138 0.016845,-0.006 0.041348,-0.009 0.026034,-0.005 0.061256,-0.005 0.038285,0 0.062787,0.005 0.026034,0.003 0.041348,0.009 0.015314,0.005 0.02144,0.0138 0.00613,0.009 0.00613,0.0214 z m 2.0244998,-0.0689 q 0,0.0306 -0.01072,0.0521 -0.00919,0.0214 -0.026034,0.0352 -0.015314,0.0138 -0.035222,0.0199 -0.019908,0.006 -0.039816,0.006 h -0.084227 q -0.039816,0 -0.070444,-0.008 -0.029097,-0.009 -0.056662,-0.0306 -0.026034,-0.023 -0.053599,-0.0613 -0.026034,-0.0383 -0.058193,-0.098 l -0.6248078,-1.1271 q -0.049004,-0.0873 -0.09954,-0.18224 -0.049005,-0.0965 -0.091883,-0.18683 h -0.00306 q 0.00306,0.11026 0.00459,0.22512 0.00153,0.11485 0.00153,0.22817 v 1.19602 q 0,0.0107 -0.00613,0.0214 -0.00613,0.009 -0.021439,0.0153 -0.013783,0.005 -0.038285,0.008 -0.022971,0.005 -0.059724,0.005 -0.036753,0 -0.061256,-0.005 -0.022971,-0.003 -0.036753,-0.008 -0.013782,-0.006 -0.019908,-0.0153 -0.00613,-0.0107 -0.00613,-0.0214 v -1.82848 q 0,-0.0613 0.033691,-0.0873 0.033691,-0.026 0.073507,-0.026 h 0.1255741 q 0.04441,0 0.073507,0.008 0.030628,0.008 0.053599,0.026 0.024502,0.0168 0.045942,0.049 0.022971,0.0306 0.049004,0.0781 l 0.480857,0.86983 q 0.04441,0.0796 0.085758,0.1562 0.041348,0.075 0.079632,0.14855 0.038285,0.0735 0.075038,0.14548 0.038285,0.0705 0.075038,0.14242 h 0.00153 q -0.00306,-0.12098 -0.00459,-0.25115 0,-0.1317 0,-0.25268 v -1.07503 q 0,-0.0107 0.00613,-0.0199 0.00613,-0.009 0.019908,-0.0153 0.015314,-0.008 0.038285,-0.0107 0.024502,-0.003 0.062787,-0.003 0.033691,0 0.058193,0.003 0.024502,0.003 0.038285,0.0107 0.013783,0.006 0.019908,0.0153 0.00613,0.009 0.00613,0.0199 z"
         id="text8544-7-1-5-2-2-3-0"
         style="font-size:3.13629px;line-height:1.25;font-family:Calibri;-inkscape-font-specification:Calibri;text-align:center;text-anchor:middle;fill:#000000;stroke-width:0.264583"
         aria-label="IN" />
    </g>
    <g
       id="g5640">
      <path
         id="rect10313-5-0-2"
         style="fill:#fafafa;stroke:#fafafa;stroke-width:0.1"
         d="M 3.1219997,6 H 12.122 c 0.831,0 1.5,0.6689998 1.5,1.4999995 V 45.5 c 0,0.831 -0.669,1.5 -1.5,1.5 H 3.1219997 C 2.2909999,47 1.622,46.331 1.622,45.5 V 7.4999995 C 1.622,6.6689998 2.2909999,6 3.1219997,6 Z" />
      <path
         id="rect10313-6-1-7-4"
         style="fill:#bbbbbb;stroke:#bbbbbb;stroke-width:0.1"
         d="m 3.1746907,48 h 9.0000003 c 0.831,0 1.5,0.83625 1.5,1.875 v 9.25 c 0,1.03875 -0.669,1.875 -1.5,1.875 H 3.1746907 C 2.3436909,61 1.674691,60.16375 1.674691,59.125 v -9.25 C 1.674691,48.83625 2.3436909,48 3.1746907,48 Z" />
      <path
         d="m 5.1548168,14.149712 a 3.4891158,3.5941528 0 1 1 4.9343542,0"
         fill="none"
         stroke="#010101"
         stroke-linecap="round"
         stroke-linejoin="round"
         id="path66-2-1"
         style="display:inline;stroke:#000000;stroke-width:0.264583;stroke-opacity:1" />
      <path
         d="m 6.6910674,58.977482 q 0,0.235736 -0.055556,0.424926 -0.055556,0.189189 -0.1666669,0.322823 -0.1096098,0.132132 -0.2762767,0.204204 -0.166667,0.07057 -0.3888895,0.07057 -0.2192196,0 -0.3798805,-0.06457 -0.1591594,-0.06607 -0.2642647,-0.190691 -0.1036037,-0.124624 -0.1546549,-0.309309 -0.051051,-0.184685 -0.051051,-0.424926 0,-0.22973 0.055556,-0.417418 0.055556,-0.187688 0.166667,-0.318319 0.1111112,-0.132132 0.2777782,-0.202703 0.1666669,-0.07207 0.3888895,-0.07207 0.214715,0 0.3738744,0.06457 0.1591594,0.06456 0.2642647,0.189189 0.1066068,0.123123 0.1576579,0.306307 0.052553,0.181682 0.052553,0.417418 z M 6.4192952,58.9955 q 0,-0.165165 -0.03003,-0.306307 -0.028529,-0.142643 -0.097598,-0.246246 -0.067568,-0.105106 -0.1816819,-0.163664 -0.1141143,-0.05856 -0.2822828,-0.05856 -0.1681684,0 -0.2822827,0.06306 -0.1141143,0.06306 -0.1861865,0.168169 -0.070571,0.105105 -0.1021022,0.246246 -0.03003,0.13964 -0.03003,0.294295 0,0.171171 0.028529,0.315316 0.028529,0.144144 0.096096,0.249249 0.067568,0.103604 0.1801805,0.162163 0.1141143,0.05706 0.2852857,0.05706 0.1696699,0 0.2852857,-0.06306 0.1156158,-0.06306 0.1861865,-0.16967 0.070571,-0.108108 0.1006008,-0.24925 0.03003,-0.141141 0.03003,-0.298799 z m 2.1411446,0.258259 q 0,0.177177 -0.052553,0.316817 -0.051051,0.138138 -0.1471473,0.234235 -0.096096,0.0961 -0.2342346,0.145645 -0.1381384,0.04955 -0.3138143,0.04955 -0.160661,0 -0.2927933,-0.04655 -0.1321323,-0.04655 -0.2267271,-0.136636 -0.094595,-0.09159 -0.1456459,-0.228229 -0.051051,-0.136637 -0.051051,-0.315316 v -1.205707 q 0,-0.01201 0.00601,-0.02102 0.00601,-0.009 0.021021,-0.01351 0.015015,-0.006 0.039039,-0.009 0.024024,-0.0045 0.063063,-0.0045 0.036036,0 0.061562,0.0045 0.025526,0.003 0.039039,0.009 0.015015,0.0045 0.021021,0.01351 0.00601,0.009 0.00601,0.02102 v 1.174176 q 0,0.135135 0.033033,0.235736 0.033033,0.1006 0.094595,0.168168 0.063063,0.06607 0.1501504,0.100601 0.088589,0.03303 0.1981985,0.03303 0.1126128,0 0.1997,-0.03303 0.088589,-0.03303 0.1486489,-0.0991 0.061562,-0.06607 0.093093,-0.163664 0.033033,-0.0976 0.033033,-0.228229 v -1.187689 q 0,-0.01201 0.00601,-0.02102 0.00601,-0.009 0.021021,-0.01351 0.015015,-0.006 0.039039,-0.009 0.025526,-0.0045 0.063063,-0.0045 0.036036,0 0.06006,0.0045 0.025526,0.003 0.039039,0.009 0.015015,0.0045 0.021021,0.01351 0.00751,0.009 0.00751,0.02102 z m 1.7297322,-1.114116 q 0,0.02853 -0.003,0.04955 -0.003,0.02102 -0.01051,0.03453 -0.006,0.01201 -0.01652,0.01802 -0.009,0.006 -0.02102,0.006 H 9.6925738 v 1.684687 q 0,0.01201 -0.00601,0.02102 -0.00601,0.009 -0.021021,0.01502 -0.015015,0.0045 -0.040541,0.0075 -0.024024,0.0045 -0.061562,0.0045 -0.036036,0 -0.061562,-0.0045 -0.025526,-0.003 -0.040541,-0.0075 -0.015015,-0.006 -0.021021,-0.01502 -0.00601,-0.009 -0.00601,-0.02102 V 58.247751 H 8.8877678 q -0.012012,0 -0.022523,-0.006 -0.00901,-0.006 -0.015015,-0.01802 -0.00601,-0.01351 -0.010511,-0.03453 -0.003,-0.02102 -0.003,-0.04955 0,-0.02853 0.003,-0.04955 0.0045,-0.02252 0.010511,-0.03604 0.00601,-0.01351 0.015015,-0.01952 0.01051,-0.006 0.022523,-0.006 h 1.3513532 q 0.01201,0 0.02102,0.006 0.01051,0.006 0.01652,0.01952 0.0075,0.01351 0.01051,0.03604 0.003,0.02102 0.003,0.04955 z"
         id="text8544-7-1-9-8-3-7"
         style="font-size:3.07508px;line-height:1.25;font-family:Calibri;-inkscape-font-specification:Calibri;text-align:center;text-anchor:middle;fill:#000000;stroke-width:0.264583"
         aria-label="OUT" />
      <path
         d="m 4.5934277,32.197743 q 0,0.02406 -0.0015,0.0421 -0.0015,0.01805 -0.00602,0.03158 -0.00301,0.01353 -0.00902,0.02406 -0.00601,0.01053 -0.021053,0.02556 -0.015038,0.01504 -0.063158,0.04662 -0.04812,0.03007 -0.1203008,0.06015 -0.070677,0.02857 -0.1639098,0.04812 -0.091729,0.02105 -0.2015038,0.02105 -0.1894738,0 -0.3428572,-0.06316 -0.1518798,-0.06316 -0.2601505,-0.186466 -0.1067669,-0.123308 -0.1654136,-0.30376 -0.057143,-0.181954 -0.057143,-0.418045 0,-0.242105 0.061654,-0.431579 0.063158,-0.189474 0.1759399,-0.320301 0.112782,-0.13233 0.269173,-0.201503 0.1578948,-0.06917 0.3488723,-0.06917 0.08421,0 0.1639098,0.01654 0.079699,0.01504 0.1473684,0.0391 0.067669,0.02406 0.1203008,0.05564 0.052632,0.03158 0.07218,0.05263 0.021053,0.01955 0.027068,0.03008 0.00602,0.01053 0.00902,0.02556 0.00451,0.01353 0.00602,0.03308 0.00301,0.01955 0.00301,0.04662 0,0.03008 -0.00301,0.05113 -0.00301,0.02105 -0.00902,0.03609 -0.00602,0.01353 -0.015038,0.02105 -0.00752,0.006 -0.019549,0.006 -0.021053,0 -0.058647,-0.02857 -0.037594,-0.03008 -0.097744,-0.06466 -0.058647,-0.03609 -0.1443609,-0.06466 -0.084211,-0.03008 -0.2030076,-0.03008 -0.1293233,0 -0.2360903,0.05263 -0.1052632,0.05113 -0.1804511,0.15188 -0.075188,0.100752 -0.1172933,0.246617 -0.040602,0.14436 -0.040602,0.330827 0,0.184962 0.039098,0.327819 0.040602,0.141354 0.1142858,0.237594 0.075188,0.09474 0.1834587,0.144361 0.1082707,0.04812 0.2451128,0.04812 0.1157895,0 0.2015038,-0.02857 0.087218,-0.02857 0.1473685,-0.06316 0.061654,-0.03609 0.1007519,-0.06466 0.039098,-0.02857 0.061654,-0.02857 0.010526,0 0.018045,0.0045 0.00752,0.0045 0.01203,0.01805 0.00451,0.01203 0.00602,0.03459 0.00301,0.02256 0.00301,0.05714 z m 1.7443613,0.23609 q 0,0.01203 -0.00601,0.02105 -0.00602,0.009 -0.021053,0.01504 -0.015038,0.0045 -0.040602,0.0075 -0.02406,0.0045 -0.06015,0.0045 -0.039098,0 -0.063158,-0.0045 -0.02406,-0.003 -0.039098,-0.0075 -0.015038,-0.006 -0.021053,-0.01504 -0.00602,-0.009 -0.00602,-0.02105 V 31.570675 H 5.1949316 v 0.863158 q 0,0.01203 -0.00602,0.02105 -0.00601,0.009 -0.021053,0.01504 -0.015038,0.0045 -0.040602,0.0075 -0.02406,0.0045 -0.061654,0.0045 -0.03609,0 -0.061654,-0.0045 -0.025564,-0.003 -0.040601,-0.0075 -0.015038,-0.006 -0.021053,-0.01504 -0.00602,-0.009 -0.00602,-0.02105 v -1.867669 q 0,-0.01203 0.00602,-0.02105 0.00601,-0.009 0.021053,-0.01353 0.015038,-0.006 0.040601,-0.009 0.025564,-0.0045 0.061654,-0.0045 0.037594,0 0.061654,0.0045 0.025564,0.003 0.040602,0.009 0.015038,0.0045 0.021053,0.01353 0.00602,0.009 0.00602,0.02105 v 0.778947 h 0.8857145 v -0.778947 q 0,-0.01203 0.00602,-0.02105 0.00601,-0.009 0.021053,-0.01353 0.015038,-0.006 0.039098,-0.009 0.02406,-0.0045 0.063158,-0.0045 0.03609,0 0.06015,0.0045 0.025564,0.003 0.040602,0.009 0.015038,0.0045 0.021053,0.01353 0.00601,0.009 0.00601,0.02105 z m 2.1473689,-0.956391 q 0,0.23609 -0.055639,0.425564 -0.055639,0.189474 -0.1669173,0.323308 -0.1097745,0.132331 -0.2766918,0.204512 -0.1669174,0.07068 -0.3894738,0.07068 -0.2195489,0 -0.3804512,-0.06466 -0.1593986,-0.06617 -0.2646618,-0.190978 -0.1037594,-0.124812 -0.1548872,-0.309774 -0.051128,-0.184963 -0.051128,-0.425564 0,-0.230076 0.055639,-0.418046 0.055639,-0.18797 0.1669173,-0.318797 0.1112782,-0.13233 0.2781956,-0.203007 0.1669173,-0.07218 0.3894737,-0.07218 0.2150377,0 0.3744362,0.06466 0.1593986,0.06466 0.2646617,0.189474 0.106767,0.123308 0.1578948,0.306767 0.052632,0.181955 0.052632,0.418045 z m -0.2721805,0.01805 q 0,-0.165414 -0.030075,-0.306767 -0.028571,-0.142857 -0.097744,-0.246617 -0.067669,-0.105263 -0.1819549,-0.163909 -0.1142858,-0.05865 -0.2827069,-0.05865 -0.168421,0 -0.2827068,0.06316 -0.1142857,0.06316 -0.1864662,0.168421 -0.070677,0.105263 -0.1022557,0.246617 -0.030075,0.139849 -0.030075,0.294737 0,0.171428 0.028571,0.315789 0.028571,0.144361 0.096241,0.249624 0.067669,0.10376 0.1804512,0.162406 0.1142857,0.05714 0.2857143,0.05714 0.1699249,0 0.2857144,-0.06316 0.1157895,-0.06316 0.1864662,-0.169925 0.070677,-0.10827 0.1007519,-0.249624 0.030075,-0.141353 0.030075,-0.299248 z m 1.9789476,0.938346 q 0,0.01203 -0.0045,0.02105 -0.0045,0.009 -0.01955,0.01504 -0.01504,0.006 -0.04211,0.009 -0.02707,0.003 -0.07218,0.003 -0.0391,0 -0.064661,-0.003 -0.02406,-0.003 -0.039098,-0.009 -0.015038,-0.0075 -0.02406,-0.01955 -0.00752,-0.01203 -0.013534,-0.03008 L 9.7332785,31.961653 q -0.031579,-0.0782 -0.066165,-0.142858 -0.033083,-0.06617 -0.079699,-0.112782 -0.046617,-0.04812 -0.1097744,-0.07368 -0.063158,-0.02707 -0.1518798,-0.02707 H 9.1528273 v 0.828571 q 0,0.01203 -0.00752,0.02105 -0.00602,0.009 -0.021053,0.01504 -0.013534,0.0045 -0.039098,0.0075 -0.02406,0.0045 -0.061654,0.0045 -0.037594,0 -0.063158,-0.0045 -0.02406,-0.003 -0.039098,-0.0075 -0.015038,-0.006 -0.021053,-0.01504 -0.00601,-0.009 -0.00601,-0.02105 v -1.801504 q 0,-0.05865 0.030075,-0.0812 0.031579,-0.02406 0.066165,-0.02406 h 0.4135339 q 0.073684,0 0.1218046,0.0045 0.049624,0.003 0.088722,0.0075 0.112782,0.01955 0.1984963,0.06165 0.087218,0.0421 0.1458647,0.106767 0.058647,0.06466 0.087219,0.148872 0.03008,0.08271 0.03008,0.183459 0,0.09774 -0.02707,0.17594 -0.02556,0.07669 -0.075188,0.136842 -0.049624,0.05865 -0.118797,0.102256 -0.069173,0.04361 -0.1548873,0.07368 0.04812,0.02105 0.087218,0.05414 0.039098,0.03158 0.07218,0.07669 0.034586,0.04511 0.064662,0.103759 0.030075,0.05865 0.06015,0.132331 l 0.1744366,0.428572 q 0.02105,0.05414 0.02707,0.07669 0.006,0.02105 0.006,0.03308 z M 9.8024515,31.066916 q 0,-0.114286 -0.051128,-0.192482 -0.051128,-0.0797 -0.1714287,-0.114285 -0.037594,-0.01053 -0.085714,-0.01504 -0.046616,-0.0045 -0.1233083,-0.0045 H 9.1528273 v 0.655639 h 0.2526316 q 0.1022557,0 0.1759399,-0.02406 0.075188,-0.02556 0.1248121,-0.06917 0.049624,-0.04511 0.07218,-0.105263 0.02406,-0.06015 0.02406,-0.130827 z m 2.2601515,0.404511 q 0,0.252632 -0.06466,0.442105 -0.06466,0.18797 -0.189474,0.312782 -0.123308,0.123309 -0.303759,0.184963 -0.180451,0.06165 -0.430075,0.06165 h -0.412031 q -0.03459,0 -0.06616,-0.02256 -0.03008,-0.02406 -0.03008,-0.08271 v -1.735339 q 0,-0.05865 0.03008,-0.0812 0.03158,-0.02406 0.06616,-0.02406 h 0.440602 q 0.252632,0 0.427068,0.06616 0.174436,0.06466 0.291729,0.18797 0.118797,0.121805 0.178948,0.296241 0.06165,0.174436 0.06165,0.393985 z m -0.272181,0.01053 q 0,-0.157895 -0.0391,-0.293233 -0.0391,-0.136842 -0.123308,-0.23609 -0.08271,-0.09925 -0.210526,-0.154887 -0.12782,-0.05564 -0.329324,-0.05564 h -0.263158 v 1.514287 h 0.266166 q 0.186466,0 0.314286,-0.04662 0.127819,-0.04662 0.213534,-0.142857 0.08571,-0.09624 0.127819,-0.240602 0.04361,-0.145864 0.04361,-0.344361 z"
         id="text8544-7-1-5-7-3-0-8"
         style="font-size:3.0797px;line-height:1.25;font-family:Calibri;-inkscape-font-specification:Calibri;text-align:center;text-anchor:middle;fill:#000000;stroke-width:0.264582"
         aria-label="CHORD" />
      <path
         d="m 4.5942172,18.477476 q 0,0.235736 -0.055556,0.424926 -0.055556,0.189189 -0.166667,0.322823 Q 4.2623849,19.357357 4.0957179,19.42943 3.929051,19.5 3.7068284,19.5 3.4876089,19.5 3.3269479,19.435436 3.1677885,19.36937 3.0626833,19.244745 2.9590795,19.12012 2.9080284,18.935435 2.8569772,18.75075 2.8569772,18.510509 q 0,-0.22973 0.055556,-0.417418 0.055556,-0.187688 0.1666669,-0.318319 0.1111113,-0.132132 0.2777782,-0.202703 0.166667,-0.07207 0.3888895,-0.07207 0.2147151,0 0.3738745,0.06456 0.1591594,0.06457 0.2642647,0.189189 0.1066067,0.123124 0.1576579,0.306307 0.052553,0.181682 0.052553,0.417418 z m -0.2717722,0.01802 q 0,-0.165165 -0.03003,-0.306307 -0.028529,-0.142642 -0.097598,-0.246246 -0.067568,-0.105105 -0.181682,-0.163664 -0.1141143,-0.05856 -0.2822827,-0.05856 -0.1681684,0 -0.2822827,0.06306 -0.1141143,0.06306 -0.1861865,0.168169 -0.070571,0.105105 -0.1021023,0.246247 -0.03003,0.139639 -0.03003,0.294294 0,0.171172 0.028529,0.315316 0.028529,0.144144 0.096096,0.24925 0.067568,0.103603 0.1801804,0.162162 0.1141143,0.05706 0.2852858,0.05706 0.1696699,0 0.2852857,-0.06306 0.1156158,-0.06306 0.1861865,-0.16967 0.070571,-0.108108 0.1006007,-0.249249 0.03003,-0.141142 0.03003,-0.2988 z m 1.9774807,0.701203 q 0,0.02402 -0.0015,0.04204 -0.0015,0.01802 -0.00601,0.03153 -0.003,0.01351 -0.00901,0.02402 -0.00601,0.01051 -0.021021,0.02553 -0.015015,0.01502 -0.063063,0.04655 -0.048048,0.03003 -0.1201204,0.06006 -0.070571,0.02853 -0.1636639,0.04805 -0.091592,0.02102 -0.2012015,0.02102 -0.1891895,0 -0.3423429,-0.06306 Q 5.2203444,19.36937 5.1122362,19.246246 5.0056294,19.123123 4.9470707,18.942942 4.8900136,18.76126 4.8900136,18.525524 q 0,-0.241742 0.061562,-0.430931 0.063063,-0.18919 0.175676,-0.319821 0.1126128,-0.132132 0.2687692,-0.201201 0.1576579,-0.06907 0.3483489,-0.06907 0.084084,0 0.1636639,0.01652 0.07958,0.01501 0.1471474,0.03904 0.067568,0.02402 0.1201203,0.05556 0.052553,0.03153 0.072072,0.05255 0.021021,0.01952 0.027027,0.03003 0.00601,0.01051 0.00901,0.02553 0.0045,0.01351 0.00601,0.03303 0.003,0.01952 0.003,0.04655 0,0.03003 -0.003,0.05105 -0.003,0.02102 -0.00901,0.03604 -0.00601,0.01351 -0.015015,0.02102 -0.00751,0.006 -0.01952,0.006 -0.021021,0 -0.058559,-0.02853 -0.037538,-0.03003 -0.097598,-0.06457 -0.058559,-0.03604 -0.1441444,-0.06456 -0.084084,-0.03003 -0.202703,-0.03003 -0.1291294,0 -0.2357361,0.05255 -0.1051053,0.05105 -0.1801805,0.151652 -0.075075,0.100601 -0.1171173,0.246246 -0.040541,0.144145 -0.040541,0.330331 0,0.184685 0.039039,0.327328 0.040541,0.141142 0.1141143,0.237238 0.075075,0.0946 0.1831835,0.144144 0.1081082,0.04805 0.2447451,0.04805 0.1156158,0 0.2012015,-0.02853 0.087087,-0.02853 0.1471474,-0.06306 0.061562,-0.03604 0.1006008,-0.06456 0.039039,-0.02853 0.061562,-0.02853 0.01051,0 0.018018,0.0045 0.00751,0.0045 0.012012,0.01802 0.0045,0.01201 0.00601,0.03453 0.003,0.02252 0.003,0.05706 z m 1.5750777,-1.55706 q 0,0.02853 -0.003,0.04955 -0.003,0.02102 -0.010511,0.03453 -0.00601,0.01201 -0.016516,0.01802 -0.00901,0.006 -0.021021,0.006 H 7.2774048 v 1.684688 q 0,0.01201 -0.00601,0.02102 -0.00601,0.009 -0.021021,0.01501 -0.015015,0.0045 -0.040541,0.0075 -0.024024,0.0045 -0.061562,0.0045 -0.036036,0 -0.061562,-0.0045 -0.025525,-0.003 -0.040541,-0.0075 -0.015015,-0.006 -0.021021,-0.01501 -0.00601,-0.009 -0.00601,-0.02102 V 17.747745 H 6.4725988 q -0.012012,0 -0.022523,-0.006 -0.00901,-0.006 -0.015015,-0.01802 -0.00601,-0.01351 -0.010511,-0.03453 -0.003,-0.02102 -0.003,-0.04955 0,-0.02853 0.003,-0.04955 0.0045,-0.02252 0.010511,-0.03604 0.00601,-0.01351 0.015015,-0.01952 0.010511,-0.006 0.022523,-0.006 h 1.3513534 q 0.012012,0 0.021021,0.006 0.01051,0.006 0.016516,0.01952 0.00751,0.01351 0.010511,0.03604 0.003,0.02102 0.003,0.04955 z m 1.4954978,1.740243 q 0.012012,0.03303 0.012012,0.05405 0.0015,0.01952 -0.010511,0.03003 -0.012012,0.01051 -0.040541,0.01351 -0.027027,0.003 -0.073574,0.003 -0.046547,0 -0.075075,-0.003 -0.027027,-0.0015 -0.042042,-0.006 -0.013514,-0.006 -0.021021,-0.01501 -0.00601,-0.009 -0.012012,-0.02252 L 8.9410711,18.96096 H 8.133262 l -0.1591594,0.466968 q -0.0045,0.01351 -0.012012,0.02402 -0.00751,0.009 -0.022523,0.01652 -0.013514,0.006 -0.040541,0.009 -0.025525,0.003 -0.067568,0.003 -0.043544,0 -0.072072,-0.0045 -0.027027,-0.003 -0.039039,-0.01351 -0.01051,-0.01051 -0.01051,-0.03003 0.0015,-0.02102 0.013513,-0.05405 l 0.6516527,-1.804808 q 0.00601,-0.01652 0.015015,-0.02703 0.010511,-0.01051 0.028529,-0.01652 0.019519,-0.006 0.048048,-0.0075 0.03003,-0.003 0.075075,-0.003 0.048048,0 0.07958,0.003 0.031532,0.0015 0.051051,0.0075 0.01952,0.006 0.03003,0.01802 0.010511,0.01051 0.016517,0.02703 z M 8.5341636,17.786784 h -0.0015 l -0.3348354,0.96847 h 0.6756768 z m 1.8123154,1.639643 q -0.006,0.01652 -0.01652,0.02703 -0.01051,0.01051 -0.03003,0.01652 -0.01802,0.006 -0.04805,0.0075 -0.02853,0.003 -0.07207,0.003 -0.03303,0 -0.05856,-0.0015 -0.02402,0 -0.04204,-0.003 -0.01802,-0.003 -0.03153,-0.006 -0.01201,-0.0045 -0.02102,-0.01051 -0.009,-0.006 -0.01501,-0.01351 -0.0045,-0.009 -0.009,-0.02102 L 9.367498,17.620118 q -0.012012,-0.03303 -0.013514,-0.05255 0,-0.02102 0.013514,-0.03153 0.013514,-0.01051 0.043544,-0.01351 0.03003,-0.003 0.081081,-0.003 0.042042,0 0.066066,0.003 0.025525,0.0015 0.039039,0.0075 0.013514,0.006 0.019519,0.01652 0.00751,0.009 0.013514,0.02402 l 0.5570578,1.635138 h 0.0015 l 0.542042,-1.632135 q 0.0045,-0.01652 0.01051,-0.02703 0.006,-0.01051 0.02102,-0.01652 0.01501,-0.006 0.04204,-0.0075 0.02703,-0.003 0.07207,-0.003 0.04655,0 0.07357,0.0045 0.02703,0.003 0.03604,0.01351 0.01051,0.01051 0.0075,0.03153 -0.0015,0.01952 -0.01351,0.05255 z m 2.040543,-0.06156 q 0,0.02703 -0.003,0.04805 -0.003,0.01952 -0.01051,0.03303 -0.0075,0.01351 -0.01802,0.01952 -0.009,0.006 -0.02102,0.006 h -0.932434 q -0.03453,0 -0.06607,-0.02252 -0.03003,-0.02402 -0.03003,-0.08258 v -1.732736 q 0,-0.05856 0.03003,-0.08108 0.03153,-0.02402 0.06607,-0.02402 h 0.921923 q 0.01201,0 0.02102,0.006 0.01051,0.006 0.01652,0.01952 0.006,0.01351 0.009,0.03453 0.0045,0.01952 0.0045,0.04955 0,0.02703 -0.0045,0.04805 -0.003,0.01952 -0.009,0.03303 -0.006,0.01201 -0.01652,0.01802 -0.009,0.006 -0.02102,0.006 h -0.759761 v 0.60961 h 0.651653 q 0.01201,0 0.02102,0.0075 0.01051,0.006 0.01652,0.01802 0.0075,0.01201 0.01051,0.03303 0.003,0.02102 0.003,0.04955 0,0.02703 -0.003,0.04655 -0.003,0.01952 -0.01051,0.03153 -0.006,0.01201 -0.01652,0.01802 -0.009,0.0045 -0.02102,0.0045 h -0.651653 v 0.695197 h 0.770272 q 0.01201,0 0.02102,0.006 0.01051,0.006 0.01802,0.01952 0.0075,0.01201 0.01051,0.03303 0.003,0.01952 0.003,0.04955 z"
         id="text8544-7-1-5-2-7-7-6-0-2"
         style="font-size:3.07508px;line-height:1.25;font-family:Calibri;-inkscape-font-specification:Calibri;text-align:center;text-anchor:middle;fill:#000000;stroke-width:0.264583"
         aria-label="OCTAVE" />
      <path
         d="m 6.7414495,45.450994 q 0,0.01225 -0.00613,0.02144 -0.00613,0.0092 -0.02144,0.01531 -0.015314,0.0046 -0.041348,0.0077 -0.024502,0.0046 -0.062787,0.0046 -0.036753,0 -0.062787,-0.0046 -0.026034,-0.0031 -0.041348,-0.0077 -0.015314,-0.0061 -0.021439,-0.01531 -0.00613,-0.0092 -0.00613,-0.02144 v -1.901988 q 0,-0.01225 0.00613,-0.02144 0.00766,-0.0092 0.022971,-0.01378 0.016845,-0.0061 0.041348,-0.0092 0.026034,-0.0046 0.061256,-0.0046 0.038285,0 0.062787,0.0046 0.026034,0.0031 0.041348,0.0092 0.015314,0.0046 0.02144,0.01378 0.00613,0.0092 0.00613,0.02144 z m 2.0244998,-0.06891 q 0,0.03063 -0.01072,0.05207 -0.00919,0.02144 -0.026034,0.03522 -0.015314,0.01378 -0.035222,0.01991 -0.019908,0.0061 -0.039816,0.0061 h -0.084227 q -0.039816,0 -0.070444,-0.0077 -0.029097,-0.0092 -0.056662,-0.03063 -0.026034,-0.02297 -0.053599,-0.06126 -0.026034,-0.03829 -0.058193,-0.09801 L 7.7062263,44.170751 q -0.049004,-0.08729 -0.09954,-0.182236 -0.049005,-0.09648 -0.091883,-0.18683 h -0.00306 q 0.00306,0.110261 0.00459,0.225115 0.00153,0.114854 0.00153,0.228177 v 1.196017 q 0,0.01072 -0.00613,0.02144 -0.00613,0.0092 -0.021439,0.01531 -0.013783,0.0046 -0.038285,0.0077 -0.022971,0.0046 -0.059724,0.0046 -0.036753,0 -0.061256,-0.0046 -0.022971,-0.0031 -0.036753,-0.0077 -0.013782,-0.0061 -0.019908,-0.01531 -0.00613,-0.01072 -0.00613,-0.02144 v -1.828481 q 0,-0.06126 0.033691,-0.08729 0.033691,-0.02603 0.073507,-0.02603 h 0.1255741 q 0.04441,0 0.073507,0.0077 0.030628,0.0077 0.053599,0.02603 0.024502,0.01685 0.045942,0.04901 0.022971,0.03063 0.049004,0.0781 l 0.480857,0.86983 q 0.04441,0.07963 0.085758,0.156202 0.041348,0.07504 0.079632,0.148545 0.038285,0.07351 0.075038,0.145482 0.038285,0.07044 0.075038,0.14242 h 0.00153 q -0.00306,-0.12098 -0.00459,-0.251148 0,-0.1317 0,-0.25268 V 43.5536 q 0,-0.01072 0.00613,-0.01991 0.00613,-0.0092 0.019908,-0.01531 0.015314,-0.0077 0.038285,-0.01072 0.024502,-0.0031 0.062787,-0.0031 0.033691,0 0.058193,0.0031 0.024502,0.0031 0.038285,0.01072 0.013783,0.0061 0.019908,0.01531 0.00613,0.0092 0.00613,0.01991 z"
         id="text8544-7-1-5-2-2-3-0-5"
         style="font-size:3.13629px;line-height:1.25;font-family:Calibri;-inkscape-font-specification:Calibri;text-align:center;text-anchor:middle;fill:#000000;stroke-width:0.264583"
         aria-label="IN" />
    </g>
  </g>
</svg>
