<?xml version="1.0" encoding="UTF-8" standalone="no"?>
<!-- Created with Inkscape (http://www.inkscape.org/) -->

<svg
   width="15.24mm"
   height="128.5mm"
   viewBox="0 0 15.24 128.5"
   version="1.1"
   id="svg5"
   inkscape:version="1.1.2 (b8e25be833, 2022-02-05)"
   sodipodi:docname="SampleAndHold.svg"
   xmlns:inkscape="http://www.inkscape.org/namespaces/inkscape"
   xmlns:sodipodi="http://sodipodi.sourceforge.net/DTD/sodipodi-0.dtd"
   xmlns="http://www.w3.org/2000/svg"
   xmlns:svg="http://www.w3.org/2000/svg">
  <sodipodi:namedview
     id="namedview7"
     pagecolor="#ffffff"
     bordercolor="#666666"
     borderopacity="1.0"
     inkscape:pageshadow="2"
     inkscape:pageopacity="0.0"
     inkscape:pagecheckerboard="0"
     inkscape:document-units="mm"
     showgrid="false"
     height="128.5mm"
     inkscape:zoom="3.48"
     inkscape:cx="8.4770115"
     inkscape:cy="247.27011"
     inkscape:window-width="3840"
     inkscape:window-height="2054"
     inkscape:window-x="-11"
     inkscape:window-y="-11"
     inkscape:window-maximized="0"
     inkscape:current-layer="layer1" />
  <defs
     id="defs2" />
  <g
     inkscape:label="Layer 1"
     inkscape:groupmode="layer"
     id="layer1">
    <path
       id="rect4302"
       style="fill:#dddddd;stroke-width:0.184931"
       d="M 0.1422134,1.6577559e-8 H 15.386392 V 128.50433 H 0.1422134 Z" />
    <g
       aria-label="2 LIFT"
       id="text8544-7-0-8-5-9"
       style="font-size:2.46944px;line-height:1.25;font-family:Calibri;-inkscape-font-specification:Calibri;text-align:center;text-anchor:middle;fill:#000000;stroke-width:0.264583">
      <path
         d="m 2.7471949,125.36831 q 0,0.0145 -0.00362,0.0277 -0.00241,0.0121 -0.00844,0.0217 -0.00482,0.008 -0.013264,0.0133 -0.00844,0.005 -0.019293,0.005 H 1.8597399 q -0.010852,0 -0.020498,-0.004 -0.00965,-0.004 -0.016881,-0.0109 -0.00723,-0.008 -0.010852,-0.0217 -0.00362,-0.0133 -0.00362,-0.0314 0,-0.0157 0.00121,-0.0277 0.00121,-0.0121 0.00482,-0.0217 0.00362,-0.01 0.00965,-0.0193 0.00603,-0.01 0.015675,-0.0205 l 0.3195321,-0.33762 q 0.1193723,-0.1254 0.1893076,-0.22428 0.071141,-0.0989 0.1085203,-0.17845 0.037379,-0.0796 0.048231,-0.1447 0.012058,-0.0651 0.012058,-0.12299 0,-0.0579 -0.019292,-0.10972 -0.018087,-0.0531 -0.05426,-0.0916 -0.036173,-0.0398 -0.090434,-0.0627 -0.053054,-0.0241 -0.1229896,-0.0241 -0.075964,0 -0.1362533,0.0217 -0.060289,0.0205 -0.1061088,0.047 -0.044614,0.0253 -0.074758,0.047 -0.030145,0.0205 -0.044614,0.0205 -0.00723,0 -0.013264,-0.004 -0.00603,-0.004 -0.010852,-0.0109 -0.00362,-0.008 -0.00603,-0.0205 -0.00121,-0.0121 -0.00121,-0.0277 0,-0.0145 0.00121,-0.0241 0.00121,-0.01 0.00362,-0.0169 0.00241,-0.008 0.00603,-0.0157 0.00482,-0.007 0.018087,-0.0193 0.014469,-0.0121 0.047026,-0.0326 0.033762,-0.0205 0.084405,-0.041 0.050643,-0.0217 0.1121376,-0.0362 0.061495,-0.0157 0.1278128,-0.0157 0.1097261,0 0.1905135,0.0326 0.081993,0.0326 0.1362533,0.088 0.05426,0.0555 0.080787,0.12901 0.026527,0.0724 0.026527,0.15314 0,0.0748 -0.013264,0.14952 -0.012058,0.0736 -0.05426,0.16157 -0.040997,0.0868 -0.1205781,0.19293 -0.078376,0.1061 -0.2098059,0.24477 l -0.2845644,0.29783 H 2.702581 q 0.00965,0 0.018087,0.005 0.00844,0.004 0.014469,0.0121 0.00603,0.008 0.00844,0.0205 0.00362,0.0121 0.00362,0.0265 z"
         style="font-weight:300;-inkscape-font-specification:'Calibri Light'"
         id="path947" />
      <path
         d="m 4.4738736,125.36831 q 0,0.0169 -0.00241,0.0289 -0.00241,0.0121 -0.00723,0.0217 -0.00482,0.008 -0.012058,0.0133 -0.00723,0.004 -0.016881,0.004 H 3.7588454 q -0.021704,0 -0.044614,-0.0157 -0.02291,-0.0169 -0.02291,-0.0603 v -1.4602 q 0,-0.007 0.00362,-0.0133 0.00362,-0.006 0.012058,-0.01 0.00844,-0.004 0.02291,-0.006 0.014469,-0.002 0.034968,-0.002 0.021704,0 0.034968,0.002 0.014469,0.002 0.02291,0.006 0.00844,0.004 0.012058,0.01 0.00362,0.006 0.00362,0.0133 v 1.40233 h 0.5968617 q 0.00965,0 0.016881,0.005 0.00723,0.004 0.012058,0.0121 0.00482,0.007 0.00723,0.0205 0.00241,0.0121 0.00241,0.0289 z"
         style="font-weight:300;-inkscape-font-specification:'Calibri Light'"
         id="path949" />
      <path
         d="m 4.8729874,125.41172 q 0,0.007 -0.00362,0.0133 -0.00362,0.006 -0.012058,0.01 -0.00844,0.004 -0.02291,0.006 -0.013264,0.002 -0.034968,0.002 -0.020498,0 -0.034968,-0.002 -0.014469,-0.002 -0.02291,-0.006 -0.00844,-0.004 -0.012058,-0.01 -0.00362,-0.006 -0.00362,-0.0133 v -1.51205 q 0,-0.007 0.00362,-0.0133 0.00482,-0.006 0.013264,-0.01 0.00965,-0.004 0.02291,-0.006 0.014469,-0.002 0.033762,-0.002 0.021704,0 0.034968,0.002 0.014469,0.002 0.02291,0.006 0.00844,0.004 0.012058,0.01 0.00362,0.006 0.00362,0.0133 z"
         style="font-weight:300;-inkscape-font-specification:'Calibri Light'"
         id="path951" />
      <path
         d="m 6.1185593,123.94308 q 0,0.0157 -0.00241,0.0277 -0.00241,0.0121 -0.00844,0.0205 -0.00482,0.007 -0.012058,0.0121 -0.00723,0.004 -0.015675,0.004 H 5.4758779 v 0.59083 H 6.048624 q 0.00844,0 0.015675,0.004 0.00723,0.002 0.012058,0.01 0.00603,0.007 0.00844,0.0193 0.00241,0.0121 0.00241,0.0302 0,0.0157 -0.00241,0.0277 -0.00241,0.0121 -0.00844,0.0205 -0.00482,0.007 -0.012058,0.0121 -0.00723,0.004 -0.015675,0.004 H 5.4758779 v 0.68729 q 0,0.007 -0.00362,0.0133 -0.00362,0.006 -0.012058,0.01 -0.00844,0.004 -0.02291,0.006 -0.013264,0.002 -0.034968,0.002 -0.020498,0 -0.034968,-0.002 -0.014469,-0.002 -0.02291,-0.006 -0.00844,-0.004 -0.012058,-0.01 -0.00362,-0.006 -0.00362,-0.0133 v -1.4602 q 0,-0.0434 0.02291,-0.0591 0.02291,-0.0169 0.044614,-0.0169 h 0.683678 q 0.00844,0 0.015675,0.005 0.00723,0.004 0.012058,0.0121 0.00603,0.008 0.00844,0.0217 0.00241,0.0121 0.00241,0.0289 z"
         style="font-weight:300;-inkscape-font-specification:'Calibri Light'"
         id="path953" />
      <path
         d="m 7.4099512,123.94308 q 0,0.0157 -0.00241,0.0277 -0.00241,0.0121 -0.00723,0.0205 -0.00482,0.007 -0.012058,0.0121 -0.00723,0.004 -0.015675,0.004 H 6.9071404 v 1.40473 q 0,0.007 -0.00362,0.0133 -0.00362,0.006 -0.012058,0.01 -0.00844,0.004 -0.02291,0.006 -0.014469,0.002 -0.034968,0.002 -0.020498,0 -0.034968,-0.002 -0.014469,-0.002 -0.02291,-0.006 -0.00844,-0.004 -0.012058,-0.01 -0.00362,-0.006 -0.00362,-0.0133 v -1.40473 H 6.2946035 q -0.00965,0 -0.016881,-0.004 -0.00603,-0.005 -0.010852,-0.0121 -0.00482,-0.008 -0.00723,-0.0205 -0.00241,-0.0121 -0.00241,-0.0277 0,-0.0169 0.00241,-0.0289 0.00241,-0.0133 0.00723,-0.0217 0.00482,-0.008 0.010852,-0.0121 0.00723,-0.005 0.016881,-0.005 H 7.372572 q 0.00844,0 0.015675,0.005 0.00723,0.004 0.012058,0.0121 0.00482,0.008 0.00723,0.0217 0.00241,0.0121 0.00241,0.0289 z"
         style="font-weight:300;-inkscape-font-specification:'Calibri Light'"
         id="path955" />
    </g>
    <g
       aria-label="SANDH"
       id="text8544-7-0-8-5"
       style="font-size:4.23333px;line-height:1.25;font-family:Calibri;-inkscape-font-specification:Calibri;text-align:center;letter-spacing:0px;text-anchor:middle;fill:#000000;stroke-width:0.264583">
      <path
         d="m 3.3602502,121.95957 q 0,0.1881 -0.07028,0.33486 -0.068213,0.14676 -0.1922362,0.25011 -0.1219563,0.10129 -0.2893878,0.15297 -0.1653644,0.0517 -0.3576006,0.0517 -0.1343586,0 -0.2501137,-0.0227 -0.113688,-0.0227 -0.2046385,-0.0558 -0.088883,-0.0331 -0.150895,-0.0682 -0.059945,-0.0351 -0.084749,-0.0599 -0.022738,-0.0248 -0.03514,-0.062 -0.010335,-0.0393 -0.010335,-0.10335 0,-0.0455 0.00413,-0.0744 0.00413,-0.031 0.012402,-0.0496 0.00827,-0.0186 0.020671,-0.0248 0.012402,-0.008 0.028939,-0.008 0.028939,0 0.080615,0.0351 0.053743,0.0351 0.1364257,0.0765 0.082682,0.0413 0.1984373,0.0785 0.1178222,0.0351 0.2707843,0.0351 0.1157551,0 0.2108396,-0.031 0.097152,-0.031 0.1653645,-0.0868 0.07028,-0.0579 0.1074869,-0.14056 0.037207,-0.0827 0.037207,-0.1881 0,-0.11369 -0.051676,-0.1943 -0.051676,-0.0806 -0.1364257,-0.14056 -0.084749,-0.062 -0.1943032,-0.11162 Q 2.498288,121.50068 2.3846,121.449 q -0.1136881,-0.0537 -0.221175,-0.11782 -0.1074869,-0.0641 -0.1922362,-0.15089 -0.084749,-0.0868 -0.1384927,-0.20258 -0.051676,-0.11782 -0.051676,-0.28111 0,-0.16744 0.059945,-0.29766 0.062012,-0.13229 0.1694986,-0.22118 0.1095539,-0.0889 0.2583819,-0.13435 0.1508951,-0.0476 0.3245278,-0.0476 0.088883,0 0.1777667,0.0165 0.09095,0.0145 0.1694986,0.0413 0.080615,0.0248 0.1426268,0.0579 0.062012,0.031 0.080615,0.0517 0.020671,0.0186 0.026872,0.031 0.0062,0.0103 0.010335,0.0289 0.00413,0.0165 0.0062,0.0413 0.00207,0.0248 0.00207,0.0641 0,0.0372 -0.00413,0.0662 -0.00207,0.0289 -0.00827,0.0496 -0.0062,0.0186 -0.018604,0.0289 -0.010335,0.008 -0.024805,0.008 -0.022738,0 -0.072347,-0.0289 -0.047542,-0.0289 -0.1178222,-0.0641 -0.07028,-0.0372 -0.1674315,-0.0661 -0.095085,-0.031 -0.2149738,-0.031 -0.111621,0 -0.1943032,0.031 -0.082682,0.0289 -0.1364257,0.0785 -0.053743,0.0496 -0.080615,0.11782 -0.026872,0.0682 -0.026872,0.14469 0,0.11162 0.051676,0.19224 0.051676,0.0806 0.1364257,0.14263 0.086816,0.062 0.1963703,0.11368 0.1095539,0.0517 0.223242,0.10542 0.113688,0.0517 0.223242,0.11576 0.1095539,0.062 0.1943032,0.14883 0.086816,0.0847 0.1384927,0.20257 0.053743,0.11575 0.053743,0.27492 z"
         id="path936" />
      <path
         d="m 5.8407169,122.58382 q 0.016536,0.0455 0.016536,0.0744 0.00207,0.0269 -0.014469,0.0413 -0.016536,0.0145 -0.05581,0.0186 -0.037207,0.004 -0.1012858,0.004 -0.064079,0 -0.1033527,-0.004 -0.037207,-0.002 -0.057878,-0.008 -0.018604,-0.008 -0.028939,-0.0207 -0.00827,-0.0124 -0.016536,-0.031 L 5.249539,122.00711 H 4.1374631 l -0.2191079,0.64285 q -0.0062,0.0186 -0.016536,0.0331 -0.010335,0.0124 -0.031006,0.0227 -0.018604,0.008 -0.055811,0.0124 -0.03514,0.004 -0.093017,0.004 -0.059945,0 -0.099219,-0.006 -0.037207,-0.004 -0.053743,-0.0186 -0.014469,-0.0145 -0.014469,-0.0413 0.00207,-0.0289 0.018604,-0.0744 l 0.8971021,-2.4846 q 0.00827,-0.0227 0.020671,-0.0372 0.014469,-0.0145 0.039274,-0.0227 0.026872,-0.008 0.066146,-0.0103 0.041341,-0.004 0.1033527,-0.004 0.066146,0 0.109554,0.004 0.043408,0.002 0.07028,0.0103 0.026872,0.008 0.041341,0.0248 0.014469,0.0145 0.022738,0.0372 z M 4.689367,120.39067 h -0.00207 l -0.4609534,1.33325 h 0.930175 z"
         id="path938" />
      <path
         d="m 8.3087809,122.56315 q 0,0.0413 -0.014469,0.0703 -0.012402,0.0289 -0.03514,0.0475 -0.020671,0.0186 -0.047542,0.0269 -0.026872,0.008 -0.053743,0.008 h -0.113688 q -0.053743,0 -0.095085,-0.0103 -0.039274,-0.0124 -0.076481,-0.0413 -0.03514,-0.031 -0.072347,-0.0827 -0.03514,-0.0517 -0.078548,-0.13229 l -0.8433586,-1.52135 q -0.066146,-0.11783 -0.1343587,-0.24598 -0.066146,-0.13023 -0.1240233,-0.25218 h -0.00413 q 0.00413,0.14882 0.0062,0.30385 0.00207,0.15503 0.00207,0.30799 v 1.61437 q 0,0.0145 -0.00827,0.0289 -0.00827,0.0124 -0.028939,0.0207 -0.018604,0.006 -0.051676,0.0103 -0.031006,0.006 -0.080615,0.006 -0.049609,0 -0.082682,-0.006 -0.031006,-0.004 -0.049609,-0.0103 -0.018604,-0.008 -0.026872,-0.0207 -0.00827,-0.0145 -0.00827,-0.0289 v -2.46806 q 0,-0.0827 0.045475,-0.11782 0.045475,-0.0351 0.099219,-0.0351 H 6.601393 q 0.059945,0 0.099219,0.0103 0.041341,0.0103 0.072347,0.0351 0.033073,0.0227 0.062012,0.0662 0.031006,0.0413 0.066146,0.10542 l 0.6490554,1.17409 q 0.059945,0.10748 0.1157551,0.21084 0.055811,0.10128 0.1074869,0.2005 0.051676,0.0992 0.1012857,0.19637 0.051676,0.0951 0.1012858,0.19224 h 0.00207 q -0.00413,-0.1633 -0.0062,-0.339 0,-0.17777 0,-0.34106 v -1.45108 q 0,-0.0145 0.00827,-0.0269 0.00827,-0.0124 0.026872,-0.0207 0.02067,-0.0103 0.051676,-0.0145 0.033073,-0.004 0.084749,-0.004 0.045475,0 0.078548,0.004 0.033073,0.004 0.051676,0.0145 0.018604,0.008 0.026872,0.0207 0.00827,0.0124 0.00827,0.0269 z"
         id="path940" />
      <path
         d="m 11.076569,121.33325 q 0,0.34726 -0.08888,0.60771 -0.08888,0.25838 -0.260449,0.42995 -0.169498,0.1695 -0.417545,0.25425 -0.248047,0.0847 -0.5911778,0.0847 H 9.15214 q -0.047542,0 -0.09095,-0.031 -0.041341,-0.0331 -0.041341,-0.11369 v -2.38538 q 0,-0.0806 0.041341,-0.11162 0.043408,-0.0331 0.09095,-0.0331 h 0.6056473 q 0.3472657,0 0.5870437,0.091 0.239779,0.0889 0.401009,0.25838 0.163297,0.16743 0.245979,0.40721 0.08475,0.23978 0.08475,0.54157 z m -0.374137,0.0145 q 0,-0.21704 -0.05374,-0.40308 -0.05374,-0.1881 -0.169498,-0.32453 -0.113688,-0.13642 -0.289388,-0.2129 -0.1757,-0.0765 -0.4526853,-0.0765 H 9.375382 v 2.08152 h 0.3658689 q 0.2563148,0 0.4320141,-0.0641 0.1757,-0.0641 0.293522,-0.19637 0.117823,-0.13229 0.1757,-0.33073 0.05995,-0.2005 0.05995,-0.47335 z"
         id="path942" />
      <path
         d="m 13.550834,122.65616 q 0,0.0165 -0.0083,0.0289 -0.0083,0.0124 -0.02894,0.0207 -0.02067,0.006 -0.05581,0.0103 -0.03307,0.006 -0.08268,0.006 -0.05374,0 -0.08682,-0.006 -0.03307,-0.004 -0.05374,-0.0103 -0.02067,-0.008 -0.02894,-0.0207 -0.0083,-0.0124 -0.0083,-0.0289 v -1.18649 h -1.217496 v 1.18649 q 0,0.0165 -0.0083,0.0289 -0.0083,0.0124 -0.02894,0.0207 -0.02067,0.006 -0.05581,0.0103 -0.03307,0.006 -0.08475,0.006 -0.04961,0 -0.08475,-0.006 -0.03514,-0.004 -0.05581,-0.0103 -0.02067,-0.008 -0.02894,-0.0207 -0.0083,-0.0124 -0.0083,-0.0289 v -2.56728 q 0,-0.0165 0.0083,-0.0289 0.0083,-0.0124 0.02894,-0.0186 0.02067,-0.008 0.05581,-0.0124 0.03514,-0.006 0.08475,-0.006 0.05168,0 0.08475,0.006 0.03514,0.004 0.05581,0.0124 0.02067,0.006 0.02894,0.0186 0.0083,0.0124 0.0083,0.0289 v 1.07074 h 1.217496 v -1.07074 q 0,-0.0165 0.0083,-0.0289 0.0083,-0.0124 0.02894,-0.0186 0.02067,-0.008 0.05374,-0.0124 0.03307,-0.006 0.08682,-0.006 0.04961,0 0.08268,0.006 0.03514,0.004 0.05581,0.0124 0.02067,0.006 0.02894,0.0186 0.0083,0.0124 0.0083,0.0289 z"
         id="path944" />
    </g>
    <path
       id="rect10313-5-0"
       style="fill:#fafafa;stroke:#fafafa;stroke-width:0.1"
       d="m 3.1746907,63 h 9.0000003 c 0.831,0 1.5,0.669 1.5,1.5 v 38 c 0,0.831 -0.669,1.5 -1.5,1.5 H 3.1746907 C 2.3436909,104 1.674691,103.331 1.674691,102.5 v -38 c 0,-0.831 0.6689999,-1.5 1.4999997,-1.5 z" />
    <path
       d="m 5.2075078,71.149712 a 3.4891158,3.5941528 0 1 1 4.9343542,0"
       fill="none"
       stroke="#010101"
       stroke-linecap="round"
       stroke-linejoin="round"
       id="path66-2"
       style="display:inline;stroke:#000000;stroke-width:0.264583;stroke-opacity:1" />
    <path
       id="rect10313-6-1-7"
       style="fill:#bbbbbb;stroke:#bbbbbb;stroke-width:0.1"
       d="m 3.2273817,105 h 9.0000003 c 0.831,0 1.5,0.83625 1.5,1.875 v 9.25 c 0,1.03875 -0.669,1.875 -1.5,1.875 H 3.2273817 c -0.8309999,0 -1.4999998,-0.83625 -1.4999998,-1.875 v -9.25 c 0,-1.03875 0.6689999,-1.875 1.4999998,-1.875 z" />
    <g
       aria-label="OUT"
       id="text8544-7-1-9-8-3"
       style="font-size:3.07508px;line-height:1.25;font-family:Calibri;-inkscape-font-specification:Calibri;text-align:center;text-anchor:middle;fill:#000000;stroke-width:0.264583">
      <path
         d="m 6.6910674,115.97748 q 0,0.23573 -0.055556,0.42492 -0.055556,0.18919 -0.1666669,0.32283 -0.1096098,0.13213 -0.2762767,0.2042 Q 6.0259011,117 5.8036786,117 q -0.2192196,0 -0.3798805,-0.0646 -0.1591594,-0.0661 -0.2642647,-0.19069 -0.1036037,-0.12463 -0.1546549,-0.30931 -0.051051,-0.18469 -0.051051,-0.42493 0,-0.22973 0.055556,-0.41742 0.055556,-0.18768 0.166667,-0.31832 0.1111112,-0.13213 0.2777782,-0.2027 Q 5.6204951,115 5.8427177,115 q 0.214715,0 0.3738744,0.0646 0.1591594,0.0646 0.2642647,0.18919 0.1066068,0.12313 0.1576579,0.30631 0.052553,0.18168 0.052553,0.41742 z m -0.2717722,0.018 q 0,-0.16517 -0.03003,-0.30631 -0.028529,-0.14264 -0.097598,-0.24625 -0.067568,-0.1051 -0.1816819,-0.16366 -0.1141143,-0.0586 -0.2822828,-0.0586 -0.1681684,0 -0.2822827,0.0631 -0.1141143,0.0631 -0.1861865,0.16817 -0.070571,0.10511 -0.1021022,0.24625 -0.03003,0.13964 -0.03003,0.29429 0,0.17117 0.028529,0.31532 0.028529,0.14414 0.096096,0.24925 0.067568,0.1036 0.1801805,0.16216 0.1141143,0.0571 0.2852857,0.0571 0.1696699,0 0.2852857,-0.0631 0.1156158,-0.0631 0.1861865,-0.16967 0.070571,-0.10811 0.1006008,-0.24925 0.03003,-0.14115 0.03003,-0.2988 z"
         id="path927" />
      <path
         d="m 8.5604398,116.25375 q 0,0.17718 -0.052553,0.31682 -0.051051,0.13814 -0.1471473,0.23424 -0.096096,0.0961 -0.2342346,0.14564 Q 7.9883668,117 7.8126909,117 q -0.160661,0 -0.2927933,-0.0465 -0.1321323,-0.0466 -0.2267271,-0.13664 -0.094595,-0.0916 -0.1456459,-0.22823 -0.051051,-0.13664 -0.051051,-0.31532 v -1.2057 q 0,-0.012 0.00601,-0.021 0.00601,-0.009 0.021021,-0.0135 0.015015,-0.006 0.039039,-0.009 0.024024,-0.004 0.063063,-0.004 0.036036,0 0.061562,0.004 0.025526,0.003 0.039039,0.009 0.015015,0.005 0.021021,0.0135 0.00601,0.009 0.00601,0.021 v 1.17417 q 0,0.13514 0.033033,0.23574 0.033033,0.1006 0.094595,0.16817 0.063063,0.0661 0.1501504,0.1006 0.088589,0.033 0.1981985,0.033 0.1126128,0 0.1997,-0.033 0.088589,-0.033 0.1486489,-0.0991 0.061562,-0.0661 0.093093,-0.16367 0.033033,-0.0976 0.033033,-0.22822 v -1.18769 q 0,-0.012 0.00601,-0.021 0.00601,-0.009 0.021021,-0.0135 0.015015,-0.006 0.039039,-0.009 0.025526,-0.004 0.063063,-0.004 0.036036,0 0.06006,0.004 0.025526,0.003 0.039039,0.009 0.015015,0.005 0.021021,0.0135 0.00751,0.009 0.00751,0.021 z"
         id="path929" />
      <path
         d="m 10.290172,115.13964 q 0,0.0285 -0.003,0.0495 -0.003,0.021 -0.01051,0.0345 -0.006,0.012 -0.01652,0.018 -0.009,0.006 -0.02102,0.006 H 9.6925738 v 1.68468 q 0,0.012 -0.00601,0.021 -0.00601,0.009 -0.021021,0.015 -0.015015,0.005 -0.040541,0.008 -0.024024,0.004 -0.061562,0.004 -0.036036,0 -0.061562,-0.004 -0.025526,-0.003 -0.040541,-0.008 -0.015015,-0.006 -0.021021,-0.015 -0.00601,-0.009 -0.00601,-0.021 v -1.68468 H 8.8877678 q -0.012012,0 -0.022523,-0.006 -0.00901,-0.006 -0.015015,-0.018 -0.00601,-0.0135 -0.010511,-0.0345 -0.003,-0.021 -0.003,-0.0495 0,-0.0285 0.003,-0.0495 0.0045,-0.0225 0.010511,-0.036 0.00601,-0.0135 0.015015,-0.0195 0.01051,-0.006 0.022523,-0.006 h 1.3513532 q 0.01201,0 0.02102,0.006 0.01051,0.006 0.01652,0.0195 0.0075,0.0135 0.01051,0.036 0.003,0.021 0.003,0.0495 z"
         id="path931" />
    </g>
    <g
       aria-label="GATE"
       id="text8544-7-1-5-7-3-0"
       style="font-size:3.0797px;line-height:1.25;font-family:Calibri;-inkscape-font-specification:Calibri;text-align:center;text-anchor:middle;fill:#000000;stroke-width:0.264582">
      <path
         d="m 4.5834582,87.791727 q 0,0.02857 -0.00301,0.05113 -0.00301,0.02105 -0.00902,0.03609 -0.00602,0.01353 -0.015038,0.01955 -0.00902,0.006 -0.019549,0.006 -0.018045,0 -0.06015,-0.02857 -0.042105,-0.02857 -0.112782,-0.06316 -0.070677,-0.03459 -0.1699248,-0.06316 -0.097744,-0.02857 -0.2330828,-0.02857 -0.1609023,0 -0.2887219,0.05865 -0.1278195,0.05865 -0.2165414,0.162406 -0.088722,0.10376 -0.1368421,0.246617 -0.046617,0.142857 -0.046617,0.309775 0,0.186466 0.051128,0.330827 0.052632,0.144361 0.1443609,0.243609 0.091729,0.09925 0.2180452,0.150376 0.1278196,0.05113 0.2796993,0.05113 0.090226,0 0.1819549,-0.02105 0.093233,-0.02256 0.1729324,-0.06616 V 88.620299 H 3.8691723 q -0.025564,0 -0.039098,-0.02556 -0.01203,-0.02556 -0.01203,-0.0797 0,-0.02857 0.00301,-0.04812 0.00301,-0.02105 0.00902,-0.03308 0.00752,-0.01353 0.016541,-0.01955 0.00902,-0.006 0.022556,-0.006 h 0.6180452 q 0.016541,0 0.033083,0.006 0.016541,0.006 0.030075,0.01805 0.013534,0.01203 0.021053,0.03308 0.00752,0.02105 0.00752,0.04812 v 0.741354 q 0,0.0391 -0.013534,0.06767 -0.013534,0.02857 -0.057143,0.05113 -0.043609,0.02105 -0.112782,0.04662 -0.069173,0.02556 -0.1428572,0.04361 -0.073684,0.01805 -0.1488722,0.02707 -0.075188,0.009 -0.1488722,0.009 -0.225564,0 -0.4030076,-0.06917 -0.1774437,-0.07068 -0.300752,-0.2 -0.1218045,-0.129324 -0.1864662,-0.309775 -0.064662,-0.180451 -0.064662,-0.403008 0,-0.231579 0.069173,-0.419549 0.070677,-0.187969 0.1969925,-0.3203 0.1278196,-0.132331 0.3052632,-0.204512 0.1789474,-0.07368 0.3954889,-0.07368 0.1112782,0 0.2090226,0.01955 0.097744,0.01955 0.1729323,0.04662 0.076692,0.02556 0.1278196,0.05714 0.052632,0.03008 0.07218,0.04962 0.019549,0.01955 0.027068,0.04511 0.00752,0.02556 0.00752,0.07368 z"
         id="path918" />
      <path
         d="m 6.5218045,89.381202 q 0.01203,0.03308 0.01203,0.05414 0.0015,0.01955 -0.010526,0.03007 -0.01203,0.01053 -0.040602,0.01353 -0.027068,0.003 -0.073684,0.003 -0.046616,0 -0.075188,-0.003 -0.027068,-0.0015 -0.042105,-0.006 -0.013534,-0.006 -0.021053,-0.01504 -0.00601,-0.009 -0.01203,-0.02256 L 6.0917292,88.961653 H 5.2827065 l -0.1593986,0.467669 q -0.00451,0.01353 -0.01203,0.02406 -0.00752,0.009 -0.022556,0.01654 -0.013534,0.006 -0.040602,0.009 -0.025564,0.003 -0.067669,0.003 -0.043609,0 -0.07218,-0.0045 -0.027068,-0.003 -0.039098,-0.01353 -0.010526,-0.01053 -0.010526,-0.03007 0.0015,-0.02105 0.013534,-0.05414 l 0.6526318,-1.807519 q 0.00601,-0.01654 0.015038,-0.02707 0.010526,-0.01053 0.028571,-0.01654 0.019549,-0.006 0.04812,-0.0075 0.030075,-0.003 0.075188,-0.003 0.04812,0 0.079699,0.003 0.031579,0.0015 0.051128,0.0075 0.019549,0.006 0.030075,0.01805 0.010526,0.01053 0.016541,0.02707 z m -0.8375942,-1.59549 h -0.0015 L 5.3473681,88.755638 H 6.02406 Z"
         id="path920" />
      <path
         d="m 7.8255643,87.638344 q 0,0.02857 -0.00301,0.04962 -0.00301,0.02105 -0.010526,0.03459 -0.00602,0.01203 -0.016541,0.01805 -0.00902,0.006 -0.021053,0.006 H 7.2270679 v 1.687218 q 0,0.01203 -0.00601,0.02105 -0.00602,0.009 -0.021053,0.01504 -0.015038,0.0045 -0.040602,0.0075 -0.02406,0.0045 -0.061654,0.0045 -0.03609,0 -0.061654,-0.0045 -0.025564,-0.003 -0.040602,-0.0075 -0.015038,-0.006 -0.021053,-0.01504 -0.00602,-0.009 -0.00602,-0.02105 V 87.746615 H 6.4210527 q -0.01203,0 -0.022556,-0.006 -0.00902,-0.006 -0.015038,-0.01805 -0.00602,-0.01353 -0.010526,-0.03459 -0.00301,-0.02105 -0.00301,-0.04962 0,-0.02857 0.00301,-0.04962 0.00451,-0.02256 0.010526,-0.03609 0.00601,-0.01353 0.015038,-0.01955 0.010526,-0.006 0.022556,-0.006 h 1.3533837 q 0.01203,0 0.021053,0.006 0.010526,0.006 0.016541,0.01955 0.00752,0.01353 0.010526,0.03609 0.00301,0.02105 0.00301,0.04962 z"
         id="path922" />
      <path
         d="m 9.1894741,89.366164 q 0,0.02707 -0.00301,0.04812 -0.00301,0.01955 -0.010526,0.03308 -0.00752,0.01353 -0.018045,0.01955 -0.00902,0.006 -0.021053,0.006 H 8.2030077 q -0.034587,0 -0.066165,-0.02256 -0.030075,-0.02406 -0.030075,-0.08271 v -1.735339 q 0,-0.05865 0.030075,-0.0812 0.031579,-0.02406 0.066165,-0.02406 h 0.9233085 q 0.01203,0 0.021053,0.006 0.010526,0.006 0.016541,0.01955 0.00601,0.01353 0.00902,0.03459 0.00451,0.01955 0.00451,0.04962 0,0.02707 -0.00451,0.04812 -0.00301,0.01955 -0.00902,0.03308 -0.00601,0.01203 -0.016541,0.01805 -0.00902,0.006 -0.021053,0.006 H 8.3654138 v 0.610527 h 0.6526317 q 0.01203,0 0.021053,0.0075 0.010526,0.006 0.016541,0.01804 0.00752,0.01203 0.010526,0.03308 0.00301,0.02105 0.00301,0.04962 0,0.02707 -0.00301,0.04662 -0.00301,0.01955 -0.010526,0.03158 -0.00601,0.01203 -0.016541,0.01805 -0.00902,0.0045 -0.021053,0.0045 H 8.3654138 v 0.696241 h 0.7714287 q 0.01203,0 0.021053,0.006 0.010526,0.006 0.018045,0.01955 0.00752,0.01203 0.010526,0.03308 0.00301,0.01955 0.00301,0.04962 z"
         id="path924" />
    </g>
    <g
       aria-label="MODE"
       id="text8544-7-1-5-2-7-7-6-0"
       style="font-size:3.07508px;line-height:1.25;font-family:Calibri;-inkscape-font-specification:Calibri;text-align:center;text-anchor:middle;fill:#000000;stroke-width:0.264583">
      <path
         d="m 5.9155407,76.432435 q 0,0.01201 -0.00601,0.02102 -0.00601,0.009 -0.021021,0.01501 -0.015015,0.0045 -0.039039,0.0075 -0.022522,0.0045 -0.06006,0.0045 -0.034535,0 -0.06006,-0.0045 -0.024024,-0.003 -0.039039,-0.0075 -0.013514,-0.006 -0.01952,-0.01501 -0.00601,-0.009 -0.00601,-0.02102 V 74.74024 h -0.003 l -0.6921932,1.699702 q -0.0045,0.01051 -0.013514,0.01802 -0.00751,0.0075 -0.024024,0.01351 -0.015015,0.0045 -0.037538,0.006 -0.021021,0.003 -0.051051,0.003 -0.031531,0 -0.054054,-0.003 -0.022523,-0.003 -0.037538,-0.0075 -0.015015,-0.006 -0.024024,-0.01351 -0.00751,-0.0075 -0.01051,-0.01652 L 4.0551774,74.74024 h -0.0015 v 1.692195 q 0,0.01201 -0.00601,0.02102 -0.00601,0.009 -0.021021,0.01501 -0.015015,0.0045 -0.039039,0.0075 -0.024024,0.0045 -0.061562,0.0045 -0.036036,0 -0.06006,-0.0045 -0.024024,-0.003 -0.039039,-0.0075 -0.013513,-0.006 -0.019519,-0.01501 -0.0045,-0.009 -0.0045,-0.02102 v -1.78679 q 0,-0.06306 0.033033,-0.09009 0.033033,-0.02703 0.073574,-0.02703 h 0.1561564 q 0.048048,0 0.084084,0.009 0.036036,0.009 0.063063,0.02853 0.027027,0.01952 0.045045,0.04955 0.018018,0.03003 0.031532,0.07057 l 0.563064,1.406909 h 0.00751 L 5.44557,74.69069 q 0.016516,-0.04505 0.036036,-0.07658 0.01952,-0.03153 0.042042,-0.04955 0.024024,-0.01952 0.052553,-0.02703 0.028529,-0.009 0.066066,-0.009 h 0.1636639 q 0.022523,0 0.042042,0.0075 0.021021,0.006 0.034535,0.02102 0.015015,0.01351 0.024024,0.03604 0.00901,0.02102 0.00901,0.05255 z"
         id="path909" />
      <path
         d="m 8.0596882,75.477478 q 0,0.235736 -0.055556,0.424926 -0.055556,0.189189 -0.1666669,0.322823 -0.1096098,0.132132 -0.2762767,0.204205 -0.1666669,0.07057 -0.3888895,0.07057 -0.2192196,0 -0.3798805,-0.06456 -0.1591594,-0.06607 -0.2642647,-0.190691 -0.1036037,-0.124625 -0.1546549,-0.30931 -0.051051,-0.184685 -0.051051,-0.424926 0,-0.22973 0.055556,-0.417418 0.055556,-0.187688 0.166667,-0.318319 0.1111113,-0.132132 0.2777782,-0.202703 0.1666669,-0.07207 0.3888895,-0.07207 0.214715,0 0.3738745,0.06457 0.1591594,0.06456 0.2642646,0.189189 0.1066068,0.123124 0.1576579,0.306307 0.052553,0.181682 0.052553,0.417418 z m -0.2717722,0.01802 q 0,-0.165165 -0.03003,-0.306307 -0.028529,-0.142642 -0.097598,-0.246246 -0.067568,-0.105106 -0.1816819,-0.163664 -0.1141143,-0.05856 -0.2822827,-0.05856 -0.1681685,0 -0.2822828,0.06306 -0.1141143,0.06306 -0.1861865,0.168169 -0.070571,0.105105 -0.1021022,0.246246 -0.03003,0.13964 -0.03003,0.294295 0,0.171172 0.028529,0.315316 0.028529,0.144144 0.096096,0.24925 0.067568,0.103603 0.1801805,0.162162 0.1141143,0.05706 0.2852857,0.05706 0.16967,0 0.2852858,-0.06306 0.1156158,-0.06306 0.1861864,-0.16967 0.070571,-0.108108 0.1006008,-0.24925 0.03003,-0.141141 0.03003,-0.298799 z"
         id="path911" />
      <path
         d="m 9.9620937,75.471472 q 0,0.252253 -0.064565,0.441442 -0.064565,0.187688 -0.1891895,0.312313 -0.1231233,0.123123 -0.3033037,0.184685 -0.1801805,0.06156 -0.4294302,0.06156 h -0.411412 q -0.034535,0 -0.066066,-0.02252 -0.03003,-0.02402 -0.03003,-0.08258 v -1.732735 q 0,-0.05856 0.03003,-0.08108 0.031532,-0.02402 0.066066,-0.02402 h 0.4399406 q 0.2522527,0 0.4264271,0.06607 0.1741745,0.06457 0.2912918,0.187688 0.1186188,0.121622 0.1786789,0.295796 0.061562,0.174175 0.061562,0.393394 z m -0.2717722,0.01051 q 0,-0.157658 -0.039039,-0.292794 -0.039039,-0.136636 -0.1231233,-0.235736 -0.082583,-0.0991 -0.2102106,-0.154655 -0.1276278,-0.05555 -0.3288293,-0.05555 H 8.726356 v 1.512014 h 0.2657662 q 0.1861865,0 0.3138143,-0.04655 0.1276278,-0.04655 0.2132135,-0.142643 0.085586,-0.0961 0.1276279,-0.240241 0.043544,-0.145646 0.043544,-0.343844 z"
         id="path913" />
      <path
         d="m 11.441075,76.364867 q 0,0.02703 -0.003,0.04805 -0.003,0.01952 -0.01051,0.03303 -0.0075,0.01351 -0.01802,0.01952 -0.009,0.006 -0.02102,0.006 h -0.932434 q -0.03453,0 -0.06607,-0.02252 -0.03003,-0.02402 -0.03003,-0.08258 v -1.732735 q 0,-0.05856 0.03003,-0.08108 0.03153,-0.02402 0.06607,-0.02402 h 0.921924 q 0.01201,0 0.02102,0.006 0.01051,0.006 0.01652,0.01952 0.006,0.01351 0.009,0.03454 0.0045,0.01952 0.0045,0.04955 0,0.02703 -0.0045,0.04805 -0.003,0.01952 -0.009,0.03303 -0.006,0.01201 -0.01652,0.01802 -0.009,0.006 -0.02102,0.006 h -0.759761 v 0.60961 h 0.651652 q 0.01201,0 0.02102,0.0075 0.01051,0.006 0.01652,0.01802 0.0075,0.01201 0.01051,0.03303 0.003,0.02102 0.003,0.04955 0,0.02703 -0.003,0.04655 -0.003,0.01952 -0.01051,0.03153 -0.006,0.01201 -0.01652,0.01802 -0.009,0.0045 -0.02102,0.0045 h -0.651652 v 0.695197 h 0.770271 q 0.01201,0 0.02102,0.006 0.01051,0.006 0.01802,0.01952 0.0075,0.01201 0.01051,0.03303 0.003,0.01952 0.003,0.04955 z"
         id="path915" />
    </g>
    <g
       aria-label="IN"
       id="text8544-7-1-5-2-2-3-0"
       style="font-size:3.13629px;line-height:1.25;font-family:Calibri;-inkscape-font-specification:Calibri;text-align:center;text-anchor:middle;fill:#000000;stroke-width:0.264583">
      <path
         d="m 6.7414495,102.45099 q 0,0.0122 -0.00613,0.0214 -0.00613,0.009 -0.02144,0.0153 -0.015314,0.005 -0.041348,0.008 -0.024502,0.005 -0.062787,0.005 -0.036753,0 -0.062787,-0.005 -0.026034,-0.003 -0.041348,-0.008 -0.015314,-0.006 -0.021439,-0.0153 -0.00613,-0.009 -0.00613,-0.0214 V 100.549 q 0,-0.0123 0.00613,-0.0214 0.00766,-0.009 0.022971,-0.0138 0.016845,-0.006 0.041348,-0.009 0.026034,-0.005 0.061256,-0.005 0.038285,0 0.062787,0.005 0.026034,0.003 0.041348,0.009 0.015314,0.005 0.02144,0.0138 0.00613,0.009 0.00613,0.0214 z"
         id="path904" />
      <path
         d="m 8.7659493,102.38208 q 0,0.0306 -0.01072,0.0521 -0.00919,0.0214 -0.026034,0.0352 -0.015314,0.0138 -0.035222,0.0199 -0.019908,0.006 -0.039816,0.006 h -0.084227 q -0.039816,0 -0.070444,-0.008 -0.029097,-0.009 -0.056662,-0.0306 -0.026034,-0.023 -0.053599,-0.0613 -0.026034,-0.0383 -0.058193,-0.098 l -0.6248078,-1.1271 q -0.049004,-0.0873 -0.09954,-0.18224 -0.049005,-0.0965 -0.091883,-0.18683 h -0.00306 q 0.00306,0.11026 0.00459,0.22512 0.00153,0.11485 0.00153,0.22817 v 1.19602 q 0,0.0107 -0.00613,0.0214 -0.00613,0.009 -0.021439,0.0153 -0.013783,0.005 -0.038285,0.008 -0.022971,0.005 -0.059724,0.005 -0.036753,0 -0.061256,-0.005 -0.022971,-0.003 -0.036753,-0.008 -0.013782,-0.006 -0.019908,-0.0153 -0.00613,-0.0107 -0.00613,-0.0214 v -1.82848 q 0,-0.0613 0.033691,-0.0873 0.033691,-0.026 0.073507,-0.026 h 0.1255741 q 0.04441,0 0.073507,0.008 0.030628,0.008 0.053599,0.026 0.024502,0.0168 0.045942,0.049 0.022971,0.0306 0.049004,0.0781 l 0.480857,0.86983 q 0.04441,0.0796 0.085758,0.1562 0.041348,0.075 0.079632,0.14855 0.038285,0.0735 0.075038,0.14548 0.038285,0.0705 0.075038,0.14242 h 0.00153 q -0.00306,-0.12098 -0.00459,-0.25115 0,-0.1317 0,-0.25268 v -1.07503 q 0,-0.0107 0.00613,-0.0199 0.00613,-0.009 0.019908,-0.0153 0.015314,-0.008 0.038285,-0.0107 0.024502,-0.003 0.062787,-0.003 0.033691,0 0.058193,0.003 0.024502,0.003 0.038285,0.0107 0.013783,0.006 0.019908,0.0153 0.00613,0.009 0.00613,0.0199 z"
         id="path906" />
    </g>
    <path
       id="rect10313-5-0-2"
       style="fill:#fafafa;stroke:#fafafa;stroke-width:0.1"
       d="M 3.1219997,6 H 12.122 c 0.831,0 1.5,0.6689998 1.5,1.4999995 V 45.5 c 0,0.831 -0.669,1.5 -1.5,1.5 H 3.1219997 C 2.2909999,47 1.622,46.331 1.622,45.5 V 7.4999995 C 1.622,6.6689998 2.2909999,6 3.1219997,6 Z" />
    <path
       id="rect10313-6-1-7-4"
       style="fill:#bbbbbb;stroke:#bbbbbb;stroke-width:0.1"
       d="m 3.1746907,48 h 9.0000003 c 0.831,0 1.5,0.83625 1.5,1.875 v 9.25 c 0,1.03875 -0.669,1.875 -1.5,1.875 H 3.1746907 C 2.3436909,61 1.674691,60.16375 1.674691,59.125 v -9.25 C 1.674691,48.83625 2.3436909,48 3.1746907,48 Z" />
    <path
       d="m 5.1548168,14.149712 a 3.4891158,3.5941528 0 1 1 4.9343542,0"
       fill="none"
       stroke="#010101"
       stroke-linecap="round"
       stroke-linejoin="round"
       id="path66-2-1"
       style="display:inline;stroke:#000000;stroke-width:0.264583;stroke-opacity:1" />
    <g
       aria-label="OUT"
       id="text8544-7-1-9-8-3-7"
       style="font-size:3.07508px;line-height:1.25;font-family:Calibri;-inkscape-font-specification:Calibri;text-align:center;text-anchor:middle;fill:#000000;stroke-width:0.264583">
      <path
         d="m 6.6910674,58.977482 q 0,0.235736 -0.055556,0.424926 -0.055556,0.189189 -0.1666669,0.322823 -0.1096098,0.132132 -0.2762767,0.204204 -0.166667,0.07057 -0.3888895,0.07057 -0.2192196,0 -0.3798805,-0.06457 -0.1591594,-0.06607 -0.2642647,-0.190691 -0.1036037,-0.124624 -0.1546549,-0.309309 -0.051051,-0.184685 -0.051051,-0.424926 0,-0.22973 0.055556,-0.417418 0.055556,-0.187688 0.166667,-0.318319 0.1111112,-0.132132 0.2777782,-0.202703 0.1666669,-0.07207 0.3888895,-0.07207 0.214715,0 0.3738744,0.06457 0.1591594,0.06456 0.2642647,0.189189 0.1066068,0.123123 0.1576579,0.306307 0.052553,0.181682 0.052553,0.417418 z M 6.4192952,58.9955 q 0,-0.165165 -0.03003,-0.306307 -0.028529,-0.142643 -0.097598,-0.246246 -0.067568,-0.105106 -0.1816819,-0.163664 -0.1141143,-0.05856 -0.2822828,-0.05856 -0.1681684,0 -0.2822827,0.06306 -0.1141143,0.06306 -0.1861865,0.168169 -0.070571,0.105105 -0.1021022,0.246246 -0.03003,0.13964 -0.03003,0.294295 0,0.171171 0.028529,0.315316 0.028529,0.144144 0.096096,0.249249 0.067568,0.103604 0.1801805,0.162163 0.1141143,0.05706 0.2852857,0.05706 0.1696699,0 0.2852857,-0.06306 0.1156158,-0.06306 0.1861865,-0.16967 0.070571,-0.108108 0.1006008,-0.24925 0.03003,-0.141141 0.03003,-0.298799 z"
         id="path895" />
      <path
         d="m 8.5604398,59.253759 q 0,0.177177 -0.052553,0.316817 -0.051051,0.138138 -0.1471473,0.234235 -0.096096,0.0961 -0.2342346,0.145645 -0.1381384,0.04955 -0.3138143,0.04955 -0.160661,0 -0.2927933,-0.04655 -0.1321323,-0.04655 -0.2267271,-0.136636 -0.094595,-0.09159 -0.1456459,-0.228229 -0.051051,-0.136637 -0.051051,-0.315316 v -1.205707 q 0,-0.01201 0.00601,-0.02102 0.00601,-0.009 0.021021,-0.01351 0.015015,-0.006 0.039039,-0.009 0.024024,-0.0045 0.063063,-0.0045 0.036036,0 0.061562,0.0045 0.025526,0.003 0.039039,0.009 0.015015,0.0045 0.021021,0.01351 0.00601,0.009 0.00601,0.02102 v 1.174176 q 0,0.135135 0.033033,0.235736 0.033033,0.1006 0.094595,0.168168 0.063063,0.06607 0.1501504,0.100601 0.088589,0.03303 0.1981985,0.03303 0.1126128,0 0.1997,-0.03303 0.088589,-0.03303 0.1486489,-0.0991 0.061562,-0.06607 0.093093,-0.163664 0.033033,-0.0976 0.033033,-0.228229 v -1.187689 q 0,-0.01201 0.00601,-0.02102 0.00601,-0.009 0.021021,-0.01351 0.015015,-0.006 0.039039,-0.009 0.025526,-0.0045 0.063063,-0.0045 0.036036,0 0.06006,0.0045 0.025526,0.003 0.039039,0.009 0.015015,0.0045 0.021021,0.01351 0.00751,0.009 0.00751,0.02102 z"
         id="path897" />
      <path
         d="m 10.290172,58.139643 q 0,0.02853 -0.003,0.04955 -0.003,0.02102 -0.01051,0.03453 -0.006,0.01201 -0.01652,0.01802 -0.009,0.006 -0.02102,0.006 H 9.6925738 v 1.684687 q 0,0.01201 -0.00601,0.02102 -0.00601,0.009 -0.021021,0.01502 -0.015015,0.0045 -0.040541,0.0075 -0.024024,0.0045 -0.061562,0.0045 -0.036036,0 -0.061562,-0.0045 -0.025526,-0.003 -0.040541,-0.0075 -0.015015,-0.006 -0.021021,-0.01502 -0.00601,-0.009 -0.00601,-0.02102 V 58.247751 H 8.8877678 q -0.012012,0 -0.022523,-0.006 -0.00901,-0.006 -0.015015,-0.01802 -0.00601,-0.01351 -0.010511,-0.03453 -0.003,-0.02102 -0.003,-0.04955 0,-0.02853 0.003,-0.04955 0.0045,-0.02252 0.010511,-0.03604 0.00601,-0.01351 0.015015,-0.01952 0.01051,-0.006 0.022523,-0.006 h 1.3513532 q 0.01201,0 0.02102,0.006 0.01051,0.006 0.01652,0.01952 0.0075,0.01351 0.01051,0.03604 0.003,0.02102 0.003,0.04955 z"
         id="path899" />
    </g>
    <g
       aria-label="GATE"
       id="text8544-7-1-5-7-3-0-8"
       style="font-size:3.0797px;line-height:1.25;font-family:Calibri;-inkscape-font-specification:Calibri;text-align:center;text-anchor:middle;fill:#000000;stroke-width:0.264582">
      <path
         d="m 4.5834582,30.791727 q 0,0.02857 -0.00301,0.05113 -0.00301,0.02105 -0.00902,0.03609 -0.00602,0.01353 -0.015038,0.01955 -0.00902,0.006 -0.019549,0.006 -0.018045,0 -0.06015,-0.02857 -0.042105,-0.02857 -0.112782,-0.06316 -0.070677,-0.03459 -0.1699248,-0.06316 -0.097744,-0.02857 -0.2330828,-0.02857 -0.1609023,0 -0.2887219,0.05865 -0.1278195,0.05865 -0.2165414,0.162406 -0.088722,0.10376 -0.1368421,0.246617 -0.046617,0.142857 -0.046617,0.309775 0,0.186466 0.051128,0.330827 0.052632,0.144361 0.1443609,0.243609 0.091729,0.09925 0.2180452,0.150376 0.1278196,0.05113 0.2796993,0.05113 0.090226,0 0.1819549,-0.02105 0.093233,-0.02256 0.1729324,-0.06617 V 31.620299 H 3.8691723 q -0.025564,0 -0.039098,-0.02556 -0.01203,-0.02556 -0.01203,-0.0797 0,-0.02857 0.00301,-0.04812 0.00301,-0.02105 0.00902,-0.03308 0.00752,-0.01353 0.016541,-0.01955 0.00902,-0.006 0.022556,-0.006 h 0.6180452 q 0.016541,0 0.033083,0.006 0.016541,0.006 0.030075,0.01805 0.013534,0.01203 0.021053,0.03308 0.00752,0.02105 0.00752,0.04812 v 0.741354 q 0,0.0391 -0.013534,0.06767 -0.013534,0.02857 -0.057143,0.05113 -0.043609,0.02105 -0.112782,0.04662 -0.069173,0.02556 -0.1428572,0.04361 -0.073684,0.01804 -0.1488722,0.02707 -0.075188,0.009 -0.1488722,0.009 -0.225564,0 -0.4030076,-0.06917 -0.1774437,-0.07068 -0.300752,-0.2 -0.1218045,-0.129324 -0.1864662,-0.309775 -0.064662,-0.180451 -0.064662,-0.403008 0,-0.231579 0.069173,-0.419549 0.070677,-0.187969 0.1969925,-0.3203 0.1278196,-0.132331 0.3052632,-0.204512 0.1789474,-0.07368 0.3954889,-0.07368 0.1112782,0 0.2090226,0.01955 0.097744,0.01955 0.1729323,0.04662 0.076692,0.02556 0.1278196,0.05714 0.052632,0.03008 0.07218,0.04962 0.019549,0.01955 0.027068,0.04511 0.00752,0.02556 0.00752,0.07368 z"
         id="path886" />
      <path
         d="m 6.5218045,32.381202 q 0.01203,0.03308 0.01203,0.05413 0.0015,0.01955 -0.010526,0.03008 -0.01203,0.01053 -0.040602,0.01353 -0.027068,0.003 -0.073684,0.003 -0.046616,0 -0.075188,-0.003 -0.027068,-0.0015 -0.042105,-0.006 -0.013534,-0.006 -0.021053,-0.01504 -0.00601,-0.009 -0.01203,-0.02256 L 6.0917292,31.961653 H 5.2827065 l -0.1593986,0.467669 q -0.00451,0.01353 -0.01203,0.02406 -0.00752,0.009 -0.022556,0.01654 -0.013534,0.006 -0.040602,0.009 -0.025564,0.003 -0.067669,0.003 -0.043609,0 -0.07218,-0.0045 -0.027068,-0.003 -0.039098,-0.01353 -0.010526,-0.01053 -0.010526,-0.03008 0.0015,-0.02105 0.013534,-0.05414 l 0.6526318,-1.807519 q 0.00601,-0.01654 0.015038,-0.02707 0.010526,-0.01053 0.028571,-0.01654 0.019549,-0.006 0.04812,-0.0075 0.030075,-0.003 0.075188,-0.003 0.04812,0 0.079699,0.003 0.031579,0.0015 0.051128,0.0075 0.019549,0.006 0.030075,0.01805 0.010526,0.01053 0.016541,0.02707 z m -0.8375942,-1.59549 h -0.0015 L 5.3473681,31.755638 H 6.02406 Z"
         id="path888" />
      <path
         d="m 7.8255643,30.638344 q 0,0.02857 -0.00301,0.04962 -0.00301,0.02105 -0.010526,0.03459 -0.00602,0.01203 -0.016541,0.01805 -0.00902,0.006 -0.021053,0.006 H 7.2270679 v 1.687218 q 0,0.01203 -0.00601,0.02105 -0.00602,0.009 -0.021053,0.01504 -0.015038,0.0045 -0.040602,0.0075 -0.02406,0.0045 -0.061654,0.0045 -0.03609,0 -0.061654,-0.0045 -0.025564,-0.003 -0.040602,-0.0075 -0.015038,-0.006 -0.021053,-0.01504 -0.00602,-0.009 -0.00602,-0.02105 V 30.746615 H 6.4210527 q -0.01203,0 -0.022556,-0.006 -0.00902,-0.006 -0.015038,-0.01805 -0.00602,-0.01353 -0.010526,-0.03459 -0.00301,-0.02105 -0.00301,-0.04962 0,-0.02857 0.00301,-0.04962 0.00451,-0.02256 0.010526,-0.03609 0.00601,-0.01353 0.015038,-0.01955 0.010526,-0.006 0.022556,-0.006 h 1.3533837 q 0.01203,0 0.021053,0.006 0.010526,0.006 0.016541,0.01955 0.00752,0.01353 0.010526,0.03609 0.00301,0.02105 0.00301,0.04962 z"
         id="path890" />
      <path
         d="m 9.1894741,32.366164 q 0,0.02707 -0.00301,0.04812 -0.00301,0.01955 -0.010526,0.03308 -0.00752,0.01353 -0.018045,0.01955 -0.00902,0.006 -0.021053,0.006 H 8.2030077 q -0.034587,0 -0.066165,-0.02256 -0.030075,-0.02406 -0.030075,-0.08271 v -1.735339 q 0,-0.05865 0.030075,-0.0812 0.031579,-0.02406 0.066165,-0.02406 h 0.9233085 q 0.01203,0 0.021053,0.006 0.010526,0.006 0.016541,0.01955 0.00601,0.01353 0.00902,0.03459 0.00451,0.01955 0.00451,0.04962 0,0.02707 -0.00451,0.04812 -0.00301,0.01955 -0.00902,0.03308 -0.00601,0.01203 -0.016541,0.01804 -0.00902,0.006 -0.021053,0.006 H 8.3654138 v 0.610527 h 0.6526317 q 0.01203,0 0.021053,0.0075 0.010526,0.006 0.016541,0.01805 0.00752,0.01203 0.010526,0.03308 0.00301,0.02105 0.00301,0.04962 0,0.02707 -0.00301,0.04662 -0.00301,0.01955 -0.010526,0.03158 -0.00601,0.01203 -0.016541,0.01805 -0.00902,0.0045 -0.021053,0.0045 H 8.3654138 v 0.696241 h 0.7714287 q 0.01203,0 0.021053,0.006 0.010526,0.006 0.018045,0.01955 0.00752,0.01203 0.010526,0.03308 0.00301,0.01955 0.00301,0.04962 z"
         id="path892" />
    </g>
    <g
       aria-label="MODE"
       id="text8544-7-1-5-2-7-7-6-0-2"
       style="font-size:3.07508px;line-height:1.25;font-family:Calibri;-inkscape-font-specification:Calibri;text-align:center;text-anchor:middle;fill:#000000;stroke-width:0.264583">
      <path
         d="m 5.9155407,19.432433 q 0,0.01201 -0.00601,0.02102 -0.00601,0.009 -0.021021,0.01501 -0.015015,0.0045 -0.039039,0.0075 -0.022522,0.0045 -0.06006,0.0045 -0.034535,0 -0.06006,-0.0045 -0.024024,-0.003 -0.039039,-0.0075 -0.013514,-0.006 -0.01952,-0.01501 -0.00601,-0.009 -0.00601,-0.02102 v -1.692195 h -0.003 L 4.9695933,19.43994 q -0.0045,0.01051 -0.013514,0.01802 -0.00751,0.0075 -0.024024,0.01351 -0.015015,0.0045 -0.037538,0.006 -0.021021,0.003 -0.051051,0.003 -0.031531,0 -0.054054,-0.003 -0.022523,-0.003 -0.037538,-0.0075 -0.015015,-0.006 -0.024024,-0.01351 -0.00751,-0.0075 -0.01051,-0.01652 L 4.0551774,17.740238 h -0.0015 v 1.692195 q 0,0.01201 -0.00601,0.02102 -0.00601,0.009 -0.021021,0.01501 -0.015015,0.0045 -0.039039,0.0075 -0.024024,0.0045 -0.061562,0.0045 -0.036036,0 -0.06006,-0.0045 -0.024024,-0.003 -0.039039,-0.0075 -0.013513,-0.006 -0.019519,-0.01501 -0.0045,-0.009 -0.0045,-0.02102 v -1.78679 q 0,-0.06306 0.033033,-0.09009 0.033033,-0.02703 0.073574,-0.02703 h 0.1561564 q 0.048048,0 0.084084,0.009 0.036036,0.009 0.063063,0.02853 0.027027,0.01952 0.045045,0.04955 0.018018,0.03003 0.031532,0.07057 l 0.563064,1.406909 h 0.00751 L 5.44557,17.690688 q 0.016516,-0.04505 0.036036,-0.07658 0.01952,-0.03153 0.042042,-0.04955 0.024024,-0.01952 0.052553,-0.02703 0.028529,-0.009 0.066066,-0.009 h 0.1636639 q 0.022523,0 0.042042,0.0075 0.021021,0.006 0.034535,0.02102 0.015015,0.01351 0.024024,0.03604 0.00901,0.02102 0.00901,0.05255 z"
         id="path877" />
      <path
         d="m 8.0596882,18.477476 q 0,0.235736 -0.055556,0.424926 -0.055556,0.189189 -0.1666669,0.322823 Q 7.7278558,19.357357 7.5611889,19.42943 7.394522,19.5 7.1722994,19.5 6.9530798,19.5 6.7924189,19.435436 6.6332595,19.36937 6.5281542,19.244745 6.4245505,19.12012 6.3734993,18.935435 6.3224482,18.75075 6.3224482,18.510509 q 0,-0.22973 0.055556,-0.417418 0.055556,-0.187688 0.166667,-0.318319 0.1111113,-0.132132 0.2777782,-0.202703 0.1666669,-0.07207 0.3888895,-0.07207 0.214715,0 0.3738745,0.06456 0.1591594,0.06457 0.2642646,0.189189 0.1066068,0.123124 0.1576579,0.306307 0.052553,0.181682 0.052553,0.417418 z m -0.2717722,0.01802 q 0,-0.165165 -0.03003,-0.306307 -0.028529,-0.142642 -0.097598,-0.246246 -0.067568,-0.105105 -0.1816819,-0.163664 -0.1141143,-0.05856 -0.2822827,-0.05856 -0.1681685,0 -0.2822828,0.06306 -0.1141143,0.06306 -0.1861865,0.168169 -0.070571,0.105105 -0.1021022,0.246247 -0.03003,0.139639 -0.03003,0.294294 0,0.171172 0.028529,0.315316 0.028529,0.144144 0.096096,0.24925 0.067568,0.103603 0.1801805,0.162162 0.1141143,0.05706 0.2852857,0.05706 0.16967,0 0.2852858,-0.06306 0.1156158,-0.06306 0.1861864,-0.16967 0.070571,-0.108108 0.1006008,-0.249249 0.03003,-0.141142 0.03003,-0.2988 z"
         id="path879" />
      <path
         d="m 9.9620937,18.47147 q 0,0.252253 -0.064565,0.441442 -0.064565,0.187688 -0.1891895,0.312313 -0.1231233,0.123123 -0.3033037,0.184685 -0.1801805,0.06156 -0.4294302,0.06156 h -0.411412 q -0.034535,0 -0.066066,-0.02252 -0.03003,-0.02402 -0.03003,-0.08258 v -1.732736 q 0,-0.05856 0.03003,-0.08108 0.031532,-0.02402 0.066066,-0.02402 h 0.4399406 q 0.2522527,0 0.4264271,0.06607 0.1741745,0.06457 0.2912918,0.187688 0.1186188,0.121622 0.1786789,0.295796 0.061562,0.174175 0.061562,0.393394 z m -0.2717722,0.01051 q 0,-0.157658 -0.039039,-0.292794 -0.039039,-0.136636 -0.1231233,-0.235736 -0.082583,-0.0991 -0.2102106,-0.154655 -0.1276278,-0.05555 -0.3288293,-0.05555 H 8.726356 v 1.512014 h 0.2657662 q 0.1861865,0 0.3138143,-0.04655 0.1276278,-0.04655 0.2132135,-0.142643 0.085586,-0.0961 0.1276279,-0.240241 0.043544,-0.145646 0.043544,-0.343844 z"
         id="path881" />
      <path
         d="m 11.441075,19.364865 q 0,0.02703 -0.003,0.04805 -0.003,0.01952 -0.01051,0.03303 -0.0075,0.01351 -0.01802,0.01952 -0.009,0.006 -0.02102,0.006 h -0.932434 q -0.03453,0 -0.06607,-0.02252 -0.03003,-0.02402 -0.03003,-0.08258 v -1.732736 q 0,-0.05856 0.03003,-0.08108 0.03153,-0.02402 0.06607,-0.02402 h 0.921924 q 0.01201,0 0.02102,0.006 0.01051,0.006 0.01652,0.01952 0.006,0.01351 0.009,0.03453 0.0045,0.01952 0.0045,0.04955 0,0.02703 -0.0045,0.04805 -0.003,0.01952 -0.009,0.03303 -0.006,0.01201 -0.01652,0.01802 -0.009,0.006 -0.02102,0.006 h -0.759761 v 0.60961 h 0.651652 q 0.01201,0 0.02102,0.0075 0.01051,0.006 0.01652,0.01802 0.0075,0.01201 0.01051,0.03303 0.003,0.02102 0.003,0.04955 0,0.02703 -0.003,0.04655 -0.003,0.01952 -0.01051,0.03153 -0.006,0.01201 -0.01652,0.01802 -0.009,0.0045 -0.02102,0.0045 h -0.651652 v 0.695197 h 0.770271 q 0.01201,0 0.02102,0.006 0.01051,0.006 0.01802,0.01952 0.0075,0.01201 0.01051,0.03303 0.003,0.01952 0.003,0.04955 z"
         id="path883" />
    </g>
    <g
       aria-label="IN"
       id="text8544-7-1-5-2-2-3-0-5"
       style="font-size:3.13629px;line-height:1.25;font-family:Calibri;-inkscape-font-specification:Calibri;text-align:center;text-anchor:middle;fill:#000000;stroke-width:0.264583">
      <path
         d="m 6.7414495,45.450994 q 0,0.01225 -0.00613,0.02144 -0.00613,0.0092 -0.02144,0.01531 -0.015314,0.0046 -0.041348,0.0077 -0.024502,0.0046 -0.062787,0.0046 -0.036753,0 -0.062787,-0.0046 -0.026034,-0.0031 -0.041348,-0.0077 -0.015314,-0.0061 -0.021439,-0.01531 -0.00613,-0.0092 -0.00613,-0.02144 v -1.901988 q 0,-0.01225 0.00613,-0.02144 0.00766,-0.0092 0.022971,-0.01378 0.016845,-0.0061 0.041348,-0.0092 0.026034,-0.0046 0.061256,-0.0046 0.038285,0 0.062787,0.0046 0.026034,0.0031 0.041348,0.0092 0.015314,0.0046 0.02144,0.01378 0.00613,0.0092 0.00613,0.02144 z"
         id="path872" />
      <path
         d="m 8.7659493,45.382082 q 0,0.03063 -0.01072,0.05207 -0.00919,0.02144 -0.026034,0.03522 -0.015314,0.01378 -0.035222,0.01991 -0.019908,0.0061 -0.039816,0.0061 h -0.084227 q -0.039816,0 -0.070444,-0.0077 -0.029097,-0.0092 -0.056662,-0.03063 -0.026034,-0.02297 -0.053599,-0.06126 -0.026034,-0.03829 -0.058193,-0.09801 L 7.7062263,44.170751 q -0.049004,-0.08729 -0.09954,-0.182236 -0.049005,-0.09648 -0.091883,-0.18683 h -0.00306 q 0.00306,0.110261 0.00459,0.225115 0.00153,0.114854 0.00153,0.228177 v 1.196017 q 0,0.01072 -0.00613,0.02144 -0.00613,0.0092 -0.021439,0.01531 -0.013783,0.0046 -0.038285,0.0077 -0.022971,0.0046 -0.059724,0.0046 -0.036753,0 -0.061256,-0.0046 -0.022971,-0.0031 -0.036753,-0.0077 -0.013782,-0.0061 -0.019908,-0.01531 -0.00613,-0.01072 -0.00613,-0.02144 v -1.828481 q 0,-0.06126 0.033691,-0.08729 0.033691,-0.02603 0.073507,-0.02603 h 0.1255741 q 0.04441,0 0.073507,0.0077 0.030628,0.0077 0.053599,0.02603 0.024502,0.01685 0.045942,0.04901 0.022971,0.03063 0.049004,0.0781 l 0.480857,0.86983 q 0.04441,0.07963 0.085758,0.156202 0.041348,0.07504 0.079632,0.148545 0.038285,0.07351 0.075038,0.145482 0.038285,0.07044 0.075038,0.14242 h 0.00153 q -0.00306,-0.12098 -0.00459,-0.251148 0,-0.1317 0,-0.25268 V 43.5536 q 0,-0.01072 0.00613,-0.01991 0.00613,-0.0092 0.019908,-0.01531 0.015314,-0.0077 0.038285,-0.01072 0.024502,-0.0031 0.062787,-0.0031 0.033691,0 0.058193,0.0031 0.024502,0.0031 0.038285,0.01072 0.013783,0.0061 0.019908,0.01531 0.00613,0.0092 0.00613,0.01991 z"
         id="path874" />
    </g>
  </g>
</svg>
