<?xml version="1.0" encoding="UTF-8" standalone="no"?>
<!-- Created with Inkscape (http://www.inkscape.org/) -->

<svg
   width="15.24mm"
   height="128.5mm"
   viewBox="0 0 15.24 128.5"
   version="1.1"
   id="svg5"
   inkscape:version="1.3.1 (91b66b0783, 2023-11-16)"
   sodipodi:docname="VCASR.svg"
   xmlns:inkscape="http://www.inkscape.org/namespaces/inkscape"
   xmlns:sodipodi="http://sodipodi.sourceforge.net/DTD/sodipodi-0.dtd"
   xmlns="http://www.w3.org/2000/svg"
   xmlns:svg="http://www.w3.org/2000/svg">
  <sodipodi:namedview
     id="namedview7"
     pagecolor="#ffffff"
     bordercolor="#666666"
     borderopacity="1.0"
     inkscape:pageshadow="2"
     inkscape:pageopacity="0.0"
     inkscape:pagecheckerboard="0"
     inkscape:document-units="mm"
     showgrid="false"
     height="128.5mm"
     inkscape:zoom="5.730234"
     inkscape:cx="-45.198852"
     inkscape:cy="372.14885"
     inkscape:window-width="2496"
     inkscape:window-height="1558"
     inkscape:window-x="-11"
     inkscape:window-y="-11"
     inkscape:window-maximized="1"
     inkscape:current-layer="layer1"
     inkscape:showpageshadow="2"
     inkscape:deskcolor="#d1d1d1" />
  <defs
     id="defs2">
    <rect
       x="-215.5"
       y="107"
       width="105.5"
       height="156"
       id="rect74366" />
  </defs>
  <g
     inkscape:label="Layer 1"
     inkscape:groupmode="layer"
     id="layer1">
    <path
       id="rect4302"
       style="fill:#dddddd;stroke-width:0.184931"
       d="M -0.00163784,1.6577559e-8 H 15.242541 V 128.50433 H -0.00163784 Z" />
    <path
       id="rect10313-6"
       style="fill:#bbbbbb;stroke:#bbbbbb;stroke-width:0.1"
       transform="matrix(1,0,0.00192495,0.99999815,0,0)"
       d="m 2.9323173,77.000145 h 9.0000007 c 0.831,0 1.499999,0.668997 1.499999,1.499994 v 38.000091 c 0,0.83099 -0.668999,1.49999 -1.499999,1.49999 H 2.9323173 c -0.8309999,0 -1.4999998,-0.669 -1.4999998,-1.49999 V 78.500139 c 0,-0.830997 0.6689999,-1.499994 1.4999998,-1.499994 z" />
    <path
       id="rect10313"
       style="fill:#fafafa;stroke:#fafafa;stroke-width:0.1"
       d="m 3.0805384,6 h 9.0000006 c 0.831,0 1.5,0.6689999 1.5,1.4999998 V 74.5 c 0,0.831 -0.669,1.5 -1.5,1.5 H 3.0805384 C 2.2495385,76 1.5805386,75.331 1.5805386,74.5 V 7.4999998 C 1.5805386,6.6689999 2.2495385,6 3.0805384,6 Z" />
    <path
       id="rect10313-4"
       style="fill:#fafafa;stroke-width:0.264583"
       d="m 3.1204513,136.22836 h 9.0000007 c 0.831,0 1.5,0.669 1.5,1.5 v 9.59748 c 0,0.831 -0.669,1.5 -1.5,1.5 H 3.1204513 c -0.8309998,0 -1.4999997,-0.669 -1.4999997,-1.5 v -9.59748 c 0,-0.831 0.6689999,-1.5 1.4999997,-1.5 z" />
    <path
       style="font-weight:300;font-size:2.46944px;line-height:1.25;font-family:Calibri;-inkscape-font-specification:'Calibri Light';text-align:center;text-anchor:middle;fill:#000000;stroke-width:0.264583"
       d="m 3.1378681,125.36831 q 0,0.0145 -0.00362,0.0277 -0.00241,0.0121 -0.00844,0.0217 -0.00482,0.008 -0.013264,0.0133 -0.00844,0.005 -0.019293,0.005 H 2.2504131 q -0.010852,0 -0.020498,-0.004 -0.00965,-0.004 -0.016881,-0.0109 -0.00723,-0.008 -0.010852,-0.0217 -0.00362,-0.0133 -0.00362,-0.0314 0,-0.0157 0.00121,-0.0277 0.00121,-0.0121 0.00482,-0.0217 0.00362,-0.01 0.00965,-0.0193 0.00603,-0.01 0.015675,-0.0205 l 0.319532,-0.33762 q 0.1193724,-0.1254 0.1893077,-0.22428 0.071141,-0.0989 0.1085203,-0.17845 0.037379,-0.0796 0.048231,-0.1447 0.012058,-0.0651 0.012058,-0.12299 0,-0.0579 -0.019293,-0.10972 -0.018087,-0.0531 -0.05426,-0.0916 -0.036173,-0.0398 -0.090434,-0.0627 -0.053054,-0.0241 -0.1229897,-0.0241 -0.075964,0 -0.1362533,0.0217 -0.060289,0.0205 -0.1061087,0.047 -0.044614,0.0253 -0.074758,0.047 -0.030145,0.0205 -0.044614,0.0205 -0.00723,0 -0.013264,-0.004 -0.00603,-0.004 -0.010852,-0.0109 -0.00362,-0.008 -0.00603,-0.0205 -0.00121,-0.0121 -0.00121,-0.0277 0,-0.0145 0.00121,-0.0241 0.00121,-0.01 0.00362,-0.0169 0.00241,-0.008 0.00603,-0.0157 0.00482,-0.007 0.018087,-0.0193 0.014469,-0.0121 0.047026,-0.0326 0.033762,-0.0205 0.084405,-0.041 0.050643,-0.0217 0.1121377,-0.0362 0.061495,-0.0157 0.1278128,-0.0157 0.1097261,0 0.1905134,0.0326 0.081993,0.0326 0.1362533,0.088 0.05426,0.0555 0.080787,0.12901 0.026527,0.0724 0.026527,0.15314 0,0.0748 -0.013264,0.14952 -0.012058,0.0736 -0.05426,0.16157 -0.040997,0.0868 -0.1205781,0.19293 -0.078376,0.1061 -0.209806,0.24477 l -0.2845643,0.29783 h 0.7138225 q 0.00965,0 0.018087,0.005 0.00844,0.004 0.014469,0.0121 0.00603,0.008 0.00844,0.0205 0.00362,0.0121 0.00362,0.0265 z m 1.7266787,0 q 0,0.0169 -0.00241,0.0289 -0.00241,0.0121 -0.00723,0.0217 -0.00482,0.008 -0.012058,0.0133 -0.00723,0.004 -0.016881,0.004 H 4.1495185 q -0.021704,0 -0.044614,-0.0157 -0.02291,-0.0169 -0.02291,-0.0603 v -1.4602 q 0,-0.007 0.00362,-0.0133 0.00362,-0.006 0.012058,-0.01 0.00844,-0.004 0.02291,-0.006 0.014469,-0.002 0.034968,-0.002 0.021704,0 0.034968,0.002 0.014469,0.002 0.02291,0.006 0.00844,0.004 0.012058,0.01 0.00362,0.006 0.00362,0.0133 v 1.40233 h 0.5968617 q 0.00965,0 0.016881,0.005 0.00723,0.004 0.012058,0.0121 0.00482,0.007 0.00723,0.0205 0.00241,0.0121 0.00241,0.0289 z m 0.3991137,0.0434 q 0,0.007 -0.00362,0.0133 -0.00362,0.006 -0.012058,0.01 -0.00844,0.004 -0.02291,0.006 -0.013264,0.002 -0.034968,0.002 -0.020498,0 -0.034968,-0.002 -0.014469,-0.002 -0.02291,-0.006 -0.00844,-0.004 -0.012058,-0.01 -0.00362,-0.006 -0.00362,-0.0133 v -1.51205 q 0,-0.007 0.00362,-0.0133 0.00482,-0.006 0.013264,-0.01 0.00965,-0.004 0.02291,-0.006 0.014469,-0.002 0.033762,-0.002 0.021704,0 0.034968,0.002 0.014469,0.002 0.02291,0.006 0.00844,0.004 0.012058,0.01 0.00362,0.006 0.00362,0.0133 z m 1.2455719,-1.46864 q 0,0.0157 -0.00241,0.0277 -0.00241,0.0121 -0.00844,0.0205 -0.00482,0.007 -0.012058,0.0121 -0.00723,0.004 -0.015675,0.004 H 5.866551 v 0.59083 h 0.5727461 q 0.00844,0 0.015675,0.004 0.00723,0.002 0.012058,0.01 0.00603,0.007 0.00844,0.0193 0.00241,0.0121 0.00241,0.0302 0,0.0157 -0.00241,0.0277 -0.00241,0.0121 -0.00844,0.0205 -0.00482,0.007 -0.012058,0.0121 -0.00723,0.004 -0.015675,0.004 H 5.866551 v 0.68729 q 0,0.007 -0.00362,0.0133 -0.00362,0.006 -0.012058,0.01 -0.00844,0.004 -0.02291,0.006 -0.013264,0.002 -0.034968,0.002 -0.020498,0 -0.034968,-0.002 -0.014469,-0.002 -0.02291,-0.006 -0.00844,-0.004 -0.012058,-0.01 -0.00362,-0.006 -0.00362,-0.0133 v -1.4602 q 0,-0.0434 0.02291,-0.0591 0.02291,-0.0169 0.044614,-0.0169 h 0.6836779 q 0.00844,0 0.015675,0.005 0.00723,0.004 0.012058,0.0121 0.00603,0.008 0.00844,0.0217 0.00241,0.0121 0.00241,0.0289 z m 1.2913919,0 q 0,0.0157 -0.00241,0.0277 -0.00241,0.0121 -0.00723,0.0205 -0.00482,0.007 -0.012058,0.0121 -0.00723,0.004 -0.015675,0.004 H 7.2978136 v 1.40473 q 0,0.007 -0.00362,0.0133 -0.00362,0.006 -0.012058,0.01 -0.00844,0.004 -0.02291,0.006 -0.014469,0.002 -0.034968,0.002 -0.020498,0 -0.034968,-0.002 -0.014469,-0.002 -0.02291,-0.006 -0.00844,-0.004 -0.012058,-0.01 -0.00362,-0.006 -0.00362,-0.0133 v -1.40473 H 6.6852767 q -0.00965,0 -0.016881,-0.004 -0.00603,-0.005 -0.010852,-0.0121 -0.00482,-0.008 -0.00723,-0.0205 -0.00241,-0.0121 -0.00241,-0.0277 0,-0.0169 0.00241,-0.0289 0.00241,-0.0133 0.00723,-0.0217 0.00482,-0.008 0.010852,-0.0121 0.00723,-0.005 0.016881,-0.005 h 1.0779684 q 0.00844,0 0.015675,0.005 0.00723,0.004 0.012058,0.0121 0.00482,0.008 0.00723,0.0217 0.00241,0.0121 0.00241,0.0289 z"
       id="text8544-7-0-8-5-9"
       aria-label="2 LIFT" />
    <path
       d="m 6.6999886,18.950996 q 0,0.01225 -0.00613,0.02144 -0.00613,0.0092 -0.02144,0.01531 -0.015314,0.0046 -0.041348,0.0077 -0.024502,0.0046 -0.062787,0.0046 -0.036753,0 -0.062787,-0.0046 -0.026034,-0.0031 -0.041348,-0.0077 -0.015314,-0.0061 -0.021439,-0.01531 -0.00613,-0.0092 -0.00613,-0.02144 v -1.901988 q 0,-0.01225 0.00613,-0.02144 0.00766,-0.0092 0.022971,-0.01378 0.016845,-0.0061 0.041348,-0.0092 0.026034,-0.0046 0.061256,-0.0046 0.038285,0 0.062787,0.0046 0.026034,0.0031 0.041348,0.0092 0.015314,0.0046 0.02144,0.01378 0.00613,0.0092 0.00613,0.02144 z m 2.0244997,-0.06891 q 0,0.03063 -0.01072,0.05207 -0.00919,0.02144 -0.026034,0.03522 -0.015314,0.01378 -0.035222,0.01991 -0.019908,0.0061 -0.039816,0.0061 h -0.084227 q -0.039816,0 -0.070444,-0.0077 -0.029097,-0.0092 -0.056662,-0.03063 -0.026034,-0.02297 -0.053599,-0.06126 -0.026034,-0.03829 -0.058193,-0.09801 L 7.6647653,17.670753 q -0.049004,-0.08729 -0.09954,-0.182236 -0.049005,-0.09648 -0.091883,-0.18683 h -0.00306 q 0.00306,0.110261 0.00459,0.225115 0.00153,0.114854 0.00153,0.228177 v 1.196017 q 0,0.01072 -0.00613,0.02144 -0.00613,0.0092 -0.02144,0.01531 -0.013783,0.0046 -0.038285,0.0077 -0.022971,0.0046 -0.059724,0.0046 -0.036753,0 -0.061256,-0.0046 -0.022971,-0.0031 -0.036753,-0.0077 -0.013782,-0.0061 -0.019908,-0.01531 -0.00613,-0.01072 -0.00613,-0.02144 v -1.828481 q 0,-0.06126 0.033691,-0.08729 0.033691,-0.02603 0.073507,-0.02603 h 0.1255741 q 0.04441,0 0.073507,0.0077 0.030628,0.0077 0.053599,0.02603 0.024502,0.01685 0.045942,0.04901 0.022971,0.03063 0.049004,0.0781 l 0.480857,0.86983 q 0.04441,0.07963 0.085758,0.156202 0.041348,0.07504 0.079632,0.148545 0.038285,0.07351 0.075038,0.145482 0.038285,0.07044 0.075038,0.14242 h 0.00153 q -0.00306,-0.12098 -0.00459,-0.251149 0,-0.131699 0,-0.252679 v -1.075037 q 0,-0.01072 0.00613,-0.01991 0.00613,-0.0092 0.019908,-0.01531 0.015314,-0.0077 0.038285,-0.01072 0.024502,-0.0031 0.062787,-0.0031 0.033691,0 0.058193,0.0031 0.024502,0.0031 0.038285,0.01072 0.013783,0.0061 0.019908,0.01531 0.00613,0.0092 0.00613,0.01991 z"
       id="text8544-7-1"
       style="font-size:3.13629px;line-height:1.25;font-family:Calibri;-inkscape-font-specification:Calibri;text-align:center;text-anchor:middle;fill:#000000;stroke-width:0.264583"
       aria-label="IN" />
    <path
       d="m 6.6303815,115.97703 q 0,0.24042 -0.056662,0.43338 -0.056661,0.19295 -0.1699845,0.32925 -0.1117916,0.13476 -0.2817761,0.20827 -0.1699844,0.072 -0.3966304,0.072 -0.2235832,0 -0.3874421,-0.0659 -0.1623275,-0.0674 -0.2695249,-0.19448 -0.105666,-0.12711 -0.1577334,-0.31547 -0.052067,-0.18836 -0.052067,-0.43338 0,-0.23431 0.056661,-0.42573 0.056662,-0.19142 0.1699845,-0.32466 0.113323,-0.13476 0.2833074,-0.20673 0.1699845,-0.0735 0.3966305,-0.0735 0.218989,0 0.3813165,0.0658 0.1623275,0.0658 0.2695249,0.19295 0.1087288,0.12558 0.1607961,0.31241 0.053599,0.1853 0.053599,0.42573 z m -0.2771819,0.0184 q 0,-0.16845 -0.030628,-0.3124 -0.029096,-0.14548 -0.09954,-0.25115 -0.068913,-0.1072 -0.1852984,-0.16692 -0.1163858,-0.0597 -0.2879016,-0.0597 -0.1715159,0 -0.2879017,0.0643 -0.1163857,0.0643 -0.1898925,0.17152 -0.071975,0.1072 -0.1041347,0.25115 -0.030628,0.14242 -0.030628,0.30015 0,0.17458 0.029096,0.32159 0.029097,0.14702 0.098009,0.25421 0.068913,0.10567 0.183767,0.16539 0.1163858,0.0582 0.2909644,0.0582 0.1730473,0 0.2909644,-0.0643 0.1179172,-0.0643 0.1898926,-0.17305 0.071975,-0.11026 0.1026032,-0.25421 0.030628,-0.14395 0.030628,-0.30475 z m 2.1837646,0.2634 q 0,0.18071 -0.053599,0.32313 -0.052067,0.14088 -0.1500763,0.23889 -0.098009,0.098 -0.2388971,0.14855 -0.1408881,0.0505 -0.3200609,0.0505 -0.1638589,0 -0.2986214,-0.0475 -0.1347624,-0.0475 -0.2312401,-0.13936 -0.096478,-0.0934 -0.148545,-0.23277 -0.052067,-0.13935 -0.052067,-0.32159 V 115.049 q 0,-0.0123 0.00613,-0.0214 0.00613,-0.009 0.02144,-0.0138 0.015314,-0.006 0.039816,-0.009 Q 7.1357408,115 7.175557,115 q 0.036753,0 0.062787,0.005 0.026034,0.003 0.039816,0.009 0.015314,0.005 0.021439,0.0138 0.00613,0.009 0.00613,0.0214 v 1.19755 q 0,0.13783 0.033691,0.24043 0.033691,0.1026 0.096478,0.17151 0.064318,0.0674 0.1531391,0.10261 0.090352,0.0337 0.2021437,0.0337 0.1148544,0 0.2036751,-0.0337 0.090352,-0.0337 0.1516078,-0.10107 0.062787,-0.0674 0.094946,-0.16693 0.033691,-0.0995 0.033691,-0.23277 V 115.049 q 0,-0.0123 0.00613,-0.0214 0.00613,-0.009 0.021439,-0.0138 0.015314,-0.006 0.039816,-0.009 0.026034,-0.005 0.064319,-0.005 0.036753,0 0.061256,0.005 0.026034,0.003 0.039816,0.009 0.015314,0.005 0.021439,0.0138 0.00766,0.009 0.00766,0.0214 z m 1.7641628,-1.13629 q 0,0.0291 -0.0031,0.0505 -0.0031,0.0214 -0.01072,0.0352 -0.0061,0.0122 -0.01685,0.0184 -0.0092,0.006 -0.02144,0.006 H 9.6916334 v 1.71822 q 0,0.0122 -0.00613,0.0214 -0.00613,0.009 -0.021439,0.0153 -0.015314,0.005 -0.041348,0.008 -0.024502,0.005 -0.062787,0.005 -0.036753,0 -0.062787,-0.005 -0.026034,-0.003 -0.041348,-0.008 -0.015314,-0.006 -0.021439,-0.0153 -0.00613,-0.009 -0.00613,-0.0214 v -1.71822 H 8.8708074 q -0.012251,0 -0.022971,-0.006 -0.00919,-0.006 -0.015314,-0.0184 -0.00613,-0.0138 -0.01072,-0.0352 -0.00306,-0.0214 -0.00306,-0.0505 0,-0.0291 0.00306,-0.0505 0.00459,-0.023 0.01072,-0.0367 0.00613,-0.0138 0.015314,-0.0199 0.01072,-0.006 0.022971,-0.006 H 10.24906 q 0.01225,0 0.02144,0.006 0.01072,0.006 0.01685,0.0199 0.0077,0.0138 0.01072,0.0367 0.0031,0.0214 0.0031,0.0505 z"
       id="text8544-7-1-9"
       style="font-size:3.13629px;line-height:1.25;font-family:Calibri;-inkscape-font-specification:Calibri;text-align:center;text-anchor:middle;fill:#000000;stroke-width:0.264583"
       aria-label="OUT" />
    <path
       d="m 3.3577155,119.87706 q -0.00808,0.0222 -0.022224,0.0364 -0.014142,0.0142 -0.040407,0.0222 -0.024244,0.008 -0.064651,0.0101 -0.038387,0.004 -0.096977,0.004 -0.044448,0 -0.078794,-0.002 -0.032326,0 -0.05657,-0.004 -0.024244,-0.004 -0.042427,-0.008 -0.016163,-0.006 -0.028285,-0.0141 -0.012122,-0.008 -0.020204,-0.0182 -0.00606,-0.0121 -0.012122,-0.0283 l -0.8546087,-2.42847 q -0.016163,-0.0444 -0.018183,-0.0707 0,-0.0283 0.018183,-0.0424 0.018183,-0.0141 0.05859,-0.0182 0.040407,-0.004 0.1090989,-0.004 0.05657,0 0.088896,0.004 0.034346,0.002 0.052529,0.0101 0.018183,0.008 0.026264,0.0222 0.010102,0.0121 0.018183,0.0323 l 0.7495504,2.20017 h 0.00202 l 0.7293469,-2.19613 q 0.00606,-0.0222 0.014143,-0.0364 0.00808,-0.0141 0.028285,-0.0222 0.020204,-0.008 0.05657,-0.0101 0.036366,-0.004 0.096977,-0.004 0.062631,0 0.098997,0.006 0.036366,0.004 0.048488,0.0182 0.014142,0.0141 0.010102,0.0424 -0.00202,0.0263 -0.018183,0.0707 z m 3.258828,-0.30912 q 0,0.0323 -0.00202,0.0566 -0.00202,0.0242 -0.00808,0.0424 -0.00404,0.0182 -0.012122,0.0323 -0.00808,0.0141 -0.028285,0.0343 -0.020204,0.0202 -0.084855,0.0626 -0.064651,0.0404 -0.1616282,0.0808 -0.094957,0.0384 -0.2202183,0.0647 -0.1232414,0.0283 -0.2707271,0.0283 -0.2545643,0 -0.4606402,-0.0848 -0.2040555,-0.0849 -0.3495208,-0.25052 -0.143445,-0.16567 -0.2222387,-0.40812 -0.076773,-0.24446 -0.076773,-0.56165 0,-0.32528 0.082834,-0.57984 0.084855,-0.25457 0.2363811,-0.43034 0.1515264,-0.17779 0.361643,-0.27073 0.2121369,-0.0929 0.4687215,-0.0929 0.1131397,0 0.2202183,0.0222 0.1070787,0.0202 0.1979945,0.0525 0.090916,0.0323 0.1616281,0.0748 0.070712,0.0424 0.096977,0.0707 0.028285,0.0263 0.036366,0.0404 0.00808,0.0142 0.012122,0.0344 0.00606,0.0182 0.00808,0.0444 0.00404,0.0263 0.00404,0.0626 0,0.0404 -0.00404,0.0687 -0.00404,0.0283 -0.012122,0.0485 -0.00808,0.0182 -0.020204,0.0283 -0.010102,0.008 -0.026264,0.008 -0.028285,0 -0.078794,-0.0384 -0.050509,-0.0404 -0.1313228,-0.0869 -0.078794,-0.0485 -0.1939538,-0.0869 -0.1131397,-0.0404 -0.2727474,-0.0404 -0.1737503,0 -0.3171952,0.0707 -0.1414246,0.0687 -0.2424422,0.20406 -0.1010176,0.13536 -0.1575874,0.33134 -0.05455,0.19395 -0.05455,0.44447 0,0.24851 0.052529,0.44044 0.05455,0.18991 0.1535467,0.31922 0.1010176,0.12728 0.2464829,0.19395 0.1454653,0.0647 0.3293173,0.0647 0.1555671,0 0.2707271,-0.0384 0.1171804,-0.0384 0.1979945,-0.0849 0.082834,-0.0485 0.1353636,-0.0869 0.052529,-0.0384 0.082834,-0.0384 0.014142,0 0.024244,0.006 0.010102,0.006 0.016163,0.0242 0.00606,0.0162 0.00808,0.0465 0.00404,0.0303 0.00404,0.0768 z m 2.6769668,0.24649 q 0.016163,0.0444 0.016163,0.0727 0.00202,0.0263 -0.014143,0.0404 -0.016163,0.0141 -0.05455,0.0182 -0.036366,0.004 -0.098997,0.004 -0.062631,0 -0.1010176,-0.004 -0.036366,-0.002 -0.05657,-0.008 -0.018183,-0.008 -0.028285,-0.0202 -0.00808,-0.0121 -0.016163,-0.0303 l -0.224259,-0.63641 H 7.6287406 l -0.2141572,0.62833 q -0.00606,0.0182 -0.016163,0.0323 -0.010102,0.0121 -0.030305,0.0222 -0.018183,0.008 -0.05455,0.0121 -0.034346,0.004 -0.090916,0.004 -0.05859,0 -0.096977,-0.006 -0.036366,-0.004 -0.052529,-0.0182 -0.014143,-0.0142 -0.014143,-0.0404 0.00202,-0.0283 0.018183,-0.0727 l 0.8768325,-2.42847 q 0.00808,-0.0222 0.020204,-0.0364 0.014142,-0.0141 0.038387,-0.0222 0.026265,-0.008 0.064651,-0.0101 0.040407,-0.004 0.1010176,-0.004 0.064651,0 0.1070786,0.004 0.042427,0.002 0.068692,0.0101 0.026264,0.008 0.040407,0.0242 0.014143,0.0141 0.022224,0.0364 z m -1.1253358,-2.1436 h -0.00202 l -0.4505384,1.30313 H 8.624774 Z m 3.2244825,1.53345 q 0,0.18385 -0.06869,0.3273 -0.06667,0.14344 -0.187893,0.24446 -0.119201,0.099 -0.282849,0.14951 -0.161628,0.0505 -0.349521,0.0505 -0.131323,0 -0.244462,-0.0222 -0.11112,-0.0222 -0.200015,-0.0545 -0.086875,-0.0323 -0.1474859,-0.0667 -0.05859,-0.0344 -0.082834,-0.0586 -0.022224,-0.0242 -0.034346,-0.0606 -0.010102,-0.0384 -0.010102,-0.10102 0,-0.0445 0.00404,-0.0727 0.00404,-0.0303 0.012122,-0.0485 0.00808,-0.0182 0.020204,-0.0242 0.012122,-0.008 0.028285,-0.008 0.028285,0 0.078794,0.0344 0.052529,0.0344 0.1333431,0.0747 0.08081,0.0404 0.193954,0.0768 0.11516,0.0343 0.264666,0.0343 0.11314,0 0.206076,-0.0303 0.09496,-0.0303 0.161628,-0.0849 0.06869,-0.0566 0.105058,-0.13738 0.03637,-0.0808 0.03637,-0.18385 0,-0.11112 -0.05051,-0.18992 -0.05051,-0.0788 -0.133343,-0.13738 -0.08283,-0.0606 -0.189913,-0.1091 -0.105059,-0.0505 -0.216178,-0.10102 -0.111119,-0.0525 -0.216178,-0.11516 -0.105058,-0.0626 -0.187892,-0.14748 -0.082835,-0.0849 -0.135364,-0.198 -0.050509,-0.11516 -0.050509,-0.27476 0,-0.16365 0.05859,-0.29094 0.060611,-0.1293 0.1656686,-0.21617 0.107079,-0.0869 0.252544,-0.13133 0.147486,-0.0465 0.317195,-0.0465 0.08688,0 0.173751,0.0162 0.08889,0.0141 0.165668,0.0404 0.07879,0.0242 0.139405,0.0566 0.06061,0.0303 0.07879,0.0505 0.0202,0.0182 0.02627,0.0303 0.0061,0.0101 0.0101,0.0283 0.004,0.0162 0.0061,0.0404 0.002,0.0242 0.002,0.0626 0,0.0364 -0.004,0.0647 -0.002,0.0283 -0.0081,0.0485 -0.0061,0.0182 -0.01818,0.0283 -0.0101,0.008 -0.02424,0.008 -0.02222,0 -0.07071,-0.0283 -0.04647,-0.0283 -0.11516,-0.0626 -0.06869,-0.0364 -0.163648,-0.0647 -0.09294,-0.0303 -0.210117,-0.0303 -0.109099,0 -0.189913,0.0303 -0.08081,0.0283 -0.133343,0.0768 -0.05253,0.0485 -0.07879,0.11516 -0.02626,0.0667 -0.02626,0.14142 0,0.1091 0.05051,0.18789 0.05051,0.0788 0.133343,0.13941 0.08486,0.0606 0.191933,0.11112 0.107079,0.0505 0.218198,0.10303 0.111119,0.0505 0.218198,0.11314 0.107079,0.0606 0.189913,0.14547 0.08485,0.0828 0.135364,0.19799 0.05253,0.11314 0.05253,0.26871 z m 2.499176,0.68086 q 0,0.0162 -0.0061,0.0283 -0.0061,0.0121 -0.02626,0.0202 -0.0202,0.008 -0.05657,0.0121 -0.03637,0.004 -0.09698,0.004 -0.05253,0 -0.08687,-0.004 -0.03233,-0.004 -0.05253,-0.0121 -0.0202,-0.0101 -0.03233,-0.0263 -0.0101,-0.0162 -0.01818,-0.0404 l -0.240422,-0.61621 q -0.04243,-0.10506 -0.08889,-0.19194 -0.04445,-0.0889 -0.107079,-0.15152 -0.06263,-0.0647 -0.147485,-0.099 -0.08486,-0.0364 -0.204056,-0.0364 h -0.23234 v 1.11322 q 0,0.0162 -0.0101,0.0283 -0.0081,0.0121 -0.02829,0.0202 -0.01818,0.006 -0.05253,0.0101 -0.03233,0.006 -0.08284,0.006 -0.05051,0 -0.08485,-0.006 -0.03233,-0.004 -0.05253,-0.0101 -0.0202,-0.008 -0.02828,-0.0202 -0.0081,-0.0121 -0.0081,-0.0283 v -2.42038 q 0,-0.0788 0.04041,-0.1091 0.04243,-0.0323 0.0889,-0.0323 h 0.555596 q 0.099,0 0.163649,0.006 0.06667,0.004 0.119201,0.0101 0.151526,0.0263 0.266686,0.0828 0.11718,0.0566 0.195974,0.14345 0.07879,0.0869 0.11718,0.20001 0.04041,0.11112 0.04041,0.24648 0,0.13133 -0.03637,0.23638 -0.03435,0.10304 -0.101017,0.18386 -0.06667,0.0788 -0.159608,0.13738 -0.09294,0.0586 -0.208096,0.099 0.06465,0.0283 0.11718,0.0727 0.05253,0.0424 0.09698,0.10304 0.04647,0.0606 0.08687,0.1394 0.04041,0.0788 0.08081,0.17779 l 0.234361,0.5758 q 0.02829,0.0727 0.03637,0.10304 0.0081,0.0283 0.0081,0.0445 z m -0.523271,-1.8365 q 0,-0.15355 -0.06869,-0.25861 -0.06869,-0.10707 -0.230321,-0.15354 -0.05051,-0.0142 -0.11516,-0.0202 -0.06263,-0.006 -0.165668,-0.006 H 12.49577 v 0.88088 h 0.339419 q 0.137384,0 0.236381,-0.0323 0.101017,-0.0344 0.167689,-0.0929 0.06667,-0.0606 0.09698,-0.14142 0.03233,-0.0808 0.03233,-0.17577 z"
       id="text8544-7-0-8-5"
       style="font-size:4.13768px;line-height:1.25;font-family:Calibri;-inkscape-font-specification:Calibri;text-align:center;letter-spacing:0.258606px;text-anchor:middle;fill:#000000;stroke-width:0.264583"
       transform="scale(0.97740817,1.023114)"
       aria-label="VCASR" />
    <text
       xml:space="preserve"
       transform="scale(0.26458333)"
       id="text74364"
       style="font-size:40px;line-height:1.25;font-family:Calibri;-inkscape-font-specification:Calibri;white-space:pre;shape-inside:url(#rect74366)" />
    <path
       d="m 4.5834591,31.291727 q 0,0.02857 -0.00301,0.05113 -0.00301,0.02105 -0.00902,0.03609 -0.00602,0.01353 -0.015038,0.01955 -0.00902,0.006 -0.019549,0.006 -0.018045,0 -0.06015,-0.02857 -0.042105,-0.02857 -0.112782,-0.06316 -0.070677,-0.03459 -0.1699249,-0.06316 -0.097744,-0.02857 -0.2330827,-0.02857 -0.1609023,0 -0.2887219,0.05865 -0.1278196,0.05865 -0.2165414,0.162406 -0.088722,0.10376 -0.1368422,0.246617 -0.046616,0.142857 -0.046616,0.309775 0,0.186466 0.051128,0.330827 0.052632,0.144361 0.144361,0.243609 0.091729,0.09925 0.2180451,0.150376 0.1278196,0.05113 0.2796993,0.05113 0.090226,0 0.181955,-0.02105 0.093233,-0.02256 0.1729323,-0.06617 V 32.120299 H 3.8691732 q -0.025564,0 -0.039098,-0.02556 -0.01203,-0.02556 -0.01203,-0.0797 0,-0.02857 0.00301,-0.04812 0.00301,-0.02105 0.00902,-0.03308 0.00752,-0.01353 0.016541,-0.01955 0.00902,-0.006 0.022556,-0.006 h 0.6180453 q 0.016541,0 0.033083,0.006 0.016541,0.006 0.030075,0.01805 0.013534,0.01203 0.021053,0.03308 0.00752,0.02105 0.00752,0.04812 v 0.741354 q 0,0.0391 -0.013534,0.06767 -0.013534,0.02857 -0.057143,0.05113 -0.043609,0.02105 -0.112782,0.04662 -0.069173,0.02556 -0.1428571,0.04361 -0.073684,0.01804 -0.1488723,0.02707 -0.075188,0.009 -0.1488722,0.009 -0.2255639,0 -0.4030076,-0.06917 -0.1774436,-0.07068 -0.3007519,-0.2 -0.1218046,-0.129324 -0.1864663,-0.309775 -0.064662,-0.180451 -0.064662,-0.403008 0,-0.231579 0.069173,-0.419549 0.070677,-0.187969 0.1969926,-0.3203 0.1278195,-0.132331 0.3052632,-0.204512 0.1789474,-0.07368 0.3954888,-0.07368 0.1112782,0 0.2090226,0.01955 0.097744,0.01955 0.1729324,0.04662 0.076692,0.02556 0.1278196,0.05714 0.052632,0.03008 0.07218,0.04962 0.019549,0.01955 0.027068,0.04511 0.00752,0.02556 0.00752,0.07368 z m 1.9383464,1.589475 q 0.01203,0.03308 0.01203,0.05413 0.0015,0.01955 -0.010526,0.03008 -0.01203,0.01053 -0.040602,0.01353 -0.027068,0.003 -0.073684,0.003 -0.046617,0 -0.075188,-0.003 -0.027068,-0.0015 -0.042105,-0.006 -0.013534,-0.006 -0.021053,-0.01504 -0.00602,-0.009 -0.01203,-0.02256 L 6.0917302,32.461653 H 5.2827074 l -0.1593985,0.467669 q -0.00451,0.01353 -0.01203,0.02406 -0.00752,0.009 -0.022556,0.01654 -0.013534,0.006 -0.040602,0.009 -0.025564,0.003 -0.067669,0.003 -0.043609,0 -0.07218,-0.0045 -0.027068,-0.003 -0.039098,-0.01353 -0.010526,-0.01053 -0.010526,-0.03008 0.0015,-0.02105 0.013534,-0.05414 l 0.6526317,-1.807519 q 0.00602,-0.01654 0.015038,-0.02707 0.010526,-0.01053 0.028571,-0.01654 0.019549,-0.006 0.04812,-0.0075 0.030075,-0.003 0.075188,-0.003 0.04812,0 0.079699,0.003 0.031579,0.0015 0.051128,0.0075 0.019549,0.006 0.030075,0.01805 0.010526,0.01053 0.016541,0.02707 z m -0.8375942,-1.59549 h -0.0015 L 5.3473691,32.255638 H 6.024061 Z m 2.1413539,-0.147368 q 0,0.02857 -0.00301,0.04962 -0.00301,0.02105 -0.010526,0.03459 -0.00602,0.01203 -0.016541,0.01805 -0.00902,0.006 -0.021053,0.006 H 7.2270688 v 1.687218 q 0,0.01203 -0.00601,0.02105 -0.00601,0.009 -0.021053,0.01504 -0.015038,0.0045 -0.040602,0.0075 -0.02406,0.0045 -0.061654,0.0045 -0.03609,0 -0.061654,-0.0045 -0.025564,-0.003 -0.040602,-0.0075 -0.015038,-0.006 -0.021053,-0.01504 -0.00601,-0.009 -0.00601,-0.02105 V 31.246615 H 6.4210536 q -0.01203,0 -0.022556,-0.006 -0.00902,-0.006 -0.015038,-0.01805 -0.00602,-0.01353 -0.010526,-0.03459 -0.00301,-0.02105 -0.00301,-0.04962 0,-0.02857 0.00301,-0.04962 0.00451,-0.02256 0.010526,-0.03609 0.00602,-0.01353 0.015038,-0.01955 0.010526,-0.006 0.022556,-0.006 h 1.3533838 q 0.01203,0 0.021053,0.006 0.010526,0.006 0.016541,0.01955 0.00752,0.01353 0.010526,0.03609 0.00301,0.02105 0.00301,0.04962 z m 1.3639099,1.72782 q 0,0.02707 -0.00301,0.04812 -0.00301,0.01955 -0.010526,0.03308 -0.00752,0.01353 -0.018045,0.01955 -0.00902,0.006 -0.021053,0.006 H 8.2030087 q -0.034586,0 -0.066166,-0.02256 -0.030075,-0.02406 -0.030075,-0.08271 v -1.735339 q 0,-0.05865 0.030075,-0.0812 0.031579,-0.02406 0.066166,-0.02406 h 0.9233085 q 0.01203,0 0.021053,0.006 0.010526,0.006 0.016541,0.01955 0.00602,0.01353 0.00902,0.03459 0.00451,0.01955 0.00451,0.04962 0,0.02707 -0.00451,0.04812 -0.00301,0.01955 -0.00902,0.03308 -0.00601,0.01203 -0.016541,0.01804 -0.00902,0.006 -0.021053,0.006 H 8.3654147 v 0.610527 h 0.6526318 q 0.01203,0 0.021053,0.0075 0.010526,0.006 0.016541,0.01805 0.00752,0.01203 0.010526,0.03308 0.00301,0.02105 0.00301,0.04962 0,0.02707 -0.00301,0.04662 -0.00301,0.01955 -0.010526,0.03158 -0.00601,0.01203 -0.016541,0.01805 -0.00902,0.0045 -0.021053,0.0045 H 8.3654147 v 0.696241 h 0.7714288 q 0.01203,0 0.021053,0.006 0.010526,0.006 0.018045,0.01955 0.00752,0.01203 0.010526,0.03308 0.00301,0.01955 0.00301,0.04962 z"
       id="text8544-7-1-1"
       style="font-size:3.0797px;line-height:1.25;font-family:Calibri;-inkscape-font-specification:Calibri;text-align:center;text-anchor:middle;fill:#000000;stroke-width:0.264582"
       aria-label="GATE" />
    <path
       d="m 4.6242787,46.883858 q 0.012066,0.03318 0.012066,0.0543 0.00151,0.01961 -0.010558,0.03017 -0.012066,0.01056 -0.040724,0.01358 -0.027149,0.003 -0.073906,0.003 -0.046757,0 -0.075415,-0.003 -0.027149,-0.0015 -0.042232,-0.006 -0.013575,-0.006 -0.021116,-0.01508 -0.00603,-0.009 -0.012066,-0.02262 L 4.192906,46.463044 H 3.3814429 l -0.1598794,0.46908 q -0.00452,0.01357 -0.012066,0.02413 -0.00754,0.009 -0.022624,0.01659 -0.013575,0.006 -0.040724,0.0091 -0.025641,0.003 -0.067873,0.003 -0.043741,0 -0.072398,-0.0045 -0.027149,-0.003 -0.039216,-0.01357 -0.010558,-0.01056 -0.010558,-0.03017 0.00151,-0.02112 0.013575,-0.0543 l 0.6546004,-1.812972 q 0.00603,-0.01659 0.015083,-0.02715 0.010558,-0.01056 0.028658,-0.01659 0.019608,-0.006 0.048265,-0.0075 0.030166,-0.003 0.075415,-0.003 0.048266,0 0.07994,0.003 0.031674,0.0015 0.051282,0.0075 0.019608,0.006 0.030166,0.0181 0.010558,0.01056 0.016591,0.02715 z M 3.7841579,45.283556 h -0.00151 l -0.33635,0.972851 h 0.6787331 z m 2.1478134,-0.147813 q 0,0.02866 -0.00302,0.04977 -0.00302,0.02112 -0.010558,0.03469 -0.00603,0.01207 -0.016591,0.0181 -0.00905,0.006 -0.021116,0.006 H 5.3316695 v 1.692308 q 0,0.01207 -0.00603,0.02112 -0.00603,0.009 -0.021116,0.01508 -0.015083,0.0045 -0.040724,0.0075 -0.024133,0.0045 -0.06184,0.0045 -0.036199,0 -0.06184,-0.0045 -0.025641,-0.003 -0.040724,-0.0075 -0.015083,-0.006 -0.021116,-0.01508 -0.00603,-0.0091 -0.00603,-0.02112 V 45.244341 H 4.5232229 q -0.012066,0 -0.022624,-0.006 -0.00905,-0.006 -0.015083,-0.0181 -0.00603,-0.01358 -0.010558,-0.03469 -0.00302,-0.02112 -0.00302,-0.04977 0,-0.02866 0.00302,-0.04977 0.00452,-0.02263 0.010558,-0.0362 0.00603,-0.01358 0.015083,-0.01961 0.010558,-0.006 0.022624,-0.006 h 1.3574663 q 0.012066,0 0.021116,0.006 0.010558,0.006 0.016591,0.01961 0.00754,0.01357 0.010558,0.0362 0.00302,0.02112 0.00302,0.04977 z m 1.5475115,0 q 0,0.02866 -0.00302,0.04977 -0.00302,0.02112 -0.010558,0.03469 -0.00603,0.01207 -0.016591,0.0181 -0.00905,0.006 -0.021116,0.006 H 6.8791811 v 1.692308 q 0,0.01207 -0.00603,0.02112 -0.00603,0.009 -0.021116,0.01508 -0.015083,0.0045 -0.040724,0.0075 -0.024133,0.0045 -0.06184,0.0045 -0.036199,0 -0.06184,-0.0045 -0.025641,-0.003 -0.040724,-0.0075 -0.015083,-0.006 -0.021116,-0.01508 -0.00603,-0.0091 -0.00603,-0.02112 V 45.244341 H 6.0707345 q -0.012066,0 -0.022625,-0.006 -0.00905,-0.006 -0.015083,-0.0181 -0.00603,-0.01358 -0.010558,-0.03469 -0.00302,-0.02112 -0.00302,-0.04977 0,-0.02866 0.00302,-0.04977 0.00452,-0.02263 0.010558,-0.0362 0.00603,-0.01358 0.015083,-0.01961 0.010558,-0.006 0.022625,-0.006 h 1.3574663 q 0.012066,0 0.021116,0.006 0.010558,0.006 0.016591,0.01961 0.00754,0.01357 0.010558,0.0362 0.00302,0.02112 0.00302,0.04977 z m 1.5022626,1.748115 q 0.012066,0.03318 0.012066,0.0543 0.00151,0.01961 -0.010558,0.03017 -0.012066,0.01056 -0.040724,0.01358 -0.027149,0.003 -0.073906,0.003 -0.046757,0 -0.075415,-0.003 -0.027149,-0.0015 -0.042232,-0.006 -0.013575,-0.006 -0.021116,-0.01508 -0.00603,-0.009 -0.012066,-0.02262 L 8.5503727,46.463044 H 7.7389096 l -0.1598794,0.46908 q -0.00452,0.01357 -0.012066,0.02413 -0.00754,0.009 -0.022624,0.01659 -0.013575,0.006 -0.040724,0.0091 -0.025641,0.003 -0.067873,0.003 -0.043741,0 -0.072398,-0.0045 -0.027149,-0.003 -0.039216,-0.01357 -0.010558,-0.01056 -0.010558,-0.03017 0.00151,-0.02112 0.013575,-0.0543 l 0.6546004,-1.812972 q 0.00603,-0.01659 0.015083,-0.02715 0.010558,-0.01056 0.028658,-0.01659 0.019608,-0.006 0.048265,-0.0075 0.030166,-0.003 0.075415,-0.003 0.048266,0 0.07994,0.003 0.031674,0.0015 0.051282,0.0075 0.019608,0.006 0.030166,0.0181 0.010558,0.01056 0.016591,0.02715 z M 8.1416246,45.283556 h -0.00151 l -0.33635,0.972851 h 0.6787331 z m 2.4464554,1.41629 q 0,0.02413 -0.0015,0.04223 -0.0015,0.0181 -0.006,0.03167 -0.003,0.01357 -0.0091,0.02413 -0.006,0.01056 -0.02112,0.02564 -0.01508,0.01508 -0.06335,0.04676 -0.04827,0.03017 -0.120664,0.06033 -0.07089,0.02866 -0.164404,0.04827 -0.09201,0.02112 -0.202112,0.02112 -0.1900452,0 -0.3438914,-0.06335 Q 9.5036157,46.8733 9.3950184,46.74962 9.2879294,46.62594 9.2291058,46.444944 9.1717906,46.26244 9.1717906,46.025638 q 0,-0.242836 0.06184,-0.432881 0.063348,-0.190045 0.1764706,-0.321267 0.1131222,-0.13273 0.269985,-0.202112 0.1583711,-0.06938 0.3499247,-0.06938 0.08446,0 0.164404,0.01659 0.07994,0.01508 0.147813,0.03922 0.06787,0.02413 0.120664,0.05581 0.05279,0.03167 0.0724,0.05279 0.02112,0.01961 0.02715,0.03017 0.006,0.01056 0.0091,0.02564 0.0045,0.01358 0.006,0.03318 0.003,0.01961 0.003,0.04676 0,0.03017 -0.003,0.05128 -0.003,0.02112 -0.009,0.0362 -0.006,0.01358 -0.01508,0.02112 -0.0075,0.006 -0.01961,0.006 -0.02112,0 -0.05882,-0.02866 -0.03771,-0.03017 -0.09804,-0.06486 -0.05882,-0.0362 -0.144796,-0.06486 -0.08446,-0.03017 -0.20362,-0.03017 -0.1297138,0 -0.2368028,0.05279 -0.1055807,0.05128 -0.1809955,0.152337 -0.075415,0.101056 -0.1176471,0.247361 -0.040724,0.144796 -0.040724,0.331825 0,0.18552 0.039216,0.328809 0.040724,0.141779 0.1146305,0.23831 0.075415,0.09502 0.1840121,0.144797 0.1085973,0.04827 0.2458521,0.04827 0.116139,0 0.202112,-0.02866 0.08748,-0.02866 0.147813,-0.06335 0.06184,-0.0362 0.101056,-0.06486 0.03922,-0.02866 0.06184,-0.02866 0.01056,0 0.0181,0.0045 0.0075,0.0045 0.01207,0.0181 0.0045,0.01207 0.006,0.03469 0.003,0.02262 0.003,0.05732 z m 1.616893,0.233786 q 0,0.01207 -0.006,0.02262 -0.0045,0.009 -0.01961,0.01508 -0.01508,0.006 -0.04072,0.009 -0.02564,0.0045 -0.06636,0.0045 -0.05279,0 -0.08597,-0.0045 -0.03318,-0.0045 -0.04977,-0.01659 -0.01659,-0.01207 -0.02715,-0.02715 l -0.717948,-0.975868 v 0.975868 q 0,0.01056 -0.006,0.02112 -0.006,0.009 -0.02112,0.01508 -0.01508,0.0045 -0.04072,0.0075 -0.02413,0.0045 -0.06184,0.0045 -0.0362,0 -0.06184,-0.0045 -0.02564,-0.003 -0.04072,-0.0075 -0.01508,-0.006 -0.02112,-0.01508 -0.006,-0.01056 -0.006,-0.02112 v -1.873304 q 0,-0.01207 0.006,-0.02112 0.006,-0.0091 0.02112,-0.01357 0.01508,-0.006 0.04072,-0.009 0.02564,-0.0045 0.06184,-0.0045 0.03771,0 0.06184,0.0045 0.02564,0.003 0.04072,0.009 0.01508,0.0045 0.02112,0.01357 0.006,0.0091 0.006,0.02112 v 0.86727 l 0.690799,-0.86727 q 0.009,-0.01357 0.02112,-0.02262 0.01207,-0.009 0.02866,-0.01357 0.0181,-0.006 0.04223,-0.0091 0.02564,-0.003 0.06486,-0.003 0.03922,0 0.06335,0.0045 0.02413,0.003 0.03771,0.009 0.01508,0.006 0.01961,0.01508 0.006,0.0091 0.006,0.01961 0,0.01961 -0.01056,0.03922 -0.0091,0.01961 -0.0362,0.0543 l -0.647059,0.773755 0.696832,0.926094 q 0.02564,0.03922 0.03017,0.0543 0.006,0.01357 0.006,0.02262 z"
       id="text8544-7-1-2"
       style="font-size:3.08899px;line-height:1.25;font-family:Calibri;-inkscape-font-specification:Calibri;text-align:center;text-anchor:middle;fill:#000000;stroke-width:0.264583"
       aria-label="ATTACK" />
    <path
       d="m 3.6706229,60.426432 q 0,0.136636 -0.051051,0.243243 -0.04955,0.106607 -0.1396399,0.181682 -0.088589,0.07357 -0.2102105,0.111111 -0.1201203,0.03754 -0.2597602,0.03754 -0.097598,0 -0.181682,-0.01652 -0.082583,-0.01652 -0.1486488,-0.04054 -0.064565,-0.02402 -0.1096098,-0.04955 -0.043544,-0.02553 -0.061562,-0.04354 -0.016516,-0.01802 -0.025526,-0.04505 -0.00751,-0.02853 -0.00751,-0.07508 0,-0.03303 0.003,-0.05405 0.003,-0.02252 0.00901,-0.03604 0.00601,-0.01351 0.015015,-0.01802 0.00901,-0.006 0.021021,-0.006 0.021021,0 0.058559,0.02553 0.039039,0.02553 0.099099,0.05556 0.06006,0.03003 0.1441443,0.05706 0.085586,0.02553 0.196697,0.02553 0.084084,0 0.1531534,-0.02252 0.070571,-0.02252 0.1201203,-0.06306 0.051051,-0.04204 0.078078,-0.102102 0.027027,-0.06006 0.027027,-0.136637 0,-0.08258 -0.037538,-0.141141 -0.037538,-0.05856 -0.099099,-0.102102 -0.061562,-0.04505 -0.1411414,-0.08108 -0.078078,-0.03754 -0.1606609,-0.07507 -0.082583,-0.03904 -0.1606609,-0.08559 -0.078078,-0.04655 -0.1396399,-0.109609 -0.061562,-0.06306 -0.1006008,-0.147148 -0.037538,-0.08559 -0.037538,-0.204204 0,-0.121622 0.043544,-0.216217 0.045045,-0.0961 0.1231233,-0.160661 0.07958,-0.06456 0.187688,-0.0976 0.1096097,-0.03453 0.2357361,-0.03453 0.064565,0 0.1291293,0.01201 0.066066,0.01051 0.1231233,0.03003 0.058559,0.01802 0.1036038,0.04204 0.045045,0.02252 0.058559,0.03754 0.015015,0.01351 0.01952,0.02252 0.0045,0.0075 0.00751,0.02102 0.003,0.01201 0.0045,0.03003 0.0015,0.01802 0.0015,0.04655 0,0.02703 -0.003,0.04805 -0.0015,0.02102 -0.00601,0.03604 -0.0045,0.01351 -0.013514,0.02102 -0.00751,0.006 -0.018018,0.006 -0.016516,0 -0.052553,-0.02102 -0.034535,-0.02102 -0.085586,-0.04655 -0.051051,-0.02703 -0.1216219,-0.04805 -0.069069,-0.02252 -0.1561564,-0.02252 -0.081081,0 -0.1411413,0.02252 -0.06006,0.02102 -0.099099,0.05706 -0.039039,0.03604 -0.058559,0.08559 -0.01952,0.04955 -0.01952,0.105106 0,0.08108 0.037538,0.13964 0.037538,0.05856 0.099099,0.103603 0.063063,0.04505 0.1426428,0.08258 0.07958,0.03754 0.1621625,0.07658 0.082583,0.03754 0.1621624,0.08408 0.07958,0.04504 0.1411413,0.108108 0.063063,0.06156 0.1006008,0.147148 0.039039,0.08408 0.039039,0.1997 z m 1.8303332,-0.172673 q 0,0.177177 -0.052553,0.316817 -0.051051,0.138138 -0.1471474,0.234235 -0.096096,0.0961 -0.2342346,0.145645 -0.1381384,0.04955 -0.3138143,0.04955 -0.1606609,0 -0.2927933,-0.04655 -0.1321323,-0.04655 -0.2267271,-0.136636 -0.094595,-0.09159 -0.1456458,-0.228229 -0.051051,-0.136637 -0.051051,-0.315316 v -1.205707 q 0,-0.01201 0.00601,-0.02102 0.00601,-0.009 0.021021,-0.01351 0.015015,-0.006 0.039039,-0.009 0.024024,-0.0045 0.063063,-0.0045 0.036036,0 0.061562,0.0045 0.025526,0.003 0.039039,0.009 0.015015,0.0045 0.021021,0.01351 0.00601,0.009 0.00601,0.02102 v 1.174176 q 0,0.135135 0.033033,0.235736 0.033033,0.1006 0.094595,0.168168 0.063063,0.06607 0.1501504,0.100601 0.088589,0.03303 0.1981985,0.03303 0.1126128,0 0.1997,-0.03303 0.088589,-0.03303 0.1486489,-0.0991 0.061562,-0.06607 0.093093,-0.163664 0.033033,-0.0976 0.033033,-0.228229 v -1.187689 q 0,-0.01201 0.00601,-0.02102 0.00601,-0.009 0.021021,-0.01351 0.015015,-0.006 0.039039,-0.009 0.025526,-0.0045 0.063063,-0.0045 0.036036,0 0.06006,0.0045 0.025526,0.003 0.039039,0.009 0.015015,0.0045 0.021021,0.01351 0.00751,0.009 0.00751,0.02102 z m 1.555558,0.172673 q 0,0.136636 -0.051051,0.243243 -0.04955,0.106607 -0.1396399,0.181682 -0.088589,0.07357 -0.2102105,0.111111 -0.1201203,0.03754 -0.2597602,0.03754 -0.097598,0 -0.181682,-0.01652 -0.082583,-0.01652 -0.1486488,-0.04054 -0.064565,-0.02402 -0.1096098,-0.04955 -0.043544,-0.02553 -0.061562,-0.04354 -0.016516,-0.01802 -0.025526,-0.04505 -0.00751,-0.02853 -0.00751,-0.07508 0,-0.03303 0.003,-0.05405 0.003,-0.02252 0.00901,-0.03604 0.00601,-0.01351 0.015015,-0.01802 0.00901,-0.006 0.021021,-0.006 0.021021,0 0.058559,0.02553 0.039039,0.02553 0.099099,0.05556 0.06006,0.03003 0.1441443,0.05706 0.085586,0.02553 0.196697,0.02553 0.084084,0 0.1531534,-0.02252 0.070571,-0.02252 0.1201203,-0.06306 0.051051,-0.04204 0.078078,-0.102102 0.027027,-0.06006 0.027027,-0.136637 0,-0.08258 -0.037538,-0.141141 -0.037538,-0.05856 -0.099099,-0.102102 -0.061562,-0.04505 -0.1411414,-0.08108 -0.078078,-0.03754 -0.1606609,-0.07507 -0.082583,-0.03904 -0.1606609,-0.08559 -0.078078,-0.04655 -0.1396399,-0.109609 -0.061562,-0.06306 -0.1006008,-0.147148 -0.037538,-0.08559 -0.037538,-0.204204 0,-0.121622 0.043544,-0.216217 0.045045,-0.0961 0.1231233,-0.160661 0.07958,-0.06456 0.187688,-0.0976 0.1096097,-0.03453 0.2357361,-0.03453 0.064565,0 0.1291293,0.01201 0.066066,0.01051 0.1231233,0.03003 0.058559,0.01802 0.1036038,0.04204 0.045045,0.02252 0.058559,0.03754 0.015015,0.01351 0.01952,0.02252 0.0045,0.0075 0.00751,0.02102 0.003,0.01201 0.0045,0.03003 0.0015,0.01802 0.0015,0.04655 0,0.02703 -0.003,0.04805 -0.0015,0.02102 -0.00601,0.03604 -0.0045,0.01351 -0.013514,0.02102 -0.00751,0.006 -0.018018,0.006 -0.016516,0 -0.052553,-0.02102 -0.034535,-0.02102 -0.085586,-0.04655 -0.051051,-0.02703 -0.1216219,-0.04805 -0.069069,-0.02252 -0.1561564,-0.02252 -0.081081,0 -0.1411413,0.02252 -0.06006,0.02102 -0.099099,0.05706 -0.039039,0.03604 -0.058559,0.08559 -0.01952,0.04955 -0.01952,0.105106 0,0.08108 0.037538,0.13964 0.037538,0.05856 0.099099,0.103603 0.063063,0.04505 0.1426428,0.08258 0.07958,0.03754 0.1621625,0.07658 0.082583,0.03754 0.1621624,0.08408 0.07958,0.04504 0.1411413,0.108108 0.063063,0.06156 0.1006008,0.147148 0.039039,0.08408 0.039039,0.1997 z m 1.5660686,-1.286789 q 0,0.02853 -0.003,0.04955 -0.003,0.02102 -0.010511,0.03453 -0.00601,0.01201 -0.016516,0.01802 -0.00901,0.006 -0.021021,0.006 H 8.0249841 v 1.684687 q 0,0.01201 -0.00601,0.02102 -0.00601,0.009 -0.021021,0.01502 -0.015015,0.0045 -0.040541,0.0075 -0.024024,0.0045 -0.061562,0.0045 -0.036036,0 -0.061562,-0.0045 -0.025525,-0.003 -0.040541,-0.0075 -0.015015,-0.006 -0.021021,-0.01502 -0.00601,-0.009 -0.00601,-0.02102 V 59.247751 H 7.220178 q -0.012012,0 -0.022522,-0.006 -0.00901,-0.006 -0.015015,-0.01802 -0.00601,-0.01351 -0.010511,-0.03453 -0.003,-0.02102 -0.003,-0.04955 0,-0.02853 0.003,-0.04955 0.0045,-0.02252 0.010511,-0.03604 0.00601,-0.01351 0.015015,-0.01952 0.010511,-0.006 0.022522,-0.006 h 1.3513535 q 0.012012,0 0.021021,0.006 0.010511,0.006 0.016516,0.01952 0.00751,0.01351 0.010511,0.03604 0.003,0.02102 0.003,0.04955 z m 1.4954983,1.740243 q 0.01201,0.03303 0.01201,0.05405 0.0015,0.01952 -0.01051,0.03003 -0.01201,0.01051 -0.04054,0.01351 -0.02703,0.003 -0.07357,0.003 -0.046547,0 -0.075076,-0.003 -0.027027,-0.0015 -0.042042,-0.006 -0.013514,-0.006 -0.021021,-0.01502 -0.00601,-0.009 -0.012012,-0.02252 L 9.6886504,60.460966 H 8.8808413 l -0.1591594,0.466968 q -0.0045,0.01351 -0.012012,0.02402 -0.00751,0.009 -0.022523,0.01652 -0.013514,0.006 -0.040541,0.009 -0.025525,0.003 -0.067568,0.003 -0.043544,0 -0.072072,-0.0045 -0.027027,-0.003 -0.039039,-0.01351 -0.010511,-0.01051 -0.010511,-0.03003 0.0015,-0.02102 0.013514,-0.05405 l 0.6516527,-1.804807 q 0.00601,-0.01652 0.015015,-0.02703 0.010511,-0.01051 0.028529,-0.01652 0.019519,-0.006 0.048048,-0.0075 0.03003,-0.003 0.075075,-0.003 0.048048,0 0.07958,0.003 0.031532,0.0015 0.051051,0.0075 0.01952,0.006 0.03003,0.01802 0.010511,0.01051 0.016516,0.02703 z M 9.2817429,59.28679 h -0.0015 L 8.945406,60.25526 h 0.6756767 z m 1.4189211,1.645648 q 0,0.01201 -0.006,0.02102 -0.006,0.009 -0.02102,0.01502 -0.01501,0.0045 -0.04054,0.0075 -0.02402,0.0045 -0.06156,0.0045 -0.03604,0 -0.06156,-0.0045 -0.02553,-0.003 -0.04054,-0.0075 -0.01501,-0.006 -0.02102,-0.01502 -0.006,-0.009 -0.006,-0.02102 v -1.864867 q 0,-0.01201 0.006,-0.02102 0.0075,-0.009 0.02252,-0.01351 0.01652,-0.006 0.04054,-0.009 0.02553,-0.0045 0.06006,-0.0045 0.03754,0 0.06156,0.0045 0.02553,0.003 0.04054,0.009 0.01501,0.0045 0.02102,0.01351 0.006,0.009 0.006,0.02102 z m 1.984988,-0.06757 q 0,0.03003 -0.01051,0.05105 -0.009,0.02102 -0.02553,0.03453 -0.01501,0.01351 -0.03453,0.01952 -0.01952,0.006 -0.03904,0.006 h -0.08258 q -0.03904,0 -0.06907,-0.0075 -0.02853,-0.009 -0.05556,-0.03003 -0.02553,-0.02252 -0.05255,-0.06006 -0.02553,-0.03754 -0.05706,-0.0961 l -0.612614,-1.105107 q -0.04805,-0.08559 -0.0976,-0.178679 -0.04805,-0.0946 -0.09009,-0.183183 h -0.003 q 0.003,0.108108 0.0045,0.220721 0.0015,0.112613 0.0015,0.223724 v 1.172674 q 0,0.01051 -0.006,0.02102 -0.006,0.009 -0.02102,0.01502 -0.01351,0.0045 -0.03754,0.0075 -0.02252,0.0045 -0.05856,0.0045 -0.03604,0 -0.06006,-0.0045 -0.02252,-0.003 -0.03604,-0.0075 -0.01351,-0.006 -0.01952,-0.01502 -0.006,-0.01051 -0.006,-0.02102 v -1.792795 q 0,-0.06006 0.03303,-0.08559 0.03303,-0.02553 0.07207,-0.02553 h 0.123123 q 0.04354,0 0.07207,0.0075 0.03003,0.0075 0.05255,0.02553 0.02402,0.01652 0.04504,0.04805 0.02252,0.03003 0.04805,0.07658 l 0.471472,0.852855 q 0.04354,0.07808 0.08408,0.153153 0.04054,0.07357 0.07808,0.145646 0.03754,0.07207 0.07357,0.142643 0.03754,0.06907 0.07357,0.13964 h 0.0015 q -0.003,-0.118619 -0.0045,-0.246247 0,-0.129129 0,-0.247748 v -1.054056 q 0,-0.01051 0.006,-0.01952 0.006,-0.009 0.01952,-0.01502 0.01501,-0.0075 0.03754,-0.01051 0.02402,-0.003 0.06156,-0.003 0.03303,0 0.05706,0.003 0.02402,0.003 0.03754,0.01051 0.01351,0.006 0.01952,0.01502 0.006,0.009 0.006,0.01952 z"
       id="text8544-7-1-92"
       style="font-size:3.07508px;line-height:1.25;font-family:Calibri;-inkscape-font-specification:Calibri;text-align:center;text-anchor:middle;fill:#000000;stroke-width:0.264583"
       aria-label="SUSTAIN" />
    <path
       d="m 3.7734758,74.932435 q 0,0.01201 -0.0045,0.02102 -0.0045,0.009 -0.01952,0.01501 -0.015015,0.006 -0.042042,0.009 -0.027027,0.003 -0.072072,0.003 -0.039039,0 -0.064565,-0.003 -0.024024,-0.003 -0.039039,-0.009 -0.015015,-0.0075 -0.024024,-0.01952 -0.00751,-0.01201 -0.013514,-0.03003 l -0.178679,-0.457959 q -0.031532,-0.07808 -0.066066,-0.142642 -0.033033,-0.06607 -0.07958,-0.112613 -0.046547,-0.04805 -0.1096097,-0.07357 -0.063063,-0.02703 -0.1516519,-0.02703 h -0.172673 v 0.827329 q 0,0.01201 -0.00751,0.02102 -0.00601,0.009 -0.021021,0.01501 -0.013514,0.0045 -0.039039,0.0075 -0.024024,0.0045 -0.061562,0.0045 -0.037538,0 -0.063063,-0.0045 -0.024024,-0.003 -0.039039,-0.0075 -0.015015,-0.006 -0.021021,-0.01501 -0.00601,-0.009 -0.00601,-0.02102 v -1.798802 q 0,-0.05856 0.03003,-0.08108 0.031532,-0.02402 0.066066,-0.02402 h 0.4129136 q 0.073574,0 0.1216218,0.0045 0.04955,0.003 0.088589,0.0075 0.1126128,0.01952 0.1981985,0.06156 0.087087,0.04204 0.1456459,0.106607 0.058559,0.06457 0.087087,0.148649 0.03003,0.08258 0.03003,0.183184 0,0.0976 -0.027027,0.175675 -0.025526,0.07658 -0.075075,0.136637 -0.04955,0.05856 -0.1186188,0.102103 -0.069069,0.04354 -0.1546549,0.07357 0.048048,0.02102 0.087087,0.05405 0.039039,0.03153 0.072072,0.07658 0.034535,0.04505 0.064565,0.103604 0.03003,0.05856 0.06006,0.132132 l 0.1741744,0.427929 q 0.021021,0.05405 0.027027,0.07658 0.00601,0.02102 0.00601,0.03303 z M 3.3845863,73.567568 q 0,-0.114115 -0.051051,-0.192193 -0.051051,-0.07958 -0.1711715,-0.114114 -0.037538,-0.01051 -0.085586,-0.01502 -0.046547,-0.0045 -0.1231233,-0.0045 H 2.7359366 v 0.654656 h 0.2522527 q 0.1021022,0 0.1756759,-0.02402 0.075075,-0.02553 0.1246249,-0.06907 0.04955,-0.04505 0.072072,-0.105106 0.024024,-0.06006 0.024024,-0.13063 z m 1.8438467,1.297299 q 0,0.02703 -0.003,0.04805 -0.003,0.01952 -0.010511,0.03303 -0.00751,0.01351 -0.018018,0.01952 -0.00901,0.006 -0.021021,0.006 H 4.2434465 q -0.034535,0 -0.066066,-0.02252 -0.03003,-0.02402 -0.03003,-0.08258 v -1.732735 q 0,-0.05856 0.03003,-0.08108 0.031532,-0.02402 0.066066,-0.02402 h 0.9219233 q 0.012012,0 0.021021,0.006 0.01051,0.006 0.016516,0.01952 0.00601,0.01351 0.00901,0.03454 0.0045,0.01952 0.0045,0.04955 0,0.02703 -0.0045,0.04805 -0.003,0.01952 -0.00901,0.03303 -0.00601,0.01201 -0.016516,0.01802 -0.00901,0.006 -0.021021,0.006 H 4.4056089 v 0.60961 h 0.6516527 q 0.012012,0 0.021021,0.0075 0.010511,0.006 0.016517,0.01802 0.00751,0.01201 0.010511,0.03303 0.003,0.02102 0.003,0.04955 0,0.02703 -0.003,0.04655 -0.003,0.01952 -0.010511,0.03153 -0.00601,0.01201 -0.016517,0.01802 -0.00901,0.0045 -0.021021,0.0045 H 4.4056089 v 0.695197 h 0.7702715 q 0.012012,0 0.021021,0.006 0.010511,0.006 0.018018,0.01952 0.00751,0.01201 0.010511,0.03303 0.003,0.01952 0.003,0.04955 z m 1.42793,-0.006 q 0,0.03003 -0.003,0.05105 -0.003,0.01952 -0.010511,0.03453 -0.00601,0.01351 -0.016517,0.02102 -0.00901,0.006 -0.022522,0.006 H 5.7449502 q -0.034535,0 -0.066066,-0.02252 -0.03003,-0.02402 -0.03003,-0.08258 v -1.798801 q 0,-0.01201 0.00601,-0.02102 0.00601,-0.009 0.021021,-0.01351 0.015015,-0.006 0.040541,-0.009 0.025526,-0.0045 0.061562,-0.0045 0.037538,0 0.061562,0.0045 0.025526,0.003 0.040541,0.009 0.015015,0.0045 0.021021,0.01351 0.00601,0.009 0.00601,0.02102 v 1.680183 h 0.6966978 q 0.013513,0 0.022522,0.0075 0.010511,0.006 0.016517,0.01952 0.00751,0.01201 0.010511,0.03303 0.003,0.02102 0.003,0.05105 z m 1.3663689,0.006 q 0,0.02703 -0.003,0.04805 -0.003,0.01952 -0.010511,0.03303 -0.00751,0.01351 -0.018018,0.01952 -0.00901,0.006 -0.021021,0.006 H 7.0377454 q -0.034535,0 -0.066066,-0.02252 -0.03003,-0.02402 -0.03003,-0.08258 v -1.732735 q 0,-0.05856 0.03003,-0.08108 0.031532,-0.02402 0.066066,-0.02402 h 0.9219233 q 0.012012,0 0.021021,0.006 0.01051,0.006 0.016516,0.01952 0.00601,0.01351 0.00901,0.03454 0.0045,0.01952 0.0045,0.04955 0,0.02703 -0.0045,0.04805 -0.003,0.01952 -0.00901,0.03303 -0.00601,0.01201 -0.016516,0.01802 -0.00901,0.006 -0.021021,0.006 H 7.1999078 v 0.60961 h 0.6516526 q 0.012012,0 0.021021,0.0075 0.010511,0.006 0.016516,0.01802 0.00751,0.01201 0.010511,0.03303 0.003,0.02102 0.003,0.04955 0,0.02703 -0.003,0.04655 -0.003,0.01952 -0.010511,0.03153 -0.00601,0.01201 -0.016516,0.01802 -0.00901,0.0045 -0.021021,0.0045 H 7.1999078 v 0.695197 h 0.7702715 q 0.012012,0 0.021021,0.006 0.01051,0.006 0.018018,0.01952 0.00751,0.01201 0.010511,0.03303 0.003,0.01952 0.003,0.04955 z m 1.842345,0.01501 q 0.012012,0.03303 0.012012,0.05405 0.0015,0.01952 -0.010511,0.03003 -0.012012,0.01051 -0.040541,0.01351 -0.027027,0.003 -0.073574,0.003 -0.046547,0 -0.075075,-0.003 -0.027027,-0.0015 -0.042042,-0.006 -0.013514,-0.006 -0.021021,-0.01502 -0.00601,-0.009 -0.012012,-0.02252 L 9.4356468,74.460962 H 8.6278377 L 8.4686783,74.92793 q -0.0045,0.01351 -0.012012,0.02402 -0.00751,0.009 -0.022523,0.01652 -0.013514,0.006 -0.040541,0.009 -0.025526,0.003 -0.067568,0.003 -0.043544,0 -0.072072,-0.0045 -0.027027,-0.003 -0.039039,-0.01351 -0.010511,-0.01051 -0.010511,-0.03003 0.0015,-0.02102 0.013514,-0.05405 l 0.6516527,-1.804807 q 0.00601,-0.01652 0.015015,-0.02703 0.010511,-0.01051 0.028529,-0.01652 0.01952,-0.006 0.048048,-0.0075 0.03003,-0.003 0.075075,-0.003 0.048048,0 0.07958,0.003 0.031532,0.0015 0.051051,0.0075 0.01952,0.006 0.03003,0.01802 0.01051,0.01051 0.016516,0.02703 z M 9.0287393,73.286786 h -0.0015 l -0.3348354,0.96847 h 0.6756767 z m 2.2042077,1.139642 q 0,0.136637 -0.05105,0.243243 -0.04955,0.106607 -0.13964,0.181682 -0.08859,0.07357 -0.210211,0.111112 -0.12012,0.03754 -0.25976,0.03754 -0.0976,0 -0.181682,-0.01652 -0.08258,-0.01652 -0.148649,-0.04054 -0.06456,-0.02402 -0.109609,-0.04955 -0.04354,-0.02553 -0.06156,-0.04354 -0.01652,-0.01802 -0.02553,-0.04505 -0.0075,-0.02853 -0.0075,-0.07507 0,-0.03303 0.003,-0.05406 0.003,-0.02252 0.009,-0.03604 0.006,-0.01351 0.01501,-0.01802 0.009,-0.006 0.02102,-0.006 0.02102,0 0.05856,0.02553 0.03904,0.02553 0.0991,0.05555 0.06006,0.03003 0.144144,0.05706 0.08559,0.02553 0.196697,0.02553 0.08408,0 0.153154,-0.02252 0.07057,-0.02252 0.12012,-0.06306 0.05105,-0.04204 0.07808,-0.102102 0.02703,-0.06006 0.02703,-0.136637 0,-0.08258 -0.03754,-0.141141 -0.03754,-0.05856 -0.0991,-0.102102 -0.06156,-0.04505 -0.141141,-0.08108 -0.07808,-0.03754 -0.160661,-0.07508 -0.08258,-0.03904 -0.160661,-0.08558 -0.07808,-0.04655 -0.13964,-0.10961 -0.06156,-0.06306 -0.1006,-0.147148 -0.03754,-0.08558 -0.03754,-0.204204 0,-0.121622 0.04354,-0.216217 0.04504,-0.0961 0.123123,-0.160661 0.07958,-0.06456 0.187688,-0.0976 0.10961,-0.03453 0.235736,-0.03453 0.06456,0 0.129129,0.01201 0.06607,0.01051 0.123124,0.03003 0.05856,0.01802 0.103603,0.04204 0.04505,0.02252 0.05856,0.03754 0.01501,0.01351 0.01952,0.02252 0.0045,0.0075 0.0075,0.02102 0.003,0.01201 0.0045,0.03003 0.0015,0.01802 0.0015,0.04655 0,0.02703 -0.003,0.04805 -0.0015,0.02102 -0.006,0.03604 -0.0045,0.01351 -0.01351,0.02102 -0.0075,0.006 -0.01802,0.006 -0.01652,0 -0.05255,-0.02102 -0.03453,-0.02102 -0.08559,-0.04655 -0.05105,-0.02703 -0.121622,-0.04805 -0.06907,-0.02252 -0.156156,-0.02252 -0.08108,0 -0.141141,0.02252 -0.06006,0.02102 -0.0991,0.05706 -0.03904,0.03604 -0.05856,0.08559 -0.01952,0.04955 -0.01952,0.105105 0,0.08108 0.03754,0.13964 0.03754,0.05856 0.0991,0.103603 0.06306,0.04505 0.142643,0.08258 0.07958,0.03754 0.162162,0.07658 0.08258,0.03754 0.162163,0.08408 0.07958,0.04504 0.141141,0.108108 0.06306,0.06156 0.100601,0.147148 0.03904,0.08408 0.03904,0.1997 z m 1.450452,0.438439 q 0,0.02703 -0.003,0.04805 -0.003,0.01952 -0.01051,0.03303 -0.0075,0.01351 -0.01802,0.01952 -0.009,0.006 -0.02102,0.006 h -0.932434 q -0.03453,0 -0.06607,-0.02252 -0.03003,-0.02402 -0.03003,-0.08258 v -1.732735 q 0,-0.05856 0.03003,-0.08108 0.03153,-0.02402 0.06607,-0.02402 h 0.921923 q 0.01201,0 0.02102,0.006 0.01051,0.006 0.01652,0.01952 0.006,0.01351 0.009,0.03454 0.0045,0.01952 0.0045,0.04955 0,0.02703 -0.0045,0.04805 -0.003,0.01952 -0.009,0.03303 -0.006,0.01201 -0.01652,0.01802 -0.009,0.006 -0.02102,0.006 h -0.759761 v 0.60961 h 0.651653 q 0.01201,0 0.02102,0.0075 0.01051,0.006 0.01652,0.01802 0.0075,0.01201 0.01051,0.03303 0.003,0.02102 0.003,0.04955 0,0.02703 -0.003,0.04655 -0.003,0.01952 -0.01051,0.03153 -0.006,0.01201 -0.01652,0.01802 -0.009,0.0045 -0.02102,0.0045 h -0.651653 v 0.695197 h 0.770272 q 0.01201,0 0.02102,0.006 0.01051,0.006 0.01802,0.01952 0.0075,0.01201 0.01051,0.03303 0.003,0.01952 0.003,0.04955 z"
       id="text8544-7-1-94"
       style="font-size:3.07508px;line-height:1.25;font-family:Calibri;-inkscape-font-specification:Calibri;text-align:center;text-anchor:middle;fill:#000000;stroke-width:0.264583"
       aria-label="RELEASE" />
    <path
       d="m 6.3317101,88.864867 q 0,0.02703 -0.003,0.04805 -0.003,0.01952 -0.010511,0.03303 -0.00751,0.01351 -0.018018,0.01952 -0.00901,0.006 -0.021021,0.006 H 5.3467235 q -0.034535,0 -0.066066,-0.02252 -0.03003,-0.02402 -0.03003,-0.08258 v -1.732735 q 0,-0.05856 0.03003,-0.08108 0.031531,-0.02402 0.066066,-0.02402 h 0.9219234 q 0.012012,0 0.021021,0.006 0.010511,0.006 0.016516,0.01952 0.00601,0.01351 0.00901,0.03454 0.0045,0.01952 0.0045,0.04955 0,0.02703 -0.0045,0.04805 -0.003,0.01952 -0.00901,0.03303 -0.00601,0.01201 -0.016516,0.01802 -0.00901,0.006 -0.021021,0.006 h -0.759761 v 0.60961 h 0.6516527 q 0.012012,0 0.021021,0.0075 0.01051,0.006 0.016516,0.01802 0.00751,0.01201 0.01051,0.03303 0.003,0.02102 0.003,0.04955 0,0.02703 -0.003,0.04655 -0.003,0.01952 -0.01051,0.03153 -0.00601,0.01201 -0.016516,0.01802 -0.00901,0.0045 -0.021021,0.0045 H 5.5088859 v 0.695197 h 0.7702715 q 0.012012,0 0.021021,0.006 0.01051,0.006 0.018018,0.01952 0.00751,0.01201 0.010511,0.03303 0.003,0.01952 0.003,0.04955 z m 2.0000031,-0.887389 q 0,0.235736 -0.055556,0.424926 -0.055556,0.189189 -0.1666669,0.322823 -0.1096098,0.132132 -0.2762767,0.204205 -0.166667,0.07057 -0.3888895,0.07057 -0.2192196,0 -0.3798805,-0.06456 -0.1591594,-0.06607 -0.2642647,-0.190691 -0.1036038,-0.124625 -0.1546549,-0.30931 -0.051051,-0.184685 -0.051051,-0.424926 0,-0.22973 0.055556,-0.417418 0.055556,-0.187688 0.166667,-0.318319 0.1111112,-0.132132 0.2777782,-0.202703 0.1666669,-0.07207 0.3888895,-0.07207 0.214715,0 0.3738744,0.06457 0.1591594,0.06456 0.2642647,0.189189 0.1066068,0.123124 0.1576579,0.306307 0.052553,0.181682 0.052553,0.417418 z m -0.2717722,0.01802 q 0,-0.165165 -0.03003,-0.306307 -0.028529,-0.142642 -0.097598,-0.246246 -0.067568,-0.105106 -0.1816819,-0.163664 -0.1141143,-0.05856 -0.2822828,-0.05856 -0.1681684,0 -0.2822827,0.06306 -0.1141143,0.06306 -0.1861865,0.168169 -0.070571,0.105105 -0.1021022,0.246246 -0.03003,0.13964 -0.03003,0.294295 0,0.171172 0.028529,0.315316 0.028529,0.144144 0.096096,0.24925 0.067568,0.103603 0.1801805,0.162162 0.1141143,0.05706 0.2852857,0.05706 0.1696699,0 0.2852857,-0.06306 0.1156158,-0.06306 0.1861865,-0.16967 0.070571,-0.108108 0.1006008,-0.24925 0.03003,-0.141141 0.03003,-0.298799 z m 1.977481,0.701202 q 0,0.02403 -0.0015,0.04204 -0.0015,0.01802 -0.006,0.03153 -0.003,0.01351 -0.009,0.02402 -0.006,0.01051 -0.021021,0.02553 -0.015015,0.01501 -0.063063,0.04655 -0.048048,0.03003 -0.1201203,0.06006 -0.070571,0.02853 -0.1636639,0.04805 -0.091592,0.02102 -0.2012015,0.02102 -0.1891895,0 -0.3423429,-0.06306 -0.1516519,-0.06306 -0.2597602,-0.186187 -0.1066068,-0.123123 -0.1651654,-0.303304 -0.057057,-0.181682 -0.057057,-0.417418 0,-0.241742 0.061562,-0.430931 0.063063,-0.18919 0.1756759,-0.319821 0.1126128,-0.132132 0.2687692,-0.201201 0.1576579,-0.06907 0.3483489,-0.06907 0.084084,0 0.1636639,0.01652 0.07958,0.01502 0.1471474,0.03904 0.067568,0.02402 0.1201203,0.05556 0.052553,0.03153 0.072072,0.05255 0.021021,0.01952 0.027027,0.03003 0.006,0.01051 0.009,0.02553 0.0045,0.01351 0.006,0.03303 0.003,0.01952 0.003,0.04655 0,0.03003 -0.003,0.05105 -0.003,0.02102 -0.009,0.03604 -0.006,0.01351 -0.01501,0.02102 -0.00751,0.006 -0.019519,0.006 -0.021021,0 -0.058559,-0.02853 -0.037538,-0.03003 -0.097598,-0.06457 -0.058559,-0.03604 -0.1441444,-0.06457 -0.084084,-0.03003 -0.202703,-0.03003 -0.1291293,0 -0.2357361,0.05255 -0.1051053,0.05105 -0.1801804,0.151652 -0.075075,0.1006 -0.1171173,0.246246 -0.040541,0.144145 -0.040541,0.330331 0,0.184685 0.039039,0.327328 0.040541,0.141141 0.1141143,0.237238 0.075075,0.09459 0.1831835,0.144144 0.1081083,0.04805 0.2447451,0.04805 0.1156158,0 0.2012016,-0.02853 0.087087,-0.02853 0.1471473,-0.06306 0.061562,-0.03604 0.1006008,-0.06456 0.039039,-0.02853 0.061562,-0.02853 0.01051,0 0.018018,0.0045 0.0075,0.0045 0.01201,0.01802 0.0045,0.01201 0.006,0.03453 0.003,0.02252 0.003,0.05706 z"
       id="text8544-7-1-94-8"
       style="font-size:3.07508px;line-height:1.25;font-family:Calibri;-inkscape-font-specification:Calibri;text-align:center;text-anchor:middle;fill:#000000;stroke-width:0.264583"
       aria-label="EOC" />
    <path
       d="m 6.2566349,102.86487 q 0,0.027 -0.003,0.0481 -0.003,0.0195 -0.010511,0.033 -0.00751,0.0135 -0.018018,0.0195 -0.00901,0.006 -0.021021,0.006 H 5.2716484 q -0.034535,0 -0.066066,-0.0225 -0.03003,-0.024 -0.03003,-0.0826 v -1.73274 q 0,-0.0586 0.03003,-0.0811 0.031532,-0.024 0.066066,-0.024 h 0.9219234 q 0.012012,0 0.021021,0.006 0.01051,0.006 0.016517,0.0195 0.00601,0.0135 0.00901,0.0345 0.0045,0.0195 0.0045,0.0496 0,0.027 -0.0045,0.048 -0.003,0.0195 -0.00901,0.033 -0.00601,0.012 -0.016517,0.018 -0.00901,0.006 -0.021021,0.006 h -0.759761 v 0.60961 h 0.6516527 q 0.012012,0 0.021021,0.008 0.010511,0.006 0.016517,0.018 0.00751,0.012 0.010511,0.033 0.003,0.021 0.003,0.0495 0,0.027 -0.003,0.0465 -0.003,0.0195 -0.010511,0.0315 -0.00601,0.012 -0.016517,0.018 -0.00901,0.004 -0.021021,0.004 H 5.4338108 v 0.6952 h 0.7702715 q 0.012012,0 0.021021,0.006 0.010511,0.006 0.018018,0.0195 0.00751,0.012 0.010511,0.033 0.003,0.0195 0.003,0.0495 z m 1.8888918,0 q 0,0.03 -0.01051,0.0511 -0.00901,0.021 -0.025526,0.0345 -0.015015,0.0135 -0.034535,0.0195 -0.01952,0.006 -0.039039,0.006 h -0.082583 q -0.039039,0 -0.069069,-0.008 -0.028529,-0.009 -0.055556,-0.03 -0.025526,-0.0225 -0.052553,-0.0601 -0.025526,-0.0375 -0.057057,-0.0961 l -0.6126135,-1.1051 q -0.048048,-0.0856 -0.097598,-0.17868 -0.048048,-0.0946 -0.09009,-0.18319 h -0.003 q 0.003,0.10811 0.0045,0.22073 0.0015,0.11261 0.0015,0.22372 v 1.17267 q 0,0.0105 -0.00601,0.021 -0.00601,0.009 -0.021021,0.015 -0.013514,0.005 -0.037538,0.008 -0.022522,0.004 -0.058559,0.004 -0.036036,0 -0.06006,-0.004 -0.022522,-0.003 -0.036036,-0.008 -0.013514,-0.006 -0.01952,-0.015 -0.00601,-0.0105 -0.00601,-0.021 v -1.79279 q 0,-0.0601 0.033033,-0.0856 0.033033,-0.0255 0.072072,-0.0255 h 0.1231234 q 0.043544,0 0.072072,0.008 0.03003,0.007 0.052553,0.0255 0.024024,0.0165 0.045045,0.0481 0.022522,0.03 0.048048,0.0766 l 0.4714722,0.85285 q 0.043544,0.0781 0.084084,0.15315 0.040541,0.0736 0.078078,0.14565 0.037538,0.0721 0.073574,0.14264 0.037538,0.0691 0.073574,0.13964 h 0.0015 q -0.003,-0.11862 -0.0045,-0.24624 0,-0.12913 0,-0.24775 v -1.05406 q 0,-0.0105 0.00601,-0.0195 0.00601,-0.009 0.01952,-0.015 0.015015,-0.008 0.037538,-0.0105 0.024024,-0.003 0.061562,-0.003 0.033033,0 0.057057,0.003 0.024024,0.003 0.037538,0.0105 0.013513,0.006 0.019519,0.015 0.00601,0.009 0.00601,0.0195 z m 1.3018039,0.0616 q -0.00601,0.0165 -0.016517,0.027 -0.010511,0.0105 -0.03003,0.0165 -0.018018,0.006 -0.048048,0.008 -0.028529,0.003 -0.072072,0.003 -0.033033,0 -0.058559,-0.001 -0.024024,0 -0.042042,-0.003 -0.018018,-0.003 -0.031532,-0.006 -0.012012,-0.005 -0.021021,-0.0105 -0.00901,-0.006 -0.015015,-0.0135 -0.0045,-0.009 -0.00901,-0.021 l -0.6351361,-1.80481 q -0.012012,-0.033 -0.013514,-0.0525 0,-0.021 0.013514,-0.0315 0.013514,-0.0105 0.043544,-0.0135 0.03003,-0.003 0.081081,-0.003 0.042042,0 0.066066,0.003 0.025526,0.001 0.039039,0.008 0.013514,0.006 0.01952,0.0165 0.00751,0.009 0.013514,0.024 l 0.557058,1.63514 h 0.0015 l 0.5420429,-1.63214 q 0.0045,-0.0165 0.01051,-0.027 0.00601,-0.0105 0.021021,-0.0165 0.015015,-0.006 0.042042,-0.008 0.027027,-0.003 0.072072,-0.003 0.046547,0 0.073574,0.004 0.02703,0.003 0.03604,0.0135 0.01051,0.0105 0.0075,0.0315 -0.0015,0.0195 -0.01351,0.0525 z"
       id="text8544-7-1-94-82-8"
       style="font-size:3.07508px;line-height:1.25;font-family:Calibri;-inkscape-font-specification:Calibri;text-align:center;text-anchor:middle;fill:#000000;stroke-width:0.264583"
       aria-label="ENV" />
    <path
       d="m 5.1133611,42.149712 a 3.4891158,3.5941528 0 1 1 4.9343549,0"
       fill="none"
       stroke="#1f1f1f"
       stroke-linecap="round"
       stroke-linejoin="round"
       id="path66-2-1-0"
       style="display:inline;stroke-width:0.264583" />
    <path
       d="m 5.1133611,56.149712 a 3.4891158,3.5941528 0 1 1 4.9343549,0"
       fill="none"
       stroke="#1f1f1f"
       stroke-linecap="round"
       stroke-linejoin="round"
       id="path66-2-1-0-5"
       style="display:inline;stroke-width:0.264583" />
    <path
       d="m 5.1133613,70.149712 a 3.4891158,3.5941528 0 1 1 4.9343547,0"
       fill="none"
       stroke="#1f1f1f"
       stroke-linecap="round"
       stroke-linejoin="round"
       id="path66-2-1-0-8"
       style="display:inline;stroke-width:0.264583" />
  </g>
</svg>
