<?xml version="1.0" encoding="UTF-8" standalone="no"?>
<!-- Created with Inkscape (http://www.inkscape.org/) -->

<svg
   width="15.24mm"
   height="128.5mm"
   viewBox="0 0 15.24 128.5"
   version="1.1"
   id="svg5"
   inkscape:version="1.1.2 (b8e25be833, 2022-02-05)"
   sodipodi:docname="Merge.svg"
   xmlns:inkscape="http://www.inkscape.org/namespaces/inkscape"
   xmlns:sodipodi="http://sodipodi.sourceforge.net/DTD/sodipodi-0.dtd"
   xmlns="http://www.w3.org/2000/svg"
   xmlns:svg="http://www.w3.org/2000/svg">
  <sodipodi:namedview
     id="namedview7"
     pagecolor="#ffffff"
     bordercolor="#666666"
     borderopacity="1.0"
     inkscape:pageshadow="2"
     inkscape:pageopacity="0.0"
     inkscape:pagecheckerboard="0"
     inkscape:document-units="mm"
     showgrid="false"
     height="128.5mm"
     inkscape:zoom="3.8808248"
     inkscape:cx="-142.10897"
     inkscape:cy="227.40011"
     inkscape:window-width="3840"
     inkscape:window-height="2054"
     inkscape:window-x="-11"
     inkscape:window-y="-11"
     inkscape:window-maximized="0"
     inkscape:current-layer="layer1" />
  <defs
     id="defs2" />
  <g
     inkscape:label="Layer 1"
     inkscape:groupmode="layer"
     id="layer1">
    <path
       id="rect4302"
       style="fill:#111111;stroke-width:0.184931"
       d="M -0.00163784,1.6577559e-8 H 15.242541 V 128.50433 H -0.00163784 Z" />
    <path
       id="rect10313-6"
       style="fill:#555555;stroke:#555555;stroke-width:0"
       d="M 3.1199998,105 H 12.12 c 0.831,0 1.5,0.669 1.5,1.5 v 10 c 0,0.831 -0.669,1.5 -1.5,1.5 H 3.1199998 C 2.2889999,118 1.62,117.331 1.62,116.5 v -10 c 0,-0.831 0.6689999,-1.5 1.4999998,-1.5 z" />
    <path
       id="rect10313"
       style="fill:#AAAAAA;fill-opacity:0.99;stroke:#AAAAAA;stroke-width:0.1"
       d="M 3.1209998,6.000001 H 12.121 c 0.831,0 1.5,0.6689998 1.5,1.4999996 V 102.5 c 0,0.831 -0.669,1.5 -1.5,1.5 H 3.1209998 c -0.8309999,0 -1.4999997,-0.669 -1.4999997,-1.5 V 7.5000006 c 0,-0.8309998 0.6689998,-1.4999996 1.4999997,-1.4999996 z" />
    <g
       aria-label="MERGE"
       id="text8544-7-0-8-5"
       style="font-size:4.23333px;line-height:1.25;font-family:Calibri;-inkscape-font-specification:Calibri;text-align:center;letter-spacing:0px;text-anchor:middle;fill:#ffffff;stroke-width:0.264583">
      <path
         d="m 4.4816278,122.65616 q 0,0.0165 -0.00827,0.0289 -0.00827,0.0124 -0.028939,0.0207 -0.020671,0.006 -0.053743,0.0103 -0.031006,0.006 -0.082682,0.006 -0.047542,0 -0.082682,-0.006 -0.033073,-0.004 -0.053743,-0.0103 -0.018604,-0.008 -0.026872,-0.0207 -0.00827,-0.0124 -0.00827,-0.0289 v -2.32957 h -0.00413 l -0.9529126,2.33991 q -0.0062,0.0145 -0.018603,0.0248 -0.010335,0.0103 -0.033073,0.0186 -0.020671,0.006 -0.051676,0.008 -0.028939,0.004 -0.07028,0.004 -0.043408,0 -0.074414,-0.004 -0.031006,-0.004 -0.051676,-0.0103 -0.020671,-0.008 -0.033073,-0.0186 -0.010335,-0.0103 -0.014469,-0.0227 L 1.920546,120.32659 h -0.00207 v 2.32957 q 0,0.0165 -0.00827,0.0289 -0.00827,0.0124 -0.028939,0.0207 -0.020671,0.006 -0.053743,0.0103 -0.033073,0.006 -0.084749,0.006 -0.049609,0 -0.082682,-0.006 -0.033073,-0.004 -0.053743,-0.0103 -0.018603,-0.008 -0.026872,-0.0207 -0.0062,-0.0124 -0.0062,-0.0289 v -2.45979 q 0,-0.0868 0.045475,-0.12403 0.045475,-0.0372 0.1012857,-0.0372 h 0.2149738 q 0.066146,0 0.1157551,0.0124 0.049609,0.0124 0.086816,0.0393 0.037207,0.0269 0.062012,0.0682 0.024805,0.0413 0.043408,0.0971 l 0.7751459,1.93683 h 0.010335 l 0.8061517,-1.93063 q 0.022738,-0.062 0.049609,-0.10542 0.026872,-0.0434 0.057878,-0.0682 0.033073,-0.0269 0.072347,-0.0372 0.039274,-0.0124 0.09095,-0.0124 h 0.225309 q 0.031006,0 0.057878,0.0103 0.028939,0.008 0.047542,0.0289 0.020671,0.0186 0.033073,0.0496 0.012402,0.0289 0.012402,0.0724 z"
         id="path857" />
      <path
         d="m 6.680975,122.56315 q 0,0.0372 -0.00413,0.0661 -0.00413,0.0269 -0.014469,0.0455 -0.010335,0.0186 -0.024805,0.0269 -0.012402,0.008 -0.028939,0.008 H 5.3249865 q -0.047542,0 -0.09095,-0.031 -0.041341,-0.0331 -0.041341,-0.11369 v -2.38538 q 0,-0.0806 0.041341,-0.11162 0.043408,-0.0331 0.09095,-0.0331 h 1.2691721 q 0.016536,0 0.028939,0.008 0.014469,0.008 0.022738,0.0269 0.00827,0.0186 0.012402,0.0475 0.0062,0.0269 0.0062,0.0682 0,0.0372 -0.0062,0.0661 -0.00413,0.0269 -0.012402,0.0455 -0.00827,0.0165 -0.022738,0.0248 -0.012402,0.008 -0.028939,0.008 H 5.5482285 v 0.83922 h 0.8971021 q 0.016536,0 0.028939,0.0103 0.014469,0.008 0.022738,0.0248 0.010335,0.0165 0.014469,0.0455 0.00413,0.0289 0.00413,0.0682 0,0.0372 -0.00413,0.0641 -0.00413,0.0269 -0.014469,0.0434 -0.00827,0.0165 -0.022738,0.0248 -0.012402,0.006 -0.028939,0.006 H 5.5482285 v 0.95705 H 6.608628 q 0.016536,0 0.028939,0.008 0.014469,0.008 0.024805,0.0269 0.010335,0.0165 0.014469,0.0455 0.00413,0.0269 0.00413,0.0682 z"
         id="path859" />
      <path
         d="m 9.0436196,122.65616 q 0,0.0165 -0.0062,0.0289 -0.0062,0.0124 -0.026872,0.0207 -0.020671,0.008 -0.057878,0.0124 -0.037207,0.004 -0.099219,0.004 -0.053743,0 -0.088883,-0.004 -0.033073,-0.004 -0.053743,-0.0124 -0.020671,-0.0103 -0.033073,-0.0269 -0.010335,-0.0165 -0.018603,-0.0413 l -0.2459796,-0.63045 q -0.043408,-0.10749 -0.09095,-0.19637 -0.045475,-0.0909 -0.1095539,-0.15503 -0.064079,-0.0661 -0.1508951,-0.10129 -0.086816,-0.0372 -0.2087726,-0.0372 H 7.6152842 v 1.13894 q 0,0.0165 -0.010335,0.0289 -0.00827,0.0124 -0.028939,0.0207 -0.018604,0.006 -0.053743,0.0103 -0.033073,0.006 -0.084749,0.006 -0.051676,0 -0.086816,-0.006 -0.033073,-0.004 -0.053743,-0.0103 -0.020671,-0.008 -0.028939,-0.0207 -0.00827,-0.0124 -0.00827,-0.0289 v -2.47633 q 0,-0.0806 0.041341,-0.11162 0.043408,-0.0331 0.09095,-0.0331 h 0.5684403 q 0.1012857,0 0.1674315,0.006 0.068213,0.004 0.1219563,0.0103 0.1550291,0.0269 0.2728513,0.0847 0.1198892,0.0579 0.2005044,0.14676 0.080615,0.0889 0.1198892,0.20464 0.041341,0.11369 0.041341,0.25218 0,0.13436 -0.037207,0.24185 -0.03514,0.10542 -0.1033527,0.1881 -0.068213,0.0806 -0.1632974,0.14056 -0.095085,0.06 -0.2129068,0.10129 0.066146,0.0289 0.1198893,0.0744 0.053743,0.0434 0.099219,0.10542 0.047542,0.062 0.088883,0.14263 0.041341,0.0806 0.082682,0.1819 l 0.2397785,0.58911 q 0.028939,0.0744 0.037207,0.10542 0.00827,0.0289 0.00827,0.0455 z m -0.5353674,-1.87895 q 0,-0.1571 -0.07028,-0.26458 -0.07028,-0.10956 -0.2356443,-0.1571 -0.051676,-0.0145 -0.1178222,-0.0207 -0.064079,-0.006 -0.1694985,-0.006 H 7.6152842 v 0.90124 h 0.3472654 q 0.1405597,0 0.2418455,-0.0331 0.1033527,-0.0351 0.1715656,-0.0951 0.068213,-0.062 0.099219,-0.1447 0.033073,-0.0827 0.033073,-0.17983 z"
         id="path861" />
      <path
         d="m 11.52822,120.39894 q 0,0.0393 -0.0041,0.0703 -0.0041,0.0289 -0.0124,0.0496 -0.0083,0.0186 -0.02067,0.0269 -0.0124,0.008 -0.02687,0.008 -0.02481,0 -0.08268,-0.0393 -0.05788,-0.0393 -0.155029,-0.0868 -0.09715,-0.0475 -0.233577,-0.0868 -0.134359,-0.0393 -0.320394,-0.0393 -0.221175,0 -0.396874,0.0806 -0.1757,0.0806 -0.2976564,0.22324 -0.1219562,0.14263 -0.188102,0.339 -0.064079,0.19637 -0.064079,0.42582 0,0.25631 0.07028,0.45475 0.072347,0.19844 0.1984373,0.33486 0.1260899,0.13643 0.2997229,0.20671 0.1757,0.0703 0.384472,0.0703 0.124024,0 0.250114,-0.0289 0.128158,-0.031 0.237712,-0.0909 v -0.77928 h -0.620117 q -0.03514,0 -0.05374,-0.0351 -0.01654,-0.0351 -0.01654,-0.10956 0,-0.0393 0.0041,-0.0661 0.0041,-0.0289 0.0124,-0.0455 0.01034,-0.0186 0.02274,-0.0269 0.0124,-0.008 0.03101,-0.008 h 0.84956 q 0.02274,0 0.04547,0.008 0.02274,0.008 0.04134,0.0248 0.0186,0.0165 0.02894,0.0455 0.01033,0.0289 0.01033,0.0662 v 1.01905 q 0,0.0538 -0.0186,0.093 -0.0186,0.0393 -0.07855,0.0703 -0.05995,0.0289 -0.15503,0.0641 -0.09508,0.0351 -0.19637,0.06 -0.101286,0.0248 -0.204638,0.0372 -0.103353,0.0124 -0.204639,0.0124 -0.310058,0 -0.553971,-0.0951 -0.2439124,-0.0971 -0.4134109,-0.27492 -0.1674315,-0.17777 -0.2563149,-0.42581 -0.088883,-0.24805 -0.088883,-0.55397 0,-0.31833 0.095085,-0.57671 0.097152,-0.25838 0.2707842,-0.44028 0.1756998,-0.1819 0.4196124,-0.28112 0.24598,-0.10129 0.543636,-0.10129 0.152962,0 0.28732,0.0269 0.134359,0.0269 0.237712,0.0641 0.105419,0.0351 0.175699,0.0785 0.07235,0.0413 0.09922,0.0682 0.02687,0.0269 0.03721,0.062 0.01033,0.0351 0.01033,0.10129 z"
         id="path863" />
      <path
         d="m 13.677958,122.56315 q 0,0.0372 -0.0041,0.0661 -0.0041,0.0269 -0.01447,0.0455 -0.01034,0.0186 -0.02481,0.0269 -0.0124,0.008 -0.02894,0.008 h -1.283642 q -0.04754,0 -0.09095,-0.031 -0.04134,-0.0331 -0.04134,-0.11369 v -2.38538 q 0,-0.0806 0.04134,-0.11162 0.04341,-0.0331 0.09095,-0.0331 h 1.269172 q 0.01654,0 0.02894,0.008 0.01447,0.008 0.02274,0.0269 0.0083,0.0186 0.0124,0.0475 0.0062,0.0269 0.0062,0.0682 0,0.0372 -0.0062,0.0661 -0.0041,0.0269 -0.0124,0.0455 -0.0083,0.0165 -0.02274,0.0248 -0.0124,0.008 -0.02894,0.008 h -1.04593 v 0.83922 h 0.897102 q 0.01654,0 0.02894,0.0103 0.01447,0.008 0.02274,0.0248 0.01033,0.0165 0.01447,0.0455 0.0041,0.0289 0.0041,0.0682 0,0.0372 -0.0041,0.0641 -0.0041,0.0269 -0.01447,0.0434 -0.0083,0.0165 -0.02274,0.0248 -0.0124,0.006 -0.02894,0.006 h -0.897102 v 0.95705 h 1.0604 q 0.01654,0 0.02894,0.008 0.01447,0.008 0.02481,0.0269 0.01033,0.0165 0.01447,0.0455 0.0041,0.0269 0.0041,0.0682 z"
         id="path865" />
    </g>
    <g
       aria-label="2 LIFT"
       id="text8544-7-0-8-5-9"
       style="font-size:2.46944px;line-height:1.25;font-family:Calibri;-inkscape-font-specification:Calibri;text-align:center;text-anchor:middle;fill:#ffffff;stroke-width:0.264583">
      <path
         d="m 2.5983669,125.36831 q 0,0.0145 -0.00362,0.0277 -0.00241,0.0121 -0.00844,0.0217 -0.00482,0.008 -0.013264,0.0133 -0.00844,0.005 -0.019293,0.005 H 1.7109119 q -0.010852,0 -0.020498,-0.004 -0.00965,-0.004 -0.016881,-0.0109 -0.00723,-0.008 -0.010852,-0.0217 -0.00362,-0.0133 -0.00362,-0.0314 0,-0.0157 0.00121,-0.0277 0.00121,-0.0121 0.00482,-0.0217 0.00362,-0.01 0.00965,-0.0193 0.00603,-0.01 0.015675,-0.0205 l 0.319532,-0.33762 q 0.1193724,-0.1254 0.1893077,-0.22428 0.071141,-0.0989 0.1085203,-0.17845 0.037379,-0.0796 0.048231,-0.1447 0.012058,-0.0651 0.012058,-0.12299 0,-0.0579 -0.019292,-0.10972 -0.018087,-0.0531 -0.05426,-0.0916 -0.036173,-0.0398 -0.090434,-0.0627 -0.053054,-0.0241 -0.1229897,-0.0241 -0.075964,0 -0.1362532,0.0217 -0.060289,0.0205 -0.1061088,0.047 -0.044614,0.0253 -0.074758,0.047 -0.030145,0.0205 -0.044614,0.0205 -0.00723,0 -0.013264,-0.004 -0.00603,-0.004 -0.010852,-0.0109 -0.00362,-0.008 -0.00603,-0.0205 -0.00121,-0.0121 -0.00121,-0.0277 0,-0.0145 0.00121,-0.0241 0.00121,-0.01 0.00362,-0.0169 0.00241,-0.008 0.00603,-0.0157 0.00482,-0.007 0.018087,-0.0193 0.014469,-0.0121 0.047026,-0.0326 0.033762,-0.0205 0.084405,-0.041 0.050643,-0.0217 0.1121376,-0.0362 0.061495,-0.0157 0.1278128,-0.0157 0.1097261,0 0.1905135,0.0326 0.081993,0.0326 0.1362532,0.088 0.05426,0.0555 0.080787,0.12901 0.026527,0.0724 0.026527,0.15314 0,0.0748 -0.013264,0.14952 -0.012058,0.0736 -0.05426,0.16157 -0.040997,0.0868 -0.1205781,0.19293 -0.078376,0.1061 -0.2098059,0.24477 l -0.2845644,0.29783 H 2.553753 q 0.00965,0 0.018087,0.005 0.00844,0.004 0.014469,0.0121 0.00603,0.008 0.00844,0.0205 0.00362,0.0121 0.00362,0.0265 z"
         style="font-weight:300;-inkscape-font-specification:'Calibri Light'"
         id="path846" />
      <path
         d="m 4.3250456,125.36831 q 0,0.0169 -0.00241,0.0289 -0.00241,0.0121 -0.00723,0.0217 -0.00482,0.008 -0.012058,0.0133 -0.00723,0.004 -0.016881,0.004 H 3.6100173 q -0.021704,0 -0.044614,-0.0157 -0.02291,-0.0169 -0.02291,-0.0603 v -1.4602 q 0,-0.007 0.00362,-0.0133 0.00362,-0.006 0.012058,-0.01 0.00844,-0.004 0.02291,-0.006 0.014469,-0.002 0.034968,-0.002 0.021704,0 0.034968,0.002 0.014469,0.002 0.02291,0.006 0.00844,0.004 0.012058,0.01 0.00362,0.006 0.00362,0.0133 v 1.40233 h 0.5968617 q 0.00965,0 0.016881,0.005 0.00723,0.004 0.012058,0.0121 0.00482,0.007 0.00723,0.0205 0.00241,0.0121 0.00241,0.0289 z"
         style="font-weight:300;-inkscape-font-specification:'Calibri Light'"
         id="path848" />
      <path
         d="m 4.7241593,125.41172 q 0,0.007 -0.00362,0.0133 -0.00362,0.006 -0.012058,0.01 -0.00844,0.004 -0.02291,0.006 -0.013264,0.002 -0.034968,0.002 -0.020498,0 -0.034968,-0.002 -0.014469,-0.002 -0.02291,-0.006 -0.00844,-0.004 -0.012058,-0.01 -0.00362,-0.006 -0.00362,-0.0133 v -1.51205 q 0,-0.007 0.00362,-0.0133 0.00482,-0.006 0.013264,-0.01 0.00965,-0.004 0.02291,-0.006 0.014469,-0.002 0.033762,-0.002 0.021704,0 0.034968,0.002 0.014469,0.002 0.02291,0.006 0.00844,0.004 0.012058,0.01 0.00362,0.006 0.00362,0.0133 z"
         style="font-weight:300;-inkscape-font-specification:'Calibri Light'"
         id="path850" />
      <path
         d="m 5.9697312,123.94308 q 0,0.0157 -0.00241,0.0277 -0.00241,0.0121 -0.00844,0.0205 -0.00482,0.007 -0.012058,0.0121 -0.00723,0.004 -0.015675,0.004 H 5.3270498 v 0.59083 h 0.5727461 q 0.00844,0 0.015675,0.004 0.00723,0.002 0.012058,0.01 0.00603,0.007 0.00844,0.0193 0.00241,0.0121 0.00241,0.0302 0,0.0157 -0.00241,0.0277 -0.00241,0.0121 -0.00844,0.0205 -0.00482,0.007 -0.012058,0.0121 -0.00723,0.004 -0.015675,0.004 H 5.3270498 v 0.68729 q 0,0.007 -0.00362,0.0133 -0.00362,0.006 -0.012058,0.01 -0.00844,0.004 -0.02291,0.006 -0.013264,0.002 -0.034968,0.002 -0.020498,0 -0.034968,-0.002 -0.014469,-0.002 -0.02291,-0.006 -0.00844,-0.004 -0.012058,-0.01 -0.00362,-0.006 -0.00362,-0.0133 v -1.4602 q 0,-0.0434 0.02291,-0.0591 0.02291,-0.0169 0.044614,-0.0169 h 0.6836779 q 0.00844,0 0.015675,0.005 0.00723,0.004 0.012058,0.0121 0.00603,0.008 0.00844,0.0217 0.00241,0.0121 0.00241,0.0289 z"
         style="font-weight:300;-inkscape-font-specification:'Calibri Light'"
         id="path852" />
      <path
         d="m 7.2611232,123.94308 q 0,0.0157 -0.00241,0.0277 -0.00241,0.0121 -0.00723,0.0205 -0.00482,0.007 -0.012058,0.0121 -0.00723,0.004 -0.015675,0.004 H 6.7583124 v 1.40473 q 0,0.007 -0.00362,0.0133 -0.00362,0.006 -0.012058,0.01 -0.00844,0.004 -0.02291,0.006 -0.014469,0.002 -0.034968,0.002 -0.020498,0 -0.034968,-0.002 -0.014469,-0.002 -0.02291,-0.006 -0.00844,-0.004 -0.012058,-0.01 -0.00362,-0.006 -0.00362,-0.0133 v -1.40473 H 6.1457755 q -0.00965,0 -0.016881,-0.004 -0.00603,-0.005 -0.010852,-0.0121 -0.00482,-0.008 -0.00723,-0.0205 -0.00241,-0.0121 -0.00241,-0.0277 0,-0.0169 0.00241,-0.0289 0.00241,-0.0133 0.00723,-0.0217 0.00482,-0.008 0.010852,-0.0121 0.00723,-0.005 0.016881,-0.005 h 1.0779684 q 0.00844,0 0.015675,0.005 0.00723,0.004 0.012058,0.0121 0.00482,0.008 0.00723,0.0217 0.00241,0.0121 0.00241,0.0289 z"
         style="font-weight:300;-inkscape-font-specification:'Calibri Light'"
         id="path854" />
    </g>
    <g
       aria-label="IN"
       id="text8544-7-1"
       style="font-size:3.13629px;line-height:1.25;font-family:Calibri;-inkscape-font-specification:Calibri;text-align:center;text-anchor:middle;fill:#020202;stroke-width:0.264583">
      <path
         d="m 6.7399013,102.95099 q 0,0.0122 -0.00613,0.0214 -0.00613,0.009 -0.021439,0.0153 -0.015314,0.005 -0.041348,0.008 -0.024502,0.005 -0.062787,0.005 -0.036753,0 -0.062787,-0.005 -0.026034,-0.003 -0.041348,-0.008 -0.015314,-0.006 -0.021439,-0.0153 -0.00613,-0.009 -0.00613,-0.0214 V 101.049 q 0,-0.0123 0.00613,-0.0214 0.00766,-0.009 0.022971,-0.0138 0.016845,-0.006 0.041348,-0.009 0.026034,-0.005 0.061256,-0.005 0.038285,0 0.062787,0.005 0.026034,0.003 0.041348,0.009 0.015314,0.005 0.021439,0.0138 0.00613,0.009 0.00613,0.0214 z"
         id="path841" />
      <path
         d="m 8.764401,102.88208 q 0,0.0306 -0.01072,0.0521 -0.00919,0.0214 -0.026034,0.0352 -0.015314,0.0138 -0.035222,0.0199 -0.019908,0.006 -0.039816,0.006 h -0.084226 q -0.039816,0 -0.070444,-0.008 -0.029096,-0.009 -0.056661,-0.0306 -0.026034,-0.023 -0.053599,-0.0613 -0.026034,-0.0383 -0.058193,-0.098 l -0.6248078,-1.1271 q -0.049005,-0.0873 -0.099541,-0.18224 -0.049004,-0.0965 -0.091883,-0.18683 h -0.00306 q 0.00306,0.11026 0.00459,0.22512 0.00153,0.11485 0.00153,0.22817 v 1.19602 q 0,0.0107 -0.00613,0.0214 -0.00613,0.009 -0.021439,0.0153 -0.013783,0.005 -0.038285,0.008 -0.022971,0.005 -0.059724,0.005 -0.036753,0 -0.061256,-0.005 -0.022971,-0.003 -0.036753,-0.008 -0.013783,-0.006 -0.019908,-0.0153 -0.00613,-0.0107 -0.00613,-0.0214 v -1.82848 q 0,-0.0613 0.033691,-0.0873 0.033691,-0.026 0.073507,-0.026 h 0.1255741 q 0.04441,0 0.073507,0.008 0.030628,0.008 0.053599,0.026 0.024502,0.0168 0.045942,0.049 0.022971,0.0306 0.049005,0.0781 l 0.480857,0.86983 q 0.04441,0.0796 0.085758,0.1562 0.041348,0.075 0.079632,0.14855 0.038285,0.0735 0.075038,0.14548 0.038285,0.0705 0.075038,0.14242 h 0.00153 q -0.00306,-0.12098 -0.00459,-0.25115 0,-0.1317 0,-0.25268 v -1.07503 q 0,-0.0107 0.00613,-0.0199 0.00613,-0.009 0.019908,-0.0153 0.015314,-0.008 0.038285,-0.0107 0.024502,-0.003 0.062787,-0.003 0.033691,0 0.058193,0.003 0.024502,0.003 0.038285,0.0107 0.013783,0.006 0.019908,0.0153 0.00613,0.009 0.00613,0.0199 z"
         id="path843" />
    </g>
    <g
       aria-label="POLY"
       id="text8544-7-1-9"
       style="font-size:3.07508px;line-height:1.25;font-family:Calibri;-inkscape-font-specification:Calibri;text-align:center;text-anchor:middle;fill:#ffffff;stroke-width:0.264583">
      <path
         d="m 5.8856002,115.5976 q 0,0.14564 -0.048048,0.26276 -0.048048,0.11712 -0.1381383,0.1997 -0.088589,0.0826 -0.2192196,0.12763 -0.1291293,0.045 -0.3093098,0.045 H 4.9501633 v 0.6997 q 0,0.012 -0.00751,0.021 -0.00601,0.009 -0.021021,0.015 -0.013514,0.005 -0.039039,0.008 -0.024024,0.004 -0.061562,0.004 -0.037538,0 -0.063063,-0.004 -0.024024,-0.003 -0.039039,-0.008 -0.015015,-0.006 -0.021021,-0.015 -0.00601,-0.009 -0.00601,-0.021 v -1.79279 q 0,-0.0601 0.031532,-0.0856 0.031531,-0.0255 0.070571,-0.0255 h 0.4159166 q 0.063063,0 0.1201203,0.006 0.058559,0.005 0.1366369,0.0225 0.07958,0.0165 0.1606609,0.0646 0.082583,0.0466 0.1396398,0.11562 0.057057,0.0691 0.087087,0.16066 0.031531,0.0901 0.031531,0.1997 z m -0.2717722,0.021 q 0,-0.11862 -0.045045,-0.1982 -0.043544,-0.0796 -0.1096098,-0.11862 -0.064565,-0.039 -0.1351353,-0.0495 -0.069069,-0.0105 -0.1351353,-0.0105 H 4.9501633 v 0.77928 h 0.2327331 q 0.1171173,0 0.193694,-0.03 0.078078,-0.03 0.1306309,-0.0826 0.052553,-0.0541 0.07958,-0.12763 0.027027,-0.0751 0.027027,-0.16216 z"
         id="path832" />
      <path
         d="m 7.908126,115.97748 q 0,0.23573 -0.055556,0.42492 -0.055556,0.18919 -0.1666669,0.32283 -0.1096098,0.13213 -0.2762767,0.2042 Q 7.2429597,117 7.0207372,117 q -0.2192196,0 -0.3798805,-0.0646 -0.1591594,-0.0661 -0.2642647,-0.19069 -0.1036037,-0.12463 -0.1546549,-0.30931 -0.051051,-0.18469 -0.051051,-0.42493 0,-0.22973 0.055556,-0.41742 0.055556,-0.18768 0.166667,-0.31832 0.1111112,-0.13213 0.2777782,-0.2027 Q 6.8375537,115 7.0597763,115 q 0.214715,0 0.3738744,0.0646 0.1591594,0.0646 0.2642647,0.18919 0.1066068,0.12313 0.1576579,0.30631 0.052553,0.18168 0.052553,0.41742 z m -0.2717722,0.018 q 0,-0.16517 -0.03003,-0.30631 -0.028529,-0.14264 -0.097598,-0.24625 -0.067568,-0.1051 -0.1816819,-0.16366 -0.1141143,-0.0586 -0.2822828,-0.0586 -0.1681684,0 -0.2822827,0.0631 -0.1141143,0.0631 -0.1861865,0.16817 -0.070571,0.10511 -0.1021022,0.24625 -0.03003,0.13964 -0.03003,0.29429 0,0.17117 0.028529,0.31532 0.028529,0.14414 0.096096,0.24925 0.067568,0.1036 0.1801805,0.16216 0.1141143,0.0571 0.2852857,0.0571 0.1696699,0 0.2852857,-0.0631 0.1156158,-0.0631 0.1861865,-0.16967 0.070571,-0.10811 0.1006008,-0.24925 0.03003,-0.14115 0.03003,-0.2988 z"
         id="path834" />
      <path
         d="m 9.3240442,116.85886 q 0,0.03 -0.003,0.051 -0.003,0.0195 -0.010511,0.0345 -0.00601,0.0135 -0.016517,0.021 -0.00901,0.006 -0.022523,0.006 H 8.4126314 q -0.034535,0 -0.066066,-0.0225 -0.03003,-0.024 -0.03003,-0.0826 v -1.7988 q 0,-0.012 0.00601,-0.021 0.00601,-0.009 0.021021,-0.0135 0.015015,-0.006 0.040541,-0.009 0.025526,-0.004 0.061562,-0.004 0.037538,0 0.061562,0.004 0.025526,0.003 0.040541,0.009 0.015015,0.005 0.021021,0.0135 0.00601,0.009 0.00601,0.021 v 1.68018 h 0.6966978 q 0.013514,0 0.022523,0.008 0.010511,0.006 0.016517,0.0195 0.00751,0.012 0.010511,0.033 0.003,0.021 0.003,0.0511 z"
         id="path836" />
      <path
         d="m 9.9786999,116.21622 v 0.71621 q 0,0.012 -0.00601,0.021 -0.00601,0.009 -0.021021,0.015 -0.015015,0.005 -0.040541,0.008 -0.025526,0.004 -0.061562,0.004 -0.037538,0 -0.063063,-0.004 -0.024024,-0.003 -0.040541,-0.008 -0.015015,-0.006 -0.021021,-0.015 -0.00601,-0.009 -0.00601,-0.021 v -0.71621 l -0.5495504,-1.0961 q -0.016516,-0.0345 -0.021021,-0.0541 -0.003,-0.0195 0.00751,-0.03 0.012012,-0.0105 0.040541,-0.0135 0.03003,-0.003 0.07958,-0.003 0.045045,0 0.072072,0.003 0.028529,0.003 0.045045,0.009 0.016516,0.005 0.024024,0.015 0.00901,0.009 0.016516,0.024 l 0.2687692,0.55856 q 0.037538,0.0796 0.075075,0.16667 0.037538,0.0871 0.076577,0.17567 h 0.003 q 0.034535,-0.0856 0.070571,-0.16967 0.037538,-0.0856 0.075075,-0.16817 l 0.270271,-0.56156 q 0.0045,-0.015 0.01201,-0.0255 0.009,-0.0105 0.02252,-0.015 0.01501,-0.006 0.04054,-0.009 0.02553,-0.003 0.06456,-0.003 0.05405,0 0.08408,0.004 0.03153,0.003 0.04354,0.0135 0.01201,0.0105 0.0075,0.03 -0.003,0.0195 -0.01952,0.0525 z"
         id="path838" />
    </g>
  </g>
</svg>
