<?xml version="1.0" encoding="UTF-8" standalone="no"?>
<!-- Created with Inkscape (http://www.inkscape.org/) -->

<svg
   width="30.488001mm"
   height="128.50433mm"
   viewBox="0 0 30.488001 128.50433"
   version="1.1"
   id="svg5"
   inkscape:version="1.1.2 (b8e25be833, 2022-02-05)"
   sodipodi:docname="PVolt.svg"
   xmlns:inkscape="http://www.inkscape.org/namespaces/inkscape"
   xmlns:sodipodi="http://sodipodi.sourceforge.net/DTD/sodipodi-0.dtd"
   xmlns="http://www.w3.org/2000/svg"
   xmlns:svg="http://www.w3.org/2000/svg">
  <sodipodi:namedview
     id="namedview7"
     pagecolor="#ffffff"
     bordercolor="#666666"
     borderopacity="1.0"
     inkscape:pageshadow="2"
     inkscape:pageopacity="0.0"
     inkscape:pagecheckerboard="0"
     inkscape:document-units="mm"
     showgrid="false"
     height="128.5mm"
     inkscape:zoom="4.9217646"
     inkscape:cx="-17.778177"
     inkscape:cy="362.77639"
     inkscape:window-width="3840"
     inkscape:window-height="2054"
     inkscape:window-x="-11"
     inkscape:window-y="-11"
     inkscape:window-maximized="0"
     inkscape:current-layer="layer1" />
  <defs
     id="defs2" />
  <g
     inkscape:label="Layer 1"
     inkscape:groupmode="layer"
     id="layer1"
     transform="translate(0.00163785)">
    <path
       id="rect4302"
       style="fill:#111111;stroke-width:0.184932"
       d="M -0.00163785,1.6577559e-8 H 30.486363 V 128.50433 H -0.00163785 Z" />
    <path
       id="rect10313"
       style="fill:#AAAAAA;stroke-width:0.264582"
       d="m 3.1204512,6 h 9.8110008 c 0.831,0 1.499999,0.6689998 1.499999,1.4999995 V 116.5 c 0,0.831 -0.668999,1.5 -1.499999,1.5 H 3.1204512 c -0.8309998,0 -1.4999996,-0.669 -1.4999996,-1.5 V 7.4999995 C 1.6204516,6.6689998 2.2894514,6 3.1204512,6 Z" />
    <path
       id="rect10313-0"
       style="fill:#AAAAAA;stroke-width:0.264582"
       d="m 17.553362,6 h 9.811 c 0.831,0 1.5,0.6689998 1.5,1.4999995 V 116.5 c 0,0.831 -0.669,1.5 -1.5,1.5 h -9.811 c -0.831,0 -1.5,-0.669 -1.5,-1.5 V 7.4999995 C 16.053362,6.6689998 16.722362,6 17.553362,6 Z" />
    <path
       id="rect10313-8"
       style="fill:#b2b2b2;stroke-width:0.264582"
       d="m 17.55336,101.84969 h 9.811 c 0.831,0 1.5,0.669 1.5,1.5 v 13.15032 c 0,0.831 -0.669,1.5 -1.5,1.5 h -9.811 c -0.831,0 -1.5,-0.669 -1.5,-1.5 v -13.15032 c 0,-0.831 0.669,-1.5 1.5,-1.5 z" />
    <path
       id="rect10313-4"
       style="fill:#AAAAAA;stroke-width:0.264583"
       d="m 3.1204513,136.22836 h 9.0000007 c 0.831,0 1.5,0.669 1.5,1.5 v 9.59748 c 0,0.831 -0.669,1.5 -1.5,1.5 H 3.1204513 c -0.8309998,0 -1.4999997,-0.669 -1.4999997,-1.5 v -9.59748 c 0,-0.831 0.6689999,-1.5 1.4999997,-1.5 z" />
    <g
       aria-label="PVOLT"
       id="text8544-7-0-8-5"
       style="font-size:4.23333px;line-height:1.25;font-family:Calibri;-inkscape-font-specification:Calibri;text-align:center;letter-spacing:0px;text-anchor:middle;fill:#ffffff;stroke-width:0.264583">
      <path
         d="m 3.1603184,120.80202 q 0,0.18603 -0.064079,0.34106 -0.062012,0.15503 -0.1798339,0.26665 -0.1178221,0.11162 -0.2873207,0.17363 -0.1694985,0.062 -0.409277,0.062 H 1.8725428 v 1.0232 q 0,0.0124 -0.0062,0.0227 -0.0062,0.0103 -0.020671,0.0165 -0.014469,0.006 -0.039274,0.0103 -0.022738,0.004 -0.059945,0.004 -0.03514,0 -0.059945,-0.004 -0.024805,-0.004 -0.039274,-0.0103 -0.014469,-0.006 -0.02067,-0.0165 -0.0062,-0.0103 -0.0062,-0.0227 v -2.50321 q 0,-0.0744 0.039274,-0.10128 0.039274,-0.0289 0.076481,-0.0289 h 0.5436356 q 0.080615,0 0.1570963,0.008 0.076481,0.006 0.1777667,0.031 0.1033528,0.0227 0.2087726,0.0889 0.1074869,0.0641 0.1819009,0.15916 0.074414,0.093 0.1136881,0.21497 0.041341,0.11989 0.041341,0.26459 z m -0.2666502,0.0227 q 0,-0.17363 -0.068213,-0.29352 -0.068213,-0.12196 -0.1674315,-0.17983 -0.097152,-0.06 -0.2046385,-0.0744 -0.1054198,-0.0165 -0.2005044,-0.0165 H 1.8725428 v 1.16168 h 0.3638018 q 0.1756997,0 0.2935219,-0.0434 0.1178221,-0.0455 0.1984373,-0.12402 0.080615,-0.0785 0.1219563,-0.1881 0.043408,-0.11162 0.043408,-0.24185 z"
         style="font-weight:300;-inkscape-font-specification:'Calibri Light'"
         id="path920" />
      <path
         d="m 4.6920065,122.66443 q -0.0062,0.0165 -0.018603,0.0289 -0.012402,0.0103 -0.033073,0.0165 -0.018604,0.006 -0.047542,0.008 -0.026872,0.004 -0.062012,0.004 -0.024805,0 -0.045475,-0.002 -0.020671,0 -0.037207,-0.004 -0.016536,-0.002 -0.028939,-0.006 -0.012402,-0.004 -0.022738,-0.0103 -0.010335,-0.006 -0.016536,-0.0145 -0.0062,-0.008 -0.010335,-0.0207 l -0.9157057,-2.54454 q -0.012402,-0.031 -0.012402,-0.0496 0.00207,-0.0207 0.016536,-0.031 0.014469,-0.0103 0.043408,-0.0124 0.028939,-0.004 0.076481,-0.004 0.039274,0 0.062012,0.004 0.024805,0.002 0.037207,0.008 0.014469,0.006 0.020671,0.0165 0.00827,0.0103 0.014469,0.0248 l 0.8309563,2.35438 h 0.00207 l 0.8061516,-2.35438 q 0.00413,-0.0145 0.010335,-0.0248 0.0062,-0.0103 0.020671,-0.0165 0.016536,-0.006 0.043408,-0.008 0.026872,-0.004 0.07028,-0.004 0.047542,0 0.074414,0.004 0.028939,0.004 0.039274,0.0145 0.012402,0.0103 0.010335,0.0289 0,0.0186 -0.012402,0.0496 z"
         style="font-weight:300;-inkscape-font-specification:'Calibri Light'"
         id="path922" />
      <path
         d="m 8.2060009,121.34152 q 0,0.32039 -0.074414,0.58084 -0.072347,0.25838 -0.2191079,0.44235 -0.1467609,0.1819 -0.3700029,0.28112 -0.223242,0.0992 -0.520898,0.0992 -0.297656,0 -0.5126298,-0.093 -0.2129067,-0.0951 -0.3513994,-0.26872 -0.1364257,-0.1757 -0.2025715,-0.42788 -0.064079,-0.25218 -0.064079,-0.56844 0,-0.31419 0.072347,-0.57051 0.072347,-0.25631 0.2191079,-0.43614 0.148828,-0.1819 0.370003,-0.28112 Q 6.7755985,120 7.0753215,120 q 0.2914549,0 0.5043616,0.093 0.2129067,0.093 0.3513994,0.26665 0.1405598,0.17363 0.2067056,0.42167 0.068213,0.24805 0.068213,0.56018 z m -0.2687172,0.0227 q 0,-0.23771 -0.045475,-0.44441 -0.043408,-0.20878 -0.146761,-0.36174 -0.1012857,-0.15503 -0.2707843,-0.24184 -0.1694985,-0.0889 -0.4196122,-0.0889 -0.2480467,0 -0.4196123,0.093 -0.1694986,0.0909 -0.2769854,0.24598 -0.1054199,0.15503 -0.1529622,0.36174 -0.045475,0.2067 -0.045475,0.43614 0,0.24392 0.041341,0.45476 0.043408,0.20877 0.1446939,0.3638 0.1012857,0.15503 0.2707843,0.24391 0.1694985,0.0868 0.4237464,0.0868 0.2521808,0 0.4237464,-0.093 0.1715656,-0.0951 0.2769854,-0.25218 0.1054198,-0.15916 0.1508951,-0.36587 0.045475,-0.20877 0.045475,-0.43822 z"
         style="font-weight:300;-inkscape-font-specification:'Calibri Light'"
         id="path924" />
      <path
         d="m 10.16557,122.59415 q 0,0.0289 -0.0041,0.0496 -0.0041,0.0207 -0.0124,0.0372 -0.0083,0.0145 -0.02067,0.0227 -0.0124,0.006 -0.02894,0.006 H 8.9398057 q -0.037207,0 -0.076481,-0.0269 -0.039274,-0.0289 -0.039274,-0.10336 v -2.5032 q 0,-0.0124 0.0062,-0.0227 0.0062,-0.0103 0.020671,-0.0165 0.014469,-0.006 0.039274,-0.0103 0.024805,-0.004 0.059945,-0.004 0.037207,0 0.059945,0.004 0.024805,0.004 0.039274,0.0103 0.014469,0.006 0.02067,0.0165 0.0062,0.0103 0.0062,0.0227 v 2.40398 h 1.0231926 q 0.01654,0 0.02894,0.008 0.0124,0.006 0.02067,0.0207 0.0083,0.0124 0.0124,0.0351 0.0041,0.0207 0.0041,0.0496 z"
         style="font-weight:300;-inkscape-font-specification:'Calibri Light'"
         id="path926" />
      <path
         d="m 11.908097,120.15089 q 0,0.0269 -0.0041,0.0476 -0.0041,0.0207 -0.0124,0.0351 -0.0083,0.0124 -0.02067,0.0207 -0.0124,0.006 -0.02687,0.006 h -0.797884 v 2.40812 q 0,0.0124 -0.0062,0.0227 -0.0062,0.0103 -0.02067,0.0165 -0.01447,0.006 -0.03927,0.0103 -0.0248,0.004 -0.05994,0.004 -0.03514,0 -0.05995,-0.004 -0.0248,-0.004 -0.03927,-0.0103 -0.01447,-0.006 -0.02067,-0.0165 -0.0062,-0.0103 -0.0062,-0.0227 v -2.40812 H 9.996071 q -0.016536,0 -0.028939,-0.006 -0.010335,-0.008 -0.018603,-0.0207 -0.00827,-0.0145 -0.012402,-0.0351 -0.00413,-0.0207 -0.00413,-0.0476 0,-0.0289 0.00413,-0.0496 0.00413,-0.0227 0.012402,-0.0372 0.00827,-0.0145 0.018603,-0.0207 0.012402,-0.008 0.028939,-0.008 h 1.847948 q 0.01447,0 0.02687,0.008 0.0124,0.006 0.02067,0.0207 0.0083,0.0145 0.0124,0.0372 0.0041,0.0207 0.0041,0.0496 z"
         style="font-weight:300;-inkscape-font-specification:'Calibri Light'"
         id="path928" />
    </g>
    <g
       aria-label="2 LIFT"
       id="text8544-7-0-8-5-9"
       style="font-size:2.46944px;line-height:1.25;font-family:Calibri;-inkscape-font-specification:Calibri;text-align:center;text-anchor:middle;fill:#ffffff;stroke-width:0.264583">
      <path
         d="m 2.5983669,125.36831 q 0,0.0145 -0.00362,0.0277 -0.00241,0.0121 -0.00844,0.0217 -0.00482,0.008 -0.013264,0.0133 -0.00844,0.005 -0.019293,0.005 H 1.7109119 q -0.010852,0 -0.020498,-0.004 -0.00965,-0.004 -0.016881,-0.0109 -0.00723,-0.008 -0.010852,-0.0217 -0.00362,-0.0133 -0.00362,-0.0314 0,-0.0157 0.00121,-0.0277 0.00121,-0.0121 0.00482,-0.0217 0.00362,-0.01 0.00965,-0.0193 0.00603,-0.01 0.015675,-0.0205 l 0.319532,-0.33762 q 0.1193724,-0.1254 0.1893077,-0.22428 0.071141,-0.0989 0.1085203,-0.17845 0.037379,-0.0796 0.048231,-0.1447 0.012058,-0.0651 0.012058,-0.12299 0,-0.0579 -0.019292,-0.10972 -0.018087,-0.0531 -0.05426,-0.0916 -0.036173,-0.0398 -0.090434,-0.0627 -0.053054,-0.0241 -0.1229897,-0.0241 -0.075964,0 -0.1362532,0.0217 -0.060289,0.0205 -0.1061088,0.047 -0.044614,0.0253 -0.074758,0.047 -0.030145,0.0205 -0.044614,0.0205 -0.00723,0 -0.013264,-0.004 -0.00603,-0.004 -0.010852,-0.0109 -0.00362,-0.008 -0.00603,-0.0205 -0.00121,-0.0121 -0.00121,-0.0277 0,-0.0145 0.00121,-0.0241 0.00121,-0.01 0.00362,-0.0169 0.00241,-0.008 0.00603,-0.0157 0.00482,-0.007 0.018087,-0.0193 0.014469,-0.0121 0.047026,-0.0326 0.033762,-0.0205 0.084405,-0.041 0.050643,-0.0217 0.1121376,-0.0362 0.061495,-0.0157 0.1278128,-0.0157 0.1097261,0 0.1905135,0.0326 0.081993,0.0326 0.1362532,0.088 0.05426,0.0555 0.080787,0.12901 0.026527,0.0724 0.026527,0.15314 0,0.0748 -0.013264,0.14952 -0.012058,0.0736 -0.05426,0.16157 -0.040997,0.0868 -0.1205781,0.19293 -0.078376,0.1061 -0.2098059,0.24477 l -0.2845644,0.29783 H 2.553753 q 0.00965,0 0.018087,0.005 0.00844,0.004 0.014469,0.0121 0.00603,0.008 0.00844,0.0205 0.00362,0.0121 0.00362,0.0265 z"
         style="font-weight:300;-inkscape-font-specification:'Calibri Light'"
         id="path909" />
      <path
         d="m 4.3250456,125.36831 q 0,0.0169 -0.00241,0.0289 -0.00241,0.0121 -0.00723,0.0217 -0.00482,0.008 -0.012058,0.0133 -0.00723,0.004 -0.016881,0.004 H 3.6100173 q -0.021704,0 -0.044614,-0.0157 -0.02291,-0.0169 -0.02291,-0.0603 v -1.4602 q 0,-0.007 0.00362,-0.0133 0.00362,-0.006 0.012058,-0.01 0.00844,-0.004 0.02291,-0.006 0.014469,-0.002 0.034968,-0.002 0.021704,0 0.034968,0.002 0.014469,0.002 0.02291,0.006 0.00844,0.004 0.012058,0.01 0.00362,0.006 0.00362,0.0133 v 1.40233 h 0.5968617 q 0.00965,0 0.016881,0.005 0.00723,0.004 0.012058,0.0121 0.00482,0.007 0.00723,0.0205 0.00241,0.0121 0.00241,0.0289 z"
         style="font-weight:300;-inkscape-font-specification:'Calibri Light'"
         id="path911" />
      <path
         d="m 4.7241593,125.41172 q 0,0.007 -0.00362,0.0133 -0.00362,0.006 -0.012058,0.01 -0.00844,0.004 -0.02291,0.006 -0.013264,0.002 -0.034968,0.002 -0.020498,0 -0.034968,-0.002 -0.014469,-0.002 -0.02291,-0.006 -0.00844,-0.004 -0.012058,-0.01 -0.00362,-0.006 -0.00362,-0.0133 v -1.51205 q 0,-0.007 0.00362,-0.0133 0.00482,-0.006 0.013264,-0.01 0.00965,-0.004 0.02291,-0.006 0.014469,-0.002 0.033762,-0.002 0.021704,0 0.034968,0.002 0.014469,0.002 0.02291,0.006 0.00844,0.004 0.012058,0.01 0.00362,0.006 0.00362,0.0133 z"
         style="font-weight:300;-inkscape-font-specification:'Calibri Light'"
         id="path913" />
      <path
         d="m 5.9697312,123.94308 q 0,0.0157 -0.00241,0.0277 -0.00241,0.0121 -0.00844,0.0205 -0.00482,0.007 -0.012058,0.0121 -0.00723,0.004 -0.015675,0.004 H 5.3270498 v 0.59083 h 0.5727461 q 0.00844,0 0.015675,0.004 0.00723,0.002 0.012058,0.01 0.00603,0.007 0.00844,0.0193 0.00241,0.0121 0.00241,0.0302 0,0.0157 -0.00241,0.0277 -0.00241,0.0121 -0.00844,0.0205 -0.00482,0.007 -0.012058,0.0121 -0.00723,0.004 -0.015675,0.004 H 5.3270498 v 0.68729 q 0,0.007 -0.00362,0.0133 -0.00362,0.006 -0.012058,0.01 -0.00844,0.004 -0.02291,0.006 -0.013264,0.002 -0.034968,0.002 -0.020498,0 -0.034968,-0.002 -0.014469,-0.002 -0.02291,-0.006 -0.00844,-0.004 -0.012058,-0.01 -0.00362,-0.006 -0.00362,-0.0133 v -1.4602 q 0,-0.0434 0.02291,-0.0591 0.02291,-0.0169 0.044614,-0.0169 h 0.6836779 q 0.00844,0 0.015675,0.005 0.00723,0.004 0.012058,0.0121 0.00603,0.008 0.00844,0.0217 0.00241,0.0121 0.00241,0.0289 z"
         style="font-weight:300;-inkscape-font-specification:'Calibri Light'"
         id="path915" />
      <path
         d="m 7.2611232,123.94308 q 0,0.0157 -0.00241,0.0277 -0.00241,0.0121 -0.00723,0.0205 -0.00482,0.007 -0.012058,0.0121 -0.00723,0.004 -0.015675,0.004 H 6.7583124 v 1.40473 q 0,0.007 -0.00362,0.0133 -0.00362,0.006 -0.012058,0.01 -0.00844,0.004 -0.02291,0.006 -0.014469,0.002 -0.034968,0.002 -0.020498,0 -0.034968,-0.002 -0.014469,-0.002 -0.02291,-0.006 -0.00844,-0.004 -0.012058,-0.01 -0.00362,-0.006 -0.00362,-0.0133 v -1.40473 H 6.1457755 q -0.00965,0 -0.016881,-0.004 -0.00603,-0.005 -0.010852,-0.0121 -0.00482,-0.008 -0.00723,-0.0205 -0.00241,-0.0121 -0.00241,-0.0277 0,-0.0169 0.00241,-0.0289 0.00241,-0.0133 0.00723,-0.0217 0.00482,-0.008 0.010852,-0.0121 0.00723,-0.005 0.016881,-0.005 h 1.0779684 q 0.00844,0 0.015675,0.005 0.00723,0.004 0.012058,0.0121 0.00482,0.008 0.00723,0.0217 0.00241,0.0121 0.00241,0.0289 z"
         style="font-weight:300;-inkscape-font-specification:'Calibri Light'"
         id="path917" />
    </g>
    <g
       aria-label="CLOCK"
       id="text8544-7-1"
       style="font-size:2.82222px;line-height:1.25;font-family:Calibri;-inkscape-font-specification:Calibri;text-align:center;text-anchor:middle;stroke-width:0.264583">
      <path
         d="m 3.8273392,116.05718 q 0,0.022 -0.00138,0.0386 -0.00138,0.0165 -0.00551,0.0289 -0.00276,0.0124 -0.00827,0.022 -0.00551,0.01 -0.019293,0.0234 -0.01378,0.0138 -0.057878,0.0427 -0.044097,0.0276 -0.110243,0.0551 -0.064768,0.0262 -0.150206,0.0441 -0.08406,0.0193 -0.184657,0.0193 -0.1736327,0 -0.3141925,-0.0579 -0.1391817,-0.0579 -0.2384004,-0.17088 -0.097841,-0.113 -0.1515841,-0.27836 -0.052365,-0.16674 -0.052365,-0.3831 0,-0.22186 0.0565,-0.39549 0.057878,-0.17364 0.1612304,-0.29353 0.1033528,-0.12126 0.2466686,-0.18465 0.1446939,-0.0634 0.3197047,-0.0634 0.07717,0 0.150206,0.0152 0.073036,0.0138 0.1350476,0.0358 0.062012,0.022 0.110243,0.051 0.048231,0.0289 0.066146,0.0482 0.019292,0.0179 0.024805,0.0276 0.00551,0.01 0.00827,0.0234 0.00413,0.0124 0.00551,0.0303 0.00276,0.0179 0.00276,0.0427 0,0.0276 -0.00276,0.0468 -0.00276,0.0193 -0.00827,0.0331 -0.00551,0.0124 -0.01378,0.0193 -0.00689,0.006 -0.017914,0.006 -0.019293,0 -0.053744,-0.0262 -0.034451,-0.0276 -0.089572,-0.0593 -0.053743,-0.0331 -0.1322916,-0.0593 -0.07717,-0.0276 -0.186035,-0.0276 -0.1185112,0 -0.2163518,0.0482 -0.096463,0.0469 -0.1653645,0.13919 -0.068902,0.0923 -0.1074869,0.22599 -0.037207,0.1323 -0.037207,0.30317 0,0.1695 0.035829,0.30042 0.037207,0.12953 0.1047308,0.21772 0.068902,0.0868 0.1681205,0.1323 0.099219,0.0441 0.2246201,0.0441 0.1061089,0 0.184657,-0.0262 0.079926,-0.0262 0.1350476,-0.0579 0.0565,-0.0331 0.092329,-0.0593 0.035829,-0.0262 0.056499,-0.0262 0.00965,0 0.016536,0.004 0.00689,0.004 0.011024,0.0165 0.00413,0.011 0.00551,0.0317 0.00276,0.0207 0.00276,0.0524 z"
         id="path898" />
      <path
         d="m 5.0661946,116.206 q 0,0.0276 -0.00276,0.0469 -0.00276,0.0179 -0.00965,0.0317 -0.00551,0.0124 -0.015158,0.0193 -0.00827,0.006 -0.020671,0.006 H 4.229726 q -0.031695,0 -0.060634,-0.0207 -0.027561,-0.0221 -0.027561,-0.0758 v -1.65088 q 0,-0.011 0.00551,-0.0193 0.00551,-0.008 0.019293,-0.0124 0.01378,-0.006 0.037207,-0.008 0.023427,-0.004 0.0565,-0.004 0.034451,0 0.0565,0.004 0.023427,0.003 0.037207,0.008 0.01378,0.004 0.019292,0.0124 0.00551,0.008 0.00551,0.0193 v 1.54202 h 0.6394093 q 0.012402,0 0.020671,0.007 0.00965,0.006 0.015158,0.0179 0.00689,0.011 0.00965,0.0303 0.00276,0.0193 0.00276,0.0469 z"
         id="path900" />
      <path
         d="m 6.7598022,115.3971 q 0,0.21635 -0.050987,0.38998 -0.050987,0.17363 -0.1529622,0.29628 -0.1005967,0.12127 -0.2535588,0.18741 -0.1529621,0.0648 -0.3569116,0.0648 -0.2011934,0 -0.3486434,-0.0593 -0.1460719,-0.0606 -0.2425345,-0.17501 -0.095085,-0.11437 -0.1419379,-0.28387 -0.046853,-0.1695 -0.046853,-0.38999 0,-0.21084 0.050987,-0.38309 0.050987,-0.17226 0.1529622,-0.29215 0.1019747,-0.12126 0.2549368,-0.18603 0.1529622,-0.0662 0.3569117,-0.0662 0.1970593,0 0.3431312,0.0593 0.1460719,0.0593 0.2425345,0.17363 0.097841,0.113 0.1446939,0.28112 0.048231,0.16674 0.048231,0.3831 z m -0.2494247,0.0165 q 0,-0.15158 -0.027561,-0.28112 -0.026183,-0.13091 -0.089572,-0.226 -0.062012,-0.0965 -0.1667425,-0.1502 -0.1047309,-0.0537 -0.259071,-0.0537 -0.1543402,0 -0.259071,0.0579 -0.1047308,0.0579 -0.1708766,0.15434 -0.064768,0.0965 -0.093706,0.226 -0.027561,0.12816 -0.027561,0.2701 0,0.15709 0.026183,0.28938 0.026183,0.1323 0.088194,0.22876 0.062012,0.0951 0.1653645,0.14883 0.1047308,0.0524 0.261827,0.0524 0.1557182,0 0.2618271,-0.0579 0.1061088,-0.0579 0.1708766,-0.15571 0.064768,-0.0992 0.092328,-0.22876 0.027561,-0.12953 0.027561,-0.27423 z"
         id="path902" />
      <path
         d="m 8.3252526,116.05718 q 0,0.022 -0.00138,0.0386 -0.00138,0.0165 -0.00551,0.0289 -0.00276,0.0124 -0.00827,0.022 -0.00551,0.01 -0.019293,0.0234 -0.01378,0.0138 -0.057878,0.0427 -0.044097,0.0276 -0.110243,0.0551 -0.064768,0.0262 -0.150206,0.0441 -0.08406,0.0193 -0.184657,0.0193 -0.1736327,0 -0.3141925,-0.0579 -0.1391818,-0.0579 -0.2384004,-0.17088 -0.097841,-0.113 -0.1515841,-0.27836 -0.052365,-0.16674 -0.052365,-0.3831 0,-0.22186 0.0565,-0.39549 0.057878,-0.17364 0.1612303,-0.29353 0.1033528,-0.12126 0.2466687,-0.18465 0.1446939,-0.0634 0.3197046,-0.0634 0.07717,0 0.1502061,0.0152 0.073036,0.0138 0.1350476,0.0358 0.062012,0.022 0.110243,0.051 0.048231,0.0289 0.066146,0.0482 0.019293,0.0179 0.024805,0.0276 0.00551,0.01 0.00827,0.0234 0.00413,0.0124 0.00551,0.0303 0.00276,0.0179 0.00276,0.0427 0,0.0276 -0.00276,0.0468 -0.00276,0.0193 -0.00827,0.0331 -0.00551,0.0124 -0.01378,0.0193 -0.00689,0.006 -0.017914,0.006 -0.019292,0 -0.053743,-0.0262 -0.034451,-0.0276 -0.089572,-0.0593 -0.053743,-0.0331 -0.1322916,-0.0593 -0.07717,-0.0276 -0.186035,-0.0276 -0.1185112,0 -0.2163519,0.0482 -0.096463,0.0469 -0.1653644,0.13919 -0.068902,0.0923 -0.1074869,0.22599 -0.037207,0.1323 -0.037207,0.30317 0,0.1695 0.035829,0.30042 0.037207,0.12953 0.1047308,0.21772 0.068902,0.0868 0.1681205,0.1323 0.099219,0.0441 0.2246201,0.0441 0.1061088,0 0.1846569,-0.0262 0.079926,-0.0262 0.1350477,-0.0579 0.0565,-0.0331 0.092329,-0.0593 0.035829,-0.0262 0.056499,-0.0262 0.00965,0 0.016536,0.004 0.00689,0.004 0.011024,0.0165 0.00413,0.011 0.00551,0.0317 0.00276,0.0207 0.00276,0.0524 z"
         id="path904" />
      <path
         d="m 9.8025084,116.27077 q 0,0.011 -0.00551,0.0207 -0.00413,0.008 -0.017914,0.0138 -0.01378,0.006 -0.037207,0.008 -0.023427,0.004 -0.060634,0.004 -0.048231,0 -0.078548,-0.004 -0.030317,-0.004 -0.045475,-0.0152 -0.015158,-0.011 -0.024805,-0.0248 l -0.6559457,-0.89159 v 0.89159 q 0,0.01 -0.00551,0.0193 -0.00551,0.008 -0.019292,0.0138 -0.01378,0.004 -0.037207,0.007 -0.022049,0.004 -0.056499,0.004 -0.033073,0 -0.0565,-0.004 -0.023427,-0.003 -0.037207,-0.007 -0.01378,-0.006 -0.019293,-0.0138 -0.00551,-0.01 -0.00551,-0.0193 v -1.71152 q 0,-0.011 0.00551,-0.0193 0.00551,-0.008 0.019293,-0.0124 0.01378,-0.006 0.037207,-0.008 0.023427,-0.004 0.0565,-0.004 0.034451,0 0.056499,0.004 0.023427,0.003 0.037207,0.008 0.01378,0.004 0.019292,0.0124 0.00551,0.008 0.00551,0.0193 v 0.79237 l 0.631141,-0.79237 q 0.00827,-0.0124 0.019292,-0.0207 0.011024,-0.008 0.026183,-0.0124 0.016536,-0.006 0.038585,-0.008 0.023427,-0.003 0.059256,-0.003 0.035829,0 0.057878,0.004 0.022049,0.003 0.034451,0.008 0.01378,0.006 0.017914,0.0138 0.00551,0.008 0.00551,0.0179 0,0.0179 -0.00965,0.0358 -0.00827,0.0179 -0.033073,0.0496 l -0.5911779,0.70694 0.6366532,0.84611 q 0.023427,0.0358 0.027561,0.0496 0.00551,0.0124 0.00551,0.0207 z"
         id="path906" />
    </g>
    <g
       aria-label="OUT"
       id="text8544-7-1-4"
       style="font-size:2.82222px;line-height:1.25;font-family:Calibri;-inkscape-font-specification:Calibri;text-align:center;text-anchor:middle;stroke-width:0.264583">
      <path
         d="m 21.604478,115.39572 q 0,0.21635 -0.05099,0.38999 -0.05099,0.17363 -0.152962,0.29628 -0.100597,0.12126 -0.253559,0.18741 -0.152962,0.0648 -0.356912,0.0648 -0.201193,0 -0.348643,-0.0593 -0.146072,-0.0606 -0.242535,-0.17501 -0.09508,-0.11438 -0.141937,-0.28388 -0.04685,-0.16949 -0.04685,-0.38998 0,-0.21084 0.05099,-0.38309 0.05099,-0.17226 0.152962,-0.29215 0.101975,-0.12127 0.254937,-0.18603 0.152962,-0.0661 0.356911,-0.0661 0.19706,0 0.343132,0.0593 0.146072,0.0593 0.242534,0.17363 0.09784,0.113 0.144694,0.28112 0.04823,0.16674 0.04823,0.38309 z m -0.249424,0.0165 q 0,-0.15158 -0.02756,-0.28112 -0.02618,-0.13091 -0.08957,-0.226 -0.06201,-0.0965 -0.166742,-0.1502 -0.104731,-0.0538 -0.259071,-0.0538 -0.15434,0 -0.259071,0.0579 -0.104731,0.0579 -0.170877,0.15434 -0.06477,0.0965 -0.09371,0.226 -0.02756,0.12816 -0.02756,0.27009 0,0.1571 0.02618,0.28939 0.02618,0.13229 0.08819,0.22876 0.06201,0.0951 0.165365,0.14882 0.10473,0.0524 0.261827,0.0524 0.155718,0 0.261827,-0.0579 0.106109,-0.0579 0.170876,-0.15572 0.06477,-0.0992 0.09233,-0.22875 0.02756,-0.12954 0.02756,-0.27423 z"
         id="path891" />
      <path
         d="m 23.320135,115.64928 q 0,0.16261 -0.04823,0.29077 -0.04685,0.12678 -0.135047,0.21497 -0.0882,0.0882 -0.214974,0.13367 -0.12678,0.0455 -0.28801,0.0455 -0.14745,0 -0.268717,-0.0427 -0.121267,-0.0427 -0.208084,-0.1254 -0.08682,-0.0841 -0.133669,-0.20947 -0.04685,-0.1254 -0.04685,-0.28938 v -1.10657 q 0,-0.011 0.0055,-0.0193 0.0055,-0.008 0.01929,-0.0124 0.01378,-0.006 0.03583,-0.008 0.02205,-0.004 0.05788,-0.004 0.03307,0 0.0565,0.004 0.02343,0.003 0.03583,0.008 0.01378,0.004 0.01929,0.0124 0.0055,0.008 0.0055,0.0193 v 1.07763 q 0,0.12402 0.03032,0.21635 0.03032,0.0923 0.08682,0.15434 0.05788,0.0606 0.137804,0.0923 0.0813,0.0303 0.1819,0.0303 0.103353,0 0.183279,-0.0303 0.08131,-0.0303 0.136426,-0.091 0.0565,-0.0606 0.08544,-0.15021 0.03032,-0.0896 0.03032,-0.20946 v -1.09003 q 0,-0.011 0.0055,-0.0193 0.0055,-0.008 0.01929,-0.0124 0.01378,-0.006 0.03583,-0.008 0.02343,-0.004 0.05788,-0.004 0.03307,0 0.05512,0.004 0.02343,0.003 0.03583,0.008 0.01378,0.004 0.01929,0.0124 0.0069,0.008 0.0069,0.0193 z"
         id="path893" />
      <path
         d="m 24.907633,114.62678 q 0,0.0262 -0.0028,0.0455 -0.0028,0.0193 -0.0096,0.0317 -0.0055,0.011 -0.01516,0.0165 -0.0083,0.006 -0.01929,0.006 h -0.501605 v 1.54615 q 0,0.011 -0.0055,0.0193 -0.0055,0.008 -0.01929,0.0138 -0.01378,0.004 -0.03721,0.007 -0.02205,0.004 -0.0565,0.004 -0.03307,0 -0.0565,-0.004 -0.02343,-0.003 -0.03721,-0.007 -0.01378,-0.006 -0.01929,-0.0138 -0.0055,-0.008 -0.0055,-0.0193 V 114.726 h -0.501605 q -0.01103,0 -0.02067,-0.006 -0.0083,-0.006 -0.01378,-0.0165 -0.0055,-0.0124 -0.0096,-0.0317 -0.0028,-0.0193 -0.0028,-0.0455 0,-0.0262 0.0028,-0.0455 0.0041,-0.0207 0.0096,-0.0331 0.0055,-0.0124 0.01378,-0.0179 0.0096,-0.006 0.02067,-0.006 h 1.240233 q 0.01102,0 0.01929,0.006 0.0096,0.006 0.01516,0.0179 0.0069,0.0124 0.0096,0.0331 0.0028,0.0193 0.0028,0.0455 z"
         id="path895" />
    </g>
    <path
       d="m 5.5587737,14.149711 a 3.4891158,3.5941528 0 1 1 4.9343553,0"
       fill="none"
       stroke="#1f1f1f"
       stroke-linecap="round"
       stroke-linejoin="round"
       id="path66-2-1"
       style="display:inline;stroke-width:0.264583" />
    <path
       d="m 5.5587737,25.935711 a 3.4891158,3.5941528 0 1 1 4.9343553,0"
       fill="none"
       stroke="#1f1f1f"
       stroke-linecap="round"
       stroke-linejoin="round"
       id="path66-2-1-6"
       style="display:inline;stroke-width:0.264583" />
    <path
       d="m 5.5587737,37.720711 a 3.4891158,3.5941528 0 1 1 4.9343553,0"
       fill="none"
       stroke="#1f1f1f"
       stroke-linecap="round"
       stroke-linejoin="round"
       id="path66-2-1-3"
       style="display:inline;stroke-width:0.264583" />
    <path
       d="m 5.5587737,49.506711 a 3.4891158,3.5941528 0 1 1 4.9343553,0"
       fill="none"
       stroke="#1f1f1f"
       stroke-linecap="round"
       stroke-linejoin="round"
       id="path66-2-1-38"
       style="display:inline;stroke-width:0.264583" />
    <path
       d="m 5.5587737,61.292711 a 3.4891158,3.5941528 0 1 1 4.9343553,0"
       fill="none"
       stroke="#1f1f1f"
       stroke-linecap="round"
       stroke-linejoin="round"
       id="path66-2-1-35"
       style="display:inline;stroke-width:0.264583" />
    <path
       d="m 5.5587737,73.078711 a 3.4891158,3.5941528 0 1 1 4.9343553,0"
       fill="none"
       stroke="#1f1f1f"
       stroke-linecap="round"
       stroke-linejoin="round"
       id="path66-2-1-61"
       style="display:inline;stroke-width:0.264583" />
    <path
       d="m 5.5587737,96.64971 a 3.4891158,3.5941528 0 1 1 4.9343553,0"
       fill="none"
       stroke="#1f1f1f"
       stroke-linecap="round"
       stroke-linejoin="round"
       id="path66-2-1-95"
       style="display:inline;stroke-width:0.264583" />
    <path
       d="m 5.5587737,84.863711 a 3.4891158,3.5941528 0 1 1 4.9343553,0"
       fill="none"
       stroke="#1f1f1f"
       stroke-linecap="round"
       stroke-linejoin="round"
       id="path66-2-1-63"
       style="display:inline;stroke-width:0.264583" />
    <path
       id="rect1321"
       style="fill:#AAAAAA;stroke:#00a6a9;stroke-width:0"
       d="m 16.053362,94 h 12.880999 v 10 H 16.053362 Z" />
    <g
       aria-label="OFFSET"
       id="text8544-7-1-9-0"
       style="font-size:2.82222px;line-height:1.25;font-family:Calibri;-inkscape-font-specification:Calibri;text-align:center;text-anchor:middle;fill:#ffffff;stroke-width:0.264583">
      <path
         d="m 19.573166,101.39738 q 0,0.21635 -0.05099,0.38998 -0.05099,0.17364 -0.152962,0.29628 -0.100597,0.12127 -0.253559,0.18741 -0.152962,0.0648 -0.356912,0.0648 -0.201193,0 -0.348643,-0.0592 -0.146072,-0.0606 -0.242535,-0.17501 -0.09508,-0.11438 -0.141937,-0.28388 -0.04685,-0.1695 -0.04685,-0.38998 0,-0.21084 0.05099,-0.3831 0.05099,-0.17225 0.152962,-0.29214 0.101975,-0.12127 0.254937,-0.18604 0.152962,-0.0661 0.356911,-0.0661 0.19706,0 0.343132,0.0592 0.146071,0.0593 0.242534,0.17363 0.09784,0.113 0.144694,0.28112 0.04823,0.16675 0.04823,0.3831 z m -0.249424,0.0165 q 0,-0.15158 -0.02756,-0.28111 -0.02618,-0.13092 -0.08957,-0.226 -0.06201,-0.0965 -0.166742,-0.15021 -0.104731,-0.0537 -0.259071,-0.0537 -0.15434,0 -0.259071,0.0579 -0.104731,0.0579 -0.170877,0.15434 -0.06477,0.0965 -0.09371,0.22599 -0.02756,0.12816 -0.02756,0.2701 0,0.15709 0.02618,0.28939 0.02618,0.13229 0.08819,0.22875 0.06201,0.0951 0.165365,0.14883 0.10473,0.0524 0.261827,0.0524 0.155718,0 0.261827,-0.0579 0.106109,-0.0579 0.170876,-0.15572 0.06477,-0.0992 0.09233,-0.22876 0.02756,-0.12953 0.02756,-0.27423 z"
         id="path877" />
      <path
         d="m 20.885058,100.62843 q 0,0.0262 -0.0028,0.0455 -0.0028,0.0193 -0.0096,0.0317 -0.0069,0.011 -0.01654,0.0165 -0.0083,0.006 -0.01791,0.006 h -0.653189 v 0.60634 h 0.61736 q 0.0096,0 0.01791,0.006 0.0096,0.004 0.01654,0.0152 0.0069,0.011 0.0096,0.0303 0.0028,0.0179 0.0028,0.0469 0,0.0262 -0.0028,0.0455 -0.0028,0.0179 -0.0096,0.0303 -0.0069,0.011 -0.01654,0.0179 -0.0083,0.006 -0.01791,0.006 h -0.61736 v 0.74276 q 0,0.01 -0.0055,0.0193 -0.0055,0.008 -0.01929,0.0138 -0.01378,0.004 -0.03583,0.007 -0.02205,0.004 -0.05788,0.004 -0.03307,0 -0.0565,-0.004 -0.02343,-0.003 -0.03721,-0.007 -0.01378,-0.006 -0.01929,-0.0138 -0.0055,-0.01 -0.0055,-0.0193 v -1.65089 q 0,-0.0537 0.02756,-0.0744 0.02894,-0.022 0.06063,-0.022 h 0.802017 q 0.0096,0 0.01791,0.006 0.0096,0.006 0.01654,0.0179 0.0069,0.0124 0.0096,0.0331 0.0028,0.0193 0.0028,0.0455 z"
         id="path879" />
      <path
         d="m 22.181791,100.62843 q 0,0.0262 -0.0028,0.0455 -0.0028,0.0193 -0.0096,0.0317 -0.0069,0.011 -0.01654,0.0165 -0.0083,0.006 -0.01791,0.006 h -0.653189 v 0.60634 h 0.61736 q 0.0096,0 0.01791,0.006 0.0096,0.004 0.01654,0.0152 0.0069,0.011 0.0096,0.0303 0.0028,0.0179 0.0028,0.0469 0,0.0262 -0.0028,0.0455 -0.0028,0.0179 -0.0096,0.0303 -0.0069,0.011 -0.01654,0.0179 -0.0083,0.006 -0.01791,0.006 h -0.61736 v 0.74276 q 0,0.01 -0.0055,0.0193 -0.0055,0.008 -0.01929,0.0138 -0.01378,0.004 -0.03583,0.007 -0.02205,0.004 -0.05788,0.004 -0.03307,0 -0.0565,-0.004 -0.02343,-0.003 -0.03721,-0.007 -0.01378,-0.006 -0.01929,-0.0138 -0.0055,-0.01 -0.0055,-0.0193 v -1.65089 q 0,-0.0537 0.02756,-0.0744 0.02894,-0.022 0.06063,-0.022 h 0.802017 q 0.0096,0 0.01791,0.006 0.0096,0.006 0.01654,0.0179 0.0069,0.0124 0.0096,0.0331 0.0028,0.0193 0.0028,0.0455 z"
         id="path881" />
      <path
         d="m 23.459231,101.80941 q 0,0.1254 -0.04685,0.22324 -0.04548,0.0978 -0.128158,0.16675 -0.0813,0.0675 -0.192925,0.10197 -0.110243,0.0344 -0.2384,0.0344 -0.08957,0 -0.166743,-0.0152 -0.07579,-0.0152 -0.136426,-0.0372 -0.05926,-0.0221 -0.100596,-0.0455 -0.03996,-0.0234 -0.0565,-0.04 -0.01516,-0.0165 -0.02343,-0.0413 -0.0069,-0.0262 -0.0069,-0.0689 0,-0.0303 0.0028,-0.0496 0.0028,-0.0207 0.0083,-0.0331 0.0055,-0.0124 0.01378,-0.0165 0.0083,-0.006 0.01929,-0.006 0.01929,0 0.05374,0.0234 0.03583,0.0234 0.09095,0.051 0.05512,0.0276 0.132292,0.0524 0.07855,0.0234 0.180523,0.0234 0.07717,0 0.14056,-0.0207 0.06477,-0.0207 0.110243,-0.0579 0.04685,-0.0386 0.07166,-0.0937 0.0248,-0.0551 0.0248,-0.12541 0,-0.0758 -0.03445,-0.12953 -0.03445,-0.0537 -0.09095,-0.0937 -0.0565,-0.0413 -0.129536,-0.0744 -0.07166,-0.0345 -0.14745,-0.0689 -0.07579,-0.0358 -0.14745,-0.0786 -0.07166,-0.0427 -0.128157,-0.1006 -0.0565,-0.0579 -0.09233,-0.13505 -0.03445,-0.0785 -0.03445,-0.18741 0,-0.11162 0.03996,-0.19844 0.04134,-0.0882 0.112999,-0.14745 0.07304,-0.0592 0.172254,-0.0896 0.100597,-0.0317 0.216352,-0.0317 0.05926,0 0.118511,0.011 0.06063,0.01 0.112999,0.0276 0.05374,0.0165 0.09509,0.0386 0.04134,0.0207 0.05374,0.0345 0.01378,0.0124 0.01792,0.0207 0.0041,0.007 0.0069,0.0193 0.0028,0.011 0.0041,0.0276 0.0014,0.0165 0.0014,0.0427 0,0.0248 -0.0028,0.0441 -0.0014,0.0193 -0.0055,0.0331 -0.0041,0.0124 -0.0124,0.0193 -0.0069,0.006 -0.01654,0.006 -0.01516,0 -0.04823,-0.0193 -0.03169,-0.0193 -0.07855,-0.0427 -0.04685,-0.0248 -0.111621,-0.0441 -0.06339,-0.0207 -0.143316,-0.0207 -0.07441,0 -0.129536,0.0207 -0.05512,0.0193 -0.09095,0.0524 -0.03583,0.0331 -0.05374,0.0786 -0.01791,0.0455 -0.01791,0.0965 0,0.0744 0.03445,0.12816 0.03445,0.0537 0.09095,0.0951 0.05788,0.0413 0.130914,0.0758 0.07304,0.0344 0.148828,0.0703 0.07579,0.0344 0.148828,0.0772 0.07304,0.0413 0.129535,0.0992 0.05788,0.0565 0.09233,0.13505 0.03583,0.0772 0.03583,0.18328 z"
         id="path883" />
      <path
         d="m 24.790415,102.2118 q 0,0.0248 -0.0028,0.0441 -0.0028,0.0179 -0.0096,0.0303 -0.0069,0.0124 -0.01654,0.0179 -0.0083,0.006 -0.01929,0.006 h -0.855761 q -0.03169,0 -0.06063,-0.0207 -0.02756,-0.0221 -0.02756,-0.0758 v -1.59026 q 0,-0.0537 0.02756,-0.0744 0.02894,-0.022 0.06063,-0.022 h 0.846115 q 0.01102,0 0.01929,0.006 0.0096,0.006 0.01516,0.0179 0.0055,0.0124 0.0083,0.0317 0.0041,0.0179 0.0041,0.0455 0,0.0248 -0.0041,0.0441 -0.0028,0.0179 -0.0083,0.0303 -0.0055,0.011 -0.01516,0.0165 -0.0083,0.006 -0.01929,0.006 H 24.03525 v 0.55948 h 0.598068 q 0.01103,0 0.01929,0.007 0.0096,0.006 0.01516,0.0165 0.0069,0.011 0.0096,0.0303 0.0028,0.0193 0.0028,0.0455 0,0.0248 -0.0028,0.0427 -0.0028,0.0179 -0.0096,0.0289 -0.0055,0.011 -0.01516,0.0165 -0.0083,0.004 -0.01929,0.004 H 24.03525 v 0.63803 h 0.706933 q 0.01103,0 0.01929,0.006 0.0096,0.006 0.01654,0.0179 0.0069,0.011 0.0096,0.0303 0.0028,0.0179 0.0028,0.0455 z"
         id="path885" />
      <path
         d="m 26.293854,100.62843 q 0,0.0262 -0.0028,0.0455 -0.0028,0.0193 -0.0096,0.0317 -0.0055,0.011 -0.01516,0.0165 -0.0083,0.006 -0.01929,0.006 h -0.501605 v 1.54616 q 0,0.011 -0.0055,0.0193 -0.0055,0.008 -0.01929,0.0138 -0.01378,0.004 -0.03721,0.007 -0.02205,0.004 -0.0565,0.004 -0.03307,0 -0.0565,-0.004 -0.02343,-0.003 -0.03721,-0.007 -0.01378,-0.006 -0.01929,-0.0138 -0.0055,-0.008 -0.0055,-0.0193 v -1.54616 h -0.501605 q -0.01102,0 -0.02067,-0.006 -0.0083,-0.006 -0.01378,-0.0165 -0.0055,-0.0124 -0.0096,-0.0317 -0.0028,-0.0193 -0.0028,-0.0455 0,-0.0262 0.0028,-0.0455 0.0041,-0.0207 0.0096,-0.0331 0.0055,-0.0124 0.01378,-0.0179 0.0096,-0.006 0.02067,-0.006 H 26.247 q 0.01103,0 0.01929,0.006 0.0096,0.006 0.01516,0.0179 0.0069,0.0124 0.0096,0.0331 0.0028,0.0193 0.0028,0.0455 z"
         id="path887" />
    </g>
    <g
       aria-label="WEIGHT"
       id="text8544-7-1-9-0-7"
       style="font-size:2.82222px;line-height:1.25;font-family:Calibri;-inkscape-font-specification:Calibri;text-align:center;text-anchor:middle;fill:#ffffff;stroke-width:0.264583">
      <path
         d="m 5.1816831,102.25562 q -0.00551,0.0193 -0.016536,0.0317 -0.011024,0.011 -0.030317,0.0179 -0.019292,0.006 -0.048231,0.008 -0.027561,0.003 -0.068902,0.003 -0.042719,0 -0.073036,-0.003 -0.028939,-0.003 -0.048231,-0.008 -0.019293,-0.007 -0.028939,-0.0179 -0.00965,-0.0124 -0.015158,-0.0317 l -0.3734481,-1.34634 h -0.00276 l -0.3445093,1.34634 q -0.00413,0.0193 -0.01378,0.0317 -0.00965,0.011 -0.027561,0.0179 -0.017914,0.006 -0.046853,0.008 -0.027561,0.003 -0.071658,0.003 -0.045475,0 -0.075792,-0.003 -0.030317,-0.003 -0.049609,-0.008 -0.019292,-0.007 -0.030317,-0.0179 -0.00965,-0.0124 -0.01378,-0.0317 l -0.4712887,-1.64676 q -0.00827,-0.0317 -0.00965,-0.0496 0,-0.0179 0.011024,-0.0276 0.012402,-0.01 0.038585,-0.0124 0.026183,-0.003 0.07028,-0.003 0.042719,0 0.067524,0.003 0.024805,0.001 0.037207,0.007 0.01378,0.006 0.017915,0.0152 0.00551,0.01 0.00827,0.0248 l 0.4010088,1.4938 h 0.00138 l 0.3803383,-1.49104 q 0.00413,-0.0152 0.00965,-0.0248 0.00689,-0.011 0.020671,-0.0165 0.01378,-0.006 0.038585,-0.008 0.026183,-0.003 0.067524,-0.003 0.038585,0 0.060634,0.003 0.023427,0.003 0.037207,0.008 0.01378,0.006 0.019292,0.0165 0.00689,0.01 0.011024,0.0248 l 0.409277,1.49104 h 0.00276 l 0.3927406,-1.49242 q 0.00413,-0.0138 0.00827,-0.0234 0.00413,-0.011 0.016536,-0.0165 0.01378,-0.006 0.037207,-0.008 0.024805,-0.003 0.064768,-0.003 0.041341,0 0.064768,0.004 0.024805,0.003 0.035829,0.0124 0.011024,0.01 0.00965,0.0276 0,0.0179 -0.00689,0.0496 z"
         id="path864" />
      <path
         d="m 6.9772655,102.21014 q 0,0.0248 -0.00276,0.0441 -0.00276,0.0179 -0.00965,0.0303 -0.00689,0.0124 -0.016536,0.0179 -0.00827,0.006 -0.019293,0.006 h -0.855761 q -0.031695,0 -0.060634,-0.0207 -0.027561,-0.0221 -0.027561,-0.0758 v -1.59025 q 0,-0.0537 0.027561,-0.0744 0.028939,-0.0221 0.060634,-0.0221 H 6.919388 q 0.011024,0 0.019293,0.006 0.00965,0.006 0.015158,0.0179 0.00551,0.0124 0.00827,0.0317 0.00413,0.0179 0.00413,0.0455 0,0.0248 -0.00413,0.0441 -0.00276,0.0179 -0.00827,0.0303 -0.00551,0.011 -0.015158,0.0165 -0.00827,0.006 -0.019293,0.006 H 6.2221012 v 0.55949 h 0.5980681 q 0.011024,0 0.019292,0.007 0.00965,0.006 0.015158,0.0165 0.00689,0.011 0.00965,0.0303 0.00276,0.0193 0.00276,0.0455 0,0.0248 -0.00276,0.0427 -0.00276,0.0179 -0.00965,0.0289 -0.00551,0.011 -0.015158,0.0165 -0.00827,0.004 -0.019292,0.004 H 6.2221012 v 0.63803 h 0.706933 q 0.011024,0 0.019293,0.006 0.00965,0.006 0.016536,0.0179 0.00689,0.011 0.00965,0.0303 0.00276,0.0179 0.00276,0.0455 z"
         id="path866" />
      <path
         d="m 7.6001382,102.27215 q 0,0.011 -0.00551,0.0193 -0.00551,0.008 -0.019292,0.0138 -0.01378,0.004 -0.037207,0.007 -0.022049,0.004 -0.0565,0.004 -0.033073,0 -0.0565,-0.004 -0.023427,-0.003 -0.037207,-0.007 -0.01378,-0.006 -0.019292,-0.0138 -0.00551,-0.008 -0.00551,-0.0193 v -1.71152 q 0,-0.011 0.00551,-0.0193 0.00689,-0.008 0.020671,-0.0124 0.015158,-0.006 0.037207,-0.008 0.023427,-0.004 0.055121,-0.004 0.034451,0 0.0565,0.004 0.023427,0.003 0.037207,0.008 0.01378,0.004 0.019292,0.0124 0.00551,0.008 0.00551,0.0193 z"
         id="path868" />
      <path
         d="m 9.4136351,100.76734 q 0,0.0262 -0.00276,0.0468 -0.00276,0.0193 -0.00827,0.0331 -0.00551,0.0124 -0.01378,0.0179 -0.00827,0.006 -0.017914,0.006 -0.016536,0 -0.055122,-0.0262 -0.038585,-0.0262 -0.1033527,-0.0579 -0.064768,-0.0317 -0.1557182,-0.0579 -0.089573,-0.0262 -0.2135958,-0.0262 -0.14745,0 -0.2645831,0.0537 -0.1171332,0.0537 -0.1984374,0.14883 -0.081304,0.0951 -0.1254014,0.226 -0.042719,0.13091 -0.042719,0.28388 0,0.17087 0.046853,0.30316 0.048231,0.1323 0.1322916,0.22325 0.08406,0.091 0.1998154,0.1378 0.1171332,0.0469 0.2563149,0.0469 0.082682,0 0.1667425,-0.0193 0.085438,-0.0207 0.1584743,-0.0606 v -0.51952 H 8.7590674 q -0.023427,0 -0.035829,-0.0234 -0.011024,-0.0234 -0.011024,-0.073 0,-0.0262 0.00276,-0.0441 0.00276,-0.0193 0.00827,-0.0303 0.00689,-0.0124 0.015158,-0.0179 0.00827,-0.006 0.02067,-0.006 h 0.5663733 q 0.015158,0 0.030317,0.006 0.015158,0.006 0.027561,0.0165 0.012402,0.011 0.019293,0.0303 0.00689,0.0193 0.00689,0.0441 v 0.67937 q 0,0.0358 -0.012402,0.062 -0.012402,0.0262 -0.052365,0.0468 -0.039963,0.0193 -0.1033528,0.0427 -0.06339,0.0234 -0.1309135,0.04 -0.067524,0.0165 -0.1364257,0.0248 -0.068902,0.008 -0.1364257,0.008 -0.2067055,0 -0.3693139,-0.0634 -0.1626084,-0.0648 -0.2756074,-0.18328 -0.1116211,-0.11851 -0.1708766,-0.28388 -0.059256,-0.16536 -0.059256,-0.36931 0,-0.21222 0.06339,-0.38447 0.064768,-0.17226 0.1805228,-0.29352 0.1171332,-0.12127 0.2797416,-0.18742 0.1639864,-0.0675 0.3624237,-0.0675 0.1019748,0 0.1915472,0.0179 0.089572,0.0179 0.1584743,0.0427 0.07028,0.0234 0.1171331,0.0524 0.048231,0.0276 0.066146,0.0455 0.017914,0.0179 0.024805,0.0413 0.00689,0.0234 0.00689,0.0675 z"
         id="path870" />
      <path
         d="m 11.138938,102.27215 q 0,0.011 -0.0055,0.0193 -0.0055,0.008 -0.01929,0.0138 -0.01378,0.004 -0.03721,0.007 -0.02205,0.004 -0.05512,0.004 -0.03583,0 -0.05788,-0.004 -0.02205,-0.003 -0.03583,-0.007 -0.01378,-0.006 -0.01929,-0.0138 -0.0055,-0.008 -0.0055,-0.0193 v -0.79099 h -0.811664 v 0.79099 q 0,0.011 -0.0055,0.0193 -0.0055,0.008 -0.01929,0.0138 -0.01378,0.004 -0.03721,0.007 -0.02205,0.004 -0.0565,0.004 -0.033073,0 -0.056499,-0.004 -0.023427,-0.003 -0.037207,-0.007 -0.01378,-0.006 -0.019293,-0.0138 -0.00551,-0.008 -0.00551,-0.0193 v -1.71152 q 0,-0.011 0.00551,-0.0193 0.00551,-0.008 0.019293,-0.0124 0.01378,-0.006 0.037207,-0.008 0.023427,-0.004 0.056499,-0.004 0.034451,0 0.0565,0.004 0.02343,0.003 0.03721,0.008 0.01378,0.004 0.01929,0.0124 0.0055,0.008 0.0055,0.0193 v 0.71383 h 0.811664 v -0.71383 q 0,-0.011 0.0055,-0.0193 0.0055,-0.008 0.01929,-0.0124 0.01378,-0.006 0.03583,-0.008 0.02205,-0.004 0.05788,-0.004 0.03307,0 0.05512,0.004 0.02343,0.003 0.03721,0.008 0.01378,0.004 0.01929,0.0124 0.0055,0.008 0.0055,0.0193 z"
         id="path872" />
      <path
         d="m 12.73057,100.62678 q 0,0.0262 -0.0028,0.0455 -0.0028,0.0193 -0.0096,0.0317 -0.0055,0.011 -0.01516,0.0165 -0.0083,0.006 -0.01929,0.006 h -0.501605 v 1.54615 q 0,0.011 -0.0055,0.0193 -0.0055,0.008 -0.01929,0.0138 -0.01378,0.004 -0.03721,0.007 -0.02205,0.004 -0.0565,0.004 -0.03307,0 -0.0565,-0.004 -0.02343,-0.003 -0.03721,-0.007 -0.01378,-0.006 -0.01929,-0.0138 -0.0055,-0.008 -0.0055,-0.0193 V 100.726 h -0.501605 q -0.01103,0 -0.02067,-0.006 -0.0083,-0.006 -0.01378,-0.0165 -0.0055,-0.0124 -0.0096,-0.0317 -0.0028,-0.0193 -0.0028,-0.0455 0,-0.0262 0.0028,-0.0455 0.0041,-0.0207 0.0096,-0.0331 0.0055,-0.0124 0.01378,-0.0179 0.0096,-0.006 0.02067,-0.006 h 1.240233 q 0.01102,0 0.01929,0.006 0.0096,0.006 0.01516,0.0179 0.0069,0.0124 0.0096,0.0331 0.0028,0.0193 0.0028,0.0455 z"
         id="path874" />
    </g>
    <path
       d="m 19.991684,14.149711 a 3.4891158,3.5941528 0 1 1 4.934355,0"
       fill="none"
       stroke="#1f1f1f"
       stroke-linecap="round"
       stroke-linejoin="round"
       id="path66-2-1-0"
       style="display:inline;stroke-width:0.264583" />
    <path
       d="m 19.991684,25.935711 a 3.4891158,3.5941528 0 1 1 4.934355,0"
       fill="none"
       stroke="#1f1f1f"
       stroke-linecap="round"
       stroke-linejoin="round"
       id="path66-2-1-6-3"
       style="display:inline;stroke-width:0.264583" />
    <path
       d="m 19.991684,37.720711 a 3.4891158,3.5941528 0 1 1 4.934355,0"
       fill="none"
       stroke="#1f1f1f"
       stroke-linecap="round"
       stroke-linejoin="round"
       id="path66-2-1-3-2"
       style="display:inline;stroke-width:0.264583" />
    <path
       d="m 19.991684,49.506711 a 3.4891158,3.5941528 0 1 1 4.934355,0"
       fill="none"
       stroke="#1f1f1f"
       stroke-linecap="round"
       stroke-linejoin="round"
       id="path66-2-1-38-1"
       style="display:inline;stroke-width:0.264583" />
    <path
       d="m 19.991684,61.292711 a 3.4891158,3.5941528 0 1 1 4.934355,0"
       fill="none"
       stroke="#1f1f1f"
       stroke-linecap="round"
       stroke-linejoin="round"
       id="path66-2-1-35-9"
       style="display:inline;stroke-width:0.264583" />
    <path
       d="m 19.991684,73.078711 a 3.4891158,3.5941528 0 1 1 4.934355,0"
       fill="none"
       stroke="#1f1f1f"
       stroke-linecap="round"
       stroke-linejoin="round"
       id="path66-2-1-61-3"
       style="display:inline;stroke-width:0.264583" />
    <path
       d="m 19.991684,96.64971 a 3.4891158,3.5941528 0 1 1 4.934355,0"
       fill="none"
       stroke="#1f1f1f"
       stroke-linecap="round"
       stroke-linejoin="round"
       id="path66-2-1-95-7"
       style="display:inline;stroke-width:0.264583" />
    <path
       d="m 19.991684,84.863711 a 3.4891158,3.5941528 0 1 1 4.934355,0"
       fill="none"
       stroke="#1f1f1f"
       stroke-linecap="round"
       stroke-linejoin="round"
       id="path66-2-1-63-0"
       style="display:inline;stroke-width:0.264583" />
  </g>
</svg>
