<?xml version="1.0" encoding="UTF-8" standalone="no"?>
<!-- Created with Inkscape (http://www.inkscape.org/) -->

<svg
   width="15.24mm"
   height="128.5mm"
   viewBox="0 0 15.24 128.5"
   version="1.1"
   id="svg5"
   inkscape:version="1.1.2 (b8e25be833, 2022-02-05)"
   sodipodi:docname="Quant.svg"
   xmlns:inkscape="http://www.inkscape.org/namespaces/inkscape"
   xmlns:sodipodi="http://sodipodi.sourceforge.net/DTD/sodipodi-0.dtd"
   xmlns="http://www.w3.org/2000/svg"
   xmlns:svg="http://www.w3.org/2000/svg">
  <sodipodi:namedview
     id="namedview7"
     pagecolor="#ffffff"
     bordercolor="#666666"
     borderopacity="1.0"
     inkscape:pageshadow="2"
     inkscape:pageopacity="0.0"
     inkscape:pagecheckerboard="0"
     inkscape:document-units="mm"
     showgrid="false"
     height="128.5mm"
     inkscape:zoom="4"
     inkscape:cx="-110.625"
     inkscape:cy="303.875"
     inkscape:window-width="3840"
     inkscape:window-height="2054"
     inkscape:window-x="-11"
     inkscape:window-y="-11"
     inkscape:window-maximized="0"
     inkscape:current-layer="layer1" />
  <defs
     id="defs2" />
  <g
     inkscape:label="Layer 1"
     inkscape:groupmode="layer"
     id="layer1">
    <path
       id="rect4302"
       style="fill:#dddddd;stroke-width:0.184931"
       d="M -0.00163784,1.6577559e-8 H 15.242541 V 128.50433 H -0.00163784 Z" />
    <path
       id="rect10313-4-1-4"
       style="fill:#AAAAAA;stroke-width:0.264582"
       d="m 3.1200004,88.5 h 9.0000006 c 0.831,0 1.5,0.669 1.5,1.5 v 23.625 c 0,0.831 -0.669,1.5 -1.5,1.5 H 3.1200004 c -0.8309999,0 -1.4999998,-0.669 -1.4999998,-1.5 V 90 c 0,-0.831 0.6689999,-1.5 1.4999998,-1.5 z" />
    <path
       id="rect10313-6"
       style="fill:#555555;stroke-width:0.264582"
       d="M 3.1199998,97 H 12.12 c 0.831,0 1.5,0.669 1.5,1.5 v 17 c 0,0.831 -0.669,1.5 -1.5,1.5 H 3.1199998 C 2.2889999,117 1.62,116.331 1.62,115.5 v -17 C 1.62,97.669 2.2889999,97 3.1199998,97 Z" />
    <path
       id="rect1321"
       style="fill:#AAAAAA;stroke:#00a6a9;stroke-width:0"
       d="M 1.5874995,92.5 H 13.587499 v 10 H 1.5874995 Z" />
    <path
       id="rect10313"
       style="fill:#AAAAAA;stroke-width:0.264582"
       d="M 3.1199998,5.9999995 H 12.12 c 0.831,0 1.5,0.6689998 1.5,1.4999994 V 31 c 0,0.831 -0.669,1.5 -1.5,1.5 H 3.1199998 C 2.2889999,32.5 1.62,31.831 1.62,31 V 7.4999989 c 0,-0.8309996 0.6689999,-1.4999994 1.4999998,-1.4999994 z" />
    <path
       id="rect10313-4"
       style="fill:#AAAAAA;stroke-width:0.264582"
       d="M 3.1199999,33.5 H 12.12 c 0.831,0 1.5,0.669 1.5,1.499999 V 58.500001 C 13.62,59.331 12.951,60 12.12,60 H 3.1199999 C 2.289,60 1.6200001,59.331 1.6200001,58.500001 V 34.999999 C 1.6200001,34.169 2.289,33.5 3.1199999,33.5 Z" />
    <path
       id="rect10313-4-1"
       style="fill:#AAAAAA;stroke-width:0.264582"
       d="m 3.1200004,60.999996 h 9.0000006 c 0.831,0 1.5,0.669 1.5,1.5 v 23.499999 c 0,0.831 -0.669,1.499999 -1.5,1.499999 H 3.1200004 c -0.8309999,0 -1.4999998,-0.668999 -1.4999998,-1.499999 V 62.499996 c 0,-0.831 0.6689999,-1.5 1.4999998,-1.5 z" />
    <path
       style="display:inline;fill:none;fill-opacity:1;stroke:#000000;stroke-width:0.3;stroke-linecap:butt;stroke-linejoin:miter;stroke-miterlimit:4;stroke-dasharray:none;stroke-opacity:1"
       d="m 7.6204511,22.600146 v -10"
       id="path35189-8" />
    <path
       d="m 5.153274,14.167711 a -3.4891158,-3.5941528 0 1 1 4.934355,0"
       fill="none"
       stroke="#1f1f1f"
       stroke-linecap="round"
       stroke-linejoin="round"
       id="path66"
       style="display:inline;fill:none;fill-opacity:1;stroke:#000000;stroke-width:0.3;stroke-miterlimit:4;stroke-dasharray:none;stroke-opacity:1" />
    <path
       style="display:inline;fill:none;fill-opacity:1;stroke:#000000;stroke-width:0.3;stroke-linecap:butt;stroke-linejoin:miter;stroke-miterlimit:4;stroke-dasharray:none;stroke-opacity:1"
       d="m 7.6199933,50.100146 v -10"
       id="path35189-8-9" />
    <path
       d="m 5.1528162,41.667711 a -3.4891158,-3.5941528 0 1 1 4.9343558,0"
       fill="none"
       stroke="#1f1f1f"
       stroke-linecap="round"
       stroke-linejoin="round"
       id="path66-2"
       style="display:inline;fill:none;fill-opacity:1;stroke:#000000;stroke-width:0.3;stroke-miterlimit:4;stroke-dasharray:none;stroke-opacity:1" />
    <path
       style="display:inline;fill:none;fill-opacity:1;stroke:#000000;stroke-width:0.3;stroke-linecap:butt;stroke-linejoin:miter;stroke-miterlimit:4;stroke-dasharray:none;stroke-opacity:1"
       d="m 7.6199937,77.60015 v -10"
       id="path35189-8-9-5" />
    <path
       d="m 5.1528166,69.167715 a -3.4891158,-3.5941528 0 1 1 4.9343554,0"
       fill="none"
       stroke="#1f1f1f"
       stroke-linecap="round"
       stroke-linejoin="round"
       id="path66-2-9"
       style="display:inline;fill:none;fill-opacity:1;stroke:#000000;stroke-width:0.3;stroke-miterlimit:4;stroke-dasharray:none;stroke-opacity:1" />
    <g
       aria-label="SCALE"
       transform="scale(0.9999717,1.0000283)"
       id="text8544-7-1-0-4"
       style="font-size:2.82214px;line-height:1.25;font-family:Calibri;-inkscape-font-specification:Calibri;text-align:center;text-anchor:middle;display:inline;fill:#020202;stroke-width:0.264583">
      <path
         d="m 5.3412672,30.808264 q 0,0.125398 -0.046852,0.223236 -0.045474,0.09784 -0.1281539,0.166738 -0.081302,0.06752 -0.1929197,0.101971 -0.1102398,0.03445 -0.2383936,0.03445 -0.08957,0 -0.1667378,-0.01516 -0.07579,-0.01516 -0.1364218,-0.03721 -0.059254,-0.02205 -0.1005939,-0.04547 -0.039962,-0.02343 -0.056498,-0.03996 -0.015158,-0.01654 -0.023426,-0.04134 -0.00689,-0.02618 -0.00689,-0.0689 0,-0.03032 0.00276,-0.04961 0.00276,-0.02067 0.00827,-0.03307 0.00551,-0.0124 0.01378,-0.01654 0.00827,-0.0055 0.019292,-0.0055 0.019292,0 0.053742,0.02343 0.035828,0.02343 0.090948,0.05099 0.05512,0.02756 0.1322878,0.05236 0.078546,0.02343 0.1805177,0.02343 0.077168,0 0.1405558,-0.02067 0.064766,-0.02067 0.1102399,-0.05788 0.046852,-0.03858 0.071656,-0.0937 0.024804,-0.05512 0.024804,-0.125398 0,-0.07579 -0.03445,-0.129532 -0.03445,-0.05374 -0.090948,-0.0937 -0.056498,-0.04134 -0.1295318,-0.07441 -0.071656,-0.03445 -0.1474458,-0.0689 -0.07579,-0.03583 -0.1474458,-0.07855 -0.071656,-0.04272 -0.1281538,-0.100594 -0.056498,-0.05788 -0.092326,-0.135044 -0.03445,-0.07855 -0.03445,-0.187408 0,-0.111618 0.039962,-0.198431 0.04134,-0.08819 0.1129959,-0.147446 0.073034,-0.05925 0.1722497,-0.08957 0.1005939,-0.03169 0.2163457,-0.03169 0.059254,0 0.1185079,0.01102 0.060632,0.0096 0.1129958,0.02756 0.053742,0.01654 0.095082,0.03858 0.04134,0.02067 0.053742,0.03445 0.01378,0.0124 0.017914,0.02067 0.00413,0.0069 0.00689,0.01929 0.00276,0.01102 0.00413,0.02756 0.00138,0.01654 0.00138,0.04272 0,0.0248 -0.00276,0.0441 -0.00138,0.01929 -0.00551,0.03307 -0.00413,0.0124 -0.012402,0.01929 -0.00689,0.0055 -0.016536,0.0055 -0.015158,0 -0.04823,-0.01929 -0.031694,-0.01929 -0.078546,-0.04272 -0.046852,-0.0248 -0.1116179,-0.0441 -0.063388,-0.02067 -0.1433118,-0.02067 -0.074412,0 -0.1295318,0.02067 -0.05512,0.01929 -0.090948,0.05236 -0.035828,0.03307 -0.053742,0.07854 -0.017914,0.04547 -0.017914,0.09646 0,0.07441 0.03445,0.128154 0.03445,0.05374 0.090948,0.09508 0.057876,0.04134 0.1309098,0.07579 0.073034,0.03445 0.1488238,0.07028 0.07579,0.03445 0.1488238,0.07717 0.073034,0.04134 0.1295318,0.09922 0.057876,0.0565 0.092326,0.135043 0.035828,0.07717 0.035828,0.183274 z"
         id="path913" />
      <path
         d="m 6.8708451,31.056304 q 0,0.02205 -0.00138,0.03858 -0.00138,0.01654 -0.00551,0.02894 -0.00276,0.0124 -0.00827,0.02205 -0.00551,0.0096 -0.019292,0.02343 -0.01378,0.01378 -0.057876,0.04272 -0.044096,0.02756 -0.1102399,0.05512 -0.064766,0.02618 -0.1502017,0.0441 -0.084058,0.01929 -0.1846518,0.01929 -0.1736277,0 -0.3141835,-0.05788 -0.1391778,-0.05788 -0.2383937,-0.170871 -0.097838,-0.112996 -0.1515798,-0.278356 -0.052364,-0.166738 -0.052364,-0.383083 0,-0.221858 0.056498,-0.395486 0.057876,-0.173628 0.1612258,-0.293513 0.1033498,-0.121264 0.2466616,-0.184652 0.1446898,-0.06339 0.3196956,-0.06339 0.077168,0 0.1502018,0.01516 0.073034,0.01378 0.1350438,0.03583 0.06201,0.02205 0.1102398,0.05099 0.04823,0.02894 0.066144,0.04823 0.019292,0.01791 0.024804,0.02756 0.00551,0.0096 0.00827,0.02343 0.00413,0.0124 0.00551,0.03032 0.00276,0.01791 0.00276,0.04272 0,0.02756 -0.00276,0.04685 -0.00276,0.01929 -0.00827,0.03307 -0.00551,0.0124 -0.01378,0.01929 -0.00689,0.0055 -0.017914,0.0055 -0.019292,0 -0.053742,-0.02618 -0.03445,-0.02756 -0.08957,-0.05925 Q 6.6241834,29.763742 6.5456375,29.73756 6.4684696,29.71 6.3596078,29.71 q -0.1185079,0 -0.2163457,0.04823 -0.09646,0.04685 -0.1653598,0.139177 -0.0689,0.09233 -0.1074838,0.225992 -0.037206,0.132288 -0.037206,0.30316 0,0.169493 0.035828,0.300403 0.037206,0.129532 0.1047278,0.217724 0.0689,0.08681 0.1681158,0.132288 0.099216,0.0441 0.2246137,0.0441 0.1061058,0 0.1846517,-0.02618 0.079924,-0.02618 0.1350438,-0.05788 0.056498,-0.03307 0.092326,-0.05925 0.035828,-0.02618 0.056498,-0.02618 0.00965,0 0.016536,0.0041 0.00689,0.0041 0.011024,0.01654 0.00413,0.01102 0.00551,0.03169 0.00276,0.02067 0.00276,0.05236 z"
         id="path915" />
      <path
         d="m 8.5203087,31.22442 q 0.011024,0.03032 0.011024,0.04961 0.00138,0.01791 -0.00965,0.02756 -0.011024,0.0096 -0.037206,0.0124 -0.024804,0.0028 -0.067522,0.0028 -0.042718,0 -0.0689,-0.0028 -0.024804,-0.0014 -0.038584,-0.0055 -0.012402,-0.0055 -0.019292,-0.01378 -0.00551,-0.0083 -0.011024,-0.02067 L 8.1262013,30.839958 h -0.741363 l -0.1460678,0.428557 q -0.00413,0.0124 -0.011024,0.02205 -0.00689,0.0083 -0.02067,0.01516 -0.012402,0.0055 -0.037206,0.0083 -0.023426,0.0028 -0.06201,0.0028 -0.039962,0 -0.066144,-0.0041 -0.024804,-0.0028 -0.035828,-0.0124 -0.00965,-0.0096 -0.00965,-0.02756 0.00138,-0.01929 0.012402,-0.04961 L 7.606696,29.566688 q 0.00551,-0.01516 0.01378,-0.0248 0.00965,-0.0096 0.026182,-0.01516 0.017914,-0.0055 0.044096,-0.0069 0.02756,-0.0028 0.0689,-0.0028 0.044096,0 0.073034,0.0028 0.028938,0.0014 0.046852,0.0069 0.017914,0.0055 0.02756,0.01654 0.00965,0.0096 0.015158,0.0248 z M 7.7527638,29.762364 h -0.00138 l -0.3072936,0.888808 h 0.6200992 z"
         id="path917" />
      <path
         d="m 9.7425929,31.205128 q 0,0.02756 -0.00276,0.04685 -0.00276,0.01791 -0.00965,0.03169 -0.00551,0.0124 -0.015158,0.01929 -0.00827,0.0055 -0.02067,0.0055 H 8.9061481 q -0.031694,0 -0.060632,-0.02067 -0.02756,-0.02205 -0.02756,-0.07579 v -1.650842 q 0,-0.01102 0.00551,-0.01929 0.00551,-0.0083 0.019292,-0.0124 0.01378,-0.0055 0.037206,-0.0083 0.023426,-0.0041 0.056498,-0.0041 0.03445,0 0.056498,0.0041 0.023426,0.0028 0.037206,0.0083 0.01378,0.0041 0.019292,0.0124 0.00551,0.0083 0.00551,0.01929 v 1.54198 H 9.694363 q 0.012402,0 0.02067,0.0069 0.00965,0.0055 0.015158,0.01791 0.00689,0.01102 0.00965,0.03032 0.00276,0.01929 0.00276,0.04685 z"
         id="path919" />
      <path
         d="m 10.996571,31.21064 q 0,0.0248 -0.0028,0.04409 -0.0028,0.01791 -0.0096,0.03032 -0.0069,0.0124 -0.01654,0.01791 -0.0083,0.0055 -0.01929,0.0055 h -0.855737 q -0.03169,0 -0.06063,-0.02067 -0.02756,-0.02205 -0.02756,-0.07579 v -1.59021 q 0,-0.05374 0.02756,-0.07441 0.02894,-0.02205 0.06063,-0.02205 h 0.846091 q 0.01102,0 0.01929,0.0055 0.0096,0.0055 0.01516,0.01791 0.0055,0.0124 0.0083,0.03169 0.0041,0.01791 0.0041,0.04547 0,0.0248 -0.0041,0.0441 -0.0028,0.01791 -0.0083,0.03032 -0.0055,0.01102 -0.01516,0.01654 -0.0083,0.0055 -0.01929,0.0055 h -0.697267 v 0.559467 h 0.598051 q 0.01102,0 0.01929,0.0069 0.0096,0.0055 0.01516,0.01654 0.0069,0.01102 0.0096,0.03032 0.0028,0.01929 0.0028,0.04547 0,0.0248 -0.0028,0.04272 -0.0028,0.01791 -0.0096,0.02894 -0.0055,0.01102 -0.01516,0.01654 -0.0083,0.0041 -0.01929,0.0041 h -0.598051 v 0.638013 h 0.706913 q 0.01102,0 0.01929,0.0055 0.0096,0.0055 0.01654,0.01791 0.0069,0.01102 0.0096,0.03032 0.0028,0.01791 0.0028,0.04547 z"
         id="path921" />
    </g>
    <g
       aria-label="ROOT"
       id="text8544-7-1-0-4-3"
       style="font-size:2.82222px;line-height:1.25;font-family:Calibri;-inkscape-font-specification:Calibri;text-align:center;text-anchor:middle;display:inline;fill:#020202;stroke-width:0.264583">
      <path
         d="m 5.667773,58.773535 q 0,0.01102 -0.00413,0.01929 -0.00413,0.0083 -0.017914,0.01378 -0.01378,0.0055 -0.038585,0.0083 -0.024805,0.0028 -0.066146,0.0028 -0.035829,0 -0.059256,-0.0028 -0.022049,-0.0028 -0.035829,-0.0083 -0.01378,-0.0069 -0.022049,-0.01791 -0.00689,-0.01102 -0.012402,-0.02756 L 5.2474716,58.340832 q -0.028939,-0.07166 -0.060634,-0.130914 -0.030317,-0.06063 -0.073036,-0.103353 -0.042719,-0.0441 -0.1005967,-0.06752 -0.057878,-0.02481 -0.1391817,-0.02481 H 4.7155493 v 0.759298 q 0,0.01102 -0.00689,0.01929 -0.00551,0.0083 -0.019293,0.01378 -0.012402,0.0041 -0.035829,0.0069 -0.022049,0.0041 -0.0565,0.0041 -0.034451,0 -0.057878,-0.0041 -0.022049,-0.0028 -0.035829,-0.0069 -0.01378,-0.0055 -0.019292,-0.01378 -0.00551,-0.0083 -0.00551,-0.01929 v -1.650888 q 0,-0.05374 0.027561,-0.07441 0.028939,-0.02205 0.060634,-0.02205 h 0.3789602 q 0.067524,0 0.111621,0.0041 0.045475,0.0028 0.081304,0.0069 0.1033528,0.01791 0.1819009,0.0565 0.079926,0.03858 0.1336696,0.09784 0.053743,0.05926 0.079926,0.136425 0.027561,0.07579 0.027561,0.168121 0,0.08957 -0.024805,0.16123 -0.023427,0.07028 -0.068902,0.125402 -0.045475,0.05374 -0.108865,0.09371 -0.06339,0.03996 -0.1419378,0.06752 0.044097,0.01929 0.079926,0.04961 0.035829,0.02894 0.066146,0.07028 0.031695,0.04134 0.059256,0.09509 0.027561,0.05374 0.055121,0.121267 l 0.1598524,0.392741 q 0.019292,0.04961 0.024805,0.07028 0.00551,0.01929 0.00551,0.03032 z M 5.3108613,57.5209 q 0,-0.104731 -0.046853,-0.176389 -0.046853,-0.07304 -0.1570963,-0.104731 -0.034451,-0.0096 -0.078548,-0.01378 -0.042719,-0.0041 -0.112999,-0.0041 H 4.7155493 v 0.600824 h 0.2315102 q 0.093707,0 0.1612304,-0.02205 0.068902,-0.02343 0.1143771,-0.06339 0.045475,-0.04134 0.066146,-0.09646 0.022049,-0.05512 0.022049,-0.119889 z"
         id="path904" />
      <path
         d="m 7.4771357,57.897104 q 0,0.216352 -0.050987,0.389984 -0.050987,0.173633 -0.1529621,0.296278 -0.1005967,0.121267 -0.2535588,0.187413 -0.1529621,0.06477 -0.3569116,0.06477 -0.2011935,0 -0.3486434,-0.05926 -0.146072,-0.06063 -0.2425346,-0.17501 -0.095084,-0.114377 -0.1419378,-0.283876 -0.046853,-0.169499 -0.046853,-0.389984 0,-0.21084 0.050987,-0.383095 0.050987,-0.172254 0.1529621,-0.292144 0.1019748,-0.121267 0.2549369,-0.186035 0.1529621,-0.06614 0.3569116,-0.06614 0.1970593,0 0.3431313,0.05926 0.1460719,0.05926 0.2425345,0.173633 0.097841,0.112999 0.1446939,0.281119 0.048231,0.166743 0.048231,0.383095 z M 7.227711,57.91364 q 0,-0.151584 -0.027561,-0.281119 -0.026183,-0.130914 -0.089572,-0.225999 -0.062012,-0.09646 -0.1667425,-0.150206 -0.1047308,-0.05374 -0.259071,-0.05374 -0.1543401,0 -0.2590709,0.05788 -0.1047309,0.05788 -0.1708766,0.15434 -0.064768,0.09646 -0.093707,0.225998 -0.027561,0.128157 -0.027561,0.270095 0,0.157096 0.026183,0.289388 0.026183,0.132291 0.088194,0.228754 0.062012,0.09508 0.1653644,0.148828 0.1047309,0.05236 0.2618271,0.05236 0.1557182,0 0.261827,-0.05788 0.1061089,-0.05788 0.1708767,-0.155718 0.064768,-0.09922 0.092328,-0.228754 0.027561,-0.129536 0.027561,-0.27423 z"
         id="path906" />
      <path
         d="m 9.3457542,57.897104 q 0,0.216352 -0.050987,0.389984 -0.050987,0.173633 -0.1529621,0.296278 -0.1005967,0.121267 -0.2535588,0.187413 -0.1529622,0.06477 -0.3569117,0.06477 -0.2011934,0 -0.3486434,-0.05926 -0.1460719,-0.06063 -0.2425345,-0.17501 -0.095085,-0.114377 -0.1419378,-0.283876 -0.046853,-0.169499 -0.046853,-0.389984 0,-0.21084 0.050987,-0.383095 0.050987,-0.172254 0.1529621,-0.292144 0.1019748,-0.121267 0.2549369,-0.186035 0.1529621,-0.06614 0.3569116,-0.06614 0.1970593,0 0.3431313,0.05926 0.1460719,0.05926 0.2425345,0.173633 0.097841,0.112999 0.1446939,0.281119 0.048231,0.166743 0.048231,0.383095 z m -0.2494247,0.01654 q 0,-0.151584 -0.027561,-0.281119 -0.026183,-0.130914 -0.089572,-0.225999 -0.062012,-0.09646 -0.1667425,-0.150206 -0.1047308,-0.05374 -0.259071,-0.05374 -0.1543401,0 -0.2590709,0.05788 -0.1047309,0.05788 -0.1708767,0.15434 -0.064768,0.09646 -0.093706,0.225998 -0.027561,0.128157 -0.027561,0.270095 0,0.157096 0.026183,0.289388 0.026183,0.132291 0.088194,0.228754 0.062012,0.09508 0.1653644,0.148828 0.1047308,0.05236 0.2618271,0.05236 0.1557182,0 0.261827,-0.05788 0.1061089,-0.05788 0.1708766,-0.155718 0.064768,-0.09922 0.092328,-0.228754 0.027561,-0.129536 0.027561,-0.27423 z"
         id="path908" />
      <path
         d="m 10.762376,57.128159 q 0,0.02618 -0.0028,0.04548 -0.0028,0.01929 -0.0096,0.03169 -0.0055,0.01102 -0.01516,0.01654 -0.0083,0.0055 -0.01929,0.0055 h -0.501606 v 1.546157 q 0,0.01102 -0.0055,0.01929 -0.0055,0.0083 -0.01929,0.01378 -0.01378,0.0041 -0.03721,0.0069 -0.02205,0.0041 -0.0565,0.0041 -0.03307,0 -0.0565,-0.0041 -0.02343,-0.0028 -0.03721,-0.0069 -0.013781,-0.0055 -0.019293,-0.01378 -0.00551,-0.0083 -0.00551,-0.01929 V 57.227378 H 9.4752895 q -0.011024,0 -0.020671,-0.0055 -0.00827,-0.0055 -0.01378,-0.01654 -0.00551,-0.0124 -0.00965,-0.03169 -0.00276,-0.01929 -0.00276,-0.04548 0,-0.02618 0.00276,-0.04547 0.00413,-0.02067 0.00965,-0.03307 0.00551,-0.0124 0.01378,-0.01792 0.00965,-0.0055 0.020671,-0.0055 h 1.2402335 q 0.01102,0 0.01929,0.0055 0.0096,0.0055 0.01516,0.01792 0.0069,0.0124 0.0096,0.03307 0.0028,0.01929 0.0028,0.04547 z"
         id="path910" />
    </g>
    <g
       aria-label="OCTAVE"
       id="text8544-7-1-0-4-3-4"
       style="font-size:2.82222px;line-height:1.25;font-family:Calibri;-inkscape-font-specification:Calibri;text-align:center;text-anchor:middle;display:inline;fill:#020202;stroke-width:0.264583">
      <path
         d="m 4.8416396,85.397104 q 0,0.216352 -0.050987,0.389984 -0.050987,0.173633 -0.1529622,0.296278 -0.1005967,0.121267 -0.2535588,0.187413 -0.1529621,0.06477 -0.3569116,0.06477 -0.2011934,0 -0.3486434,-0.05926 -0.146072,-0.06063 -0.2425346,-0.17501 -0.095085,-0.114377 -0.1419378,-0.283876 -0.046853,-0.169499 -0.046853,-0.389984 0,-0.21084 0.050987,-0.383095 0.050987,-0.172254 0.1529621,-0.292144 0.1019748,-0.121267 0.2549369,-0.186035 0.1529621,-0.06615 0.3569116,-0.06615 0.1970594,0 0.3431313,0.05926 0.1460719,0.05926 0.2425345,0.173633 0.097841,0.112999 0.1446939,0.281119 0.048231,0.166743 0.048231,0.383095 z m -0.2494247,0.01654 q 0,-0.151584 -0.027561,-0.281119 -0.026183,-0.130914 -0.089572,-0.225999 -0.062012,-0.09646 -0.1667425,-0.150206 -0.1047309,-0.05374 -0.259071,-0.05374 -0.1543402,0 -0.259071,0.05788 -0.1047308,0.05788 -0.1708766,0.15434 -0.064768,0.09646 -0.093706,0.225998 -0.027561,0.128157 -0.027561,0.270095 0,0.157096 0.026183,0.289388 0.026183,0.132291 0.088194,0.228754 0.062012,0.09509 0.1653645,0.148828 0.1047308,0.05236 0.261827,0.05236 0.1557182,0 0.2618271,-0.05788 0.1061088,-0.05788 0.1708766,-0.155718 0.064768,-0.09922 0.092328,-0.228754 0.027561,-0.129536 0.027561,-0.27423 z"
         id="path891" />
      <path
         d="m 6.4070898,86.057184 q 0,0.02205 -0.00138,0.03858 -0.00138,0.01654 -0.00551,0.02894 -0.00276,0.0124 -0.00827,0.02205 -0.00551,0.0096 -0.019292,0.02343 -0.01378,0.01378 -0.057878,0.04272 -0.044097,0.02756 -0.1102429,0.05512 -0.064768,0.02618 -0.1502061,0.0441 -0.08406,0.01929 -0.184657,0.01929 -0.1736326,0 -0.3141924,-0.05788 -0.1391818,-0.05788 -0.2384005,-0.170876 -0.097841,-0.112999 -0.151584,-0.278364 -0.052365,-0.166742 -0.052365,-0.383094 0,-0.221864 0.0565,-0.395497 0.057878,-0.173632 0.1612303,-0.293522 0.1033528,-0.121267 0.2466687,-0.184657 0.1446939,-0.06339 0.3197046,-0.06339 0.07717,0 0.150206,0.01516 0.073036,0.01378 0.1350477,0.03583 0.062012,0.02205 0.1102429,0.05099 0.048231,0.02894 0.066146,0.04823 0.019292,0.01791 0.024805,0.02756 0.00551,0.0096 0.00827,0.02343 0.00413,0.0124 0.00551,0.03032 0.00276,0.01791 0.00276,0.04272 0,0.02756 -0.00276,0.04685 -0.00276,0.01929 -0.00827,0.03307 -0.00551,0.0124 -0.01378,0.01929 -0.00689,0.0055 -0.017914,0.0055 -0.019293,0 -0.053744,-0.02618 -0.034451,-0.02756 -0.089572,-0.05926 -0.053743,-0.03307 -0.1322915,-0.05926 -0.07717,-0.02756 -0.1860351,-0.02756 -0.1185111,0 -0.2163518,0.04823 -0.096463,0.04685 -0.1653644,0.139181 -0.068902,0.09233 -0.1074869,0.225998 -0.037207,0.132292 -0.037207,0.303169 0,0.169498 0.035829,0.300412 0.037207,0.129535 0.1047308,0.21773 0.068902,0.08682 0.1681206,0.132291 0.099219,0.0441 0.22462,0.0441 0.1061089,0 0.184657,-0.02618 0.079926,-0.02618 0.1350477,-0.05788 0.0565,-0.03307 0.092328,-0.05926 0.035829,-0.02618 0.0565,-0.02618 0.00965,0 0.016536,0.0041 0.00689,0.0041 0.011024,0.01654 0.00413,0.01103 0.00551,0.03169 0.00276,0.02067 0.00276,0.05237 z"
         id="path893" />
      <path
         d="m 7.8526506,84.628159 q 0,0.02618 -0.00276,0.04548 -0.00276,0.01929 -0.00965,0.03169 -0.00551,0.01102 -0.015158,0.01654 -0.00827,0.0055 -0.019292,0.0055 H 7.3041918 v 1.546157 q 0,0.01103 -0.00551,0.01929 -0.00551,0.0083 -0.019292,0.01378 -0.01378,0.0041 -0.037207,0.0069 -0.022049,0.0041 -0.0565,0.0041 -0.033073,0 -0.0565,-0.0041 -0.023427,-0.0028 -0.037207,-0.0069 -0.01378,-0.0055 -0.019292,-0.01378 -0.00551,-0.0083 -0.00551,-0.01929 V 84.727378 H 6.5655639 q -0.011024,0 -0.02067,-0.0055 -0.00827,-0.0055 -0.01378,-0.01654 -0.00551,-0.0124 -0.00965,-0.03169 -0.00276,-0.01929 -0.00276,-0.04548 0,-0.02618 0.00276,-0.04547 0.00413,-0.02067 0.00965,-0.03307 0.00551,-0.0124 0.01378,-0.01792 0.00965,-0.0055 0.02067,-0.0055 h 1.2402335 q 0.011024,0 0.019292,0.0055 0.00965,0.0055 0.015158,0.01792 0.00689,0.0124 0.00965,0.03307 0.00276,0.01929 0.00276,0.04547 z"
         id="path895" />
      <path
         d="m 9.2251757,86.225304 q 0.011024,0.03032 0.011024,0.04961 0.00138,0.01792 -0.00965,0.02756 -0.011024,0.0096 -0.037207,0.0124 -0.024805,0.0028 -0.067524,0.0028 -0.042719,0 -0.068902,-0.0028 -0.024805,-0.0014 -0.038585,-0.0055 -0.012402,-0.0055 -0.019293,-0.01378 -0.00551,-0.0083 -0.011024,-0.02067 L 8.831057,85.840832 H 8.0896731 l -0.146072,0.428569 q -0.00413,0.0124 -0.011024,0.02205 -0.00689,0.0083 -0.02067,0.01516 -0.012402,0.0055 -0.037207,0.0083 -0.023427,0.0028 -0.062012,0.0028 -0.039963,0 -0.066146,-0.0041 -0.024805,-0.0028 -0.035829,-0.0124 -0.00965,-0.0096 -0.00965,-0.02756 0.00138,-0.01929 0.012402,-0.04961 L 8.311537,84.567525 q 0.00551,-0.01516 0.01378,-0.0248 0.00965,-0.0096 0.026183,-0.01516 0.017914,-0.0055 0.044097,-0.0069 0.027561,-0.0028 0.068902,-0.0028 0.044097,0 0.073036,0.0028 0.028939,0.0014 0.046853,0.0069 0.017914,0.0055 0.027561,0.01654 0.00965,0.0096 0.015158,0.0248 z M 8.457609,84.763207 h -0.00138 l -0.3073022,0.888834 h 0.6201167 z"
         id="path897" />
      <path
         d="m 10.1209,86.268023 q -0.0055,0.01516 -0.01516,0.02481 -0.0096,0.0096 -0.02756,0.01516 -0.01654,0.0055 -0.0441,0.0069 -0.02618,0.0028 -0.066146,0.0028 -0.030317,0 -0.053743,-0.0014 -0.022049,0 -0.038585,-0.0028 -0.016537,-0.0028 -0.028939,-0.0055 -0.011024,-0.0041 -0.019293,-0.0096 -0.00827,-0.0055 -0.01378,-0.0124 -0.00413,-0.0083 -0.00827,-0.01929 l -0.5829098,-1.6564 q -0.011024,-0.03032 -0.012402,-0.04823 0,-0.01929 0.012402,-0.02894 0.012402,-0.0096 0.039963,-0.0124 0.027561,-0.0028 0.074414,-0.0028 0.038585,0 0.060634,0.0028 0.023427,0.0014 0.035829,0.0069 0.012402,0.0055 0.017914,0.01516 0.00689,0.0083 0.012402,0.02205 l 0.5112518,1.500683 h 0.00138 l 0.497471,-1.497927 q 0.0041,-0.01516 0.0096,-0.0248 0.0055,-0.0096 0.01929,-0.01516 0.01378,-0.0055 0.03858,-0.0069 0.02481,-0.0028 0.06615,-0.0028 0.04272,0 0.06752,0.0041 0.0248,0.0028 0.03307,0.0124 0.0096,0.0096 0.0069,0.02894 -0.0014,0.01792 -0.0124,0.04823 z"
         id="path899" />
      <path
         d="m 11.993652,86.211524 q 0,0.0248 -0.0028,0.0441 -0.0028,0.01791 -0.0096,0.03032 -0.0069,0.0124 -0.01654,0.01791 -0.0083,0.0055 -0.01929,0.0055 H 11.08966 q -0.0317,0 -0.06063,-0.02067 -0.02756,-0.02205 -0.02756,-0.07579 v -1.590255 q 0,-0.05374 0.02756,-0.07441 0.02894,-0.02205 0.06063,-0.02205 h 0.846115 q 0.01102,0 0.01929,0.0055 0.0096,0.0055 0.01516,0.01792 0.0055,0.0124 0.0083,0.03169 0.0041,0.01791 0.0041,0.04547 0,0.02481 -0.0041,0.0441 -0.0028,0.01792 -0.0083,0.03032 -0.0055,0.01102 -0.01516,0.01654 -0.0083,0.0055 -0.01929,0.0055 h -0.697287 v 0.559483 h 0.598068 q 0.01103,0 0.01929,0.0069 0.0096,0.0055 0.01516,0.01654 0.0069,0.01103 0.0096,0.03032 0.0028,0.01929 0.0028,0.04547 0,0.02481 -0.0028,0.04272 -0.0028,0.01791 -0.0096,0.02894 -0.0055,0.01103 -0.01516,0.01654 -0.0083,0.0041 -0.01929,0.0041 h -0.598068 v 0.638031 h 0.706933 q 0.01102,0 0.01929,0.0055 0.0096,0.0055 0.01654,0.01792 0.0069,0.01102 0.0096,0.03032 0.0028,0.01792 0.0028,0.04548 z"
         id="path901" />
    </g>
    <g
       aria-label="IN"
       id="text8544-7-1-0-4-3-4-7"
       style="font-size:2.82222px;line-height:1.25;font-family:Calibri;-inkscape-font-specification:Calibri;text-align:center;text-anchor:middle;display:inline;fill:#020202;stroke-width:0.264583">
      <path
         d="m 6.8280801,101.25562 q 0,0.011 -0.00551,0.0193 -0.00551,0.008 -0.019292,0.0138 -0.01378,0.004 -0.037207,0.007 -0.022049,0.004 -0.0565,0.004 -0.033073,0 -0.0565,-0.004 -0.023427,-0.003 -0.037207,-0.007 -0.01378,-0.006 -0.019293,-0.0138 -0.00551,-0.008 -0.00551,-0.0193 v -1.711521 q 0,-0.01102 0.00551,-0.01929 0.00689,-0.0083 0.020671,-0.0124 0.015158,-0.0055 0.037207,-0.0083 0.023427,-0.0041 0.055122,-0.0041 0.034451,0 0.0565,0.0041 0.023427,0.0028 0.037207,0.0083 0.01378,0.0041 0.019292,0.0124 0.00551,0.0083 0.00551,0.01929 z"
         id="path886" />
      <path
         d="m 8.6498452,101.19361 q 0,0.0276 -0.00965,0.0468 -0.00827,0.0193 -0.023427,0.0317 -0.01378,0.0124 -0.031695,0.0179 -0.017914,0.006 -0.035829,0.006 h -0.075792 q -0.035829,0 -0.06339,-0.007 -0.026183,-0.008 -0.050987,-0.0276 -0.023427,-0.0207 -0.048231,-0.0551 -0.023427,-0.0345 -0.052365,-0.0882 l -0.5622392,-1.01424 q -0.044097,-0.0785 -0.089572,-0.163984 -0.044097,-0.08682 -0.082682,-0.16812 h -0.00276 q 0.00276,0.09922 0.00413,0.202571 0.00138,0.103353 0.00138,0.205323 v 1.07625 q 0,0.01 -0.00551,0.0193 -0.00551,0.008 -0.019292,0.0138 -0.012402,0.004 -0.034451,0.007 -0.020671,0.004 -0.053743,0.004 -0.033073,0 -0.055122,-0.004 -0.020671,-0.003 -0.033073,-0.007 -0.012402,-0.006 -0.017915,-0.0138 -0.00551,-0.01 -0.00551,-0.0193 v -1.645375 q 0,-0.05512 0.030317,-0.07855 0.030317,-0.02343 0.066146,-0.02343 h 0.112999 q 0.039963,0 0.066146,0.0069 0.027561,0.0069 0.048231,0.02343 0.022049,0.01516 0.041341,0.0441 0.020671,0.02756 0.044097,0.07028 l 0.4327037,0.782726 q 0.039963,0.0717 0.07717,0.14056 0.037207,0.0675 0.071658,0.13367 0.034451,0.0661 0.067524,0.13091 0.034451,0.0634 0.067524,0.12816 h 0.00138 q -0.00276,-0.10887 -0.00413,-0.226 0,-0.11851 0,-0.22737 v -0.967386 q 0,-0.0096 0.00551,-0.01791 0.00551,-0.0083 0.017914,-0.01378 0.01378,-0.0069 0.034451,-0.0096 0.022049,-0.0028 0.0565,-0.0028 0.030317,0 0.052365,0.0028 0.022049,0.0028 0.034451,0.0096 0.012402,0.0055 0.017915,0.01378 0.00551,0.0083 0.00551,0.01791 z"
         id="path888" />
    </g>
    <g
       aria-label="OUT"
       id="text8544-7-1-0-4-3-4-7-7"
       style="font-size:2.82222px;line-height:1.25;font-family:Calibri;-inkscape-font-specification:Calibri;text-align:center;text-anchor:middle;display:inline;fill:#ffffff;stroke-width:0.264583">
      <path
         d="m 6.7660684,114.8971 q 0,0.21635 -0.050987,0.38998 -0.050987,0.17363 -0.1529622,0.29628 -0.1005967,0.12127 -0.2535588,0.18741 -0.1529621,0.0648 -0.3569116,0.0648 -0.2011934,0 -0.3486434,-0.0593 -0.146072,-0.0606 -0.2425346,-0.17501 -0.095084,-0.11437 -0.1419378,-0.28387 -0.046853,-0.1695 -0.046853,-0.38999 0,-0.21084 0.050987,-0.38309 0.050987,-0.17226 0.1529621,-0.29215 0.1019748,-0.12126 0.2549369,-0.18603 0.1529621,-0.0662 0.3569116,-0.0662 0.1970594,0 0.3431313,0.0593 0.1460719,0.0593 0.2425345,0.17363 0.097841,0.113 0.1446939,0.28112 0.048231,0.16674 0.048231,0.3831 z m -0.2494247,0.0165 q 0,-0.15158 -0.027561,-0.28112 -0.026183,-0.13091 -0.089572,-0.226 -0.062012,-0.0965 -0.1667425,-0.1502 -0.1047309,-0.0537 -0.259071,-0.0537 -0.1543402,0 -0.259071,0.0579 -0.1047308,0.0579 -0.1708766,0.15434 -0.064768,0.0965 -0.093706,0.226 -0.027561,0.12816 -0.027561,0.2701 0,0.15709 0.026183,0.28938 0.026183,0.1323 0.088194,0.22876 0.062012,0.0951 0.1653645,0.14883 0.1047308,0.0524 0.261827,0.0524 0.1557182,0 0.2618271,-0.0579 0.1061088,-0.0579 0.1708766,-0.15571 0.064768,-0.0992 0.092328,-0.22876 0.027561,-0.12953 0.027561,-0.27423 z"
         id="path879" />
      <path
         d="m 8.4817247,115.15065 q 0,0.16261 -0.048231,0.29077 -0.046853,0.12678 -0.1350477,0.21497 -0.088194,0.0882 -0.2149738,0.13367 -0.1267794,0.0455 -0.2880097,0.0455 -0.14745,0 -0.2687173,-0.0427 -0.1212672,-0.0427 -0.2080836,-0.1254 -0.086816,-0.0841 -0.1336696,-0.20946 -0.046853,-0.1254 -0.046853,-0.28939 v -1.10656 q 0,-0.011 0.00551,-0.0193 0.00551,-0.008 0.019292,-0.0124 0.01378,-0.006 0.035829,-0.008 0.022049,-0.004 0.057878,-0.004 0.033073,0 0.0565,0.004 0.023427,0.003 0.035829,0.008 0.01378,0.004 0.019293,0.0124 0.00551,0.008 0.00551,0.0193 v 1.07762 q 0,0.12402 0.030317,0.21635 0.030317,0.0923 0.086816,0.15434 0.057878,0.0606 0.1378037,0.0923 0.081304,0.0303 0.1819009,0.0303 0.1033528,0 0.1832789,-0.0303 0.081304,-0.0303 0.1364257,-0.0909 0.0565,-0.0606 0.085438,-0.15021 0.030317,-0.0896 0.030317,-0.20946 v -1.09002 q 0,-0.011 0.00551,-0.0193 0.00551,-0.008 0.019293,-0.0124 0.01378,-0.006 0.035829,-0.008 0.023427,-0.004 0.057878,-0.004 0.033073,0 0.055122,0.004 0.023427,0.003 0.035829,0.008 0.01378,0.004 0.019293,0.0124 0.00689,0.008 0.00689,0.0193 z"
         id="path881" />
      <path
         d="m 10.069223,114.12815 q 0,0.0262 -0.0028,0.0455 -0.0028,0.0193 -0.0096,0.0317 -0.0055,0.011 -0.01516,0.0165 -0.0083,0.006 -0.01929,0.006 H 9.5207647 v 1.54616 q 0,0.011 -0.00551,0.0193 -0.00551,0.008 -0.019293,0.0138 -0.01378,0.004 -0.037207,0.007 -0.022049,0.004 -0.056499,0.004 -0.033073,0 -0.0565,-0.004 -0.023427,-0.003 -0.037207,-0.007 -0.01378,-0.006 -0.019293,-0.0138 -0.00551,-0.008 -0.00551,-0.0193 v -1.54616 H 8.7821368 q -0.011024,0 -0.020671,-0.006 -0.00827,-0.006 -0.01378,-0.0165 -0.00551,-0.0124 -0.00965,-0.0317 -0.00276,-0.0193 -0.00276,-0.0455 0,-0.0262 0.00276,-0.0455 0.00413,-0.0207 0.00965,-0.0331 0.00551,-0.0124 0.01378,-0.0179 0.00965,-0.006 0.020671,-0.006 H 10.02237 q 0.01103,0 0.01929,0.006 0.0096,0.006 0.01516,0.0179 0.0069,0.0124 0.0096,0.0331 0.0028,0.0193 0.0028,0.0455 z"
         id="path883" />
    </g>
    <g
       aria-label="2 LIFT"
       id="text8544-7-1-0-4-3-4-7-7-9"
       style="font-size:2.82222px;line-height:1.25;font-family:Calibri;-inkscape-font-specification:Calibri;text-align:center;text-anchor:middle;display:inline;fill:#ffffff;stroke-width:0.264583">
      <path
         d="m 3.1880828,125.99139 q 0,0.0248 -0.00413,0.0441 -0.00276,0.0193 -0.00965,0.0331 -0.00551,0.0124 -0.016536,0.0193 -0.00965,0.006 -0.022049,0.006 H 2.1504208 q -0.019293,0 -0.034451,-0.004 -0.01378,-0.006 -0.024805,-0.0165 -0.00965,-0.011 -0.015158,-0.0317 -0.00413,-0.0207 -0.00413,-0.051 0,-0.0276 0.00138,-0.0482 0.00276,-0.0207 0.00965,-0.0358 0.00689,-0.0165 0.016536,-0.0317 0.011024,-0.0165 0.027561,-0.0345 l 0.3458873,-0.36656 q 0.1198893,-0.12678 0.1915472,-0.22737 0.073036,-0.1006 0.111621,-0.18328 0.039963,-0.0827 0.052365,-0.15021 0.012402,-0.0675 0.012402,-0.12678 0,-0.0593 -0.019293,-0.11162 -0.019293,-0.0537 -0.0565,-0.0937 -0.035829,-0.04 -0.09095,-0.0634 -0.055121,-0.0234 -0.1267794,-0.0234 -0.08406,0 -0.1515841,0.0234 -0.066146,0.0234 -0.1171331,0.051 -0.049609,0.0276 -0.08406,0.051 -0.033073,0.0234 -0.049609,0.0234 -0.00965,0 -0.017914,-0.006 -0.00689,-0.006 -0.012402,-0.0179 -0.00413,-0.0124 -0.00689,-0.0331 -0.00276,-0.0207 -0.00276,-0.0496 0,-0.0207 0.00138,-0.0358 0.00138,-0.0152 0.00413,-0.0262 0.00413,-0.011 0.00965,-0.0207 0.00551,-0.01 0.022049,-0.0234 0.016536,-0.0152 0.056499,-0.04 0.041341,-0.0248 0.1019748,-0.0482 0.062012,-0.0248 0.1350476,-0.0414 0.074414,-0.0165 0.1557182,-0.0165 0.1295355,0 0.2259981,0.0372 0.097841,0.0358 0.1612304,0.0992 0.064768,0.0634 0.096463,0.14745 0.031695,0.0841 0.031695,0.17915 0,0.0854 -0.015158,0.17088 -0.015158,0.0841 -0.064768,0.18327 -0.048231,0.0978 -0.1405598,0.21911 -0.092328,0.11989 -0.2452906,0.27699 l -0.2824977,0.2949 h 0.775835 q 0.011024,0 0.020671,0.007 0.011024,0.006 0.017914,0.0179 0.00827,0.0124 0.011024,0.0317 0.00413,0.0179 0.00413,0.0427 z"
         id="path868" />
      <path
         d="m 5.1448956,125.99001 q 0,0.0276 -0.00276,0.0469 -0.00276,0.0179 -0.00965,0.0317 -0.00551,0.0124 -0.015158,0.0193 -0.00827,0.006 -0.020671,0.006 H 4.308427 q -0.031695,0 -0.060634,-0.0207 -0.027561,-0.022 -0.027561,-0.0758 v -1.65089 q 0,-0.011 0.00551,-0.0193 0.00551,-0.008 0.019292,-0.0124 0.01378,-0.006 0.037207,-0.008 0.023427,-0.004 0.056499,-0.004 0.034451,0 0.0565,0.004 0.023427,0.003 0.037207,0.008 0.01378,0.004 0.019293,0.0124 0.00551,0.008 0.00551,0.0193 v 1.54202 h 0.6394093 q 0.012402,0 0.020671,0.007 0.00965,0.006 0.015158,0.0179 0.00689,0.011 0.00965,0.0303 0.00276,0.0193 0.00276,0.0469 z"
         id="path870" />
      <path
         d="m 5.6437448,126.05753 q 0,0.011 -0.00551,0.0193 -0.00551,0.008 -0.019292,0.0138 -0.01378,0.004 -0.037207,0.007 -0.022049,0.004 -0.0565,0.004 -0.033073,0 -0.0565,-0.004 -0.023427,-0.003 -0.037207,-0.007 -0.01378,-0.006 -0.019293,-0.0138 -0.00551,-0.008 -0.00551,-0.0193 v -1.71152 q 0,-0.011 0.00551,-0.0193 0.00689,-0.008 0.020671,-0.0124 0.015158,-0.006 0.037207,-0.008 0.023427,-0.004 0.055121,-0.004 0.034451,0 0.0565,0.004 0.023427,0.003 0.037207,0.008 0.01378,0.004 0.019292,0.0124 0.00551,0.008 0.00551,0.0193 z"
         id="path872" />
      <path
         d="m 7.0548549,124.41216 q 0,0.0262 -0.00276,0.0455 -0.00276,0.0193 -0.00965,0.0317 -0.00689,0.011 -0.016536,0.0165 -0.00827,0.006 -0.017914,0.006 H 6.354812 v 0.60634 h 0.6173607 q 0.00965,0 0.017914,0.006 0.00965,0.004 0.016536,0.0152 0.00689,0.011 0.00965,0.0303 0.00276,0.0179 0.00276,0.0468 0,0.0262 -0.00276,0.0455 -0.00276,0.0179 -0.00965,0.0303 -0.00689,0.011 -0.016536,0.0179 -0.00827,0.006 -0.017914,0.006 H 6.354812 v 0.74276 q 0,0.01 -0.00551,0.0193 -0.00551,0.008 -0.019292,0.0138 -0.01378,0.004 -0.035829,0.007 -0.022049,0.004 -0.057878,0.004 -0.033073,0 -0.0565,-0.004 -0.023427,-0.003 -0.037207,-0.007 -0.01378,-0.006 -0.019292,-0.0138 -0.00551,-0.01 -0.00551,-0.0193 v -1.65089 q 0,-0.0537 0.027561,-0.0744 0.028939,-0.022 0.060634,-0.022 h 0.8020176 q 0.00965,0 0.017914,0.006 0.00965,0.006 0.016536,0.0179 0.00689,0.0124 0.00965,0.0331 0.00276,0.0193 0.00276,0.0455 z"
         id="path874" />
      <path
         d="m 8.5321109,124.41216 q 0,0.0262 -0.00276,0.0455 -0.00276,0.0193 -0.00965,0.0317 -0.00551,0.011 -0.015158,0.0165 -0.00827,0.006 -0.019293,0.006 H 7.9836521 v 1.54616 q 0,0.011 -0.00551,0.0193 -0.00551,0.008 -0.019292,0.0138 -0.01378,0.004 -0.037207,0.007 -0.022049,0.004 -0.0565,0.004 -0.033073,0 -0.0565,-0.004 -0.023427,-0.003 -0.037207,-0.007 -0.01378,-0.006 -0.019293,-0.0138 -0.00551,-0.008 -0.00551,-0.0193 v -1.54616 H 7.2450242 q -0.011024,0 -0.02067,-0.006 -0.00827,-0.006 -0.01378,-0.0165 -0.00551,-0.0124 -0.00965,-0.0317 -0.00276,-0.0193 -0.00276,-0.0455 0,-0.0262 0.00276,-0.0455 0.00413,-0.0207 0.00965,-0.0331 0.00551,-0.0124 0.01378,-0.0179 0.00965,-0.006 0.02067,-0.006 h 1.2402335 q 0.011024,0 0.019293,0.006 0.00965,0.006 0.015158,0.0179 0.00689,0.0124 0.00965,0.0331 0.00276,0.0193 0.00276,0.0455 z"
         id="path876" />
    </g>
    <g
       aria-label="QUANT"
       id="text8544-7-0-8-5"
       style="font-size:4.23333px;line-height:1.25;font-family:Calibri;-inkscape-font-specification:Calibri;text-align:center;letter-spacing:0px;text-anchor:middle;display:inline;fill:#ffffff;stroke-width:0.264583">
      <path
         d="m 4.523902,122.93522 q 0,0.0331 -0.0062,0.0558 -0.00413,0.0248 -0.014469,0.0393 -0.00827,0.0145 -0.018604,0.0207 -0.010335,0.006 -0.022738,0.006 -0.024805,0 -0.1074869,-0.0331 -0.080615,-0.0331 -0.1963703,-0.0951 -0.1157551,-0.062 -0.2542478,-0.15297 -0.1364257,-0.0889 -0.2728513,-0.20877 -0.1054199,0.0724 -0.2707843,0.12609 -0.1653644,0.0517 -0.3906735,0.0517 -0.297656,0 -0.5126298,-0.093 -0.2129067,-0.0951 -0.3513994,-0.26872 -0.1364257,-0.1757 -0.2025715,-0.42788 -0.064079,-0.25218 -0.064079,-0.56844 0,-0.31419 0.072347,-0.57051 0.072347,-0.25631 0.2191078,-0.43614 0.148828,-0.1819 0.370003,-0.28112 Q 2.7234966,120 3.0232196,120 q 0.2811196,0 0.4919593,0.093 0.2129067,0.093 0.3534665,0.26665 0.1426268,0.17363 0.2129067,0.42167 0.072347,0.24805 0.072347,0.56018 0,0.15916 -0.018604,0.31006 -0.018604,0.15089 -0.059945,0.28732 -0.039274,0.13642 -0.1033528,0.25631 -0.062012,0.11782 -0.148828,0.21291 0.1612304,0.13436 0.2831867,0.20877 0.1219562,0.0744 0.2005043,0.11369 0.078548,0.0393 0.1198893,0.0558 0.043408,0.0165 0.062012,0.0351 0.018603,0.0186 0.026872,0.0455 0.00827,0.0269 0.00827,0.0682 z m -0.6387202,-1.57097 q 0,-0.23771 -0.045475,-0.44441 -0.043408,-0.20878 -0.146761,-0.36174 -0.1012857,-0.15503 -0.2707842,-0.24184 -0.1694986,-0.0889 -0.4196123,-0.0889 -0.2480467,0 -0.4196123,0.093 -0.1694985,0.0909 -0.2769854,0.24598 -0.1054199,0.15503 -0.1529621,0.36174 -0.045475,0.2067 -0.045475,0.43614 0,0.24392 0.041341,0.45476 0.043408,0.20877 0.1446939,0.3638 0.1012858,0.15503 0.2707843,0.24391 0.1694986,0.0868 0.4237464,0.0868 0.2521808,0 0.4237464,-0.093 0.1715656,-0.0951 0.2769854,-0.25218 0.1054199,-0.15916 0.1508951,-0.36587 0.045475,-0.20877 0.045475,-0.43822 z"
         style="font-weight:300;-inkscape-font-specification:'Calibri Light'"
         id="path857" />
      <path
         d="m 6.7377184,121.72599 q 0,0.24391 -0.07028,0.43408 -0.068213,0.19017 -0.1963702,0.32039 -0.1281575,0.13023 -0.3100584,0.19844 -0.1819009,0.0662 -0.4072099,0.0662 -0.2046385,0 -0.3782712,-0.0641 -0.1715656,-0.0641 -0.297656,-0.1881 -0.1240233,-0.12609 -0.1943032,-0.31006 -0.068213,-0.18604 -0.068213,-0.42788 v -1.67845 q 0,-0.0124 0.0062,-0.0227 0.0062,-0.0103 0.020671,-0.0165 0.016536,-0.006 0.039274,-0.0103 0.022738,-0.004 0.059945,-0.004 0.03514,0 0.059945,0.004 0.024805,0.004 0.039274,0.0103 0.014469,0.006 0.020671,0.0165 0.0062,0.0103 0.0062,0.0227 v 1.63711 q 0,0.2005 0.047542,0.3514 0.049609,0.15089 0.1405598,0.25218 0.093017,0.0992 0.223242,0.15089 0.1322916,0.0496 0.297656,0.0496 0.1674315,0 0.297656,-0.0475 0.1322916,-0.0496 0.223242,-0.14883 0.09095,-0.0992 0.1384927,-0.24598 0.049609,-0.14883 0.049609,-0.34726 v -1.65158 q 0,-0.0124 0.0062,-0.0227 0.0062,-0.0103 0.020671,-0.0165 0.014469,-0.006 0.039274,-0.0103 0.024805,-0.004 0.059945,-0.004 0.03514,0 0.059945,0.004 0.024805,0.004 0.039274,0.0103 0.014469,0.006 0.020671,0.0165 0.0062,0.0103 0.0062,0.0227 z"
         style="font-weight:300;-inkscape-font-specification:'Calibri Light'"
         id="path859" />
      <path
         d="m 9.3298064,122.62516 q 0.012402,0.031 0.010335,0.0517 0,0.0186 -0.014469,0.0289 -0.012402,0.0103 -0.041341,0.0124 -0.026872,0.004 -0.07028,0.004 -0.043408,0 -0.07028,-0.004 -0.024805,-0.002 -0.039274,-0.008 -0.014469,-0.006 -0.022738,-0.0165 -0.0062,-0.0103 -0.012402,-0.0248 L 8.8130426,121.95543 H 7.638955 l -0.2459796,0.709 q -0.00413,0.0145 -0.012402,0.0248 -0.00827,0.0103 -0.022738,0.0186 -0.014469,0.006 -0.041341,0.0103 -0.024805,0.004 -0.064079,0.004 -0.043408,0 -0.072347,-0.004 -0.028939,-0.004 -0.043408,-0.0145 -0.012402,-0.0103 -0.014469,-0.0289 0,-0.0186 0.012402,-0.0496 l 0.9363762,-2.54455 q 0.0062,-0.0165 0.018604,-0.0269 0.012402,-0.0124 0.031006,-0.0186 0.020671,-0.006 0.047542,-0.008 0.028939,-0.004 0.064079,-0.004 0.037207,0 0.064079,0.004 0.028939,0.002 0.047542,0.008 0.020671,0.006 0.031006,0.0186 0.012402,0.0103 0.018604,0.0269 z m -1.1100088,-2.31924 h -0.00207 l -0.5043616,1.43867 h 1.0231925 z"
         style="font-weight:300;-inkscape-font-specification:'Calibri Light'"
         id="path861" />
      <path
         d="m 11.735859,122.58795 q 0,0.0372 -0.0124,0.062 -0.01034,0.0248 -0.02894,0.0413 -0.01654,0.0145 -0.03927,0.0207 -0.02067,0.006 -0.03927,0.006 h -0.05168 q -0.04134,0 -0.07648,-0.0103 -0.03307,-0.0103 -0.06615,-0.0351 -0.03101,-0.0269 -0.06408,-0.0703 -0.03101,-0.0434 -0.07028,-0.11162 l -0.942578,-1.67018 q -0.07028,-0.12196 -0.142627,-0.25011 -0.07028,-0.13023 -0.134358,-0.25219 h -0.0021 q 0.0021,0.1509 0.0021,0.31006 0,0.1571 0,0.30799 v 1.7322 q 0,0.0124 -0.0062,0.0227 -0.0062,0.0103 -0.02067,0.0165 -0.01447,0.006 -0.03927,0.0103 -0.022737,0.004 -0.059945,0.004 -0.03514,0 -0.059945,-0.004 -0.024805,-0.004 -0.039274,-0.0103 -0.014469,-0.006 -0.020671,-0.0165 -0.0062,-0.0103 -0.0062,-0.0227 v -2.50321 q 0,-0.0744 0.039274,-0.10128 0.039274,-0.0289 0.076481,-0.0289 h 0.1033528 q 0.04961,0 0.08268,0.008 0.03307,0.008 0.05994,0.0289 0.02687,0.0186 0.05168,0.0558 0.02687,0.0351 0.05788,0.091 l 0.721402,1.2795 q 0.06821,0.11989 0.128158,0.23151 0.06201,0.10956 0.119889,0.21704 0.05788,0.10542 0.113688,0.20878 0.05788,0.10335 0.113688,0.20877 h 0.0021 q -0.0021,-0.17363 -0.0021,-0.36174 0,-0.1881 0,-0.36173 v -1.55649 q 0,-0.0124 0.0062,-0.0227 0.0062,-0.0103 0.02067,-0.0165 0.01447,-0.008 0.03721,-0.0103 0.0248,-0.004 0.06201,-0.004 0.03307,0 0.05788,0.004 0.02481,0.002 0.03927,0.0103 0.01447,0.006 0.02067,0.0165 0.0083,0.0103 0.0083,0.0227 z"
         style="font-weight:300;-inkscape-font-specification:'Calibri Light'"
         id="path863" />
      <path
         d="m 14.137778,120.15089 q 0,0.0269 -0.0041,0.0476 -0.0041,0.0207 -0.0124,0.0351 -0.0083,0.0124 -0.02067,0.0207 -0.0124,0.006 -0.02687,0.006 h -0.797883 v 2.40812 q 0,0.0124 -0.0062,0.0227 -0.0062,0.0103 -0.02067,0.0165 -0.01447,0.006 -0.03927,0.0103 -0.0248,0.004 -0.05994,0.004 -0.03514,0 -0.05994,-0.004 -0.02481,-0.004 -0.03927,-0.0103 -0.01447,-0.006 -0.02067,-0.0165 -0.0062,-0.0103 -0.0062,-0.0227 v -2.40812 h -0.797884 q -0.01654,0 -0.02894,-0.006 -0.01034,-0.008 -0.0186,-0.0207 -0.0083,-0.0145 -0.0124,-0.0351 -0.0041,-0.0207 -0.0041,-0.0476 0,-0.0289 0.0041,-0.0496 0.0041,-0.0227 0.0124,-0.0372 0.0083,-0.0145 0.0186,-0.0207 0.0124,-0.008 0.02894,-0.008 h 1.847948 q 0.01447,0 0.02687,0.008 0.0124,0.006 0.02067,0.0207 0.0083,0.0145 0.0124,0.0372 0.0041,0.0207 0.0041,0.0496 z"
         style="font-weight:300;-inkscape-font-specification:'Calibri Light'"
         id="path865" />
    </g>
  </g>
</svg>
