<?xml version="1.0" encoding="UTF-8" standalone="no"?>
<!-- Created with Inkscape (http://www.inkscape.org/) -->

<svg
   width="15.24mm"
   height="128.5mm"
   viewBox="0 0 15.24 128.5"
   version="1.1"
   id="svg5"
   inkscape:version="1.1.2 (b8e25be833, 2022-02-05)"
   sodipodi:docname="Split.svg"
   xmlns:inkscape="http://www.inkscape.org/namespaces/inkscape"
   xmlns:sodipodi="http://sodipodi.sourceforge.net/DTD/sodipodi-0.dtd"
   xmlns="http://www.w3.org/2000/svg"
   xmlns:svg="http://www.w3.org/2000/svg">
  <sodipodi:namedview
     id="namedview7"
     pagecolor="#ffffff"
     bordercolor="#666666"
     borderopacity="1.0"
     inkscape:pageshadow="2"
     inkscape:pageopacity="0.0"
     inkscape:pagecheckerboard="0"
     inkscape:document-units="mm"
     showgrid="false"
     height="128.5mm"
     inkscape:zoom="2"
     inkscape:cx="-116.75"
     inkscape:cy="231.75"
     inkscape:window-width="3840"
     inkscape:window-height="2054"
     inkscape:window-x="-11"
     inkscape:window-y="-11"
     inkscape:window-maximized="0"
     inkscape:current-layer="layer1" />
  <defs
     id="defs2" />
  <g
     inkscape:label="Layer 1"
     inkscape:groupmode="layer"
     id="layer1">
    <path
       id="rect4302"
       style="fill:#111111;stroke-width:0.184931"
       d="M -0.00163784,1.6577559e-8 H 15.242541 V 128.50433 H -0.00163784 Z" />
    <path
       id="rect10313-6"
       style="fill:#555555;stroke-width:0.264582"
       d="M 3.1199998,19 H 12.12 c 0.831,0 1.5,0.669 1.5,1.5 v 96 c 0,0.831 -0.669,1.5 -1.5,1.5 H 3.1199998 C 2.2889999,118 1.62,117.331 1.62,116.5 v -96 C 1.62,19.669 2.2889999,19 3.1199998,19 Z" />
    <path
       id="rect10313"
       style="fill:#AAAAAA;stroke-width:0.264583"
       d="m 3.0805384,6 h 9.0000006 c 0.831,0 1.5,0.6689998 1.5,1.4999996 V 18 c 0,0.831 -0.669,1.5 -1.5,1.5 H 3.0805384 C 2.2495385,19.5 1.5805386,18.831 1.5805386,18 V 7.4999996 C 1.5805386,6.6689998 2.2495385,6 3.0805384,6 Z" />
    <path
       id="rect1321"
       style="fill:#AAAAAA;stroke:#00a6a9;stroke-width:0"
       d="M 1.5805391,11.250001 H 13.580539 V 21.25 H 1.5805391 Z" />
    <path
       id="rect10313-4"
       style="fill:#AAAAAA;stroke-width:0.264583"
       d="m 3.1204513,136.22836 h 9.0000007 c 0.831,0 1.5,0.669 1.5,1.5 v 9.59748 c 0,0.831 -0.669,1.5 -1.5,1.5 H 3.1204513 c -0.8309998,0 -1.4999997,-0.669 -1.4999997,-1.5 v -9.59748 c 0,-0.831 0.6689999,-1.5 1.4999997,-1.5 z" />
    <g
       aria-label="SPLIT"
       id="text8544-7-0-8-5"
       style="font-size:4.23333px;line-height:1.25;font-family:Calibri;-inkscape-font-specification:Calibri;text-align:center;letter-spacing:0.264583px;text-anchor:middle;fill:#ffffff;stroke-width:0.264583">
      <path
         d="m 4.3152301,121.98644 q 0,0.17776 -0.064079,0.31832 -0.064079,0.14056 -0.1798338,0.23978 -0.1157551,0.0971 -0.2749184,0.14883 -0.1591633,0.0517 -0.3472653,0.0517 -0.1281575,0 -0.2418455,-0.0248 -0.1136881,-0.0227 -0.2025715,-0.0558 -0.088883,-0.0331 -0.150895,-0.0661 -0.059945,-0.0351 -0.082682,-0.0579 -0.022738,-0.0248 -0.033073,-0.0558 -0.010335,-0.0331 -0.010335,-0.0806 0,-0.0351 0.00413,-0.0579 0.00413,-0.0227 0.010335,-0.0372 0.00827,-0.0145 0.018604,-0.0186 0.012402,-0.006 0.024805,-0.006 0.028939,0 0.080615,0.0372 0.053743,0.0351 0.1364257,0.0786 0.084749,0.0413 0.2005044,0.0785 0.1178221,0.0351 0.2728513,0.0351 0.1260904,0 0.2315102,-0.0331 0.1054199,-0.0351 0.1819009,-0.0992 0.076481,-0.0641 0.1178222,-0.1571 0.043408,-0.0951 0.043408,-0.21497 0,-0.12403 -0.053743,-0.21291 -0.053743,-0.0889 -0.1426268,-0.15503 -0.086816,-0.0682 -0.1984374,-0.12196 -0.111621,-0.0558 -0.2294431,-0.10955 -0.1157551,-0.0558 -0.2273761,-0.11989 -0.111621,-0.0641 -0.2005044,-0.14883 -0.086816,-0.0868 -0.1405598,-0.20257 -0.053743,-0.11575 -0.053743,-0.27492 0,-0.15503 0.05581,-0.27698 0.055811,-0.12403 0.1570962,-0.20878 0.1012857,-0.0868 0.2418455,-0.13229 Q 3.4015915,120 3.5710901,120 q 0.084749,0 0.1715656,0.0165 0.086816,0.0165 0.1632974,0.0434 0.078548,0.0248 0.1384927,0.0579 0.062012,0.031 0.080615,0.0517 0.020671,0.0186 0.024805,0.0289 0.0062,0.008 0.010335,0.0227 0.00413,0.0145 0.0062,0.0351 0.00207,0.0186 0.00207,0.0475 0,0.0269 -0.00413,0.0496 -0.00207,0.0207 -0.00827,0.0372 -0.0062,0.0145 -0.016536,0.0227 -0.00827,0.008 -0.02067,0.008 -0.022738,0 -0.07028,-0.0289 -0.045475,-0.031 -0.1157551,-0.0682 -0.07028,-0.0372 -0.1674315,-0.0661 -0.097152,-0.031 -0.221175,-0.031 -0.1219562,0 -0.2129067,0.0331 -0.09095,0.0331 -0.150895,0.0909 -0.059945,0.0558 -0.09095,0.13229 -0.028939,0.0765 -0.028939,0.16123 0,0.12402 0.053743,0.21291 0.053743,0.0889 0.1426268,0.15709 0.088883,0.0682 0.2005044,0.12403 0.1136881,0.0537 0.2294432,0.10955 0.1178221,0.0537 0.2294431,0.11782 0.1136881,0.062 0.2025715,0.14883 0.088883,0.0847 0.1426268,0.2005 0.053744,0.11369 0.053744,0.27079 z"
         style="font-weight:300;-inkscape-font-specification:'Calibri Light'"
         id="path861" />
      <path
         d="m 6.6820085,120.80202 q 0,0.18603 -0.064079,0.34106 -0.062012,0.15503 -0.1798338,0.26665 -0.1178222,0.11162 -0.2873208,0.17363 -0.1694985,0.062 -0.409277,0.062 H 5.3942329 v 1.0232 q 0,0.0124 -0.0062,0.0227 -0.0062,0.0103 -0.02067,0.0165 -0.014469,0.006 -0.039274,0.0103 -0.022738,0.004 -0.059945,0.004 -0.03514,0 -0.059945,-0.004 -0.024805,-0.004 -0.039274,-0.0103 -0.014469,-0.006 -0.020671,-0.0165 -0.0062,-0.0103 -0.0062,-0.0227 v -2.50321 q 0,-0.0744 0.039274,-0.10128 0.039274,-0.0289 0.076481,-0.0289 h 0.5436357 q 0.080615,0 0.1570962,0.008 0.076481,0.006 0.1777668,0.031 0.1033527,0.0227 0.2087726,0.0889 0.1074869,0.0641 0.1819009,0.15916 0.074414,0.093 0.113688,0.21497 0.041341,0.11989 0.041341,0.26459 z m -0.2666501,0.0227 q 0,-0.17363 -0.068213,-0.29352 -0.068213,-0.12196 -0.1674315,-0.17983 -0.097152,-0.06 -0.2046385,-0.0744 -0.1054198,-0.0165 -0.2005044,-0.0165 H 5.3942329 v 1.16168 h 0.3638018 q 0.1756997,0 0.2935219,-0.0434 0.1178221,-0.0455 0.1984373,-0.12402 0.080615,-0.0785 0.1219563,-0.1881 0.043408,-0.11162 0.043408,-0.24185 z"
         style="font-weight:300;-inkscape-font-specification:'Calibri Light'"
         id="path863" />
      <path
         d="m 8.8978919,122.59415 q 0,0.0289 -0.00413,0.0496 -0.00413,0.0207 -0.012402,0.0372 -0.00827,0.0145 -0.02067,0.0227 -0.012402,0.006 -0.028939,0.006 H 7.6721279 q -0.037207,0 -0.076481,-0.0269 -0.039274,-0.0289 -0.039274,-0.10336 v -2.5032 q 0,-0.0124 0.0062,-0.0227 0.0062,-0.0103 0.020671,-0.0165 0.014469,-0.006 0.039274,-0.0103 0.024805,-0.004 0.059945,-0.004 0.037207,0 0.059945,0.004 0.024805,0.004 0.039274,0.0103 0.014469,0.006 0.020671,0.0165 0.0062,0.0103 0.0062,0.0227 v 2.40398 h 1.0231925 q 0.016536,0 0.028939,0.008 0.012402,0.006 0.02067,0.0207 0.00827,0.0124 0.012402,0.0351 0.00413,0.0207 0.00413,0.0496 z"
         style="font-weight:300;-inkscape-font-specification:'Calibri Light'"
         id="path865" />
      <path
         d="m 9.8466705,122.66857 q 0,0.0124 -0.0062,0.0227 -0.0062,0.0103 -0.020671,0.0165 -0.014469,0.006 -0.039274,0.0103 -0.022738,0.004 -0.059945,0.004 -0.03514,0 -0.059945,-0.004 -0.024805,-0.004 -0.039274,-0.0103 -0.014469,-0.006 -0.020671,-0.0165 -0.0062,-0.0103 -0.0062,-0.0227 v -2.59209 q 0,-0.0124 0.0062,-0.0227 0.00827,-0.0103 0.022738,-0.0165 0.016537,-0.006 0.039274,-0.0103 0.024805,-0.004 0.057878,-0.004 0.037207,0 0.059945,0.004 0.024805,0.004 0.039274,0.0103 0.014469,0.006 0.020671,0.0165 0.0062,0.0103 0.0062,0.0227 z"
         style="font-weight:300;-inkscape-font-specification:'Calibri Light'"
         id="path867" />
      <path
         d="m 12.513172,120.15089 q 0,0.0269 -0.0041,0.0476 -0.0041,0.0207 -0.0124,0.0351 -0.0083,0.0124 -0.02067,0.0207 -0.0124,0.006 -0.02687,0.006 H 11.65121 v 2.40812 q 0,0.0124 -0.0062,0.0227 -0.0062,0.0103 -0.02067,0.0165 -0.01447,0.006 -0.03927,0.0103 -0.0248,0.004 -0.05994,0.004 -0.03514,0 -0.05994,-0.004 -0.02481,-0.004 -0.03927,-0.0103 -0.01447,-0.006 -0.02067,-0.0165 -0.0062,-0.0103 -0.0062,-0.0227 v -2.40812 h -0.797884 q -0.01654,0 -0.02894,-0.006 -0.01034,-0.008 -0.0186,-0.0207 -0.0083,-0.0145 -0.0124,-0.0351 -0.0041,-0.0207 -0.0041,-0.0476 0,-0.0289 0.0041,-0.0496 0.0041,-0.0227 0.0124,-0.0372 0.0083,-0.0145 0.0186,-0.0207 0.0124,-0.008 0.02894,-0.008 h 1.847948 q 0.01447,0 0.02687,0.008 0.0124,0.006 0.02067,0.0207 0.0083,0.0145 0.0124,0.0372 0.0041,0.0207 0.0041,0.0496 z"
         style="font-weight:300;-inkscape-font-specification:'Calibri Light'"
         id="path869" />
    </g>
    <g
       aria-label="2 LIFT"
       id="text8544-7-0-8-5-9"
       style="font-size:2.46944px;line-height:1.25;font-family:Calibri;-inkscape-font-specification:Calibri;text-align:center;text-anchor:middle;fill:#ffffff;stroke-width:0.264583">
      <path
         d="m 3.6670348,125.36831 q 0,0.0145 -0.00362,0.0277 -0.00241,0.0121 -0.00844,0.0217 -0.00482,0.008 -0.013264,0.0133 -0.00844,0.005 -0.019293,0.005 H 2.7795798 q -0.010852,0 -0.020498,-0.004 -0.00965,-0.004 -0.016881,-0.0109 -0.00723,-0.008 -0.010852,-0.0217 -0.00362,-0.0133 -0.00362,-0.0314 0,-0.0157 0.00121,-0.0277 0.00121,-0.0121 0.00482,-0.0217 0.00362,-0.01 0.00965,-0.0193 0.00603,-0.01 0.015675,-0.0205 l 0.319532,-0.33762 q 0.1193724,-0.1254 0.1893077,-0.22428 0.071141,-0.0989 0.1085203,-0.17845 0.037379,-0.0796 0.048231,-0.1447 0.012058,-0.0651 0.012058,-0.12299 0,-0.0579 -0.019293,-0.10972 -0.018087,-0.0531 -0.05426,-0.0916 -0.036173,-0.0398 -0.090434,-0.0627 -0.053054,-0.0241 -0.1229897,-0.0241 -0.075964,0 -0.1362533,0.0217 -0.060289,0.0205 -0.1061087,0.047 -0.044614,0.0253 -0.074758,0.047 -0.030145,0.0205 -0.044614,0.0205 -0.00723,0 -0.013263,-0.004 -0.00603,-0.004 -0.010852,-0.0109 -0.00362,-0.008 -0.00603,-0.0205 -0.00121,-0.0121 -0.00121,-0.0277 0,-0.0145 0.00121,-0.0241 0.00121,-0.01 0.00362,-0.0169 0.00241,-0.008 0.00603,-0.0157 0.00482,-0.007 0.018087,-0.0193 0.014469,-0.0121 0.047026,-0.0326 0.033762,-0.0205 0.084405,-0.041 0.050643,-0.0217 0.1121377,-0.0362 0.061495,-0.0157 0.1278128,-0.0157 0.1097261,0 0.1905134,0.0326 0.081993,0.0326 0.1362533,0.088 0.05426,0.0555 0.080787,0.12901 0.026527,0.0724 0.026527,0.15314 0,0.0748 -0.013264,0.14952 -0.012058,0.0736 -0.05426,0.16157 -0.040997,0.0868 -0.1205781,0.19293 -0.078376,0.1061 -0.209806,0.24477 l -0.2845643,0.29783 h 0.7138225 q 0.00965,0 0.018087,0.005 0.00844,0.004 0.014469,0.0121 0.00603,0.008 0.00844,0.0205 0.00362,0.0121 0.00362,0.0265 z"
         style="font-weight:300;-inkscape-font-specification:'Calibri Light'"
         id="path850" />
      <path
         d="m 5.3937135,125.36831 q 0,0.0169 -0.00241,0.0289 -0.00241,0.0121 -0.00723,0.0217 -0.00482,0.008 -0.012058,0.0133 -0.00723,0.004 -0.016881,0.004 H 4.6786852 q -0.021704,0 -0.044614,-0.0157 -0.02291,-0.0169 -0.02291,-0.0603 v -1.4602 q 0,-0.007 0.00362,-0.0133 0.00362,-0.006 0.012058,-0.01 0.00844,-0.004 0.02291,-0.006 0.014469,-0.002 0.034968,-0.002 0.021704,0 0.034968,0.002 0.014469,0.002 0.02291,0.006 0.00844,0.004 0.012058,0.01 0.00362,0.006 0.00362,0.0133 v 1.40233 h 0.5968617 q 0.00965,0 0.016881,0.005 0.00723,0.004 0.012058,0.0121 0.00482,0.007 0.00723,0.0205 0.00241,0.0121 0.00241,0.0289 z"
         style="font-weight:300;-inkscape-font-specification:'Calibri Light'"
         id="path852" />
      <path
         d="m 5.7928272,125.41172 q 0,0.007 -0.00362,0.0133 -0.00362,0.006 -0.012058,0.01 -0.00844,0.004 -0.02291,0.006 -0.013264,0.002 -0.034968,0.002 -0.020498,0 -0.034968,-0.002 -0.014469,-0.002 -0.02291,-0.006 -0.00844,-0.004 -0.012058,-0.01 -0.00362,-0.006 -0.00362,-0.0133 v -1.51205 q 0,-0.007 0.00362,-0.0133 0.00482,-0.006 0.013264,-0.01 0.00965,-0.004 0.02291,-0.006 0.014469,-0.002 0.033762,-0.002 0.021704,0 0.034968,0.002 0.014469,0.002 0.02291,0.006 0.00844,0.004 0.012058,0.01 0.00362,0.006 0.00362,0.0133 z"
         style="font-weight:300;-inkscape-font-specification:'Calibri Light'"
         id="path854" />
      <path
         d="m 7.0383991,123.94308 q 0,0.0157 -0.00241,0.0277 -0.00241,0.0121 -0.00844,0.0205 -0.00482,0.007 -0.012058,0.0121 -0.00723,0.004 -0.015675,0.004 H 6.3957177 v 0.59083 h 0.5727461 q 0.00844,0 0.015675,0.004 0.00723,0.002 0.012058,0.01 0.00603,0.007 0.00844,0.0193 0.00241,0.0121 0.00241,0.0302 0,0.0157 -0.00241,0.0277 -0.00241,0.0121 -0.00844,0.0205 -0.00482,0.007 -0.012058,0.0121 -0.00723,0.004 -0.015675,0.004 H 6.3957177 v 0.68729 q 0,0.007 -0.00362,0.0133 -0.00362,0.006 -0.012058,0.01 -0.00844,0.004 -0.02291,0.006 -0.013264,0.002 -0.034968,0.002 -0.020498,0 -0.034968,-0.002 -0.014469,-0.002 -0.02291,-0.006 -0.00844,-0.004 -0.012058,-0.01 -0.00362,-0.006 -0.00362,-0.0133 v -1.4602 q 0,-0.0434 0.02291,-0.0591 0.02291,-0.0169 0.044614,-0.0169 h 0.6836779 q 0.00844,0 0.015675,0.005 0.00723,0.004 0.012058,0.0121 0.00603,0.008 0.00844,0.0217 0.00241,0.0121 0.00241,0.0289 z"
         style="font-weight:300;-inkscape-font-specification:'Calibri Light'"
         id="path856" />
      <path
         d="m 8.329791,123.94308 q 0,0.0157 -0.00241,0.0277 -0.00241,0.0121 -0.00723,0.0205 -0.00482,0.007 -0.012058,0.0121 -0.00723,0.004 -0.015675,0.004 H 7.8269803 v 1.40473 q 0,0.007 -0.00362,0.0133 -0.00362,0.006 -0.012058,0.01 -0.00844,0.004 -0.02291,0.006 -0.014469,0.002 -0.034968,0.002 -0.020498,0 -0.034968,-0.002 -0.014469,-0.002 -0.02291,-0.006 -0.00844,-0.004 -0.012058,-0.01 -0.00362,-0.006 -0.00362,-0.0133 v -1.40473 H 7.2144434 q -0.00965,0 -0.016881,-0.004 -0.00603,-0.005 -0.010852,-0.0121 -0.00482,-0.008 -0.00723,-0.0205 -0.00241,-0.0121 -0.00241,-0.0277 0,-0.0169 0.00241,-0.0289 0.00241,-0.0133 0.00723,-0.0217 0.00482,-0.008 0.010852,-0.0121 0.00723,-0.005 0.016881,-0.005 h 1.0779684 q 0.00844,0 0.015675,0.005 0.00723,0.004 0.012058,0.0121 0.00482,0.008 0.00723,0.0217 0.00241,0.0121 0.00241,0.0289 z"
         style="font-weight:300;-inkscape-font-specification:'Calibri Light'"
         id="path858" />
    </g>
    <g
       aria-label="SORT"
       id="text8544-7-1"
       style="font-size:2.82222px;line-height:1.25;font-family:Calibri;-inkscape-font-specification:Calibri;text-align:center;text-anchor:middle;stroke-width:0.264583">
      <path
         d="m 4.1601214,18.309135 q 0,0.125401 -0.046853,0.223242 -0.045475,0.09784 -0.1281574,0.166742 -0.081304,0.06752 -0.1929252,0.101975 -0.110243,0.03445 -0.2384005,0.03445 -0.089572,0 -0.1667425,-0.01516 -0.075792,-0.01516 -0.1364256,-0.03721 -0.059256,-0.02205 -0.1005968,-0.04548 -0.039963,-0.02343 -0.056499,-0.03996 -0.015158,-0.01654 -0.023427,-0.04134 -0.00689,-0.02618 -0.00689,-0.0689 0,-0.03032 0.00276,-0.04961 0.00276,-0.02067 0.00827,-0.03307 0.00551,-0.0124 0.01378,-0.01654 0.00827,-0.0055 0.019293,-0.0055 0.019292,0 0.053743,0.02343 0.035829,0.02343 0.09095,0.05099 0.055121,0.02756 0.1322916,0.05236 0.078548,0.02343 0.1805228,0.02343 0.07717,0 0.1405598,-0.02067 0.064768,-0.02067 0.110243,-0.05788 0.046853,-0.03859 0.071658,-0.09371 0.024805,-0.05512 0.024805,-0.125401 0,-0.07579 -0.034451,-0.129536 -0.034451,-0.05374 -0.09095,-0.09371 -0.056499,-0.04134 -0.1295355,-0.07441 -0.071658,-0.03445 -0.14745,-0.0689 -0.075792,-0.03583 -0.1474499,-0.07855 -0.071658,-0.04272 -0.1281575,-0.100597 -0.056499,-0.05788 -0.092328,-0.135048 -0.034451,-0.07855 -0.034451,-0.187413 0,-0.111621 0.039963,-0.198437 0.041341,-0.08819 0.112999,-0.14745 0.073036,-0.05926 0.1722547,-0.08957 Q 3.5331145,17 3.6488696,17 q 0.059256,0 0.1185112,0.01102 0.060634,0.0096 0.112999,0.02756 0.053743,0.01654 0.095085,0.03858 0.041341,0.02067 0.053743,0.03445 0.01378,0.0124 0.017914,0.02067 0.00413,0.0069 0.00689,0.01929 0.00276,0.01102 0.00413,0.02756 0.00138,0.01654 0.00138,0.04272 0,0.0248 -0.00276,0.0441 -0.00138,0.01929 -0.00551,0.03307 -0.00413,0.0124 -0.012402,0.01929 -0.00689,0.0055 -0.016536,0.0055 -0.015159,0 -0.048231,-0.01929 -0.031695,-0.01929 -0.078548,-0.04272 -0.046853,-0.02481 -0.111621,-0.0441 -0.06339,-0.02067 -0.1433158,-0.02067 -0.074414,0 -0.1295355,0.02067 -0.055122,0.01929 -0.090951,0.05237 -0.035829,0.03307 -0.053743,0.07855 -0.017915,0.04547 -0.017915,0.09646 0,0.07441 0.034451,0.128157 0.034451,0.05374 0.090951,0.09509 0.057878,0.04134 0.1309135,0.07579 0.073036,0.03445 0.148828,0.07028 0.075792,0.03445 0.148828,0.07717 0.073036,0.04134 0.1295355,0.09922 0.057878,0.0565 0.092328,0.135048 0.035829,0.07717 0.035829,0.183279 z"
         id="path841" />
      <path
         d="m 5.9929107,17.897102 q 0,0.216352 -0.050987,0.389984 -0.050987,0.173633 -0.1529622,0.296278 -0.1005967,0.121268 -0.2535588,0.187413 -0.1529621,0.06477 -0.3569116,0.06477 -0.2011935,0 -0.3486434,-0.05926 -0.146072,-0.06063 -0.2425346,-0.175011 -0.095085,-0.114377 -0.1419378,-0.283876 -0.046853,-0.169498 -0.046853,-0.389984 0,-0.21084 0.050987,-0.383095 Q 4.5004965,17.37207 4.6024712,17.25218 4.704446,17.130913 4.8574081,17.066145 5.0103702,17 5.2143197,17 q 0.1970593,0 0.3431313,0.05926 0.1460719,0.05926 0.2425345,0.173633 0.097841,0.112999 0.1446939,0.281119 0.048231,0.166743 0.048231,0.383095 z m -0.2494247,0.01654 q 0,-0.151584 -0.027561,-0.281119 -0.026183,-0.130914 -0.089573,-0.225998 -0.062012,-0.09646 -0.1667425,-0.150206 -0.1047308,-0.05374 -0.2590709,-0.05374 -0.1543402,0 -0.259071,0.05788 -0.1047308,0.05788 -0.1708766,0.15434 -0.064768,0.09646 -0.093707,0.225998 -0.027561,0.128157 -0.027561,0.270095 0,0.157096 0.026183,0.289388 0.026183,0.132292 0.088194,0.228754 0.062012,0.09509 0.1653644,0.148828 0.1047309,0.05237 0.2618271,0.05237 0.1557182,0 0.2618271,-0.05788 0.1061088,-0.05788 0.1708766,-0.155718 0.064768,-0.09922 0.092329,-0.228754 0.027561,-0.129536 0.027561,-0.27423 z"
         id="path843" />
      <path
         d="m 7.556983,18.773533 q 0,0.01103 -0.00413,0.01929 -0.00413,0.0083 -0.017914,0.01378 -0.01378,0.0055 -0.038585,0.0083 -0.024805,0.0028 -0.066146,0.0028 -0.035829,0 -0.059256,-0.0028 -0.022049,-0.0028 -0.035829,-0.0083 -0.01378,-0.0069 -0.022049,-0.01791 -0.00689,-0.01102 -0.012402,-0.02756 L 7.1366817,18.34083 q -0.028939,-0.07166 -0.060634,-0.130914 -0.030317,-0.06063 -0.073036,-0.103353 -0.042719,-0.0441 -0.1005967,-0.06752 -0.057878,-0.02481 -0.1391818,-0.02481 H 6.6047593 v 0.759298 q 0,0.01103 -0.00689,0.01929 -0.00551,0.0083 -0.019292,0.01378 -0.012402,0.0041 -0.035829,0.0069 -0.022049,0.0041 -0.0565,0.0041 -0.034451,0 -0.057878,-0.0041 -0.022049,-0.0028 -0.035829,-0.0069 -0.01378,-0.0055 -0.019293,-0.01378 -0.00551,-0.0083 -0.00551,-0.01929 v -1.650888 q 0,-0.05374 0.027561,-0.07441 0.028939,-0.02205 0.060634,-0.02205 h 0.3789602 q 0.067524,0 0.111621,0.0041 0.045475,0.0028 0.081304,0.0069 0.1033528,0.01791 0.1819009,0.0565 0.079926,0.03858 0.1336696,0.09784 0.053744,0.05926 0.079926,0.136425 0.027561,0.07579 0.027561,0.168121 0,0.08957 -0.024805,0.16123 -0.023427,0.07028 -0.068902,0.125402 -0.045475,0.05374 -0.1088649,0.09371 -0.06339,0.03996 -0.1419378,0.06752 0.044097,0.01929 0.079926,0.04961 0.035829,0.02894 0.066146,0.07028 0.031695,0.04134 0.059256,0.09509 0.027561,0.05374 0.055122,0.121267 l 0.1598523,0.392741 q 0.019292,0.04961 0.024805,0.07028 0.00551,0.01929 0.00551,0.03032 z M 7.2000714,17.520898 q 0,-0.104731 -0.046853,-0.176389 -0.046853,-0.07304 -0.1570962,-0.104731 -0.034451,-0.0096 -0.078548,-0.01378 -0.042719,-0.0041 -0.1129991,-0.0041 H 6.6047593 v 0.600824 h 0.2315103 q 0.093707,0 0.1612303,-0.02205 0.068902,-0.02343 0.1143771,-0.06339 0.045475,-0.04134 0.066146,-0.09646 0.022049,-0.05512 0.022049,-0.119889 z"
         id="path845" />
      <path
         d="m 8.9901416,17.128157 q 0,0.02618 -0.00276,0.04547 -0.00276,0.01929 -0.00965,0.03169 -0.00551,0.01102 -0.015158,0.01654 -0.00827,0.0055 -0.019293,0.0055 H 8.4416828 v 1.546157 q 0,0.01103 -0.00551,0.01929 -0.00551,0.0083 -0.019293,0.01378 -0.01378,0.0041 -0.037207,0.0069 -0.022049,0.0041 -0.056499,0.0041 -0.033073,0 -0.0565,-0.0041 -0.023427,-0.0028 -0.037207,-0.0069 -0.01378,-0.0055 -0.019293,-0.01378 -0.00551,-0.0083 -0.00551,-0.01929 V 17.227376 H 7.7030549 q -0.011024,0 -0.020671,-0.0055 -0.00827,-0.0055 -0.01378,-0.01654 -0.00551,-0.0124 -0.00965,-0.03169 -0.00276,-0.01929 -0.00276,-0.04547 0,-0.02618 0.00276,-0.04548 0.00413,-0.02067 0.00965,-0.03307 0.00551,-0.0124 0.01378,-0.01791 0.00965,-0.0055 0.020671,-0.0055 h 1.2402334 q 0.011024,0 0.019293,0.0055 0.00965,0.0055 0.015158,0.01791 0.00689,0.0124 0.00965,0.03307 0.00276,0.01929 0.00276,0.04548 z"
         id="path847" />
    </g>
    <g
       aria-label="OUT"
       id="text8544-7-1-9"
       style="font-size:2.82222px;line-height:1.25;font-family:Calibri;-inkscape-font-specification:Calibri;text-align:center;text-anchor:middle;fill:#ffffff;stroke-width:0.264583">
      <path
         d="m 6.6484713,115.8971 q 0,0.21635 -0.050987,0.38998 -0.050987,0.17363 -0.1529622,0.29628 -0.1005967,0.12127 -0.2535588,0.18741 -0.1529621,0.0648 -0.3569116,0.0648 -0.2011934,0 -0.3486434,-0.0593 -0.146072,-0.0606 -0.2425346,-0.17501 -0.095084,-0.11437 -0.1419378,-0.28387 -0.046853,-0.1695 -0.046853,-0.38999 0,-0.21084 0.050987,-0.38309 0.050987,-0.17226 0.1529621,-0.29215 0.1019748,-0.12126 0.2549369,-0.18603 0.1529621,-0.0662 0.3569116,-0.0662 0.1970594,0 0.3431313,0.0593 0.1460719,0.0593 0.2425345,0.17363 0.097841,0.113 0.1446939,0.28112 0.048231,0.16674 0.048231,0.3831 z m -0.2494247,0.0165 q 0,-0.15158 -0.027561,-0.28112 -0.026183,-0.13091 -0.089572,-0.226 -0.062012,-0.0965 -0.1667425,-0.1502 -0.1047309,-0.0537 -0.259071,-0.0537 -0.1543402,0 -0.259071,0.0579 -0.1047308,0.0579 -0.1708766,0.15434 -0.064768,0.0965 -0.093707,0.226 -0.027561,0.12816 -0.027561,0.2701 0,0.15709 0.026183,0.28938 0.026183,0.1323 0.088194,0.22876 0.062012,0.0951 0.1653645,0.14883 0.1047308,0.0524 0.261827,0.0524 0.1557182,0 0.2618271,-0.0579 0.1061088,-0.0579 0.1708766,-0.15571 0.064768,-0.0992 0.092328,-0.22876 0.027561,-0.12953 0.027561,-0.27423 z"
         id="path834" />
      <path
         d="m 8.3641276,116.15065 q 0,0.16261 -0.048231,0.29077 -0.046853,0.12678 -0.1350477,0.21497 -0.088194,0.0882 -0.2149738,0.13367 -0.1267794,0.0455 -0.2880097,0.0455 -0.14745,0 -0.2687173,-0.0427 -0.1212672,-0.0427 -0.2080836,-0.1254 -0.086816,-0.0841 -0.1336696,-0.20946 -0.046853,-0.1254 -0.046853,-0.28939 v -1.10656 q 0,-0.011 0.00551,-0.0193 0.00551,-0.008 0.019293,-0.0124 0.01378,-0.006 0.035829,-0.008 0.022049,-0.004 0.057878,-0.004 0.033073,0 0.056499,0.004 0.023427,0.003 0.035829,0.008 0.01378,0.004 0.019293,0.0124 0.00551,0.008 0.00551,0.0193 v 1.07762 q 0,0.12402 0.030317,0.21635 0.030317,0.0923 0.086816,0.15434 0.057878,0.0606 0.1378037,0.0923 0.081304,0.0303 0.1819009,0.0303 0.1033528,0 0.1832789,-0.0303 0.081304,-0.0303 0.1364257,-0.0909 0.056499,-0.0606 0.085438,-0.15021 0.030317,-0.0896 0.030317,-0.20946 v -1.09002 q 0,-0.011 0.00551,-0.0193 0.00551,-0.008 0.019293,-0.0124 0.01378,-0.006 0.035829,-0.008 0.023427,-0.004 0.057878,-0.004 0.033073,0 0.055122,0.004 0.023427,0.003 0.035829,0.008 0.01378,0.004 0.019293,0.0124 0.00689,0.008 0.00689,0.0193 z"
         id="path836" />
      <path
         d="m 9.9516264,115.12815 q 0,0.0262 -0.00276,0.0455 -0.00276,0.0193 -0.00965,0.0317 -0.00551,0.011 -0.015159,0.0165 -0.00827,0.006 -0.019293,0.006 H 9.4031676 v 1.54616 q 0,0.011 -0.00551,0.0193 -0.00551,0.008 -0.019293,0.0138 -0.01378,0.004 -0.037207,0.007 -0.022049,0.004 -0.0565,0.004 -0.033073,0 -0.056499,-0.004 -0.023427,-0.003 -0.037207,-0.007 -0.01378,-0.006 -0.019292,-0.0138 -0.00551,-0.008 -0.00551,-0.0193 v -1.54616 H 8.6645397 q -0.011024,0 -0.020671,-0.006 -0.00827,-0.006 -0.01378,-0.0165 -0.00551,-0.0124 -0.00965,-0.0317 -0.00276,-0.0193 -0.00276,-0.0455 0,-0.0262 0.00276,-0.0455 0.00413,-0.0207 0.00965,-0.0331 0.00551,-0.0124 0.01378,-0.0179 0.00965,-0.006 0.020671,-0.006 h 1.2402334 q 0.011024,0 0.019293,0.006 0.00965,0.006 0.015159,0.0179 0.00689,0.0124 0.00965,0.0331 0.00276,0.0193 0.00276,0.0455 z"
         id="path838" />
    </g>
  </g>
</svg>
