<?xml version="1.0" encoding="UTF-8" standalone="no"?>
<!-- Created with Inkscape (http://www.inkscape.org/) -->

<svg
   width="15.24mm"
   height="128.5mm"
   viewBox="0 0 15.24 128.5"
   version="1.1"
   id="svg5"
   inkscape:version="1.1.2 (b8e25be833, 2022-02-05)"
   sodipodi:docname="Split.svg"
   xmlns:inkscape="http://www.inkscape.org/namespaces/inkscape"
   xmlns:sodipodi="http://sodipodi.sourceforge.net/DTD/sodipodi-0.dtd"
   xmlns="http://www.w3.org/2000/svg"
   xmlns:svg="http://www.w3.org/2000/svg">
  <sodipodi:namedview
     id="namedview7"
     pagecolor="#ffffff"
     bordercolor="#666666"
     borderopacity="1.0"
     inkscape:pageshadow="2"
     inkscape:pageopacity="0.0"
     inkscape:pagecheckerboard="0"
     inkscape:document-units="mm"
     showgrid="false"
     height="128.5mm"
     inkscape:zoom="5.2291721"
     inkscape:cx="-20.270895"
     inkscape:cy="132.71699"
     inkscape:window-width="3840"
     inkscape:window-height="2054"
     inkscape:window-x="-11"
     inkscape:window-y="-11"
     inkscape:window-maximized="1"
     inkscape:current-layer="layer1"
     inkscape:showpageshadow="2"
     inkscape:deskcolor="#d1d1d1" />
  <defs
     id="defs2" />
  <g
     inkscape:label="Layer 1"
     inkscape:groupmode="layer"
     id="layer1">
    <path
       id="rect4302"
       style="fill:#111111;stroke-width:0.184931"
       d="M -0.00163784,1.6577559e-8 H 15.242541 V 128.50433 H -0.00163784 Z" />
    <path
       id="rect10313-6"
       style="fill:#555555;stroke:#555555;stroke-width:0.1"
       d="M 3.1199998,21 H 12.12 c 0.831,0 1.5,0.669 1.5,1.5 v 94 c 0,0.831 -0.669,1.5 -1.5,1.5 H 3.1199998 C 2.2889999,118 1.62,117.331 1.62,116.5 v -94 C 1.62,21.669 2.2889999,21 3.1199998,21 Z" />
    <path
       id="rect10313"
       style="fill:#AAAAAA;fill-opacity:0.99;stroke:#AAAAAA;stroke-width:0.1"
       d="m 3.0805384,6 h 9.0000006 c 0.831,0 1.5,0.6689998 1.5,1.4999995 V 18.5 c 0,0.830999 -0.669,1.499999 -1.5,1.499999 H 3.0805384 c -0.8309999,0 -1.4999998,-0.669 -1.4999998,-1.499999 V 7.4999995 C 1.5805386,6.6689998 2.2495385,6 3.0805384,6 Z" />
    <path
       d="m 4.3017942,121.95957 q 0,0.1881 -0.07028,0.33486 -0.068213,0.14676 -0.1922362,0.25011 -0.1219562,0.10129 -0.2893877,0.15297 -0.1653645,0.0517 -0.3576006,0.0517 -0.1343587,0 -0.2501138,-0.0227 -0.113688,-0.0227 -0.2046385,-0.0558 -0.088883,-0.0331 -0.150895,-0.0682 -0.059945,-0.0351 -0.084749,-0.0599 -0.022738,-0.0248 -0.03514,-0.062 -0.010335,-0.0393 -0.010335,-0.10335 0,-0.0455 0.00413,-0.0744 0.00413,-0.031 0.012402,-0.0496 0.00827,-0.0186 0.020671,-0.0248 0.012402,-0.008 0.028939,-0.008 0.028939,0 0.080615,0.0351 0.053744,0.0351 0.1364257,0.0765 0.082682,0.0413 0.1984373,0.0785 0.1178222,0.0351 0.2707843,0.0351 0.1157551,0 0.2108397,-0.031 0.097152,-0.031 0.1653644,-0.0868 0.07028,-0.0579 0.1074869,-0.14056 0.037207,-0.0827 0.037207,-0.1881 0,-0.11369 -0.051676,-0.1943 -0.051676,-0.0806 -0.1364257,-0.14056 -0.084749,-0.062 -0.1943032,-0.11162 -0.1074869,-0.0517 -0.2211749,-0.10336 -0.1136881,-0.0537 -0.221175,-0.11782 -0.1074869,-0.0641 -0.1922361,-0.15089 -0.084749,-0.0868 -0.1384928,-0.20258 -0.051676,-0.11782 -0.051676,-0.28111 0,-0.16744 0.059945,-0.29766 0.062012,-0.13229 0.1694985,-0.22118 0.109554,-0.0889 0.258382,-0.13435 0.150895,-0.0476 0.3245277,-0.0476 0.088883,0 0.1777668,0.0165 0.09095,0.0145 0.1694985,0.0413 0.080615,0.0248 0.1426269,0.0579 0.062012,0.031 0.080615,0.0517 0.020671,0.0186 0.026872,0.031 0.0062,0.0103 0.010335,0.0289 0.00413,0.0165 0.0062,0.0413 0.00207,0.0248 0.00207,0.0641 0,0.0372 -0.00413,0.0662 -0.00207,0.0289 -0.00827,0.0496 -0.0062,0.0186 -0.018604,0.0289 -0.010335,0.008 -0.024805,0.008 -0.022738,0 -0.072347,-0.0289 -0.047542,-0.0289 -0.1178222,-0.0641 -0.07028,-0.0372 -0.1674315,-0.0661 -0.095085,-0.031 -0.2149737,-0.031 -0.111621,0 -0.1943033,0.031 -0.082682,0.0289 -0.1364256,0.0785 -0.053743,0.0496 -0.080615,0.11782 -0.026872,0.0682 -0.026872,0.14469 0,0.11162 0.051676,0.19224 0.051676,0.0806 0.1364256,0.14263 0.086816,0.062 0.1963703,0.11368 0.109554,0.0517 0.223242,0.10542 0.1136881,0.0517 0.223242,0.11576 0.109554,0.062 0.1943032,0.14883 0.086816,0.0847 0.1384928,0.20257 0.053743,0.11575 0.053743,0.27492 z m 2.4163878,-1.14102 q 0,0.20051 -0.066146,0.36174 -0.066146,0.16123 -0.1901691,0.27491 -0.1219563,0.11369 -0.3017901,0.1757 -0.1777668,0.062 -0.4258135,0.062 H 5.4304064 v 0.96324 q 0,0.0165 -0.010335,0.0289 -0.00827,0.0124 -0.028939,0.0207 -0.018603,0.006 -0.053743,0.0103 -0.033073,0.006 -0.084749,0.006 -0.051676,0 -0.086816,-0.006 -0.033073,-0.004 -0.053743,-0.0103 -0.020671,-0.008 -0.028939,-0.0207 -0.00827,-0.0124 -0.00827,-0.0289 v -2.46806 q 0,-0.0827 0.043408,-0.11782 0.043408,-0.0351 0.097152,-0.0351 H 5.788007 q 0.086816,0 0.1653644,0.008 0.080615,0.006 0.1881021,0.031 0.1095539,0.0227 0.2211749,0.0889 0.1136881,0.0641 0.1922362,0.15916 0.078548,0.0951 0.1198892,0.22117 0.043408,0.12403 0.043408,0.27492 z m -0.3741371,0.0289 q 0,-0.1633 -0.062012,-0.27285 -0.059945,-0.10955 -0.1508951,-0.1633 -0.088883,-0.0537 -0.186035,-0.0682 -0.095085,-0.0145 -0.186035,-0.0145 H 5.4304064 v 1.0728 H 5.7508 q 0.1612303,0 0.2666502,-0.0413 0.1074868,-0.0413 0.1798338,-0.11369 0.072347,-0.0744 0.1095539,-0.1757 0.037207,-0.10335 0.037207,-0.22324 z m 2.56935,1.70739 q 0,0.0413 -0.00413,0.0703 -0.00413,0.0269 -0.014469,0.0475 -0.00827,0.0186 -0.022738,0.0289 -0.012402,0.008 -0.031006,0.008 H 7.6586922 q -0.047542,0 -0.09095,-0.031 -0.041341,-0.0331 -0.041341,-0.11369 v -2.47633 q 0,-0.0165 0.00827,-0.0289 0.00827,-0.0124 0.028939,-0.0186 0.02067,-0.008 0.05581,-0.0124 0.03514,-0.006 0.084749,-0.006 0.051676,0 0.084749,0.006 0.03514,0.004 0.055811,0.0124 0.020671,0.006 0.028939,0.0186 0.00827,0.0124 0.00827,0.0289 v 2.31304 H 8.841048 q 0.018603,0 0.031006,0.0103 0.014469,0.008 0.022738,0.0269 0.010335,0.0165 0.014469,0.0455 0.00413,0.0289 0.00413,0.0703 z m 1.012857,0.10128 q 0,0.0165 -0.00827,0.0289 -0.00827,0.0124 -0.028939,0.0207 -0.02067,0.006 -0.05581,0.0103 -0.033073,0.006 -0.084749,0.006 -0.049609,0 -0.084749,-0.006 -0.03514,-0.004 -0.055811,-0.0103 -0.020671,-0.008 -0.028939,-0.0207 -0.00827,-0.0124 -0.00827,-0.0289 v -2.56728 q 0,-0.0165 0.00827,-0.0289 0.010335,-0.0124 0.031006,-0.0186 0.022738,-0.008 0.05581,-0.0124 0.03514,-0.006 0.082682,-0.006 0.051676,0 0.084749,0.006 0.03514,0.004 0.05581,0.0124 0.020671,0.006 0.028939,0.0186 0.00827,0.0124 0.00827,0.0289 z m 2.6520321,-2.46806 q 0,0.0393 -0.0041,0.0682 -0.0041,0.0289 -0.01447,0.0475 -0.0083,0.0165 -0.02274,0.0248 -0.0124,0.008 -0.02894,0.008 h -0.752408 v 2.31923 q 0,0.0165 -0.0083,0.0289 -0.0083,0.0124 -0.02894,0.0207 -0.02067,0.006 -0.05581,0.0103 -0.03307,0.006 -0.08475,0.006 -0.04961,0 -0.08475,-0.006 -0.03514,-0.004 -0.05581,-0.0103 -0.02067,-0.008 -0.02894,-0.0207 -0.0083,-0.0124 -0.0083,-0.0289 v -2.31923 h -0.752409 q -0.01654,0 -0.031,-0.008 -0.0124,-0.008 -0.02067,-0.0248 -0.0083,-0.0186 -0.01447,-0.0475 -0.0041,-0.0289 -0.0041,-0.0682 0,-0.0393 0.0041,-0.0682 0.0062,-0.031 0.01447,-0.0496 0.0083,-0.0186 0.02067,-0.0269 0.01447,-0.008 0.031,-0.008 h 1.86035 q 0.01654,0 0.02894,0.008 0.01447,0.008 0.02274,0.0269 0.01034,0.0186 0.01447,0.0496 0.0041,0.0289 0.0041,0.0682 z"
       id="text8544-7-0-8-5"
       style="font-size:4.23333px;line-height:1.25;font-family:Calibri;-inkscape-font-specification:Calibri;text-align:center;letter-spacing:0.264583px;text-anchor:middle;fill:#ffffff;stroke-width:0.264583"
       aria-label="SPLIT" />
    <path
       style="font-weight:300;font-size:2.46944px;line-height:1.25;font-family:Calibri;-inkscape-font-specification:'Calibri Light';text-align:center;text-anchor:middle;fill:#ffffff;stroke-width:0.264583"
       d="m 3.6670348,125.36831 q 0,0.0145 -0.00362,0.0277 -0.00241,0.0121 -0.00844,0.0217 -0.00482,0.008 -0.013264,0.0133 -0.00844,0.005 -0.019293,0.005 H 2.7795798 q -0.010852,0 -0.020498,-0.004 -0.00965,-0.004 -0.016881,-0.0109 -0.00723,-0.008 -0.010852,-0.0217 -0.00362,-0.0133 -0.00362,-0.0314 0,-0.0157 0.00121,-0.0277 0.00121,-0.0121 0.00482,-0.0217 0.00362,-0.01 0.00965,-0.0193 0.00603,-0.01 0.015675,-0.0205 l 0.319532,-0.33762 q 0.1193724,-0.1254 0.1893077,-0.22428 0.071141,-0.0989 0.1085203,-0.17845 0.037379,-0.0796 0.048231,-0.1447 0.012058,-0.0651 0.012058,-0.12299 0,-0.0579 -0.019293,-0.10972 -0.018087,-0.0531 -0.05426,-0.0916 -0.036173,-0.0398 -0.090434,-0.0627 -0.053054,-0.0241 -0.1229897,-0.0241 -0.075964,0 -0.1362533,0.0217 -0.060289,0.0205 -0.1061087,0.047 -0.044614,0.0253 -0.074758,0.047 -0.030145,0.0205 -0.044614,0.0205 -0.00723,0 -0.013263,-0.004 -0.00603,-0.004 -0.010852,-0.0109 -0.00362,-0.008 -0.00603,-0.0205 -0.00121,-0.0121 -0.00121,-0.0277 0,-0.0145 0.00121,-0.0241 0.00121,-0.01 0.00362,-0.0169 0.00241,-0.008 0.00603,-0.0157 0.00482,-0.007 0.018087,-0.0193 0.014469,-0.0121 0.047026,-0.0326 0.033762,-0.0205 0.084405,-0.041 0.050643,-0.0217 0.1121377,-0.0362 0.061495,-0.0157 0.1278128,-0.0157 0.1097261,0 0.1905134,0.0326 0.081993,0.0326 0.1362533,0.088 0.05426,0.0555 0.080787,0.12901 0.026527,0.0724 0.026527,0.15314 0,0.0748 -0.013264,0.14952 -0.012058,0.0736 -0.05426,0.16157 -0.040997,0.0868 -0.1205781,0.19293 -0.078376,0.1061 -0.209806,0.24477 l -0.2845643,0.29783 h 0.7138225 q 0.00965,0 0.018087,0.005 0.00844,0.004 0.014469,0.0121 0.00603,0.008 0.00844,0.0205 0.00362,0.0121 0.00362,0.0265 z m 1.7266787,0 q 0,0.0169 -0.00241,0.0289 -0.00241,0.0121 -0.00723,0.0217 -0.00482,0.008 -0.012058,0.0133 -0.00723,0.004 -0.016881,0.004 H 4.6786852 q -0.021704,0 -0.044614,-0.0157 -0.02291,-0.0169 -0.02291,-0.0603 v -1.4602 q 0,-0.007 0.00362,-0.0133 0.00362,-0.006 0.012058,-0.01 0.00844,-0.004 0.02291,-0.006 0.014469,-0.002 0.034968,-0.002 0.021704,0 0.034968,0.002 0.014469,0.002 0.02291,0.006 0.00844,0.004 0.012058,0.01 0.00362,0.006 0.00362,0.0133 v 1.40233 h 0.5968617 q 0.00965,0 0.016881,0.005 0.00723,0.004 0.012058,0.0121 0.00482,0.007 0.00723,0.0205 0.00241,0.0121 0.00241,0.0289 z m 0.3991137,0.0434 q 0,0.007 -0.00362,0.0133 -0.00362,0.006 -0.012058,0.01 -0.00844,0.004 -0.02291,0.006 -0.013264,0.002 -0.034968,0.002 -0.020498,0 -0.034968,-0.002 -0.014469,-0.002 -0.02291,-0.006 -0.00844,-0.004 -0.012058,-0.01 -0.00362,-0.006 -0.00362,-0.0133 v -1.51205 q 0,-0.007 0.00362,-0.0133 0.00482,-0.006 0.013264,-0.01 0.00965,-0.004 0.02291,-0.006 0.014469,-0.002 0.033762,-0.002 0.021704,0 0.034968,0.002 0.014469,0.002 0.02291,0.006 0.00844,0.004 0.012058,0.01 0.00362,0.006 0.00362,0.0133 z m 1.2455719,-1.46864 q 0,0.0157 -0.00241,0.0277 -0.00241,0.0121 -0.00844,0.0205 -0.00482,0.007 -0.012058,0.0121 -0.00723,0.004 -0.015675,0.004 H 6.3957177 v 0.59083 h 0.5727461 q 0.00844,0 0.015675,0.004 0.00723,0.002 0.012058,0.01 0.00603,0.007 0.00844,0.0193 0.00241,0.0121 0.00241,0.0302 0,0.0157 -0.00241,0.0277 -0.00241,0.0121 -0.00844,0.0205 -0.00482,0.007 -0.012058,0.0121 -0.00723,0.004 -0.015675,0.004 H 6.3957177 v 0.68729 q 0,0.007 -0.00362,0.0133 -0.00362,0.006 -0.012058,0.01 -0.00844,0.004 -0.02291,0.006 -0.013264,0.002 -0.034968,0.002 -0.020498,0 -0.034968,-0.002 -0.014469,-0.002 -0.02291,-0.006 -0.00844,-0.004 -0.012058,-0.01 -0.00362,-0.006 -0.00362,-0.0133 v -1.4602 q 0,-0.0434 0.02291,-0.0591 0.02291,-0.0169 0.044614,-0.0169 h 0.6836779 q 0.00844,0 0.015675,0.005 0.00723,0.004 0.012058,0.0121 0.00603,0.008 0.00844,0.0217 0.00241,0.0121 0.00241,0.0289 z m 1.2913919,0 q 0,0.0157 -0.00241,0.0277 -0.00241,0.0121 -0.00723,0.0205 -0.00482,0.007 -0.012058,0.0121 -0.00723,0.004 -0.015675,0.004 H 7.8269803 v 1.40473 q 0,0.007 -0.00362,0.0133 -0.00362,0.006 -0.012058,0.01 -0.00844,0.004 -0.02291,0.006 -0.014469,0.002 -0.034968,0.002 -0.020498,0 -0.034968,-0.002 -0.014469,-0.002 -0.02291,-0.006 -0.00844,-0.004 -0.012058,-0.01 -0.00362,-0.006 -0.00362,-0.0133 v -1.40473 H 7.2144434 q -0.00965,0 -0.016881,-0.004 -0.00603,-0.005 -0.010852,-0.0121 -0.00482,-0.008 -0.00723,-0.0205 -0.00241,-0.0121 -0.00241,-0.0277 0,-0.0169 0.00241,-0.0289 0.00241,-0.0133 0.00723,-0.0217 0.00482,-0.008 0.010852,-0.0121 0.00723,-0.005 0.016881,-0.005 h 1.0779684 q 0.00844,0 0.015675,0.005 0.00723,0.004 0.012058,0.0121 0.00482,0.008 0.00723,0.0217 0.00241,0.0121 0.00241,0.0289 z"
       id="text8544-7-0-8-5-9"
       aria-label="2 LIFT" />
    <path
       d="m 5.8856002,17.597596 q 0,0.145646 -0.048048,0.262763 -0.048048,0.117117 -0.1381383,0.1997 -0.088589,0.08258 -0.2192196,0.127628 -0.1291293,0.04504 -0.3093098,0.04504 H 4.9501633 v 0.699701 q 0,0.01201 -0.00751,0.02102 -0.00601,0.009 -0.021021,0.01501 -0.013514,0.0045 -0.039039,0.0075 -0.024024,0.0045 -0.061562,0.0045 -0.037538,0 -0.063063,-0.0045 -0.024024,-0.003 -0.039039,-0.0075 -0.015015,-0.006 -0.021021,-0.01501 -0.00601,-0.009 -0.00601,-0.02102 v -1.792796 q 0,-0.06006 0.031532,-0.08559 0.031531,-0.02553 0.070571,-0.02553 h 0.4159166 q 0.063063,0 0.1201203,0.006 0.058559,0.0045 0.1366369,0.02252 0.07958,0.01652 0.1606609,0.06456 0.082583,0.04655 0.1396398,0.115616 0.057057,0.06907 0.087087,0.160661 0.031531,0.09009 0.031531,0.1997 z m -0.2717722,0.02102 q 0,-0.118619 -0.045045,-0.198199 -0.043544,-0.07958 -0.1096098,-0.118619 -0.064565,-0.03904 -0.1351353,-0.04955 -0.069069,-0.01051 -0.1351353,-0.01051 H 4.9501633 v 0.779281 h 0.2327331 q 0.1171173,0 0.193694,-0.03003 0.078078,-0.03003 0.1306309,-0.08258 0.052553,-0.05405 0.07958,-0.127628 0.027027,-0.07507 0.027027,-0.162162 z m 2.294298,0.358859 q 0,0.235736 -0.055556,0.424926 -0.055556,0.189189 -0.1666669,0.322823 Q 7.5762936,18.857357 7.4096267,18.92943 7.2429597,19 7.0207372,19 6.8015176,19 6.6408567,18.935436 6.4816973,18.86937 6.376592,18.744745 6.2729883,18.62012 6.2219371,18.435435 6.170886,18.25075 6.170886,18.010509 q 0,-0.22973 0.055556,-0.417418 0.055556,-0.187688 0.166667,-0.318319 0.1111112,-0.132132 0.2777782,-0.202703 0.1666669,-0.07207 0.3888895,-0.07207 0.214715,0 0.3738744,0.06456 0.1591594,0.06457 0.2642647,0.189189 0.1066068,0.123124 0.1576579,0.306307 0.052553,0.181682 0.052553,0.417418 z m -0.2717722,0.01802 q 0,-0.165165 -0.03003,-0.306307 -0.028529,-0.142642 -0.097598,-0.246246 -0.067568,-0.105105 -0.1816819,-0.163664 -0.1141143,-0.05856 -0.2822828,-0.05856 -0.1681684,0 -0.2822827,0.06306 -0.1141143,0.06306 -0.1861865,0.168169 -0.070571,0.105105 -0.1021022,0.246247 -0.03003,0.139639 -0.03003,0.294294 0,0.171172 0.028529,0.315316 0.028529,0.144144 0.096096,0.24925 0.067568,0.103603 0.1801805,0.162162 0.1141143,0.05706 0.2852857,0.05706 0.1696699,0 0.2852857,-0.06306 0.1156158,-0.06306 0.1861865,-0.16967 0.070571,-0.108108 0.1006008,-0.249249 0.03003,-0.141142 0.03003,-0.2988 z m 1.6876904,0.863365 q 0,0.03003 -0.003,0.05105 -0.003,0.01952 -0.010511,0.03454 -0.00601,0.01351 -0.016517,0.02102 -0.00901,0.006 -0.022523,0.006 H 8.4126314 q -0.034535,0 -0.066066,-0.02252 -0.03003,-0.02402 -0.03003,-0.08258 v -1.798802 q 0,-0.01201 0.00601,-0.02102 0.00601,-0.009 0.021021,-0.01351 0.015015,-0.006 0.040541,-0.009 0.025526,-0.0045 0.061562,-0.0045 0.037538,0 0.061562,0.0045 0.025526,0.003 0.040541,0.009 0.015015,0.0045 0.021021,0.01351 0.00601,0.009 0.00601,0.02102 v 1.680183 h 0.6966978 q 0.013514,0 0.022523,0.0075 0.010511,0.006 0.016517,0.01952 0.00751,0.01201 0.010511,0.03303 0.003,0.02102 0.003,0.05105 z m 0.6546557,-0.642644 v 0.716218 q 0,0.01201 -0.00601,0.02102 -0.00601,0.009 -0.021021,0.01501 -0.015015,0.0045 -0.040541,0.0075 -0.025526,0.0045 -0.061562,0.0045 -0.037538,0 -0.063063,-0.0045 -0.024024,-0.003 -0.040541,-0.0075 -0.015015,-0.006 -0.021021,-0.01501 -0.00601,-0.009 -0.00601,-0.02102 V 18.216215 L 9.1693893,17.120118 q -0.016516,-0.03454 -0.021021,-0.05406 -0.003,-0.01952 0.00751,-0.03003 0.012012,-0.01051 0.040541,-0.01351 0.03003,-0.003 0.07958,-0.003 0.045045,0 0.072072,0.003 0.028529,0.003 0.045045,0.009 0.016516,0.0045 0.024024,0.01502 0.00901,0.009 0.016516,0.02402 l 0.2687692,0.558559 q 0.037538,0.07958 0.075075,0.166667 0.037538,0.08709 0.076577,0.175676 h 0.003 q 0.034535,-0.08559 0.070571,-0.16967 0.037538,-0.08559 0.075075,-0.168168 l 0.270271,-0.561563 q 0.0045,-0.01501 0.01201,-0.02552 0.009,-0.01051 0.02252,-0.01502 0.01501,-0.006 0.04054,-0.009 0.02553,-0.003 0.06456,-0.003 0.05405,0 0.08408,0.0045 0.03153,0.003 0.04354,0.01351 0.01201,0.01051 0.0075,0.03003 -0.003,0.01952 -0.01952,0.05255 z"
       id="text8544-7-1"
       style="font-size:3.07508px;line-height:1.25;font-family:Calibri;-inkscape-font-specification:Calibri;text-align:center;text-anchor:middle;fill:#020202;stroke-width:0.264583"
       aria-label="POLY" />
    <path
       d="m 6.6895191,115.97748 q 0,0.23573 -0.055556,0.42492 -0.055556,0.18919 -0.1666669,0.32283 -0.1096098,0.13213 -0.2762767,0.2042 Q 6.0243529,117 5.8021303,117 q -0.2192196,0 -0.3798805,-0.0646 -0.1591594,-0.0661 -0.2642647,-0.19069 -0.1036037,-0.12463 -0.1546549,-0.30931 -0.051051,-0.18469 -0.051051,-0.42493 0,-0.22973 0.055556,-0.41742 0.055556,-0.18768 0.166667,-0.31832 0.1111113,-0.13213 0.2777782,-0.2027 Q 5.6189468,115 5.8411694,115 q 0.214715,0 0.3738744,0.0646 0.1591595,0.0646 0.2642647,0.18919 0.1066068,0.12313 0.1576579,0.30631 0.052553,0.18168 0.052553,0.41742 z m -0.2717722,0.018 q 0,-0.16517 -0.03003,-0.30631 -0.028529,-0.14264 -0.097598,-0.24625 -0.067568,-0.1051 -0.1816819,-0.16366 -0.1141143,-0.0586 -0.2822828,-0.0586 -0.1681684,0 -0.2822827,0.0631 -0.1141143,0.0631 -0.1861865,0.16817 -0.070571,0.10511 -0.1021022,0.24625 -0.03003,0.13964 -0.03003,0.29429 0,0.17117 0.028529,0.31532 0.028529,0.14414 0.096096,0.24925 0.067568,0.1036 0.1801805,0.16216 0.1141143,0.0571 0.2852857,0.0571 0.16967,0 0.2852858,-0.0631 0.1156158,-0.0631 0.1861864,-0.16967 0.070571,-0.10811 0.1006008,-0.24925 0.03003,-0.14115 0.03003,-0.2988 z m 2.1411446,0.25825 q 0,0.17718 -0.052553,0.31682 -0.051051,0.13814 -0.1471474,0.23424 -0.096096,0.0961 -0.2342346,0.14564 Q 7.9868185,117 7.8111426,117 q -0.1606609,0 -0.2927933,-0.0465 -0.1321323,-0.0466 -0.2267271,-0.13664 -0.094595,-0.0916 -0.1456458,-0.22823 -0.051051,-0.13664 -0.051051,-0.31532 v -1.2057 q 0,-0.012 0.00601,-0.021 0.00601,-0.009 0.021021,-0.0135 0.015015,-0.006 0.039039,-0.009 0.024024,-0.004 0.063063,-0.004 0.036036,0 0.061562,0.004 0.025526,0.003 0.039039,0.009 0.015015,0.005 0.021021,0.0135 0.00601,0.009 0.00601,0.021 v 1.17417 q 0,0.13514 0.033033,0.23574 0.033033,0.1006 0.094595,0.16817 0.063063,0.0661 0.1501504,0.1006 0.088589,0.033 0.1981985,0.033 0.1126128,0 0.1997,-0.033 0.088589,-0.033 0.1486489,-0.0991 0.061562,-0.0661 0.093093,-0.16367 0.033033,-0.0976 0.033033,-0.22822 v -1.18769 q 0,-0.012 0.00601,-0.021 0.00601,-0.009 0.021021,-0.0135 0.015015,-0.006 0.039039,-0.009 0.025526,-0.004 0.063063,-0.004 0.036036,0 0.06006,0.004 0.025526,0.003 0.039039,0.009 0.015015,0.005 0.021021,0.0135 0.00751,0.009 0.00751,0.021 z m 1.7297325,-1.11411 q 0,0.0285 -0.003,0.0495 -0.003,0.021 -0.01051,0.0345 -0.006,0.012 -0.01652,0.018 -0.009,0.006 -0.02102,0.006 H 9.6910255 v 1.68468 q 0,0.012 -0.00601,0.021 -0.00601,0.009 -0.021021,0.015 -0.015015,0.005 -0.040541,0.008 -0.024024,0.004 -0.061562,0.004 -0.036036,0 -0.061562,-0.004 -0.025525,-0.003 -0.040541,-0.008 -0.015015,-0.006 -0.021021,-0.015 -0.00601,-0.009 -0.00601,-0.021 v -1.68468 H 8.8862195 q -0.012012,0 -0.022523,-0.006 -0.00901,-0.006 -0.015015,-0.018 -0.00601,-0.0135 -0.010511,-0.0345 -0.003,-0.021 -0.003,-0.0495 0,-0.0285 0.003,-0.0495 0.0045,-0.0225 0.010511,-0.036 0.00601,-0.0135 0.015015,-0.0195 0.01051,-0.006 0.022523,-0.006 h 1.3513535 q 0.01201,0 0.02102,0.006 0.01051,0.006 0.01652,0.0195 0.0075,0.0135 0.01051,0.036 0.003,0.021 0.003,0.0495 z"
       id="text8544-7-1-9"
       style="font-size:3.07508px;line-height:1.25;font-family:Calibri;-inkscape-font-specification:Calibri;text-align:center;text-anchor:middle;fill:#ffffff;stroke-width:0.264583"
       aria-label="OUT" />
  </g>
</svg>
