<?xml version="1.0" encoding="UTF-8" standalone="no"?>
<!-- Created with Inkscape (http://www.inkscape.org/) -->

<svg
   width="15.24mm"
   height="128.5mm"
   viewBox="0 0 15.24 128.5"
   version="1.1"
   id="svg5"
   inkscape:version="1.1.2 (b8e25be833, 2022-02-05)"
   sodipodi:docname="Steps.svg"
   xmlns:inkscape="http://www.inkscape.org/namespaces/inkscape"
   xmlns:sodipodi="http://sodipodi.sourceforge.net/DTD/sodipodi-0.dtd"
   xmlns="http://www.w3.org/2000/svg"
   xmlns:svg="http://www.w3.org/2000/svg">
  <sodipodi:namedview
     id="namedview7"
     pagecolor="#ffffff"
     bordercolor="#666666"
     borderopacity="1.0"
     inkscape:pageshadow="2"
     inkscape:pageopacity="0.0"
     inkscape:pagecheckerboard="0"
     inkscape:document-units="mm"
     showgrid="false"
     height="128.5mm"
     inkscape:zoom="3.4802131"
     inkscape:cx="-203.86683"
     inkscape:cy="215.93505"
     inkscape:window-width="3840"
     inkscape:window-height="2054"
     inkscape:window-x="-11"
     inkscape:window-y="-11"
     inkscape:window-maximized="0"
     inkscape:current-layer="layer1" />
  <defs
     id="defs2" />
  <g
     inkscape:label="Layer 1"
     inkscape:groupmode="layer"
     id="layer1">
    <path
       id="rect4302"
       style="fill:#111111;stroke-width:0.184931"
       d="M 0,1.6577559e-8 H 15.244179 V 128.50433 H 0 Z" />
    <path
       id="rect10313-6"
       style="fill:#555555;stroke-width:0.264582"
       d="M 3.1219997,101.5 H 12.122 c 0.831,0 1.5,0.669 1.5,1.5 v 13.5 c 0,0.831 -0.669,1.5 -1.5,1.5 H 3.1219997 C 2.2909999,118 1.622,117.331 1.622,116.5 V 103 c 0,-0.831 0.6689999,-1.5 1.4999997,-1.5 z" />
    <path
       id="rect1321"
       style="fill:#AAAAAA;stroke:#00a6a9;stroke-width:0"
       d="M 1.6220005,94 H 13.622 v 10 H 1.6220005 Z" />
    <path
       id="rect10313"
       style="fill:#AAAAAA;stroke-width:0.264582"
       d="M 3.1219997,6 H 12.122 c 0.831,0 1.5,0.6689998 1.5,1.4999995 V 99.999993 c 0,0.830997 -0.669,1.499997 -1.5,1.499997 H 3.1219997 C 2.2909999,101.49999 1.622,100.83099 1.622,99.999993 V 7.4999995 C 1.622,6.6689998 2.2909999,6 3.1219997,6 Z" />
    <path
       id="rect10313-4"
       style="fill:#AAAAAA;stroke-width:0.264583"
       d="m 3.1204513,136.22836 h 9.0000007 c 0.831,0 1.5,0.669 1.5,1.5 v 9.59748 c 0,0.831 -0.669,1.5 -1.5,1.5 H 3.1204513 c -0.8309998,0 -1.4999997,-0.669 -1.4999997,-1.5 v -9.59748 c 0,-0.831 0.6689999,-1.5 1.4999997,-1.5 z" />
    <g
       aria-label="STEPS"
       id="text8544-7-0-8-5"
       style="font-size:4.23333px;line-height:1.25;font-family:Calibri;-inkscape-font-specification:Calibri;text-align:center;letter-spacing:0px;text-anchor:middle;fill:#ffffff;stroke-width:0.264583">
      <path
         d="m 3.2094987,121.98644 q 0,0.17776 -0.064079,0.31832 -0.064079,0.14056 -0.1798338,0.23978 -0.1157551,0.0971 -0.2749184,0.14883 -0.1591633,0.0517 -0.3472653,0.0517 -0.1281575,0 -0.2418455,-0.0248 -0.1136881,-0.0227 -0.2025715,-0.0558 -0.088883,-0.0331 -0.150895,-0.0661 -0.059945,-0.0351 -0.082682,-0.0579 -0.022738,-0.0248 -0.033073,-0.0558 -0.010335,-0.0331 -0.010335,-0.0806 0,-0.0351 0.00413,-0.0579 0.00413,-0.0227 0.010335,-0.0372 0.00827,-0.0145 0.018603,-0.0186 0.012402,-0.006 0.024805,-0.006 0.028939,0 0.080615,0.0372 0.053744,0.0351 0.1364257,0.0786 0.084749,0.0413 0.2005044,0.0785 0.1178221,0.0351 0.2728513,0.0351 0.1260904,0 0.2315102,-0.0331 0.1054199,-0.0351 0.1819009,-0.0992 0.076481,-0.0641 0.1178222,-0.1571 0.043408,-0.0951 0.043408,-0.21497 0,-0.12403 -0.053743,-0.21291 -0.053743,-0.0889 -0.1426268,-0.15503 -0.086816,-0.0682 -0.1984374,-0.12196 -0.111621,-0.0558 -0.2294431,-0.10955 -0.1157551,-0.0558 -0.2273761,-0.11989 -0.111621,-0.0641 -0.2005044,-0.14883 -0.086816,-0.0868 -0.1405598,-0.20257 -0.053743,-0.11575 -0.053743,-0.27492 0,-0.15503 0.05581,-0.27698 0.05581,-0.12403 0.1570962,-0.20878 0.1012857,-0.0868 0.2418455,-0.13229 Q 2.2958601,120 2.4653587,120 q 0.084749,0 0.1715656,0.0165 0.086816,0.0165 0.1632974,0.0434 0.078548,0.0248 0.1384927,0.0579 0.062012,0.031 0.080615,0.0517 0.020671,0.0186 0.024805,0.0289 0.0062,0.008 0.010335,0.0227 0.00413,0.0145 0.0062,0.0351 0.00207,0.0186 0.00207,0.0475 0,0.0269 -0.00413,0.0496 -0.00207,0.0207 -0.00827,0.0372 -0.0062,0.0145 -0.016536,0.0227 -0.00827,0.008 -0.020671,0.008 -0.022738,0 -0.07028,-0.0289 -0.045475,-0.031 -0.1157551,-0.0682 -0.07028,-0.0372 -0.1674315,-0.0661 -0.097152,-0.031 -0.221175,-0.031 -0.1219562,0 -0.2129067,0.0331 -0.09095,0.0331 -0.150895,0.0909 -0.059945,0.0558 -0.09095,0.13229 -0.028939,0.0765 -0.028939,0.16123 0,0.12402 0.053744,0.21291 0.053743,0.0889 0.1426268,0.15709 0.088883,0.0682 0.2005044,0.12403 0.1136881,0.0537 0.2294432,0.10955 0.1178221,0.0537 0.2294431,0.11782 0.1136881,0.062 0.2025715,0.14883 0.088883,0.0847 0.1426268,0.2005 0.053743,0.11369 0.053743,0.27079 z"
         style="font-weight:300;-inkscape-font-specification:'Calibri Light'"
         id="path934" />
      <path
         d="m 5.3716388,120.15089 q 0,0.0269 -0.00413,0.0476 -0.00413,0.0207 -0.012402,0.0351 -0.00827,0.0124 -0.020671,0.0207 -0.012402,0.006 -0.026872,0.006 H 4.5096766 v 2.40812 q 0,0.0124 -0.0062,0.0227 -0.0062,0.0103 -0.020671,0.0165 -0.014469,0.006 -0.039274,0.0103 -0.024805,0.004 -0.059945,0.004 -0.03514,0 -0.059945,-0.004 -0.024805,-0.004 -0.039274,-0.0103 -0.014469,-0.006 -0.020671,-0.0165 -0.0062,-0.0103 -0.0062,-0.0227 v -2.40812 H 3.4596124 q -0.016536,0 -0.028939,-0.006 -0.010335,-0.008 -0.018603,-0.0207 -0.00827,-0.0145 -0.012402,-0.0351 -0.00413,-0.0207 -0.00413,-0.0476 0,-0.0289 0.00413,-0.0496 0.00413,-0.0227 0.012402,-0.0372 0.00827,-0.0145 0.018603,-0.0207 0.012402,-0.008 0.028939,-0.008 H 5.30756 q 0.014469,0 0.026872,0.008 0.012402,0.006 0.020671,0.0207 0.00827,0.0145 0.012402,0.0372 0.00413,0.0207 0.00413,0.0496 z"
         style="font-weight:300;-inkscape-font-specification:'Calibri Light'"
         id="path936" />
      <path
         d="m 7.2319888,122.59829 q 0,0.0269 -0.00413,0.0475 -0.00413,0.0207 -0.014469,0.0351 -0.00827,0.0145 -0.02067,0.0227 -0.012402,0.006 -0.026872,0.006 H 5.9132074 q -0.037207,0 -0.076481,-0.0269 -0.039274,-0.0289 -0.039274,-0.10336 v -2.41432 q 0,-0.0744 0.039274,-0.10128 0.039274,-0.0289 0.076481,-0.0289 h 1.2340321 q 0.014469,0 0.026872,0.008 0.012402,0.006 0.020671,0.0207 0.00827,0.0145 0.012402,0.0372 0.00413,0.0207 0.00413,0.0496 0,0.0269 -0.00413,0.0476 -0.00413,0.0207 -0.012402,0.0351 -0.00827,0.0124 -0.020671,0.0207 -0.012402,0.006 -0.026872,0.006 H 6.049633 v 0.94051 h 0.9467115 q 0.016536,0 0.028939,0.008 0.012402,0.006 0.020671,0.0207 0.00827,0.0124 0.012402,0.0351 0.00413,0.0207 0.00413,0.0496 0,0.0269 -0.00413,0.0475 -0.00413,0.0186 -0.012402,0.031 -0.00827,0.0124 -0.020671,0.0186 -0.012402,0.006 -0.028939,0.006 H 6.049633 v 1.0666 h 1.11621 q 0.014469,0 0.026872,0.008 0.012402,0.006 0.02067,0.0207 0.010335,0.0124 0.014469,0.0351 0.00413,0.0207 0.00413,0.0496 z"
         style="font-weight:300;-inkscape-font-specification:'Calibri Light'"
         id="path938" />
      <path
         d="m 9.4065314,120.80202 q 0,0.18603 -0.064079,0.34106 -0.062012,0.15503 -0.1798338,0.26665 -0.1178222,0.11162 -0.2873207,0.17363 -0.1694986,0.062 -0.409277,0.062 H 8.1187558 v 1.0232 q 0,0.0124 -0.0062,0.0227 -0.0062,0.0103 -0.020671,0.0165 -0.014469,0.006 -0.039274,0.0103 -0.022738,0.004 -0.059945,0.004 -0.03514,0 -0.059945,-0.004 -0.024805,-0.004 -0.039274,-0.0103 -0.014469,-0.006 -0.020671,-0.0165 -0.0062,-0.0103 -0.0062,-0.0227 v -2.50321 q 0,-0.0744 0.039274,-0.10128 0.039274,-0.0289 0.076481,-0.0289 h 0.5436356 q 0.080615,0 0.1570962,0.008 0.076481,0.006 0.1777668,0.031 0.1033527,0.0227 0.2087726,0.0889 0.1074869,0.0641 0.1819009,0.15916 0.074414,0.093 0.113688,0.21497 0.041341,0.11989 0.041341,0.26459 z m -0.2666501,0.0227 q 0,-0.17363 -0.068213,-0.29352 -0.068213,-0.12196 -0.1674315,-0.17983 -0.097152,-0.06 -0.2046385,-0.0744 -0.1054198,-0.0165 -0.2005044,-0.0165 H 8.1187558 v 1.16168 h 0.3638018 q 0.1756997,0 0.2935219,-0.0434 0.1178222,-0.0455 0.1984373,-0.12402 0.080615,-0.0785 0.1219563,-0.1881 0.043408,-0.11162 0.043408,-0.24185 z"
         style="font-weight:300;-inkscape-font-specification:'Calibri Light'"
         id="path940" />
      <path
         d="m 11.370234,121.98644 q 0,0.17776 -0.06408,0.31832 -0.06408,0.14056 -0.179834,0.23978 -0.115755,0.0971 -0.274918,0.14883 -0.159163,0.0517 -0.347265,0.0517 -0.128158,0 -0.241846,-0.0248 -0.113688,-0.0227 -0.202571,-0.0558 -0.088884,-0.0331 -0.1508955,-0.0661 -0.059945,-0.0351 -0.082682,-0.0579 -0.022738,-0.0248 -0.033073,-0.0558 -0.010335,-0.0331 -0.010335,-0.0806 0,-0.0351 0.00413,-0.0579 0.00413,-0.0227 0.010335,-0.0372 0.00827,-0.0145 0.018604,-0.0186 0.012402,-0.006 0.024805,-0.006 0.028939,0 0.080615,0.0372 0.053743,0.0351 0.1364261,0.0786 0.08475,0.0413 0.200504,0.0785 0.117822,0.0351 0.272851,0.0351 0.126091,0 0.23151,-0.0331 0.10542,-0.0351 0.181901,-0.0992 0.07648,-0.0641 0.117823,-0.1571 0.04341,-0.0951 0.04341,-0.21497 0,-0.12403 -0.05374,-0.21291 -0.05374,-0.0889 -0.142627,-0.15503 -0.08682,-0.0682 -0.198437,-0.12196 -0.111621,-0.0558 -0.229443,-0.10955 -0.115755,-0.0558 -0.227376,-0.11989 -0.111621,-0.0641 -0.200505,-0.14883 -0.086816,-0.0868 -0.1405594,-0.20257 -0.053743,-0.11575 -0.053743,-0.27492 0,-0.15503 0.05581,-0.27698 0.05581,-0.12403 0.1570963,-0.20878 0.101286,-0.0868 0.241845,-0.13229 Q 10.456595,120 10.626094,120 q 0.08475,0 0.171565,0.0165 0.08682,0.0165 0.163298,0.0434 0.07855,0.0248 0.138493,0.0579 0.06201,0.031 0.08062,0.0517 0.02067,0.0186 0.0248,0.0289 0.0062,0.008 0.01034,0.0227 0.0041,0.0145 0.0062,0.0351 0.0021,0.0186 0.0021,0.0475 0,0.0269 -0.0041,0.0496 -0.0021,0.0207 -0.0083,0.0372 -0.0062,0.0145 -0.01654,0.0227 -0.0083,0.008 -0.02067,0.008 -0.02274,0 -0.07028,-0.0289 -0.04548,-0.031 -0.115755,-0.0682 -0.07028,-0.0372 -0.167432,-0.0661 -0.09715,-0.031 -0.221175,-0.031 -0.121956,0 -0.212907,0.0331 -0.09095,0.0331 -0.150895,0.0909 -0.05994,0.0558 -0.09095,0.13229 -0.02894,0.0765 -0.02894,0.16123 0,0.12402 0.05374,0.21291 0.05374,0.0889 0.142626,0.15709 0.08888,0.0682 0.200505,0.12403 0.113688,0.0537 0.229443,0.10955 0.117822,0.0537 0.229443,0.11782 0.113688,0.062 0.202572,0.14883 0.08888,0.0847 0.142626,0.2005 0.05374,0.11369 0.05374,0.27079 z"
         style="font-weight:300;-inkscape-font-specification:'Calibri Light'"
         id="path942" />
    </g>
    <g
       aria-label="2 LIFT"
       id="text8544-7-0-8-5-9"
       style="font-size:2.46944px;line-height:1.25;font-family:Calibri;-inkscape-font-specification:Calibri;text-align:center;text-anchor:middle;fill:#ffffff;stroke-width:0.264583">
      <path
         d="m 2.5983669,125.36831 q 0,0.0145 -0.00362,0.0277 -0.00241,0.0121 -0.00844,0.0217 -0.00482,0.008 -0.013264,0.0133 -0.00844,0.005 -0.019293,0.005 H 1.7109119 q -0.010852,0 -0.020498,-0.004 -0.00965,-0.004 -0.016881,-0.0109 -0.00723,-0.008 -0.010852,-0.0217 -0.00362,-0.0133 -0.00362,-0.0314 0,-0.0157 0.00121,-0.0277 0.00121,-0.0121 0.00482,-0.0217 0.00362,-0.01 0.00965,-0.0193 0.00603,-0.01 0.015675,-0.0205 l 0.319532,-0.33762 q 0.1193724,-0.1254 0.1893077,-0.22428 0.071141,-0.0989 0.1085203,-0.17845 0.037379,-0.0796 0.048231,-0.1447 0.012058,-0.0651 0.012058,-0.12299 0,-0.0579 -0.019292,-0.10972 -0.018087,-0.0531 -0.05426,-0.0916 -0.036173,-0.0398 -0.090434,-0.0627 -0.053054,-0.0241 -0.1229897,-0.0241 -0.075964,0 -0.1362532,0.0217 -0.060289,0.0205 -0.1061088,0.047 -0.044614,0.0253 -0.074758,0.047 -0.030145,0.0205 -0.044614,0.0205 -0.00723,0 -0.013264,-0.004 -0.00603,-0.004 -0.010852,-0.0109 -0.00362,-0.008 -0.00603,-0.0205 -0.00121,-0.0121 -0.00121,-0.0277 0,-0.0145 0.00121,-0.0241 0.00121,-0.01 0.00362,-0.0169 0.00241,-0.008 0.00603,-0.0157 0.00482,-0.007 0.018087,-0.0193 0.014469,-0.0121 0.047026,-0.0326 0.033762,-0.0205 0.084405,-0.041 0.050643,-0.0217 0.1121376,-0.0362 0.061495,-0.0157 0.1278128,-0.0157 0.1097261,0 0.1905135,0.0326 0.081993,0.0326 0.1362532,0.088 0.05426,0.0555 0.080787,0.12901 0.026527,0.0724 0.026527,0.15314 0,0.0748 -0.013264,0.14952 -0.012058,0.0736 -0.05426,0.16157 -0.040997,0.0868 -0.1205781,0.19293 -0.078376,0.1061 -0.2098059,0.24477 l -0.2845644,0.29783 H 2.553753 q 0.00965,0 0.018087,0.005 0.00844,0.004 0.014469,0.0121 0.00603,0.008 0.00844,0.0205 0.00362,0.0121 0.00362,0.0265 z"
         style="font-weight:300;-inkscape-font-specification:'Calibri Light'"
         id="path923" />
      <path
         d="m 4.3250456,125.36831 q 0,0.0169 -0.00241,0.0289 -0.00241,0.0121 -0.00723,0.0217 -0.00482,0.008 -0.012058,0.0133 -0.00723,0.004 -0.016881,0.004 H 3.6100173 q -0.021704,0 -0.044614,-0.0157 -0.02291,-0.0169 -0.02291,-0.0603 v -1.4602 q 0,-0.007 0.00362,-0.0133 0.00362,-0.006 0.012058,-0.01 0.00844,-0.004 0.02291,-0.006 0.014469,-0.002 0.034968,-0.002 0.021704,0 0.034968,0.002 0.014469,0.002 0.02291,0.006 0.00844,0.004 0.012058,0.01 0.00362,0.006 0.00362,0.0133 v 1.40233 h 0.5968617 q 0.00965,0 0.016881,0.005 0.00723,0.004 0.012058,0.0121 0.00482,0.007 0.00723,0.0205 0.00241,0.0121 0.00241,0.0289 z"
         style="font-weight:300;-inkscape-font-specification:'Calibri Light'"
         id="path925" />
      <path
         d="m 4.7241593,125.41172 q 0,0.007 -0.00362,0.0133 -0.00362,0.006 -0.012058,0.01 -0.00844,0.004 -0.02291,0.006 -0.013264,0.002 -0.034968,0.002 -0.020498,0 -0.034968,-0.002 -0.014469,-0.002 -0.02291,-0.006 -0.00844,-0.004 -0.012058,-0.01 -0.00362,-0.006 -0.00362,-0.0133 v -1.51205 q 0,-0.007 0.00362,-0.0133 0.00482,-0.006 0.013264,-0.01 0.00965,-0.004 0.02291,-0.006 0.014469,-0.002 0.033762,-0.002 0.021704,0 0.034968,0.002 0.014469,0.002 0.02291,0.006 0.00844,0.004 0.012058,0.01 0.00362,0.006 0.00362,0.0133 z"
         style="font-weight:300;-inkscape-font-specification:'Calibri Light'"
         id="path927" />
      <path
         d="m 5.9697312,123.94308 q 0,0.0157 -0.00241,0.0277 -0.00241,0.0121 -0.00844,0.0205 -0.00482,0.007 -0.012058,0.0121 -0.00723,0.004 -0.015675,0.004 H 5.3270498 v 0.59083 h 0.5727461 q 0.00844,0 0.015675,0.004 0.00723,0.002 0.012058,0.01 0.00603,0.007 0.00844,0.0193 0.00241,0.0121 0.00241,0.0302 0,0.0157 -0.00241,0.0277 -0.00241,0.0121 -0.00844,0.0205 -0.00482,0.007 -0.012058,0.0121 -0.00723,0.004 -0.015675,0.004 H 5.3270498 v 0.68729 q 0,0.007 -0.00362,0.0133 -0.00362,0.006 -0.012058,0.01 -0.00844,0.004 -0.02291,0.006 -0.013264,0.002 -0.034968,0.002 -0.020498,0 -0.034968,-0.002 -0.014469,-0.002 -0.02291,-0.006 -0.00844,-0.004 -0.012058,-0.01 -0.00362,-0.006 -0.00362,-0.0133 v -1.4602 q 0,-0.0434 0.02291,-0.0591 0.02291,-0.0169 0.044614,-0.0169 h 0.6836779 q 0.00844,0 0.015675,0.005 0.00723,0.004 0.012058,0.0121 0.00603,0.008 0.00844,0.0217 0.00241,0.0121 0.00241,0.0289 z"
         style="font-weight:300;-inkscape-font-specification:'Calibri Light'"
         id="path929" />
      <path
         d="m 7.2611232,123.94308 q 0,0.0157 -0.00241,0.0277 -0.00241,0.0121 -0.00723,0.0205 -0.00482,0.007 -0.012058,0.0121 -0.00723,0.004 -0.015675,0.004 H 6.7583124 v 1.40473 q 0,0.007 -0.00362,0.0133 -0.00362,0.006 -0.012058,0.01 -0.00844,0.004 -0.02291,0.006 -0.014469,0.002 -0.034968,0.002 -0.020498,0 -0.034968,-0.002 -0.014469,-0.002 -0.02291,-0.006 -0.00844,-0.004 -0.012058,-0.01 -0.00362,-0.006 -0.00362,-0.0133 v -1.40473 H 6.1457755 q -0.00965,0 -0.016881,-0.004 -0.00603,-0.005 -0.010852,-0.0121 -0.00482,-0.008 -0.00723,-0.0205 -0.00241,-0.0121 -0.00241,-0.0277 0,-0.0169 0.00241,-0.0289 0.00241,-0.0133 0.00723,-0.0217 0.00482,-0.008 0.010852,-0.0121 0.00723,-0.005 0.016881,-0.005 h 1.0779684 q 0.00844,0 0.015675,0.005 0.00723,0.004 0.012058,0.0121 0.00482,0.008 0.00723,0.0217 0.00241,0.0121 0.00241,0.0289 z"
         style="font-weight:300;-inkscape-font-specification:'Calibri Light'"
         id="path931" />
    </g>
    <g
       aria-label="LENGTH"
       id="text8544-7-1"
       style="font-size:2.82222px;line-height:1.25;font-family:Calibri;-inkscape-font-specification:Calibri;text-align:center;text-anchor:middle;stroke-width:0.264583">
      <path
         d="m 4.1403889,101.70463 q 0,0.0276 -0.00276,0.0469 -0.00276,0.0179 -0.00965,0.0317 -0.00551,0.0124 -0.015158,0.0193 -0.00827,0.006 -0.02067,0.006 H 3.3039203 q -0.031695,0 -0.060634,-0.0207 -0.027561,-0.0221 -0.027561,-0.0758 v -1.65089 q 0,-0.011 0.00551,-0.0193 0.00551,-0.008 0.019293,-0.0124 0.01378,-0.006 0.037207,-0.008 0.023427,-0.004 0.0565,-0.004 0.034451,0 0.0565,0.004 0.023427,0.003 0.037207,0.008 0.01378,0.004 0.019292,0.0124 0.00551,0.008 0.00551,0.0193 v 1.54203 h 0.6394093 q 0.012402,0 0.02067,0.007 0.00965,0.006 0.015158,0.0179 0.00689,0.011 0.00965,0.0303 0.00276,0.0193 0.00276,0.0468 z"
         id="path910" />
      <path
         d="m 5.3944026,101.71014 q 0,0.0248 -0.00276,0.0441 -0.00276,0.0179 -0.00965,0.0303 -0.00689,0.0124 -0.016536,0.0179 -0.00827,0.006 -0.019293,0.006 h -0.855761 q -0.031695,0 -0.060634,-0.0207 -0.027561,-0.0221 -0.027561,-0.0758 v -1.59025 q 0,-0.0537 0.027561,-0.0744 0.028939,-0.0221 0.060634,-0.0221 h 0.8461148 q 0.011024,0 0.019292,0.006 0.00965,0.006 0.015158,0.0179 0.00551,0.0124 0.00827,0.0317 0.00413,0.0179 0.00413,0.0455 0,0.0248 -0.00413,0.0441 -0.00276,0.0179 -0.00827,0.0303 -0.00551,0.011 -0.015158,0.0165 -0.00827,0.006 -0.019292,0.006 H 4.6392383 v 0.55949 h 0.5980681 q 0.011024,0 0.019293,0.007 0.00965,0.006 0.015158,0.0165 0.00689,0.011 0.00965,0.0303 0.00276,0.0193 0.00276,0.0455 0,0.0248 -0.00276,0.0427 -0.00276,0.0179 -0.00965,0.0289 -0.00551,0.011 -0.015158,0.0165 -0.00827,0.004 -0.019293,0.004 H 4.6392383 v 0.63803 h 0.706933 q 0.011024,0 0.019293,0.006 0.00965,0.006 0.016536,0.0179 0.00689,0.011 0.00965,0.0303 0.00276,0.0179 0.00276,0.0455 z"
         id="path912" />
      <path
         d="m 7.1279733,101.71014 q 0,0.0276 -0.00965,0.0469 -0.00827,0.0193 -0.023427,0.0317 -0.01378,0.0124 -0.031695,0.0179 -0.017914,0.006 -0.035829,0.006 h -0.075792 q -0.035829,0 -0.06339,-0.007 -0.026183,-0.008 -0.050987,-0.0276 -0.023427,-0.0207 -0.048231,-0.0551 -0.023427,-0.0345 -0.052365,-0.0882 l -0.5622392,-1.01423 q -0.044097,-0.0786 -0.089572,-0.16399 -0.044097,-0.0868 -0.082682,-0.16812 h -0.00276 q 0.00276,0.0992 0.00413,0.20257 0.00138,0.10335 0.00138,0.20533 v 1.07624 q 0,0.01 -0.00551,0.0193 -0.00551,0.008 -0.019292,0.0138 -0.012402,0.004 -0.034451,0.007 -0.02067,0.004 -0.053743,0.004 -0.033073,0 -0.055121,-0.004 -0.020671,-0.003 -0.033073,-0.007 -0.012402,-0.006 -0.017914,-0.0138 -0.00551,-0.01 -0.00551,-0.0193 v -1.64537 q 0,-0.0551 0.030317,-0.0785 0.030317,-0.0234 0.066146,-0.0234 h 0.112999 q 0.039963,0 0.066146,0.007 0.027561,0.007 0.048231,0.0234 0.022049,0.0152 0.041341,0.0441 0.020671,0.0276 0.044097,0.0703 l 0.4327037,0.78272 q 0.039963,0.0717 0.07717,0.14056 0.037207,0.0675 0.071658,0.13367 0.034451,0.0661 0.067524,0.13092 0.034451,0.0634 0.067524,0.12815 h 0.00138 q -0.00276,-0.10886 -0.00413,-0.226 0,-0.11851 0,-0.22737 v -0.96738 q 0,-0.01 0.00551,-0.0179 0.00551,-0.008 0.017914,-0.0138 0.01378,-0.007 0.034451,-0.01 0.022049,-0.003 0.0565,-0.003 0.030317,0 0.052365,0.003 0.022049,0.003 0.034451,0.01 0.012402,0.006 0.017914,0.0138 0.00551,0.008 0.00551,0.0179 z"
         id="path914" />
      <path
         d="m 8.94147,100.26734 q 0,0.0262 -0.00276,0.0468 -0.00276,0.0193 -0.00827,0.0331 -0.00551,0.0124 -0.01378,0.0179 -0.00827,0.006 -0.017914,0.006 -0.016536,0 -0.055122,-0.0262 -0.038585,-0.0262 -0.1033528,-0.0579 -0.064768,-0.0317 -0.1557182,-0.0579 -0.089572,-0.0262 -0.2135957,-0.0262 -0.14745,0 -0.2645832,0.0537 -0.1171331,0.0537 -0.1984373,0.14883 -0.081304,0.0951 -0.1254014,0.226 -0.042719,0.13091 -0.042719,0.28388 0,0.17087 0.046853,0.30316 0.048231,0.1323 0.1322916,0.22325 0.08406,0.091 0.1998154,0.1378 0.1171331,0.0469 0.2563149,0.0469 0.082682,0 0.1667425,-0.0193 0.085438,-0.0207 0.1584742,-0.0606 v -0.51952 H 8.2869024 q -0.023427,0 -0.035829,-0.0234 -0.011024,-0.0234 -0.011024,-0.073 0,-0.0262 0.00276,-0.0441 0.00276,-0.0193 0.00827,-0.0303 0.00689,-0.0124 0.015158,-0.0179 0.00827,-0.006 0.020671,-0.006 h 0.5663733 q 0.015158,0 0.030317,0.006 0.015158,0.006 0.027561,0.0165 0.012402,0.011 0.019293,0.0303 0.00689,0.0193 0.00689,0.0441 v 0.67937 q 0,0.0358 -0.012402,0.062 -0.012402,0.0262 -0.052365,0.0468 -0.039963,0.0193 -0.1033528,0.0427 -0.06339,0.0234 -0.1309135,0.04 -0.067524,0.0165 -0.1364257,0.0248 -0.068902,0.008 -0.1364257,0.008 -0.2067056,0 -0.3693139,-0.0634 -0.1626084,-0.0648 -0.2756075,-0.18328 -0.111621,-0.11851 -0.1708766,-0.28388 -0.059256,-0.16536 -0.059256,-0.36931 0,-0.21222 0.06339,-0.38447 0.064768,-0.17226 0.1805229,-0.29352 0.1171332,-0.12127 0.2797415,-0.18742 0.1639865,-0.06752 0.3624238,-0.06752 0.1019748,0 0.1915472,0.01791 0.089572,0.0179 0.1584742,0.0427 0.07028,0.0234 0.1171332,0.0524 0.048231,0.0276 0.066146,0.0455 0.017914,0.0179 0.024805,0.0413 0.00689,0.0234 0.00689,0.0675 z"
         id="path916" />
      <path
         d="m 10.48625,100.12678 q 0,0.0262 -0.0028,0.0455 -0.0028,0.0193 -0.0096,0.0317 -0.0055,0.011 -0.01516,0.0165 -0.0083,0.006 -0.01929,0.006 H 9.9377913 v 1.54615 q 0,0.011 -0.00551,0.0193 -0.00551,0.008 -0.019293,0.0138 -0.01378,0.004 -0.037207,0.007 -0.022049,0.004 -0.056499,0.004 -0.033073,0 -0.0565,-0.004 -0.023427,-0.003 -0.037207,-0.007 -0.01378,-0.006 -0.019293,-0.0138 -0.00551,-0.008 -0.00551,-0.0193 V 100.226 H 9.1991634 q -0.011024,0 -0.020671,-0.006 -0.00827,-0.006 -0.01378,-0.0165 -0.00551,-0.0124 -0.00965,-0.0317 -0.00276,-0.0193 -0.00276,-0.0455 0,-0.0262 0.00276,-0.0455 0.00413,-0.0207 0.00965,-0.0331 0.00551,-0.0124 0.01378,-0.0179 0.00965,-0.006 0.020671,-0.006 h 1.2402336 q 0.01102,0 0.01929,0.006 0.0096,0.006 0.01516,0.0179 0.0069,0.0124 0.0096,0.0331 0.0028,0.0193 0.0028,0.0455 z"
         id="path918" />
      <path
         d="m 12.028273,101.77215 q 0,0.011 -0.0055,0.0193 -0.0055,0.008 -0.01929,0.0138 -0.01378,0.004 -0.03721,0.007 -0.02205,0.004 -0.05512,0.004 -0.03583,0 -0.05788,-0.004 -0.02205,-0.003 -0.03583,-0.007 -0.01378,-0.006 -0.01929,-0.0138 -0.0055,-0.008 -0.0055,-0.0193 v -0.79099 h -0.811664 v 0.79099 q 0,0.011 -0.0055,0.0193 -0.0055,0.008 -0.01929,0.0138 -0.01378,0.004 -0.03721,0.007 -0.02205,0.004 -0.0565,0.004 -0.03307,0 -0.0565,-0.004 -0.02343,-0.003 -0.03721,-0.007 -0.01378,-0.006 -0.01929,-0.0138 -0.0055,-0.008 -0.0055,-0.0193 v -1.71152 q 0,-0.011 0.0055,-0.0193 0.0055,-0.008 0.01929,-0.0124 0.01378,-0.006 0.03721,-0.008 0.02343,-0.004 0.0565,-0.004 0.03445,0 0.0565,0.004 0.02343,0.003 0.03721,0.008 0.01378,0.004 0.01929,0.0124 0.0055,0.008 0.0055,0.0193 v 0.71383 h 0.811664 v -0.71383 q 0,-0.011 0.0055,-0.0193 0.0055,-0.008 0.01929,-0.0124 0.01378,-0.006 0.03583,-0.008 0.02205,-0.004 0.05788,-0.004 0.03307,0 0.05512,0.004 0.02343,0.003 0.03721,0.008 0.01378,0.004 0.01929,0.0124 0.0055,0.008 0.0055,0.0193 z"
         id="path920" />
    </g>
    <g
       aria-label="STEP"
       id="text8544-7-1-3"
       style="font-size:2.82222px;line-height:1.25;font-family:Calibri;-inkscape-font-specification:Calibri;text-align:center;text-anchor:middle;stroke-width:0.264583">
      <path
         d="m 6.052901,89.423135 q 0,0.125402 -0.046853,0.223242 -0.045475,0.09784 -0.1281574,0.166743 -0.081304,0.06752 -0.1929252,0.101975 -0.110243,0.03445 -0.2384004,0.03445 -0.089573,0 -0.1667425,-0.01516 -0.075792,-0.01516 -0.1364257,-0.03721 -0.059256,-0.02205 -0.1005967,-0.04548 -0.039963,-0.02343 -0.0565,-0.03996 -0.015158,-0.01654 -0.023427,-0.04134 -0.00689,-0.02618 -0.00689,-0.0689 0,-0.03032 0.00276,-0.04961 0.00276,-0.02067 0.00827,-0.03307 0.00551,-0.0124 0.01378,-0.01654 0.00827,-0.0055 0.019293,-0.0055 0.019292,0 0.053743,0.02343 0.035829,0.02343 0.09095,0.05099 0.055122,0.02756 0.1322916,0.05236 0.078548,0.02343 0.1805228,0.02343 0.07717,0 0.1405598,-0.02067 0.064768,-0.02067 0.110243,-0.05788 0.046853,-0.03858 0.071658,-0.09371 0.024805,-0.05512 0.024805,-0.125401 0,-0.07579 -0.034451,-0.129536 -0.034451,-0.05374 -0.09095,-0.09371 -0.0565,-0.04134 -0.1295355,-0.07441 -0.071658,-0.03445 -0.1474499,-0.0689 -0.075792,-0.03583 -0.14745,-0.07855 -0.071658,-0.04272 -0.1281575,-0.100597 -0.0565,-0.05788 -0.092328,-0.135047 -0.034451,-0.07855 -0.034451,-0.187413 0,-0.111621 0.039963,-0.198438 0.041341,-0.08819 0.112999,-0.14745 0.073036,-0.05925 0.1722547,-0.08957 0.1005967,-0.03169 0.2163518,-0.03169 0.059256,0 0.1185112,0.01102 0.060634,0.0096 0.1129991,0.02756 0.053743,0.01654 0.095084,0.03858 0.041341,0.02067 0.053744,0.03445 0.01378,0.0124 0.017914,0.02067 0.00413,0.0069 0.00689,0.01929 0.00276,0.01102 0.00413,0.02756 0.00138,0.01654 0.00138,0.04272 0,0.02481 -0.00276,0.0441 -0.00138,0.01929 -0.00551,0.03307 -0.00413,0.0124 -0.012402,0.01929 -0.00689,0.0055 -0.016536,0.0055 -0.015158,0 -0.048231,-0.01929 -0.031695,-0.01929 -0.078548,-0.04272 -0.046853,-0.02481 -0.111621,-0.0441 -0.06339,-0.02067 -0.1433159,-0.02067 -0.074414,0 -0.1295355,0.02067 -0.055122,0.01929 -0.09095,0.05237 -0.035829,0.03307 -0.053743,0.07855 -0.017914,0.04548 -0.017914,0.09646 0,0.07441 0.034451,0.128157 0.034451,0.05374 0.09095,0.09508 0.057878,0.04134 0.1309135,0.07579 0.073036,0.03445 0.148828,0.07028 0.075792,0.03445 0.1488281,0.07717 0.073036,0.04134 0.1295354,0.09922 0.057878,0.0565 0.092328,0.135047 0.035829,0.07717 0.035829,0.183279 z"
         id="path901" />
      <path
         d="m 7.4901937,88.242157 q 0,0.02618 -0.00276,0.04548 -0.00276,0.01929 -0.00965,0.03169 -0.00551,0.01103 -0.015158,0.01654 -0.00827,0.0055 -0.019293,0.0055 H 6.941735 v 1.546158 q 0,0.01102 -0.00551,0.01929 -0.00551,0.0083 -0.019293,0.01378 -0.01378,0.0041 -0.037207,0.0069 -0.022049,0.0041 -0.0565,0.0041 -0.033073,0 -0.0565,-0.0041 -0.023427,-0.0028 -0.037207,-0.0069 -0.01378,-0.0055 -0.019292,-0.01378 -0.00551,-0.0083 -0.00551,-0.01929 V 88.341376 H 6.203107 q -0.011024,0 -0.020671,-0.0055 -0.00827,-0.0055 -0.01378,-0.01654 -0.00551,-0.0124 -0.00965,-0.03169 -0.00276,-0.01929 -0.00276,-0.04548 0,-0.02618 0.00276,-0.04548 0.00413,-0.02067 0.00965,-0.03307 0.00551,-0.0124 0.01378,-0.01791 0.00965,-0.0055 0.020671,-0.0055 h 1.2402335 q 0.011024,0 0.019293,0.0055 0.00965,0.0055 0.015158,0.01791 0.00689,0.0124 0.00965,0.03307 0.00276,0.01929 0.00276,0.04548 z"
         id="path903" />
      <path
         d="m 8.7400733,89.825522 q 0,0.0248 -0.00276,0.0441 -0.00276,0.01792 -0.00965,0.03032 -0.00689,0.0124 -0.016536,0.01792 -0.00827,0.0055 -0.019293,0.0055 H 7.836081 q -0.031695,0 -0.060634,-0.02067 -0.027561,-0.02205 -0.027561,-0.07579 v -1.590255 q 0,-0.05374 0.027561,-0.07441 0.028939,-0.02205 0.060634,-0.02205 h 0.8461148 q 0.011024,0 0.019292,0.0055 0.00965,0.0055 0.015158,0.01791 0.00551,0.0124 0.00827,0.03169 0.00413,0.01792 0.00413,0.04548 0,0.02481 -0.00413,0.0441 -0.00276,0.01791 -0.00827,0.03032 -0.00551,0.01103 -0.015158,0.01654 -0.00827,0.0055 -0.019292,0.0055 H 7.984909 v 0.559483 h 0.5980681 q 0.011024,0 0.019292,0.0069 0.00965,0.0055 0.015158,0.01654 0.00689,0.01102 0.00965,0.03032 0.00276,0.01929 0.00276,0.04547 0,0.0248 -0.00276,0.04272 -0.00276,0.01791 -0.00965,0.02894 -0.00551,0.01102 -0.015158,0.01654 -0.00827,0.0041 -0.019292,0.0041 H 7.984909 v 0.638031 h 0.706933 q 0.011024,0 0.019293,0.0055 0.00965,0.0055 0.016536,0.01791 0.00689,0.01102 0.00965,0.03032 0.00276,0.01791 0.00276,0.04548 z"
         id="path905" />
      <path
         d="m 10.221464,88.662459 q 0,0.133669 -0.0441,0.241156 -0.0441,0.107487 -0.126779,0.183279 -0.081304,0.07579 -0.2011935,0.117133 -0.1185112,0.04134 -0.2838756,0.04134 H 9.3629464 v 0.642166 q 0,0.01102 -0.00689,0.01929 -0.00551,0.0083 -0.019292,0.01378 -0.012402,0.0041 -0.035829,0.0069 -0.022049,0.0041 -0.0565,0.0041 -0.034451,0 -0.057878,-0.0041 -0.022049,-0.0028 -0.035829,-0.0069 -0.01378,-0.0055 -0.019293,-0.01378 -0.00551,-0.0083 -0.00551,-0.01929 v -1.645377 q 0,-0.05512 0.028939,-0.07855 0.028939,-0.02343 0.064768,-0.02343 h 0.3817163 q 0.057878,0 0.1102429,0.0055 0.053743,0.0041 0.1254014,0.02067 0.073036,0.01516 0.14745,0.05926 0.075792,0.04272 0.1281578,0.106109 0.05236,0.06339 0.07993,0.14745 0.02894,0.08268 0.02894,0.183279 z m -0.2494252,0.01929 q 0,-0.108865 -0.041341,-0.181901 -0.039963,-0.07304 -0.1005967,-0.108865 -0.059256,-0.03583 -0.1240233,-0.04547 -0.06339,-0.0096 -0.1240234,-0.0096 H 9.3629464 v 0.715201 h 0.2135958 q 0.1074869,0 0.1777668,-0.02756 0.071658,-0.02756 0.1198892,-0.07579 0.048231,-0.04961 0.073036,-0.117133 0.024805,-0.0689 0.024805,-0.148828 z"
         id="path907" />
    </g>
    <g
       aria-label="OUT"
       id="text8544-7-1-9"
       style="font-size:2.82222px;line-height:1.25;font-family:Calibri;-inkscape-font-specification:Calibri;text-align:center;text-anchor:middle;fill:#ffffff;stroke-width:0.264583">
      <path
         d="m 6.7656169,115.8971 q 0,0.21635 -0.050987,0.38998 -0.050987,0.17363 -0.1529621,0.29628 -0.1005967,0.12127 -0.2535589,0.18741 -0.1529621,0.0648 -0.3569116,0.0648 -0.2011934,0 -0.3486434,-0.0593 -0.1460719,-0.0606 -0.2425345,-0.17501 -0.095085,-0.11437 -0.1419379,-0.28387 -0.046853,-0.1695 -0.046853,-0.38999 0,-0.21084 0.050987,-0.38309 0.050987,-0.17226 0.1529621,-0.29215 0.1019747,-0.12126 0.2549369,-0.18603 0.1529621,-0.0662 0.3569116,-0.0662 0.1970593,0 0.3431312,0.0593 0.146072,0.0593 0.2425346,0.17363 0.097841,0.113 0.1446939,0.28112 0.048231,0.16674 0.048231,0.3831 z m -0.2494248,0.0165 q 0,-0.15158 -0.027561,-0.28112 -0.026183,-0.13091 -0.089572,-0.226 -0.062012,-0.0965 -0.1667425,-0.1502 -0.1047308,-0.0537 -0.259071,-0.0537 -0.1543402,0 -0.259071,0.0579 -0.1047308,0.0579 -0.1708766,0.15434 -0.064768,0.0965 -0.093706,0.226 -0.027561,0.12816 -0.027561,0.2701 0,0.15709 0.026183,0.28938 0.026183,0.1323 0.088194,0.22876 0.062012,0.0951 0.1653645,0.14883 0.1047308,0.0524 0.261827,0.0524 0.1557182,0 0.2618271,-0.0579 0.1061089,-0.0579 0.1708766,-0.15571 0.064768,-0.0992 0.092328,-0.22876 0.027561,-0.12953 0.027561,-0.27423 z"
         id="path894" />
      <path
         d="m 8.4812731,116.15065 q 0,0.16261 -0.048231,0.29077 -0.046853,0.12678 -0.1350476,0.21497 -0.088194,0.0882 -0.2149738,0.13367 -0.1267794,0.0455 -0.2880098,0.0455 -0.14745,0 -0.2687172,-0.0427 -0.1212673,-0.0427 -0.2080836,-0.1254 -0.086816,-0.0841 -0.1336696,-0.20946 -0.046853,-0.1254 -0.046853,-0.28939 v -1.10656 q 0,-0.011 0.00551,-0.0193 0.00551,-0.008 0.019293,-0.0124 0.01378,-0.006 0.035829,-0.008 0.022049,-0.004 0.057878,-0.004 0.033073,0 0.0565,0.004 0.023427,0.003 0.035829,0.008 0.01378,0.004 0.019293,0.0124 0.00551,0.008 0.00551,0.0193 v 1.07762 q 0,0.12402 0.030317,0.21635 0.030317,0.0923 0.086816,0.15434 0.057878,0.0606 0.1378037,0.0923 0.081304,0.0303 0.1819009,0.0303 0.1033528,0 0.183279,-0.0303 0.081304,-0.0303 0.1364256,-0.0909 0.0565,-0.0606 0.085438,-0.15021 0.030317,-0.0896 0.030317,-0.20946 v -1.09002 q 0,-0.011 0.00551,-0.0193 0.00551,-0.008 0.019293,-0.0124 0.01378,-0.006 0.035829,-0.008 0.023427,-0.004 0.057878,-0.004 0.033073,0 0.055121,0.004 0.023427,0.003 0.035829,0.008 0.01378,0.004 0.019293,0.0124 0.00689,0.008 0.00689,0.0193 z"
         id="path896" />
      <path
         d="m 10.068772,115.12815 q 0,0.0262 -0.0028,0.0455 -0.0028,0.0193 -0.0096,0.0317 -0.0055,0.011 -0.01516,0.0165 -0.0083,0.006 -0.01929,0.006 H 9.5203131 v 1.54616 q 0,0.011 -0.00551,0.0193 -0.00551,0.008 -0.019293,0.0138 -0.01378,0.004 -0.037207,0.007 -0.022049,0.004 -0.0565,0.004 -0.033073,0 -0.0565,-0.004 -0.023427,-0.003 -0.037207,-0.007 -0.01378,-0.006 -0.019292,-0.0138 -0.00551,-0.008 -0.00551,-0.0193 v -1.54616 H 8.7816852 q -0.011024,0 -0.02067,-0.006 -0.00827,-0.006 -0.01378,-0.0165 -0.00551,-0.0124 -0.00965,-0.0317 -0.00276,-0.0193 -0.00276,-0.0455 0,-0.0262 0.00276,-0.0455 0.00413,-0.0207 0.00965,-0.0331 0.00551,-0.0124 0.01378,-0.0179 0.00965,-0.006 0.02067,-0.006 h 1.2402338 q 0.01102,0 0.01929,0.006 0.0096,0.006 0.01516,0.0179 0.0069,0.0124 0.0096,0.0331 0.0028,0.0193 0.0028,0.0455 z"
         id="path898" />
    </g>
    <path
       style="display:inline;fill:none;fill-opacity:1;stroke:#000000;stroke-width:0.3;stroke-linecap:butt;stroke-linejoin:miter;stroke-miterlimit:4;stroke-dasharray:none;stroke-opacity:1"
       d="m 7.6220889,46.189854 v -10"
       id="path35189-8-9" />
    <path
       d="m 5.1549118,37.757419 a -3.4891158,-3.5941528 0 1 1 4.9343552,0"
       fill="none"
       stroke="#1f1f1f"
       stroke-linecap="round"
       stroke-linejoin="round"
       id="path66-2"
       style="display:inline;fill:none;fill-opacity:1;stroke:#000000;stroke-width:0.3;stroke-miterlimit:4;stroke-dasharray:none;stroke-opacity:1" />
    <path
       style="display:inline;fill:none;fill-opacity:1;stroke:#000000;stroke-width:0.3;stroke-linecap:butt;stroke-linejoin:miter;stroke-miterlimit:4;stroke-dasharray:none;stroke-opacity:1"
       d="m 7.6220889,69.760854 v -10"
       id="path35189-8-9-4" />
    <path
       d="m 5.1549118,61.328419 a -3.4891158,-3.5941528 0 1 1 4.9343552,0"
       fill="none"
       stroke="#1f1f1f"
       stroke-linecap="round"
       stroke-linejoin="round"
       id="path66-2-2"
       style="display:inline;fill:none;fill-opacity:1;stroke:#000000;stroke-width:0.3;stroke-miterlimit:4;stroke-dasharray:none;stroke-opacity:1" />
    <g
       aria-label="ROOT"
       id="text8544-7-1-3-4"
       style="font-size:2.82222px;line-height:1.25;font-family:Calibri;-inkscape-font-specification:Calibri;text-align:center;text-anchor:middle;stroke-width:0.264583">
      <path
         d="m 5.7913668,77.452536 q 0,0.01103 -0.00413,0.01929 -0.00413,0.0083 -0.017914,0.01378 -0.01378,0.0055 -0.038585,0.0083 -0.024805,0.0028 -0.066146,0.0028 -0.035829,0 -0.059256,-0.0028 -0.022049,-0.0028 -0.035829,-0.0083 -0.01378,-0.0069 -0.022049,-0.01791 -0.00689,-0.01103 -0.012402,-0.02756 L 5.3710654,77.019833 q -0.028939,-0.07166 -0.060634,-0.130914 -0.030317,-0.06063 -0.073036,-0.103353 -0.042719,-0.0441 -0.1005967,-0.06752 -0.057878,-0.0248 -0.1391817,-0.0248 H 4.8391431 v 0.759298 q 0,0.01103 -0.00689,0.01929 -0.00551,0.0083 -0.019293,0.01378 -0.012402,0.0041 -0.035829,0.0069 -0.022049,0.0041 -0.0565,0.0041 -0.034451,0 -0.057878,-0.0041 -0.022048,-0.0028 -0.035829,-0.0069 -0.01378,-0.0055 -0.019293,-0.01378 -0.00551,-0.0083 -0.00551,-0.01929 v -1.650888 q 0,-0.05374 0.027561,-0.07441 0.028939,-0.02205 0.060634,-0.02205 h 0.3789602 q 0.067524,0 0.111621,0.0041 0.045475,0.0028 0.081304,0.0069 0.1033528,0.01791 0.1819009,0.0565 0.079926,0.03858 0.1336696,0.09784 0.053743,0.05926 0.079926,0.136425 0.027561,0.07579 0.027561,0.168121 0,0.08957 -0.024805,0.16123 -0.023427,0.07028 -0.068902,0.125401 -0.045475,0.05374 -0.1088649,0.09371 -0.06339,0.03996 -0.1419379,0.06752 0.044097,0.01929 0.079926,0.04961 0.035829,0.02894 0.066146,0.07028 0.031695,0.04134 0.059256,0.09508 0.027561,0.05374 0.055121,0.121267 l 0.1598524,0.39274 q 0.019292,0.04961 0.024805,0.07028 0.00551,0.01929 0.00551,0.03032 z M 5.4344552,76.1999 q 0,-0.10473 -0.046853,-0.176388 -0.046853,-0.07304 -0.1570962,-0.104731 -0.034451,-0.0096 -0.078548,-0.01378 -0.042719,-0.0041 -0.112999,-0.0041 H 4.8391431 v 0.600825 h 0.2315102 q 0.093707,0 0.1612304,-0.02205 0.068902,-0.02343 0.1143771,-0.06339 0.045475,-0.04134 0.066146,-0.09646 0.022049,-0.05512 0.022049,-0.11989 z"
         id="path885" />
      <path
         d="m 7.6007295,76.576105 q 0,0.216351 -0.050987,0.389984 -0.050987,0.173633 -0.1529621,0.296278 -0.1005967,0.121267 -0.2535588,0.187413 -0.1529621,0.06477 -0.3569116,0.06477 -0.2011935,0 -0.3486434,-0.05926 -0.146072,-0.06063 -0.2425346,-0.17501 -0.095084,-0.114378 -0.1419378,-0.283876 -0.046853,-0.169499 -0.046853,-0.389985 0,-0.210839 0.050987,-0.383094 0.050987,-0.172255 0.1529621,-0.292144 0.1019748,-0.121267 0.2549369,-0.186035 0.1529621,-0.06615 0.3569116,-0.06615 0.1970593,0 0.3431313,0.05926 0.1460719,0.05926 0.2425345,0.173633 0.097841,0.112999 0.1446939,0.281119 0.048231,0.166743 0.048231,0.383095 z m -0.2494247,0.01654 q 0,-0.151584 -0.027561,-0.28112 -0.026183,-0.130913 -0.089573,-0.225998 -0.062012,-0.09646 -0.1667425,-0.150206 -0.1047308,-0.05374 -0.2590709,-0.05374 -0.1543402,0 -0.259071,0.05788 -0.1047309,0.05788 -0.1708766,0.154341 -0.064768,0.09646 -0.093707,0.225998 -0.027561,0.128157 -0.027561,0.270095 0,0.157096 0.026183,0.289388 0.026183,0.132291 0.088194,0.228754 0.062012,0.09508 0.1653644,0.148828 0.1047309,0.05236 0.2618271,0.05236 0.1557182,0 0.2618271,-0.05788 0.1061088,-0.05788 0.1708766,-0.155718 0.064768,-0.09922 0.092328,-0.228755 0.027561,-0.129535 0.027561,-0.274229 z"
         id="path887" />
      <path
         d="m 9.469348,76.576105 q 0,0.216351 -0.050987,0.389984 -0.050987,0.173633 -0.1529621,0.296278 -0.1005967,0.121267 -0.2535588,0.187413 -0.1529622,0.06477 -0.3569117,0.06477 -0.2011934,0 -0.3486433,-0.05926 -0.146072,-0.06063 -0.2425346,-0.17501 -0.095085,-0.114378 -0.1419378,-0.283876 -0.046853,-0.169499 -0.046853,-0.389985 0,-0.210839 0.050987,-0.383094 0.050987,-0.172255 0.1529621,-0.292144 0.1019748,-0.121267 0.2549369,-0.186035 0.1529621,-0.06615 0.3569116,-0.06615 0.1970593,0 0.3431313,0.05926 0.1460719,0.05926 0.2425345,0.173633 0.097841,0.112999 0.1446939,0.281119 0.048231,0.166743 0.048231,0.383095 z m -0.2494247,0.01654 q 0,-0.151584 -0.027561,-0.28112 -0.026183,-0.130913 -0.089572,-0.225998 -0.062012,-0.09646 -0.1667425,-0.150206 -0.1047308,-0.05374 -0.259071,-0.05374 -0.1543401,0 -0.2590709,0.05788 -0.1047309,0.05788 -0.1708766,0.154341 -0.064768,0.09646 -0.093707,0.225998 -0.027561,0.128157 -0.027561,0.270095 0,0.157096 0.026183,0.289388 0.026183,0.132291 0.088194,0.228754 0.062012,0.09508 0.1653644,0.148828 0.1047308,0.05236 0.2618271,0.05236 0.1557182,0 0.261827,-0.05788 0.1061089,-0.05788 0.1708766,-0.155718 0.064768,-0.09922 0.092328,-0.228755 0.027561,-0.129535 0.027561,-0.274229 z"
         id="path889" />
      <path
         d="m 10.88597,75.80716 q 0,0.02618 -0.0028,0.04548 -0.0028,0.01929 -0.0096,0.03169 -0.0055,0.01102 -0.01516,0.01654 -0.0083,0.0055 -0.01929,0.0055 h -0.501606 v 1.546157 q 0,0.01103 -0.0055,0.01929 -0.0055,0.0083 -0.01929,0.01378 -0.01378,0.0041 -0.03721,0.0069 -0.02205,0.0041 -0.0565,0.0041 -0.03307,0 -0.0565,-0.0041 -0.02343,-0.0028 -0.03721,-0.0069 -0.01378,-0.0055 -0.01929,-0.01378 -0.0055,-0.0083 -0.0055,-0.01929 V 75.906379 H 9.5988833 q -0.011024,0 -0.020671,-0.0055 -0.00827,-0.0055 -0.01378,-0.01654 -0.00551,-0.0124 -0.00965,-0.03169 -0.00276,-0.01929 -0.00276,-0.04548 0,-0.02618 0.00276,-0.04547 0.00413,-0.02067 0.00965,-0.03307 0.00551,-0.0124 0.01378,-0.01792 0.00965,-0.0055 0.020671,-0.0055 h 1.2402337 q 0.01102,0 0.01929,0.0055 0.0096,0.0055 0.01516,0.01792 0.0069,0.0124 0.0096,0.03307 0.0028,0.01929 0.0028,0.04547 z"
         id="path891" />
    </g>
    <g
       aria-label="MODE"
       id="text8544-7-1-3-4-1"
       style="font-size:2.82222px;line-height:1.25;font-family:Calibri;-inkscape-font-specification:Calibri;text-align:center;text-anchor:middle;stroke-width:0.264583">
      <path
         d="m 6.0558608,53.630534 q 0,0.01102 -0.00551,0.01929 -0.00551,0.0083 -0.019293,0.01378 -0.01378,0.0041 -0.035829,0.0069 -0.020671,0.0041 -0.055122,0.0041 -0.031695,0 -0.055121,-0.0041 -0.022049,-0.0028 -0.035829,-0.0069 -0.012402,-0.0055 -0.017914,-0.01378 -0.00551,-0.0083 -0.00551,-0.01929 v -1.553048 h -0.00276 l -0.6352751,1.559938 q -0.00413,0.0096 -0.012402,0.01654 -0.00689,0.0069 -0.022049,0.0124 -0.01378,0.0041 -0.034451,0.0055 -0.019292,0.0028 -0.046853,0.0028 -0.028939,0 -0.049609,-0.0028 -0.020671,-0.0028 -0.034451,-0.0069 -0.01378,-0.0055 -0.022049,-0.0124 -0.00689,-0.0069 -0.00965,-0.01516 L 4.3484727,52.077486 h -0.00138 v 1.553048 q 0,0.01102 -0.00551,0.01929 -0.00551,0.0083 -0.019293,0.01378 -0.01378,0.0041 -0.035829,0.0069 -0.022049,0.0041 -0.0565,0.0041 -0.033073,0 -0.055122,-0.0041 -0.022048,-0.0028 -0.035829,-0.0069 -0.012402,-0.0055 -0.017914,-0.01378 -0.00413,-0.0083 -0.00413,-0.01929 V 51.99067 q 0,-0.05788 0.030317,-0.08268 0.030317,-0.0248 0.067524,-0.0248 H 4.358119 q 0.044097,0 0.07717,0.0083 0.033073,0.0083 0.057878,0.02618 0.024805,0.01791 0.041341,0.04548 0.016536,0.02756 0.028939,0.06477 l 0.516764,1.29122 h 0.00689 l 0.5374345,-1.287086 q 0.015158,-0.04134 0.033073,-0.07028 0.017914,-0.02894 0.038585,-0.04548 0.022049,-0.01791 0.048231,-0.0248 0.026183,-0.0083 0.060634,-0.0083 h 0.150206 q 0.020671,0 0.038585,0.0069 0.019292,0.0055 0.031695,0.01929 0.01378,0.0124 0.022049,0.03307 0.00827,0.01929 0.00827,0.04823 z"
         id="path876" />
      <path
         d="m 8.0236979,52.754102 q 0,0.216352 -0.050987,0.389985 -0.050987,0.173632 -0.1529621,0.296278 -0.1005967,0.121267 -0.2535589,0.187413 -0.1529621,0.06477 -0.3569116,0.06477 -0.2011934,0 -0.3486434,-0.05926 Q 6.7145626,53.572656 6.6181,53.458279 6.5230154,53.343902 6.4761622,53.174403 q -0.046853,-0.169498 -0.046853,-0.389984 0,-0.21084 0.050987,-0.383094 0.050987,-0.172255 0.1529621,-0.292144 0.1019747,-0.121267 0.2549369,-0.186035 0.1529621,-0.06615 0.3569116,-0.06615 0.1970593,0 0.3431312,0.05926 0.146072,0.05926 0.2425346,0.173632 0.097841,0.112999 0.1446939,0.28112 0.048231,0.166742 0.048231,0.383094 z m -0.2494247,0.01654 q 0,-0.151584 -0.027561,-0.28112 -0.026183,-0.130913 -0.089572,-0.225998 -0.062012,-0.09646 -0.1667425,-0.150206 -0.1047308,-0.05374 -0.259071,-0.05374 -0.1543401,0 -0.259071,0.05788 -0.1047308,0.05788 -0.1708766,0.15434 -0.064768,0.09646 -0.093706,0.225998 -0.027561,0.128158 -0.027561,0.270096 0,0.157096 0.026183,0.289387 0.026183,0.132292 0.088194,0.228755 0.062012,0.09508 0.1653645,0.148828 0.1047308,0.05237 0.2618271,0.05237 0.1557182,0 0.261827,-0.05788 0.1061089,-0.05788 0.1708766,-0.155718 0.064768,-0.09922 0.092328,-0.228754 0.027561,-0.129535 0.027561,-0.274229 z"
         id="path878" />
      <path
         d="m 9.7696708,52.74859 q 0,0.23151 -0.059256,0.405143 -0.059256,0.172255 -0.1736327,0.286632 -0.112999,0.112999 -0.2783635,0.169498 -0.1653644,0.0565 -0.3941186,0.0565 H 8.4867182 q -0.031695,0 -0.060634,-0.02067 -0.027561,-0.02205 -0.027561,-0.07579 v -1.590255 q 0,-0.05374 0.027561,-0.07441 0.028939,-0.02205 0.060634,-0.02205 h 0.4037649 q 0.2315103,0 0.3913626,0.06063 0.1598523,0.05926 0.2673392,0.172255 0.1088649,0.111621 0.1639864,0.271473 0.056499,0.159853 0.056499,0.361046 z m -0.2494247,0.0096 q 0,-0.144694 -0.035829,-0.268717 -0.035829,-0.125401 -0.112999,-0.216352 -0.075792,-0.09095 -0.1929252,-0.141938 -0.1171332,-0.05099 -0.3017901,-0.05099 H 8.6355463 v 1.387683 h 0.2439125 q 0.1708766,0 0.2880098,-0.04272 0.1171332,-0.04272 0.1956813,-0.130913 0.078548,-0.0882 0.1171331,-0.220486 0.039963,-0.13367 0.039963,-0.315571 z"
         id="path880" />
      <path
         d="m 11.127037,53.568522 q 0,0.02481 -0.0028,0.0441 -0.0028,0.01791 -0.0096,0.03032 -0.0069,0.0124 -0.01654,0.01792 -0.0083,0.0055 -0.01929,0.0055 h -0.855761 q -0.0317,0 -0.06063,-0.02067 -0.02756,-0.02205 -0.02756,-0.07579 v -1.590255 q 0,-0.05374 0.02756,-0.07441 0.02894,-0.02205 0.06063,-0.02205 h 0.846115 q 0.01102,0 0.01929,0.0055 0.0096,0.0055 0.01516,0.01791 0.0055,0.0124 0.0083,0.03169 0.0041,0.01791 0.0041,0.04547 0,0.02481 -0.0041,0.0441 -0.0028,0.01791 -0.0083,0.03032 -0.0055,0.01102 -0.01516,0.01654 -0.0083,0.0055 -0.01929,0.0055 h -0.697287 v 0.559483 h 0.598068 q 0.01102,0 0.01929,0.0069 0.0096,0.0055 0.01516,0.01654 0.0069,0.01102 0.0096,0.03032 0.0028,0.01929 0.0028,0.04547 0,0.0248 -0.0028,0.04272 -0.0028,0.01791 -0.0096,0.02894 -0.0055,0.01102 -0.01516,0.01654 -0.0083,0.0041 -0.01929,0.0041 h -0.598068 v 0.638031 h 0.706933 q 0.01102,0 0.01929,0.0055 0.0096,0.0055 0.01654,0.01791 0.0069,0.01102 0.0096,0.03032 0.0028,0.01791 0.0028,0.04548 z"
         id="path882" />
    </g>
    <g
       aria-label="RESET"
       id="text8544-7-1-3-4-1-9"
       style="font-size:2.82222px;line-height:1.25;font-family:Calibri;-inkscape-font-specification:Calibri;text-align:center;text-anchor:middle;stroke-width:0.264583">
      <path
         d="m 5.47364,30.059535 q 0,0.01102 -0.00413,0.01929 -0.00413,0.0083 -0.017914,0.01378 -0.01378,0.0055 -0.038585,0.0083 -0.024805,0.0028 -0.066146,0.0028 -0.035829,0 -0.059256,-0.0028 -0.022049,-0.0028 -0.035829,-0.0083 -0.01378,-0.0069 -0.022049,-0.01791 -0.00689,-0.01102 -0.012402,-0.02756 L 5.0533387,29.626831 q -0.028939,-0.07166 -0.060634,-0.130914 -0.030317,-0.06063 -0.073036,-0.103352 -0.042719,-0.0441 -0.1005967,-0.06752 -0.057878,-0.0248 -0.1391817,-0.0248 H 4.5214163 v 0.759299 q 0,0.01102 -0.00689,0.01929 -0.00551,0.0083 -0.019293,0.01378 -0.012402,0.0041 -0.035829,0.0069 -0.022049,0.0041 -0.0565,0.0041 -0.034451,0 -0.057878,-0.0041 -0.022049,-0.0028 -0.035829,-0.0069 -0.01378,-0.0055 -0.019293,-0.01378 -0.00551,-0.0083 -0.00551,-0.01929 v -1.650889 q 0,-0.05374 0.027561,-0.07441 0.028939,-0.02205 0.060634,-0.02205 h 0.3789602 q 0.067524,0 0.111621,0.0041 0.045475,0.0028 0.081304,0.0069 0.1033528,0.01791 0.1819009,0.0565 0.079926,0.03859 0.1336696,0.09784 0.053743,0.05926 0.079926,0.136426 0.027561,0.07579 0.027561,0.16812 0,0.08957 -0.024805,0.161231 -0.023427,0.07028 -0.068902,0.125401 -0.045475,0.05374 -0.1088649,0.09371 -0.06339,0.03996 -0.1419379,0.06752 0.044097,0.01929 0.079926,0.04961 0.035829,0.02894 0.066146,0.07028 0.031695,0.04134 0.059256,0.09508 0.027561,0.05374 0.055122,0.121267 l 0.1598523,0.392741 q 0.019292,0.04961 0.024805,0.07028 0.00551,0.01929 0.00551,0.03032 z M 5.1167284,28.806899 q 0,-0.104731 -0.046853,-0.176389 -0.046853,-0.07304 -0.1570962,-0.104731 -0.034451,-0.0096 -0.078548,-0.01378 -0.042719,-0.0041 -0.112999,-0.0041 H 4.5214163 v 0.600824 h 0.2315103 q 0.093706,0 0.1612303,-0.02205 0.068902,-0.02343 0.1143771,-0.06339 0.045475,-0.04134 0.066146,-0.09646 0.022049,-0.05512 0.022049,-0.119889 z"
         id="path865" />
      <path
         d="m 6.808958,29.997523 q 0,0.02481 -0.00276,0.0441 -0.00276,0.01791 -0.00965,0.03032 -0.00689,0.0124 -0.016536,0.01791 -0.00827,0.0055 -0.019293,0.0055 h -0.855761 q -0.031695,0 -0.060634,-0.02067 -0.027561,-0.02205 -0.027561,-0.07579 v -1.590255 q 0,-0.05374 0.027561,-0.07441 0.028939,-0.02205 0.060634,-0.02205 h 0.8461148 q 0.011024,0 0.019293,0.0055 0.00965,0.0055 0.015158,0.01791 0.00551,0.0124 0.00827,0.0317 0.00413,0.01791 0.00413,0.04547 0,0.0248 -0.00413,0.0441 -0.00276,0.01792 -0.00827,0.03032 -0.00551,0.01103 -0.015158,0.01654 -0.00827,0.0055 -0.019293,0.0055 H 6.0537937 v 0.559483 h 0.5980681 q 0.011024,0 0.019293,0.0069 0.00965,0.0055 0.015158,0.01654 0.00689,0.01102 0.00965,0.03032 0.00276,0.01929 0.00276,0.04548 0,0.0248 -0.00276,0.04272 -0.00276,0.01791 -0.00965,0.02894 -0.00551,0.01102 -0.015158,0.01654 -0.00827,0.0041 -0.019293,0.0041 H 6.0537937 v 0.638031 h 0.706933 q 0.011024,0 0.019293,0.0055 0.00965,0.0055 0.016536,0.01792 0.00689,0.01102 0.00965,0.03032 0.00276,0.01791 0.00276,0.04547 z"
         id="path867" />
      <path
         d="m 8.1249835,29.595136 q 0,0.125402 -0.046853,0.223242 -0.045475,0.09784 -0.1281574,0.166743 -0.081304,0.06752 -0.1929252,0.101974 -0.110243,0.03445 -0.2384005,0.03445 -0.089572,0 -0.1667425,-0.01516 -0.075792,-0.01516 -0.1364256,-0.03721 -0.059256,-0.02205 -0.1005967,-0.04547 -0.039963,-0.02343 -0.0565,-0.03996 -0.015158,-0.01654 -0.023427,-0.04134 -0.00689,-0.02618 -0.00689,-0.0689 0,-0.03032 0.00276,-0.04961 0.00276,-0.02067 0.00827,-0.03307 0.00551,-0.0124 0.01378,-0.01654 0.00827,-0.0055 0.019292,-0.0055 0.019292,0 0.053744,0.02343 0.035829,0.02343 0.09095,0.05099 0.055122,0.02756 0.1322916,0.05237 0.078548,0.02343 0.1805228,0.02343 0.07717,0 0.1405598,-0.02067 0.064768,-0.02067 0.110243,-0.05788 0.046853,-0.03858 0.071658,-0.09371 0.024805,-0.05512 0.024805,-0.125401 0,-0.07579 -0.034451,-0.129536 -0.034451,-0.05374 -0.09095,-0.09371 -0.0565,-0.04134 -0.1295355,-0.07441 -0.071658,-0.03445 -0.1474499,-0.0689 -0.075792,-0.03583 -0.14745,-0.07855 -0.071658,-0.04272 -0.1281575,-0.100597 -0.0565,-0.05788 -0.092328,-0.135048 -0.034451,-0.07855 -0.034451,-0.187413 0,-0.111621 0.039963,-0.198437 0.041341,-0.08819 0.112999,-0.14745 0.073036,-0.05925 0.1722547,-0.08957 0.1005967,-0.0317 0.2163518,-0.0317 0.059256,0 0.1185112,0.01102 0.060634,0.0096 0.112999,0.02756 0.053743,0.01654 0.095085,0.03859 0.041341,0.02067 0.053743,0.03445 0.01378,0.0124 0.017914,0.02067 0.00413,0.0069 0.00689,0.01929 0.00276,0.01102 0.00413,0.02756 0.00138,0.01654 0.00138,0.04272 0,0.0248 -0.00276,0.0441 -0.00138,0.01929 -0.00551,0.03307 -0.00413,0.0124 -0.012402,0.01929 -0.00689,0.0055 -0.016536,0.0055 -0.015158,0 -0.048231,-0.01929 -0.031695,-0.01929 -0.078548,-0.04272 -0.046853,-0.02481 -0.1116211,-0.0441 -0.06339,-0.02067 -0.1433158,-0.02067 -0.074414,0 -0.1295355,0.02067 -0.055121,0.01929 -0.09095,0.05237 -0.035829,0.03307 -0.053743,0.07855 -0.017914,0.04547 -0.017914,0.09646 0,0.07441 0.034451,0.128157 0.034451,0.05374 0.09095,0.09509 0.057878,0.04134 0.1309135,0.07579 0.073036,0.03445 0.148828,0.07028 0.075792,0.03445 0.148828,0.07717 0.073036,0.04134 0.1295355,0.09922 0.057878,0.0565 0.092328,0.135047 0.035829,0.07717 0.035829,0.183279 z"
         id="path869" />
      <path
         d="m 9.4561671,29.997523 q 0,0.02481 -0.00276,0.0441 -0.00276,0.01791 -0.00965,0.03032 -0.00689,0.0124 -0.016536,0.01791 -0.00827,0.0055 -0.019292,0.0055 H 8.5521747 q -0.031695,0 -0.060634,-0.02067 -0.027561,-0.02205 -0.027561,-0.07579 v -1.590255 q 0,-0.05374 0.027561,-0.07441 0.028939,-0.02205 0.060634,-0.02205 h 0.8461148 q 0.011024,0 0.019292,0.0055 0.00965,0.0055 0.015158,0.01791 0.00551,0.0124 0.00827,0.0317 0.00413,0.01791 0.00413,0.04547 0,0.0248 -0.00413,0.0441 -0.00276,0.01792 -0.00827,0.03032 -0.00551,0.01103 -0.015158,0.01654 -0.00827,0.0055 -0.019292,0.0055 H 8.7010027 v 0.559483 h 0.5980681 q 0.011024,0 0.019293,0.0069 0.00965,0.0055 0.015158,0.01654 0.00689,0.01102 0.00965,0.03032 0.00276,0.01929 0.00276,0.04548 0,0.0248 -0.00276,0.04272 -0.00276,0.01791 -0.00965,0.02894 -0.00551,0.01102 -0.015158,0.01654 -0.00827,0.0041 -0.019293,0.0041 H 8.7010027 v 0.638031 h 0.7069331 q 0.011024,0 0.019292,0.0055 0.00965,0.0055 0.016536,0.01792 0.00689,0.01102 0.00965,0.03032 0.00276,0.01791 0.00276,0.04547 z"
         id="path871" />
      <path
         d="m 10.959606,28.414158 q 0,0.02618 -0.0028,0.04548 -0.0028,0.01929 -0.0096,0.03169 -0.0055,0.01103 -0.01516,0.01654 -0.0083,0.0055 -0.01929,0.0055 h -0.501606 v 1.546158 q 0,0.01102 -0.0055,0.01929 -0.0055,0.0083 -0.01929,0.01378 -0.01378,0.0041 -0.03721,0.0069 -0.02205,0.0041 -0.0565,0.0041 -0.03307,0 -0.0565,-0.0041 -0.02343,-0.0028 -0.03721,-0.0069 -0.01378,-0.0055 -0.01929,-0.01378 -0.0055,-0.0083 -0.0055,-0.01929 V 28.513377 H 9.6725192 q -0.011024,0 -0.02067,-0.0055 -0.00827,-0.0055 -0.01378,-0.01654 -0.00551,-0.0124 -0.00965,-0.03169 -0.00276,-0.01929 -0.00276,-0.04548 0,-0.02618 0.00276,-0.04547 0.00413,-0.02067 0.00965,-0.03307 0.00551,-0.0124 0.01378,-0.01791 0.00965,-0.0055 0.02067,-0.0055 h 1.2402338 q 0.01102,0 0.01929,0.0055 0.0096,0.0055 0.01516,0.01791 0.0069,0.0124 0.0096,0.03307 0.0028,0.01929 0.0028,0.04547 z"
         id="path873" />
    </g>
    <g
       aria-label="CLOCK"
       id="text8544-7-1-3-4-1-9-4"
       style="font-size:2.82222px;line-height:1.25;font-family:Calibri;-inkscape-font-specification:Calibri;text-align:center;text-anchor:middle;stroke-width:0.264583">
      <path
         d="m 5.281404,18.057182 q 0,0.02205 -0.00138,0.03858 -0.00138,0.01654 -0.00551,0.02894 -0.00276,0.0124 -0.00827,0.02205 -0.00551,0.0096 -0.019293,0.02343 -0.01378,0.01378 -0.057878,0.04272 -0.044097,0.02756 -0.110243,0.05512 -0.064768,0.02618 -0.1502061,0.0441 -0.08406,0.01929 -0.1846569,0.01929 -0.1736327,0 -0.3141925,-0.05788 -0.1391818,-0.05788 -0.2384004,-0.170876 -0.097841,-0.112999 -0.1515841,-0.278364 -0.052365,-0.166742 -0.052365,-0.383094 0,-0.221864 0.0565,-0.395497 0.057878,-0.173632 0.1612303,-0.293522 0.1033528,-0.121267 0.2466687,-0.184657 0.1446939,-0.06339 0.3197046,-0.06339 0.07717,0 0.1502061,0.01516 0.073036,0.01378 0.1350476,0.03583 0.062012,0.02205 0.110243,0.05099 0.048231,0.02894 0.066146,0.04823 0.019293,0.01791 0.024805,0.02756 0.00551,0.0096 0.00827,0.02343 0.00413,0.0124 0.00551,0.03032 0.00276,0.01791 0.00276,0.04272 0,0.02756 -0.00276,0.04685 -0.00276,0.01929 -0.00827,0.03307 -0.00551,0.0124 -0.01378,0.01929 -0.00689,0.0055 -0.017914,0.0055 -0.019292,0 -0.053743,-0.02618 -0.034451,-0.02756 -0.089573,-0.05926 -0.053743,-0.03307 -0.1322915,-0.05926 -0.07717,-0.02756 -0.186035,-0.02756 -0.1185112,0 -0.2163519,0.04823 -0.096463,0.04685 -0.1653644,0.139181 -0.068902,0.09233 -0.1074869,0.225998 -0.037207,0.132292 -0.037207,0.303169 0,0.169498 0.035829,0.300412 0.037207,0.129535 0.1047309,0.21773 0.068902,0.08682 0.1681205,0.132291 0.099219,0.0441 0.22462,0.0441 0.1061089,0 0.184657,-0.02618 0.079926,-0.02618 0.1350477,-0.05788 0.0565,-0.03307 0.092328,-0.05926 0.035829,-0.02618 0.0565,-0.02618 0.00965,0 0.016536,0.0041 0.00689,0.0041 0.011024,0.01654 0.00413,0.01103 0.00551,0.0317 0.00276,0.02067 0.00276,0.05237 z"
         id="path854" />
      <path
         d="m 6.5202594,18.20601 q 0,0.02756 -0.00276,0.04685 -0.00276,0.01791 -0.00965,0.03169 -0.00551,0.0124 -0.015158,0.01929 -0.00827,0.0055 -0.020671,0.0055 H 5.6837909 q -0.031695,0 -0.060634,-0.02067 -0.027561,-0.02205 -0.027561,-0.07579 v -1.650889 q 0,-0.01102 0.00551,-0.01929 0.00551,-0.0083 0.019292,-0.0124 0.01378,-0.0055 0.037207,-0.0083 0.023427,-0.0041 0.056499,-0.0041 0.034451,0 0.0565,0.0041 0.023427,0.0028 0.037207,0.0083 0.01378,0.0041 0.019292,0.0124 0.00551,0.0083 0.00551,0.01929 v 1.542024 h 0.6394092 q 0.012402,0 0.020671,0.0069 0.00965,0.0055 0.015158,0.01791 0.00689,0.01102 0.00965,0.03032 0.00276,0.01929 0.00276,0.04685 z"
         id="path856" />
      <path
         d="m 8.2138671,17.397102 q 0,0.216352 -0.050987,0.389984 -0.050987,0.173633 -0.1529621,0.296278 -0.1005967,0.121268 -0.2535588,0.187413 -0.1529622,0.06477 -0.3569117,0.06477 -0.2011934,0 -0.3486434,-0.05926 -0.1460719,-0.06063 -0.2425345,-0.175011 -0.095085,-0.114377 -0.1419378,-0.283876 -0.046853,-0.169498 -0.046853,-0.389984 0,-0.21084 0.050987,-0.383095 Q 6.7214529,16.87207 6.8234276,16.75218 6.9254024,16.630913 7.0783645,16.566145 7.2313266,16.5 7.4352761,16.5 q 0.1970593,0 0.3431313,0.05926 0.1460719,0.05926 0.2425345,0.173633 0.097841,0.112999 0.1446939,0.281119 0.048231,0.166743 0.048231,0.383095 z m -0.2494247,0.01654 q 0,-0.151584 -0.027561,-0.281119 -0.026183,-0.130914 -0.089572,-0.225998 -0.062012,-0.09646 -0.1667425,-0.150206 -0.1047308,-0.05374 -0.259071,-0.05374 -0.1543401,0 -0.259071,0.05788 -0.1047308,0.05788 -0.1708766,0.15434 -0.064768,0.09646 -0.093707,0.225998 -0.027561,0.128157 -0.027561,0.270095 0,0.157096 0.026183,0.289388 0.026183,0.132292 0.088194,0.228754 0.062012,0.09509 0.1653644,0.148828 0.1047308,0.05237 0.2618271,0.05237 0.1557182,0 0.261827,-0.05788 0.1061089,-0.05788 0.1708766,-0.155718 0.064768,-0.09922 0.092329,-0.228754 0.027561,-0.129536 0.027561,-0.27423 z"
         id="path858" />
      <path
         d="m 9.7793174,18.057182 q 0,0.02205 -0.00138,0.03858 -0.00138,0.01654 -0.00551,0.02894 -0.00276,0.0124 -0.00827,0.02205 -0.00551,0.0096 -0.019292,0.02343 -0.01378,0.01378 -0.057878,0.04272 -0.044097,0.02756 -0.110243,0.05512 -0.064768,0.02618 -0.150206,0.0441 -0.08406,0.01929 -0.184657,0.01929 -0.1736327,0 -0.3141925,-0.05788 -0.1391817,-0.05788 -0.2384004,-0.170876 -0.097841,-0.112999 -0.1515841,-0.278364 -0.052365,-0.166742 -0.052365,-0.383094 0,-0.221864 0.0565,-0.395497 0.057878,-0.173632 0.1612304,-0.293522 0.1033528,-0.121267 0.2466686,-0.184657 0.1446939,-0.06339 0.3197047,-0.06339 0.07717,0 0.150206,0.01516 0.073036,0.01378 0.1350477,0.03583 0.062012,0.02205 0.1102429,0.05099 0.048231,0.02894 0.066146,0.04823 0.019292,0.01791 0.024805,0.02756 0.00551,0.0096 0.00827,0.02343 0.00413,0.0124 0.00551,0.03032 0.00276,0.01791 0.00276,0.04272 0,0.02756 -0.00276,0.04685 -0.00276,0.01929 -0.00827,0.03307 -0.00551,0.0124 -0.01378,0.01929 -0.00689,0.0055 -0.017914,0.0055 -0.019293,0 -0.053743,-0.02618 -0.034451,-0.02756 -0.089572,-0.05926 -0.053743,-0.03307 -0.1322916,-0.05926 -0.07717,-0.02756 -0.186035,-0.02756 -0.1185112,0 -0.2163518,0.04823 -0.096463,0.04685 -0.1653645,0.139181 -0.068902,0.09233 -0.1074869,0.225998 -0.037207,0.132292 -0.037207,0.303169 0,0.169498 0.035829,0.300412 0.037207,0.129535 0.1047308,0.21773 0.068902,0.08682 0.1681206,0.132291 0.099219,0.0441 0.22462,0.0441 0.1061089,0 0.184657,-0.02618 0.079926,-0.02618 0.1350476,-0.05788 0.0565,-0.03307 0.092328,-0.05926 0.035829,-0.02618 0.0565,-0.02618 0.00965,0 0.016536,0.0041 0.00689,0.0041 0.011024,0.01654 0.00413,0.01103 0.00551,0.0317 0.00276,0.02067 0.00276,0.05237 z"
         id="path860" />
      <path
         d="m 11.256573,18.270777 q 0,0.01103 -0.0055,0.02067 -0.0041,0.0083 -0.01791,0.01378 -0.01378,0.0055 -0.03721,0.0083 -0.02343,0.0041 -0.06063,0.0041 -0.04823,0 -0.07855,-0.0041 -0.03032,-0.0041 -0.04547,-0.01516 -0.01516,-0.01102 -0.02481,-0.02481 l -0.655946,-0.89159 v 0.89159 q 0,0.0096 -0.0055,0.01929 -0.0055,0.0083 -0.01929,0.01378 -0.01378,0.0041 -0.03721,0.0069 -0.02205,0.0041 -0.0565,0.0041 -0.03307,0 -0.0565,-0.0041 -0.02343,-0.0028 -0.03721,-0.0069 -0.01378,-0.0055 -0.01929,-0.01378 -0.0055,-0.0096 -0.0055,-0.01929 v -1.711522 q 0,-0.01102 0.0055,-0.01929 0.0055,-0.0083 0.01929,-0.0124 0.01378,-0.0055 0.03721,-0.0083 0.02343,-0.0041 0.0565,-0.0041 0.03445,0 0.0565,0.0041 0.02343,0.0028 0.03721,0.0083 0.01378,0.0041 0.01929,0.0124 0.0055,0.0083 0.0055,0.01929 v 0.792372 l 0.631141,-0.792372 q 0.0083,-0.0124 0.01929,-0.02067 0.01102,-0.0083 0.02618,-0.0124 0.01654,-0.0055 0.03859,-0.0083 0.02343,-0.0028 0.05926,-0.0028 0.03583,0 0.05788,0.0041 0.02205,0.0028 0.03445,0.0083 0.01378,0.0055 0.01791,0.01378 0.0055,0.0083 0.0055,0.01791 0,0.01792 -0.0096,0.03583 -0.0083,0.01791 -0.03307,0.04961 l -0.591178,0.706933 0.636653,0.846114 q 0.02343,0.03583 0.02756,0.04961 0.0055,0.0124 0.0055,0.02067 z"
         id="path862" />
    </g>
  </g>
</svg>
