<?xml version="1.0" encoding="UTF-8" standalone="no"?>
<!-- Created with Inkscape (http://www.inkscape.org/) -->

<svg
   width="15.24mm"
   height="128.5mm"
   viewBox="0 0 15.24 128.5"
   version="1.1"
   id="svg5"
   inkscape:version="1.1.2 (b8e25be833, 2022-02-05)"
   sodipodi:docname="VCASR.svg"
   xmlns:inkscape="http://www.inkscape.org/namespaces/inkscape"
   xmlns:sodipodi="http://sodipodi.sourceforge.net/DTD/sodipodi-0.dtd"
   xmlns="http://www.w3.org/2000/svg"
   xmlns:svg="http://www.w3.org/2000/svg">
  <sodipodi:namedview
     id="namedview7"
     pagecolor="#ffffff"
     bordercolor="#666666"
     borderopacity="1.0"
     inkscape:pageshadow="2"
     inkscape:pageopacity="0.0"
     inkscape:pagecheckerboard="0"
     inkscape:document-units="mm"
     showgrid="false"
     height="128.5mm"
     inkscape:zoom="2"
     inkscape:cx="-116.75"
     inkscape:cy="231.75"
     inkscape:window-width="3840"
     inkscape:window-height="2054"
     inkscape:window-x="-11"
     inkscape:window-y="-11"
     inkscape:window-maximized="0"
     inkscape:current-layer="layer1" />
  <defs
     id="defs2">
    <rect
       x="-215.5"
       y="107"
       width="105.5"
       height="156"
       id="rect74366" />
  </defs>
  <g
     inkscape:label="Layer 1"
     inkscape:groupmode="layer"
     id="layer1">
    <path
       id="rect4302"
       style="fill:#111111;stroke-width:0.184931"
       d="M -0.00163784,1.6577559e-8 H 15.242541 V 128.50433 H -0.00163784 Z" />
    <path
       id="rect10313-6"
       style="fill:#555555;stroke-width:0.264582"
       transform="matrix(1,0,0.00154751,0.9999988,0,0)"
       d="m 2.9768554,67.000076 h 9.0000006 c 0.831,0 1.5,0.669001 1.5,1.500001 v 48.000053 c 0,0.831 -0.669,1.5 -1.5,1.5 H 2.9768554 c -0.8309999,0 -1.4999998,-0.669 -1.4999998,-1.5 V 68.500077 c 0,-0.831 0.6689999,-1.500001 1.4999998,-1.500001 z" />
    <path
       id="rect10313"
       style="fill:#AAAAAA;stroke-width:0.264583"
       d="m 3.0805384,6 h 9.0000006 c 0.831,0 1.5,0.6689999 1.5,1.4999998 V 65 c 0,0.831 -0.669,1.5 -1.5,1.5 H 3.0805384 C 2.2495385,66.5 1.5805386,65.831 1.5805386,65 V 7.4999998 C 1.5805386,6.6689999 2.2495385,6 3.0805384,6 Z" />
    <path
       id="rect1321"
       style="fill:#AAAAAA;stroke:#00a6a9;stroke-width:0"
       d="M 1.5805391,58 H 13.580539 v 9.999999 H 1.5805391 Z" />
    <path
       id="rect10313-4"
       style="fill:#AAAAAA;stroke-width:0.264583"
       d="m 3.1204513,136.22836 h 9.0000007 c 0.831,0 1.5,0.669 1.5,1.5 v 9.59748 c 0,0.831 -0.669,1.5 -1.5,1.5 H 3.1204513 c -0.8309998,0 -1.4999997,-0.669 -1.4999997,-1.5 v -9.59748 c 0,-0.831 0.6689999,-1.5 1.4999997,-1.5 z" />
    <g
       aria-label="2 LIFT"
       id="text8544-7-0-8-5-9"
       style="font-size:2.46944px;line-height:1.25;font-family:Calibri;-inkscape-font-specification:Calibri;text-align:center;text-anchor:middle;fill:#ffffff;stroke-width:0.264583">
      <path
         d="m 3.1378681,125.36831 q 0,0.0145 -0.00362,0.0277 -0.00241,0.0121 -0.00844,0.0217 -0.00482,0.008 -0.013264,0.0133 -0.00844,0.005 -0.019293,0.005 H 2.2504131 q -0.010852,0 -0.020498,-0.004 -0.00965,-0.004 -0.016881,-0.0109 -0.00723,-0.008 -0.010852,-0.0217 -0.00362,-0.0133 -0.00362,-0.0314 0,-0.0157 0.00121,-0.0277 0.00121,-0.0121 0.00482,-0.0217 0.00362,-0.01 0.00965,-0.0193 0.00603,-0.01 0.015675,-0.0205 l 0.319532,-0.33762 q 0.1193724,-0.1254 0.1893077,-0.22428 0.071141,-0.0989 0.1085203,-0.17845 0.037379,-0.0796 0.048231,-0.1447 0.012058,-0.0651 0.012058,-0.12299 0,-0.0579 -0.019293,-0.10972 -0.018087,-0.0531 -0.05426,-0.0916 -0.036173,-0.0398 -0.090434,-0.0627 -0.053054,-0.0241 -0.1229897,-0.0241 -0.075964,0 -0.1362533,0.0217 -0.060289,0.0205 -0.1061087,0.047 -0.044614,0.0253 -0.074758,0.047 -0.030145,0.0205 -0.044614,0.0205 -0.00723,0 -0.013264,-0.004 -0.00603,-0.004 -0.010852,-0.0109 -0.00362,-0.008 -0.00603,-0.0205 -0.00121,-0.0121 -0.00121,-0.0277 0,-0.0145 0.00121,-0.0241 0.00121,-0.01 0.00362,-0.0169 0.00241,-0.008 0.00603,-0.0157 0.00482,-0.007 0.018087,-0.0193 0.014469,-0.0121 0.047026,-0.0326 0.033762,-0.0205 0.084405,-0.041 0.050643,-0.0217 0.1121377,-0.0362 0.061495,-0.0157 0.1278128,-0.0157 0.1097261,0 0.1905134,0.0326 0.081993,0.0326 0.1362533,0.088 0.05426,0.0555 0.080787,0.12901 0.026527,0.0724 0.026527,0.15314 0,0.0748 -0.013264,0.14952 -0.012058,0.0736 -0.05426,0.16157 -0.040997,0.0868 -0.1205781,0.19293 -0.078376,0.1061 -0.209806,0.24477 l -0.2845643,0.29783 h 0.7138225 q 0.00965,0 0.018087,0.005 0.00844,0.004 0.014469,0.0121 0.00603,0.008 0.00844,0.0205 0.00362,0.0121 0.00362,0.0265 z"
         style="font-weight:300;-inkscape-font-specification:'Calibri Light'"
         id="path947" />
      <path
         d="m 4.8645468,125.36831 q 0,0.0169 -0.00241,0.0289 -0.00241,0.0121 -0.00723,0.0217 -0.00482,0.008 -0.012058,0.0133 -0.00723,0.004 -0.016881,0.004 H 4.1495185 q -0.021704,0 -0.044614,-0.0157 -0.02291,-0.0169 -0.02291,-0.0603 v -1.4602 q 0,-0.007 0.00362,-0.0133 0.00362,-0.006 0.012058,-0.01 0.00844,-0.004 0.02291,-0.006 0.014469,-0.002 0.034968,-0.002 0.021704,0 0.034968,0.002 0.014469,0.002 0.02291,0.006 0.00844,0.004 0.012058,0.01 0.00362,0.006 0.00362,0.0133 v 1.40233 h 0.5968617 q 0.00965,0 0.016881,0.005 0.00723,0.004 0.012058,0.0121 0.00482,0.007 0.00723,0.0205 0.00241,0.0121 0.00241,0.0289 z"
         style="font-weight:300;-inkscape-font-specification:'Calibri Light'"
         id="path949" />
      <path
         d="m 5.2636605,125.41172 q 0,0.007 -0.00362,0.0133 -0.00362,0.006 -0.012058,0.01 -0.00844,0.004 -0.02291,0.006 -0.013264,0.002 -0.034968,0.002 -0.020498,0 -0.034968,-0.002 -0.014469,-0.002 -0.02291,-0.006 -0.00844,-0.004 -0.012058,-0.01 -0.00362,-0.006 -0.00362,-0.0133 v -1.51205 q 0,-0.007 0.00362,-0.0133 0.00482,-0.006 0.013264,-0.01 0.00965,-0.004 0.02291,-0.006 0.014469,-0.002 0.033762,-0.002 0.021704,0 0.034968,0.002 0.014469,0.002 0.02291,0.006 0.00844,0.004 0.012058,0.01 0.00362,0.006 0.00362,0.0133 z"
         style="font-weight:300;-inkscape-font-specification:'Calibri Light'"
         id="path951" />
      <path
         d="m 6.5092324,123.94308 q 0,0.0157 -0.00241,0.0277 -0.00241,0.0121 -0.00844,0.0205 -0.00482,0.007 -0.012058,0.0121 -0.00723,0.004 -0.015675,0.004 H 5.866551 v 0.59083 h 0.5727461 q 0.00844,0 0.015675,0.004 0.00723,0.002 0.012058,0.01 0.00603,0.007 0.00844,0.0193 0.00241,0.0121 0.00241,0.0302 0,0.0157 -0.00241,0.0277 -0.00241,0.0121 -0.00844,0.0205 -0.00482,0.007 -0.012058,0.0121 -0.00723,0.004 -0.015675,0.004 H 5.866551 v 0.68729 q 0,0.007 -0.00362,0.0133 -0.00362,0.006 -0.012058,0.01 -0.00844,0.004 -0.02291,0.006 -0.013264,0.002 -0.034968,0.002 -0.020498,0 -0.034968,-0.002 -0.014469,-0.002 -0.02291,-0.006 -0.00844,-0.004 -0.012058,-0.01 -0.00362,-0.006 -0.00362,-0.0133 v -1.4602 q 0,-0.0434 0.02291,-0.0591 0.02291,-0.0169 0.044614,-0.0169 h 0.6836779 q 0.00844,0 0.015675,0.005 0.00723,0.004 0.012058,0.0121 0.00603,0.008 0.00844,0.0217 0.00241,0.0121 0.00241,0.0289 z"
         style="font-weight:300;-inkscape-font-specification:'Calibri Light'"
         id="path953" />
      <path
         d="m 7.8006243,123.94308 q 0,0.0157 -0.00241,0.0277 -0.00241,0.0121 -0.00723,0.0205 -0.00482,0.007 -0.012058,0.0121 -0.00723,0.004 -0.015675,0.004 H 7.2978136 v 1.40473 q 0,0.007 -0.00362,0.0133 -0.00362,0.006 -0.012058,0.01 -0.00844,0.004 -0.02291,0.006 -0.014469,0.002 -0.034968,0.002 -0.020498,0 -0.034968,-0.002 -0.014469,-0.002 -0.02291,-0.006 -0.00844,-0.004 -0.012058,-0.01 -0.00362,-0.006 -0.00362,-0.0133 v -1.40473 H 6.6852767 q -0.00965,0 -0.016881,-0.004 -0.00603,-0.005 -0.010852,-0.0121 -0.00482,-0.008 -0.00723,-0.0205 -0.00241,-0.0121 -0.00241,-0.0277 0,-0.0169 0.00241,-0.0289 0.00241,-0.0133 0.00723,-0.0217 0.00482,-0.008 0.010852,-0.0121 0.00723,-0.005 0.016881,-0.005 h 1.0779684 q 0.00844,0 0.015675,0.005 0.00723,0.004 0.012058,0.0121 0.00482,0.008 0.00723,0.0217 0.00241,0.0121 0.00241,0.0289 z"
         style="font-weight:300;-inkscape-font-specification:'Calibri Light'"
         id="path955" />
    </g>
    <g
       aria-label="IN"
       id="text8544-7-1"
       style="font-size:2.82222px;line-height:1.25;font-family:Calibri;-inkscape-font-specification:Calibri;text-align:center;text-anchor:middle;stroke-width:0.264583">
      <path
         d="m 6.7894949,18.75562 q 0,0.01102 -0.00551,0.01929 -0.00551,0.0083 -0.019293,0.01378 -0.01378,0.0041 -0.037207,0.0069 -0.022049,0.0041 -0.0565,0.0041 -0.033073,0 -0.0565,-0.0041 -0.023427,-0.0028 -0.037207,-0.0069 -0.01378,-0.0055 -0.019293,-0.01378 -0.00551,-0.0083 -0.00551,-0.01929 v -1.711523 q 0,-0.01102 0.00551,-0.01929 0.00689,-0.0083 0.020671,-0.0124 0.015158,-0.0055 0.037207,-0.0083 Q 6.6392889,17 6.6709837,17 q 0.034451,0 0.0565,0.0041 0.023427,0.0028 0.037207,0.0083 0.01378,0.0041 0.019293,0.0124 0.00551,0.0083 0.00551,0.01929 z"
         id="path942" />
      <path
         d="m 8.61126,18.693608 q 0,0.02756 -0.00965,0.04685 -0.00827,0.01929 -0.023427,0.03169 -0.01378,0.0124 -0.031695,0.01792 -0.017914,0.0055 -0.035829,0.0055 h -0.075792 q -0.035829,0 -0.06339,-0.0069 -0.026183,-0.0083 -0.050987,-0.02756 -0.023427,-0.02067 -0.048231,-0.05512 -0.023427,-0.03445 -0.052365,-0.08819 L 7.6576583,17.603581 q -0.044097,-0.07855 -0.089572,-0.163987 -0.044097,-0.08682 -0.082682,-0.16812 h -0.00276 q 0.00276,0.09922 0.00413,0.202571 0.00138,0.103353 0.00138,0.205328 v 1.076247 q 0,0.0096 -0.00551,0.01929 -0.00551,0.0083 -0.019292,0.01378 -0.012402,0.0041 -0.034451,0.0069 -0.020671,0.0041 -0.053743,0.0041 -0.033073,0 -0.055122,-0.0041 -0.020671,-0.0028 -0.033073,-0.0069 -0.012402,-0.0055 -0.017914,-0.01378 -0.00551,-0.0096 -0.00551,-0.01929 v -1.645377 q 0,-0.05512 0.030317,-0.07855 0.030317,-0.02343 0.066146,-0.02343 h 0.1129991 q 0.039963,0 0.066146,0.0069 0.027561,0.0069 0.048231,0.02343 0.022049,0.01516 0.041341,0.0441 0.02067,0.02756 0.044097,0.07028 l 0.4327037,0.782726 q 0.039963,0.07166 0.07717,0.140559 0.037207,0.06752 0.071658,0.13367 0.034451,0.06615 0.067524,0.130913 0.034451,0.06339 0.067524,0.128158 h 0.00138 q -0.00276,-0.108865 -0.00413,-0.225998 0,-0.118511 0,-0.227376 v -0.967382 q 0,-0.0096 0.00551,-0.01791 0.00551,-0.0083 0.017914,-0.01378 0.01378,-0.0069 0.034451,-0.0096 0.022049,-0.0028 0.0565,-0.0028 0.030317,0 0.052365,0.0028 0.022049,0.0028 0.034451,0.0096 0.012402,0.0055 0.017915,0.01378 0.00551,0.0083 0.00551,0.01791 z"
         id="path944" />
    </g>
    <g
       aria-label="ENV"
       id="text8544-7-1-9"
       style="font-size:2.82222px;line-height:1.25;font-family:Calibri;-inkscape-font-specification:Calibri;text-align:center;text-anchor:middle;fill:#ffffff;stroke-width:0.264583">
      <path
         d="m 6.2736452,116.71152 q 0,0.0248 -0.00276,0.0441 -0.00276,0.0179 -0.00965,0.0303 -0.00689,0.0124 -0.016536,0.0179 -0.00827,0.006 -0.019292,0.006 h -0.855761 q -0.031695,0 -0.060634,-0.0207 -0.027561,-0.0221 -0.027561,-0.0758 v -1.59025 q 0,-0.0537 0.027561,-0.0744 0.028939,-0.0221 0.060634,-0.0221 h 0.8461148 q 0.011024,0 0.019293,0.006 0.00965,0.006 0.015158,0.0179 0.00551,0.0124 0.00827,0.0317 0.00413,0.0179 0.00413,0.0455 0,0.0248 -0.00413,0.0441 -0.00276,0.0179 -0.00827,0.0303 -0.00551,0.011 -0.015158,0.0165 -0.00827,0.006 -0.019293,0.006 H 5.5184809 v 0.55948 H 6.116549 q 0.011024,0 0.019292,0.007 0.00965,0.006 0.015158,0.0165 0.00689,0.011 0.00965,0.0303 0.00276,0.0193 0.00276,0.0455 0,0.0248 -0.00276,0.0427 -0.00276,0.0179 -0.00965,0.0289 -0.00551,0.011 -0.015158,0.0165 -0.00827,0.004 -0.019292,0.004 H 5.5184809 v 0.63803 h 0.706933 q 0.011024,0 0.019292,0.006 0.00965,0.006 0.016536,0.0179 0.00689,0.011 0.00965,0.0303 0.00276,0.0179 0.00276,0.0455 z"
         id="path935" />
      <path
         d="m 8.0072159,116.71152 q 0,0.0276 -0.00965,0.0469 -0.00827,0.0193 -0.023427,0.0317 -0.01378,0.0124 -0.031695,0.0179 -0.017915,0.006 -0.035829,0.006 h -0.075792 q -0.035829,0 -0.06339,-0.007 -0.026183,-0.008 -0.050987,-0.0276 -0.023427,-0.0207 -0.048231,-0.0551 -0.023427,-0.0345 -0.052365,-0.0882 l -0.5622392,-1.01423 q -0.044097,-0.0785 -0.089572,-0.16399 -0.044097,-0.0868 -0.082682,-0.16812 h -0.00276 q 0.00276,0.0992 0.00413,0.20257 0.00138,0.10336 0.00138,0.20533 v 1.07625 q 0,0.01 -0.00551,0.0193 -0.00551,0.008 -0.019292,0.0138 -0.012402,0.004 -0.034451,0.007 -0.020671,0.004 -0.053743,0.004 -0.033073,0 -0.055122,-0.004 -0.020671,-0.003 -0.033073,-0.007 -0.012402,-0.006 -0.017914,-0.0138 -0.00551,-0.01 -0.00551,-0.0193 v -1.64538 q 0,-0.0551 0.030317,-0.0786 0.030317,-0.0234 0.066146,-0.0234 h 0.112999 q 0.039963,0 0.066146,0.007 0.027561,0.007 0.048231,0.0234 0.022049,0.0152 0.041341,0.0441 0.020671,0.0276 0.044097,0.0703 l 0.4327037,0.78273 q 0.039963,0.0717 0.07717,0.14056 0.037207,0.0675 0.071658,0.13367 0.034451,0.0661 0.067524,0.13091 0.034451,0.0634 0.067524,0.12816 h 0.00138 q -0.00276,-0.10887 -0.00413,-0.226 0,-0.11851 0,-0.22738 v -0.96738 q 0,-0.01 0.00551,-0.0179 0.00551,-0.008 0.017914,-0.0138 0.01378,-0.007 0.034451,-0.01 0.022049,-0.003 0.0565,-0.003 0.030317,0 0.052365,0.003 0.022049,0.003 0.034451,0.01 0.012402,0.006 0.017914,0.0138 0.00551,0.008 0.00551,0.0179 z"
         id="path937" />
      <path
         d="m 9.2019741,116.76802 q -0.00551,0.0151 -0.015158,0.0248 -0.00965,0.01 -0.027561,0.0152 -0.016536,0.006 -0.044097,0.007 -0.026183,0.003 -0.066146,0.003 -0.030317,0 -0.053743,-0.001 -0.022049,0 -0.038585,-0.003 -0.016537,-0.003 -0.028939,-0.006 -0.011024,-0.004 -0.019293,-0.01 -0.00827,-0.006 -0.01378,-0.0124 -0.00413,-0.008 -0.00827,-0.0193 l -0.5829098,-1.6564 q -0.011024,-0.0303 -0.012402,-0.0482 0,-0.0193 0.012402,-0.0289 0.012402,-0.01 0.039963,-0.0124 0.027561,-0.003 0.074414,-0.003 0.038585,0 0.060634,0.003 0.023427,0.001 0.035829,0.007 0.012402,0.006 0.017914,0.0152 0.00689,0.008 0.012402,0.0221 l 0.5112518,1.50068 h 0.00138 l 0.4974714,-1.49792 q 0.00413,-0.0152 0.00965,-0.0248 0.00551,-0.01 0.019293,-0.0152 0.01378,-0.006 0.038585,-0.007 0.024805,-0.003 0.066146,-0.003 0.042719,0 0.067524,0.004 0.024805,0.003 0.033073,0.0124 0.00965,0.01 0.00689,0.0289 -0.00138,0.0179 -0.012402,0.0482 z"
         id="path939" />
    </g>
    <g
       aria-label="VCASR"
       transform="scale(0.97740817,1.023114)"
       id="text8544-7-0-8-5"
       style="font-size:4.13768px;line-height:1.25;font-family:Calibri;-inkscape-font-specification:Calibri;text-align:center;letter-spacing:0.258606px;text-anchor:middle;fill:#ffffff;stroke-width:0.264583">
      <path
         d="m 3.3395323,119.89322 q -0.00606,0.0162 -0.018183,0.0283 -0.012122,0.0101 -0.032326,0.0162 -0.018183,0.006 -0.046468,0.008 -0.026265,0.004 -0.060611,0.004 -0.024244,0 -0.044448,-0.002 -0.020204,0 -0.036366,-0.004 -0.016163,-0.002 -0.028285,-0.006 -0.012122,-0.004 -0.022224,-0.0101 -0.010102,-0.006 -0.016163,-0.0142 -0.00606,-0.008 -0.010102,-0.0202 l -0.8950158,-2.48705 q -0.012122,-0.0303 -0.012122,-0.0485 0.00202,-0.0202 0.016163,-0.0303 0.014143,-0.0101 0.042427,-0.0121 0.028285,-0.004 0.074753,-0.004 0.038387,0 0.060611,0.004 0.024244,0.002 0.036366,0.008 0.014143,0.006 0.020204,0.0162 0.00808,0.0101 0.014143,0.0242 l 0.8121813,2.30118 h 0.00202 l 0.7879371,-2.30118 q 0.00404,-0.0141 0.010102,-0.0242 0.00606,-0.0101 0.020203,-0.0162 0.016163,-0.006 0.042427,-0.008 0.026264,-0.004 0.068692,-0.004 0.046468,0 0.072733,0.004 0.028285,0.004 0.038387,0.0141 0.012122,0.0101 0.010102,0.0283 0,0.0182 -0.012122,0.0485 z"
         style="font-weight:300;-inkscape-font-specification:'Calibri Light'"
         id="path924" />
      <path
         d="m 6.6609913,119.58209 q 0,0.0222 -0.00202,0.0404 -0.00202,0.0182 -0.00606,0.0323 -0.00404,0.0141 -0.012122,0.0263 -0.00606,0.0121 -0.026264,0.0323 -0.018183,0.0182 -0.082834,0.0626 -0.064651,0.0424 -0.1636484,0.0849 -0.096977,0.0424 -0.2242591,0.0727 -0.1272821,0.0303 -0.2808288,0.0303 -0.2464829,0 -0.4464977,-0.0849 -0.2000148,-0.0869 -0.3414395,-0.25255 -0.1394042,-0.16567 -0.2161776,-0.40811 -0.074753,-0.24244 -0.074753,-0.55357 0,-0.31922 0.080814,-0.57176 0.080814,-0.25457 0.2262794,-0.43034 0.1474856,-0.17779 0.3515411,-0.27073 0.2060759,-0.0949 0.4545791,-0.0949 0.1171804,0 0.2262794,0.0222 0.1111194,0.0222 0.2040555,0.0566 0.092936,0.0344 0.1656689,0.0788 0.074753,0.0444 0.1010175,0.0727 0.028285,0.0263 0.034346,0.0384 0.00808,0.0121 0.012122,0.0283 0.00404,0.0141 0.00606,0.0344 0.00202,0.0182 0.00202,0.0424 0,0.0283 -0.00404,0.0505 -0.00202,0.0202 -0.010102,0.0364 -0.00606,0.0141 -0.016163,0.0222 -0.010102,0.008 -0.024244,0.008 -0.028285,0 -0.080814,-0.0404 -0.050509,-0.0424 -0.1353636,-0.0929 -0.082834,-0.0505 -0.2040555,-0.0909 -0.1212211,-0.0424 -0.2889103,-0.0424 -0.183852,0 -0.3373987,0.0747 -0.1535467,0.0727 -0.264666,0.21618 -0.109099,0.14344 -0.1717299,0.35356 -0.060611,0.21012 -0.060611,0.48286 0,0.26063 0.05657,0.46266 0.05657,0.20204 0.1636484,0.34144 0.1070787,0.13739 0.2646661,0.21012 0.1575874,0.0727 0.3576022,0.0727 0.1636485,0 0.2848696,-0.0404 0.1232415,-0.0424 0.2101166,-0.0929 0.086875,-0.0505 0.1414246,-0.0909 0.05657,-0.0424 0.086875,-0.0424 0.012122,0 0.020204,0.006 0.00808,0.004 0.012122,0.0182 0.00606,0.0121 0.00808,0.0344 0.00404,0.0222 0.00404,0.0545 z"
         style="font-weight:300;-inkscape-font-specification:'Calibri Light'"
         id="path926" />
      <path
         d="m 9.2793683,119.85483 q 0.012122,0.0303 0.010102,0.0505 0,0.0182 -0.014143,0.0283 -0.012122,0.0101 -0.040407,0.0121 -0.026265,0.004 -0.068692,0.004 -0.042427,0 -0.068692,-0.004 -0.024244,-0.002 -0.038387,-0.008 -0.014142,-0.006 -0.022224,-0.0162 -0.00606,-0.0101 -0.012122,-0.0242 L 8.7742804,119.20024 H 7.6267207 l -0.2404219,0.69298 q -0.00404,0.0141 -0.012122,0.0242 -0.00808,0.0101 -0.022224,0.0182 -0.014142,0.006 -0.040407,0.0101 -0.024244,0.004 -0.062631,0.004 -0.042427,0 -0.070712,-0.004 -0.028285,-0.004 -0.042427,-0.0141 -0.012122,-0.0101 -0.014142,-0.0283 0,-0.0182 0.012122,-0.0485 l 0.9152192,-2.48705 q 0.00606,-0.0162 0.018183,-0.0263 0.012122,-0.0121 0.030305,-0.0182 0.020203,-0.006 0.046468,-0.008 0.028285,-0.004 0.062631,-0.004 0.036366,0 0.062631,0.004 0.028285,0.002 0.046468,0.008 0.020204,0.006 0.030305,0.0182 0.012122,0.0101 0.018183,0.0263 z M 8.1944394,117.588 h -0.00202 l -0.4929658,1.40616 h 1.000074 z"
         style="font-weight:300;-inkscape-font-specification:'Calibri Light'"
         id="path928" />
      <path
         d="m 11.336087,119.23054 q 0,0.17376 -0.06263,0.31114 -0.06263,0.13738 -0.17577,0.23436 -0.11314,0.095 -0.268707,0.14547 -0.155567,0.0505 -0.339419,0.0505 -0.125262,0 -0.236381,-0.0242 -0.11112,-0.0222 -0.197995,-0.0546 -0.086875,-0.0323 -0.1474854,-0.0647 -0.05859,-0.0344 -0.080814,-0.0566 -0.022224,-0.0243 -0.032326,-0.0546 -0.010102,-0.0323 -0.010102,-0.0788 0,-0.0344 0.00404,-0.0566 0.00404,-0.0222 0.010102,-0.0364 0.00808,-0.0141 0.018183,-0.0182 0.012122,-0.006 0.024244,-0.006 0.028285,0 0.078794,0.0364 0.052529,0.0344 0.1333433,0.0768 0.08283,0.0404 0.195974,0.0768 0.11516,0.0343 0.266686,0.0343 0.123242,0 0.22628,-0.0323 0.103038,-0.0343 0.177791,-0.097 0.07475,-0.0626 0.11516,-0.15354 0.04243,-0.0929 0.04243,-0.21012 0,-0.12122 -0.05253,-0.2081 -0.05253,-0.0869 -0.139404,-0.15152 -0.08485,-0.0667 -0.193954,-0.1192 -0.109099,-0.0546 -0.224259,-0.10708 -0.11314,-0.0546 -0.222239,-0.11718 -0.109099,-0.0626 -0.195974,-0.14547 -0.084855,-0.0848 -0.1373837,-0.19799 -0.052529,-0.11314 -0.052529,-0.26871 0,-0.15153 0.05455,-0.27073 0.05455,-0.12122 0.1535464,-0.20405 0.099,-0.0849 0.236381,-0.12931 0.139405,-0.0444 0.305074,-0.0444 0.08283,0 0.167689,0.0162 0.08485,0.0162 0.159608,0.0424 0.07677,0.0242 0.135363,0.0566 0.06061,0.0303 0.07879,0.0505 0.0202,0.0182 0.02424,0.0283 0.0061,0.008 0.0101,0.0222 0.004,0.0142 0.0061,0.0344 0.002,0.0182 0.002,0.0465 0,0.0263 -0.004,0.0485 -0.002,0.0202 -0.0081,0.0364 -0.0061,0.0142 -0.01616,0.0222 -0.0081,0.008 -0.0202,0.008 -0.02222,0 -0.06869,-0.0283 -0.04445,-0.0303 -0.11314,-0.0667 -0.06869,-0.0364 -0.163648,-0.0647 -0.09496,-0.0303 -0.216178,-0.0303 -0.119201,0 -0.208096,0.0323 -0.0889,0.0323 -0.147486,0.0889 -0.05859,0.0545 -0.0889,0.1293 -0.02829,0.0747 -0.02829,0.15759 0,0.12122 0.05253,0.20809 0.05253,0.0869 0.139404,0.15355 0.08687,0.0667 0.195974,0.12122 0.11112,0.0525 0.224259,0.10708 0.11516,0.0525 0.224259,0.11516 0.11112,0.0606 0.197995,0.14546 0.08687,0.0828 0.139404,0.19598 0.05253,0.11112 0.05253,0.26466 z"
         style="font-weight:300;-inkscape-font-specification:'Calibri Light'"
         id="path930" />
      <path
         d="m 13.780714,119.89322 q 0,0.0141 -0.0061,0.0242 -0.004,0.0101 -0.01818,0.0182 -0.01414,0.006 -0.04041,0.0101 -0.02424,0.004 -0.06263,0.004 -0.03435,0 -0.05859,-0.004 -0.02222,-0.002 -0.03839,-0.0101 -0.01616,-0.0101 -0.02627,-0.0242 -0.0101,-0.0162 -0.01818,-0.0404 l -0.244463,-0.63439 q -0.04243,-0.10708 -0.09091,-0.20204 -0.04849,-0.095 -0.117181,-0.16365 -0.06869,-0.0707 -0.165669,-0.11112 -0.09698,-0.0404 -0.23234,-0.0404 h -0.270727 v 1.17786 q 0,0.0121 -0.0061,0.0222 -0.0061,0.0101 -0.0202,0.0162 -0.01414,0.006 -0.03839,0.0101 -0.02222,0.004 -0.05859,0.004 -0.03435,0 -0.05859,-0.004 -0.02424,-0.004 -0.03839,-0.0101 -0.01414,-0.006 -0.0202,-0.0162 -0.0061,-0.0101 -0.0061,-0.0222 v -2.44664 q 0,-0.0727 0.03839,-0.099 0.03839,-0.0283 0.07475,-0.0283 h 0.490945 q 0.09698,0 0.159608,0.006 0.06465,0.004 0.11718,0.0121 0.149506,0.0263 0.260626,0.0849 0.111119,0.0586 0.183852,0.14547 0.07273,0.0849 0.107078,0.19395 0.03637,0.10708 0.03637,0.23234 0,0.1293 -0.03637,0.23234 -0.03637,0.10102 -0.103038,0.17981 -0.06667,0.0768 -0.159607,0.13335 -0.09294,0.0566 -0.204056,0.095 0.06667,0.0303 0.119201,0.0747 0.05455,0.0444 0.099,0.10708 0.04647,0.0626 0.08687,0.14547 0.04041,0.0808 0.08081,0.18183 l 0.244463,0.61015 q 0.02626,0.0707 0.03233,0.097 0.0081,0.0263 0.0081,0.0384 z m -0.434376,-1.86883 q 0,-0.16768 -0.07475,-0.28284 -0.07475,-0.11718 -0.250523,-0.16769 -0.05859,-0.0162 -0.127283,-0.0222 -0.06869,-0.008 -0.179811,-0.008 h -0.323256 v 0.95967 h 0.375785 q 0.151527,0 0.260626,-0.0364 0.109099,-0.0384 0.179811,-0.10304 0.07273,-0.0647 0.105058,-0.15152 0.03435,-0.0869 0.03435,-0.1879 z"
         style="font-weight:300;-inkscape-font-specification:'Calibri Light'"
         id="path932" />
    </g>
    <g
       transform="scale(0.26458333)"
       id="text74364"
       style="font-size:40px;line-height:1.25;font-family:Calibri;-inkscape-font-specification:Calibri;white-space:pre;shape-inside:url(#rect74366)" />
    <g
       aria-label="GATE"
       id="text8544-7-1-1"
       style="font-size:2.82222px;line-height:1.25;font-family:Calibri;-inkscape-font-specification:Calibri;text-align:center;text-anchor:middle;stroke-width:0.264583">
      <path
         d="m 4.685073,29.500803 q 0,0.02618 -0.00276,0.04685 -0.00276,0.01929 -0.00827,0.03307 -0.00551,0.0124 -0.01378,0.01791 -0.00827,0.0055 -0.017914,0.0055 -0.016536,0 -0.055121,-0.02618 -0.038585,-0.02618 -0.1033528,-0.05788 -0.064768,-0.03169 -0.1557182,-0.05788 -0.089572,-0.02618 -0.2135958,-0.02618 -0.1474499,0 -0.2645831,0.05374 -0.1171331,0.05374 -0.1984373,0.148828 -0.081304,0.09508 -0.1254014,0.225998 -0.042719,0.130913 -0.042719,0.283876 0,0.170876 0.046853,0.303168 0.048231,0.132291 0.1322916,0.223242 0.08406,0.09095 0.1998153,0.137803 0.1171332,0.04685 0.256315,0.04685 0.082682,0 0.1667424,-0.01929 0.085438,-0.02067 0.1584743,-0.06063 v -0.51952 H 4.0305054 q -0.023427,0 -0.035829,-0.02343 -0.011024,-0.02343 -0.011024,-0.07304 0,-0.02618 0.00276,-0.0441 0.00276,-0.01929 0.00827,-0.03032 0.00689,-0.0124 0.015158,-0.01791 0.00827,-0.0055 0.020671,-0.0055 h 0.5663732 q 0.015159,0 0.030317,0.0055 0.015158,0.0055 0.027561,0.01654 0.012402,0.01102 0.019293,0.03032 0.00689,0.01929 0.00689,0.0441 v 0.679372 q 0,0.03583 -0.012402,0.06201 -0.012402,0.02618 -0.052365,0.04685 -0.039963,0.01929 -0.1033528,0.04272 -0.06339,0.02343 -0.1309136,0.03996 -0.067524,0.01654 -0.1364256,0.0248 -0.068902,0.0083 -0.1364257,0.0083 -0.2067056,0 -0.369314,-0.06339 -0.1626083,-0.06477 -0.2756074,-0.183279 -0.111621,-0.118512 -0.1708766,-0.283876 -0.059256,-0.165364 -0.059256,-0.369314 0,-0.212218 0.06339,-0.384472 0.064768,-0.172255 0.1805229,-0.293522 0.1171331,-0.121268 0.2797415,-0.187413 0.1639864,-0.06752 0.3624238,-0.06752 0.1019747,0 0.1915472,0.01791 0.089572,0.01792 0.1584742,0.04272 0.07028,0.02343 0.1171332,0.05237 0.048231,0.02756 0.066146,0.04547 0.017915,0.01791 0.024805,0.04134 0.00689,0.02343 0.00689,0.06752 z"
         id="path914" />
      <path
         d="m 6.4613629,30.957388 q 0.011024,0.03032 0.011024,0.04961 0.00138,0.01791 -0.00965,0.02756 -0.011024,0.0096 -0.037207,0.0124 -0.024805,0.0028 -0.067524,0.0028 -0.042719,0 -0.068902,-0.0028 -0.024805,-0.0014 -0.038585,-0.0055 -0.012402,-0.0055 -0.019292,-0.01378 -0.00551,-0.0083 -0.011024,-0.02067 L 6.0672443,30.572916 h -0.741384 l -0.1460719,0.42857 q -0.00413,0.0124 -0.011024,0.02205 -0.00689,0.0083 -0.020671,0.01516 -0.012402,0.0055 -0.037207,0.0083 -0.023427,0.0028 -0.062012,0.0028 -0.039963,0 -0.066146,-0.0041 -0.024805,-0.0028 -0.035829,-0.0124 -0.00965,-0.0096 -0.00965,-0.02756 0.00138,-0.01929 0.012402,-0.04961 l 0.5980681,-1.6564 q 0.00551,-0.01516 0.01378,-0.02481 0.00965,-0.0096 0.026183,-0.01516 0.017914,-0.0055 0.044097,-0.0069 0.027561,-0.0028 0.068902,-0.0028 0.044097,0 0.073036,0.0028 0.028939,0.0014 0.046853,0.0069 0.017914,0.0055 0.027561,0.01654 0.00965,0.0096 0.015158,0.02481 z M 5.6937962,29.495291 h -0.00138 l -0.3073023,0.888834 h 0.6201167 z"
         id="path916" />
      <path
         d="m 7.6561211,29.360243 q 0,0.02618 -0.00276,0.04547 -0.00276,0.01929 -0.00965,0.03169 -0.00551,0.01103 -0.015158,0.01654 -0.00827,0.0055 -0.019292,0.0055 H 7.1076624 v 1.546158 q 0,0.01102 -0.00551,0.01929 -0.00551,0.0083 -0.019292,0.01378 -0.01378,0.0041 -0.037207,0.0069 -0.022049,0.0041 -0.0565,0.0041 -0.033073,0 -0.0565,-0.0041 -0.023427,-0.0028 -0.037207,-0.0069 -0.01378,-0.0055 -0.019293,-0.01378 -0.00551,-0.0083 -0.00551,-0.01929 V 29.459462 H 6.3690344 q -0.011024,0 -0.020671,-0.0055 -0.00827,-0.0055 -0.01378,-0.01654 -0.00551,-0.0124 -0.00965,-0.03169 -0.00276,-0.01929 -0.00276,-0.04547 0,-0.02618 0.00276,-0.04547 0.00413,-0.02067 0.00965,-0.03307 0.00551,-0.0124 0.01378,-0.01791 0.00965,-0.0055 0.020671,-0.0055 h 1.2402335 q 0.011024,0 0.019292,0.0055 0.00965,0.0055 0.015158,0.01791 0.00689,0.0124 0.00965,0.03307 0.00276,0.01929 0.00276,0.04547 z"
         id="path918" />
      <path
         d="m 8.9060011,30.943608 q 0,0.02481 -0.00276,0.0441 -0.00276,0.01792 -0.00965,0.03032 -0.00689,0.0124 -0.016536,0.01791 -0.00827,0.0055 -0.019293,0.0055 H 8.0020087 q -0.031695,0 -0.060634,-0.02067 -0.027561,-0.02205 -0.027561,-0.07579 v -1.590255 q 0,-0.05374 0.027561,-0.07441 0.028939,-0.02205 0.060634,-0.02205 h 0.8461148 q 0.011024,0 0.019293,0.0055 0.00965,0.0055 0.015158,0.01791 0.00551,0.0124 0.00827,0.03169 0.00413,0.01791 0.00413,0.04548 0,0.0248 -0.00413,0.0441 -0.00276,0.01792 -0.00827,0.03032 -0.00551,0.01103 -0.015158,0.01654 -0.00827,0.0055 -0.019293,0.0055 H 8.1508367 v 0.559483 h 0.5980682 q 0.011024,0 0.019293,0.0069 0.00965,0.0055 0.015158,0.01654 0.00689,0.01102 0.00965,0.03032 0.00276,0.01929 0.00276,0.04548 0,0.0248 -0.00276,0.04272 -0.00276,0.01791 -0.00965,0.02894 -0.00551,0.01102 -0.015158,0.01654 -0.00827,0.0041 -0.019293,0.0041 H 8.1508367 v 0.638031 h 0.7069331 q 0.011024,0 0.019293,0.0055 0.00965,0.0055 0.016536,0.01792 0.00689,0.01102 0.00965,0.03032 0.00276,0.01791 0.00276,0.04547 z"
         id="path920" />
    </g>
    <g
       aria-label="ATTACK"
       id="text8544-7-1-2"
       style="font-size:2.82222px;line-height:1.25;font-family:Calibri;-inkscape-font-specification:Calibri;text-align:center;text-anchor:middle;stroke-width:0.264583">
      <path
         d="m 4.8714837,42.207386 q 0.011024,0.03032 0.011024,0.04961 0.00138,0.01791 -0.00965,0.02756 -0.011024,0.0096 -0.037207,0.0124 -0.024805,0.0028 -0.067524,0.0028 -0.042719,0 -0.068902,-0.0028 -0.024805,-0.0014 -0.038585,-0.0055 -0.012402,-0.0055 -0.019292,-0.01378 -0.00551,-0.0083 -0.011024,-0.02067 L 4.477365,41.822914 H 3.735981 l -0.1460719,0.42857 q -0.00413,0.0124 -0.011024,0.02205 -0.00689,0.0083 -0.020671,0.01516 -0.012402,0.0055 -0.037207,0.0083 -0.023427,0.0028 -0.062012,0.0028 -0.039963,0 -0.066146,-0.0041 -0.024805,-0.0028 -0.035829,-0.0124 -0.00965,-0.0096 -0.00965,-0.02756 0.00138,-0.01929 0.012402,-0.04961 l 0.5980681,-1.6564 q 0.00551,-0.01516 0.01378,-0.02481 0.00965,-0.0096 0.026183,-0.01516 0.017915,-0.0055 0.044097,-0.0069 0.027561,-0.0028 0.068902,-0.0028 0.044097,0 0.073036,0.0028 0.028939,0.0014 0.046853,0.0069 0.017914,0.0055 0.027561,0.01654 0.00965,0.0096 0.015158,0.02481 z M 4.103917,40.745289 h -0.00138 l -0.3073023,0.888834 h 0.6201168 z"
         id="path901" />
      <path
         d="m 6.0662419,40.610241 q 0,0.02618 -0.00276,0.04548 -0.00276,0.01929 -0.00965,0.03169 -0.00551,0.01103 -0.015159,0.01654 -0.00827,0.0055 -0.019292,0.0055 H 5.5177831 v 1.546158 q 0,0.01102 -0.00551,0.01929 -0.00551,0.0083 -0.019293,0.01378 -0.01378,0.0041 -0.037207,0.0069 -0.022049,0.0041 -0.0565,0.0041 -0.033073,0 -0.056499,-0.0041 -0.023427,-0.0028 -0.037207,-0.0069 -0.01378,-0.0055 -0.019292,-0.01378 -0.00551,-0.0083 -0.00551,-0.01929 V 40.70946 H 4.7791552 q -0.011024,0 -0.020671,-0.0055 -0.00827,-0.0055 -0.01378,-0.01654 -0.00551,-0.0124 -0.00965,-0.03169 -0.00276,-0.01929 -0.00276,-0.04548 0,-0.02618 0.00276,-0.04548 0.00413,-0.02067 0.00965,-0.03307 0.00551,-0.0124 0.01378,-0.01791 0.00965,-0.0055 0.020671,-0.0055 h 1.2402334 q 0.011024,0 0.019292,0.0055 0.00965,0.0055 0.015159,0.01791 0.00689,0.0124 0.00965,0.03307 0.00276,0.01929 0.00276,0.04548 z"
         id="path903" />
      <path
         d="m 7.4801081,40.610241 q 0,0.02618 -0.00276,0.04548 -0.00276,0.01929 -0.00965,0.03169 -0.00551,0.01103 -0.015158,0.01654 -0.00827,0.0055 -0.019292,0.0055 H 6.9316493 v 1.546158 q 0,0.01102 -0.00551,0.01929 -0.00551,0.0083 -0.019292,0.01378 -0.01378,0.0041 -0.037207,0.0069 -0.022049,0.0041 -0.0565,0.0041 -0.033073,0 -0.0565,-0.0041 -0.023427,-0.0028 -0.037207,-0.0069 -0.01378,-0.0055 -0.019292,-0.01378 -0.00551,-0.0083 -0.00551,-0.01929 V 40.70946 H 6.1930214 q -0.011024,0 -0.020671,-0.0055 -0.00827,-0.0055 -0.01378,-0.01654 -0.00551,-0.0124 -0.00965,-0.03169 -0.00276,-0.01929 -0.00276,-0.04548 0,-0.02618 0.00276,-0.04548 0.00413,-0.02067 0.00965,-0.03307 0.00551,-0.0124 0.01378,-0.01791 0.00965,-0.0055 0.020671,-0.0055 h 1.2402334 q 0.011024,0 0.019292,0.0055 0.00965,0.0055 0.015158,0.01791 0.00689,0.0124 0.00965,0.03307 0.00276,0.01929 0.00276,0.04548 z"
         id="path905" />
      <path
         d="m 8.8526331,42.207386 q 0.011024,0.03032 0.011024,0.04961 0.00138,0.01791 -0.00965,0.02756 -0.011024,0.0096 -0.037207,0.0124 -0.024805,0.0028 -0.067524,0.0028 -0.042719,0 -0.068902,-0.0028 -0.024805,-0.0014 -0.038585,-0.0055 -0.012402,-0.0055 -0.019292,-0.01378 -0.00551,-0.0083 -0.011024,-0.02067 L 8.4585145,41.822914 h -0.741384 l -0.146072,0.42857 q -0.00413,0.0124 -0.011024,0.02205 -0.00689,0.0083 -0.02067,0.01516 -0.012402,0.0055 -0.037207,0.0083 -0.023427,0.0028 -0.062012,0.0028 -0.039963,0 -0.066146,-0.0041 -0.024805,-0.0028 -0.035829,-0.0124 -0.00965,-0.0096 -0.00965,-0.02756 0.00138,-0.01929 0.012402,-0.04961 l 0.5980682,-1.6564 q 0.00551,-0.01516 0.01378,-0.02481 0.00965,-0.0096 0.026183,-0.01516 0.017914,-0.0055 0.044097,-0.0069 0.027561,-0.0028 0.068902,-0.0028 0.044097,0 0.073036,0.0028 0.028939,0.0014 0.046853,0.0069 0.017914,0.0055 0.027561,0.01654 0.00965,0.0096 0.015158,0.02481 z M 8.0850664,40.745289 h -0.00138 l -0.3073023,0.888834 h 0.6201167 z"
         id="path907" />
      <path
         d="m 10.320243,42.039266 q 0,0.02205 -0.0014,0.03859 -0.0014,0.01654 -0.0055,0.02894 -0.0028,0.0124 -0.0083,0.02205 -0.0055,0.0096 -0.01929,0.02343 -0.01378,0.01378 -0.05788,0.04272 -0.0441,0.02756 -0.110243,0.05512 -0.06477,0.02618 -0.1502058,0.0441 -0.08406,0.01929 -0.184657,0.01929 -0.1736327,0 -0.3141925,-0.05788 -0.1391817,-0.05788 -0.2384004,-0.170877 -0.097841,-0.112999 -0.1515841,-0.278363 -0.052365,-0.166743 -0.052365,-0.383095 0,-0.221864 0.0565,-0.395496 0.057878,-0.173633 0.1612304,-0.293522 0.1033528,-0.121268 0.2466686,-0.184657 0.1446939,-0.06339 0.3197046,-0.06339 0.07717,0 0.1502061,0.01516 0.073036,0.01378 0.135048,0.03583 0.06201,0.02205 0.110243,0.05099 0.04823,0.02894 0.06614,0.04823 0.01929,0.01792 0.02481,0.02756 0.0055,0.0096 0.0083,0.02343 0.0041,0.0124 0.0055,0.03032 0.0028,0.01792 0.0028,0.04272 0,0.02756 -0.0028,0.04685 -0.0028,0.01929 -0.0083,0.03307 -0.0055,0.0124 -0.01378,0.01929 -0.0069,0.0055 -0.01792,0.0055 -0.01929,0 -0.05374,-0.02618 -0.03445,-0.02756 -0.08957,-0.05926 -0.05374,-0.03307 -0.1322911,-0.05926 -0.07717,-0.02756 -0.186035,-0.02756 -0.1185112,0 -0.2163518,0.04823 -0.096463,0.04685 -0.1653645,0.139182 -0.068902,0.09233 -0.1074869,0.225998 -0.037207,0.132291 -0.037207,0.303168 0,0.169498 0.035829,0.300412 0.037207,0.129535 0.1047308,0.21773 0.068902,0.08682 0.1681205,0.132291 0.099219,0.0441 0.2246201,0.0441 0.1061089,0 0.1846569,-0.02618 0.07993,-0.02618 0.135048,-0.05788 0.0565,-0.03307 0.09233,-0.05926 0.03583,-0.02618 0.0565,-0.02618 0.0096,0 0.01654,0.0041 0.0069,0.0041 0.01102,0.01654 0.0041,0.01102 0.0055,0.03169 0.0028,0.02067 0.0028,0.05237 z"
         id="path909" />
      <path
         d="m 11.797498,42.252862 q 0,0.01102 -0.0055,0.02067 -0.0041,0.0083 -0.01791,0.01378 -0.01378,0.0055 -0.03721,0.0083 -0.02343,0.0041 -0.06063,0.0041 -0.04823,0 -0.07855,-0.0041 -0.03032,-0.0041 -0.04547,-0.01516 -0.01516,-0.01102 -0.02481,-0.0248 l -0.655945,-0.89159 v 0.89159 q 0,0.0096 -0.0055,0.01929 -0.0055,0.0083 -0.01929,0.01378 -0.01378,0.0041 -0.03721,0.0069 -0.02205,0.0041 -0.0565,0.0041 -0.03307,0 -0.0565,-0.0041 -0.02343,-0.0028 -0.03721,-0.0069 -0.01378,-0.0055 -0.01929,-0.01378 -0.0055,-0.0096 -0.0055,-0.01929 v -1.711522 q 0,-0.01103 0.0055,-0.01929 0.0055,-0.0083 0.01929,-0.0124 0.01378,-0.0055 0.03721,-0.0083 0.02343,-0.0041 0.0565,-0.0041 0.03445,0 0.0565,0.0041 0.02343,0.0028 0.03721,0.0083 0.01378,0.0041 0.01929,0.0124 0.0055,0.0083 0.0055,0.01929 v 0.792371 l 0.631141,-0.792371 q 0.0083,-0.0124 0.01929,-0.02067 0.01102,-0.0083 0.02618,-0.0124 0.01654,-0.0055 0.03858,-0.0083 0.02343,-0.0028 0.05926,-0.0028 0.03583,0 0.05788,0.0041 0.02205,0.0028 0.03445,0.0083 0.01378,0.0055 0.01791,0.01378 0.0055,0.0083 0.0055,0.01792 0,0.01791 -0.0096,0.03583 -0.0083,0.01791 -0.03307,0.04961 l -0.591178,0.706933 0.636654,0.846115 q 0.02343,0.03583 0.02756,0.04961 0.0055,0.0124 0.0055,0.02067 z"
         id="path911" />
    </g>
    <g
       aria-label="SUSTAIN"
       id="text8544-7-1-92"
       style="font-size:2.82222px;line-height:1.25;font-family:Calibri;-inkscape-font-specification:Calibri;text-align:center;text-anchor:middle;stroke-width:0.264583">
      <path
         d="m 3.9233941,54.041219 q 0,0.125402 -0.046853,0.223242 -0.045475,0.09784 -0.1281574,0.166743 -0.081304,0.06752 -0.1929252,0.101974 -0.110243,0.03445 -0.2384004,0.03445 -0.089573,0 -0.1667425,-0.01516 -0.075792,-0.01516 -0.1364257,-0.03721 -0.059256,-0.02205 -0.1005967,-0.04548 -0.039963,-0.02343 -0.0565,-0.03996 -0.015158,-0.01654 -0.023427,-0.04134 -0.00689,-0.02618 -0.00689,-0.0689 0,-0.03032 0.00276,-0.04961 0.00276,-0.02067 0.00827,-0.03307 0.00551,-0.0124 0.01378,-0.01654 0.00827,-0.0055 0.019293,-0.0055 0.019293,0 0.053743,0.02343 0.035829,0.02343 0.09095,0.05099 0.055121,0.02756 0.1322916,0.05237 0.078548,0.02343 0.1805228,0.02343 0.07717,0 0.1405598,-0.02067 0.064768,-0.02067 0.110243,-0.05788 0.046853,-0.03858 0.071658,-0.09371 0.024805,-0.05512 0.024805,-0.125401 0,-0.07579 -0.034451,-0.129536 -0.034451,-0.05374 -0.090951,-0.09371 -0.056499,-0.04134 -0.1295355,-0.07441 -0.071658,-0.03445 -0.1474499,-0.0689 -0.075792,-0.03583 -0.14745,-0.07855 -0.071658,-0.04272 -0.1281575,-0.100597 -0.0565,-0.05788 -0.092329,-0.135047 -0.034451,-0.07855 -0.034451,-0.187414 0,-0.111621 0.039963,-0.198437 0.041341,-0.08819 0.112999,-0.14745 0.073036,-0.05926 0.1722547,-0.08957 0.1005967,-0.03169 0.2163518,-0.03169 0.059256,0 0.1185112,0.01102 0.060634,0.0096 0.1129991,0.02756 0.053743,0.01654 0.095085,0.03859 0.041341,0.02067 0.053744,0.03445 0.01378,0.0124 0.017914,0.02067 0.00413,0.0069 0.00689,0.01929 0.00276,0.01102 0.00413,0.02756 0.00138,0.01654 0.00138,0.04272 0,0.02481 -0.00276,0.0441 -0.00138,0.01929 -0.00551,0.03307 -0.00413,0.0124 -0.012402,0.01929 -0.00689,0.0055 -0.016536,0.0055 -0.015158,0 -0.048231,-0.01929 -0.031695,-0.01929 -0.078548,-0.04272 -0.046853,-0.02481 -0.111621,-0.0441 -0.06339,-0.02067 -0.1433159,-0.02067 -0.074414,0 -0.1295355,0.02067 -0.055122,0.01929 -0.09095,0.05236 -0.035829,0.03307 -0.053743,0.07855 -0.017915,0.04548 -0.017915,0.09646 0,0.07441 0.034451,0.128157 0.034451,0.05374 0.09095,0.09509 0.057878,0.04134 0.1309135,0.07579 0.073036,0.03445 0.148828,0.07028 0.075792,0.03445 0.1488281,0.07717 0.073036,0.04134 0.1295354,0.09922 0.057878,0.0565 0.092329,0.135047 0.035829,0.07717 0.035829,0.183279 z"
         id="path886" />
      <path
         d="m 5.6032213,53.882745 q 0,0.162608 -0.048231,0.290766 -0.046853,0.126779 -0.1350476,0.214974 -0.088194,0.08819 -0.2149738,0.133669 -0.1267794,0.04547 -0.2880098,0.04547 -0.1474499,0 -0.2687172,-0.04272 -0.1212673,-0.04272 -0.2080836,-0.125401 -0.086816,-0.08406 -0.1336696,-0.209462 -0.046853,-0.125401 -0.046853,-0.289388 v -1.106563 q 0,-0.01103 0.00551,-0.01929 0.00551,-0.0083 0.019293,-0.0124 0.01378,-0.0055 0.035829,-0.0083 0.022049,-0.0041 0.057878,-0.0041 0.033073,0 0.0565,0.0041 0.023427,0.0028 0.035829,0.0083 0.01378,0.0041 0.019292,0.0124 0.00551,0.0083 0.00551,0.01929 v 1.077625 q 0,0.124023 0.030317,0.216351 0.030317,0.09233 0.086816,0.154341 0.057878,0.06063 0.1378037,0.09233 0.081304,0.03032 0.1819009,0.03032 0.1033528,0 0.183279,-0.03032 0.081304,-0.03032 0.1364257,-0.09095 0.056499,-0.06063 0.085438,-0.150206 0.030317,-0.08957 0.030317,-0.209462 v -1.090027 q 0,-0.01103 0.00551,-0.01929 0.00551,-0.0083 0.019293,-0.0124 0.01378,-0.0055 0.035829,-0.0083 0.023427,-0.0041 0.057878,-0.0041 0.033073,0 0.055121,0.0041 0.023427,0.0028 0.035829,0.0083 0.01378,0.0041 0.019292,0.0124 0.00689,0.0083 0.00689,0.01929 z"
         id="path888" />
      <path
         d="m 7.0308679,54.041219 q 0,0.125402 -0.046853,0.223242 -0.045475,0.09784 -0.1281575,0.166743 -0.081304,0.06752 -0.1929252,0.101974 -0.1102429,0.03445 -0.2384004,0.03445 -0.089572,0 -0.1667425,-0.01516 -0.075792,-0.01516 -0.1364257,-0.03721 -0.059256,-0.02205 -0.1005967,-0.04548 -0.039963,-0.02343 -0.0565,-0.03996 -0.015158,-0.01654 -0.023427,-0.04134 -0.00689,-0.02618 -0.00689,-0.0689 0,-0.03032 0.00276,-0.04961 0.00276,-0.02067 0.00827,-0.03307 0.00551,-0.0124 0.01378,-0.01654 0.00827,-0.0055 0.019293,-0.0055 0.019292,0 0.053743,0.02343 0.035829,0.02343 0.09095,0.05099 0.055122,0.02756 0.1322915,0.05237 0.078548,0.02343 0.1805229,0.02343 0.07717,0 0.1405598,-0.02067 0.064768,-0.02067 0.110243,-0.05788 0.046853,-0.03858 0.071658,-0.09371 0.024805,-0.05512 0.024805,-0.125401 0,-0.07579 -0.034451,-0.129536 -0.034451,-0.05374 -0.09095,-0.09371 -0.0565,-0.04134 -0.1295355,-0.07441 -0.071658,-0.03445 -0.14745,-0.0689 -0.075792,-0.03583 -0.14745,-0.07855 -0.071658,-0.04272 -0.1281574,-0.100597 -0.0565,-0.05788 -0.092328,-0.135047 -0.034451,-0.07855 -0.034451,-0.187414 0,-0.111621 0.039963,-0.198437 0.041341,-0.08819 0.1129991,-0.14745 0.073036,-0.05926 0.1722546,-0.08957 0.1005967,-0.03169 0.2163519,-0.03169 0.059256,0 0.1185112,0.01102 0.060634,0.0096 0.112999,0.02756 0.053743,0.01654 0.095085,0.03859 0.041341,0.02067 0.053743,0.03445 0.01378,0.0124 0.017914,0.02067 0.00413,0.0069 0.00689,0.01929 0.00276,0.01102 0.00413,0.02756 0.00138,0.01654 0.00138,0.04272 0,0.02481 -0.00276,0.0441 -0.00138,0.01929 -0.00551,0.03307 -0.00413,0.0124 -0.012402,0.01929 -0.00689,0.0055 -0.016536,0.0055 -0.015158,0 -0.048231,-0.01929 -0.031695,-0.01929 -0.078548,-0.04272 -0.046853,-0.02481 -0.111621,-0.0441 -0.06339,-0.02067 -0.1433159,-0.02067 -0.074414,0 -0.1295354,0.02067 -0.055121,0.01929 -0.09095,0.05236 -0.035829,0.03307 -0.053743,0.07855 -0.017914,0.04548 -0.017914,0.09646 0,0.07441 0.034451,0.128157 0.034451,0.05374 0.09095,0.09509 0.057878,0.04134 0.1309136,0.07579 0.073036,0.03445 0.148828,0.07028 0.075792,0.03445 0.148828,0.07717 0.073036,0.04134 0.1295355,0.09922 0.057878,0.0565 0.092328,0.135047 0.035829,0.07717 0.035829,0.183279 z"
         id="path890" />
      <path
         d="m 8.4681608,52.860241 q 0,0.02618 -0.00276,0.04548 -0.00276,0.01929 -0.00965,0.03169 -0.00551,0.01103 -0.015158,0.01654 -0.00827,0.0055 -0.019293,0.0055 H 7.919702 v 1.546158 q 0,0.01102 -0.00551,0.01929 -0.00551,0.0083 -0.019293,0.01378 -0.01378,0.0041 -0.037207,0.0069 -0.022048,0.0041 -0.0565,0.0041 -0.033073,0 -0.056499,-0.0041 -0.023427,-0.0028 -0.037207,-0.0069 -0.01378,-0.0055 -0.019292,-0.01378 -0.00551,-0.0083 -0.00551,-0.01929 V 52.95946 H 7.1810741 q -0.011024,0 -0.020671,-0.0055 -0.00827,-0.0055 -0.01378,-0.01654 -0.00551,-0.0124 -0.00965,-0.03169 -0.00276,-0.01929 -0.00276,-0.04548 0,-0.02618 0.00276,-0.04548 0.00413,-0.02067 0.00965,-0.03307 0.00551,-0.0124 0.01378,-0.01791 0.00965,-0.0055 0.020671,-0.0055 h 1.2402334 q 0.011024,0 0.019293,0.0055 0.00965,0.0055 0.015158,0.01791 0.00689,0.0124 0.00965,0.03307 0.00276,0.01929 0.00276,0.04548 z"
         id="path892" />
      <path
         d="m 9.8406854,54.457386 q 0.011024,0.03032 0.011024,0.04961 0.00138,0.01791 -0.00965,0.02756 -0.011024,0.0096 -0.037207,0.0124 -0.024805,0.0028 -0.067524,0.0028 -0.042719,0 -0.068902,-0.0028 -0.024805,-0.0014 -0.038585,-0.0055 -0.012402,-0.0055 -0.019293,-0.01378 -0.00551,-0.0083 -0.011024,-0.02067 L 9.4465667,54.072914 H 8.7051828 l -0.146072,0.42857 q -0.00413,0.0124 -0.011024,0.02205 -0.00689,0.0083 -0.02067,0.01516 -0.012402,0.0055 -0.037207,0.0083 -0.023427,0.0028 -0.062012,0.0028 -0.039963,0 -0.066146,-0.0041 -0.024805,-0.0028 -0.035829,-0.0124 -0.00965,-0.0096 -0.00965,-0.02756 0.00138,-0.01929 0.012402,-0.04961 l 0.5980681,-1.6564 q 0.00551,-0.01516 0.01378,-0.02481 0.00965,-0.0096 0.026183,-0.01516 0.017914,-0.0055 0.044097,-0.0069 0.027561,-0.0028 0.068902,-0.0028 0.044097,0 0.073036,0.0028 0.028939,0.0014 0.046853,0.0069 0.017914,0.0055 0.027561,0.01654 0.00965,0.0096 0.015158,0.02481 z M 9.0731187,52.995289 h -0.00138 l -0.3073022,0.888834 h 0.6201167 z"
         id="path894" />
      <path
         d="m 10.375364,54.505618 q 0,0.01102 -0.0055,0.01929 -0.0055,0.0083 -0.01929,0.01378 -0.01378,0.0041 -0.03721,0.0069 -0.02205,0.0041 -0.0565,0.0041 -0.03307,0 -0.0565,-0.0041 -0.02343,-0.0028 -0.03721,-0.0069 -0.01378,-0.0055 -0.01929,-0.01378 -0.0055,-0.0083 -0.0055,-0.01929 v -1.711522 q 0,-0.01103 0.0055,-0.01929 0.0069,-0.0083 0.02067,-0.0124 0.01516,-0.0055 0.03721,-0.0083 0.02343,-0.0041 0.05512,-0.0041 0.03445,0 0.0565,0.0041 0.02343,0.0028 0.03721,0.0083 0.01378,0.0041 0.01929,0.0124 0.0055,0.0083 0.0055,0.01929 z"
         id="path896" />
      <path
         d="m 12.197129,54.443606 q 0,0.02756 -0.0096,0.04685 -0.0083,0.01929 -0.02343,0.03169 -0.01378,0.0124 -0.0317,0.01792 -0.01791,0.0055 -0.03583,0.0055 h -0.07579 q -0.03583,0 -0.06339,-0.0069 -0.02618,-0.0083 -0.05099,-0.02756 -0.02343,-0.02067 -0.04823,-0.05512 -0.02343,-0.03445 -0.05236,-0.08819 l -0.56224,-1.014235 q -0.0441,-0.07855 -0.08957,-0.163987 -0.0441,-0.08682 -0.08268,-0.16812 h -0.0028 q 0.0028,0.09922 0.0041,0.202571 0.0014,0.103353 0.0014,0.205328 v 1.076247 q 0,0.0096 -0.0055,0.01929 -0.0055,0.0083 -0.01929,0.01378 -0.0124,0.0041 -0.03445,0.0069 -0.02067,0.0041 -0.05374,0.0041 -0.03307,0 -0.05512,-0.0041 -0.02067,-0.0028 -0.03307,-0.0069 -0.0124,-0.0055 -0.01791,-0.01378 -0.0055,-0.0096 -0.0055,-0.01929 v -1.645377 q 0,-0.05512 0.03032,-0.07855 0.03032,-0.02343 0.06615,-0.02343 h 0.112999 q 0.03996,0 0.06615,0.0069 0.02756,0.0069 0.04823,0.02343 0.02205,0.01516 0.04134,0.0441 0.02067,0.02756 0.0441,0.07028 l 0.432703,0.782725 q 0.03996,0.07166 0.07717,0.140559 0.03721,0.06752 0.07166,0.13367 0.03445,0.06615 0.06752,0.130914 0.03445,0.06339 0.06752,0.128157 h 0.0014 q -0.0028,-0.108865 -0.0041,-0.225998 0,-0.118511 0,-0.227376 V 52.79823 q 0,-0.0096 0.0055,-0.01791 0.0055,-0.0083 0.01792,-0.01378 0.01378,-0.0069 0.03445,-0.0096 0.02205,-0.0028 0.0565,-0.0028 0.03032,0 0.05236,0.0028 0.02205,0.0028 0.03445,0.0096 0.0124,0.0055 0.01792,0.01378 0.0055,0.0083 0.0055,0.01791 z"
         id="path898" />
    </g>
    <g
       aria-label="RELEASE"
       id="text8544-7-1-94"
       style="font-size:2.82222px;line-height:1.25;font-family:Calibri;-inkscape-font-specification:Calibri;text-align:center;text-anchor:middle;stroke-width:0.264583">
      <path
         d="m 4.1314777,66.755622 q 0,0.01102 -0.00413,0.01929 -0.00413,0.0083 -0.017914,0.01378 -0.01378,0.0055 -0.038585,0.0083 -0.024805,0.0028 -0.066146,0.0028 -0.035829,0 -0.059256,-0.0028 -0.022049,-0.0028 -0.035829,-0.0083 -0.01378,-0.0069 -0.022049,-0.01791 -0.00689,-0.01102 -0.012402,-0.02756 L 3.7111764,66.322918 q -0.028939,-0.07166 -0.060634,-0.130914 -0.030317,-0.06063 -0.073036,-0.103352 -0.042719,-0.0441 -0.1005967,-0.06752 -0.057878,-0.02481 -0.1391818,-0.02481 H 3.179254 v 0.759299 q 0,0.01102 -0.00689,0.01929 -0.00551,0.0083 -0.019293,0.01378 -0.012402,0.0041 -0.035829,0.0069 -0.022049,0.0041 -0.0565,0.0041 -0.034451,0 -0.057878,-0.0041 -0.022049,-0.0028 -0.035829,-0.0069 -0.01378,-0.0055 -0.019293,-0.01378 -0.00551,-0.0083 -0.00551,-0.01929 v -1.650889 q 0,-0.05374 0.027561,-0.07441 0.028939,-0.02205 0.060634,-0.02205 h 0.3789602 q 0.067524,0 0.1116211,0.0041 0.045475,0.0028 0.081304,0.0069 0.1033528,0.01791 0.1819009,0.0565 0.079926,0.03858 0.1336697,0.09784 0.053743,0.05925 0.079926,0.136426 0.027561,0.07579 0.027561,0.16812 0,0.08957 -0.024805,0.16123 -0.023427,0.07028 -0.068902,0.125402 -0.045475,0.05374 -0.1088649,0.09371 -0.06339,0.03996 -0.1419378,0.06752 0.044097,0.01929 0.079926,0.04961 0.035829,0.02894 0.066146,0.07028 0.031695,0.04134 0.059256,0.09509 0.027561,0.05374 0.055122,0.121267 l 0.1598523,0.392741 q 0.019292,0.04961 0.024805,0.07028 0.00551,0.01929 0.00551,0.03032 z M 3.7745661,65.502986 q 0,-0.104731 -0.046853,-0.176389 -0.046853,-0.07304 -0.1570962,-0.104731 -0.034451,-0.0096 -0.078548,-0.01378 -0.042719,-0.0041 -0.1129991,-0.0041 H 3.179254 v 0.600824 h 0.2315103 q 0.093707,0 0.1612303,-0.02205 0.068902,-0.02343 0.1143771,-0.06339 0.045475,-0.04134 0.066146,-0.09646 0.022049,-0.05512 0.022049,-0.119889 z"
         id="path871" />
      <path
         d="m 5.4667958,66.69361 q 0,0.0248 -0.00276,0.0441 -0.00276,0.01792 -0.00965,0.03032 -0.00689,0.0124 -0.016536,0.01791 -0.00827,0.0055 -0.019293,0.0055 H 4.5628034 q -0.031695,0 -0.060634,-0.02067 -0.027561,-0.02205 -0.027561,-0.07579 v -1.590255 q 0,-0.05374 0.027561,-0.07441 0.028939,-0.02205 0.060634,-0.02205 h 0.8461148 q 0.011024,0 0.019293,0.0055 0.00965,0.0055 0.015158,0.01791 0.00551,0.0124 0.00827,0.03169 0.00413,0.01791 0.00413,0.04548 0,0.02481 -0.00413,0.0441 -0.00276,0.01792 -0.00827,0.03032 -0.00551,0.01102 -0.015158,0.01654 -0.00827,0.0055 -0.019293,0.0055 H 4.7116314 v 0.559483 h 0.5980681 q 0.011024,0 0.019293,0.0069 0.00965,0.0055 0.015158,0.01654 0.00689,0.01102 0.00965,0.03032 0.00276,0.01929 0.00276,0.04547 0,0.02481 -0.00276,0.04272 -0.00276,0.01791 -0.00965,0.02894 -0.00551,0.01103 -0.015158,0.01654 -0.00827,0.0041 -0.019293,0.0041 H 4.7116314 v 0.638031 h 0.7069331 q 0.011024,0 0.019293,0.0055 0.00965,0.0055 0.016536,0.01792 0.00689,0.01102 0.00965,0.03032 0.00276,0.01791 0.00276,0.04548 z"
         id="path873" />
      <path
         d="m 6.777309,66.688098 q 0,0.02756 -0.00276,0.04685 -0.00276,0.01791 -0.00965,0.03169 -0.00551,0.0124 -0.015158,0.01929 -0.00827,0.0055 -0.020671,0.0055 H 5.9408405 q -0.031695,0 -0.060634,-0.02067 -0.027561,-0.02205 -0.027561,-0.07579 v -1.650889 q 0,-0.01102 0.00551,-0.01929 0.00551,-0.0083 0.019292,-0.0124 0.01378,-0.0055 0.037207,-0.0083 0.023427,-0.0041 0.0565,-0.0041 0.034451,0 0.0565,0.0041 0.023427,0.0028 0.037207,0.0083 0.01378,0.0041 0.019292,0.0124 0.00551,0.0083 0.00551,0.01929 v 1.542024 h 0.6394092 q 0.012402,0 0.020671,0.0069 0.00965,0.0055 0.015158,0.01792 0.00689,0.01102 0.00965,0.03032 0.00276,0.01929 0.00276,0.04685 z"
         id="path875" />
      <path
         d="m 8.0313227,66.69361 q 0,0.0248 -0.00276,0.0441 -0.00276,0.01792 -0.00965,0.03032 -0.00689,0.0124 -0.016536,0.01791 -0.00827,0.0055 -0.019292,0.0055 H 7.1273303 q -0.031695,0 -0.060634,-0.02067 -0.027561,-0.02205 -0.027561,-0.07579 v -1.590255 q 0,-0.05374 0.027561,-0.07441 0.028939,-0.02205 0.060634,-0.02205 h 0.8461148 q 0.011024,0 0.019292,0.0055 0.00965,0.0055 0.015158,0.01791 0.00551,0.0124 0.00827,0.03169 0.00413,0.01791 0.00413,0.04548 0,0.02481 -0.00413,0.0441 -0.00276,0.01792 -0.00827,0.03032 -0.00551,0.01102 -0.015158,0.01654 -0.00827,0.0055 -0.019292,0.0055 H 7.2761583 v 0.559483 h 0.5980681 q 0.011024,0 0.019293,0.0069 0.00965,0.0055 0.015158,0.01654 0.00689,0.01102 0.00965,0.03032 0.00276,0.01929 0.00276,0.04547 0,0.02481 -0.00276,0.04272 -0.00276,0.01791 -0.00965,0.02894 -0.00551,0.01103 -0.015158,0.01654 -0.00827,0.0041 -0.019293,0.0041 H 7.2761583 v 0.638031 h 0.7069331 q 0.011024,0 0.019292,0.0055 0.00965,0.0055 0.016536,0.01792 0.00689,0.01102 0.00965,0.03032 0.00276,0.01791 0.00276,0.04548 z"
         id="path877" />
      <path
         d="m 9.7221745,66.70739 q 0.011024,0.03032 0.011024,0.04961 0.00138,0.01791 -0.00965,0.02756 -0.011024,0.0096 -0.037207,0.0124 -0.024805,0.0028 -0.067524,0.0028 -0.042719,0 -0.068902,-0.0028 -0.024805,-0.0014 -0.038585,-0.0055 -0.012402,-0.0055 -0.019293,-0.01378 -0.00551,-0.0083 -0.011024,-0.02067 L 9.3280559,66.322918 H 8.5866719 L 8.4406,66.751487 q -0.00413,0.0124 -0.011024,0.02205 -0.00689,0.0083 -0.020671,0.01516 -0.012402,0.0055 -0.037207,0.0083 -0.023427,0.0028 -0.062012,0.0028 -0.039963,0 -0.066146,-0.0041 -0.024805,-0.0028 -0.035829,-0.0124 -0.00965,-0.0096 -0.00965,-0.02756 0.00138,-0.01929 0.012402,-0.04961 l 0.5980681,-1.6564 q 0.00551,-0.01516 0.01378,-0.02481 0.00965,-0.0096 0.026183,-0.01516 0.017914,-0.0055 0.044097,-0.0069 0.027561,-0.0028 0.068902,-0.0028 0.044097,0 0.073036,0.0028 0.028939,0.0014 0.046853,0.0069 0.017914,0.0055 0.027561,0.01654 0.00965,0.0096 0.015158,0.02481 z M 8.9546079,65.245293 h -0.00138 l -0.3073023,0.888834 h 0.6201168 z"
         id="path879" />
      <path
         d="m 10.977566,66.291223 q 0,0.125401 -0.04685,0.223242 -0.04548,0.09784 -0.128158,0.166743 -0.0813,0.06752 -0.192925,0.101974 -0.110243,0.03445 -0.2384,0.03445 -0.08957,0 -0.166743,-0.01516 -0.07579,-0.01516 -0.136425,-0.03721 -0.05926,-0.02205 -0.1005972,-0.04548 -0.039963,-0.02343 -0.056499,-0.03996 -0.015158,-0.01654 -0.023427,-0.04134 -0.00689,-0.02618 -0.00689,-0.0689 0,-0.03032 0.00276,-0.04961 0.00276,-0.02067 0.00827,-0.03307 0.00551,-0.0124 0.01378,-0.01654 0.00827,-0.0055 0.019293,-0.0055 0.019292,0 0.053743,0.02343 0.035829,0.02343 0.090951,0.05099 0.05512,0.02756 0.132291,0.05236 0.07855,0.02343 0.180523,0.02343 0.07717,0 0.14056,-0.02067 0.06477,-0.02067 0.110243,-0.05788 0.04685,-0.03858 0.07166,-0.09371 0.0248,-0.05512 0.0248,-0.125401 0,-0.07579 -0.03445,-0.129536 -0.03445,-0.05374 -0.09095,-0.09371 -0.0565,-0.04134 -0.129536,-0.07441 -0.07166,-0.03445 -0.147449,-0.0689 -0.07579,-0.03583 -0.14745,-0.07855 -0.07166,-0.04272 -0.128158,-0.100597 -0.056499,-0.05788 -0.092328,-0.135048 -0.034451,-0.07855 -0.034451,-0.187413 0,-0.111621 0.039963,-0.198437 0.041341,-0.08819 0.1129993,-0.14745 0.07304,-0.05926 0.172254,-0.08957 0.100597,-0.03169 0.216352,-0.03169 0.05926,0 0.118511,0.01102 0.06063,0.0096 0.112999,0.02756 0.05374,0.01654 0.09508,0.03858 0.04134,0.02067 0.05374,0.03445 0.01378,0.0124 0.01791,0.02067 0.0041,0.0069 0.0069,0.01929 0.0028,0.01102 0.0041,0.02756 0.0014,0.01654 0.0014,0.04272 0,0.0248 -0.0028,0.0441 -0.0014,0.01929 -0.0055,0.03307 -0.0041,0.0124 -0.0124,0.01929 -0.0069,0.0055 -0.01654,0.0055 -0.01516,0 -0.04823,-0.01929 -0.0317,-0.01929 -0.07855,-0.04272 -0.04685,-0.02481 -0.111621,-0.0441 -0.06339,-0.02067 -0.143316,-0.02067 -0.07441,0 -0.129535,0.02067 -0.05512,0.01929 -0.09095,0.05237 -0.03583,0.03307 -0.05374,0.07855 -0.01791,0.04547 -0.01791,0.09646 0,0.07441 0.03445,0.128157 0.03445,0.05374 0.09095,0.09508 0.05788,0.04134 0.130913,0.07579 0.07304,0.03445 0.148828,0.07028 0.07579,0.03445 0.148828,0.07717 0.07304,0.04134 0.129536,0.09922 0.05788,0.0565 0.09233,0.135048 0.03583,0.07717 0.03583,0.183279 z"
         id="path881" />
      <path
         d="m 12.30875,66.69361 q 0,0.0248 -0.0028,0.0441 -0.0028,0.01792 -0.0096,0.03032 -0.0069,0.0124 -0.01654,0.01791 -0.0083,0.0055 -0.01929,0.0055 h -0.855762 q -0.03169,0 -0.06063,-0.02067 -0.02756,-0.02205 -0.02756,-0.07579 v -1.590255 q 0,-0.05374 0.02756,-0.07441 0.02894,-0.02205 0.06063,-0.02205 h 0.846115 q 0.01103,0 0.01929,0.0055 0.0096,0.0055 0.01516,0.01791 0.0055,0.0124 0.0083,0.03169 0.0041,0.01791 0.0041,0.04548 0,0.02481 -0.0041,0.0441 -0.0028,0.01792 -0.0083,0.03032 -0.0055,0.01102 -0.01516,0.01654 -0.0083,0.0055 -0.01929,0.0055 h -0.697286 v 0.559483 h 0.598068 q 0.01102,0 0.01929,0.0069 0.0096,0.0055 0.01516,0.01654 0.0069,0.01102 0.0096,0.03032 0.0028,0.01929 0.0028,0.04547 0,0.02481 -0.0028,0.04272 -0.0028,0.01791 -0.0096,0.02894 -0.0055,0.01103 -0.01516,0.01654 -0.0083,0.0041 -0.01929,0.0041 h -0.598068 v 0.638031 h 0.706933 q 0.01102,0 0.01929,0.0055 0.0096,0.0055 0.01654,0.01792 0.0069,0.01102 0.0096,0.03032 0.0028,0.01791 0.0028,0.04548 z"
         id="path883" />
    </g>
    <g
       aria-label="OUT"
       id="text8544-7-1-94-8"
       style="font-size:2.82222px;line-height:1.25;font-family:Calibri;-inkscape-font-specification:Calibri;text-align:center;text-anchor:middle;stroke-width:0.264583">
      <path
         d="m 6.7848882,79.12919 q 0,0.216352 -0.050987,0.389984 -0.050987,0.173633 -0.1529622,0.296278 -0.1005967,0.121268 -0.2535588,0.187413 -0.1529621,0.06477 -0.3569116,0.06477 -0.2011934,0 -0.3486434,-0.05926 -0.1460719,-0.06063 -0.2425345,-0.175011 -0.095085,-0.114377 -0.1419379,-0.283876 -0.046853,-0.169498 -0.046853,-0.389984 0,-0.21084 0.050987,-0.383095 0.050987,-0.172254 0.1529622,-0.292143 0.1019747,-0.121268 0.2549368,-0.186035 0.1529622,-0.06615 0.3569117,-0.06615 0.1970593,0 0.3431312,0.05925 0.1460719,0.05926 0.2425345,0.173633 0.097841,0.112999 0.1446939,0.28112 0.048231,0.166742 0.048231,0.383094 z m -0.2494247,0.01654 q 0,-0.151584 -0.027561,-0.281119 -0.026183,-0.130914 -0.089572,-0.225998 -0.062012,-0.09646 -0.1667425,-0.150206 -0.1047309,-0.05374 -0.259071,-0.05374 -0.1543402,0 -0.259071,0.05788 -0.1047308,0.05788 -0.1708766,0.15434 -0.064768,0.09646 -0.093706,0.225998 -0.027561,0.128157 -0.027561,0.270095 0,0.157097 0.026183,0.289388 0.026183,0.132292 0.088194,0.228754 0.062012,0.09508 0.1653645,0.148828 0.1047308,0.05237 0.261827,0.05237 0.1557182,0 0.2618271,-0.05788 0.1061088,-0.05788 0.1708766,-0.155718 0.064768,-0.09922 0.092328,-0.228754 0.027561,-0.129536 0.027561,-0.27423 z"
         id="path864" />
      <path
         d="m 8.5005445,79.382749 q 0,0.162608 -0.048231,0.290766 -0.046853,0.126779 -0.1350477,0.214973 -0.088194,0.08819 -0.2149737,0.13367 -0.1267795,0.04547 -0.2880098,0.04547 -0.14745,0 -0.2687173,-0.04272 -0.1212672,-0.04272 -0.2080836,-0.125401 -0.086816,-0.08406 -0.1336696,-0.209462 -0.046853,-0.125401 -0.046853,-0.289388 v -1.106564 q 0,-0.01102 0.00551,-0.01929 0.00551,-0.0083 0.019292,-0.0124 0.01378,-0.0055 0.035829,-0.0083 0.022049,-0.0041 0.057878,-0.0041 0.033073,0 0.0565,0.0041 0.023427,0.0028 0.035829,0.0083 0.01378,0.0041 0.019293,0.0124 0.00551,0.0083 0.00551,0.01929 v 1.077625 q 0,0.124024 0.030317,0.216352 0.030317,0.09233 0.086816,0.15434 0.057878,0.06063 0.1378037,0.09233 0.081304,0.03032 0.1819009,0.03032 0.1033528,0 0.1832789,-0.03032 0.081304,-0.03032 0.1364257,-0.09095 0.056499,-0.06063 0.085438,-0.150206 0.030317,-0.08957 0.030317,-0.209461 v -1.090028 q 0,-0.01102 0.00551,-0.01929 0.00551,-0.0083 0.019293,-0.0124 0.01378,-0.0055 0.035829,-0.0083 0.023427,-0.0041 0.057878,-0.0041 0.033073,0 0.055122,0.0041 0.023427,0.0028 0.035829,0.0083 0.01378,0.0041 0.019292,0.0124 0.00689,0.0083 0.00689,0.01929 z"
         id="path866" />
      <path
         d="m 10.088043,78.360245 q 0,0.02618 -0.0028,0.04547 -0.0028,0.01929 -0.0096,0.03169 -0.0055,0.01103 -0.01516,0.01654 -0.0083,0.0055 -0.01929,0.0055 H 9.5395845 v 1.546158 q 0,0.01102 -0.00551,0.01929 -0.00551,0.0083 -0.019293,0.01378 -0.01378,0.0041 -0.037207,0.0069 -0.022049,0.0041 -0.0565,0.0041 -0.033073,0 -0.056499,-0.0041 -0.023427,-0.0028 -0.037207,-0.0069 -0.01378,-0.0055 -0.019293,-0.01378 -0.00551,-0.0083 -0.00551,-0.01929 V 78.459464 H 8.8009566 q -0.011024,0 -0.020671,-0.0055 -0.00827,-0.0055 -0.01378,-0.01654 -0.00551,-0.0124 -0.00965,-0.03169 -0.00276,-0.01929 -0.00276,-0.04547 0,-0.02618 0.00276,-0.04548 0.00413,-0.02067 0.00965,-0.03307 0.00551,-0.0124 0.01378,-0.01791 0.00965,-0.0055 0.020671,-0.0055 H 10.04119 q 0.01102,0 0.01929,0.0055 0.0096,0.0055 0.01516,0.01791 0.0069,0.0124 0.0096,0.03307 0.0028,0.01929 0.0028,0.04548 z"
         id="path868" />
    </g>
    <g
       aria-label="SOC"
       id="text8544-7-1-94-82"
       style="font-size:2.82222px;line-height:1.25;font-family:Calibri;-inkscape-font-specification:Calibri;text-align:center;text-anchor:middle;stroke-width:0.264583">
      <path
         d="m 6.441068,91.791223 q 0,0.125401 -0.046853,0.223242 -0.045475,0.09784 -0.1281574,0.166743 -0.081304,0.06752 -0.1929252,0.101974 -0.110243,0.03445 -0.2384005,0.03445 -0.089572,0 -0.1667425,-0.01516 -0.075792,-0.01516 -0.1364256,-0.03721 -0.059256,-0.02205 -0.1005968,-0.04548 -0.039963,-0.02343 -0.0565,-0.03996 -0.015158,-0.01654 -0.023427,-0.04134 -0.00689,-0.02618 -0.00689,-0.0689 0,-0.03032 0.00276,-0.04961 0.00276,-0.02067 0.00827,-0.03307 0.00551,-0.0124 0.01378,-0.01654 0.00827,-0.0055 0.019292,-0.0055 0.019293,0 0.053743,0.02343 0.035829,0.02343 0.09095,0.05099 0.055122,0.02756 0.1322916,0.05236 0.078548,0.02343 0.1805228,0.02343 0.07717,0 0.1405598,-0.02067 0.064768,-0.02067 0.110243,-0.05788 0.046853,-0.03858 0.071658,-0.09371 0.024805,-0.05512 0.024805,-0.125401 0,-0.07579 -0.034451,-0.129536 -0.034451,-0.05374 -0.09095,-0.09371 -0.0565,-0.04134 -0.1295355,-0.07441 -0.071658,-0.03445 -0.14745,-0.0689 -0.075792,-0.03583 -0.1474499,-0.07855 -0.071658,-0.04272 -0.1281575,-0.100597 -0.0565,-0.05788 -0.092328,-0.135048 -0.034451,-0.07855 -0.034451,-0.187413 0,-0.111621 0.039963,-0.198437 0.041341,-0.08819 0.112999,-0.14745 0.073036,-0.05926 0.1722547,-0.08957 0.1005967,-0.03169 0.2163518,-0.03169 0.059256,0 0.1185112,0.01102 0.060634,0.0096 0.112999,0.02756 0.053743,0.01654 0.095085,0.03858 0.041341,0.02067 0.053743,0.03445 0.01378,0.0124 0.017914,0.02067 0.00413,0.0069 0.00689,0.01929 0.00276,0.01102 0.00413,0.02756 0.00138,0.01654 0.00138,0.04272 0,0.0248 -0.00276,0.0441 -0.00138,0.01929 -0.00551,0.03307 -0.00413,0.0124 -0.012402,0.01929 -0.00689,0.0055 -0.016536,0.0055 -0.015158,0 -0.048231,-0.01929 -0.031695,-0.01929 -0.078548,-0.04272 -0.046853,-0.02481 -0.111621,-0.0441 -0.06339,-0.02067 -0.1433158,-0.02067 -0.074414,0 -0.1295355,0.02067 -0.055122,0.01929 -0.09095,0.05237 -0.035829,0.03307 -0.053743,0.07855 -0.017914,0.04547 -0.017914,0.09646 0,0.07441 0.034451,0.128157 0.034451,0.05374 0.09095,0.09508 0.057878,0.04134 0.1309135,0.07579 0.073036,0.03445 0.148828,0.07028 0.075792,0.03445 0.148828,0.07717 0.073036,0.04134 0.1295355,0.09922 0.057878,0.0565 0.092328,0.135048 0.035829,0.07717 0.035829,0.183279 z"
         id="path857" />
      <path
         d="m 8.2738573,91.37919 q 0,0.216352 -0.050987,0.389984 -0.050987,0.173633 -0.1529622,0.296278 -0.1005967,0.121268 -0.2535588,0.187413 -0.1529621,0.06477 -0.3569116,0.06477 -0.2011935,0 -0.3486434,-0.05926 -0.146072,-0.06063 -0.2425346,-0.175011 -0.095085,-0.114377 -0.1419378,-0.283876 -0.046853,-0.169498 -0.046853,-0.389984 0,-0.21084 0.050987,-0.383095 0.050987,-0.172254 0.1529621,-0.292143 0.1019748,-0.121268 0.2549369,-0.186035 0.1529621,-0.06615 0.3569116,-0.06615 0.1970594,0 0.3431313,0.05925 0.1460719,0.05926 0.2425345,0.173633 0.097841,0.112999 0.1446939,0.28112 0.048231,0.166742 0.048231,0.383094 z m -0.2494247,0.01654 q 0,-0.151584 -0.027561,-0.281119 -0.026183,-0.130914 -0.089573,-0.225998 -0.062012,-0.09646 -0.1667424,-0.150206 -0.1047309,-0.05374 -0.259071,-0.05374 -0.1543402,0 -0.259071,0.05788 -0.1047308,0.05788 -0.1708766,0.15434 -0.064768,0.09646 -0.093706,0.225998 -0.027561,0.128157 -0.027561,0.270095 0,0.157097 0.026183,0.289388 0.026183,0.132292 0.088194,0.228754 0.062012,0.09508 0.1653644,0.148828 0.1047309,0.05237 0.2618271,0.05237 0.1557182,0 0.2618271,-0.05788 0.1061088,-0.05788 0.1708766,-0.155718 0.064768,-0.09922 0.092329,-0.228754 0.027561,-0.129536 0.027561,-0.27423 z"
         id="path859" />
      <path
         d="m 9.8393076,92.03927 q 0,0.02205 -0.00138,0.03858 -0.00138,0.01654 -0.00551,0.02894 -0.00276,0.0124 -0.00827,0.02205 -0.00551,0.0096 -0.019293,0.02343 -0.01378,0.01378 -0.057878,0.04272 -0.044097,0.02756 -0.110243,0.05512 -0.064768,0.02618 -0.1502061,0.0441 -0.08406,0.01929 -0.1846569,0.01929 -0.1736327,0 -0.3141925,-0.05788 -0.1391818,-0.05788 -0.2384004,-0.170877 -0.097841,-0.112999 -0.1515841,-0.278364 -0.052365,-0.166742 -0.052365,-0.383094 0,-0.221864 0.056499,-0.395497 0.057878,-0.173632 0.1612303,-0.293521 0.1033528,-0.121268 0.2466687,-0.184657 0.1446939,-0.06339 0.3197046,-0.06339 0.07717,0 0.150206,0.01516 0.073036,0.01378 0.1350477,0.03583 0.062012,0.02205 0.110243,0.05099 0.048231,0.02894 0.066146,0.04823 0.019293,0.01791 0.024805,0.02756 0.00551,0.0096 0.00827,0.02343 0.00413,0.0124 0.00551,0.03032 0.00276,0.01792 0.00276,0.04272 0,0.02756 -0.00276,0.04685 -0.00276,0.01929 -0.00827,0.03307 -0.00551,0.0124 -0.01378,0.01929 -0.00689,0.0055 -0.017914,0.0055 -0.019292,0 -0.053743,-0.02618 -0.034451,-0.02756 -0.089572,-0.05926 -0.053743,-0.03307 -0.1322915,-0.05926 -0.07717,-0.02756 -0.186035,-0.02756 -0.1185112,0 -0.2163519,0.04823 -0.096463,0.04685 -0.1653644,0.139181 -0.068902,0.09233 -0.1074869,0.225999 -0.037207,0.132291 -0.037207,0.303168 0,0.169498 0.035829,0.300412 0.037207,0.129535 0.1047309,0.21773 0.068902,0.08682 0.1681205,0.132291 0.099219,0.0441 0.22462,0.0441 0.1061089,0 0.184657,-0.02618 0.079926,-0.02618 0.1350477,-0.05788 0.0565,-0.03307 0.092329,-0.05925 0.035829,-0.02618 0.056499,-0.02618 0.00965,0 0.016536,0.0041 0.00689,0.0041 0.011024,0.01654 0.00413,0.01103 0.00551,0.03169 0.00276,0.02067 0.00276,0.05237 z"
         id="path861" />
    </g>
    <g
       aria-label="EOC"
       id="text8544-7-1-94-82-8"
       style="font-size:2.82222px;line-height:1.25;font-family:Calibri;-inkscape-font-specification:Calibri;text-align:center;text-anchor:middle;stroke-width:0.264583">
      <path
         d="m 6.4569154,104.44361 q 0,0.0248 -0.00276,0.0441 -0.00276,0.0179 -0.00965,0.0303 -0.00689,0.0124 -0.016536,0.0179 -0.00827,0.006 -0.019292,0.006 H 5.552923 q -0.031695,0 -0.060634,-0.0207 -0.027561,-0.0221 -0.027561,-0.0758 v -1.59026 q 0,-0.0537 0.027561,-0.0744 0.028939,-0.0221 0.060634,-0.0221 h 0.8461148 q 0.011024,0 0.019293,0.006 0.00965,0.006 0.015158,0.0179 0.00551,0.0124 0.00827,0.0317 0.00413,0.0179 0.00413,0.0455 0,0.0248 -0.00413,0.0441 -0.00276,0.0179 -0.00827,0.0303 -0.00551,0.011 -0.015158,0.0165 -0.00827,0.006 -0.019293,0.006 H 5.701751 v 0.55948 h 0.5980682 q 0.011024,0 0.019292,0.007 0.00965,0.006 0.015158,0.0165 0.00689,0.011 0.00965,0.0303 0.00276,0.0193 0.00276,0.0455 0,0.0248 -0.00276,0.0427 -0.00276,0.0179 -0.00965,0.0289 -0.00551,0.011 -0.015158,0.0165 -0.00827,0.004 -0.019292,0.004 H 5.701751 v 0.63803 h 0.7069331 q 0.011024,0 0.019292,0.006 0.00965,0.006 0.016536,0.0179 0.00689,0.011 0.00965,0.0303 0.00276,0.0179 0.00276,0.0455 z"
         id="path850" />
      <path
         d="m 8.2924608,103.62919 q 0,0.21635 -0.050987,0.38998 -0.050987,0.17364 -0.1529622,0.29628 -0.1005967,0.12127 -0.2535588,0.18742 -0.1529621,0.0648 -0.3569116,0.0648 -0.2011934,0 -0.3486434,-0.0592 -0.146072,-0.0606 -0.2425346,-0.17501 -0.095084,-0.11438 -0.1419378,-0.28388 -0.046853,-0.1695 -0.046853,-0.38998 0,-0.21084 0.050987,-0.3831 0.050987,-0.17225 0.1529621,-0.29214 0.1019748,-0.12127 0.2549369,-0.18604 0.1529621,-0.0661 0.3569116,-0.0661 0.1970594,0 0.3431313,0.0593 0.1460719,0.0593 0.2425345,0.17364 0.097841,0.113 0.1446939,0.28112 0.048231,0.16674 0.048231,0.38309 z m -0.2494247,0.0165 q 0,-0.15159 -0.027561,-0.28112 -0.026183,-0.13092 -0.089572,-0.226 -0.062012,-0.0965 -0.1667425,-0.15021 -0.1047309,-0.0537 -0.259071,-0.0537 -0.1543402,0 -0.259071,0.0579 -0.1047308,0.0579 -0.1708766,0.15434 -0.064768,0.0965 -0.093707,0.22599 -0.027561,0.12816 -0.027561,0.2701 0,0.1571 0.026183,0.28939 0.026183,0.13229 0.088194,0.22875 0.062012,0.0951 0.1653645,0.14883 0.1047308,0.0524 0.261827,0.0524 0.1557182,0 0.2618271,-0.0579 0.1061088,-0.0579 0.1708766,-0.15572 0.064768,-0.0992 0.092328,-0.22875 0.027561,-0.12954 0.027561,-0.27423 z"
         id="path852" />
      <path
         d="m 9.857911,104.28927 q 0,0.022 -0.00138,0.0386 -0.00138,0.0165 -0.00551,0.0289 -0.00276,0.0124 -0.00827,0.022 -0.00551,0.01 -0.019293,0.0234 -0.01378,0.0138 -0.057878,0.0427 -0.044097,0.0276 -0.1102429,0.0551 -0.064768,0.0262 -0.1502061,0.0441 -0.08406,0.0193 -0.184657,0.0193 -0.1736326,0 -0.3141924,-0.0579 -0.1391818,-0.0579 -0.2384005,-0.17088 -0.097841,-0.11299 -0.151584,-0.27836 -0.052365,-0.16674 -0.052365,-0.38309 0,-0.22187 0.0565,-0.3955 0.057878,-0.17363 0.1612303,-0.29352 0.1033528,-0.12127 0.2466687,-0.18466 0.1446939,-0.0634 0.3197046,-0.0634 0.07717,0 0.150206,0.0152 0.073036,0.0138 0.1350477,0.0358 0.062012,0.022 0.1102429,0.051 0.048231,0.0289 0.066146,0.0482 0.019293,0.0179 0.024805,0.0276 0.00551,0.01 0.00827,0.0234 0.00413,0.0124 0.00551,0.0303 0.00276,0.0179 0.00276,0.0427 0,0.0276 -0.00276,0.0468 -0.00276,0.0193 -0.00827,0.0331 -0.00551,0.0124 -0.01378,0.0193 -0.00689,0.006 -0.017914,0.006 -0.019292,0 -0.053743,-0.0262 -0.034451,-0.0276 -0.089572,-0.0593 -0.053743,-0.0331 -0.1322915,-0.0593 -0.07717,-0.0276 -0.1860351,-0.0276 -0.1185111,0 -0.2163518,0.0482 -0.096463,0.0469 -0.1653644,0.13918 -0.068902,0.0923 -0.1074869,0.226 -0.037207,0.13229 -0.037207,0.30317 0,0.1695 0.035829,0.30041 0.037207,0.12953 0.1047308,0.21773 0.068902,0.0868 0.1681206,0.13229 0.099219,0.0441 0.22462,0.0441 0.1061089,0 0.184657,-0.0262 0.079926,-0.0262 0.1350477,-0.0579 0.0565,-0.0331 0.092328,-0.0593 0.035829,-0.0262 0.0565,-0.0262 0.00965,0 0.016536,0.004 0.00689,0.004 0.011024,0.0165 0.00413,0.011 0.00551,0.0317 0.00276,0.0207 0.00276,0.0524 z"
         id="path854" />
    </g>
  </g>
</svg>
