<?xml version="1.0" encoding="UTF-8" standalone="no"?>
<!-- Created with Inkscape (http://www.inkscape.org/) -->

<svg
   width="30.488001mm"
   height="128.50433mm"
   viewBox="0 0 30.488001 128.50433"
   version="1.1"
   id="svg5"
   inkscape:version="1.1.2 (b8e25be833, 2022-02-05)"
   sodipodi:docname="ProbS.svg"
   xmlns:inkscape="http://www.inkscape.org/namespaces/inkscape"
   xmlns:sodipodi="http://sodipodi.sourceforge.net/DTD/sodipodi-0.dtd"
   xmlns="http://www.w3.org/2000/svg"
   xmlns:svg="http://www.w3.org/2000/svg">
  <sodipodi:namedview
     id="namedview7"
     pagecolor="#ffffff"
     bordercolor="#666666"
     borderopacity="1.0"
     inkscape:pageshadow="2"
     inkscape:pageopacity="0.0"
     inkscape:pagecheckerboard="0"
     inkscape:document-units="mm"
     showgrid="false"
     height="128.5mm"
     inkscape:zoom="4.5327338"
     inkscape:cx="-84.606777"
     inkscape:cy="318.68185"
     inkscape:window-width="3840"
     inkscape:window-height="2054"
     inkscape:window-x="-11"
     inkscape:window-y="-11"
     inkscape:window-maximized="0"
     inkscape:current-layer="layer1" />
  <defs
     id="defs2" />
  <g
     inkscape:label="Layer 1"
     inkscape:groupmode="layer"
     id="layer1"
     transform="translate(0.00163785)">
    <path
       id="rect4302"
       style="fill:#e6e6e6;stroke-width:0.184932"
       d="M -0.00163785,1.6577559e-8 H 30.486363 V 128.50433 H -0.00163785 Z" />
    <path
       id="rect10313"
       style="fill:#fafafa;stroke:#fafafa;stroke-width:0.1"
       d="m 3.1204512,6 h 9.8110008 c 0.831,0 1.499999,0.6689998 1.499999,1.4999995 V 116.5 c 0,0.831 -0.668999,1.5 -1.499999,1.5 H 3.1204512 c -0.8309998,0 -1.4999996,-0.669 -1.4999996,-1.5 V 7.4999995 C 1.6204516,6.6689998 2.2894514,6 3.1204512,6 Z" />
    <path
       id="rect10313-0"
       style="fill:#fafafa;fill-opacity:0.99;stroke:#fafafa;stroke-width:0.1"
       d="m 17.553362,6 h 9.811 c 0.831,0 1.5,0.6689998 1.5,1.4999995 V 102.5 c 0,0.831 -0.669,1.5 -1.5,1.5 h -9.811 c -0.831,0 -1.5,-0.669 -1.5,-1.5 V 7.4999995 C 16.053362,6.6689998 16.722362,6 17.553362,6 Z" />
    <path
       id="rect10313-8"
       style="fill:#bbbbbb;stroke:#bbbbbb;stroke-width:0.1"
       d="m 17.55336,105 h 9.811 c 0.831,0 1.5,0.669 1.5,1.5 v 10 c 0,0.831 -0.669,1.5 -1.5,1.5 h -9.811 c -0.831,0 -1.5,-0.669 -1.5,-1.5 v -10 c 0,-0.831 0.669,-1.5 1.5,-1.5 z" />
    <path
       id="rect10313-4"
       style="fill:#fafafa;stroke-width:0.264583"
       d="m 3.1204513,136.22836 h 9.0000007 c 0.831,0 1.5,0.669 1.5,1.5 v 9.59748 c 0,0.831 -0.669,1.5 -1.5,1.5 H 3.1204513 c -0.8309998,0 -1.4999997,-0.669 -1.4999997,-1.5 v -9.59748 c 0,-0.831 0.6689999,-1.5 1.4999997,-1.5 z" />
    <g
       aria-label="PROBS"
       id="text8544-7-0-8-5"
       style="font-size:4.23333px;line-height:1.25;font-family:Calibri;-inkscape-font-specification:Calibri;text-align:center;letter-spacing:0px;text-anchor:middle;fill:#010101;stroke-width:0.264583">
      <path
         d="m 3.1765809,120.81855 q 0,0.20051 -0.066146,0.36174 -0.066146,0.16123 -0.1901691,0.27491 -0.1219563,0.11369 -0.3017901,0.1757 -0.1777668,0.062 -0.4258134,0.062 H 1.8888053 v 0.96324 q 0,0.0165 -0.010335,0.0289 -0.00827,0.0124 -0.028939,0.0207 -0.018603,0.006 -0.053743,0.0103 -0.033073,0.006 -0.084749,0.006 -0.051676,0 -0.086816,-0.006 -0.033073,-0.004 -0.053743,-0.0103 -0.020671,-0.008 -0.028939,-0.0207 -0.00827,-0.0124 -0.00827,-0.0289 v -2.46806 q 0,-0.0827 0.043408,-0.11782 0.043408,-0.0351 0.097152,-0.0351 h 0.5725744 q 0.086816,0 0.1653645,0.008 0.080615,0.006 0.188102,0.031 0.109554,0.0227 0.221175,0.0889 0.113688,0.0641 0.1922361,0.15916 0.078548,0.0951 0.1198892,0.22117 0.043408,0.12403 0.043408,0.27492 z m -0.374137,0.0289 q 0,-0.1633 -0.062012,-0.27285 -0.059945,-0.10955 -0.1508951,-0.1633 -0.088883,-0.0537 -0.186035,-0.0682 -0.095085,-0.0145 -0.186035,-0.0145 H 1.8888053 v 1.0728 h 0.3203936 q 0.1612303,0 0.2666502,-0.0413 0.1074869,-0.0413 0.1798338,-0.11369 0.072347,-0.0744 0.109554,-0.1757 0.037207,-0.10335 0.037207,-0.22324 z"
         id="path930" />
      <path
         d="m 5.5040854,122.65616 q 0,0.0165 -0.0062,0.0289 -0.0062,0.0124 -0.026872,0.0207 -0.02067,0.008 -0.057878,0.0124 -0.037207,0.004 -0.099219,0.004 -0.053743,0 -0.088883,-0.004 -0.033073,-0.004 -0.053743,-0.0124 -0.020671,-0.0103 -0.033073,-0.0269 -0.010335,-0.0165 -0.018604,-0.0413 l -0.2459796,-0.63045 q -0.043408,-0.10749 -0.090951,-0.19637 -0.045475,-0.0909 -0.1095539,-0.15503 -0.064079,-0.0661 -0.1508951,-0.10129 -0.086816,-0.0372 -0.2087726,-0.0372 H 4.07575 v 1.13894 q 0,0.0165 -0.010335,0.0289 -0.00827,0.0124 -0.028939,0.0207 -0.018604,0.006 -0.053744,0.0103 -0.033073,0.006 -0.084749,0.006 -0.051676,0 -0.086816,-0.006 -0.033073,-0.004 -0.053743,-0.0103 -0.020671,-0.008 -0.028939,-0.0207 -0.00827,-0.0124 -0.00827,-0.0289 v -2.47633 q 0,-0.0806 0.041341,-0.11162 0.043408,-0.0331 0.09095,-0.0331 h 0.5684403 q 0.1012857,0 0.1674315,0.006 0.068213,0.004 0.1219563,0.0103 0.1550291,0.0269 0.2728513,0.0847 0.1198892,0.0579 0.2005044,0.14676 0.080615,0.0889 0.1198892,0.20464 0.041341,0.11369 0.041341,0.25218 0,0.13436 -0.037207,0.24185 -0.03514,0.10542 -0.1033527,0.1881 -0.068213,0.0806 -0.1632974,0.14056 -0.095085,0.06 -0.2129068,0.10129 0.066146,0.0289 0.1198893,0.0744 0.053743,0.0434 0.099219,0.10542 0.047542,0.062 0.088883,0.14263 0.041341,0.0806 0.082682,0.1819 l 0.2397785,0.58911 q 0.028939,0.0744 0.037207,0.10542 0.00827,0.0289 0.00827,0.0455 z M 4.968718,120.77721 q 0,-0.1571 -0.07028,-0.26458 -0.07028,-0.10956 -0.2356443,-0.1571 -0.051676,-0.0145 -0.1178222,-0.0207 -0.064079,-0.006 -0.1694985,-0.006 H 4.07575 v 0.90124 h 0.3472654 q 0.1405597,0 0.2418455,-0.0331 0.1033527,-0.0351 0.1715656,-0.0951 0.068213,-0.062 0.099219,-0.1447 0.033073,-0.0827 0.033073,-0.17983 z"
         id="path932" />
      <path
         d="m 8.218129,121.34152 q 0,0.32452 -0.076481,0.58497 -0.076481,0.26045 -0.2294432,0.44442 -0.1508951,0.1819 -0.3803382,0.28112 -0.2294432,0.0971 -0.5353674,0.0971 -0.3017901,0 -0.5229651,-0.0889 -0.2191079,-0.091 -0.3638018,-0.26252 -0.1426268,-0.17156 -0.2129067,-0.42581 -0.07028,-0.25425 -0.07028,-0.58498 0,-0.31626 0.076481,-0.57464 0.076481,-0.25838 0.2294432,-0.43822 0.1529621,-0.1819 0.3824052,-0.27905 0.2294432,-0.0992 0.5353674,-0.0992 0.295589,0 0.5146969,0.0889 0.2191078,0.0889 0.3638017,0.26045 0.146761,0.16949 0.2170409,0.42168 0.072347,0.25011 0.072347,0.57464 z m -0.374137,0.0248 q 0,-0.22737 -0.041341,-0.42168 -0.039274,-0.19637 -0.1343586,-0.339 -0.093018,-0.14469 -0.2501137,-0.2253 -0.1570962,-0.0806 -0.3886064,-0.0806 -0.2315103,0 -0.3886065,0.0868 -0.1570962,0.0868 -0.2563149,0.23151 -0.097152,0.14469 -0.1405597,0.33899 -0.041341,0.19224 -0.041341,0.40515 0,0.23564 0.039274,0.43408 0.039274,0.19844 0.1322916,0.34313 0.093018,0.14263 0.2480466,0.22324 0.1570962,0.0786 0.3927406,0.0786 0.2335773,0 0.3927405,-0.0868 0.1591633,-0.0868 0.2563149,-0.23357 0.097152,-0.14883 0.1384927,-0.34313 0.041341,-0.19431 0.041341,-0.41135 z"
         id="path934" />
      <path
         d="m 10.543567,121.94303 q 0,0.12609 -0.03307,0.23358 -0.03101,0.10542 -0.08888,0.19017 -0.05788,0.0847 -0.140559,0.14882 -0.08062,0.0641 -0.183968,0.10749 -0.101286,0.0434 -0.2191082,0.0661 -0.1157551,0.0207 -0.2666502,0.0207 H 8.9126598 q -0.047542,0 -0.09095,-0.031 -0.041341,-0.0331 -0.041341,-0.11369 v -2.38538 q 0,-0.0806 0.041341,-0.11162 0.043408,-0.0331 0.09095,-0.0331 h 0.6077144 q 0.2397784,0 0.3927405,0.0455 0.1529623,0.0455 0.2542483,0.13229 0.103352,0.0868 0.155029,0.21291 0.05168,0.12609 0.05168,0.28525 0,0.0951 -0.02274,0.18191 -0.02274,0.0868 -0.06821,0.16123 -0.04341,0.0723 -0.111621,0.13022 -0.06615,0.0579 -0.152962,0.0951 0.109554,0.0207 0.204638,0.0765 0.09509,0.0537 0.165365,0.13849 0.07235,0.0847 0.113688,0.19844 0.04134,0.11368 0.04134,0.25011 z m -0.535368,-1.19683 q 0,-0.0971 -0.026871,-0.17569 -0.026872,-0.0785 -0.084749,-0.1323 -0.057878,-0.0558 -0.1508951,-0.0847 -0.093018,-0.0289 -0.2459796,-0.0289 H 9.1317677 v 0.86609 h 0.4051429 q 0.1384927,0 0.223242,-0.0351 0.084749,-0.0372 0.1405598,-0.0971 0.05581,-0.062 0.080615,-0.14263 0.026871,-0.0827 0.026871,-0.1695 z m 0.161231,1.2175 q 0,-0.11989 -0.03927,-0.21084 -0.03721,-0.0909 -0.111621,-0.15296 -0.072347,-0.062 -0.1839684,-0.093 -0.1095539,-0.0331 -0.2769854,-0.0331 H 9.1317677 v 0.94258 h 0.5167639 q 0.1219563,0 0.2129067,-0.0289 0.09095,-0.0289 0.1591637,-0.0847 0.07028,-0.0579 0.109554,-0.14263 0.03927,-0.0847 0.03927,-0.19637 z"
         id="path936" />
      <path
         d="m 12.519671,121.95957 q 0,0.1881 -0.07028,0.33486 -0.06821,0.14676 -0.192237,0.25011 -0.121956,0.10129 -0.289387,0.15297 -0.165365,0.0517 -0.357601,0.0517 -0.134359,0 -0.250114,-0.0227 -0.113688,-0.0227 -0.204638,-0.0558 -0.08888,-0.0331 -0.150895,-0.0682 -0.05994,-0.0351 -0.08475,-0.0599 -0.02274,-0.0248 -0.03514,-0.062 -0.01034,-0.0393 -0.01034,-0.10335 0,-0.0455 0.0041,-0.0744 0.0041,-0.031 0.0124,-0.0496 0.0083,-0.0186 0.02067,-0.0248 0.0124,-0.008 0.02894,-0.008 0.02894,0 0.08061,0.0351 0.05374,0.0351 0.136426,0.0765 0.08268,0.0413 0.198437,0.0785 0.117822,0.0351 0.270784,0.0351 0.115756,0 0.21084,-0.031 0.09715,-0.031 0.165365,-0.0868 0.07028,-0.0579 0.107486,-0.14056 0.03721,-0.0827 0.03721,-0.1881 0,-0.11369 -0.05168,-0.1943 -0.05168,-0.0806 -0.136426,-0.14056 -0.08475,-0.062 -0.194303,-0.11162 -0.107487,-0.0517 -0.221175,-0.10336 -0.113688,-0.0537 -0.221175,-0.11782 -0.107487,-0.0641 -0.192236,-0.15089 -0.08475,-0.0868 -0.138493,-0.20258 -0.05168,-0.11782 -0.05168,-0.28111 0,-0.16744 0.05995,-0.29766 0.06201,-0.13229 0.169498,-0.22118 0.109554,-0.0889 0.258382,-0.13435 0.150895,-0.0476 0.324528,-0.0476 0.08888,0 0.177767,0.0165 0.09095,0.0145 0.169498,0.0413 0.08061,0.0248 0.142627,0.0579 0.06201,0.031 0.08061,0.0517 0.02067,0.0186 0.02687,0.031 0.0062,0.0103 0.01033,0.0289 0.0041,0.0165 0.0062,0.0413 0.0021,0.0248 0.0021,0.0641 0,0.0372 -0.0041,0.0662 -0.0021,0.0289 -0.0083,0.0496 -0.0062,0.0186 -0.0186,0.0289 -0.01034,0.008 -0.02481,0.008 -0.02274,0 -0.07235,-0.0289 -0.04754,-0.0289 -0.117822,-0.0641 -0.07028,-0.0372 -0.167432,-0.0661 -0.09508,-0.031 -0.214973,-0.031 -0.111621,0 -0.194304,0.031 -0.08268,0.0289 -0.136425,0.0785 -0.05374,0.0496 -0.08062,0.11782 -0.02687,0.0682 -0.02687,0.14469 0,0.11162 0.05168,0.19224 0.05168,0.0806 0.136426,0.14263 0.08682,0.062 0.19637,0.11368 0.109554,0.0517 0.223242,0.10542 0.113688,0.0517 0.223242,0.11576 0.109554,0.062 0.194303,0.14883 0.08682,0.0847 0.138493,0.20257 0.05374,0.11575 0.05374,0.27492 z"
         id="path938" />
    </g>
    <g
       aria-label="2 LIFT"
       id="text8544-7-0-8-5-9"
       style="font-size:2.46944px;line-height:1.25;font-family:Calibri;-inkscape-font-specification:Calibri;text-align:center;text-anchor:middle;fill:#010101;stroke-width:0.264583">
      <path
         d="m 2.5983669,125.36831 q 0,0.0145 -0.00362,0.0277 -0.00241,0.0121 -0.00844,0.0217 -0.00482,0.008 -0.013264,0.0133 -0.00844,0.005 -0.019293,0.005 H 1.7109119 q -0.010852,0 -0.020498,-0.004 -0.00965,-0.004 -0.016881,-0.0109 -0.00723,-0.008 -0.010852,-0.0217 -0.00362,-0.0133 -0.00362,-0.0314 0,-0.0157 0.00121,-0.0277 0.00121,-0.0121 0.00482,-0.0217 0.00362,-0.01 0.00965,-0.0193 0.00603,-0.01 0.015675,-0.0205 l 0.319532,-0.33762 q 0.1193724,-0.1254 0.1893077,-0.22428 0.071141,-0.0989 0.1085203,-0.17845 0.037379,-0.0796 0.048231,-0.1447 0.012058,-0.0651 0.012058,-0.12299 0,-0.0579 -0.019292,-0.10972 -0.018087,-0.0531 -0.05426,-0.0916 -0.036173,-0.0398 -0.090434,-0.0627 -0.053054,-0.0241 -0.1229897,-0.0241 -0.075964,0 -0.1362532,0.0217 -0.060289,0.0205 -0.1061088,0.047 -0.044614,0.0253 -0.074758,0.047 -0.030145,0.0205 -0.044614,0.0205 -0.00723,0 -0.013264,-0.004 -0.00603,-0.004 -0.010852,-0.0109 -0.00362,-0.008 -0.00603,-0.0205 -0.00121,-0.0121 -0.00121,-0.0277 0,-0.0145 0.00121,-0.0241 0.00121,-0.01 0.00362,-0.0169 0.00241,-0.008 0.00603,-0.0157 0.00482,-0.007 0.018087,-0.0193 0.014469,-0.0121 0.047026,-0.0326 0.033762,-0.0205 0.084405,-0.041 0.050643,-0.0217 0.1121376,-0.0362 0.061495,-0.0157 0.1278128,-0.0157 0.1097261,0 0.1905135,0.0326 0.081993,0.0326 0.1362532,0.088 0.05426,0.0555 0.080787,0.12901 0.026527,0.0724 0.026527,0.15314 0,0.0748 -0.013264,0.14952 -0.012058,0.0736 -0.05426,0.16157 -0.040997,0.0868 -0.1205781,0.19293 -0.078376,0.1061 -0.2098059,0.24477 l -0.2845644,0.29783 H 2.553753 q 0.00965,0 0.018087,0.005 0.00844,0.004 0.014469,0.0121 0.00603,0.008 0.00844,0.0205 0.00362,0.0121 0.00362,0.0265 z"
         style="font-weight:300;-inkscape-font-specification:'Calibri Light'"
         id="path919" />
      <path
         d="m 4.3250456,125.36831 q 0,0.0169 -0.00241,0.0289 -0.00241,0.0121 -0.00723,0.0217 -0.00482,0.008 -0.012058,0.0133 -0.00723,0.004 -0.016881,0.004 H 3.6100173 q -0.021704,0 -0.044614,-0.0157 -0.02291,-0.0169 -0.02291,-0.0603 v -1.4602 q 0,-0.007 0.00362,-0.0133 0.00362,-0.006 0.012058,-0.01 0.00844,-0.004 0.02291,-0.006 0.014469,-0.002 0.034968,-0.002 0.021704,0 0.034968,0.002 0.014469,0.002 0.02291,0.006 0.00844,0.004 0.012058,0.01 0.00362,0.006 0.00362,0.0133 v 1.40233 h 0.5968617 q 0.00965,0 0.016881,0.005 0.00723,0.004 0.012058,0.0121 0.00482,0.007 0.00723,0.0205 0.00241,0.0121 0.00241,0.0289 z"
         style="font-weight:300;-inkscape-font-specification:'Calibri Light'"
         id="path921" />
      <path
         d="m 4.7241593,125.41172 q 0,0.007 -0.00362,0.0133 -0.00362,0.006 -0.012058,0.01 -0.00844,0.004 -0.02291,0.006 -0.013264,0.002 -0.034968,0.002 -0.020498,0 -0.034968,-0.002 -0.014469,-0.002 -0.02291,-0.006 -0.00844,-0.004 -0.012058,-0.01 -0.00362,-0.006 -0.00362,-0.0133 v -1.51205 q 0,-0.007 0.00362,-0.0133 0.00482,-0.006 0.013264,-0.01 0.00965,-0.004 0.02291,-0.006 0.014469,-0.002 0.033762,-0.002 0.021704,0 0.034968,0.002 0.014469,0.002 0.02291,0.006 0.00844,0.004 0.012058,0.01 0.00362,0.006 0.00362,0.0133 z"
         style="font-weight:300;-inkscape-font-specification:'Calibri Light'"
         id="path923" />
      <path
         d="m 5.9697312,123.94308 q 0,0.0157 -0.00241,0.0277 -0.00241,0.0121 -0.00844,0.0205 -0.00482,0.007 -0.012058,0.0121 -0.00723,0.004 -0.015675,0.004 H 5.3270498 v 0.59083 h 0.5727461 q 0.00844,0 0.015675,0.004 0.00723,0.002 0.012058,0.01 0.00603,0.007 0.00844,0.0193 0.00241,0.0121 0.00241,0.0302 0,0.0157 -0.00241,0.0277 -0.00241,0.0121 -0.00844,0.0205 -0.00482,0.007 -0.012058,0.0121 -0.00723,0.004 -0.015675,0.004 H 5.3270498 v 0.68729 q 0,0.007 -0.00362,0.0133 -0.00362,0.006 -0.012058,0.01 -0.00844,0.004 -0.02291,0.006 -0.013264,0.002 -0.034968,0.002 -0.020498,0 -0.034968,-0.002 -0.014469,-0.002 -0.02291,-0.006 -0.00844,-0.004 -0.012058,-0.01 -0.00362,-0.006 -0.00362,-0.0133 v -1.4602 q 0,-0.0434 0.02291,-0.0591 0.02291,-0.0169 0.044614,-0.0169 h 0.6836779 q 0.00844,0 0.015675,0.005 0.00723,0.004 0.012058,0.0121 0.00603,0.008 0.00844,0.0217 0.00241,0.0121 0.00241,0.0289 z"
         style="font-weight:300;-inkscape-font-specification:'Calibri Light'"
         id="path925" />
      <path
         d="m 7.2611232,123.94308 q 0,0.0157 -0.00241,0.0277 -0.00241,0.0121 -0.00723,0.0205 -0.00482,0.007 -0.012058,0.0121 -0.00723,0.004 -0.015675,0.004 H 6.7583124 v 1.40473 q 0,0.007 -0.00362,0.0133 -0.00362,0.006 -0.012058,0.01 -0.00844,0.004 -0.02291,0.006 -0.014469,0.002 -0.034968,0.002 -0.020498,0 -0.034968,-0.002 -0.014469,-0.002 -0.02291,-0.006 -0.00844,-0.004 -0.012058,-0.01 -0.00362,-0.006 -0.00362,-0.0133 v -1.40473 H 6.1457755 q -0.00965,0 -0.016881,-0.004 -0.00603,-0.005 -0.010852,-0.0121 -0.00482,-0.008 -0.00723,-0.0205 -0.00241,-0.0121 -0.00241,-0.0277 0,-0.0169 0.00241,-0.0289 0.00241,-0.0133 0.00723,-0.0217 0.00482,-0.008 0.010852,-0.0121 0.00723,-0.005 0.016881,-0.005 h 1.0779684 q 0.00844,0 0.015675,0.005 0.00723,0.004 0.012058,0.0121 0.00482,0.008 0.00723,0.0217 0.00241,0.0121 0.00241,0.0289 z"
         style="font-weight:300;-inkscape-font-specification:'Calibri Light'"
         id="path927" />
    </g>
    <g
       aria-label="RESET"
       id="text8544-7-1"
       style="font-size:3.07508px;line-height:1.25;font-family:Calibri;-inkscape-font-specification:Calibri;text-align:center;text-anchor:middle;fill:#020202;stroke-width:0.264583">
      <path
         d="m 4.0441601,116.93243 q 0,0.012 -0.0045,0.021 -0.0045,0.009 -0.01952,0.015 -0.015015,0.006 -0.042042,0.009 -0.027027,0.003 -0.072072,0.003 -0.039039,0 -0.064565,-0.003 -0.024024,-0.003 -0.039039,-0.009 -0.015015,-0.008 -0.024024,-0.0195 -0.00751,-0.012 -0.013514,-0.03 l -0.178679,-0.45796 q -0.031532,-0.0781 -0.066066,-0.14264 -0.033033,-0.0661 -0.07958,-0.11261 -0.046547,-0.048 -0.1096097,-0.0736 -0.063063,-0.027 -0.1516519,-0.027 h -0.172673 v 0.82732 q 0,0.012 -0.00751,0.021 -0.00601,0.009 -0.021021,0.015 -0.013514,0.005 -0.039039,0.008 -0.024024,0.004 -0.061562,0.004 -0.037538,0 -0.063063,-0.004 -0.024024,-0.003 -0.039039,-0.008 -0.015015,-0.006 -0.021021,-0.015 -0.00601,-0.009 -0.00601,-0.021 v -1.7988 q 0,-0.0586 0.03003,-0.0811 0.031532,-0.024 0.066066,-0.024 h 0.4129136 q 0.073574,0 0.1216218,0.004 0.04955,0.003 0.088589,0.008 0.1126128,0.0195 0.1981985,0.0616 0.087087,0.042 0.1456459,0.10661 0.058559,0.0646 0.087087,0.14865 0.03003,0.0826 0.03003,0.18318 0,0.0976 -0.027027,0.17568 -0.025525,0.0766 -0.075075,0.13663 -0.04955,0.0586 -0.1186188,0.10211 -0.069069,0.0435 -0.1546549,0.0736 0.048048,0.021 0.087087,0.054 0.039039,0.0315 0.072072,0.0766 0.034535,0.0451 0.064565,0.1036 0.03003,0.0586 0.06006,0.13214 l 0.1741744,0.42792 q 0.021021,0.0541 0.027027,0.0766 0.00601,0.021 0.00601,0.033 z m -0.3888895,-1.36486 q 0,-0.11412 -0.051051,-0.19219 -0.051051,-0.0796 -0.1711715,-0.11412 -0.037538,-0.0105 -0.085586,-0.015 -0.046547,-0.005 -0.1231233,-0.005 H 3.0066209 v 0.65466 h 0.2522527 q 0.1021022,0 0.1756759,-0.024 0.075075,-0.0255 0.1246249,-0.0691 0.04955,-0.045 0.072072,-0.1051 0.024024,-0.0601 0.024024,-0.13063 z"
         id="path908" />
      <path
         d="m 5.4991173,116.86487 q 0,0.027 -0.003,0.0481 -0.003,0.0195 -0.010511,0.033 -0.00751,0.0135 -0.018018,0.0195 -0.00901,0.006 -0.021021,0.006 H 4.5141308 q -0.034535,0 -0.066066,-0.0225 -0.03003,-0.024 -0.03003,-0.0826 v -1.73274 q 0,-0.0586 0.03003,-0.0811 0.031532,-0.024 0.066066,-0.024 h 0.9219233 q 0.012012,0 0.021021,0.006 0.01051,0.006 0.016516,0.0195 0.00601,0.0135 0.00901,0.0345 0.0045,0.0195 0.0045,0.0496 0,0.027 -0.0045,0.048 -0.003,0.0195 -0.00901,0.033 -0.00601,0.012 -0.016516,0.018 -0.00901,0.006 -0.021021,0.006 H 4.6762932 v 0.60961 h 0.6516527 q 0.012012,0 0.021021,0.008 0.010511,0.006 0.016517,0.018 0.00751,0.012 0.010511,0.033 0.003,0.021 0.003,0.0495 0,0.027 -0.003,0.0465 -0.003,0.0195 -0.010511,0.0315 -0.00601,0.012 -0.016517,0.018 -0.00901,0.004 -0.021021,0.004 H 4.6762932 v 0.6952 h 0.7702715 q 0.012012,0 0.021021,0.006 0.010511,0.006 0.018018,0.0195 0.00751,0.012 0.010511,0.033 0.003,0.0195 0.003,0.0495 z"
         id="path910" />
      <path
         d="m 6.9330536,116.42643 q 0,0.13663 -0.051051,0.24324 -0.04955,0.10661 -0.1396399,0.18168 -0.088589,0.0736 -0.2102105,0.11111 Q 6.4120318,117 6.2723919,117 q -0.097598,0 -0.1816819,-0.0165 -0.082583,-0.0165 -0.1486489,-0.0405 -0.064565,-0.024 -0.1096098,-0.0495 -0.043544,-0.0255 -0.061562,-0.0435 -0.016517,-0.018 -0.025526,-0.045 -0.00751,-0.0285 -0.00751,-0.0751 0,-0.033 0.003,-0.0541 0.003,-0.0225 0.00901,-0.036 0.00601,-0.0135 0.015015,-0.018 0.00901,-0.006 0.021021,-0.006 0.021021,0 0.058559,0.0255 0.039039,0.0255 0.099099,0.0556 0.06006,0.03 0.1441444,0.0571 0.085586,0.0255 0.196697,0.0255 0.084084,0 0.1531534,-0.0225 0.070571,-0.0225 0.1201203,-0.0631 0.051051,-0.0421 0.078078,-0.10211 0.027027,-0.0601 0.027027,-0.13663 0,-0.0826 -0.037538,-0.14114 -0.037538,-0.0586 -0.099099,-0.10211 -0.061562,-0.045 -0.1411414,-0.0811 -0.078078,-0.0375 -0.1606609,-0.0751 -0.082583,-0.039 -0.1606609,-0.0856 -0.078078,-0.0466 -0.1396399,-0.10961 -0.061562,-0.0631 -0.1006007,-0.14715 -0.037538,-0.0856 -0.037538,-0.2042 0,-0.12162 0.043544,-0.21622 0.045045,-0.0961 0.1231233,-0.16066 0.07958,-0.0646 0.187688,-0.0976 Q 6.2498694,115 6.3759957,115 q 0.064565,0 0.1291293,0.012 0.066066,0.0105 0.1231233,0.03 0.058559,0.018 0.1036038,0.042 0.045045,0.0225 0.058559,0.0375 0.015015,0.0135 0.01952,0.0225 0.0045,0.008 0.00751,0.021 0.003,0.012 0.0045,0.03 0.0015,0.018 0.0015,0.0465 0,0.027 -0.003,0.0481 -0.0015,0.021 -0.00601,0.036 -0.0045,0.0135 -0.013514,0.021 -0.00751,0.006 -0.018018,0.006 -0.016516,0 -0.052553,-0.021 -0.034535,-0.021 -0.085586,-0.0465 -0.051051,-0.027 -0.1216218,-0.048 -0.069069,-0.0225 -0.1561564,-0.0225 -0.081081,0 -0.1411414,0.0225 -0.06006,0.021 -0.099099,0.0571 -0.039039,0.036 -0.058559,0.0856 -0.01952,0.0495 -0.01952,0.1051 0,0.0811 0.037538,0.13964 0.037538,0.0586 0.099099,0.10361 0.063063,0.045 0.1426429,0.0826 0.07958,0.0375 0.1621624,0.0766 0.082583,0.0375 0.1621624,0.0841 0.07958,0.0451 0.1411414,0.10811 0.063063,0.0616 0.1006007,0.14715 0.039039,0.0841 0.039039,0.1997 z"
         id="path912" />
      <path
         d="m 8.383506,116.86487 q 0,0.027 -0.003,0.0481 -0.003,0.0195 -0.010511,0.033 -0.00751,0.0135 -0.018018,0.0195 -0.00901,0.006 -0.021021,0.006 H 7.3985194 q -0.034534,0 -0.066066,-0.0225 -0.03003,-0.024 -0.03003,-0.0826 v -1.73274 q 0,-0.0586 0.03003,-0.0811 0.031532,-0.024 0.066066,-0.024 h 0.9219234 q 0.012012,0 0.021021,0.006 0.01051,0.006 0.016516,0.0195 0.00601,0.0135 0.00901,0.0345 0.0045,0.0195 0.0045,0.0496 0,0.027 -0.0045,0.048 -0.003,0.0195 -0.00901,0.033 -0.00601,0.012 -0.016516,0.018 -0.00901,0.006 -0.021021,0.006 H 7.5606819 v 0.60961 h 0.6516526 q 0.012012,0 0.021021,0.008 0.010511,0.006 0.016516,0.018 0.00751,0.012 0.010511,0.033 0.003,0.021 0.003,0.0495 0,0.027 -0.003,0.0465 -0.003,0.0195 -0.010511,0.0315 -0.00601,0.012 -0.016516,0.018 -0.00901,0.004 -0.021021,0.004 H 7.5606819 v 0.6952 h 0.7702714 q 0.012012,0 0.021021,0.006 0.010511,0.006 0.018018,0.0195 0.00751,0.012 0.010511,0.033 0.003,0.0195 0.003,0.0495 z"
         id="path914" />
      <path
         d="m 10.021647,115.13964 q 0,0.0285 -0.003,0.0495 -0.003,0.021 -0.01051,0.0345 -0.006,0.012 -0.016516,0.018 -0.00901,0.006 -0.021021,0.006 H 9.4240482 v 1.68468 q 0,0.012 -0.00601,0.021 -0.00601,0.009 -0.021021,0.015 -0.015015,0.005 -0.040541,0.008 -0.024024,0.004 -0.061562,0.004 -0.036036,0 -0.061562,-0.004 -0.025526,-0.003 -0.040541,-0.008 -0.015015,-0.006 -0.021021,-0.015 -0.00601,-0.009 -0.00601,-0.021 v -1.68468 H 8.6192422 q -0.012012,0 -0.022523,-0.006 -0.00901,-0.006 -0.015015,-0.018 -0.00601,-0.0135 -0.010511,-0.0345 -0.003,-0.021 -0.003,-0.0495 0,-0.0285 0.003,-0.0495 0.0045,-0.0225 0.010511,-0.036 0.00601,-0.0135 0.015015,-0.0195 0.010511,-0.006 0.022523,-0.006 h 1.3513534 q 0.012012,0 0.021021,0.006 0.01051,0.006 0.016516,0.0195 0.0075,0.0135 0.01051,0.036 0.003,0.021 0.003,0.0495 z"
         id="path916" />
    </g>
    <g
       aria-label="CLOCK"
       id="text8544-7-1-1"
       style="font-size:3.07508px;line-height:1.25;font-family:Calibri;-inkscape-font-specification:Calibri;text-align:center;text-anchor:middle;fill:#020202;stroke-width:0.264583">
      <path
         d="m 4.1582741,18.696697 q 0,0.02402 -0.0015,0.04204 -0.0015,0.01802 -0.00601,0.03153 -0.003,0.01351 -0.00901,0.02402 -0.00601,0.01051 -0.021021,0.02553 -0.015015,0.01502 -0.063063,0.04655 -0.048048,0.03003 -0.1201203,0.06006 -0.070571,0.02853 -0.1636639,0.04805 -0.091592,0.02102 -0.2012015,0.02102 -0.1891895,0 -0.3423429,-0.06306 Q 3.0786928,18.86937 2.9705845,18.746246 2.8639777,18.623123 2.8054191,18.442942 2.748362,18.26126 2.748362,18.025524 q 0,-0.241742 0.061562,-0.430931 0.063063,-0.18919 0.175676,-0.319821 0.1126128,-0.132132 0.2687692,-0.201201 0.1576579,-0.06907 0.3483489,-0.06907 0.084084,0 0.1636639,0.01652 0.07958,0.01501 0.1471474,0.03904 0.067568,0.02402 0.1201203,0.05556 0.052553,0.03153 0.072072,0.05255 0.021021,0.01952 0.027027,0.03003 0.00601,0.01051 0.00901,0.02553 0.0045,0.01351 0.00601,0.03303 0.003,0.01952 0.003,0.04655 0,0.03003 -0.003,0.05105 -0.003,0.02102 -0.00901,0.03604 -0.00601,0.01351 -0.015015,0.02102 -0.00751,0.006 -0.01952,0.006 -0.021021,0 -0.058559,-0.02853 -0.037538,-0.03003 -0.097598,-0.06457 -0.058559,-0.03604 -0.1441443,-0.06456 -0.084084,-0.03003 -0.2027031,-0.03003 -0.1291293,0 -0.2357361,0.05255 -0.1051052,0.05105 -0.1801804,0.151652 -0.075075,0.100601 -0.1171173,0.246246 -0.040541,0.144145 -0.040541,0.330331 0,0.184685 0.039039,0.327328 0.040541,0.141142 0.1141143,0.237238 0.075075,0.0946 0.1831834,0.144144 0.1081083,0.04805 0.2447452,0.04805 0.1156158,0 0.2012015,-0.02853 0.087087,-0.02853 0.1471474,-0.06306 0.061562,-0.03604 0.1006007,-0.06456 0.039039,-0.02853 0.061562,-0.02853 0.010511,0 0.018018,0.0045 0.00751,0.0045 0.012012,0.01802 0.0045,0.01201 0.00601,0.03453 0.003,0.02252 0.003,0.05706 z"
         id="path897" />
      <path
         d="m 5.5081261,18.858859 q 0,0.03003 -0.003,0.05105 -0.003,0.01952 -0.010511,0.03454 -0.00601,0.01351 -0.016516,0.02102 -0.00901,0.006 -0.022523,0.006 H 4.5967132 q -0.034535,0 -0.066066,-0.02252 -0.03003,-0.02402 -0.03003,-0.08258 v -1.798802 q 0,-0.01201 0.00601,-0.02102 0.00601,-0.009 0.021021,-0.01351 0.015015,-0.006 0.040541,-0.009 0.025526,-0.0045 0.061562,-0.0045 0.037538,0 0.061562,0.0045 0.025525,0.003 0.040541,0.009 0.015015,0.0045 0.021021,0.01351 0.00601,0.009 0.00601,0.02102 v 1.680183 h 0.6966978 q 0.013514,0 0.022523,0.0075 0.010511,0.006 0.016516,0.01952 0.00751,0.01201 0.010511,0.03303 0.003,0.02102 0.003,0.05105 z"
         id="path899" />
      <path
         d="m 7.3534743,17.977476 q 0,0.235736 -0.055556,0.424926 Q 7.242363,18.591591 7.1312517,18.725225 7.0216419,18.857357 6.854975,18.92943 6.6883081,19 6.4660855,19 6.2468659,19 6.086205,18.935436 5.9270456,18.86937 5.8219403,18.744745 5.7183366,18.62012 5.6672854,18.435435 5.6162343,18.25075 5.6162343,18.010509 q 0,-0.22973 0.055556,-0.417418 0.055556,-0.187688 0.1666669,-0.318319 0.1111113,-0.132132 0.2777782,-0.202703 0.1666669,-0.07207 0.3888895,-0.07207 0.2147151,0 0.3738745,0.06456 0.1591594,0.06457 0.2642646,0.189189 0.1066068,0.123124 0.157658,0.306307 0.052553,0.181682 0.052553,0.417418 z m -0.2717722,0.01802 q 0,-0.165165 -0.03003,-0.306307 -0.028529,-0.142642 -0.097598,-0.246246 -0.067568,-0.105105 -0.181682,-0.163664 -0.1141143,-0.05856 -0.2822827,-0.05856 -0.1681685,0 -0.2822828,0.06306 -0.1141143,0.06306 -0.1861864,0.168169 -0.070571,0.105105 -0.1021023,0.246247 -0.03003,0.139639 -0.03003,0.294294 0,0.171172 0.028529,0.315316 0.028529,0.144144 0.096096,0.24925 0.067568,0.103603 0.1801805,0.162162 0.1141143,0.05706 0.2852857,0.05706 0.16967,0 0.2852858,-0.06306 0.1156158,-0.06306 0.1861865,-0.16967 0.070571,-0.108108 0.1006007,-0.249249 0.03003,-0.141142 0.03003,-0.2988 z"
         id="path901" />
      <path
         d="m 9.0591826,18.696697 q 0,0.02402 -0.0015,0.04204 -0.0015,0.01802 -0.00601,0.03153 -0.003,0.01351 -0.00901,0.02402 -0.00601,0.01051 -0.021021,0.02553 -0.015015,0.01502 -0.063063,0.04655 -0.048048,0.03003 -0.1201203,0.06006 -0.070571,0.02853 -0.1636639,0.04805 -0.091592,0.02102 -0.2012016,0.02102 -0.1891894,0 -0.3423428,-0.06306 Q 7.9796013,18.86937 7.871493,18.746246 7.7648862,18.623123 7.7063276,18.442942 7.6492704,18.26126 7.6492704,18.025524 q 0,-0.241742 0.061562,-0.430931 0.063063,-0.18919 0.1756759,-0.319821 0.1126128,-0.132132 0.2687692,-0.201201 0.1576579,-0.06907 0.3483489,-0.06907 0.084084,0 0.1636639,0.01652 0.07958,0.01501 0.1471474,0.03904 0.067568,0.02402 0.1201203,0.05556 0.052553,0.03153 0.072072,0.05255 0.021021,0.01952 0.027027,0.03003 0.00601,0.01051 0.00901,0.02553 0.0045,0.01351 0.00601,0.03303 0.003,0.01952 0.003,0.04655 0,0.03003 -0.003,0.05105 -0.003,0.02102 -0.00901,0.03604 -0.00601,0.01351 -0.015015,0.02102 -0.00751,0.006 -0.01952,0.006 -0.021021,0 -0.058559,-0.02853 -0.037538,-0.03003 -0.097598,-0.06457 -0.058559,-0.03604 -0.1441444,-0.06456 -0.084084,-0.03003 -0.202703,-0.03003 -0.1291293,0 -0.2357361,0.05255 -0.1051053,0.05105 -0.1801805,0.151652 -0.075075,0.100601 -0.1171173,0.246246 -0.040541,0.144145 -0.040541,0.330331 0,0.184685 0.039039,0.327328 0.040541,0.141142 0.1141143,0.237238 0.075075,0.0946 0.1831835,0.144144 0.1081083,0.04805 0.2447451,0.04805 0.1156158,0 0.2012016,-0.02853 0.087087,-0.02853 0.1471473,-0.06306 0.061562,-0.03604 0.1006008,-0.06456 0.039039,-0.02853 0.061562,-0.02853 0.010511,0 0.018018,0.0045 0.00751,0.0045 0.012012,0.01802 0.0045,0.01201 0.00601,0.03453 0.003,0.02252 0.003,0.05706 z"
         id="path903" />
      <path
         d="m 10.668795,18.92943 q 0,0.01201 -0.006,0.02252 -0.0045,0.009 -0.01952,0.01502 -0.01501,0.006 -0.04054,0.009 -0.02553,0.0045 -0.06607,0.0045 -0.05255,0 -0.08559,-0.0045 -0.03303,-0.0045 -0.04955,-0.01652 -0.01652,-0.01201 -0.02703,-0.02703 L 9.6597846,17.96096 v 0.971473 q 0,0.01051 -0.00601,0.02102 -0.00601,0.009 -0.021021,0.01501 -0.015015,0.0045 -0.040541,0.0075 -0.024024,0.0045 -0.061562,0.0045 -0.036036,0 -0.061562,-0.0045 -0.025526,-0.003 -0.040541,-0.0075 -0.015015,-0.006 -0.021021,-0.01501 -0.00601,-0.01051 -0.00601,-0.02102 v -1.864868 q 0,-0.01201 0.00601,-0.02102 0.00601,-0.009 0.021021,-0.01351 0.015015,-0.006 0.040541,-0.009 0.025526,-0.0045 0.061562,-0.0045 0.037538,0 0.061562,0.0045 0.025526,0.003 0.040541,0.009 0.015015,0.0045 0.021021,0.01351 0.00601,0.009 0.00601,0.02102 v 0.863365 l 0.6876884,-0.863365 q 0.009,-0.01351 0.02102,-0.02252 0.01201,-0.009 0.02853,-0.01351 0.01802,-0.006 0.04204,-0.009 0.02553,-0.003 0.06456,-0.003 0.03904,0 0.06306,0.0045 0.02402,0.003 0.03754,0.009 0.01501,0.006 0.01952,0.01501 0.006,0.009 0.006,0.01952 0,0.01952 -0.01051,0.03904 -0.009,0.01952 -0.03604,0.05405 l -0.6441447,0.770272 0.6936947,0.921923 q 0.02553,0.03904 0.03003,0.05405 0.006,0.01351 0.006,0.02252 z"
         id="path905" />
    </g>
    <g
       aria-label="OUT"
       id="text8544-7-1-4"
       style="font-size:3.07508px;line-height:1.25;font-family:Calibri;-inkscape-font-specification:Calibri;text-align:center;text-anchor:middle;fill:#030303;stroke-width:0.264583">
      <path
         d="m 21.527927,115.97748 q 0,0.23573 -0.05556,0.42492 -0.05556,0.18919 -0.166667,0.32283 -0.10961,0.13213 -0.276277,0.2042 Q 20.86276,117 20.640538,117 q -0.21922,0 -0.379881,-0.0646 -0.159159,-0.0661 -0.264264,-0.19069 -0.103604,-0.12463 -0.154655,-0.30931 -0.05105,-0.18469 -0.05105,-0.42493 0,-0.22973 0.05556,-0.41742 0.05556,-0.18768 0.166667,-0.31832 0.111111,-0.13213 0.277778,-0.2027 Q 20.457354,115 20.679577,115 q 0.214715,0 0.373874,0.0646 0.15916,0.0646 0.264265,0.18919 0.106607,0.12313 0.157658,0.30631 0.05255,0.18168 0.05255,0.41742 z m -0.271773,0.018 q 0,-0.16517 -0.03003,-0.30631 -0.02853,-0.14264 -0.0976,-0.24625 -0.06757,-0.1051 -0.181682,-0.16366 -0.114115,-0.0586 -0.282283,-0.0586 -0.168169,0 -0.282283,0.0631 -0.114114,0.0631 -0.186186,0.16817 -0.07057,0.10511 -0.102103,0.24625 -0.03003,0.13964 -0.03003,0.29429 0,0.17117 0.02853,0.31532 0.02853,0.14414 0.0961,0.24925 0.06757,0.1036 0.180181,0.16216 0.114114,0.0571 0.285285,0.0571 0.16967,0 0.285286,-0.0631 0.115616,-0.0631 0.186187,-0.16967 0.07057,-0.10811 0.1006,-0.24925 0.03003,-0.14115 0.03003,-0.2988 z"
         id="path890" />
      <path
         d="m 23.397299,116.25375 q 0,0.17718 -0.05255,0.31682 -0.05105,0.13814 -0.147147,0.23424 -0.0961,0.0961 -0.234235,0.14564 Q 22.825226,117 22.64955,117 q -0.160661,0 -0.292793,-0.0465 -0.132133,-0.0466 -0.226727,-0.13664 -0.0946,-0.0916 -0.145646,-0.22823 -0.05105,-0.13664 -0.05105,-0.31532 v -1.2057 q 0,-0.012 0.006,-0.021 0.006,-0.009 0.02102,-0.0135 0.01501,-0.006 0.03904,-0.009 0.02402,-0.004 0.06306,-0.004 0.03604,0 0.06156,0.004 0.02553,0.003 0.03904,0.009 0.01501,0.005 0.02102,0.0135 0.006,0.009 0.006,0.021 v 1.17417 q 0,0.13514 0.03303,0.23574 0.03303,0.1006 0.09459,0.16817 0.06306,0.0661 0.15015,0.1006 0.08859,0.033 0.198199,0.033 0.112612,0 0.1997,-0.033 0.08859,-0.033 0.148649,-0.0991 0.06156,-0.0661 0.09309,-0.16367 0.03303,-0.0976 0.03303,-0.22822 v -1.18769 q 0,-0.012 0.006,-0.021 0.006,-0.009 0.02102,-0.0135 0.01501,-0.006 0.03904,-0.009 0.02553,-0.004 0.06306,-0.004 0.03604,0 0.06006,0.004 0.02553,0.003 0.03904,0.009 0.01501,0.005 0.02102,0.0135 0.0075,0.009 0.0075,0.021 z"
         id="path892" />
      <path
         d="m 25.127032,115.13964 q 0,0.0285 -0.003,0.0495 -0.003,0.021 -0.01051,0.0345 -0.006,0.012 -0.01652,0.018 -0.009,0.006 -0.02102,0.006 h -0.546547 v 1.68468 q 0,0.012 -0.006,0.021 -0.006,0.009 -0.02102,0.015 -0.01502,0.005 -0.04054,0.008 -0.02402,0.004 -0.06156,0.004 -0.03604,0 -0.06156,-0.004 -0.02553,-0.003 -0.04054,-0.008 -0.01501,-0.006 -0.02102,-0.015 -0.006,-0.009 -0.006,-0.021 v -1.68468 h -0.546547 q -0.01201,0 -0.02252,-0.006 -0.009,-0.006 -0.01501,-0.018 -0.006,-0.0135 -0.01051,-0.0345 -0.003,-0.021 -0.003,-0.0495 0,-0.0285 0.003,-0.0495 0.0045,-0.0225 0.01051,-0.036 0.006,-0.0135 0.01501,-0.0195 0.01051,-0.006 0.02252,-0.006 h 1.351353 q 0.01201,0 0.02102,0.006 0.01051,0.006 0.01652,0.0195 0.0075,0.0135 0.01051,0.036 0.003,0.021 0.003,0.0495 z"
         id="path894" />
    </g>
    <path
       d="m 5.5587737,28.149711 a 3.4891158,3.5941528 0 1 1 4.9343553,0"
       fill="none"
       stroke="#1f1f1f"
       stroke-linecap="round"
       stroke-linejoin="round"
       id="path66-2-1-6"
       style="display:inline;stroke:#010101;stroke-width:0.264583;stroke-opacity:1" />
    <path
       d="m 5.5587737,42.149711 a 3.4891158,3.5941528 0 1 1 4.9343553,0"
       fill="none"
       stroke="#1f1f1f"
       stroke-linecap="round"
       stroke-linejoin="round"
       id="path66-2-1-3"
       style="display:inline;stroke:#010101;stroke-width:0.264583;stroke-opacity:1" />
    <path
       d="m 5.5587737,56.149711 a 3.4891158,3.5941528 0 1 1 4.9343553,0"
       fill="none"
       stroke="#1f1f1f"
       stroke-linecap="round"
       stroke-linejoin="round"
       id="path66-2-1-38"
       style="display:inline;stroke:#010101;stroke-width:0.264583;stroke-opacity:1" />
    <path
       d="m 5.5587737,70.149711 a 3.4891158,3.5941528 0 1 1 4.9343553,0"
       fill="none"
       stroke="#1f1f1f"
       stroke-linecap="round"
       stroke-linejoin="round"
       id="path66-2-1-35"
       style="display:inline;stroke:#010101;stroke-width:0.264583;stroke-opacity:1" />
    <path
       d="m 5.5587737,98.149711 a 3.4891158,3.5941528 0 1 1 4.9343553,0"
       fill="none"
       stroke="#1f1f1f"
       stroke-linecap="round"
       stroke-linejoin="round"
       id="path66-2-1-95"
       style="display:inline;stroke:#010101;stroke-width:0.264583;stroke-opacity:1" />
    <path
       d="m 5.5587737,84.149711 a 3.4891158,3.5941528 0 1 1 4.9343553,0"
       fill="none"
       stroke="#1f1f1f"
       stroke-linecap="round"
       stroke-linejoin="round"
       id="path66-2-1-63"
       style="display:inline;stroke:#010101;stroke-width:0.264583;stroke-opacity:1" />
    <g
       aria-label="OFFSET"
       id="text8544-7-1-9-0"
       style="font-size:3.07508px;line-height:1.25;font-family:Calibri;-inkscape-font-specification:Calibri;text-align:center;text-anchor:middle;fill:#020202;stroke-width:0.264583">
      <path
         d="m 19.666064,101.97748 q 0,0.23573 -0.05556,0.42492 -0.05556,0.18919 -0.166667,0.32283 -0.10961,0.13213 -0.276277,0.2042 Q 19.000897,103 18.778675,103 q -0.21922,0 -0.379881,-0.0646 -0.159159,-0.0661 -0.264264,-0.19069 -0.103604,-0.12463 -0.154655,-0.30931 -0.05105,-0.18469 -0.05105,-0.42493 0,-0.22973 0.05556,-0.41742 0.05556,-0.18768 0.166667,-0.31832 0.111112,-0.13213 0.277779,-0.2027 Q 18.595491,101 18.817714,101 q 0.214715,0 0.373874,0.0646 0.15916,0.0646 0.264265,0.18919 0.106607,0.12313 0.157658,0.30631 0.05255,0.18168 0.05255,0.41742 z m -0.271772,0.018 q 0,-0.16517 -0.03003,-0.30631 -0.02853,-0.14264 -0.0976,-0.24625 -0.06757,-0.1051 -0.181682,-0.16366 -0.114115,-0.0586 -0.282283,-0.0586 -0.168168,0 -0.282283,0.0631 -0.114114,0.0631 -0.186186,0.16817 -0.07057,0.10511 -0.102102,0.24625 -0.03003,0.13964 -0.03003,0.29429 0,0.17117 0.02853,0.31532 0.02853,0.14414 0.0961,0.24925 0.06757,0.1036 0.180181,0.16216 0.114114,0.0571 0.285285,0.0571 0.16967,0 0.285286,-0.0631 0.115616,-0.0631 0.186187,-0.16967 0.07057,-0.10811 0.1006,-0.24925 0.03003,-0.14115 0.03003,-0.2988 z"
         id="path877" />
      <path
         d="m 21.095495,101.13964 q 0,0.0285 -0.003,0.0495 -0.003,0.021 -0.01051,0.0345 -0.0075,0.012 -0.01802,0.018 -0.009,0.006 -0.01952,0.006 h -0.711712 v 0.66066 h 0.672673 q 0.01051,0 0.01952,0.006 0.01051,0.005 0.01802,0.0165 0.0075,0.012 0.01051,0.033 0.003,0.0195 0.003,0.0511 0,0.0285 -0.003,0.0495 -0.003,0.0195 -0.01051,0.033 -0.0075,0.012 -0.01802,0.0195 -0.009,0.006 -0.01952,0.006 h -0.672673 v 0.80931 q 0,0.0105 -0.006,0.021 -0.006,0.009 -0.02102,0.015 -0.01501,0.005 -0.03904,0.008 -0.02402,0.004 -0.06306,0.004 -0.03604,0 -0.06156,-0.004 -0.02553,-0.003 -0.04054,-0.008 -0.01502,-0.006 -0.02102,-0.015 -0.006,-0.0105 -0.006,-0.021 v -1.7988 q 0,-0.0586 0.03003,-0.0811 0.03153,-0.024 0.06607,-0.024 h 0.873875 q 0.01051,0 0.01952,0.006 0.01051,0.006 0.01802,0.0195 0.0075,0.0135 0.01051,0.036 0.003,0.021 0.003,0.0495 z"
         id="path879" />
      <path
         d="m 22.508411,101.13964 q 0,0.0285 -0.003,0.0495 -0.003,0.021 -0.01051,0.0345 -0.0075,0.012 -0.01802,0.018 -0.009,0.006 -0.01952,0.006 h -0.711713 v 0.66066 h 0.672673 q 0.01051,0 0.01952,0.006 0.01051,0.005 0.01802,0.0165 0.0075,0.012 0.01051,0.033 0.003,0.0195 0.003,0.0511 0,0.0285 -0.003,0.0495 -0.003,0.0195 -0.01051,0.033 -0.0075,0.012 -0.01802,0.0195 -0.009,0.006 -0.01952,0.006 h -0.672673 v 0.80931 q 0,0.0105 -0.006,0.021 -0.006,0.009 -0.02102,0.015 -0.01502,0.005 -0.03904,0.008 -0.02402,0.004 -0.06306,0.004 -0.03604,0 -0.06156,-0.004 -0.02553,-0.003 -0.04054,-0.008 -0.01501,-0.006 -0.02102,-0.015 -0.006,-0.0105 -0.006,-0.021 v -1.7988 q 0,-0.0586 0.03003,-0.0811 0.03153,-0.024 0.06607,-0.024 h 0.873876 q 0.01051,0 0.01952,0.006 0.01051,0.006 0.01802,0.0195 0.0075,0.0135 0.01051,0.036 0.003,0.021 0.003,0.0495 z"
         id="path881" />
      <path
         d="m 23.900305,102.42643 q 0,0.13663 -0.05105,0.24324 -0.04955,0.10661 -0.13964,0.18168 -0.08859,0.0736 -0.210211,0.11111 -0.12012,0.0375 -0.25976,0.0375 -0.0976,0 -0.181682,-0.0165 -0.08258,-0.0165 -0.148649,-0.0405 -0.06456,-0.024 -0.10961,-0.0495 -0.04354,-0.0255 -0.06156,-0.0435 -0.01652,-0.018 -0.02553,-0.045 -0.0075,-0.0285 -0.0075,-0.0751 0,-0.033 0.003,-0.0541 0.003,-0.0225 0.009,-0.036 0.006,-0.0135 0.01501,-0.018 0.009,-0.006 0.02102,-0.006 0.02102,0 0.05856,0.0255 0.03904,0.0255 0.0991,0.0556 0.06006,0.03 0.144144,0.0571 0.08559,0.0255 0.196697,0.0255 0.08408,0 0.153153,-0.0225 0.07057,-0.0225 0.120121,-0.0631 0.05105,-0.0421 0.07808,-0.10211 0.02703,-0.0601 0.02703,-0.13663 0,-0.0826 -0.03754,-0.14114 -0.03754,-0.0586 -0.0991,-0.10211 -0.06156,-0.045 -0.141141,-0.0811 -0.07808,-0.0375 -0.160661,-0.0751 -0.08258,-0.039 -0.160661,-0.0856 -0.07808,-0.0466 -0.13964,-0.10961 -0.06156,-0.0631 -0.100601,-0.14715 -0.03754,-0.0856 -0.03754,-0.2042 0,-0.12162 0.04354,-0.21622 0.04504,-0.0961 0.123124,-0.16066 0.07958,-0.0646 0.187688,-0.0976 Q 23.21712,101 23.343247,101 q 0.06456,0 0.129129,0.012 0.06607,0.0105 0.123123,0.03 0.05856,0.018 0.103604,0.042 0.04504,0.0225 0.05856,0.0375 0.01502,0.0135 0.01952,0.0225 0.0045,0.008 0.0075,0.021 0.003,0.012 0.0045,0.03 0.0015,0.018 0.0015,0.0465 0,0.027 -0.003,0.0481 -0.0015,0.021 -0.006,0.036 -0.0045,0.0135 -0.01351,0.021 -0.0075,0.006 -0.01802,0.006 -0.01652,0 -0.05255,-0.021 -0.03453,-0.021 -0.08559,-0.0465 -0.05105,-0.027 -0.121622,-0.048 -0.06907,-0.0225 -0.156156,-0.0225 -0.08108,0 -0.141142,0.0225 -0.06006,0.021 -0.0991,0.0571 -0.03904,0.036 -0.05856,0.0856 -0.01952,0.0495 -0.01952,0.1051 0,0.0811 0.03754,0.13964 0.03754,0.0586 0.0991,0.10361 0.06306,0.045 0.142643,0.0826 0.07958,0.0375 0.162162,0.0766 0.08258,0.0375 0.162162,0.0841 0.07958,0.0451 0.141142,0.10811 0.06306,0.0616 0.100601,0.14715 0.03904,0.0841 0.03904,0.1997 z"
         id="path883" />
      <path
         d="m 25.350758,102.86487 q 0,0.027 -0.003,0.0481 -0.003,0.0195 -0.01051,0.033 -0.0075,0.0135 -0.01802,0.0195 -0.009,0.006 -0.02102,0.006 h -0.932434 q -0.03453,0 -0.06607,-0.0225 -0.03003,-0.024 -0.03003,-0.0826 v -1.73274 q 0,-0.0586 0.03003,-0.0811 0.03153,-0.024 0.06607,-0.024 h 0.921923 q 0.01201,0 0.02102,0.006 0.01051,0.006 0.01652,0.0195 0.006,0.0135 0.009,0.0345 0.0045,0.0195 0.0045,0.0496 0,0.027 -0.0045,0.048 -0.003,0.0195 -0.009,0.033 -0.006,0.012 -0.01652,0.018 -0.009,0.006 -0.02102,0.006 h -0.759761 v 0.60961 h 0.651653 q 0.01201,0 0.02102,0.008 0.01051,0.006 0.01652,0.018 0.0075,0.012 0.01051,0.033 0.003,0.021 0.003,0.0495 0,0.027 -0.003,0.0465 -0.003,0.0195 -0.01051,0.0315 -0.006,0.012 -0.01652,0.018 -0.009,0.004 -0.02102,0.004 h -0.651653 v 0.6952 h 0.770272 q 0.01201,0 0.02102,0.006 0.01051,0.006 0.01802,0.0195 0.0075,0.012 0.01051,0.033 0.003,0.0195 0.003,0.0495 z"
         id="path885" />
      <path
         d="m 26.988898,101.13964 q 0,0.0285 -0.003,0.0495 -0.003,0.021 -0.01051,0.0345 -0.006,0.012 -0.01652,0.018 -0.009,0.006 -0.02102,0.006 H 26.3913 v 1.68468 q 0,0.012 -0.006,0.021 -0.006,0.009 -0.02102,0.015 -0.01502,0.005 -0.04054,0.008 -0.02402,0.004 -0.06156,0.004 -0.03604,0 -0.06156,-0.004 -0.02553,-0.003 -0.04054,-0.008 -0.01501,-0.006 -0.02102,-0.015 -0.006,-0.009 -0.006,-0.021 v -1.68468 h -0.546547 q -0.01201,0 -0.02252,-0.006 -0.009,-0.006 -0.01501,-0.018 -0.006,-0.0135 -0.01051,-0.0345 -0.003,-0.021 -0.003,-0.0495 0,-0.0285 0.003,-0.0495 0.0045,-0.0225 0.01051,-0.036 0.006,-0.0135 0.01501,-0.0195 0.01051,-0.006 0.02252,-0.006 h 1.351353 q 0.01201,0 0.02102,0.006 0.01051,0.006 0.01652,0.0195 0.0075,0.0135 0.01051,0.036 0.003,0.021 0.003,0.0495 z"
         id="path887" />
    </g>
    <g
       aria-label="WEIGHT"
       id="text8544-7-1-9-0-7"
       style="font-size:3.0797px;line-height:1.25;font-family:Calibri;-inkscape-font-specification:Calibri;text-align:center;text-anchor:middle;fill:#020202;stroke-width:0.264582"
       inkscape:label="text8544-7-1-9-0-7">
      <path
         d="m 4.9221913,102.91578 q -0.00602,0.0211 -0.018045,0.0346 -0.01203,0.012 -0.033083,0.0195 -0.021053,0.006 -0.052631,0.009 -0.030075,0.003 -0.075188,0.003 -0.046617,0 -0.079699,-0.003 -0.031579,-0.003 -0.052632,-0.009 -0.021053,-0.008 -0.031579,-0.0195 -0.010526,-0.0135 -0.016541,-0.0346 l -0.4075189,-1.46917 h -0.00301 l -0.37594,1.46917 q -0.00451,0.0211 -0.015038,0.0346 -0.010526,0.012 -0.030075,0.0195 -0.019549,0.006 -0.051128,0.009 -0.030075,0.003 -0.078195,0.003 -0.049624,0 -0.082707,-0.003 -0.033083,-0.003 -0.054135,-0.009 -0.021053,-0.008 -0.033083,-0.0195 -0.010526,-0.0135 -0.015038,-0.0346 l -0.5142859,-1.79699 q -0.00902,-0.0346 -0.010526,-0.0541 0,-0.0195 0.01203,-0.0301 0.013534,-0.0105 0.042105,-0.0135 0.028571,-0.003 0.076692,-0.003 0.046617,0 0.073684,0.003 0.027068,0.002 0.040602,0.008 0.015038,0.006 0.019549,0.0165 0.00602,0.0105 0.00902,0.0271 l 0.4375941,1.63008 h 0.0015 l 0.4150377,-1.62707 q 0.00451,-0.0165 0.010526,-0.0271 0.00752,-0.012 0.022556,-0.018 0.015038,-0.006 0.042105,-0.009 0.028571,-0.003 0.073684,-0.003 0.042105,0 0.066166,0.003 0.025564,0.003 0.040601,0.009 0.015038,0.006 0.021053,0.018 0.00752,0.0105 0.01203,0.0271 l 0.4466166,1.62707 h 0.00301 l 0.4285715,-1.62858 q 0.00451,-0.015 0.00902,-0.0256 0.00451,-0.012 0.018045,-0.018 0.015038,-0.006 0.040602,-0.009 0.027068,-0.003 0.070677,-0.003 0.045113,0 0.070677,0.005 0.027068,0.003 0.039098,0.0135 0.01203,0.0105 0.010526,0.0301 0,0.0195 -0.00752,0.0541 z"
         id="path864" />
      <path
         d="m 6.8815902,102.86616 q 0,0.0271 -0.00301,0.0481 -0.00301,0.0195 -0.010526,0.0331 -0.00752,0.0135 -0.018045,0.0195 -0.00902,0.006 -0.021053,0.006 H 5.8951238 q -0.034586,0 -0.066165,-0.0225 -0.030075,-0.0241 -0.030075,-0.0827 v -1.73534 q 0,-0.0587 0.030075,-0.0812 0.031579,-0.0241 0.066165,-0.0241 h 0.9233085 q 0.01203,0 0.021053,0.006 0.010526,0.006 0.016541,0.0196 0.00602,0.0135 0.00902,0.0346 0.00451,0.0195 0.00451,0.0496 0,0.0271 -0.00451,0.0481 -0.00301,0.0195 -0.00902,0.0331 -0.00601,0.012 -0.016541,0.018 -0.00902,0.006 -0.021053,0.006 H 6.0575299 v 0.61052 h 0.6526317 q 0.01203,0 0.021053,0.008 0.010526,0.006 0.016541,0.0181 0.00752,0.012 0.010526,0.0331 0.00301,0.0211 0.00301,0.0496 0,0.0271 -0.00301,0.0466 -0.00301,0.0196 -0.010526,0.0316 -0.00601,0.012 -0.016541,0.018 -0.00902,0.005 -0.021053,0.005 H 6.0575299 v 0.69625 h 0.7714288 q 0.01203,0 0.021053,0.006 0.010526,0.006 0.018045,0.0195 0.00752,0.012 0.010526,0.0331 0.00301,0.0195 0.00301,0.0496 z"
         id="path866" />
      <path
         d="m 7.5612895,102.93383 q 0,0.012 -0.00601,0.0211 -0.00602,0.009 -0.021053,0.015 -0.015038,0.005 -0.040602,0.008 -0.02406,0.005 -0.061654,0.005 -0.03609,0 -0.061654,-0.005 -0.025564,-0.003 -0.040602,-0.008 -0.015038,-0.006 -0.021053,-0.015 -0.00602,-0.009 -0.00602,-0.0211 v -1.86767 q 0,-0.012 0.00602,-0.0211 0.00752,-0.009 0.022556,-0.0135 0.016541,-0.006 0.040602,-0.009 0.025564,-0.005 0.06015,-0.005 0.037594,0 0.061654,0.005 0.025564,0.003 0.040602,0.009 0.015038,0.005 0.021053,0.0135 0.00601,0.009 0.00601,0.0211 z"
         id="path868" />
      <path
         d="m 9.5402377,101.29172 q 0,0.0286 -0.00301,0.0511 -0.00301,0.0211 -0.00902,0.0361 -0.00602,0.0135 -0.015038,0.0195 -0.00902,0.006 -0.019549,0.006 -0.018045,0 -0.06015,-0.0286 -0.042105,-0.0286 -0.112782,-0.0632 -0.070677,-0.0346 -0.1699248,-0.0632 -0.097744,-0.0286 -0.2330828,-0.0286 -0.1609023,0 -0.2887219,0.0587 -0.1278195,0.0587 -0.2165414,0.16241 -0.088722,0.10376 -0.1368421,0.24661 -0.046617,0.14286 -0.046617,0.30978 0,0.18646 0.051128,0.33082 0.052632,0.14437 0.1443609,0.24361 0.091729,0.0992 0.2180452,0.15038 0.1278195,0.0511 0.2796993,0.0511 0.090226,0 0.1819549,-0.0211 0.093233,-0.0226 0.1729324,-0.0662 v -0.56692 H 8.8259519 q -0.025564,0 -0.039098,-0.0256 -0.01203,-0.0256 -0.01203,-0.0797 0,-0.0286 0.00301,-0.0481 0.00301,-0.0211 0.00902,-0.0331 0.00752,-0.0135 0.016541,-0.0195 0.00902,-0.006 0.022556,-0.006 h 0.6180452 q 0.016541,0 0.033083,0.006 0.016541,0.006 0.030075,0.018 0.013534,0.012 0.021053,0.0331 0.00752,0.0211 0.00752,0.0481 v 0.74136 q 0,0.0391 -0.013534,0.0677 -0.013534,0.0286 -0.057143,0.0511 -0.043609,0.0211 -0.112782,0.0466 -0.069173,0.0256 -0.1428572,0.0436 -0.073684,0.0181 -0.1488722,0.0271 -0.075188,0.009 -0.1488722,0.009 -0.225564,0 -0.4030076,-0.0692 -0.1774437,-0.0707 -0.300752,-0.2 -0.1218045,-0.12933 -0.1864662,-0.30978 -0.064662,-0.18045 -0.064662,-0.403 0,-0.23158 0.069173,-0.41955 0.070677,-0.18797 0.1969925,-0.3203 0.1278196,-0.13233 0.3052632,-0.20452 0.1789474,-0.0737 0.3954888,-0.0737 0.1112783,0 0.2090227,0.0196 0.097744,0.0195 0.1729323,0.0466 0.076692,0.0256 0.1278196,0.0571 0.052632,0.0301 0.07218,0.0496 0.019549,0.0195 0.027068,0.0451 0.00752,0.0256 0.00752,0.0737 z"
         id="path870" />
      <path
         d="m 11.422945,102.93383 q 0,0.012 -0.006,0.0211 -0.006,0.009 -0.02105,0.015 -0.01504,0.005 -0.0406,0.008 -0.02406,0.005 -0.06015,0.005 -0.0391,0 -0.06316,-0.005 -0.02406,-0.003 -0.0391,-0.008 -0.01504,-0.006 -0.02105,-0.015 -0.006,-0.009 -0.006,-0.0211 v -0.86316 h -0.885715 v 0.86316 q 0,0.012 -0.006,0.0211 -0.006,0.009 -0.02105,0.015 -0.01504,0.005 -0.0406,0.008 -0.02406,0.005 -0.06165,0.005 -0.03609,0 -0.06165,-0.005 -0.02556,-0.003 -0.0406,-0.008 -0.01504,-0.006 -0.02105,-0.015 -0.006,-0.009 -0.006,-0.0211 v -1.86767 q 0,-0.012 0.006,-0.0211 0.006,-0.009 0.02105,-0.0135 0.01504,-0.006 0.0406,-0.009 0.02556,-0.005 0.06165,-0.005 0.03759,0 0.06165,0.005 0.02556,0.003 0.0406,0.009 0.01504,0.005 0.02105,0.0135 0.006,0.009 0.006,0.0211 v 0.77894 h 0.885715 v -0.77894 q 0,-0.012 0.006,-0.0211 0.006,-0.009 0.02105,-0.0135 0.01504,-0.006 0.0391,-0.009 0.02406,-0.005 0.06316,-0.005 0.03609,0 0.06015,0.005 0.02556,0.003 0.0406,0.009 0.01504,0.005 0.02105,0.0135 0.006,0.009 0.006,0.0211 z"
         id="path872" />
      <path
         d="m 13.159788,101.13834 q 0,0.0286 -0.003,0.0496 -0.003,0.0211 -0.01053,0.0346 -0.006,0.012 -0.01654,0.018 -0.009,0.006 -0.02105,0.006 h -0.547369 v 1.68722 q 0,0.012 -0.006,0.0211 -0.006,0.009 -0.02105,0.015 -0.01504,0.005 -0.0406,0.008 -0.02406,0.005 -0.06165,0.005 -0.03609,0 -0.06165,-0.005 -0.02556,-0.003 -0.0406,-0.008 -0.01504,-0.006 -0.02105,-0.015 -0.006,-0.009 -0.006,-0.0211 v -1.68722 h -0.547369 q -0.01203,0 -0.02256,-0.006 -0.009,-0.006 -0.01504,-0.018 -0.006,-0.0135 -0.01053,-0.0346 -0.003,-0.0211 -0.003,-0.0496 0,-0.0286 0.003,-0.0496 0.0045,-0.0226 0.01053,-0.0361 0.006,-0.0135 0.01504,-0.0196 0.01053,-0.006 0.02256,-0.006 h 1.353384 q 0.01203,0 0.02105,0.006 0.01053,0.006 0.01654,0.0196 0.0075,0.0135 0.01053,0.0361 0.003,0.021 0.003,0.0496 z"
         id="path874" />
    </g>
    <path
       d="m 19.991684,14.149711 a 3.4891158,3.5941528 0 1 1 4.934355,0"
       fill="none"
       stroke="#1f1f1f"
       stroke-linecap="round"
       stroke-linejoin="round"
       id="path66-2-1-0"
       style="display:inline;stroke:#010101;stroke-width:0.264583;stroke-opacity:1" />
    <path
       d="m 19.991684,28.149711 a 3.4891158,3.5941528 0 1 1 4.934355,0"
       fill="none"
       stroke="#1f1f1f"
       stroke-linecap="round"
       stroke-linejoin="round"
       id="path66-2-1-6-3"
       style="display:inline;stroke:#010101;stroke-width:0.264583;stroke-opacity:1" />
    <path
       d="m 19.991684,42.149711 a 3.4891158,3.5941528 0 1 1 4.934355,0"
       fill="none"
       stroke="#1f1f1f"
       stroke-linecap="round"
       stroke-linejoin="round"
       id="path66-2-1-3-2"
       style="display:inline;stroke:#010101;stroke-width:0.264583;stroke-opacity:1" />
    <path
       d="m 19.991684,56.149711 a 3.4891158,3.5941528 0 1 1 4.934355,0"
       fill="none"
       stroke="#1f1f1f"
       stroke-linecap="round"
       stroke-linejoin="round"
       id="path66-2-1-38-1"
       style="display:inline;stroke:#010101;stroke-width:0.264583;stroke-opacity:1" />
    <path
       d="m 19.991684,70.149711 a 3.4891158,3.5941528 0 1 1 4.934355,0"
       fill="none"
       stroke="#1f1f1f"
       stroke-linecap="round"
       stroke-linejoin="round"
       id="path66-2-1-35-9"
       style="display:inline;stroke:#010101;stroke-width:0.264583;stroke-opacity:1" />
    <path
       d="m 19.991684,84.149711 a 3.4891158,3.5941528 0 1 1 4.934355,0"
       fill="none"
       stroke="#1f1f1f"
       stroke-linecap="round"
       stroke-linejoin="round"
       id="path66-2-1-63-0"
       style="display:inline;stroke:#010101;stroke-width:0.264583;stroke-opacity:1" />
    <path
       d="m 19.992179,98.149711 a 3.4891158,3.5941528 0 1 1 4.934355,0"
       fill="none"
       stroke="#1f1f1f"
       stroke-linecap="round"
       stroke-linejoin="round"
       id="path66-2-1-63-0-7"
       style="display:inline;stroke:#010101;stroke-width:0.264583;stroke-opacity:1" />
    <g
       aria-label="MODE"
       id="text8544-7-1-1-0"
       style="font-size:3.07508px;line-height:1.25;font-family:Calibri;-inkscape-font-specification:Calibri;text-align:center;text-anchor:middle;fill:#020202;stroke-width:0.264583">
      <path
         d="m 20.752403,18.932433 q 0,0.01201 -0.006,0.02102 -0.006,0.009 -0.02102,0.01501 -0.01502,0.0045 -0.03904,0.0075 -0.02252,0.0045 -0.06006,0.0045 -0.03454,0 -0.06006,-0.0045 -0.02402,-0.003 -0.03904,-0.0075 -0.01351,-0.006 -0.01952,-0.01501 -0.006,-0.009 -0.006,-0.02102 v -1.692195 h -0.003 l -0.692193,1.699702 q -0.0045,0.01051 -0.01351,0.01802 -0.0075,0.0075 -0.02402,0.01351 -0.01501,0.0045 -0.03754,0.006 -0.02102,0.003 -0.05105,0.003 -0.03153,0 -0.05406,-0.003 -0.02252,-0.003 -0.03754,-0.0075 -0.01501,-0.006 -0.02402,-0.01351 -0.0075,-0.0075 -0.01051,-0.01652 L 18.89204,17.240238 h -0.0015 v 1.692195 q 0,0.01201 -0.006,0.02102 -0.006,0.009 -0.02102,0.01501 -0.01501,0.0045 -0.03904,0.0075 -0.02402,0.0045 -0.06156,0.0045 -0.03604,0 -0.06006,-0.0045 -0.02402,-0.003 -0.03904,-0.0075 -0.01351,-0.006 -0.01952,-0.01501 -0.0045,-0.009 -0.0045,-0.02102 v -1.78679 q 0,-0.06306 0.03303,-0.09009 0.03303,-0.02703 0.07357,-0.02703 h 0.156157 q 0.04805,0 0.08408,0.009 0.03604,0.009 0.06306,0.02853 0.02703,0.01952 0.04505,0.04955 0.01802,0.03003 0.03153,0.07057 l 0.563064,1.406909 h 0.0075 l 0.585587,-1.402405 q 0.01652,-0.04505 0.03604,-0.07658 0.01952,-0.03153 0.04204,-0.04955 0.02402,-0.01952 0.05255,-0.02703 0.02853,-0.009 0.06607,-0.009 h 0.163663 q 0.02252,0 0.04204,0.0075 0.02102,0.006 0.03453,0.02102 0.01501,0.01351 0.02402,0.03604 0.009,0.02102 0.009,0.05255 z"
         id="path855" />
      <path
         d="m 22.896551,17.977476 q 0,0.235736 -0.05556,0.424926 -0.05556,0.189189 -0.166667,0.322823 -0.10961,0.132132 -0.276277,0.204205 Q 22.231385,19 22.009162,19 q -0.21922,0 -0.379881,-0.06456 -0.159159,-0.06607 -0.264264,-0.190691 -0.103604,-0.124625 -0.154655,-0.30931 -0.05105,-0.184685 -0.05105,-0.424926 0,-0.22973 0.05556,-0.417418 0.05556,-0.187688 0.166667,-0.318319 0.111112,-0.132132 0.277779,-0.202703 0.166666,-0.07207 0.388889,-0.07207 0.214715,0 0.373875,0.06456 0.159159,0.06457 0.264264,0.189189 0.106607,0.123124 0.157658,0.306307 0.05255,0.181682 0.05255,0.417418 z m -0.271772,0.01802 q 0,-0.165165 -0.03003,-0.306307 -0.02853,-0.142642 -0.0976,-0.246246 -0.06757,-0.105105 -0.181682,-0.163664 -0.114115,-0.05856 -0.282283,-0.05856 -0.168168,0 -0.282283,0.06306 -0.114114,0.06306 -0.186186,0.168169 -0.07057,0.105105 -0.102102,0.246247 -0.03003,0.139639 -0.03003,0.294294 0,0.171172 0.02853,0.315316 0.02853,0.144144 0.0961,0.24925 0.06757,0.103603 0.180181,0.162162 0.114114,0.05706 0.285285,0.05706 0.16967,0 0.285286,-0.06306 0.115616,-0.06306 0.186187,-0.16967 0.07057,-0.108108 0.1006,-0.249249 0.03003,-0.141142 0.03003,-0.2988 z"
         id="path857" />
      <path
         d="m 24.798956,17.97147 q 0,0.252253 -0.06456,0.441442 -0.06456,0.187688 -0.18919,0.312313 -0.123123,0.123123 -0.303304,0.184685 -0.18018,0.06156 -0.42943,0.06156 h -0.411412 q -0.03453,0 -0.06607,-0.02252 -0.03003,-0.02402 -0.03003,-0.08258 v -1.732736 q 0,-0.05856 0.03003,-0.08108 0.03153,-0.02402 0.06607,-0.02402 h 0.439941 q 0.252252,0 0.426427,0.06607 0.174174,0.06457 0.291292,0.187688 0.118618,0.121622 0.178679,0.295796 0.06156,0.174175 0.06156,0.393394 z m -0.271772,0.01051 q 0,-0.157658 -0.03904,-0.292794 -0.03904,-0.136636 -0.123123,-0.235736 -0.08258,-0.0991 -0.210211,-0.154655 -0.127628,-0.05555 -0.328829,-0.05555 h -0.262763 v 1.512014 h 0.265766 q 0.186186,0 0.313814,-0.04655 0.127628,-0.04655 0.213214,-0.142643 0.08558,-0.0961 0.127627,-0.240241 0.04354,-0.145646 0.04354,-0.343844 z"
         id="path859" />
      <path
         d="m 26.277938,18.864865 q 0,0.02703 -0.003,0.04805 -0.003,0.01952 -0.01051,0.03303 -0.0075,0.01351 -0.01802,0.01952 -0.009,0.006 -0.02102,0.006 h -0.932434 q -0.03453,0 -0.06607,-0.02252 -0.03003,-0.02402 -0.03003,-0.08258 v -1.732736 q 0,-0.05856 0.03003,-0.08108 0.03153,-0.02402 0.06607,-0.02402 h 0.921923 q 0.01201,0 0.02102,0.006 0.01051,0.006 0.01652,0.01952 0.006,0.01351 0.009,0.03453 0.0045,0.01952 0.0045,0.04955 0,0.02703 -0.0045,0.04805 -0.003,0.01952 -0.009,0.03303 -0.006,0.01201 -0.01652,0.01802 -0.009,0.006 -0.02102,0.006 h -0.759761 v 0.60961 h 0.651653 q 0.01201,0 0.02102,0.0075 0.01051,0.006 0.01652,0.01802 0.0075,0.01201 0.01051,0.03303 0.003,0.02102 0.003,0.04955 0,0.02703 -0.003,0.04655 -0.003,0.01952 -0.01051,0.03153 -0.006,0.01201 -0.01652,0.01802 -0.009,0.0045 -0.02102,0.0045 h -0.651653 v 0.695197 h 0.770272 q 0.01201,0 0.02102,0.006 0.01051,0.006 0.01802,0.01952 0.0075,0.01201 0.01051,0.03303 0.003,0.01952 0.003,0.04955 z"
         id="path861" />
    </g>
  </g>
</svg>
