<?xml version="1.0" encoding="UTF-8" standalone="no"?>
<!-- Created with Inkscape (http://www.inkscape.org/) -->

<svg
   width="30.488001mm"
   height="128.50433mm"
   viewBox="0 0 30.488001 128.50433"
   version="1.1"
   id="svg5"
   inkscape:version="1.1.2 (b8e25be833, 2022-02-05)"
   sodipodi:docname="ProbS.svg"
   xmlns:inkscape="http://www.inkscape.org/namespaces/inkscape"
   xmlns:sodipodi="http://sodipodi.sourceforge.net/DTD/sodipodi-0.dtd"
   xmlns="http://www.w3.org/2000/svg"
   xmlns:svg="http://www.w3.org/2000/svg">
  <sodipodi:namedview
     id="namedview7"
     pagecolor="#ffffff"
     bordercolor="#666666"
     borderopacity="1.0"
     inkscape:pageshadow="2"
     inkscape:pageopacity="0.0"
     inkscape:pagecheckerboard="0"
     inkscape:document-units="mm"
     showgrid="false"
     height="128.5mm"
     inkscape:zoom="4.9217646"
     inkscape:cx="-17.778177"
     inkscape:cy="360.94778"
     inkscape:window-width="3840"
     inkscape:window-height="2054"
     inkscape:window-x="-11"
     inkscape:window-y="-11"
     inkscape:window-maximized="0"
     inkscape:current-layer="layer1" />
  <defs
     id="defs2" />
  <g
     inkscape:label="Layer 1"
     inkscape:groupmode="layer"
     id="layer1"
     transform="translate(0.00163785)">
    <path
       id="rect4302"
       style="fill:#520000;stroke-width:0.184932"
       d="M -0.00163785,1.6577559e-8 H 30.486363 V 128.50433 H -0.00163785 Z" />
    <path
       id="rect10313"
       style="fill:#AA0000;stroke-width:0.264582"
       d="m 3.1204512,6 h 9.8110008 c 0.831,0 1.499999,0.6689998 1.499999,1.4999995 V 116.5 c 0,0.831 -0.668999,1.5 -1.499999,1.5 H 3.1204512 c -0.8309998,0 -1.4999996,-0.669 -1.4999996,-1.5 V 7.4999995 C 1.6204516,6.6689998 2.2894514,6 3.1204512,6 Z" />
    <path
       id="rect10313-0"
       style="fill:#AA0000;stroke-width:0.264582"
       d="m 17.553362,6 h 9.811 c 0.831,0 1.5,0.6689998 1.5,1.4999995 V 116.5 c 0,0.831 -0.669,1.5 -1.5,1.5 h -9.811 c -0.831,0 -1.5,-0.669 -1.5,-1.5 V 7.4999995 C 16.053362,6.6689998 16.722362,6 17.553362,6 Z" />
    <path
       id="rect10313-8"
       style="fill:#6F1E00;stroke-width:0.264582"
       d="m 17.55336,101.84969 h 9.811 c 0.831,0 1.5,0.669 1.5,1.5 v 13.15032 c 0,0.831 -0.669,1.5 -1.5,1.5 h -9.811 c -0.831,0 -1.5,-0.669 -1.5,-1.5 v -13.15032 c 0,-0.831 0.669,-1.5 1.5,-1.5 z" />
    <path
       id="rect10313-4"
       style="fill:#AA0000;stroke-width:0.264583"
       d="m 3.1204513,136.22836 h 9.0000007 c 0.831,0 1.5,0.669 1.5,1.5 v 9.59748 c 0,0.831 -0.669,1.5 -1.5,1.5 H 3.1204513 c -0.8309998,0 -1.4999997,-0.669 -1.4999997,-1.5 v -9.59748 c 0,-0.831 0.6689999,-1.5 1.4999997,-1.5 z" />
    <g
       aria-label="PROBS"
       id="text8544-7-0-8-5"
       style="font-size:4.23333px;line-height:1.25;font-family:Calibri;-inkscape-font-specification:Calibri;text-align:center;letter-spacing:0px;text-anchor:middle;fill:#ffffff;stroke-width:0.264583">
      <path
         d="m 3.1993185,120.80202 q 0,0.18603 -0.064079,0.34106 -0.062012,0.15503 -0.1798338,0.26665 -0.1178222,0.11162 -0.2873208,0.17363 -0.1694985,0.062 -0.409277,0.062 H 1.9115429 v 1.0232 q 0,0.0124 -0.0062,0.0227 -0.0062,0.0103 -0.02067,0.0165 -0.014469,0.006 -0.039274,0.0103 -0.022738,0.004 -0.059945,0.004 -0.03514,0 -0.059945,-0.004 -0.024805,-0.004 -0.039274,-0.0103 -0.014469,-0.006 -0.020671,-0.0165 -0.0062,-0.0103 -0.0062,-0.0227 v -2.50321 q 0,-0.0744 0.039274,-0.10128 0.039274,-0.0289 0.076481,-0.0289 h 0.5436357 q 0.080615,0 0.1570962,0.008 0.076481,0.006 0.1777668,0.031 0.1033527,0.0227 0.2087726,0.0889 0.1074869,0.0641 0.1819009,0.15916 0.074414,0.093 0.113688,0.21497 0.041341,0.11989 0.041341,0.26459 z m -0.2666501,0.0227 q 0,-0.17363 -0.068213,-0.29352 -0.068213,-0.12196 -0.1674315,-0.17983 -0.097152,-0.06 -0.2046385,-0.0744 -0.1054198,-0.0165 -0.2005044,-0.0165 H 1.9115429 v 1.16168 h 0.3638018 q 0.1756997,0 0.2935219,-0.0434 0.1178221,-0.0455 0.1984373,-0.12402 0.080615,-0.0785 0.1219563,-0.1881 0.043408,-0.11162 0.043408,-0.24185 z"
         style="font-weight:300;-inkscape-font-specification:'Calibri Light'"
         id="path943" />
      <path
         d="m 5.483415,122.66443 q 0,0.0145 -0.0062,0.0248 -0.00413,0.0103 -0.018604,0.0186 -0.014469,0.006 -0.041341,0.0103 -0.024805,0.004 -0.064079,0.004 -0.03514,0 -0.059945,-0.004 -0.022738,-0.002 -0.039274,-0.0103 -0.016536,-0.0103 -0.026872,-0.0248 -0.010335,-0.0165 -0.018604,-0.0414 l -0.2501137,-0.64905 q -0.043408,-0.10955 -0.093018,-0.20671 -0.049609,-0.0971 -0.1198893,-0.16743 -0.07028,-0.0723 -0.1694985,-0.11369 -0.099219,-0.0413 -0.2377114,-0.0413 H 4.0612807 v 1.2051 q 0,0.0124 -0.0062,0.0227 -0.0062,0.0103 -0.020671,0.0165 -0.014469,0.006 -0.039274,0.0103 -0.022738,0.004 -0.059945,0.004 -0.03514,0 -0.059945,-0.004 -0.024805,-0.004 -0.039274,-0.0103 -0.014469,-0.006 -0.020671,-0.0165 -0.0062,-0.0103 -0.0062,-0.0227 v -2.50321 q 0,-0.0744 0.039274,-0.10128 0.039274,-0.0289 0.076481,-0.0289 h 0.5022945 q 0.099219,0 0.1632974,0.006 0.066146,0.004 0.1198892,0.0124 0.1529621,0.0269 0.2666502,0.0868 0.113688,0.0599 0.188102,0.14883 0.074414,0.0868 0.109554,0.19843 0.037207,0.10956 0.037207,0.23771 0,0.1323 -0.037207,0.23772 -0.037207,0.10335 -0.1054199,0.18396 -0.068213,0.0785 -0.1632974,0.13643 -0.095084,0.0579 -0.2087726,0.0971 0.068213,0.031 0.1219563,0.0765 0.05581,0.0455 0.1012857,0.10956 0.047542,0.0641 0.088883,0.14882 0.041341,0.0827 0.082682,0.18604 l 0.2501138,0.62425 q 0.026872,0.0724 0.033073,0.0992 0.00827,0.0269 0.00827,0.0393 z m -0.444417,-1.91202 q 0,-0.17157 -0.076481,-0.28939 -0.076481,-0.11989 -0.2563149,-0.17157 -0.059945,-0.0165 -0.1302245,-0.0227 -0.07028,-0.008 -0.183968,-0.008 H 4.0612807 v 0.98185 h 0.3844724 q 0.1550291,0 0.2666501,-0.0372 0.111621,-0.0393 0.183968,-0.10542 0.074414,-0.0661 0.1074869,-0.15503 0.03514,-0.0889 0.03514,-0.19223 z"
         style="font-weight:300;-inkscape-font-specification:'Calibri Light'"
         id="path945" />
      <path
         d="m 8.1726544,121.34152 q 0,0.32039 -0.074414,0.58084 -0.072347,0.25838 -0.2191079,0.44235 -0.146761,0.1819 -0.370003,0.28112 -0.223242,0.0992 -0.520898,0.0992 -0.297656,0 -0.5126298,-0.093 -0.2129067,-0.0951 -0.3513994,-0.26872 -0.1364257,-0.1757 -0.2025714,-0.42788 -0.064079,-0.25218 -0.064079,-0.56844 0,-0.31419 0.072347,-0.57051 0.072347,-0.25631 0.2191079,-0.43614 0.148828,-0.1819 0.3700029,-0.28112 Q 6.7422519,120 7.041975,120 q 0.2914548,0 0.5043615,0.093 0.2129067,0.093 0.3513995,0.26665 0.1405597,0.17363 0.2067055,0.42167 0.068213,0.24805 0.068213,0.56018 z m -0.2687173,0.0227 q 0,-0.23771 -0.045475,-0.44441 -0.043408,-0.20878 -0.1467609,-0.36174 -0.1012858,-0.15503 -0.2707843,-0.24184 -0.1694986,-0.0889 -0.4196123,-0.0889 -0.2480467,0 -0.4196123,0.093 -0.1694985,0.0909 -0.2769854,0.24598 -0.1054198,0.15503 -0.1529621,0.36174 -0.045475,0.2067 -0.045475,0.43614 0,0.24392 0.041341,0.45476 0.043408,0.20877 0.1446939,0.3638 0.1012857,0.15503 0.2707842,0.24391 0.1694986,0.0868 0.4237464,0.0868 0.2521808,0 0.4237464,-0.093 0.1715656,-0.0951 0.2769855,-0.25218 0.1054198,-0.15916 0.150895,-0.36587 0.045475,-0.20877 0.045475,-0.43822 z"
         style="font-weight:300;-inkscape-font-specification:'Calibri Light'"
         id="path947" />
      <path
         d="m 10.458818,121.96163 q 0,0.11783 -0.02894,0.21911 -0.02687,0.10129 -0.07855,0.18397 -0.05168,0.0827 -0.12609,0.14676 -0.07441,0.0641 -0.169499,0.10955 -0.093017,0.0434 -0.2025714,0.0661 -0.1095539,0.0227 -0.2542478,0.0227 H 8.9064592 q -0.037207,0 -0.076481,-0.0269 -0.039274,-0.0289 -0.039274,-0.10336 v -2.41432 q 0,-0.0744 0.039274,-0.10128 0.039274,-0.0289 0.076481,-0.0289 h 0.5746414 q 0.2335773,0 0.3782712,0.0475 0.1446942,0.0475 0.2377112,0.13643 0.09509,0.0868 0.14056,0.2129 0.04754,0.12403 0.04754,0.27699 0,0.0951 -0.02274,0.1819 -0.02067,0.0868 -0.06408,0.16123 -0.04341,0.0744 -0.109554,0.13436 -0.06408,0.0599 -0.1529622,0.10128 0.1074872,0.0207 0.2025712,0.0786 0.09508,0.0558 0.165365,0.14263 0.07235,0.0868 0.113688,0.20257 0.04134,0.11369 0.04134,0.25011 z m -0.44235,-1.2361 q 0,-0.10542 -0.028939,-0.19016 -0.028939,-0.0868 -0.093018,-0.14677 -0.062012,-0.062 -0.1632974,-0.0951 -0.1012857,-0.0331 -0.2707842,-0.0331 H 9.0428848 v 0.95911 h 0.4588864 q 0.150895,0 0.2439125,-0.0393 0.093017,-0.0413 0.1529621,-0.10956 0.059945,-0.0682 0.088883,-0.15709 0.028939,-0.091 0.028939,-0.18811 z m 0.173633,1.25677 q 0,-0.13229 -0.04341,-0.23357 -0.04134,-0.10129 -0.124024,-0.1695 -0.080615,-0.0682 -0.2005042,-0.10335 -0.1198892,-0.0351 -0.297656,-0.0351 h -0.481624 v 1.04386 h 0.5829097 q 0.1281575,0 0.2253091,-0.031 0.099219,-0.0331 0.1736324,-0.0951 0.07648,-0.0641 0.119889,-0.1571 0.04548,-0.0951 0.04548,-0.21911 z"
         style="font-weight:300;-inkscape-font-specification:'Calibri Light'"
         id="path949" />
      <path
         d="m 12.410119,121.98644 q 0,0.17776 -0.06408,0.31832 -0.06408,0.14056 -0.179834,0.23978 -0.115755,0.0971 -0.274918,0.14883 -0.159163,0.0517 -0.347265,0.0517 -0.128158,0 -0.241846,-0.0248 -0.113688,-0.0227 -0.202571,-0.0558 -0.08888,-0.0331 -0.150895,-0.0661 -0.05994,-0.0351 -0.08268,-0.0579 -0.02274,-0.0248 -0.03307,-0.0558 -0.01033,-0.0331 -0.01033,-0.0806 0,-0.0351 0.0041,-0.0579 0.0041,-0.0227 0.01034,-0.0372 0.0083,-0.0145 0.0186,-0.0186 0.0124,-0.006 0.0248,-0.006 0.02894,0 0.08061,0.0372 0.05374,0.0351 0.136426,0.0786 0.08475,0.0413 0.200504,0.0785 0.117822,0.0351 0.272851,0.0351 0.126091,0 0.231511,-0.0331 0.105419,-0.0351 0.1819,-0.0992 0.07648,-0.0641 0.117823,-0.1571 0.04341,-0.0951 0.04341,-0.21497 0,-0.12403 -0.05374,-0.21291 -0.05374,-0.0889 -0.142627,-0.15503 -0.08682,-0.0682 -0.198437,-0.12196 -0.111621,-0.0558 -0.229443,-0.10955 -0.115755,-0.0558 -0.227376,-0.11989 -0.111621,-0.0641 -0.200505,-0.14883 -0.08682,-0.0868 -0.140559,-0.20257 -0.05374,-0.11575 -0.05374,-0.27492 0,-0.15503 0.05581,-0.27698 0.05581,-0.12403 0.157096,-0.20878 0.101286,-0.0868 0.241845,-0.13229 Q 11.49648,120 11.665979,120 q 0.08475,0 0.171565,0.0165 0.08682,0.0165 0.163298,0.0434 0.07855,0.0248 0.138493,0.0579 0.06201,0.031 0.08061,0.0517 0.02067,0.0186 0.0248,0.0289 0.0062,0.008 0.01034,0.0227 0.0041,0.0145 0.0062,0.0351 0.0021,0.0186 0.0021,0.0475 0,0.0269 -0.0041,0.0496 -0.0021,0.0207 -0.0083,0.0372 -0.0062,0.0145 -0.01654,0.0227 -0.0083,0.008 -0.02067,0.008 -0.02274,0 -0.07028,-0.0289 -0.04548,-0.031 -0.115755,-0.0682 -0.07028,-0.0372 -0.167432,-0.0661 -0.09715,-0.031 -0.221175,-0.031 -0.121956,0 -0.212907,0.0331 -0.09095,0.0331 -0.150895,0.0909 -0.05994,0.0558 -0.09095,0.13229 -0.02894,0.0765 -0.02894,0.16123 0,0.12402 0.05374,0.21291 0.05374,0.0889 0.142626,0.15709 0.08888,0.0682 0.200505,0.12403 0.113688,0.0537 0.229443,0.10955 0.117822,0.0537 0.229443,0.11782 0.113688,0.062 0.202572,0.14883 0.08888,0.0847 0.142626,0.2005 0.05374,0.11369 0.05374,0.27079 z"
         style="font-weight:300;-inkscape-font-specification:'Calibri Light'"
         id="path951" />
    </g>
    <g
       aria-label="2 LIFT"
       id="text8544-7-0-8-5-9"
       style="font-size:2.46944px;line-height:1.25;font-family:Calibri;-inkscape-font-specification:Calibri;text-align:center;text-anchor:middle;fill:#ffffff;stroke-width:0.264583">
      <path
         d="m 2.5983669,125.36831 q 0,0.0145 -0.00362,0.0277 -0.00241,0.0121 -0.00844,0.0217 -0.00482,0.008 -0.013264,0.0133 -0.00844,0.005 -0.019293,0.005 H 1.7109119 q -0.010852,0 -0.020498,-0.004 -0.00965,-0.004 -0.016881,-0.0109 -0.00723,-0.008 -0.010852,-0.0217 -0.00362,-0.0133 -0.00362,-0.0314 0,-0.0157 0.00121,-0.0277 0.00121,-0.0121 0.00482,-0.0217 0.00362,-0.01 0.00965,-0.0193 0.00603,-0.01 0.015675,-0.0205 l 0.319532,-0.33762 q 0.1193724,-0.1254 0.1893077,-0.22428 0.071141,-0.0989 0.1085203,-0.17845 0.037379,-0.0796 0.048231,-0.1447 0.012058,-0.0651 0.012058,-0.12299 0,-0.0579 -0.019292,-0.10972 -0.018087,-0.0531 -0.05426,-0.0916 -0.036173,-0.0398 -0.090434,-0.0627 -0.053054,-0.0241 -0.1229897,-0.0241 -0.075964,0 -0.1362532,0.0217 -0.060289,0.0205 -0.1061088,0.047 -0.044614,0.0253 -0.074758,0.047 -0.030145,0.0205 -0.044614,0.0205 -0.00723,0 -0.013264,-0.004 -0.00603,-0.004 -0.010852,-0.0109 -0.00362,-0.008 -0.00603,-0.0205 -0.00121,-0.0121 -0.00121,-0.0277 0,-0.0145 0.00121,-0.0241 0.00121,-0.01 0.00362,-0.0169 0.00241,-0.008 0.00603,-0.0157 0.00482,-0.007 0.018087,-0.0193 0.014469,-0.0121 0.047026,-0.0326 0.033762,-0.0205 0.084405,-0.041 0.050643,-0.0217 0.1121376,-0.0362 0.061495,-0.0157 0.1278128,-0.0157 0.1097261,0 0.1905135,0.0326 0.081993,0.0326 0.1362532,0.088 0.05426,0.0555 0.080787,0.12901 0.026527,0.0724 0.026527,0.15314 0,0.0748 -0.013264,0.14952 -0.012058,0.0736 -0.05426,0.16157 -0.040997,0.0868 -0.1205781,0.19293 -0.078376,0.1061 -0.2098059,0.24477 l -0.2845644,0.29783 H 2.553753 q 0.00965,0 0.018087,0.005 0.00844,0.004 0.014469,0.0121 0.00603,0.008 0.00844,0.0205 0.00362,0.0121 0.00362,0.0265 z"
         style="font-weight:300;-inkscape-font-specification:'Calibri Light'"
         id="path932" />
      <path
         d="m 4.3250456,125.36831 q 0,0.0169 -0.00241,0.0289 -0.00241,0.0121 -0.00723,0.0217 -0.00482,0.008 -0.012058,0.0133 -0.00723,0.004 -0.016881,0.004 H 3.6100173 q -0.021704,0 -0.044614,-0.0157 -0.02291,-0.0169 -0.02291,-0.0603 v -1.4602 q 0,-0.007 0.00362,-0.0133 0.00362,-0.006 0.012058,-0.01 0.00844,-0.004 0.02291,-0.006 0.014469,-0.002 0.034968,-0.002 0.021704,0 0.034968,0.002 0.014469,0.002 0.02291,0.006 0.00844,0.004 0.012058,0.01 0.00362,0.006 0.00362,0.0133 v 1.40233 h 0.5968617 q 0.00965,0 0.016881,0.005 0.00723,0.004 0.012058,0.0121 0.00482,0.007 0.00723,0.0205 0.00241,0.0121 0.00241,0.0289 z"
         style="font-weight:300;-inkscape-font-specification:'Calibri Light'"
         id="path934" />
      <path
         d="m 4.7241593,125.41172 q 0,0.007 -0.00362,0.0133 -0.00362,0.006 -0.012058,0.01 -0.00844,0.004 -0.02291,0.006 -0.013264,0.002 -0.034968,0.002 -0.020498,0 -0.034968,-0.002 -0.014469,-0.002 -0.02291,-0.006 -0.00844,-0.004 -0.012058,-0.01 -0.00362,-0.006 -0.00362,-0.0133 v -1.51205 q 0,-0.007 0.00362,-0.0133 0.00482,-0.006 0.013264,-0.01 0.00965,-0.004 0.02291,-0.006 0.014469,-0.002 0.033762,-0.002 0.021704,0 0.034968,0.002 0.014469,0.002 0.02291,0.006 0.00844,0.004 0.012058,0.01 0.00362,0.006 0.00362,0.0133 z"
         style="font-weight:300;-inkscape-font-specification:'Calibri Light'"
         id="path936" />
      <path
         d="m 5.9697312,123.94308 q 0,0.0157 -0.00241,0.0277 -0.00241,0.0121 -0.00844,0.0205 -0.00482,0.007 -0.012058,0.0121 -0.00723,0.004 -0.015675,0.004 H 5.3270498 v 0.59083 h 0.5727461 q 0.00844,0 0.015675,0.004 0.00723,0.002 0.012058,0.01 0.00603,0.007 0.00844,0.0193 0.00241,0.0121 0.00241,0.0302 0,0.0157 -0.00241,0.0277 -0.00241,0.0121 -0.00844,0.0205 -0.00482,0.007 -0.012058,0.0121 -0.00723,0.004 -0.015675,0.004 H 5.3270498 v 0.68729 q 0,0.007 -0.00362,0.0133 -0.00362,0.006 -0.012058,0.01 -0.00844,0.004 -0.02291,0.006 -0.013264,0.002 -0.034968,0.002 -0.020498,0 -0.034968,-0.002 -0.014469,-0.002 -0.02291,-0.006 -0.00844,-0.004 -0.012058,-0.01 -0.00362,-0.006 -0.00362,-0.0133 v -1.4602 q 0,-0.0434 0.02291,-0.0591 0.02291,-0.0169 0.044614,-0.0169 h 0.6836779 q 0.00844,0 0.015675,0.005 0.00723,0.004 0.012058,0.0121 0.00603,0.008 0.00844,0.0217 0.00241,0.0121 0.00241,0.0289 z"
         style="font-weight:300;-inkscape-font-specification:'Calibri Light'"
         id="path938" />
      <path
         d="m 7.2611232,123.94308 q 0,0.0157 -0.00241,0.0277 -0.00241,0.0121 -0.00723,0.0205 -0.00482,0.007 -0.012058,0.0121 -0.00723,0.004 -0.015675,0.004 H 6.7583124 v 1.40473 q 0,0.007 -0.00362,0.0133 -0.00362,0.006 -0.012058,0.01 -0.00844,0.004 -0.02291,0.006 -0.014469,0.002 -0.034968,0.002 -0.020498,0 -0.034968,-0.002 -0.014469,-0.002 -0.02291,-0.006 -0.00844,-0.004 -0.012058,-0.01 -0.00362,-0.006 -0.00362,-0.0133 v -1.40473 H 6.1457755 q -0.00965,0 -0.016881,-0.004 -0.00603,-0.005 -0.010852,-0.0121 -0.00482,-0.008 -0.00723,-0.0205 -0.00241,-0.0121 -0.00241,-0.0277 0,-0.0169 0.00241,-0.0289 0.00241,-0.0133 0.00723,-0.0217 0.00482,-0.008 0.010852,-0.0121 0.00723,-0.005 0.016881,-0.005 h 1.0779684 q 0.00844,0 0.015675,0.005 0.00723,0.004 0.012058,0.0121 0.00482,0.008 0.00723,0.0217 0.00241,0.0121 0.00241,0.0289 z"
         style="font-weight:300;-inkscape-font-specification:'Calibri Light'"
         id="path940" />
    </g>
    <g
       aria-label="RESET"
       id="text8544-7-1"
       style="font-size:2.82222px;line-height:1.25;font-family:Calibri;-inkscape-font-specification:Calibri;text-align:center;text-anchor:middle;stroke-width:0.264583">
      <path
         d="m 4.4376083,116.27353 q 0,0.011 -0.00413,0.0193 -0.00413,0.008 -0.017914,0.0138 -0.01378,0.006 -0.038585,0.008 -0.024805,0.003 -0.066146,0.003 -0.035829,0 -0.059256,-0.003 -0.022049,-0.003 -0.035829,-0.008 -0.01378,-0.007 -0.022049,-0.0179 -0.00689,-0.011 -0.012402,-0.0276 l -0.1639864,-0.42031 q -0.028939,-0.0716 -0.060634,-0.13091 -0.030317,-0.0606 -0.073036,-0.10335 -0.042719,-0.0441 -0.1005967,-0.0675 -0.057878,-0.0248 -0.1391817,-0.0248 H 3.4853846 v 0.7593 q 0,0.011 -0.00689,0.0193 -0.00551,0.008 -0.019293,0.0138 -0.012402,0.004 -0.035829,0.007 -0.022049,0.004 -0.0565,0.004 -0.034451,0 -0.057878,-0.004 -0.022049,-0.003 -0.035829,-0.007 -0.01378,-0.006 -0.019293,-0.0138 -0.00551,-0.008 -0.00551,-0.0193 v -1.65089 q 0,-0.0537 0.027561,-0.0744 0.028939,-0.0221 0.060634,-0.0221 h 0.3789602 q 0.067524,0 0.111621,0.004 0.045475,0.003 0.081304,0.007 0.1033528,0.0179 0.1819009,0.0565 0.079926,0.0386 0.1336696,0.0978 0.053744,0.0593 0.079926,0.13643 0.027561,0.0758 0.027561,0.16812 0,0.0896 -0.024805,0.16123 -0.023427,0.0703 -0.068902,0.1254 -0.045475,0.0537 -0.108865,0.0937 -0.06339,0.04 -0.1419378,0.0675 0.044097,0.0193 0.079926,0.0496 0.035829,0.0289 0.066146,0.0703 0.031695,0.0413 0.059256,0.0951 0.027561,0.0538 0.055122,0.12127 l 0.1598523,0.39274 q 0.019293,0.0496 0.024805,0.0703 0.00551,0.0193 0.00551,0.0303 z m -0.3569117,-1.25264 q 0,-0.10473 -0.046853,-0.17639 -0.046853,-0.073 -0.1570963,-0.10473 -0.034451,-0.01 -0.078548,-0.0138 -0.042719,-0.004 -0.112999,-0.004 H 3.4853846 v 0.60082 h 0.2315102 q 0.093707,0 0.1612304,-0.0221 0.068902,-0.0234 0.1143771,-0.0634 0.045475,-0.0413 0.066146,-0.0965 0.022049,-0.0551 0.022049,-0.11989 z"
         id="path921" />
      <path
         d="m 5.7729263,116.21152 q 0,0.0248 -0.00276,0.0441 -0.00276,0.0179 -0.00965,0.0303 -0.00689,0.0124 -0.016536,0.0179 -0.00827,0.006 -0.019293,0.006 H 4.8689339 q -0.031695,0 -0.060634,-0.0207 -0.027561,-0.0221 -0.027561,-0.0758 v -1.59025 q 0,-0.0537 0.027561,-0.0744 0.028939,-0.0221 0.060634,-0.0221 h 0.8461148 q 0.011024,0 0.019293,0.006 0.00965,0.006 0.015158,0.0179 0.00551,0.0124 0.00827,0.0317 0.00413,0.0179 0.00413,0.0455 0,0.0248 -0.00413,0.0441 -0.00276,0.0179 -0.00827,0.0303 -0.00551,0.011 -0.015158,0.0165 -0.00827,0.006 -0.019293,0.006 H 5.0177619 v 0.55948 h 0.5980682 q 0.011024,0 0.019292,0.007 0.00965,0.006 0.015158,0.0165 0.00689,0.011 0.00965,0.0303 0.00276,0.0193 0.00276,0.0455 0,0.0248 -0.00276,0.0427 -0.00276,0.0179 -0.00965,0.0289 -0.00551,0.011 -0.015158,0.0165 -0.00827,0.004 -0.019292,0.004 H 5.0177619 v 0.63803 H 5.724695 q 0.011024,0 0.019293,0.006 0.00965,0.006 0.016536,0.0179 0.00689,0.011 0.00965,0.0303 0.00276,0.0179 0.00276,0.0455 z"
         id="path923" />
      <path
         d="m 7.0889518,115.80913 q 0,0.1254 -0.046853,0.22324 -0.045475,0.0978 -0.1281575,0.16674 -0.081304,0.0675 -0.1929252,0.10198 -0.1102429,0.0344 -0.2384004,0.0344 -0.089572,0 -0.1667425,-0.0152 -0.075792,-0.0152 -0.1364257,-0.0372 -0.059256,-0.022 -0.1005967,-0.0455 -0.039963,-0.0234 -0.0565,-0.04 -0.015158,-0.0165 -0.023427,-0.0413 -0.00689,-0.0262 -0.00689,-0.0689 0,-0.0303 0.00276,-0.0496 0.00276,-0.0207 0.00827,-0.0331 0.00551,-0.0124 0.01378,-0.0165 0.00827,-0.006 0.019293,-0.006 0.019292,0 0.053743,0.0234 0.035829,0.0234 0.090951,0.051 0.055121,0.0276 0.1322915,0.0524 0.078548,0.0234 0.1805229,0.0234 0.07717,0 0.1405598,-0.0207 0.064768,-0.0207 0.110243,-0.0579 0.046853,-0.0386 0.071658,-0.0937 0.024805,-0.0551 0.024805,-0.1254 0,-0.0758 -0.034451,-0.12953 -0.034451,-0.0538 -0.09095,-0.0937 -0.0565,-0.0413 -0.1295355,-0.0744 -0.071658,-0.0345 -0.14745,-0.0689 -0.075792,-0.0358 -0.1474499,-0.0785 -0.071658,-0.0427 -0.1281575,-0.1006 -0.056499,-0.0579 -0.092328,-0.13505 -0.034451,-0.0786 -0.034451,-0.18741 0,-0.11162 0.039963,-0.19844 0.041341,-0.0882 0.112999,-0.14745 0.073036,-0.0593 0.1722546,-0.0896 0.1005968,-0.0317 0.2163519,-0.0317 0.059256,0 0.1185112,0.011 0.060634,0.01 0.112999,0.0276 0.053744,0.0165 0.095085,0.0386 0.041341,0.0207 0.053743,0.0344 0.01378,0.0124 0.017914,0.0207 0.00413,0.007 0.00689,0.0193 0.00276,0.011 0.00413,0.0276 0.00138,0.0165 0.00138,0.0427 0,0.0248 -0.00276,0.0441 -0.00138,0.0193 -0.00551,0.0331 -0.00413,0.0124 -0.012402,0.0193 -0.00689,0.006 -0.016536,0.006 -0.015158,0 -0.048231,-0.0193 -0.031695,-0.0193 -0.078548,-0.0427 -0.046853,-0.0248 -0.111621,-0.0441 -0.06339,-0.0207 -0.1433158,-0.0207 -0.074414,0 -0.1295355,0.0207 -0.055122,0.0193 -0.09095,0.0524 -0.035829,0.0331 -0.053743,0.0786 -0.017914,0.0455 -0.017914,0.0965 0,0.0744 0.034451,0.12816 0.034451,0.0537 0.09095,0.0951 0.057878,0.0413 0.1309135,0.0758 0.073036,0.0345 0.148828,0.0703 0.075792,0.0345 0.148828,0.0772 0.073036,0.0413 0.1295355,0.0992 0.057878,0.0565 0.092328,0.13505 0.035829,0.0772 0.035829,0.18328 z"
         id="path925" />
      <path
         d="m 8.4201354,116.21152 q 0,0.0248 -0.00276,0.0441 -0.00276,0.0179 -0.00965,0.0303 -0.00689,0.0124 -0.016536,0.0179 -0.00827,0.006 -0.019293,0.006 H 7.516143 q -0.031695,0 -0.060634,-0.0207 -0.027561,-0.0221 -0.027561,-0.0758 v -1.59025 q 0,-0.0537 0.027561,-0.0744 0.028939,-0.0221 0.060634,-0.0221 h 0.8461148 q 0.011024,0 0.019293,0.006 0.00965,0.006 0.015158,0.0179 0.00551,0.0124 0.00827,0.0317 0.00413,0.0179 0.00413,0.0455 0,0.0248 -0.00413,0.0441 -0.00276,0.0179 -0.00827,0.0303 -0.00551,0.011 -0.015158,0.0165 -0.00827,0.006 -0.019293,0.006 H 7.664971 v 0.55948 h 0.5980681 q 0.011024,0 0.019292,0.007 0.00965,0.006 0.015159,0.0165 0.00689,0.011 0.00965,0.0303 0.00276,0.0193 0.00276,0.0455 0,0.0248 -0.00276,0.0427 -0.00276,0.0179 -0.00965,0.0289 -0.00551,0.011 -0.015159,0.0165 -0.00827,0.004 -0.019292,0.004 H 7.664971 v 0.63803 h 0.7069331 q 0.011024,0 0.019293,0.006 0.00965,0.006 0.016536,0.0179 0.00689,0.011 0.00965,0.0303 0.00276,0.0179 0.00276,0.0455 z"
         id="path927" />
      <path
         d="m 9.9235742,114.62815 q 0,0.0262 -0.00276,0.0455 -0.00276,0.0193 -0.00965,0.0317 -0.00551,0.011 -0.015159,0.0165 -0.00827,0.006 -0.019292,0.006 H 9.3751154 v 1.54616 q 0,0.011 -0.00551,0.0193 -0.00551,0.008 -0.019293,0.0138 -0.01378,0.004 -0.037207,0.007 -0.022049,0.004 -0.056499,0.004 -0.033073,0 -0.056499,-0.004 -0.023427,-0.003 -0.037207,-0.007 -0.01378,-0.006 -0.019293,-0.0138 -0.00551,-0.008 -0.00551,-0.0193 v -1.54616 H 8.6364875 q -0.011024,0 -0.020671,-0.006 -0.00827,-0.006 -0.01378,-0.0165 -0.00551,-0.0124 -0.00965,-0.0317 -0.00276,-0.0193 -0.00276,-0.0455 0,-0.0262 0.00276,-0.0455 0.00413,-0.0207 0.00965,-0.0331 0.00551,-0.0124 0.01378,-0.0179 0.00965,-0.006 0.020671,-0.006 h 1.2402334 q 0.011024,0 0.019292,0.006 0.00965,0.006 0.015159,0.0179 0.00689,0.0124 0.00965,0.0331 0.00276,0.0193 0.00276,0.0455 z"
         id="path929" />
    </g>
    <g
       aria-label="CLOCK"
       id="text8544-7-1-1"
       style="font-size:2.82222px;line-height:1.25;font-family:Calibri;-inkscape-font-specification:Calibri;text-align:center;text-anchor:middle;stroke-width:0.264583">
      <path
         d="m 4.2923389,18.003186 q 0,0.02205 -0.00138,0.03859 -0.00138,0.01654 -0.00551,0.02894 -0.00276,0.0124 -0.00827,0.02205 -0.00551,0.0096 -0.019293,0.02343 -0.01378,0.01378 -0.057878,0.04272 -0.044097,0.02756 -0.110243,0.05512 -0.064768,0.02618 -0.150206,0.0441 -0.08406,0.01929 -0.184657,0.01929 -0.1736327,0 -0.3141925,-0.05788 -0.1391817,-0.05788 -0.2384004,-0.170876 -0.097841,-0.112999 -0.1515841,-0.278364 -0.052365,-0.166742 -0.052365,-0.383094 0,-0.221864 0.056499,-0.395497 0.057878,-0.173632 0.1612304,-0.293522 0.1033527,-0.121267 0.2466686,-0.184657 0.1446939,-0.06339 0.3197046,-0.06339 0.07717,0 0.1502061,0.01516 0.073036,0.01378 0.1350476,0.03583 0.062012,0.02205 0.110243,0.05099 0.048231,0.02894 0.066146,0.04823 0.019292,0.01791 0.024805,0.02756 0.00551,0.0096 0.00827,0.02343 0.00413,0.0124 0.00551,0.03032 0.00276,0.01791 0.00276,0.04272 0,0.02756 -0.00276,0.04685 -0.00276,0.01929 -0.00827,0.03307 -0.00551,0.0124 -0.01378,0.01929 -0.00689,0.0055 -0.017914,0.0055 -0.019293,0 -0.053743,-0.02618 -0.034451,-0.02756 -0.089572,-0.05926 -0.053744,-0.03307 -0.1322916,-0.05926 -0.07717,-0.02756 -0.186035,-0.02756 -0.1185112,0 -0.2163518,0.04823 -0.096463,0.04685 -0.1653645,0.139182 -0.068902,0.09233 -0.1074869,0.225998 -0.037207,0.132292 -0.037207,0.303169 0,0.169498 0.035829,0.300412 0.037207,0.129535 0.1047308,0.217729 0.068902,0.08682 0.1681205,0.132292 0.099219,0.0441 0.2246201,0.0441 0.1061088,0 0.184657,-0.02618 0.079926,-0.02618 0.1350476,-0.05788 0.0565,-0.03307 0.092328,-0.05926 0.035829,-0.02618 0.0565,-0.02618 0.00965,0 0.016536,0.0041 0.00689,0.0041 0.011024,0.01654 0.00413,0.01103 0.00551,0.0317 0.00276,0.02067 0.00276,0.05236 z"
         id="path910" />
      <path
         d="m 5.5311942,18.152014 q 0,0.02756 -0.00276,0.04685 -0.00276,0.01791 -0.00965,0.03169 -0.00551,0.0124 -0.015158,0.01929 -0.00827,0.0055 -0.020671,0.0055 H 4.6947257 q -0.031695,0 -0.060634,-0.02067 -0.027561,-0.02205 -0.027561,-0.07579 v -1.650889 q 0,-0.01102 0.00551,-0.01929 0.00551,-0.0083 0.019292,-0.0124 0.01378,-0.0055 0.037207,-0.0083 0.023427,-0.0041 0.0565,-0.0041 0.034451,0 0.0565,0.0041 0.023427,0.0028 0.037207,0.0083 0.01378,0.0041 0.019293,0.0124 0.00551,0.0083 0.00551,0.01929 v 1.542024 h 0.6394092 q 0.012402,0 0.020671,0.0069 0.00965,0.0055 0.015158,0.01791 0.00689,0.01103 0.00965,0.03032 0.00276,0.01929 0.00276,0.04685 z"
         id="path912" />
      <path
         d="m 7.2248019,17.343107 q 0,0.216352 -0.050987,0.389984 -0.050987,0.173633 -0.1529621,0.296278 -0.1005967,0.121267 -0.2535588,0.187413 -0.1529621,0.06477 -0.3569116,0.06477 -0.2011935,0 -0.3486434,-0.05926 -0.146072,-0.06063 -0.2425346,-0.17501 -0.095085,-0.114377 -0.1419378,-0.283876 -0.046853,-0.169499 -0.046853,-0.389984 0,-0.21084 0.050987,-0.383095 0.050987,-0.172254 0.1529621,-0.292144 0.1019748,-0.121267 0.2549369,-0.186035 0.1529621,-0.06615 0.3569116,-0.06615 0.1970593,0 0.3431313,0.05926 0.1460719,0.05926 0.2425345,0.173633 0.097841,0.112999 0.1446939,0.281119 0.048231,0.166743 0.048231,0.383095 z m -0.2494247,0.01654 q 0,-0.151584 -0.027561,-0.281119 -0.026183,-0.130914 -0.089573,-0.225999 -0.062012,-0.09646 -0.1667425,-0.150206 -0.1047308,-0.05374 -0.2590709,-0.05374 -0.1543402,0 -0.259071,0.05788 -0.1047308,0.05788 -0.1708766,0.15434 -0.064768,0.09646 -0.093707,0.225998 -0.027561,0.128157 -0.027561,0.270095 0,0.157096 0.026183,0.289388 0.026183,0.132291 0.088194,0.228754 0.062012,0.09508 0.1653644,0.148828 0.1047309,0.05237 0.2618271,0.05237 0.1557182,0 0.2618271,-0.05788 0.1061088,-0.05788 0.1708766,-0.155718 0.064768,-0.09922 0.092328,-0.228754 0.027561,-0.129536 0.027561,-0.27423 z"
         id="path914" />
      <path
         d="m 8.7902522,18.003186 q 0,0.02205 -0.00138,0.03859 -0.00138,0.01654 -0.00551,0.02894 -0.00276,0.0124 -0.00827,0.02205 -0.00551,0.0096 -0.019293,0.02343 -0.01378,0.01378 -0.057878,0.04272 -0.044097,0.02756 -0.1102429,0.05512 -0.064768,0.02618 -0.1502061,0.0441 -0.08406,0.01929 -0.184657,0.01929 -0.1736326,0 -0.3141924,-0.05788 -0.1391818,-0.05788 -0.2384004,-0.170876 -0.097841,-0.112999 -0.1515841,-0.278364 -0.052365,-0.166742 -0.052365,-0.383094 0,-0.221864 0.0565,-0.395497 0.057878,-0.173632 0.1612303,-0.293522 0.1033528,-0.121267 0.2466687,-0.184657 0.1446939,-0.06339 0.3197046,-0.06339 0.07717,0 0.150206,0.01516 0.073036,0.01378 0.1350477,0.03583 0.062012,0.02205 0.110243,0.05099 0.048231,0.02894 0.066146,0.04823 0.019293,0.01791 0.024805,0.02756 0.00551,0.0096 0.00827,0.02343 0.00413,0.0124 0.00551,0.03032 0.00276,0.01791 0.00276,0.04272 0,0.02756 -0.00276,0.04685 -0.00276,0.01929 -0.00827,0.03307 -0.00551,0.0124 -0.01378,0.01929 -0.00689,0.0055 -0.017915,0.0055 -0.019292,0 -0.053743,-0.02618 -0.034451,-0.02756 -0.089573,-0.05926 -0.053743,-0.03307 -0.1322915,-0.05926 -0.07717,-0.02756 -0.186035,-0.02756 -0.1185112,0 -0.2163519,0.04823 -0.096463,0.04685 -0.1653644,0.139182 -0.068902,0.09233 -0.1074869,0.225998 -0.037207,0.132292 -0.037207,0.303169 0,0.169498 0.035829,0.300412 0.037207,0.129535 0.1047309,0.217729 0.068902,0.08682 0.1681205,0.132292 0.099219,0.0441 0.22462,0.0441 0.1061089,0 0.184657,-0.02618 0.079926,-0.02618 0.1350477,-0.05788 0.0565,-0.03307 0.092328,-0.05926 0.035829,-0.02618 0.0565,-0.02618 0.00965,0 0.016536,0.0041 0.00689,0.0041 0.011024,0.01654 0.00413,0.01103 0.00551,0.0317 0.00276,0.02067 0.00276,0.05236 z"
         id="path916" />
      <path
         d="m 10.267508,18.216782 q 0,0.01103 -0.0055,0.02067 -0.0041,0.0083 -0.01792,0.01378 -0.01378,0.0055 -0.03721,0.0083 -0.02343,0.0041 -0.06063,0.0041 -0.04823,0 -0.07855,-0.0041 -0.03032,-0.0041 -0.04548,-0.01516 -0.01516,-0.01102 -0.024804,-0.02481 l -0.6559456,-0.89159 v 0.89159 q 0,0.0096 -0.00551,0.01929 -0.00551,0.0083 -0.019293,0.01378 -0.01378,0.0041 -0.037207,0.0069 -0.022049,0.0041 -0.056499,0.0041 -0.033073,0 -0.0565,-0.0041 -0.023427,-0.0028 -0.037207,-0.0069 -0.01378,-0.0055 -0.019292,-0.01378 -0.00551,-0.0096 -0.00551,-0.01929 v -1.711522 q 0,-0.01102 0.00551,-0.01929 0.00551,-0.0083 0.019292,-0.0124 0.01378,-0.0055 0.037207,-0.0083 0.023427,-0.0041 0.0565,-0.0041 0.034451,0 0.056499,0.0041 0.023427,0.0028 0.037207,0.0083 0.01378,0.0041 0.019293,0.0124 0.00551,0.0083 0.00551,0.01929 v 0.792372 l 0.631141,-0.792372 q 0.00827,-0.0124 0.019292,-0.02067 0.011024,-0.0083 0.026182,-0.0124 0.01654,-0.0055 0.03858,-0.0083 0.02343,-0.0028 0.05926,-0.0028 0.03583,0 0.05788,0.0041 0.02205,0.0028 0.03445,0.0083 0.01378,0.0055 0.01792,0.01378 0.0055,0.0083 0.0055,0.01791 0,0.01791 -0.0096,0.03583 -0.0083,0.01791 -0.03307,0.04961 l -0.591178,0.706934 0.636653,0.846114 q 0.02343,0.03583 0.02756,0.04961 0.0055,0.0124 0.0055,0.02067 z"
         id="path918" />
    </g>
    <g
       aria-label="OUT"
       id="text8544-7-1-4"
       style="font-size:2.82222px;line-height:1.25;font-family:Calibri;-inkscape-font-specification:Calibri;text-align:center;text-anchor:middle;fill:#ffffff;stroke-width:0.264583">
      <path
         d="m 21.604478,115.39572 q 0,0.21635 -0.05099,0.38999 -0.05099,0.17363 -0.152962,0.29628 -0.100597,0.12126 -0.253559,0.18741 -0.152962,0.0648 -0.356912,0.0648 -0.201193,0 -0.348643,-0.0593 -0.146072,-0.0606 -0.242535,-0.17501 -0.09508,-0.11438 -0.141937,-0.28388 -0.04685,-0.16949 -0.04685,-0.38998 0,-0.21084 0.05099,-0.38309 0.05099,-0.17226 0.152962,-0.29215 0.101975,-0.12127 0.254937,-0.18603 0.152962,-0.0661 0.356911,-0.0661 0.19706,0 0.343132,0.0593 0.146072,0.0593 0.242534,0.17363 0.09784,0.113 0.144694,0.28112 0.04823,0.16674 0.04823,0.38309 z m -0.249424,0.0165 q 0,-0.15158 -0.02756,-0.28112 -0.02618,-0.13091 -0.08957,-0.226 -0.06201,-0.0965 -0.166742,-0.1502 -0.104731,-0.0538 -0.259071,-0.0538 -0.15434,0 -0.259071,0.0579 -0.104731,0.0579 -0.170877,0.15434 -0.06477,0.0965 -0.09371,0.226 -0.02756,0.12816 -0.02756,0.27009 0,0.1571 0.02618,0.28939 0.02618,0.13229 0.08819,0.22876 0.06201,0.0951 0.165365,0.14882 0.10473,0.0524 0.261827,0.0524 0.155718,0 0.261827,-0.0579 0.106109,-0.0579 0.170876,-0.15572 0.06477,-0.0992 0.09233,-0.22875 0.02756,-0.12954 0.02756,-0.27423 z"
         id="path903" />
      <path
         d="m 23.320135,115.64928 q 0,0.16261 -0.04823,0.29077 -0.04685,0.12678 -0.135047,0.21497 -0.0882,0.0882 -0.214974,0.13367 -0.12678,0.0455 -0.28801,0.0455 -0.14745,0 -0.268717,-0.0427 -0.121267,-0.0427 -0.208084,-0.1254 -0.08682,-0.0841 -0.133669,-0.20947 -0.04685,-0.1254 -0.04685,-0.28938 v -1.10657 q 0,-0.011 0.0055,-0.0193 0.0055,-0.008 0.01929,-0.0124 0.01378,-0.006 0.03583,-0.008 0.02205,-0.004 0.05788,-0.004 0.03307,0 0.0565,0.004 0.02343,0.003 0.03583,0.008 0.01378,0.004 0.01929,0.0124 0.0055,0.008 0.0055,0.0193 v 1.07763 q 0,0.12402 0.03032,0.21635 0.03032,0.0923 0.08682,0.15434 0.05788,0.0606 0.137804,0.0923 0.0813,0.0303 0.1819,0.0303 0.103353,0 0.183279,-0.0303 0.08131,-0.0303 0.136426,-0.091 0.0565,-0.0606 0.08544,-0.15021 0.03032,-0.0896 0.03032,-0.20946 v -1.09003 q 0,-0.011 0.0055,-0.0193 0.0055,-0.008 0.01929,-0.0124 0.01378,-0.006 0.03583,-0.008 0.02343,-0.004 0.05788,-0.004 0.03307,0 0.05512,0.004 0.02343,0.003 0.03583,0.008 0.01378,0.004 0.01929,0.0124 0.0069,0.008 0.0069,0.0193 z"
         id="path905" />
      <path
         d="m 24.907633,114.62678 q 0,0.0262 -0.0028,0.0455 -0.0028,0.0193 -0.0096,0.0317 -0.0055,0.011 -0.01516,0.0165 -0.0083,0.006 -0.01929,0.006 h -0.501605 v 1.54615 q 0,0.011 -0.0055,0.0193 -0.0055,0.008 -0.01929,0.0138 -0.01378,0.004 -0.03721,0.007 -0.02205,0.004 -0.0565,0.004 -0.03307,0 -0.0565,-0.004 -0.02343,-0.003 -0.03721,-0.007 -0.01378,-0.006 -0.01929,-0.0138 -0.0055,-0.008 -0.0055,-0.0193 V 114.726 h -0.501605 q -0.01103,0 -0.02067,-0.006 -0.0083,-0.006 -0.01378,-0.0165 -0.0055,-0.0124 -0.0096,-0.0317 -0.0028,-0.0193 -0.0028,-0.0455 0,-0.0262 0.0028,-0.0455 0.0041,-0.0207 0.0096,-0.0331 0.0055,-0.0124 0.01378,-0.0179 0.0096,-0.006 0.02067,-0.006 h 1.240233 q 0.01102,0 0.01929,0.006 0.0096,0.006 0.01516,0.0179 0.0069,0.0124 0.0096,0.0331 0.0028,0.0193 0.0028,0.0455 z"
         id="path907" />
    </g>
    <path
       d="m 5.5587737,25.935711 a 3.4891158,3.5941528 0 1 1 4.9343553,0"
       fill="none"
       stroke="#1f1f1f"
       stroke-linecap="round"
       stroke-linejoin="round"
       id="path66-2-1-6"
       style="display:inline;stroke-width:0.264583" />
    <path
       d="m 5.5587737,37.720711 a 3.4891158,3.5941528 0 1 1 4.9343553,0"
       fill="none"
       stroke="#1f1f1f"
       stroke-linecap="round"
       stroke-linejoin="round"
       id="path66-2-1-3"
       style="display:inline;stroke-width:0.264583" />
    <path
       d="m 5.5587737,49.506711 a 3.4891158,3.5941528 0 1 1 4.9343553,0"
       fill="none"
       stroke="#1f1f1f"
       stroke-linecap="round"
       stroke-linejoin="round"
       id="path66-2-1-38"
       style="display:inline;stroke-width:0.264583" />
    <path
       d="m 5.5587737,61.292711 a 3.4891158,3.5941528 0 1 1 4.9343553,0"
       fill="none"
       stroke="#1f1f1f"
       stroke-linecap="round"
       stroke-linejoin="round"
       id="path66-2-1-35"
       style="display:inline;stroke-width:0.264583" />
    <path
       d="m 5.5587737,73.078711 a 3.4891158,3.5941528 0 1 1 4.9343553,0"
       fill="none"
       stroke="#1f1f1f"
       stroke-linecap="round"
       stroke-linejoin="round"
       id="path66-2-1-61"
       style="display:inline;stroke-width:0.264583" />
    <path
       d="m 5.5587737,96.64971 a 3.4891158,3.5941528 0 1 1 4.9343553,0"
       fill="none"
       stroke="#1f1f1f"
       stroke-linecap="round"
       stroke-linejoin="round"
       id="path66-2-1-95"
       style="display:inline;stroke-width:0.264583" />
    <path
       d="m 5.5587737,84.863711 a 3.4891158,3.5941528 0 1 1 4.9343553,0"
       fill="none"
       stroke="#1f1f1f"
       stroke-linecap="round"
       stroke-linejoin="round"
       id="path66-2-1-63"
       style="display:inline;stroke-width:0.264583" />
    <path
       id="rect1321"
       style="fill:#AA0000;stroke:#00a6a9;stroke-width:0"
       d="m 16.053362,94 h 12.880999 v 10 H 16.053362 Z" />
    <g
       aria-label="OFFSET"
       id="text8544-7-1-9-0"
       style="font-size:2.82222px;line-height:1.25;font-family:Calibri;-inkscape-font-specification:Calibri;text-align:center;text-anchor:middle;stroke-width:0.264583">
      <path
         d="m 19.895712,101.39738 q 0,0.21635 -0.05099,0.38998 -0.05099,0.17364 -0.152962,0.29628 -0.100597,0.12127 -0.253559,0.18741 -0.152962,0.0648 -0.356912,0.0648 -0.201193,0 -0.348643,-0.0592 -0.146072,-0.0606 -0.242535,-0.17501 -0.09508,-0.11438 -0.141937,-0.28388 -0.04685,-0.1695 -0.04685,-0.38998 0,-0.21084 0.05099,-0.3831 0.05099,-0.17225 0.152962,-0.29214 0.101975,-0.12127 0.254937,-0.18604 0.152962,-0.0661 0.356911,-0.0661 0.19706,0 0.343132,0.0592 0.146071,0.0593 0.242534,0.17363 0.09784,0.113 0.144694,0.28112 0.04823,0.16675 0.04823,0.3831 z m -0.249424,0.0165 q 0,-0.15158 -0.02756,-0.28111 -0.02618,-0.13092 -0.08957,-0.226 -0.06201,-0.0965 -0.166742,-0.15021 -0.104731,-0.0537 -0.259071,-0.0537 -0.15434,0 -0.259071,0.0579 -0.104731,0.0579 -0.170877,0.15434 -0.06477,0.0965 -0.09371,0.22599 -0.02756,0.12816 -0.02756,0.2701 0,0.15709 0.02618,0.28939 0.02618,0.13229 0.08819,0.22875 0.06201,0.0951 0.165365,0.14883 0.10473,0.0524 0.261827,0.0524 0.155718,0 0.261827,-0.0579 0.106109,-0.0579 0.170876,-0.15572 0.06477,-0.0992 0.09233,-0.22876 0.02756,-0.12953 0.02756,-0.27423 z"
         id="path889" />
      <path
         d="m 21.207604,100.62843 q 0,0.0262 -0.0028,0.0455 -0.0028,0.0193 -0.0096,0.0317 -0.0069,0.011 -0.01654,0.0165 -0.0083,0.006 -0.01791,0.006 h -0.653189 v 0.60634 h 0.61736 q 0.0096,0 0.01791,0.006 0.0096,0.004 0.01654,0.0152 0.0069,0.011 0.0096,0.0303 0.0028,0.0179 0.0028,0.0469 0,0.0262 -0.0028,0.0455 -0.0028,0.0179 -0.0096,0.0303 -0.0069,0.011 -0.01654,0.0179 -0.0083,0.006 -0.01791,0.006 h -0.61736 v 0.74276 q 0,0.01 -0.0055,0.0193 -0.0055,0.008 -0.01929,0.0138 -0.01378,0.004 -0.03583,0.007 -0.02205,0.004 -0.05788,0.004 -0.03307,0 -0.0565,-0.004 -0.02343,-0.003 -0.03721,-0.007 -0.01378,-0.006 -0.01929,-0.0138 -0.0055,-0.01 -0.0055,-0.0193 v -1.65089 q 0,-0.0537 0.02756,-0.0744 0.02894,-0.022 0.06063,-0.022 h 0.802017 q 0.0096,0 0.01791,0.006 0.0096,0.006 0.01654,0.0179 0.0069,0.0124 0.0096,0.0331 0.0028,0.0193 0.0028,0.0455 z"
         id="path891" />
      <path
         d="m 22.504337,100.62843 q 0,0.0262 -0.0028,0.0455 -0.0028,0.0193 -0.0096,0.0317 -0.0069,0.011 -0.01654,0.0165 -0.0083,0.006 -0.01791,0.006 h -0.653189 v 0.60634 h 0.61736 q 0.0096,0 0.01791,0.006 0.0096,0.004 0.01654,0.0152 0.0069,0.011 0.0096,0.0303 0.0028,0.0179 0.0028,0.0469 0,0.0262 -0.0028,0.0455 -0.0028,0.0179 -0.0096,0.0303 -0.0069,0.011 -0.01654,0.0179 -0.0083,0.006 -0.01791,0.006 h -0.61736 v 0.74276 q 0,0.01 -0.0055,0.0193 -0.0055,0.008 -0.01929,0.0138 -0.01378,0.004 -0.03583,0.007 -0.02205,0.004 -0.05788,0.004 -0.03307,0 -0.0565,-0.004 -0.02343,-0.003 -0.03721,-0.007 -0.01378,-0.006 -0.01929,-0.0138 -0.0055,-0.01 -0.0055,-0.0193 v -1.65089 q 0,-0.0537 0.02756,-0.0744 0.02894,-0.022 0.06063,-0.022 h 0.802017 q 0.0096,0 0.01791,0.006 0.0096,0.006 0.01654,0.0179 0.0069,0.0124 0.0096,0.0331 0.0028,0.0193 0.0028,0.0455 z"
         id="path893" />
      <path
         d="m 23.781777,101.80941 q 0,0.1254 -0.04685,0.22324 -0.04548,0.0978 -0.128158,0.16675 -0.0813,0.0675 -0.192925,0.10197 -0.110243,0.0344 -0.2384,0.0344 -0.08957,0 -0.166743,-0.0152 -0.07579,-0.0152 -0.136426,-0.0372 -0.05926,-0.0221 -0.100596,-0.0455 -0.03996,-0.0234 -0.0565,-0.04 -0.01516,-0.0165 -0.02343,-0.0413 -0.0069,-0.0262 -0.0069,-0.0689 0,-0.0303 0.0028,-0.0496 0.0028,-0.0207 0.0083,-0.0331 0.0055,-0.0124 0.01378,-0.0165 0.0083,-0.006 0.01929,-0.006 0.01929,0 0.05374,0.0234 0.03583,0.0234 0.09095,0.051 0.05512,0.0276 0.132292,0.0524 0.07855,0.0234 0.180523,0.0234 0.07717,0 0.14056,-0.0207 0.06477,-0.0207 0.110243,-0.0579 0.04685,-0.0386 0.07166,-0.0937 0.0248,-0.0551 0.0248,-0.12541 0,-0.0758 -0.03445,-0.12953 -0.03445,-0.0537 -0.09095,-0.0937 -0.0565,-0.0413 -0.129536,-0.0744 -0.07166,-0.0345 -0.14745,-0.0689 -0.07579,-0.0358 -0.14745,-0.0786 -0.07166,-0.0427 -0.128157,-0.1006 -0.0565,-0.0579 -0.09233,-0.13505 -0.03445,-0.0785 -0.03445,-0.18741 0,-0.11162 0.03996,-0.19844 0.04134,-0.0882 0.112999,-0.14745 0.07304,-0.0592 0.172254,-0.0896 0.100597,-0.0317 0.216352,-0.0317 0.05926,0 0.118511,0.011 0.06063,0.01 0.112999,0.0276 0.05374,0.0165 0.09509,0.0386 0.04134,0.0207 0.05374,0.0345 0.01378,0.0124 0.01791,0.0207 0.0041,0.007 0.0069,0.0193 0.0028,0.011 0.0041,0.0276 0.0014,0.0165 0.0014,0.0427 0,0.0248 -0.0028,0.0441 -0.0014,0.0193 -0.0055,0.0331 -0.0041,0.0124 -0.0124,0.0193 -0.0069,0.006 -0.01654,0.006 -0.01516,0 -0.04823,-0.0193 -0.0317,-0.0193 -0.07855,-0.0427 -0.04685,-0.0248 -0.111621,-0.0441 -0.06339,-0.0207 -0.143316,-0.0207 -0.07441,0 -0.129536,0.0207 -0.05512,0.0193 -0.09095,0.0524 -0.03583,0.0331 -0.05374,0.0786 -0.01791,0.0455 -0.01791,0.0965 0,0.0744 0.03445,0.12816 0.03445,0.0537 0.09095,0.0951 0.05788,0.0413 0.130914,0.0758 0.07304,0.0344 0.148828,0.0703 0.07579,0.0344 0.148828,0.0772 0.07304,0.0413 0.129535,0.0992 0.05788,0.0565 0.09233,0.13505 0.03583,0.0772 0.03583,0.18328 z"
         id="path895" />
      <path
         d="m 25.112961,102.2118 q 0,0.0248 -0.0028,0.0441 -0.0028,0.0179 -0.0096,0.0303 -0.0069,0.0124 -0.01654,0.0179 -0.0083,0.006 -0.01929,0.006 h -0.855761 q -0.03169,0 -0.06063,-0.0207 -0.02756,-0.0221 -0.02756,-0.0758 v -1.59026 q 0,-0.0537 0.02756,-0.0744 0.02894,-0.022 0.06063,-0.022 h 0.846115 q 0.01102,0 0.01929,0.006 0.0096,0.006 0.01516,0.0179 0.0055,0.0124 0.0083,0.0317 0.0041,0.0179 0.0041,0.0455 0,0.0248 -0.0041,0.0441 -0.0028,0.0179 -0.0083,0.0303 -0.0055,0.011 -0.01516,0.0165 -0.0083,0.006 -0.01929,0.006 h -0.697287 v 0.55948 h 0.598068 q 0.01103,0 0.01929,0.007 0.0096,0.006 0.01516,0.0165 0.0069,0.011 0.0096,0.0303 0.0028,0.0193 0.0028,0.0455 0,0.0248 -0.0028,0.0427 -0.0028,0.0179 -0.0096,0.0289 -0.0055,0.011 -0.01516,0.0165 -0.0083,0.004 -0.01929,0.004 h -0.598068 v 0.63803 h 0.706933 q 0.01103,0 0.01929,0.006 0.0096,0.006 0.01654,0.0179 0.0069,0.011 0.0096,0.0303 0.0028,0.0179 0.0028,0.0455 z"
         id="path897" />
      <path
         d="m 26.6164,100.62843 q 0,0.0262 -0.0028,0.0455 -0.0028,0.0193 -0.0096,0.0317 -0.0055,0.011 -0.01516,0.0165 -0.0083,0.006 -0.01929,0.006 h -0.501605 v 1.54616 q 0,0.011 -0.0055,0.0193 -0.0055,0.008 -0.01929,0.0138 -0.01378,0.004 -0.03721,0.007 -0.02205,0.004 -0.0565,0.004 -0.03307,0 -0.0565,-0.004 -0.02343,-0.003 -0.03721,-0.007 -0.01378,-0.006 -0.01929,-0.0138 -0.0055,-0.008 -0.0055,-0.0193 v -1.54616 h -0.501605 q -0.01102,0 -0.02067,-0.006 -0.0083,-0.006 -0.01378,-0.0165 -0.0055,-0.0124 -0.0096,-0.0317 -0.0028,-0.0193 -0.0028,-0.0455 0,-0.0262 0.0028,-0.0455 0.0041,-0.0207 0.0096,-0.0331 0.0055,-0.0124 0.01378,-0.0179 0.0096,-0.006 0.02067,-0.006 h 1.240233 q 0.01103,0 0.01929,0.006 0.0096,0.006 0.01516,0.0179 0.0069,0.0124 0.0096,0.0331 0.0028,0.0193 0.0028,0.0455 z"
         id="path899" />
    </g>
    <g
       aria-label="WEIGHT"
       id="text8544-7-1-9-0-7"
       style="font-size:2.82222px;line-height:1.25;font-family:Calibri;-inkscape-font-specification:Calibri;text-align:center;text-anchor:middle;stroke-width:0.264583"
       inkscape:label="text8544-7-1-9-0-7">
      <path
         d="m 5.1816831,102.25562 q -0.00551,0.0193 -0.016536,0.0317 -0.011024,0.011 -0.030317,0.0179 -0.019292,0.006 -0.048231,0.008 -0.027561,0.003 -0.068902,0.003 -0.042719,0 -0.073036,-0.003 -0.028939,-0.003 -0.048231,-0.008 -0.019293,-0.007 -0.028939,-0.0179 -0.00965,-0.0124 -0.015158,-0.0317 l -0.3734481,-1.34634 h -0.00276 l -0.3445093,1.34634 q -0.00413,0.0193 -0.01378,0.0317 -0.00965,0.011 -0.027561,0.0179 -0.017914,0.006 -0.046853,0.008 -0.027561,0.003 -0.071658,0.003 -0.045475,0 -0.075792,-0.003 -0.030317,-0.003 -0.049609,-0.008 -0.019292,-0.007 -0.030317,-0.0179 -0.00965,-0.0124 -0.01378,-0.0317 l -0.4712887,-1.64676 q -0.00827,-0.0317 -0.00965,-0.0496 0,-0.0179 0.011024,-0.0276 0.012402,-0.01 0.038585,-0.0124 0.026183,-0.003 0.07028,-0.003 0.042719,0 0.067524,0.003 0.024805,0.001 0.037207,0.007 0.01378,0.006 0.017915,0.0152 0.00551,0.01 0.00827,0.0248 l 0.4010088,1.4938 h 0.00138 l 0.3803383,-1.49104 q 0.00413,-0.0152 0.00965,-0.0248 0.00689,-0.011 0.020671,-0.0165 0.01378,-0.006 0.038585,-0.008 0.026183,-0.003 0.067524,-0.003 0.038585,0 0.060634,0.003 0.023427,0.003 0.037207,0.008 0.01378,0.006 0.019292,0.0165 0.00689,0.01 0.011024,0.0248 l 0.409277,1.49104 h 0.00276 l 0.3927406,-1.49242 q 0.00413,-0.0138 0.00827,-0.0234 0.00413,-0.011 0.016536,-0.0165 0.01378,-0.006 0.037207,-0.008 0.024805,-0.003 0.064768,-0.003 0.041341,0 0.064768,0.004 0.024805,0.003 0.035829,0.0124 0.011024,0.01 0.00965,0.0276 0,0.0179 -0.00689,0.0496 z"
         id="path876" />
      <path
         d="m 6.9772655,102.21014 q 0,0.0248 -0.00276,0.0441 -0.00276,0.0179 -0.00965,0.0303 -0.00689,0.0124 -0.016536,0.0179 -0.00827,0.006 -0.019293,0.006 h -0.855761 q -0.031695,0 -0.060634,-0.0207 -0.027561,-0.0221 -0.027561,-0.0758 v -1.59025 q 0,-0.0537 0.027561,-0.0744 0.028939,-0.0221 0.060634,-0.0221 H 6.919388 q 0.011024,0 0.019293,0.006 0.00965,0.006 0.015158,0.0179 0.00551,0.0124 0.00827,0.0317 0.00413,0.0179 0.00413,0.0455 0,0.0248 -0.00413,0.0441 -0.00276,0.0179 -0.00827,0.0303 -0.00551,0.011 -0.015158,0.0165 -0.00827,0.006 -0.019293,0.006 H 6.2221012 v 0.55949 h 0.5980681 q 0.011024,0 0.019292,0.007 0.00965,0.006 0.015158,0.0165 0.00689,0.011 0.00965,0.0303 0.00276,0.0193 0.00276,0.0455 0,0.0248 -0.00276,0.0427 -0.00276,0.0179 -0.00965,0.0289 -0.00551,0.011 -0.015158,0.0165 -0.00827,0.004 -0.019292,0.004 H 6.2221012 v 0.63803 h 0.706933 q 0.011024,0 0.019293,0.006 0.00965,0.006 0.016536,0.0179 0.00689,0.011 0.00965,0.0303 0.00276,0.0179 0.00276,0.0455 z"
         id="path878" />
      <path
         d="m 7.6001382,102.27215 q 0,0.011 -0.00551,0.0193 -0.00551,0.008 -0.019292,0.0138 -0.01378,0.004 -0.037207,0.007 -0.022049,0.004 -0.0565,0.004 -0.033073,0 -0.0565,-0.004 -0.023427,-0.003 -0.037207,-0.007 -0.01378,-0.006 -0.019292,-0.0138 -0.00551,-0.008 -0.00551,-0.0193 v -1.71152 q 0,-0.011 0.00551,-0.0193 0.00689,-0.008 0.020671,-0.0124 0.015158,-0.006 0.037207,-0.008 0.023427,-0.004 0.055121,-0.004 0.034451,0 0.0565,0.004 0.023427,0.003 0.037207,0.008 0.01378,0.004 0.019292,0.0124 0.00551,0.008 0.00551,0.0193 z"
         id="path880" />
      <path
         d="m 9.4136351,100.76734 q 0,0.0262 -0.00276,0.0468 -0.00276,0.0193 -0.00827,0.0331 -0.00551,0.0124 -0.01378,0.0179 -0.00827,0.006 -0.017914,0.006 -0.016536,0 -0.055122,-0.0262 -0.038585,-0.0262 -0.1033527,-0.0579 -0.064768,-0.0317 -0.1557182,-0.0579 -0.089573,-0.0262 -0.2135958,-0.0262 -0.14745,0 -0.2645831,0.0537 -0.1171332,0.0537 -0.1984374,0.14883 -0.081304,0.0951 -0.1254014,0.226 -0.042719,0.13091 -0.042719,0.28388 0,0.17087 0.046853,0.30316 0.048231,0.1323 0.1322916,0.22325 0.08406,0.091 0.1998154,0.1378 0.1171332,0.0469 0.2563149,0.0469 0.082682,0 0.1667425,-0.0193 0.085438,-0.0207 0.1584743,-0.0606 v -0.51952 H 8.7590674 q -0.023427,0 -0.035829,-0.0234 -0.011024,-0.0234 -0.011024,-0.073 0,-0.0262 0.00276,-0.0441 0.00276,-0.0193 0.00827,-0.0303 0.00689,-0.0124 0.015158,-0.0179 0.00827,-0.006 0.02067,-0.006 h 0.5663733 q 0.015158,0 0.030317,0.006 0.015158,0.006 0.027561,0.0165 0.012402,0.011 0.019293,0.0303 0.00689,0.0193 0.00689,0.0441 v 0.67937 q 0,0.0358 -0.012402,0.062 -0.012402,0.0262 -0.052365,0.0468 -0.039963,0.0193 -0.1033528,0.0427 -0.06339,0.0234 -0.1309135,0.04 -0.067524,0.0165 -0.1364257,0.0248 -0.068902,0.008 -0.1364257,0.008 -0.2067055,0 -0.3693139,-0.0634 -0.1626084,-0.0648 -0.2756074,-0.18328 -0.1116211,-0.11851 -0.1708766,-0.28388 -0.059256,-0.16536 -0.059256,-0.36931 0,-0.21222 0.06339,-0.38447 0.064768,-0.17226 0.1805228,-0.29352 0.1171332,-0.12127 0.2797416,-0.18742 0.1639864,-0.0675 0.3624237,-0.0675 0.1019748,0 0.1915472,0.0179 0.089572,0.0179 0.1584743,0.0427 0.07028,0.0234 0.1171331,0.0524 0.048231,0.0276 0.066146,0.0455 0.017914,0.0179 0.024805,0.0413 0.00689,0.0234 0.00689,0.0675 z"
         id="path882" />
      <path
         d="m 11.138938,102.27215 q 0,0.011 -0.0055,0.0193 -0.0055,0.008 -0.01929,0.0138 -0.01378,0.004 -0.03721,0.007 -0.02205,0.004 -0.05512,0.004 -0.03583,0 -0.05788,-0.004 -0.02205,-0.003 -0.03583,-0.007 -0.01378,-0.006 -0.01929,-0.0138 -0.0055,-0.008 -0.0055,-0.0193 v -0.79099 h -0.811664 v 0.79099 q 0,0.011 -0.0055,0.0193 -0.0055,0.008 -0.01929,0.0138 -0.01378,0.004 -0.03721,0.007 -0.02205,0.004 -0.0565,0.004 -0.033073,0 -0.056499,-0.004 -0.023427,-0.003 -0.037207,-0.007 -0.01378,-0.006 -0.019293,-0.0138 -0.00551,-0.008 -0.00551,-0.0193 v -1.71152 q 0,-0.011 0.00551,-0.0193 0.00551,-0.008 0.019293,-0.0124 0.01378,-0.006 0.037207,-0.008 0.023427,-0.004 0.056499,-0.004 0.034451,0 0.0565,0.004 0.02343,0.003 0.03721,0.008 0.01378,0.004 0.01929,0.0124 0.0055,0.008 0.0055,0.0193 v 0.71383 h 0.811664 v -0.71383 q 0,-0.011 0.0055,-0.0193 0.0055,-0.008 0.01929,-0.0124 0.01378,-0.006 0.03583,-0.008 0.02205,-0.004 0.05788,-0.004 0.03307,0 0.05512,0.004 0.02343,0.003 0.03721,0.008 0.01378,0.004 0.01929,0.0124 0.0055,0.008 0.0055,0.0193 z"
         id="path884" />
      <path
         d="m 12.73057,100.62678 q 0,0.0262 -0.0028,0.0455 -0.0028,0.0193 -0.0096,0.0317 -0.0055,0.011 -0.01516,0.0165 -0.0083,0.006 -0.01929,0.006 h -0.501605 v 1.54615 q 0,0.011 -0.0055,0.0193 -0.0055,0.008 -0.01929,0.0138 -0.01378,0.004 -0.03721,0.007 -0.02205,0.004 -0.0565,0.004 -0.03307,0 -0.0565,-0.004 -0.02343,-0.003 -0.03721,-0.007 -0.01378,-0.006 -0.01929,-0.0138 -0.0055,-0.008 -0.0055,-0.0193 V 100.726 h -0.501605 q -0.01103,0 -0.02067,-0.006 -0.0083,-0.006 -0.01378,-0.0165 -0.0055,-0.0124 -0.0096,-0.0317 -0.0028,-0.0193 -0.0028,-0.0455 0,-0.0262 0.0028,-0.0455 0.0041,-0.0207 0.0096,-0.0331 0.0055,-0.0124 0.01378,-0.0179 0.0096,-0.006 0.02067,-0.006 h 1.240233 q 0.01102,0 0.01929,0.006 0.0096,0.006 0.01516,0.0179 0.0069,0.0124 0.0096,0.0331 0.0028,0.0193 0.0028,0.0455 z"
         id="path886" />
    </g>
    <path
       d="m 19.991684,14.149711 a 3.4891158,3.5941528 0 1 1 4.934355,0"
       fill="none"
       stroke="#1f1f1f"
       stroke-linecap="round"
       stroke-linejoin="round"
       id="path66-2-1-0"
       style="display:inline;stroke-width:0.264583" />
    <path
       d="m 19.991684,25.935711 a 3.4891158,3.5941528 0 1 1 4.934355,0"
       fill="none"
       stroke="#1f1f1f"
       stroke-linecap="round"
       stroke-linejoin="round"
       id="path66-2-1-6-3"
       style="display:inline;stroke-width:0.264583" />
    <path
       d="m 19.991684,37.720711 a 3.4891158,3.5941528 0 1 1 4.934355,0"
       fill="none"
       stroke="#1f1f1f"
       stroke-linecap="round"
       stroke-linejoin="round"
       id="path66-2-1-3-2"
       style="display:inline;stroke-width:0.264583" />
    <path
       d="m 19.991684,49.506711 a 3.4891158,3.5941528 0 1 1 4.934355,0"
       fill="none"
       stroke="#1f1f1f"
       stroke-linecap="round"
       stroke-linejoin="round"
       id="path66-2-1-38-1"
       style="display:inline;stroke-width:0.264583" />
    <path
       d="m 19.991684,61.292711 a 3.4891158,3.5941528 0 1 1 4.934355,0"
       fill="none"
       stroke="#1f1f1f"
       stroke-linecap="round"
       stroke-linejoin="round"
       id="path66-2-1-35-9"
       style="display:inline;stroke-width:0.264583" />
    <path
       d="m 19.991684,73.078711 a 3.4891158,3.5941528 0 1 1 4.934355,0"
       fill="none"
       stroke="#1f1f1f"
       stroke-linecap="round"
       stroke-linejoin="round"
       id="path66-2-1-61-3"
       style="display:inline;stroke-width:0.264583" />
    <path
       d="m 19.991684,96.64971 a 3.4891158,3.5941528 0 1 1 4.934355,0"
       fill="none"
       stroke="#1f1f1f"
       stroke-linecap="round"
       stroke-linejoin="round"
       id="path66-2-1-95-7"
       style="display:inline;stroke-width:0.264583" />
    <path
       d="m 19.991684,84.863711 a 3.4891158,3.5941528 0 1 1 4.934355,0"
       fill="none"
       stroke="#1f1f1f"
       stroke-linecap="round"
       stroke-linejoin="round"
       id="path66-2-1-63-0"
       style="display:inline;stroke-width:0.264583" />
    <g
       aria-label="MODE"
       id="text8544-7-1-1-0"
       style="font-size:2.82222px;line-height:1.25;font-family:Calibri;-inkscape-font-specification:Calibri;text-align:center;text-anchor:middle;stroke-width:0.264583">
      <path
         d="m 20.903058,18.219536 q 0,0.01103 -0.0055,0.01929 -0.0055,0.0083 -0.01929,0.01378 -0.01378,0.0041 -0.03583,0.0069 -0.02067,0.0041 -0.05512,0.0041 -0.0317,0 -0.05512,-0.0041 -0.02205,-0.0028 -0.03583,-0.0069 -0.0124,-0.0055 -0.01791,-0.01378 -0.0055,-0.0083 -0.0055,-0.01929 v -1.553047 h -0.0028 l -0.635275,1.559938 q -0.0041,0.0096 -0.0124,0.01654 -0.0069,0.0069 -0.02205,0.0124 -0.01378,0.0041 -0.03445,0.0055 -0.01929,0.0028 -0.04685,0.0028 -0.02894,0 -0.04961,-0.0028 -0.02067,-0.0028 -0.03445,-0.0069 -0.01378,-0.0055 -0.02205,-0.0124 -0.0069,-0.0069 -0.0096,-0.01516 L 19.19567,16.666489 h -0.0014 v 1.553047 q 0,0.01103 -0.0055,0.01929 -0.0055,0.0083 -0.01929,0.01378 -0.01378,0.0041 -0.03583,0.0069 -0.02205,0.0041 -0.0565,0.0041 -0.03307,0 -0.05512,-0.0041 -0.02205,-0.0028 -0.03583,-0.0069 -0.0124,-0.0055 -0.01791,-0.01378 -0.0041,-0.0083 -0.0041,-0.01929 v -1.639864 q 0,-0.05788 0.03032,-0.08268 0.03032,-0.02481 0.06752,-0.02481 h 0.143316 q 0.0441,0 0.07717,0.0083 0.03307,0.0083 0.05788,0.02618 0.02481,0.01791 0.04134,0.04547 0.01654,0.02756 0.02894,0.06477 l 0.516764,1.291221 h 0.0069 l 0.537435,-1.287087 q 0.01516,-0.04134 0.03307,-0.07028 0.01791,-0.02894 0.03859,-0.04547 0.02205,-0.01791 0.04823,-0.0248 0.02618,-0.0083 0.06063,-0.0083 h 0.150206 q 0.02067,0 0.03859,0.0069 0.01929,0.0055 0.03169,0.01929 0.01378,0.0124 0.02205,0.03307 0.0083,0.01929 0.0083,0.04823 z"
         id="path867" />
      <path
         d="m 22.870895,17.343105 q 0,0.216352 -0.05099,0.389984 -0.05099,0.173633 -0.152962,0.296278 -0.100597,0.121268 -0.253559,0.187413 -0.152962,0.06477 -0.356912,0.06477 -0.201193,0 -0.348643,-0.05926 -0.146072,-0.06063 -0.242534,-0.17501 -0.09509,-0.114377 -0.141938,-0.283876 -0.04685,-0.169498 -0.04685,-0.389984 0,-0.21084 0.05099,-0.383095 0.05099,-0.172254 0.152962,-0.292144 0.101975,-0.121267 0.254937,-0.186035 0.152962,-0.06614 0.356911,-0.06614 0.19706,0 0.343132,0.05926 0.146072,0.05926 0.242534,0.173633 0.09784,0.112999 0.144694,0.281119 0.04823,0.166743 0.04823,0.383095 z m -0.249424,0.01654 q 0,-0.151584 -0.02756,-0.281119 -0.02618,-0.130914 -0.08957,-0.225998 -0.06201,-0.09646 -0.166743,-0.150206 -0.104731,-0.05374 -0.259071,-0.05374 -0.15434,0 -0.259071,0.05788 -0.104731,0.05788 -0.170877,0.15434 -0.06477,0.09646 -0.09371,0.225998 -0.02756,0.128157 -0.02756,0.270095 0,0.157096 0.02618,0.289388 0.02618,0.132292 0.08819,0.228754 0.06201,0.09509 0.165365,0.148828 0.104731,0.05237 0.261827,0.05237 0.155718,0 0.261827,-0.05788 0.106109,-0.05788 0.170876,-0.155718 0.06477,-0.09922 0.09233,-0.228754 0.02756,-0.129536 0.02756,-0.27423 z"
         id="path869" />
      <path
         d="m 24.616868,17.337593 q 0,0.23151 -0.05926,0.405143 -0.05926,0.172254 -0.173633,0.286631 -0.112999,0.112999 -0.278363,0.169499 -0.165365,0.0565 -0.394119,0.0565 h -0.377582 q -0.03169,0 -0.06063,-0.02067 -0.02756,-0.02205 -0.02756,-0.07579 v -1.590255 q 0,-0.05374 0.02756,-0.07441 0.02894,-0.02205 0.06063,-0.02205 h 0.403765 q 0.23151,0 0.391362,0.06063 0.159853,0.05926 0.267339,0.172255 0.108865,0.111621 0.163987,0.271473 0.0565,0.159852 0.0565,0.361046 z m -0.249424,0.0096 q 0,-0.144694 -0.03583,-0.268717 -0.03583,-0.125402 -0.112999,-0.216352 -0.07579,-0.09095 -0.192926,-0.141938 -0.117133,-0.05099 -0.30179,-0.05099 h -0.241156 v 1.387683 h 0.243912 q 0.170877,0 0.28801,-0.04272 0.117133,-0.04272 0.195681,-0.130914 0.07855,-0.08819 0.117134,-0.220486 0.03996,-0.133669 0.03996,-0.31557 z"
         id="path871" />
      <path
         d="m 25.974235,18.157525 q 0,0.0248 -0.0028,0.0441 -0.0028,0.01791 -0.0096,0.03032 -0.0069,0.0124 -0.01654,0.01791 -0.0083,0.0055 -0.01929,0.0055 h -0.855762 q -0.03169,0 -0.06063,-0.02067 -0.02756,-0.02205 -0.02756,-0.07579 v -1.590255 q 0,-0.05374 0.02756,-0.07441 0.02894,-0.02205 0.06063,-0.02205 h 0.846115 q 0.01103,0 0.01929,0.0055 0.0096,0.0055 0.01516,0.01792 0.0055,0.0124 0.0083,0.03169 0.0041,0.01791 0.0041,0.04547 0,0.02481 -0.0041,0.0441 -0.0028,0.01791 -0.0083,0.03032 -0.0055,0.01102 -0.01516,0.01654 -0.0083,0.0055 -0.01929,0.0055 H 25.21907 v 0.559483 h 0.598069 q 0.01102,0 0.01929,0.0069 0.0096,0.0055 0.01516,0.01654 0.0069,0.01103 0.0096,0.03032 0.0028,0.01929 0.0028,0.04547 0,0.02481 -0.0028,0.04272 -0.0028,0.01791 -0.0096,0.02894 -0.0055,0.01103 -0.01516,0.01654 -0.0083,0.0041 -0.01929,0.0041 H 25.21907 v 0.638031 h 0.706934 q 0.01102,0 0.01929,0.0055 0.0096,0.0055 0.01654,0.01791 0.0069,0.01102 0.0096,0.03032 0.0028,0.01791 0.0028,0.04547 z"
         id="path873" />
    </g>
  </g>
</svg>
