<?xml version="1.0" encoding="UTF-8" standalone="no"?>
<!-- Created with Inkscape (http://www.inkscape.org/) -->

<svg
   width="15.24mm"
   height="128.5mm"
   viewBox="0 0 15.24 128.5"
   version="1.1"
   id="svg5"
   inkscape:version="1.1.2 (b8e25be833, 2022-02-05)"
   sodipodi:docname="SampleAndHold.svg"
   xmlns:inkscape="http://www.inkscape.org/namespaces/inkscape"
   xmlns:sodipodi="http://sodipodi.sourceforge.net/DTD/sodipodi-0.dtd"
   xmlns="http://www.w3.org/2000/svg"
   xmlns:svg="http://www.w3.org/2000/svg">
  <sodipodi:namedview
     id="namedview7"
     pagecolor="#ffffff"
     bordercolor="#666666"
     borderopacity="1.0"
     inkscape:pageshadow="2"
     inkscape:pageopacity="0.0"
     inkscape:pagecheckerboard="0"
     inkscape:document-units="mm"
     showgrid="false"
     height="128.5mm"
     inkscape:zoom="3.48"
     inkscape:cx="8.4770115"
     inkscape:cy="247.27011"
     inkscape:window-width="3840"
     inkscape:window-height="2054"
     inkscape:window-x="-11"
     inkscape:window-y="-11"
     inkscape:window-maximized="0"
     inkscape:current-layer="layer1" />
  <defs
     id="defs2" />
  <g
     inkscape:label="Layer 1"
     inkscape:groupmode="layer"
     id="layer1">
    <path
       id="rect4302"
       style="fill:#520000;stroke-width:0.184931"
       d="M 0.1422134,1.6577559e-8 H 15.386392 V 128.50433 H 0.1422134 Z" />
    <g
       aria-label="2 LIFT"
       id="text8544-7-0-8-5-9"
       style="font-size:2.46944px;line-height:1.25;font-family:Calibri;-inkscape-font-specification:Calibri;text-align:center;text-anchor:middle;fill:#ffffff;stroke-width:0.264583">
      <path
         d="m 2.7471949,125.36831 q 0,0.0145 -0.00362,0.0277 -0.00241,0.0121 -0.00844,0.0217 -0.00482,0.008 -0.013264,0.0133 -0.00844,0.005 -0.019293,0.005 H 1.8597399 q -0.010852,0 -0.020498,-0.004 -0.00965,-0.004 -0.016881,-0.0109 -0.00723,-0.008 -0.010852,-0.0217 -0.00362,-0.0133 -0.00362,-0.0314 0,-0.0157 0.00121,-0.0277 0.00121,-0.0121 0.00482,-0.0217 0.00362,-0.01 0.00965,-0.0193 0.00603,-0.01 0.015675,-0.0205 l 0.3195321,-0.33762 q 0.1193723,-0.1254 0.1893076,-0.22428 0.071141,-0.0989 0.1085203,-0.17845 0.037379,-0.0796 0.048231,-0.1447 0.012058,-0.0651 0.012058,-0.12299 0,-0.0579 -0.019292,-0.10972 -0.018087,-0.0531 -0.05426,-0.0916 -0.036173,-0.0398 -0.090434,-0.0627 -0.053054,-0.0241 -0.1229896,-0.0241 -0.075964,0 -0.1362533,0.0217 -0.060289,0.0205 -0.1061088,0.047 -0.044614,0.0253 -0.074758,0.047 -0.030145,0.0205 -0.044614,0.0205 -0.00723,0 -0.013264,-0.004 -0.00603,-0.004 -0.010852,-0.0109 -0.00362,-0.008 -0.00603,-0.0205 -0.00121,-0.0121 -0.00121,-0.0277 0,-0.0145 0.00121,-0.0241 0.00121,-0.01 0.00362,-0.0169 0.00241,-0.008 0.00603,-0.0157 0.00482,-0.007 0.018087,-0.0193 0.014469,-0.0121 0.047026,-0.0326 0.033762,-0.0205 0.084405,-0.041 0.050643,-0.0217 0.1121376,-0.0362 0.061495,-0.0157 0.1278128,-0.0157 0.1097261,0 0.1905135,0.0326 0.081993,0.0326 0.1362533,0.088 0.05426,0.0555 0.080787,0.12901 0.026527,0.0724 0.026527,0.15314 0,0.0748 -0.013264,0.14952 -0.012058,0.0736 -0.05426,0.16157 -0.040997,0.0868 -0.1205781,0.19293 -0.078376,0.1061 -0.2098059,0.24477 l -0.2845644,0.29783 H 2.702581 q 0.00965,0 0.018087,0.005 0.00844,0.004 0.014469,0.0121 0.00603,0.008 0.00844,0.0205 0.00362,0.0121 0.00362,0.0265 z"
         style="font-weight:300;-inkscape-font-specification:'Calibri Light'"
         id="path953" />
      <path
         d="m 4.4738736,125.36831 q 0,0.0169 -0.00241,0.0289 -0.00241,0.0121 -0.00723,0.0217 -0.00482,0.008 -0.012058,0.0133 -0.00723,0.004 -0.016881,0.004 H 3.7588454 q -0.021704,0 -0.044614,-0.0157 -0.02291,-0.0169 -0.02291,-0.0603 v -1.4602 q 0,-0.007 0.00362,-0.0133 0.00362,-0.006 0.012058,-0.01 0.00844,-0.004 0.02291,-0.006 0.014469,-0.002 0.034968,-0.002 0.021704,0 0.034968,0.002 0.014469,0.002 0.02291,0.006 0.00844,0.004 0.012058,0.01 0.00362,0.006 0.00362,0.0133 v 1.40233 h 0.5968617 q 0.00965,0 0.016881,0.005 0.00723,0.004 0.012058,0.0121 0.00482,0.007 0.00723,0.0205 0.00241,0.0121 0.00241,0.0289 z"
         style="font-weight:300;-inkscape-font-specification:'Calibri Light'"
         id="path955" />
      <path
         d="m 4.8729874,125.41172 q 0,0.007 -0.00362,0.0133 -0.00362,0.006 -0.012058,0.01 -0.00844,0.004 -0.02291,0.006 -0.013264,0.002 -0.034968,0.002 -0.020498,0 -0.034968,-0.002 -0.014469,-0.002 -0.02291,-0.006 -0.00844,-0.004 -0.012058,-0.01 -0.00362,-0.006 -0.00362,-0.0133 v -1.51205 q 0,-0.007 0.00362,-0.0133 0.00482,-0.006 0.013264,-0.01 0.00965,-0.004 0.02291,-0.006 0.014469,-0.002 0.033762,-0.002 0.021704,0 0.034968,0.002 0.014469,0.002 0.02291,0.006 0.00844,0.004 0.012058,0.01 0.00362,0.006 0.00362,0.0133 z"
         style="font-weight:300;-inkscape-font-specification:'Calibri Light'"
         id="path957" />
      <path
         d="m 6.1185593,123.94308 q 0,0.0157 -0.00241,0.0277 -0.00241,0.0121 -0.00844,0.0205 -0.00482,0.007 -0.012058,0.0121 -0.00723,0.004 -0.015675,0.004 H 5.4758779 v 0.59083 H 6.048624 q 0.00844,0 0.015675,0.004 0.00723,0.002 0.012058,0.01 0.00603,0.007 0.00844,0.0193 0.00241,0.0121 0.00241,0.0302 0,0.0157 -0.00241,0.0277 -0.00241,0.0121 -0.00844,0.0205 -0.00482,0.007 -0.012058,0.0121 -0.00723,0.004 -0.015675,0.004 H 5.4758779 v 0.68729 q 0,0.007 -0.00362,0.0133 -0.00362,0.006 -0.012058,0.01 -0.00844,0.004 -0.02291,0.006 -0.013264,0.002 -0.034968,0.002 -0.020498,0 -0.034968,-0.002 -0.014469,-0.002 -0.02291,-0.006 -0.00844,-0.004 -0.012058,-0.01 -0.00362,-0.006 -0.00362,-0.0133 v -1.4602 q 0,-0.0434 0.02291,-0.0591 0.02291,-0.0169 0.044614,-0.0169 h 0.683678 q 0.00844,0 0.015675,0.005 0.00723,0.004 0.012058,0.0121 0.00603,0.008 0.00844,0.0217 0.00241,0.0121 0.00241,0.0289 z"
         style="font-weight:300;-inkscape-font-specification:'Calibri Light'"
         id="path959" />
      <path
         d="m 7.4099512,123.94308 q 0,0.0157 -0.00241,0.0277 -0.00241,0.0121 -0.00723,0.0205 -0.00482,0.007 -0.012058,0.0121 -0.00723,0.004 -0.015675,0.004 H 6.9071404 v 1.40473 q 0,0.007 -0.00362,0.0133 -0.00362,0.006 -0.012058,0.01 -0.00844,0.004 -0.02291,0.006 -0.014469,0.002 -0.034968,0.002 -0.020498,0 -0.034968,-0.002 -0.014469,-0.002 -0.02291,-0.006 -0.00844,-0.004 -0.012058,-0.01 -0.00362,-0.006 -0.00362,-0.0133 v -1.40473 H 6.2946035 q -0.00965,0 -0.016881,-0.004 -0.00603,-0.005 -0.010852,-0.0121 -0.00482,-0.008 -0.00723,-0.0205 -0.00241,-0.0121 -0.00241,-0.0277 0,-0.0169 0.00241,-0.0289 0.00241,-0.0133 0.00723,-0.0217 0.00482,-0.008 0.010852,-0.0121 0.00723,-0.005 0.016881,-0.005 H 7.372572 q 0.00844,0 0.015675,0.005 0.00723,0.004 0.012058,0.0121 0.00482,0.008 0.00723,0.0217 0.00241,0.0121 0.00241,0.0289 z"
         style="font-weight:300;-inkscape-font-specification:'Calibri Light'"
         id="path961" />
    </g>
    <g
       aria-label="SANDH"
       id="text8544-7-0-8-5"
       style="font-size:4.23333px;line-height:1.25;font-family:Calibri;-inkscape-font-specification:Calibri;text-align:center;letter-spacing:0px;text-anchor:middle;fill:#ffffff;stroke-width:0.264583">
      <path
         d="m 3.3953901,121.98644 q 0,0.17776 -0.064079,0.31832 -0.064079,0.14056 -0.1798338,0.23978 -0.1157551,0.0971 -0.2749184,0.14883 -0.1591633,0.0517 -0.3472654,0.0517 -0.1281574,0 -0.2418455,-0.0248 -0.113688,-0.0227 -0.2025714,-0.0558 -0.088883,-0.0331 -0.1508951,-0.0661 -0.059945,-0.0351 -0.082682,-0.0579 -0.022738,-0.0248 -0.033073,-0.0558 -0.010335,-0.0331 -0.010335,-0.0806 0,-0.0351 0.00413,-0.0579 0.00413,-0.0227 0.010335,-0.0372 0.00827,-0.0145 0.018603,-0.0186 0.012402,-0.006 0.024805,-0.006 0.028939,0 0.080615,0.0372 0.053743,0.0351 0.1364256,0.0786 0.084749,0.0413 0.2005044,0.0785 0.1178222,0.0351 0.2728514,0.0351 0.1260904,0 0.2315102,-0.0331 0.1054198,-0.0351 0.1819009,-0.0992 0.076481,-0.0641 0.1178221,-0.1571 0.043408,-0.0951 0.043408,-0.21497 0,-0.12403 -0.053743,-0.21291 -0.053743,-0.0889 -0.1426269,-0.15503 -0.086816,-0.0682 -0.1984373,-0.12196 -0.111621,-0.0558 -0.2294432,-0.10955 -0.1157551,-0.0558 -0.2273761,-0.11989 -0.111621,-0.0641 -0.2005044,-0.14883 -0.086816,-0.0868 -0.1405597,-0.20257 -0.053743,-0.11575 -0.053743,-0.27492 0,-0.15503 0.05581,-0.27698 0.05581,-0.12403 0.1570962,-0.20878 0.1012858,-0.0868 0.2418455,-0.13229 Q 2.4817516,120 2.6512501,120 q 0.084749,0 0.1715656,0.0165 0.086816,0.0165 0.1632974,0.0434 0.078548,0.0248 0.1384927,0.0579 0.062012,0.031 0.080615,0.0517 0.020671,0.0186 0.024805,0.0289 0.0062,0.008 0.010335,0.0227 0.00413,0.0145 0.0062,0.0351 0.00207,0.0186 0.00207,0.0475 0,0.0269 -0.00413,0.0496 -0.00207,0.0207 -0.00827,0.0372 -0.0062,0.0145 -0.016536,0.0227 -0.00827,0.008 -0.020671,0.008 -0.022738,0 -0.07028,-0.0289 -0.045475,-0.031 -0.1157552,-0.0682 -0.07028,-0.0372 -0.1674315,-0.0661 -0.097152,-0.031 -0.2211749,-0.031 -0.1219563,0 -0.2129067,0.0331 -0.09095,0.0331 -0.1508951,0.0909 -0.059945,0.0558 -0.09095,0.13229 -0.028939,0.0765 -0.028939,0.16123 0,0.12402 0.053743,0.21291 0.053743,0.0889 0.1426269,0.15709 0.088883,0.0682 0.2005044,0.12403 0.113688,0.0537 0.2294431,0.10955 0.1178222,0.0537 0.2294432,0.11782 0.1136881,0.062 0.2025714,0.14883 0.088883,0.0847 0.1426269,0.2005 0.053743,0.11369 0.053743,0.27079 z"
         style="font-weight:300;-inkscape-font-specification:'Calibri Light'"
         id="path942" />
      <path
         d="m 5.8365827,122.62516 q 0.012402,0.031 0.010335,0.0517 0,0.0186 -0.014469,0.0289 -0.012402,0.0103 -0.041341,0.0124 -0.026872,0.004 -0.07028,0.004 -0.043408,0 -0.07028,-0.004 -0.024805,-0.002 -0.039274,-0.008 -0.014469,-0.006 -0.022738,-0.0165 -0.0062,-0.0103 -0.012402,-0.0248 L 5.3198188,121.95543 H 4.1457313 l -0.2459796,0.709 q -0.00413,0.0145 -0.012402,0.0248 -0.00827,0.0103 -0.022738,0.0186 -0.014469,0.006 -0.041341,0.0103 -0.024805,0.004 -0.064079,0.004 -0.043408,0 -0.072347,-0.004 -0.028939,-0.004 -0.043408,-0.0145 -0.012402,-0.0103 -0.014469,-0.0289 0,-0.0186 0.012402,-0.0496 l 0.9363762,-2.54455 q 0.0062,-0.0165 0.018604,-0.0269 0.012402,-0.0124 0.031006,-0.0186 0.020671,-0.006 0.047542,-0.008 0.028939,-0.004 0.064079,-0.004 0.037207,0 0.064079,0.004 0.028939,0.002 0.047542,0.008 0.020671,0.006 0.031006,0.0186 0.012402,0.0103 0.018603,0.0269 z m -1.1100088,-2.31924 h -0.00207 l -0.5043615,1.43867 h 1.0231925 z"
         style="font-weight:300;-inkscape-font-specification:'Calibri Light'"
         id="path944" />
      <path
         d="m 8.2426357,122.58795 q 0,0.0372 -0.012402,0.062 -0.010335,0.0248 -0.028939,0.0413 -0.016537,0.0145 -0.039274,0.0207 -0.020671,0.006 -0.039274,0.006 h -0.051676 q -0.041341,0 -0.076481,-0.0103 -0.033073,-0.0103 -0.066146,-0.0351 -0.031006,-0.0269 -0.064079,-0.0703 -0.031006,-0.0434 -0.07028,-0.11162 l -0.9425773,-1.67018 q -0.07028,-0.12196 -0.1426268,-0.25011 -0.07028,-0.13023 -0.1343586,-0.25219 h -0.00207 q 0.00207,0.1509 0.00207,0.31006 0,0.1571 0,0.30799 v 1.7322 q 0,0.0124 -0.0062,0.0227 -0.0062,0.0103 -0.020671,0.0165 -0.014469,0.006 -0.039274,0.0103 -0.022738,0.004 -0.059945,0.004 -0.03514,0 -0.059945,-0.004 -0.024805,-0.004 -0.039274,-0.0103 -0.014469,-0.006 -0.020671,-0.0165 -0.0062,-0.0103 -0.0062,-0.0227 v -2.50321 q 0,-0.0744 0.039274,-0.10128 0.039274,-0.0289 0.076481,-0.0289 H 6.541449 q 0.049609,0 0.082682,0.008 0.033073,0.008 0.059945,0.0289 0.026872,0.0186 0.051676,0.0558 0.026872,0.0351 0.057878,0.091 l 0.7214024,1.2795 q 0.068213,0.11989 0.1281575,0.23151 0.062012,0.10956 0.1198892,0.21704 0.057878,0.10542 0.1136881,0.20878 0.057878,0.10335 0.113688,0.20877 h 0.00207 q -0.00207,-0.17363 -0.00207,-0.36174 0,-0.1881 0,-0.36173 v -1.55649 q 0,-0.0124 0.0062,-0.0227 0.0062,-0.0103 0.020671,-0.0165 0.014469,-0.008 0.037207,-0.0103 0.024805,-0.004 0.062012,-0.004 0.033073,0 0.057878,0.004 0.024805,0.002 0.039274,0.0103 0.014469,0.006 0.020671,0.0165 0.00827,0.0103 0.00827,0.0227 z"
         style="font-weight:300;-inkscape-font-specification:'Calibri Light'"
         id="path946" />
      <path
         d="m 10.989752,121.33325 q 0,0.33693 -0.08475,0.59531 -0.08475,0.25632 -0.250114,0.42995 -0.165364,0.17363 -0.409277,0.26251 -0.241846,0.0889 -0.5787756,0.0889 H 9.1397373 q -0.037207,0 -0.076481,-0.0269 -0.039274,-0.0289 -0.039274,-0.10336 v -2.41432 q 0,-0.0744 0.039274,-0.10128 0.039274,-0.0289 0.076481,-0.0289 h 0.5622391 q 0.3410646,0 0.5746416,0.093 0.235644,0.093 0.39274,0.26458 0.159164,0.1695 0.239779,0.40928 0.08061,0.23771 0.08061,0.53123 z m -0.270784,0.0124 q 0,-0.23358 -0.05995,-0.43201 -0.05788,-0.20051 -0.181901,-0.3452 -0.121956,-0.1447 -0.310058,-0.22531 -0.1881022,-0.0827 -0.479557,-0.0827 H 9.2761629 v 2.22415 h 0.4134112 q 0.2728513,0 0.4609529,-0.0661 0.19017,-0.0682 0.31626,-0.20877 0.12609,-0.14056 0.188102,-0.35347 0.06408,-0.21497 0.06408,-0.51056 z"
         style="font-weight:300;-inkscape-font-specification:'Calibri Light'"
         id="path948" />
      <path
         d="m 13.433012,122.66857 q 0,0.0124 -0.0062,0.0227 -0.0062,0.0103 -0.02067,0.0165 -0.01447,0.006 -0.03927,0.0103 -0.02481,0.004 -0.05994,0.004 -0.03721,0 -0.06201,-0.004 -0.02274,-0.004 -0.03721,-0.0103 -0.01447,-0.006 -0.02067,-0.0165 -0.0062,-0.0103 -0.0062,-0.0227 v -1.24644 h -1.335318 v 1.24644 q 0,0.0124 -0.0062,0.0227 -0.0062,0.0103 -0.02067,0.0165 -0.01447,0.006 -0.03927,0.0103 -0.02274,0.004 -0.05994,0.004 -0.03514,0 -0.05995,-0.004 -0.0248,-0.004 -0.03927,-0.0103 -0.01447,-0.006 -0.02067,-0.0165 -0.0062,-0.0103 -0.0062,-0.0227 v -2.59209 q 0,-0.0124 0.0062,-0.0227 0.0062,-0.0103 0.02067,-0.0165 0.01447,-0.006 0.03927,-0.0103 0.02481,-0.004 0.05995,-0.004 0.03721,0 0.05994,0.004 0.0248,0.004 0.03927,0.0103 0.01447,0.006 0.02067,0.0165 0.0062,0.0103 0.0062,0.0227 v 1.12034 h 1.335318 v -1.12034 q 0,-0.0124 0.0062,-0.0227 0.0062,-0.0103 0.02067,-0.0165 0.01447,-0.006 0.03721,-0.0103 0.0248,-0.004 0.06201,-0.004 0.03514,0 0.05994,0.004 0.02481,0.004 0.03927,0.0103 0.01447,0.006 0.02067,0.0165 0.0062,0.0103 0.0062,0.0227 z"
         style="font-weight:300;-inkscape-font-specification:'Calibri Light'"
         id="path950" />
    </g>
    <path
       id="rect10313-5-0"
       style="fill:#AA0000;stroke-width:0.264582"
       d="m 3.1746907,63 h 9.0000003 c 0.831,0 1.5,0.669 1.5,1.5 v 37 c 0,0.831 -0.669,1.5 -1.5,1.5 H 3.1746907 C 2.3436909,103 1.674691,102.331 1.674691,101.5 v -37 c 0,-0.831 0.6689999,-1.5 1.4999997,-1.5 z" />
    <path
       d="m 5.2075078,71.149712 a 3.4891158,3.5941528 0 1 1 4.9343542,0"
       fill="none"
       stroke="#010101"
       stroke-linecap="round"
       stroke-linejoin="round"
       id="path66-2"
       style="display:inline;stroke:#010101;stroke-width:0.264583;stroke-opacity:1" />
    <path
       id="rect10313-6-1-7"
       style="fill:#6F1E00;stroke-width:0.264582"
       d="m 3.2273817,98 h 9.0000003 c 0.831,0 1.5,0.83625 1.5,1.875 v 16.25 c 0,1.03875 -0.669,1.875 -1.5,1.875 H 3.2273817 c -0.8309999,0 -1.4999998,-0.83625 -1.4999998,-1.875 v -16.25 c 0,-1.03875 0.6689999,-1.875 1.4999998,-1.875 z" />
    <path
       id="rect28033-3-0"
       style="fill:#AA0000;stroke:#00a6a9;stroke-width:0"
       d="M 1.7273824,94 H 13.727381 v 10 H 1.7273824 Z" />
    <g
       aria-label="OUT"
       id="text8544-7-1-9-8-3"
       style="font-size:2.82222px;line-height:1.25;font-family:Calibri;-inkscape-font-specification:Calibri;text-align:center;text-anchor:middle;fill:#ffffff;stroke-width:0.264583">
      <path
         d="m 6.8729987,115.8971 q 0,0.21635 -0.050987,0.38998 -0.050987,0.17363 -0.1529621,0.29628 -0.1005967,0.12127 -0.2535588,0.18741 -0.1529622,0.0648 -0.3569117,0.0648 -0.2011934,0 -0.3486434,-0.0593 -0.1460719,-0.0606 -0.2425345,-0.17501 -0.095085,-0.11437 -0.1419378,-0.28387 -0.046853,-0.1695 -0.046853,-0.38999 0,-0.21084 0.050987,-0.38309 0.050987,-0.17226 0.1529621,-0.29215 0.1019748,-0.12126 0.2549369,-0.18603 0.1529621,-0.0662 0.3569116,-0.0662 0.1970593,0 0.3431313,0.0593 0.1460719,0.0593 0.2425345,0.17363 0.097841,0.113 0.1446939,0.28112 0.048231,0.16674 0.048231,0.3831 z m -0.2494247,0.0165 q 0,-0.15158 -0.027561,-0.28112 -0.026183,-0.13091 -0.089572,-0.226 -0.062012,-0.0965 -0.1667425,-0.1502 -0.1047308,-0.0537 -0.259071,-0.0537 -0.1543401,0 -0.259071,0.0579 -0.1047308,0.0579 -0.1708766,0.15434 -0.064768,0.0965 -0.093707,0.226 -0.027561,0.12816 -0.027561,0.2701 0,0.15709 0.026183,0.28938 0.026183,0.1323 0.088194,0.22876 0.062012,0.0951 0.1653644,0.14883 0.1047308,0.0524 0.2618271,0.0524 0.1557182,0 0.261827,-0.0579 0.1061089,-0.0579 0.1708766,-0.15571 0.064768,-0.0992 0.092328,-0.22876 0.027561,-0.12953 0.027561,-0.27423 z"
         id="path932" />
      <path
         d="m 8.5886549,116.15065 q 0,0.16261 -0.048231,0.29077 -0.046853,0.12678 -0.1350476,0.21497 -0.088194,0.0882 -0.2149738,0.13367 -0.1267794,0.0455 -0.2880098,0.0455 -0.1474499,0 -0.2687172,-0.0427 -0.1212673,-0.0427 -0.2080836,-0.1254 -0.086816,-0.0841 -0.1336696,-0.20946 -0.046853,-0.1254 -0.046853,-0.28939 v -1.10656 q 0,-0.011 0.00551,-0.0193 0.00551,-0.008 0.019292,-0.0124 0.01378,-0.006 0.035829,-0.008 0.022049,-0.004 0.057878,-0.004 0.033073,0 0.056499,0.004 0.023427,0.003 0.035829,0.008 0.01378,0.004 0.019292,0.0124 0.00551,0.008 0.00551,0.0193 v 1.07762 q 0,0.12402 0.030317,0.21635 0.030317,0.0923 0.086816,0.15434 0.057878,0.0606 0.1378037,0.0923 0.081304,0.0303 0.1819009,0.0303 0.1033528,0 0.183279,-0.0303 0.081304,-0.0303 0.1364257,-0.0909 0.0565,-0.0606 0.085438,-0.15021 0.030317,-0.0896 0.030317,-0.20946 v -1.09002 q 0,-0.011 0.00551,-0.0193 0.00551,-0.008 0.019293,-0.0124 0.01378,-0.006 0.035829,-0.008 0.023427,-0.004 0.057878,-0.004 0.033073,0 0.055122,0.004 0.023427,0.003 0.035829,0.008 0.01378,0.004 0.019293,0.0124 0.00689,0.008 0.00689,0.0193 z"
         id="path934" />
      <path
         d="m 10.176154,115.12815 q 0,0.0262 -0.0028,0.0455 -0.0028,0.0193 -0.0096,0.0317 -0.0055,0.011 -0.01516,0.0165 -0.0083,0.006 -0.01929,0.006 H 9.627695 v 1.54616 q 0,0.011 -0.00551,0.0193 -0.00551,0.008 -0.019292,0.0138 -0.01378,0.004 -0.037207,0.007 -0.022049,0.004 -0.056499,0.004 -0.033073,0 -0.0565,-0.004 -0.023427,-0.003 -0.037207,-0.007 -0.01378,-0.006 -0.019293,-0.0138 -0.00551,-0.008 -0.00551,-0.0193 v -1.54616 H 8.889067 q -0.011024,0 -0.020671,-0.006 -0.00827,-0.006 -0.01378,-0.0165 -0.00551,-0.0124 -0.00965,-0.0317 -0.00276,-0.0193 -0.00276,-0.0455 0,-0.0262 0.00276,-0.0455 0.00413,-0.0207 0.00965,-0.0331 0.00551,-0.0124 0.01378,-0.0179 0.00965,-0.006 0.020671,-0.006 H 10.1293 q 0.01103,0 0.01929,0.006 0.0096,0.006 0.01516,0.0179 0.0069,0.0124 0.0096,0.0331 0.0028,0.0193 0.0028,0.0455 z"
         id="path936" />
    </g>
    <g
       aria-label="GATE"
       id="text8544-7-1-5-7-3-0"
       style="font-size:2.82222px;line-height:1.25;font-family:Calibri;-inkscape-font-specification:Calibri;text-align:center;text-anchor:middle;fill:#ffffff;stroke-width:0.264583">
      <path
         d="m 4.4510733,87.767338 q 0,0.02618 -0.00276,0.04685 -0.00276,0.01929 -0.00827,0.03307 -0.00551,0.0124 -0.01378,0.01792 -0.00827,0.0055 -0.017914,0.0055 -0.016536,0 -0.055121,-0.02618 -0.038585,-0.02618 -0.1033528,-0.05788 -0.064768,-0.03169 -0.1557182,-0.05788 -0.089572,-0.02618 -0.2135958,-0.02618 -0.14745,0 -0.2645831,0.05374 -0.1171332,0.05374 -0.1984374,0.148828 -0.081304,0.09508 -0.1254014,0.225998 -0.042719,0.130913 -0.042719,0.283875 0,0.170877 0.046853,0.303168 0.048231,0.132292 0.1322915,0.223243 0.08406,0.09095 0.1998154,0.137803 0.1171332,0.04685 0.2563149,0.04685 0.082682,0 0.1667425,-0.01929 0.085438,-0.02067 0.1584743,-0.06063 v -0.51952 H 3.7965056 q -0.023427,0 -0.035829,-0.02343 -0.011024,-0.02343 -0.011024,-0.07304 0,-0.02618 0.00276,-0.0441 0.00276,-0.01929 0.00827,-0.03032 0.00689,-0.0124 0.015158,-0.01792 0.00827,-0.0055 0.020671,-0.0055 h 0.5663733 q 0.015158,0 0.030317,0.0055 0.015158,0.0055 0.027561,0.01654 0.012402,0.01102 0.019292,0.03032 0.00689,0.01929 0.00689,0.0441 v 0.679372 q 0,0.03583 -0.012402,0.06201 -0.012402,0.02618 -0.052365,0.04685 -0.039963,0.01929 -0.1033528,0.04272 -0.06339,0.02343 -0.1309135,0.03996 -0.067524,0.01654 -0.1364257,0.02481 -0.068902,0.0083 -0.1364256,0.0083 -0.2067056,0 -0.369314,-0.06339 -0.1626084,-0.06477 -0.2756074,-0.183279 -0.111621,-0.118511 -0.1708766,-0.283875 -0.059256,-0.165365 -0.059256,-0.369314 0,-0.212218 0.06339,-0.384473 0.064768,-0.172254 0.1805228,-0.293521 0.1171332,-0.121268 0.2797416,-0.187414 0.1639864,-0.06752 0.3624238,-0.06752 0.1019747,0 0.1915471,0.01791 0.089572,0.01792 0.1584743,0.04272 0.07028,0.02343 0.1171332,0.05237 0.048231,0.02756 0.066146,0.04547 0.017914,0.01791 0.024805,0.04134 0.00689,0.02343 0.00689,0.06752 z"
         id="path923" />
      <path
         d="m 6.2273632,89.223923 q 0.011024,0.03032 0.011024,0.04961 0.00138,0.01792 -0.00965,0.02756 -0.011024,0.0096 -0.037207,0.0124 -0.024805,0.0028 -0.067524,0.0028 -0.042719,0 -0.068902,-0.0028 -0.024805,-0.0014 -0.038585,-0.0055 -0.012402,-0.0055 -0.019292,-0.01378 -0.00551,-0.0083 -0.011024,-0.02067 L 5.8332446,88.839451 h -0.741384 l -0.146072,0.428569 q -0.00413,0.0124 -0.011024,0.02205 -0.00689,0.0083 -0.020671,0.01516 -0.012402,0.0055 -0.037207,0.0083 -0.023427,0.0028 -0.062012,0.0028 -0.039963,0 -0.066146,-0.0041 -0.024805,-0.0028 -0.035829,-0.0124 -0.00965,-0.0096 -0.00965,-0.02756 0.00138,-0.01929 0.012402,-0.04961 l 0.5980681,-1.656401 q 0.00551,-0.01516 0.01378,-0.0248 0.00965,-0.0096 0.026183,-0.01516 0.017914,-0.0055 0.044097,-0.0069 0.027561,-0.0028 0.068902,-0.0028 0.044097,0 0.073036,0.0028 0.028939,0.0014 0.046853,0.0069 0.017915,0.0055 0.027561,0.01654 0.00965,0.0096 0.015159,0.0248 z M 5.4597965,87.761826 h -0.00138 L 5.1511162,88.65066 h 0.6201167 z"
         id="path925" />
      <path
         d="m 7.4221214,87.626778 q 0,0.02618 -0.00276,0.04547 -0.00276,0.01929 -0.00965,0.03169 -0.00551,0.01102 -0.015158,0.01654 -0.00827,0.0055 -0.019293,0.0055 H 6.8736626 v 1.546157 q 0,0.01103 -0.00551,0.01929 -0.00551,0.0083 -0.019292,0.01378 -0.01378,0.0041 -0.037207,0.0069 -0.022049,0.0041 -0.0565,0.0041 -0.033073,0 -0.0565,-0.0041 -0.023427,-0.0028 -0.037207,-0.0069 -0.01378,-0.0055 -0.019293,-0.01378 -0.00551,-0.0083 -0.00551,-0.01929 V 87.725997 H 6.1350347 q -0.011024,0 -0.020671,-0.0055 -0.00827,-0.0055 -0.01378,-0.01654 -0.00551,-0.0124 -0.00965,-0.03169 -0.00276,-0.01929 -0.00276,-0.04547 0,-0.02618 0.00276,-0.04547 0.00413,-0.02067 0.00965,-0.03307 0.00551,-0.0124 0.01378,-0.01792 0.00965,-0.0055 0.020671,-0.0055 h 1.2402335 q 0.011024,0 0.019293,0.0055 0.00965,0.0055 0.015158,0.01792 0.00689,0.0124 0.00965,0.03307 0.00276,0.01929 0.00276,0.04547 z"
         id="path927" />
      <path
         d="m 8.6720014,89.210143 q 0,0.0248 -0.00276,0.0441 -0.00276,0.01791 -0.00965,0.03032 -0.00689,0.0124 -0.016536,0.01791 -0.00827,0.0055 -0.019293,0.0055 H 7.768009 q -0.031695,0 -0.060634,-0.02067 -0.027561,-0.02205 -0.027561,-0.07579 v -1.590255 q 0,-0.05374 0.027561,-0.07441 0.028939,-0.02205 0.060634,-0.02205 h 0.8461148 q 0.011024,0 0.019293,0.0055 0.00965,0.0055 0.015158,0.01792 0.00551,0.0124 0.00827,0.03169 0.00413,0.01791 0.00413,0.04547 0,0.02481 -0.00413,0.0441 -0.00276,0.01791 -0.00827,0.03032 -0.00551,0.01102 -0.015158,0.01654 -0.00827,0.0055 -0.019293,0.0055 H 7.916837 v 0.559483 h 0.5980681 q 0.011024,0 0.019293,0.0069 0.00965,0.0055 0.015158,0.01654 0.00689,0.01103 0.00965,0.03032 0.00276,0.01929 0.00276,0.04548 0,0.0248 -0.00276,0.04272 -0.00276,0.01791 -0.00965,0.02894 -0.00551,0.01102 -0.015158,0.01654 -0.00827,0.0041 -0.019293,0.0041 H 7.916837 v 0.638031 h 0.7069331 q 0.011024,0 0.019293,0.0055 0.00965,0.0055 0.016536,0.01792 0.00689,0.01102 0.00965,0.03032 0.00276,0.01791 0.00276,0.04547 z"
         id="path929" />
    </g>
    <g
       aria-label="MODE"
       id="text8544-7-1-5-2-7-7-6-0"
       style="font-size:2.82222px;line-height:1.25;font-family:Calibri;-inkscape-font-specification:Calibri;text-align:center;text-anchor:middle;fill:#ffffff;stroke-width:0.264583">
      <path
         d="m 6.1085517,76.273535 q 0,0.01103 -0.00551,0.01929 -0.00551,0.0083 -0.019292,0.01378 -0.01378,0.0041 -0.035829,0.0069 -0.020671,0.0041 -0.055122,0.0041 -0.031695,0 -0.055122,-0.0041 -0.022049,-0.0028 -0.035829,-0.0069 -0.012402,-0.0055 -0.017914,-0.01378 -0.00551,-0.0083 -0.00551,-0.01929 v -1.553048 h -0.00276 l -0.6352752,1.559939 q -0.00413,0.0096 -0.012402,0.01654 -0.00689,0.0069 -0.022049,0.0124 -0.01378,0.0041 -0.034451,0.0055 -0.019293,0.0028 -0.046853,0.0028 -0.028939,0 -0.049609,-0.0028 -0.020671,-0.0028 -0.034451,-0.0069 -0.01378,-0.0055 -0.022048,-0.0124 -0.00689,-0.0069 -0.00965,-0.01516 L 4.4011637,74.720487 h -0.00138 v 1.553048 q 0,0.01103 -0.00551,0.01929 -0.00551,0.0083 -0.019292,0.01378 -0.01378,0.0041 -0.035829,0.0069 -0.022049,0.0041 -0.0565,0.0041 -0.033073,0 -0.055122,-0.0041 -0.022049,-0.0028 -0.035829,-0.0069 -0.012402,-0.0055 -0.017914,-0.01378 -0.00413,-0.0083 -0.00413,-0.01929 v -1.639864 q 0,-0.05788 0.030317,-0.08268 0.030317,-0.02481 0.067524,-0.02481 H 4.41081 q 0.044097,0 0.07717,0.0083 0.033073,0.0083 0.057878,0.02618 0.024805,0.01792 0.041341,0.04547 0.016536,0.02756 0.028939,0.06477 l 0.5167639,1.291221 h 0.00689 l 0.5374345,-1.287087 q 0.015158,-0.04134 0.033073,-0.07028 0.017914,-0.02894 0.038585,-0.04547 0.022049,-0.01791 0.048231,-0.02481 0.026183,-0.0083 0.060634,-0.0083 h 0.150206 q 0.020671,0 0.038585,0.0069 0.019293,0.0055 0.031695,0.01929 0.01378,0.0124 0.022049,0.03307 0.00827,0.01929 0.00827,0.04823 z"
         id="path914" />
      <path
         d="m 8.0763889,75.397104 q 0,0.216352 -0.050987,0.389984 -0.050987,0.173633 -0.1529621,0.296278 -0.1005967,0.121267 -0.2535589,0.187413 -0.1529621,0.06477 -0.3569116,0.06477 -0.2011934,0 -0.3486434,-0.05926 -0.1460719,-0.06063 -0.2425345,-0.17501 -0.095085,-0.114377 -0.1419379,-0.283876 -0.046853,-0.169499 -0.046853,-0.389984 0,-0.21084 0.050987,-0.383095 0.050987,-0.172254 0.1529621,-0.292144 0.1019747,-0.121267 0.2549369,-0.186035 0.1529621,-0.06615 0.3569116,-0.06615 0.1970593,0 0.3431312,0.05926 0.146072,0.05926 0.2425346,0.173633 0.097841,0.112999 0.1446939,0.281119 0.048231,0.166743 0.048231,0.383095 z m -0.2494248,0.01654 q 0,-0.151584 -0.027561,-0.281119 -0.026183,-0.130914 -0.089572,-0.225999 -0.062012,-0.09646 -0.1667425,-0.150206 -0.1047308,-0.05374 -0.259071,-0.05374 -0.1543402,0 -0.259071,0.05788 -0.1047308,0.05788 -0.1708766,0.15434 -0.064768,0.09646 -0.093706,0.225998 -0.027561,0.128157 -0.027561,0.270095 0,0.157096 0.026183,0.289388 0.026183,0.132291 0.088194,0.228754 0.062012,0.09509 0.1653645,0.148828 0.1047308,0.05236 0.261827,0.05236 0.1557182,0 0.2618271,-0.05788 0.1061089,-0.05788 0.1708766,-0.155718 0.064768,-0.09922 0.092328,-0.228754 0.027561,-0.129536 0.027561,-0.27423 z"
         id="path916" />
      <path
         d="m 9.8223618,75.391592 q 0,0.23151 -0.059256,0.405142 -0.059256,0.172255 -0.1736327,0.286632 -0.112999,0.112999 -0.2783635,0.169499 -0.1653644,0.0565 -0.3941186,0.0565 H 8.5394092 q -0.031695,0 -0.060634,-0.02067 -0.027561,-0.02205 -0.027561,-0.07579 v -1.590255 q 0,-0.05374 0.027561,-0.07441 0.028939,-0.02205 0.060634,-0.02205 h 0.4037649 q 0.2315102,0 0.3913626,0.06063 0.1598523,0.05926 0.2673392,0.172255 0.1088649,0.111621 0.1639864,0.271473 0.056499,0.159852 0.056499,0.361046 z m -0.2494247,0.0096 q 0,-0.144694 -0.035829,-0.268717 -0.035829,-0.125402 -0.112999,-0.216352 -0.075792,-0.09095 -0.1929252,-0.141938 -0.1171332,-0.05099 -0.3017902,-0.05099 H 8.6882372 v 1.387683 h 0.2439126 q 0.1708766,0 0.2880098,-0.04272 0.1171331,-0.04272 0.1956813,-0.130914 0.078548,-0.08819 0.1171331,-0.220486 0.039963,-0.133669 0.039963,-0.31557 z"
         id="path918" />
      <path
         d="m 11.179728,76.211524 q 0,0.0248 -0.0028,0.0441 -0.0028,0.01791 -0.0096,0.03032 -0.0069,0.0124 -0.01654,0.01791 -0.0083,0.0055 -0.01929,0.0055 h -0.855761 q -0.0317,0 -0.06063,-0.02067 -0.02756,-0.02205 -0.02756,-0.07579 v -1.590255 q 0,-0.05374 0.02756,-0.07441 0.02894,-0.02205 0.06063,-0.02205 h 0.846115 q 0.01102,0 0.01929,0.0055 0.0096,0.0055 0.01516,0.01792 0.0055,0.0124 0.0083,0.03169 0.0041,0.01791 0.0041,0.04547 0,0.02481 -0.0041,0.0441 -0.0028,0.01792 -0.0083,0.03032 -0.0055,0.01102 -0.01516,0.01654 -0.0083,0.0055 -0.01929,0.0055 h -0.697287 v 0.559483 h 0.598068 q 0.01102,0 0.01929,0.0069 0.0096,0.0055 0.01516,0.01654 0.0069,0.01103 0.0096,0.03032 0.0028,0.01929 0.0028,0.04547 0,0.02481 -0.0028,0.04272 -0.0028,0.01791 -0.0096,0.02894 -0.0055,0.01103 -0.01516,0.01654 -0.0083,0.0041 -0.01929,0.0041 h -0.598068 v 0.638031 h 0.706933 q 0.01102,0 0.01929,0.0055 0.0096,0.0055 0.01654,0.01792 0.0069,0.01102 0.0096,0.03032 0.0028,0.01792 0.0028,0.04548 z"
         id="path920" />
    </g>
    <g
       aria-label="IN"
       id="text8544-7-1-5-2-2-3-0"
       style="font-size:2.82222px;line-height:1.25;font-family:Calibri;-inkscape-font-specification:Calibri;text-align:center;text-anchor:middle;fill:#ffffff;stroke-width:0.264583">
      <path
         d="m 6.8823194,102.25561 q 0,0.011 -0.00551,0.0193 -0.00551,0.008 -0.019292,0.0138 -0.01378,0.004 -0.037207,0.007 -0.022049,0.004 -0.0565,0.004 -0.033073,0 -0.0565,-0.004 -0.023427,-0.003 -0.037207,-0.007 -0.01378,-0.006 -0.019292,-0.0138 -0.00551,-0.008 -0.00551,-0.0193 v -1.71152 q 0,-0.011 0.00551,-0.0193 0.00689,-0.008 0.020671,-0.0124 0.015158,-0.006 0.037207,-0.008 0.023427,-0.004 0.055121,-0.004 0.034451,0 0.0565,0.004 0.023427,0.003 0.037207,0.008 0.01378,0.004 0.019292,0.0124 0.00551,0.008 0.00551,0.0193 z"
         id="path909" />
      <path
         d="m 8.7040845,102.1936 q 0,0.0276 -0.00965,0.0469 -0.00827,0.0193 -0.023427,0.0317 -0.01378,0.0124 -0.031695,0.0179 -0.017914,0.006 -0.035829,0.006 h -0.075792 q -0.035829,0 -0.06339,-0.007 -0.026183,-0.008 -0.050987,-0.0276 -0.023427,-0.0207 -0.048231,-0.0551 -0.023427,-0.0345 -0.052365,-0.0882 l -0.5622392,-1.01424 q -0.044097,-0.0785 -0.089572,-0.16398 -0.044097,-0.0868 -0.082682,-0.16812 h -0.00276 q 0.00276,0.0992 0.00413,0.20257 0.00138,0.10335 0.00138,0.20533 v 1.07624 q 0,0.01 -0.00551,0.0193 -0.00551,0.008 -0.019292,0.0138 -0.012402,0.004 -0.034451,0.007 -0.020671,0.004 -0.053743,0.004 -0.033073,0 -0.055122,-0.004 -0.020671,-0.003 -0.033073,-0.007 -0.012402,-0.006 -0.017915,-0.0138 -0.00551,-0.01 -0.00551,-0.0193 v -1.64537 q 0,-0.0551 0.030317,-0.0786 0.030317,-0.0234 0.066146,-0.0234 h 0.112999 q 0.039963,0 0.066146,0.007 0.027561,0.007 0.048231,0.0234 0.022049,0.0152 0.041341,0.0441 0.020671,0.0276 0.044097,0.0703 l 0.4327037,0.78272 q 0.039963,0.0717 0.07717,0.14056 0.037207,0.0675 0.071658,0.13367 0.034451,0.0662 0.067524,0.13091 0.034451,0.0634 0.067524,0.12816 h 0.00138 q -0.00276,-0.10886 -0.00413,-0.226 0,-0.11851 0,-0.22737 v -0.96738 q 0,-0.01 0.00551,-0.0179 0.00551,-0.008 0.017914,-0.0138 0.01378,-0.007 0.034451,-0.01 0.022049,-0.003 0.056499,-0.003 0.030317,0 0.052365,0.003 0.022049,0.003 0.034451,0.01 0.012402,0.006 0.017914,0.0138 0.00551,0.008 0.00551,0.0179 z"
         id="path911" />
    </g>
    <path
       id="rect10313-5-0-2"
       style="fill:#AA0000;stroke-width:0.264582"
       d="M 3.1219997,6 H 12.122 c 0.831,0 1.5,0.6689998 1.5,1.4999995 V 44.5 c 0,0.831 -0.669,1.5 -1.5,1.5 H 3.1219997 C 2.2909999,46 1.622,45.331 1.622,44.5 V 7.4999995 C 1.622,6.6689998 2.2909999,6 3.1219997,6 Z" />
    <path
       id="rect10313-6-1-7-4"
       style="fill:#6F1E00;stroke-width:0.264582"
       d="m 3.1746907,41 h 9.0000003 c 0.831,0 1.5,0.83625 1.5,1.875 v 16.25 c 0,1.03875 -0.669,1.875 -1.5,1.875 H 3.1746907 C 2.3436909,61 1.674691,60.16375 1.674691,59.125 V 42.875 C 1.674691,41.83625 2.3436909,41 3.1746907,41 Z" />
    <path
       id="rect28033-3-0-2"
       style="fill:#AA0000;stroke:#00a6a9;stroke-width:0"
       d="M 1.6746914,37 H 13.67469 v 9.999999 H 1.6746914 Z" />
    <path
       d="m 5.1548168,14.149712 a 3.4891158,3.5941528 0 1 1 4.9343542,0"
       fill="none"
       stroke="#010101"
       stroke-linecap="round"
       stroke-linejoin="round"
       id="path66-2-1"
       style="display:inline;stroke:#010101;stroke-width:0.264583;stroke-opacity:1" />
    <g
       aria-label="OUT"
       id="text8544-7-1-9-8-3-7"
       style="font-size:2.82222px;line-height:1.25;font-family:Calibri;-inkscape-font-specification:Calibri;text-align:center;text-anchor:middle;fill:#ffffff;stroke-width:0.264583">
      <path
         d="m 6.8203077,58.897104 q 0,0.216352 -0.050987,0.389984 -0.050987,0.173633 -0.1529621,0.296278 -0.1005967,0.121267 -0.2535588,0.187413 -0.1529621,0.06477 -0.3569116,0.06477 -0.2011935,0 -0.3486434,-0.05926 -0.146072,-0.06063 -0.2425346,-0.17501 -0.095084,-0.114377 -0.1419378,-0.283876 -0.046853,-0.169499 -0.046853,-0.389984 0,-0.21084 0.050987,-0.383095 0.050987,-0.172254 0.1529621,-0.292144 0.1019748,-0.121267 0.2549369,-0.186035 0.1529621,-0.06614 0.3569116,-0.06614 0.1970593,0 0.3431313,0.05926 0.1460719,0.05926 0.2425345,0.173633 0.097841,0.112999 0.1446939,0.281119 0.048231,0.166743 0.048231,0.383095 z M 6.570883,58.91364 q 0,-0.151584 -0.027561,-0.281119 -0.026183,-0.130914 -0.089572,-0.225999 -0.062012,-0.09646 -0.1667425,-0.150206 -0.1047308,-0.05374 -0.259071,-0.05374 -0.1543401,0 -0.2590709,0.05788 -0.1047309,0.05788 -0.1708766,0.15434 -0.064768,0.09646 -0.093707,0.225998 -0.027561,0.128157 -0.027561,0.270095 0,0.157096 0.026183,0.289388 0.026183,0.132291 0.088194,0.228754 0.062012,0.09508 0.1653644,0.148828 0.1047309,0.05236 0.2618271,0.05236 0.1557182,0 0.261827,-0.05788 0.1061089,-0.05788 0.1708767,-0.155718 0.064768,-0.09922 0.092328,-0.228754 0.027561,-0.129536 0.027561,-0.27423 z"
         id="path899" />
      <path
         d="m 8.535964,59.150663 q 0,0.162608 -0.048231,0.290765 -0.046853,0.12678 -0.1350477,0.214974 -0.088194,0.08819 -0.2149738,0.13367 -0.1267794,0.04547 -0.2880097,0.04547 -0.14745,0 -0.2687173,-0.04272 -0.1212673,-0.04272 -0.2080836,-0.125402 -0.086816,-0.08406 -0.1336696,-0.209461 -0.046853,-0.125402 -0.046853,-0.289388 v -1.106564 q 0,-0.01102 0.00551,-0.01929 0.00551,-0.0083 0.019293,-0.0124 0.01378,-0.0055 0.035829,-0.0083 0.022049,-0.0041 0.057878,-0.0041 0.033073,0 0.0565,0.0041 0.023427,0.0028 0.035829,0.0083 0.01378,0.0041 0.019292,0.0124 0.00551,0.0083 0.00551,0.01929 v 1.077625 q 0,0.124024 0.030317,0.216352 0.030317,0.09233 0.086816,0.15434 0.057878,0.06063 0.1378038,0.09233 0.081304,0.03032 0.1819009,0.03032 0.1033527,0 0.1832789,-0.03032 0.081304,-0.03032 0.1364257,-0.09095 0.056499,-0.06063 0.085438,-0.150206 0.030317,-0.08957 0.030317,-0.209461 v -1.090028 q 0,-0.01102 0.00551,-0.01929 0.00551,-0.0083 0.019293,-0.0124 0.01378,-0.0055 0.035829,-0.0083 0.023427,-0.0041 0.057878,-0.0041 0.033073,0 0.055122,0.0041 0.023427,0.0028 0.035829,0.0083 0.01378,0.0041 0.019293,0.0124 0.00689,0.0083 0.00689,0.01929 z"
         id="path901" />
      <path
         d="m 10.123463,58.128159 q 0,0.02618 -0.0028,0.04548 -0.0028,0.01929 -0.0096,0.03169 -0.0055,0.01102 -0.01516,0.01654 -0.0083,0.0055 -0.01929,0.0055 H 9.575004 v 1.546157 q 0,0.01102 -0.00551,0.01929 -0.00551,0.0083 -0.019293,0.01378 -0.01378,0.0041 -0.037207,0.0069 -0.022049,0.0041 -0.0565,0.0041 -0.033073,0 -0.056499,-0.0041 -0.023427,-0.0028 -0.037207,-0.0069 -0.01378,-0.0055 -0.019293,-0.01378 -0.00551,-0.0083 -0.00551,-0.01929 V 58.227378 H 8.8363761 q -0.011024,0 -0.020671,-0.0055 -0.00827,-0.0055 -0.01378,-0.01654 -0.00551,-0.0124 -0.00965,-0.03169 -0.00276,-0.01929 -0.00276,-0.04548 0,-0.02618 0.00276,-0.04547 0.00413,-0.02067 0.00965,-0.03307 0.00551,-0.0124 0.01378,-0.01792 0.00965,-0.0055 0.020671,-0.0055 H 10.07661 q 0.01102,0 0.01929,0.0055 0.0096,0.0055 0.01516,0.01792 0.0069,0.0124 0.0096,0.03307 0.0028,0.01929 0.0028,0.04547 z"
         id="path903" />
    </g>
    <g
       aria-label="GATE"
       id="text8544-7-1-5-7-3-0-8"
       style="font-size:2.82222px;line-height:1.25;font-family:Calibri;-inkscape-font-specification:Calibri;text-align:center;text-anchor:middle;fill:#ffffff;stroke-width:0.264583">
      <path
         d="m 4.4510733,30.767338 q 0,0.02618 -0.00276,0.04685 -0.00276,0.01929 -0.00827,0.03307 -0.00551,0.0124 -0.01378,0.01792 -0.00827,0.0055 -0.017914,0.0055 -0.016536,0 -0.055121,-0.02618 -0.038585,-0.02618 -0.1033528,-0.05788 -0.064768,-0.03169 -0.1557182,-0.05788 -0.089572,-0.02618 -0.2135958,-0.02618 -0.14745,0 -0.2645831,0.05374 -0.1171332,0.05374 -0.1984374,0.148828 -0.081304,0.09508 -0.1254014,0.225998 -0.042719,0.130913 -0.042719,0.283875 0,0.170877 0.046853,0.303168 0.048231,0.132292 0.1322915,0.223243 0.08406,0.09095 0.1998154,0.137803 0.1171332,0.04685 0.2563149,0.04685 0.082682,0 0.1667425,-0.01929 0.085438,-0.02067 0.1584743,-0.06063 v -0.51952 H 3.7965056 q -0.023427,0 -0.035829,-0.02343 -0.011024,-0.02343 -0.011024,-0.07304 0,-0.02618 0.00276,-0.0441 0.00276,-0.01929 0.00827,-0.03032 0.00689,-0.0124 0.015158,-0.01791 0.00827,-0.0055 0.020671,-0.0055 h 0.5663733 q 0.015158,0 0.030317,0.0055 0.015158,0.0055 0.027561,0.01654 0.012402,0.01102 0.019292,0.03032 0.00689,0.01929 0.00689,0.0441 v 0.679372 q 0,0.03583 -0.012402,0.06201 -0.012402,0.02618 -0.052365,0.04685 -0.039963,0.01929 -0.1033528,0.04272 -0.06339,0.02343 -0.1309135,0.03996 -0.067524,0.01654 -0.1364257,0.02481 -0.068902,0.0083 -0.1364256,0.0083 -0.2067056,0 -0.369314,-0.06339 -0.1626084,-0.06477 -0.2756074,-0.183279 -0.111621,-0.118511 -0.1708766,-0.283875 -0.059256,-0.165365 -0.059256,-0.369314 0,-0.212218 0.06339,-0.384473 0.064768,-0.172254 0.1805228,-0.293521 0.1171332,-0.121268 0.2797416,-0.187414 0.1639864,-0.06752 0.3624238,-0.06752 0.1019747,0 0.1915471,0.01791 0.089572,0.01791 0.1584743,0.04272 0.07028,0.02343 0.1171332,0.05237 0.048231,0.02756 0.066146,0.04547 0.017914,0.01791 0.024805,0.04134 0.00689,0.02343 0.00689,0.06752 z"
         id="path890" />
      <path
         d="m 6.2273632,32.223923 q 0.011024,0.03032 0.011024,0.04961 0.00138,0.01791 -0.00965,0.02756 -0.011024,0.0096 -0.037207,0.0124 -0.024805,0.0028 -0.067524,0.0028 -0.042719,0 -0.068902,-0.0028 -0.024805,-0.0014 -0.038585,-0.0055 -0.012402,-0.0055 -0.019292,-0.01378 -0.00551,-0.0083 -0.011024,-0.02067 L 5.8332446,31.839451 h -0.741384 l -0.146072,0.428569 q -0.00413,0.0124 -0.011024,0.02205 -0.00689,0.0083 -0.020671,0.01516 -0.012402,0.0055 -0.037207,0.0083 -0.023427,0.0028 -0.062012,0.0028 -0.039963,0 -0.066146,-0.0041 -0.024805,-0.0028 -0.035829,-0.0124 -0.00965,-0.0096 -0.00965,-0.02756 0.00138,-0.01929 0.012402,-0.04961 l 0.5980681,-1.656401 q 0.00551,-0.01516 0.01378,-0.0248 0.00965,-0.0096 0.026183,-0.01516 0.017914,-0.0055 0.044097,-0.0069 0.027561,-0.0028 0.068902,-0.0028 0.044097,0 0.073036,0.0028 0.028939,0.0014 0.046853,0.0069 0.017915,0.0055 0.027561,0.01654 0.00965,0.0096 0.015159,0.0248 z M 5.4597965,30.761826 h -0.00138 L 5.1511162,31.65066 h 0.6201167 z"
         id="path892" />
      <path
         d="m 7.4221214,30.626778 q 0,0.02618 -0.00276,0.04547 -0.00276,0.01929 -0.00965,0.03169 -0.00551,0.01102 -0.015158,0.01654 -0.00827,0.0055 -0.019293,0.0055 H 6.8736626 v 1.546157 q 0,0.01102 -0.00551,0.01929 -0.00551,0.0083 -0.019292,0.01378 -0.01378,0.0041 -0.037207,0.0069 -0.022049,0.0041 -0.0565,0.0041 -0.033073,0 -0.0565,-0.0041 -0.023427,-0.0028 -0.037207,-0.0069 -0.01378,-0.0055 -0.019293,-0.01378 -0.00551,-0.0083 -0.00551,-0.01929 V 30.725997 H 6.1350347 q -0.011024,0 -0.020671,-0.0055 -0.00827,-0.0055 -0.01378,-0.01654 -0.00551,-0.0124 -0.00965,-0.03169 -0.00276,-0.01929 -0.00276,-0.04547 0,-0.02618 0.00276,-0.04548 0.00413,-0.02067 0.00965,-0.03307 0.00551,-0.0124 0.01378,-0.01791 0.00965,-0.0055 0.020671,-0.0055 h 1.2402335 q 0.011024,0 0.019293,0.0055 0.00965,0.0055 0.015158,0.01791 0.00689,0.0124 0.00965,0.03307 0.00276,0.01929 0.00276,0.04548 z"
         id="path894" />
      <path
         d="m 8.6720014,32.210143 q 0,0.0248 -0.00276,0.0441 -0.00276,0.01791 -0.00965,0.03032 -0.00689,0.0124 -0.016536,0.01791 -0.00827,0.0055 -0.019293,0.0055 H 7.768009 q -0.031695,0 -0.060634,-0.02067 -0.027561,-0.02205 -0.027561,-0.07579 v -1.590255 q 0,-0.05374 0.027561,-0.07441 0.028939,-0.02205 0.060634,-0.02205 h 0.8461148 q 0.011024,0 0.019293,0.0055 0.00965,0.0055 0.015158,0.01791 0.00551,0.0124 0.00827,0.03169 0.00413,0.01791 0.00413,0.04547 0,0.02481 -0.00413,0.0441 -0.00276,0.01791 -0.00827,0.03032 -0.00551,0.01102 -0.015158,0.01654 -0.00827,0.0055 -0.019293,0.0055 H 7.916837 v 0.559483 h 0.5980681 q 0.011024,0 0.019293,0.0069 0.00965,0.0055 0.015158,0.01654 0.00689,0.01103 0.00965,0.03032 0.00276,0.01929 0.00276,0.04547 0,0.02481 -0.00276,0.04272 -0.00276,0.01791 -0.00965,0.02894 -0.00551,0.01103 -0.015158,0.01654 -0.00827,0.0041 -0.019293,0.0041 H 7.916837 v 0.638031 h 0.7069331 q 0.011024,0 0.019293,0.0055 0.00965,0.0055 0.016536,0.01792 0.00689,0.01102 0.00965,0.03032 0.00276,0.01791 0.00276,0.04548 z"
         id="path896" />
    </g>
    <g
       aria-label="MODE"
       id="text8544-7-1-5-2-7-7-6-0-2"
       style="font-size:2.82222px;line-height:1.25;font-family:Calibri;-inkscape-font-specification:Calibri;text-align:center;text-anchor:middle;fill:#ffffff;stroke-width:0.264583">
      <path
         d="m 6.0558608,19.273533 q 0,0.01103 -0.00551,0.01929 -0.00551,0.0083 -0.019293,0.01378 -0.01378,0.0041 -0.035829,0.0069 -0.020671,0.0041 -0.055122,0.0041 -0.031695,0 -0.055121,-0.0041 -0.022049,-0.0028 -0.035829,-0.0069 -0.012402,-0.0055 -0.017914,-0.01378 -0.00551,-0.0083 -0.00551,-0.01929 v -1.553047 h -0.00276 l -0.6352751,1.559938 q -0.00413,0.0096 -0.012402,0.01654 -0.00689,0.0069 -0.022049,0.0124 -0.01378,0.0041 -0.034451,0.0055 -0.019292,0.0028 -0.046853,0.0028 -0.028939,0 -0.049609,-0.0028 -0.020671,-0.0028 -0.034451,-0.0069 -0.01378,-0.0055 -0.022049,-0.0124 -0.00689,-0.0069 -0.00965,-0.01516 L 4.3484727,17.720486 h -0.00138 v 1.553047 q 0,0.01103 -0.00551,0.01929 -0.00551,0.0083 -0.019293,0.01378 -0.01378,0.0041 -0.035829,0.0069 -0.022049,0.0041 -0.0565,0.0041 -0.033073,0 -0.055122,-0.0041 -0.022048,-0.0028 -0.035829,-0.0069 -0.012402,-0.0055 -0.017914,-0.01378 -0.00413,-0.0083 -0.00413,-0.01929 v -1.639864 q 0,-0.05788 0.030317,-0.08268 0.030317,-0.02481 0.067524,-0.02481 H 4.358119 q 0.044097,0 0.07717,0.0083 0.033073,0.0083 0.057878,0.02618 0.024805,0.01792 0.041341,0.04547 0.016536,0.02756 0.028939,0.06477 l 0.516764,1.291221 h 0.00689 L 5.6245351,17.67501 q 0.015158,-0.04134 0.033073,-0.07028 0.017914,-0.02894 0.038585,-0.04547 0.022049,-0.01791 0.048231,-0.0248 0.026183,-0.0083 0.060634,-0.0083 h 0.150206 q 0.020671,0 0.038585,0.0069 0.019292,0.0055 0.031695,0.01929 0.01378,0.0124 0.022049,0.03307 0.00827,0.01929 0.00827,0.04823 z"
         id="path881" />
      <path
         d="m 8.0236979,18.397102 q 0,0.216352 -0.050987,0.389984 -0.050987,0.173633 -0.1529621,0.296278 -0.1005967,0.121268 -0.2535589,0.187413 -0.1529621,0.06477 -0.3569116,0.06477 -0.2011934,0 -0.3486434,-0.05926 Q 6.7145626,19.215656 6.6181,19.101279 6.5230154,18.986902 6.4761622,18.817403 q -0.046853,-0.169498 -0.046853,-0.389984 0,-0.21084 0.050987,-0.383095 Q 6.5312836,17.87207 6.6332584,17.75218 6.7352331,17.630913 6.8881953,17.566145 7.0411574,17.5 7.2451069,17.5 q 0.1970593,0 0.3431312,0.05926 0.146072,0.05926 0.2425346,0.173633 0.097841,0.112999 0.1446939,0.281119 0.048231,0.166743 0.048231,0.383095 z m -0.2494247,0.01654 q 0,-0.151584 -0.027561,-0.281119 -0.026183,-0.130914 -0.089572,-0.225998 -0.062012,-0.09646 -0.1667425,-0.150206 -0.1047308,-0.05374 -0.259071,-0.05374 -0.1543401,0 -0.259071,0.05788 -0.1047308,0.05788 -0.1708766,0.15434 -0.064768,0.09646 -0.093706,0.225998 -0.027561,0.128157 -0.027561,0.270095 0,0.157096 0.026183,0.289388 0.026183,0.132292 0.088194,0.228754 0.062012,0.09509 0.1653645,0.148828 0.1047308,0.05237 0.2618271,0.05237 0.1557182,0 0.261827,-0.05788 0.1061089,-0.05788 0.1708766,-0.155718 0.064768,-0.09922 0.092328,-0.228754 0.027561,-0.129536 0.027561,-0.27423 z"
         id="path883" />
      <path
         d="m 9.7696708,18.39159 q 0,0.23151 -0.059256,0.405143 -0.059256,0.172254 -0.1736327,0.286631 -0.112999,0.112999 -0.2783635,0.169499 -0.1653644,0.0565 -0.3941186,0.0565 H 8.4867182 q -0.031695,0 -0.060634,-0.02067 -0.027561,-0.02205 -0.027561,-0.07579 v -1.590255 q 0,-0.05374 0.027561,-0.07441 0.028939,-0.02205 0.060634,-0.02205 h 0.4037649 q 0.2315103,0 0.3913626,0.06063 0.1598523,0.05926 0.2673392,0.172255 0.1088649,0.111621 0.1639864,0.271473 0.056499,0.159852 0.056499,0.361046 z m -0.2494247,0.0096 q 0,-0.144694 -0.035829,-0.268717 -0.035829,-0.125402 -0.112999,-0.216352 -0.075792,-0.09095 -0.1929252,-0.141938 -0.1171332,-0.05099 -0.3017901,-0.05099 H 8.6355463 v 1.387683 h 0.2439125 q 0.1708766,0 0.2880098,-0.04272 0.1171332,-0.04272 0.1956813,-0.130914 0.078548,-0.08819 0.1171331,-0.220486 0.039963,-0.133669 0.039963,-0.31557 z"
         id="path885" />
      <path
         d="m 11.127037,19.211522 q 0,0.0248 -0.0028,0.0441 -0.0028,0.01791 -0.0096,0.03032 -0.0069,0.0124 -0.01654,0.01791 -0.0083,0.0055 -0.01929,0.0055 h -0.855761 q -0.0317,0 -0.06063,-0.02067 -0.02756,-0.02205 -0.02756,-0.07579 v -1.590255 q 0,-0.05374 0.02756,-0.07441 0.02894,-0.02205 0.06063,-0.02205 h 0.846115 q 0.01102,0 0.01929,0.0055 0.0096,0.0055 0.01516,0.01791 0.0055,0.0124 0.0083,0.03169 0.0041,0.01791 0.0041,0.04547 0,0.02481 -0.0041,0.0441 -0.0028,0.01791 -0.0083,0.03032 -0.0055,0.01102 -0.01516,0.01654 -0.0083,0.0055 -0.01929,0.0055 h -0.697287 v 0.559483 h 0.598068 q 0.01102,0 0.01929,0.0069 0.0096,0.0055 0.01516,0.01654 0.0069,0.01103 0.0096,0.03032 0.0028,0.01929 0.0028,0.04547 0,0.02481 -0.0028,0.04272 -0.0028,0.01791 -0.0096,0.02894 -0.0055,0.01103 -0.01516,0.01654 -0.0083,0.0041 -0.01929,0.0041 h -0.598068 v 0.638031 h 0.706933 q 0.01102,0 0.01929,0.0055 0.0096,0.0055 0.01654,0.01791 0.0069,0.01102 0.0096,0.03032 0.0028,0.01791 0.0028,0.04547 z"
         id="path887" />
    </g>
    <g
       aria-label="IN"
       id="text8544-7-1-5-2-2-3-0-5"
       style="font-size:2.82222px;line-height:1.25;font-family:Calibri;-inkscape-font-specification:Calibri;text-align:center;text-anchor:middle;fill:#ffffff;stroke-width:0.264583">
      <path
         d="m 6.8296284,45.255618 q 0,0.01102 -0.00551,0.01929 -0.00551,0.0083 -0.019292,0.01378 -0.01378,0.0041 -0.037207,0.0069 -0.022049,0.0041 -0.056499,0.0041 -0.033073,0 -0.0565,-0.0041 -0.023427,-0.0028 -0.037207,-0.0069 -0.01378,-0.0055 -0.019293,-0.01378 -0.00551,-0.0083 -0.00551,-0.01929 v -1.711522 q 0,-0.01103 0.00551,-0.01929 0.00689,-0.0083 0.020671,-0.0124 0.015158,-0.0055 0.037207,-0.0083 0.023427,-0.0041 0.055122,-0.0041 0.034451,0 0.056499,0.0041 0.023427,0.0028 0.037207,0.0083 0.01378,0.0041 0.019292,0.0124 0.00551,0.0083 0.00551,0.01929 z"
         id="path876" />
      <path
         d="m 8.6513935,45.193606 q 0,0.02756 -0.00965,0.04685 -0.00827,0.01929 -0.023427,0.03169 -0.01378,0.0124 -0.031695,0.01792 -0.017914,0.0055 -0.035829,0.0055 h -0.075792 q -0.035829,0 -0.06339,-0.0069 -0.026183,-0.0083 -0.050987,-0.02756 -0.023427,-0.02067 -0.048231,-0.05512 -0.023427,-0.03445 -0.052365,-0.08819 L 7.6977918,44.103579 q -0.044097,-0.07855 -0.089572,-0.163987 -0.044097,-0.08682 -0.082682,-0.16812 h -0.00276 q 0.00276,0.09922 0.00413,0.202571 0.00138,0.103353 0.00138,0.205328 v 1.076247 q 0,0.0096 -0.00551,0.01929 -0.00551,0.0083 -0.019293,0.01378 -0.012402,0.0041 -0.034451,0.0069 -0.020671,0.0041 -0.053743,0.0041 -0.033073,0 -0.055122,-0.0041 -0.02067,-0.0028 -0.033073,-0.0069 -0.012402,-0.0055 -0.017914,-0.01378 -0.00551,-0.0096 -0.00551,-0.01929 v -1.645377 q 0,-0.05512 0.030317,-0.07855 0.030317,-0.02343 0.066146,-0.02343 h 0.112999 q 0.039963,0 0.066146,0.0069 0.027561,0.0069 0.048231,0.02343 0.022049,0.01516 0.041341,0.0441 0.020671,0.02756 0.044097,0.07028 l 0.4327037,0.782725 q 0.039963,0.07166 0.07717,0.140559 0.037207,0.06752 0.071658,0.13367 0.034451,0.06615 0.067524,0.130914 0.034451,0.06339 0.067524,0.128157 h 0.00138 q -0.00276,-0.108865 -0.00413,-0.225998 0,-0.118511 0,-0.227376 V 43.54823 q 0,-0.0096 0.00551,-0.01791 0.00551,-0.0083 0.017914,-0.01378 0.01378,-0.0069 0.034451,-0.0096 0.022049,-0.0028 0.0565,-0.0028 0.030317,0 0.052365,0.0028 0.022049,0.0028 0.034451,0.0096 0.012402,0.0055 0.017914,0.01378 0.00551,0.0083 0.00551,0.01791 z"
         id="path878" />
    </g>
  </g>
</svg>
